<?xml version="1.0" encoding="UTF-8"?>
<svg width="62px" height="62px" viewBox="0 0 62 62" version="1.1" xmlns="http://www.w3.org/2000/svg" xmlns:xlink="http://www.w3.org/1999/xlink">
    <!-- Generator: Sketch 51.3 (57544) - http://www.bohemiancoding.com/sketch -->
    <title>Action Pledges_small_UI animation</title>
    <desc>Created with Sketch.</desc>
    <defs></defs>
    <g id="The-Corporation-App-(1920-x-1080-HD-Desktop)" stroke="none" stroke-width="1" fill="none" fill-rule="evenodd">
        <g id="New-User" transform="translate(-775.000000, -1131.000000)" fill="#FF4400">
            <g id="Animated-Icons-(Banner-Area)" transform="translate(86.000000, 600.000000)">
                <path d="M741.980701,556.897434 C740.068649,560.021669 737.22954,562.46363 733.861062,563.886132 C734.387798,563.024728 734.893465,562.110639 735.378062,561.14123 C738.630659,554.218389 740.542711,546.742352 741.019408,539.105625 L747.319174,539.105625 C747.176955,545.41205 745.328111,551.557784 741.980701,556.897434 Z M724.169114,568.817471 C724.090103,568.851717 724.011093,568.89123 723.934716,568.936013 C721.472224,570.229436 718.533036,570.229436 716.06791,568.936013 C715.991533,568.89123 715.912522,568.849082 715.828245,568.814837 C714.269105,567.948165 712.875888,566.80226 711.727603,565.42981 C711.656493,565.334976 711.580116,565.248046 711.495839,565.169018 C710.071017,563.433039 708.85689,561.539004 707.874527,559.518525 C704.284819,551.713205 702.414905,543.228246 702.391202,534.637916 L737.611424,534.637916 C737.585087,543.228246 735.715173,551.713205 732.128099,559.518525 C731.145736,561.539004 729.931609,563.433039 728.506787,565.169018 C728.422509,565.248046 728.340865,565.334976 728.275023,565.42981 C727.124104,566.80226 725.730887,567.948165 724.16648,568.814837 L724.169114,568.817471 Z M723.047166,579.636387 L716.952827,579.636387 L716.952827,573.140296 C718.949157,573.675051 721.050835,573.675051 723.047166,573.140296 L723.047166,579.636387 Z M732.770717,586.314242 L732.770717,589.362084 L707.224007,589.362084 L707.224007,586.314242 C707.226641,584.630948 708.588254,583.269035 710.271177,583.269035 L729.720914,583.269035 C731.401203,583.269035 732.76545,584.630948 732.768084,586.314242 L732.770717,586.314242 Z M698.019291,556.897434 C694.669248,551.557784 692.823037,545.41205 692.675551,539.105625 L698.980584,539.105625 C699.457281,546.742352 701.369334,554.218389 704.619296,561.14123 C705.106527,562.110639 705.609561,563.027362 706.138931,563.886132 C702.767818,562.46363 699.92871,560.021669 698.019291,556.897434 Z M749.170652,535.472978 L741.219567,535.472978 C741.248538,534.595768 741.26434,533.708022 741.26434,532.815007 C741.26434,531.816621 740.450533,531.002634 739.449734,531 L700.547625,531 C699.546826,531.002634 698.733018,531.816621 698.733018,532.815007 C698.733018,533.705387 698.746187,534.593134 698.777791,535.472978 L690.824073,535.472978 C689.818007,535.472978 689.006833,536.289599 689.006833,537.293253 C688.864614,544.927345 690.945222,552.440262 694.995824,558.912644 C698.027192,564.146924 703.373565,567.618882 709.388894,568.259007 C710.539812,569.536625 711.86192,570.648283 713.32098,571.562373 L713.32098,579.641655 L710.27381,579.641655 C706.586656,579.64429 703.600062,582.634177 703.594794,586.319511 L703.594794,589.367352 L703.465744,589.367352 C702.462311,589.406866 701.680108,590.24983 701.719613,591.253484 C701.756485,592.201818 702.517619,592.96312 703.465744,593 L736.531615,593 C737.535047,592.960486 738.314617,592.117522 738.277745,591.113868 C738.240874,590.165534 737.47974,589.404232 736.531615,589.367352 L736.402564,589.367352 L736.402564,586.319511 C736.397297,582.634177 733.408068,579.64429 729.723548,579.641655 L726.679012,579.641655 L726.679012,571.565007 C728.138072,570.653552 729.46018,569.539259 730.613732,568.261642 C736.626427,567.618882 741.9728,564.146924 745.004168,558.915279 C749.057403,552.440262 751.135378,544.92998 750.993159,537.295887 C750.993159,536.292233 750.181985,535.478246 749.178553,535.475612 L749.175919,535.475612 L749.170652,535.472978 Z" id="Action-Pledges_small_UI-animation"></path>
            </g>
        </g>
    </g>
</svg>