<?xml version="1.0" encoding="UTF-8"?>
<svg width="102px" height="102px" viewBox="0 0 102 102" version="1.1" xmlns="http://www.w3.org/2000/svg" xmlns:xlink="http://www.w3.org/1999/xlink">
    <!-- Generator: Sketch 51.3 (57544) - http://www.bohemiancoding.com/sketch -->
    <title>Action Pledges</title>
    <desc>Created with Sketch.</desc>
    <defs>
        <polygon id="path-1" points="0 0 102 0 102 102 0 102"></polygon>
    </defs>
    <g id="The-Corporation-App-(1920-x-1080-HD-Desktop)" stroke="none" stroke-width="1" fill="none" fill-rule="evenodd">
        <g id="New-User" transform="translate(-445.000000, -2880.000000)">
            <g id="Story_1" transform="translate(-2.000000, 1854.000000)">
                <g id="AP&amp;AM" transform="translate(2.000000, 993.000000)">
                    <g id="Action-Pledges" transform="translate(445.000000, 33.000000)">
                        <mask id="mask-2" fill="white">
                            <use xlink:href="#path-1"></use>
                        </mask>
                        <g id="Clip-2"></g>
                        <path d="M87.1705547,42.6114306 C83.3810156,48.3077368 78.7810547,52.2315799 73.8105469,54.1084344 C74.6751562,52.6905835 75.5086875,51.1848764 76.3055625,49.591114 C81.3093398,39.5840788 84.5101875,26.9772186 85.5887578,13.3383972 L95.9604844,13.3383972 C95.4913242,24.4333745 92.412,34.7350565 87.1705547,42.6114306 Z M57.8646797,62.2252674 C57.7300078,62.2804514 57.6007148,62.3473894 57.477,62.4213002 C55.365082,63.4717888 53.1945937,64.0158595 51,64.0158595 C48.8062031,64.0158595 46.6369102,63.4717888 44.5253906,62.4228939 C44.4002812,62.3473894 44.2701914,62.2804514 44.134125,62.2236736 C41.7907148,60.9847225 39.5240039,59.1138446 37.3800117,56.6556653 C37.2670547,56.4944961 37.1405508,56.3458777 36.9997031,56.2104079 C34.87125,53.6836967 32.8687031,50.5754615 31.0402734,46.9179759 C25.5484102,35.9351596 22.37625,21.4940781 22.0152656,5.97660919 L79.9849336,5.97660919 C79.6229531,21.4940781 76.4509922,35.9359565 70.960125,46.9179759 C69.1312969,50.5754615 67.1289492,53.6836967 65.0014922,56.2104079 C64.8598477,56.3458777 64.7313516,56.4952929 64.6193906,56.6564622 C62.4753984,59.1154384 60.2076914,60.9855194 57.8646797,62.2252674 Z M56.0139375,80.0196252 L45.9862617,80.0196252 L45.9862617,69.3348425 C47.6290195,69.767549 49.3026562,69.9924687 51,69.9924687 C52.6973437,69.9924687 54.3711797,69.767549 56.0139375,69.3348425 L56.0139375,80.0196252 Z M72.0175781,91.010211 L72.0175781,96.0241877 L29.9824219,96.0241877 L29.9824219,91.010211 C29.9824219,88.2460293 32.2316016,85.9962343 34.9963594,85.9962343 L67.0038398,85.9962343 C69.7685977,85.9962343 72.0175781,88.2460293 72.0175781,91.010211 Z M14.8294453,42.6114306 C9.58819922,34.7350565 6.508875,24.4333745 6.03951562,13.3383972 L16.4114414,13.3383972 C17.4894141,26.9772186 20.6906602,39.5840788 25.6948359,49.591114 C26.4917109,51.1848764 27.325043,52.6905835 28.1894531,54.1084344 C23.2191445,52.2315799 18.6191836,48.3077368 14.8294453,42.6114306 Z M99.0117187,7.36178798 L85.9224492,7.36178798 C85.9700625,5.91206181 85.9963594,4.45356995 85.9963594,2.9883046 C85.9963594,1.33776436 84.6580078,0 83.0080781,0 L18.9921211,0 C17.3421914,0 16.0038398,1.33776436 16.0038398,2.9883046 C16.0038398,4.45356995 16.0301367,5.91206181 16.07775,7.36178798 L2.98828125,7.36178798 C1.33775391,7.36178798 0,8.69955234 0,10.3500926 C0,23.7398886 3.49947656,36.3724482 9.85355859,45.9218744 C16.1343281,55.3621278 24.5007187,60.7769358 33.5390742,61.3038735 C35.5880391,63.5333479 37.7535469,65.3512332 40.0096992,66.7380058 L40.0096992,80.0196252 L34.9963594,80.0196252 C28.9359258,80.0196252 24.0058594,84.9503277 24.0058594,91.010211 L24.0058594,96.0233908 L23.7936914,96.0233908 C22.1427656,96.0233908 20.8054102,97.361952 20.8054102,99.0116954 C20.8054102,100.662236 22.1427656,102 23.7936914,102 L78.206707,102 C79.8572344,102 81.1949883,100.662236 81.1949883,99.0116954 C81.1949883,97.361952 79.8572344,96.0233908 78.206707,96.0233908 L77.9941406,96.0233908 L77.9941406,91.010211 C77.9941406,84.9503277 73.0642734,80.0196252 67.0038398,80.0196252 L61.9905,80.0196252 L61.9905,66.7380058 C64.2466523,65.3520301 66.4131562,63.5333479 68.4621211,61.3038735 C77.4992812,60.7769358 85.8656719,55.3621278 92.1472383,45.9218744 C98.5013203,36.3724482 102,23.7398886 102,10.3500926 C102,8.69955234 100.662445,7.36178798 99.0117187,7.36178798 Z" id="Fill-1" fill="#EE342E" mask="url(#mask-2)"></path>
                    </g>
                </g>
            </g>
        </g>
    </g>
</svg>