<?xml version="1.0" encoding="UTF-8"?>
<svg width="24px" height="21px" viewBox="0 0 24 21" version="1.1" xmlns="http://www.w3.org/2000/svg" xmlns:xlink="http://www.w3.org/1999/xlink">
    <!-- Generator: Sketch 54.1 (76490) - https://sketchapp.com -->
    <title>avocado-open</title>
    <desc>Created with Sketch.</desc>
    <defs>
        <radialGradient cx="46.6478261%" cy="50.4242703%" fx="46.6478261%" fy="50.4242703%" r="63.0919136%" gradientTransform="translate(0.466478,0.504243),scale(0.766874,1.000000),rotate(-35.656239),translate(-0.466478,-0.504243)" id="radialGradient-1">
            <stop stop-color="#FCEE21" offset="0.9651951%"></stop>
            <stop stop-color="#D9E021" offset="58.56%"></stop>
            <stop stop-color="#D4DE21" offset="71.73%"></stop>
            <stop stop-color="#C7D722" offset="86.64%"></stop>
            <stop stop-color="#B4CD23" offset="100%"></stop>
        </radialGradient>
    </defs>
    <g id="avocado-open" stroke="none" stroke-width="1" fill="none" fill-rule="evenodd">
        <g fill-rule="nonzero">
            <path d="M21.3355102,2.70857143 L21.2865306,2.6155102 C21.0808163,2.24326531 21.2179592,1.76326531 21.5902041,1.55755102 L22.7559184,0.911020408 C23.1281633,0.705306122 23.6081633,0.84244898 23.8138776,1.21469388 L23.8628571,1.3077551 C24.0685714,1.68 23.9314286,2.16 23.5591837,2.36571429 L22.3934694,3.0122449 C22.0163265,3.22285714 21.5412245,3.08571429 21.3355102,2.70857143 Z" id="Path" fill="#754C24"></path>
            <path d="M6.13714286,7.32244898 C6.13714286,7.32244898 -0.396734694,12.3673469 0.979591837,14.6938776 C2.35591837,17.0204082 6.44571429,21.5853061 11.8677551,19.5722449 C17.2897959,17.5591837 17.5493878,13.9738776 19.0628571,11.402449 C20.5714286,8.83102041 22.3395918,6.77877551 22.795102,5.10367347 C23.2506122,3.42857143 22.3395918,1.4644898 21.1787755,1.01877551 C20.0179592,0.568163265 13.9836735,3.07102041 13.9836735,3.07102041 L6.13714286,7.32244898 Z" id="Path" fill="#006837"></path>
            <g id="Group">
                <path d="M6.12244898,3.94285714 C6.1322449,3.93795918 6.13714286,3.93306122 6.14693878,3.92816327 C8.79673469,2.38530612 12.6073469,1.99836735 12.6073469,1.99836735 C13.1510204,1.97877551 14.042449,1.81714286 14.5910204,1.63591837 C14.5910204,1.63591837 20.6302041,-0.989387755 22.2220408,1.54285714 C22.2269388,1.55265306 22.2318367,1.56244898 22.2367347,1.56734694 C22.2416327,1.57714286 22.2465306,1.58204082 22.2563265,1.59183673 C23.8481633,4.12408163 18.8914286,8.46857143 18.8914286,8.46857143 C18.4897959,8.88489796 17.9608163,9.6244898 17.7110204,10.1093878 C17.7110204,10.1093878 15.722449,13.3959184 13.2,15.1395918 C13.1902041,15.1444898 13.1853061,15.1493878 13.1755102,15.1542857 C13.0922449,15.2130612 13.0089796,15.2669388 12.9257143,15.3208163 C8.45877551,18.1518367 3.26204082,17.9363265 1.31265306,14.8408163 C-0.636734694,11.7453061 1.40081633,6.9355102 5.8677551,4.1044898 C5.95102041,4.04571429 6.03428571,3.99183673 6.12244898,3.94285714 Z" id="Path" fill="url(#radialGradient-1)"></path>
                <path d="M6.53877551,17.6914286 C5.8922449,17.6914286 5.26040816,17.6277551 4.66285714,17.4906122 C3.03183673,17.1232653 1.75836735,16.2759184 0.984489796,15.0416327 C-1.07265306,11.7697959 1.02367347,6.71510204 5.66204082,3.77142857 C5.75020408,3.71755102 5.83836735,3.66367347 5.92653061,3.60979592 L5.94612245,3.6 C8.64489796,2.03265306 12.4114286,1.63102041 12.5681633,1.61632653 L12.5926531,1.61632653 C13.0922449,1.60163265 13.9346939,1.44489796 14.4489796,1.27836735 C14.88,1.0922449 20.8212245,-1.39591837 22.5453061,1.33714286 L22.5795918,1.38612245 C24.2987755,4.12408163 19.5085714,8.43428571 19.1559184,8.7477551 C18.7836735,9.13959184 18.2791837,9.84 18.0538776,10.2857143 L18.0391837,10.3102041 C17.9559184,10.4473469 15.9771429,13.6897959 13.4155102,15.4579592 L13.4155102,15.4579592 L13.3910204,15.4726531 C13.3028571,15.5314286 13.2146939,15.5902041 13.1314286,15.6440816 C11.0302041,16.9763265 8.67918367,17.6914286 6.53877551,17.6914286 Z M6.12244898,3.94285714 L6.31836735,4.27591837 C6.23510204,4.32489796 6.15673469,4.37387755 6.07346939,4.42285714 C1.79265306,7.13632653 -0.195918367,11.7159184 1.63591837,14.6302041 C2.30204082,15.6881633 3.40897959,16.4179592 4.83428571,16.7412245 C7.2,17.275102 10.1485714,16.6236735 12.72,14.9926531 C12.7983673,14.9436735 12.8767347,14.8897959 12.96,14.8359184 L12.9844898,14.8163265 C15.3404082,13.1902041 17.2555102,10.1191837 17.3779592,9.91836735 C17.642449,9.40408163 18.1959184,8.64 18.6171429,8.19918367 L18.6416327,8.17469388 C19.9493878,7.02367347 23.0938776,3.63918367 21.9330612,1.79265306 L21.8938776,1.73877551 C20.7330612,-0.102857143 16.3395918,1.28816327 14.7428571,1.98367347 L14.7134694,1.99836735 C14.1404082,2.18938776 13.2146939,2.36081633 12.6367347,2.38040816 C12.4016327,2.40489796 8.81632653,2.82122449 6.34285714,4.26122449 L6.31836735,4.27591837 L6.12244898,3.94285714 Z" id="Shape" fill="#B4CD23"></path>
            </g>
            <g id="Group" transform="translate(5.877551, 4.897959)">
                <path d="M5.10367347,6.92571429 C3.45306122,7.77306122 1.04816327,7.63102041 0.372244898,6.28408163 C-0.303673469,4.93714286 -0.102857143,2.4 2.11591837,1.03836735 C4.57469388,-0.475102041 7.20979592,1.07755102 7.88571429,2.4244898 C8.56163265,3.76653061 6.75428571,6.07346939 5.10367347,6.92571429 Z" id="Path" fill="#754C24"></path>
                <path d="M2.18938776,1.02367347 C0.333061224,2.16489796 -0.107755102,4.11918367 0.191020408,5.52 C1.82693878,6.93061224 4.48163265,6.6122449 6.18612245,4.7755102 C6.99428571,3.90367347 7.44489796,2.84081633 7.52816327,1.80244898 C6.49959184,0.666122449 4.28081633,-0.259591837 2.18938776,1.02367347 Z" id="Path" fill="#B27315"></path>
                <path d="M1.79755102,1.0922449 C0.60244898,2.00816327 0.504489796,3.42857143 0.979591837,4.05061224 C1.45469388,4.67265306 2.81142857,4.43265306 4.00653061,3.51673469 C5.20163265,2.60081633 5.78938776,1.35673469 5.31428571,0.734693878 C4.84408163,0.112653061 2.99755102,0.176326531 1.79755102,1.0922449 Z" id="Path" fill="#CF8F4E"></path>
            </g>
        </g>
    </g>
</svg>