<?xml version="1.0" encoding="UTF-8"?>
<svg width="109px" height="114px" viewBox="0 0 109 114" version="1.1" xmlns="http://www.w3.org/2000/svg" xmlns:xlink="http://www.w3.org/1999/xlink">
    <!-- Generator: Sketch 51.3 (57544) - http://www.bohemiancoding.com/sketch -->
    <title>Avocado Meter</title>
    <desc>Created with Sketch.</desc>
    <defs></defs>
    <g id="The-Corporation-App-(1920-x-1080-HD-Desktop)" stroke="none" stroke-width="1" fill="none" fill-rule="evenodd">
        <g id="New-User" transform="translate(-1144.000000, -2917.000000)" fill="#7ED321">
            <g id="Story_1" transform="translate(32.000000, 1896.000000)">
                <g id="AP&amp;AM" transform="translate(2.000000, 993.000000)">
                    <g id="Avocado-Meter" transform="translate(1110.000000, 28.000000)">
                        <path d="M96.8067203,96.5560283 C92.133212,103.064572 83.3736109,107.074169 73.3851143,107.278335 C73.1205646,107.283111 72.8724164,107.283111 72.647048,107.278335 C68.5038539,107.193266 64.5744864,106.456298 61.0612303,105.157276 C62.6880134,103.729008 64.1343802,102.149107 65.3693503,100.429515 C75.5491974,86.255784 72.6303428,65.8490145 65.610209,52.8844611 C64.2980912,50.4616292 62.9431474,48.3638514 61.6307259,46.332935 C60.4039565,44.437234 59.2579796,42.6636148 58.2720688,40.8141795 C58.9970747,39.1017504 59.6139523,37.2561955 60.064689,35.2213988 C63.2183276,21.0208041 71.8415535,20.6244112 72.7834232,20.6244112 C72.7940538,20.6244112 72.8037732,20.6270976 72.811974,20.6270976 L72.9128126,20.6515737 L73.1952824,20.6270976 C73.2095578,20.6270976 73.2226182,20.6244112 73.2390197,20.6244112 C74.1824081,20.6244112 82.8053302,21.023192 85.956539,35.2213988 C87.3102679,41.3159388 90.1425592,45.6974528 92.8831237,49.9359908 C93.504861,50.8992135 94.1360139,51.8749727 94.7601811,52.886849 C95.3864743,53.8987253 96.0033519,54.9425399 96.5989684,56.0394855 C102.860079,67.602635 104.939724,85.2310727 96.8067203,96.5560283 M54.5015526,101.738686 C52.5509924,103.120389 50.3452981,104.268973 47.9415712,105.158469 C44.4310487,106.456298 40.5025924,107.193266 36.363043,107.278335 C36.0984933,107.283111 35.8506489,107.283111 35.6228507,107.278335 C25.6270645,107.074169 16.8674635,103.064572 12.1915252,96.5560283 C4.06095097,85.2310727 6.14302674,67.602635 12.401707,56.0394855 C13.5905101,53.8476838 14.875292,51.8594513 16.1175517,49.9359908 C18.8581162,45.6974528 21.6904075,41.3159388 23.0441364,35.2213988 C26.1941302,21.0208041 34.8182673,20.6244112 35.7616557,20.6244112 C35.7780572,20.6244112 35.7911176,20.6270976 35.8029631,20.6270976 L35.9396421,20.6399326 L36.1944723,20.6244112 C36.290755,20.6199339 45.6092211,20.2423458 48.9347715,35.2213988 C49.3867231,37.2561955 50.0036007,39.099064 50.7286066,40.8097021 C51.8108,43.3781965 53.1347633,45.6461128 54.5015526,47.8161248 C54.9498595,48.5298111 55.405456,49.2348411 55.8589263,49.9359908 C56.4815748,50.8965271 57.1139427,51.8749727 57.7393247,52.886849 C58.3634919,53.8987253 58.9827993,54.9425399 59.574771,56.0394855 C65.8355774,67.602635 67.9191718,85.2310727 59.7846491,96.5560283 C58.3704777,98.524262 56.5836284,100.263854 54.5015526,101.738686 M102.63228,52.8844611 C101.322289,50.4616292 99.9640037,48.3638514 98.6515822,46.332935 C96.0118564,42.2472232 93.7302294,38.720282 92.6352792,33.7907429 C90.313256,23.3248375 85.2363929,18.4788752 81.3911588,16.2557322 C77.450857,13.9830401 73.9473203,13.8908071 73.0112215,13.9119998 C72.0739077,13.8908071 68.570371,13.9830401 64.6337139,16.2557322 C61.3175793,18.170238 57.0914666,22.0332774 54.5015526,29.7575651 C51.9079939,22.0332774 47.6818812,18.170238 44.3669615,16.2557322 C42.2432745,15.0289441 40.2474584,14.4376382 38.712402,14.1555665 L38.7111871,14.1555665 C37.3495612,6.19099542 29.9148346,1.84201666 26.3198749,0.177644278 C25.3029836,-0.293370718 24.0953493,0.20898558 23.7223676,1.25100925 L22.7832315,3.87591791 C22.4230066,4.88271993 22.8795142,5.99339597 23.8505421,6.47097772 C26.2876794,7.66911092 30.5733233,10.3113319 31.7727569,14.5030072 C30.5235115,14.8495525 29.0971908,15.3963836 27.6095166,16.2557322 C23.7642825,18.4788752 18.6874194,23.3248375 16.3653962,33.7892505 C15.270446,38.720282 12.988819,42.2472232 10.3490932,46.332935 C9.03545674,48.3638514 7.67838678,50.4616292 6.36839512,52.8844611 C-0.651738714,65.8490145 -3.57028957,86.255784 6.60682393,100.429515 C12.5283629,108.672874 23.3238726,113.744792 35.4910314,113.995523 C35.6547424,113.997911 35.8184534,114 35.9940099,114 C36.1601507,114 36.3238617,113.997911 36.4972921,113.995523 C43.0867354,113.859113 49.2752539,112.307271 54.5015526,109.602069 C59.7302812,112.309361 65.9209258,113.859113 72.5118878,113.995523 C72.6755988,113.997911 72.8417396,114 73.0148662,114 C73.182222,114 73.345933,113.997911 73.5190597,113.995523 C85.6764991,113.744792 96.4710976,108.672874 102.390207,100.429515 C107.093177,93.882466 109,86.0074415 109,78.1500278 C109,68.9923979 106.409782,59.8616319 102.63228,52.8844611" id="Fill-1"></path>
                        <path d="M45.9045603,88.5756632 C44.291675,90.4943816 42.3065387,91.9282016 40.1021106,92.6820904 C38.9544632,93.0781205 37.7453292,93.2889589 36.5007572,93.2889589 C28.9557856,93.2889589 22.8162201,85.5771066 22.8162201,76.0995205 C22.8162201,66.1334574 29.4667597,56.7107429 36.5007572,56.7107429 C38.1666482,56.7107429 39.8089138,57.2385843 41.3469855,58.1761738 C43.3439345,59.3937876 45.1636932,61.3017702 46.6272541,63.6433581 C48.799576,67.1205506 50.1828712,71.5541201 50.1828712,76.0995205 C50.1828712,81.0072526 48.5381825,85.4408221 45.9045603,88.5756632 M51.3598989,58.5256823 C50.8062174,57.7604614 50.2264873,57.042955 49.6194972,56.373163 C47.9796547,54.547786 46.1683769,53.0915999 44.2420011,52.0383028 C41.8082859,50.697526 39.1913226,50 36.5007572,50 C30.9030607,50 25.6249123,53.0259925 21.6413126,58.5256823 C18.0563152,63.4694985 16,69.8754652 16,76.0995205 C16,82.3608527 18.0517719,88.275062 21.7785215,92.7542585 C25.6651965,97.4266986 30.8936711,100 36.5007572,100 C38.7984752,100 41.0334951,99.5675876 43.1358495,98.7358646 C45.205189,97.9193506 47.1479208,96.7160511 48.9049814,95.1539985 C49.7200564,94.4293349 50.4951501,93.6289245 51.2239017,92.7542585 C54.948531,88.275062 57,82.3608527 57,76.0995205 C56.9987884,69.8754652 54.9461079,63.4694985 51.3598989,58.5256823" id="Fill-3"></path>
                    </g>
                </g>
            </g>
        </g>
    </g>
</svg>