<?xml version="1.0" encoding="UTF-8"?>
<svg width="71px" height="76px" viewBox="0 0 71 76" version="1.1" xmlns="http://www.w3.org/2000/svg" xmlns:xlink="http://www.w3.org/1999/xlink">
    <!-- Generator: Sketch 51.3 (57544) - http://www.bohemiancoding.com/sketch -->
    <title>Avocado Meter_small_UI animation</title>
    <desc>Created with Sketch.</desc>
    <defs></defs>
    <g id="The-Corporation-App-(1920-x-1080-HD-Desktop)" stroke="none" stroke-width="1" fill="none" fill-rule="evenodd">
        <g id="New-User" transform="translate(-86.000000, -1117.000000)" fill="#B8E986">
            <g id="Animated-Icons-(Banner-Area)" transform="translate(86.000000, 600.000000)">
                <g id="Avocado-Meter_small_UI-animation" transform="translate(-0.000000, 517.000000)">
                    <path d="M63.0511223,64.2784414 C59.3977636,68.8829931 53.8041293,71.5010621 47.94152,71.3543034 L47.4662439,71.3543034 C45.6748185,71.3228552 43.8886159,71.0817517 42.1494187,70.6414759 C41.4417273,70.4580276 41.0108451,69.7347172 41.1910322,69.0245103 C41.240649,68.8122345 41.3424939,68.6209241 41.4861213,68.4636828 C41.9457289,67.9474069 42.3739997,67.4075448 42.7709336,66.8440966 C49.3386229,57.5065793 47.4557982,44.0624414 42.9250067,35.5216138 C42.0789107,33.9256138 41.2040893,32.5445103 40.3606047,31.2053379 C39.6894731,30.1570621 39.0549011,29.1559586 38.49606,28.1338897 C38.3054272,27.7905793 38.2767018,27.3817517 38.4151063,27.0122345 C38.8068174,25.9980276 39.1201863,24.9497517 39.3499901,23.8857517 C41.3842764,14.5325103 46.9465738,14.2678207 47.5550317,14.2678207 L47.5576431,14.2678207 L47.6229283,14.2861655 L47.7326074,14.2861655 L47.9519656,14.2861655 C48.9599688,14.3254759 54.1018297,14.983269 56.0473281,23.8988552 C56.9195381,27.3817517 58.4367657,30.6707172 60.5154459,33.5927862 C60.920214,34.2269931 61.3249821,34.8690621 61.7271389,35.5373379 C62.1292956,36.2056138 62.5288409,36.8948552 62.9127178,37.6155448 C66.9525648,45.2338897 68.2948281,56.8487862 63.0458995,64.3098897 L63.0511223,64.2784414 Z M35.7566938,67.6879586 C34.4509901,68.6209241 33.0277732,69.3783034 31.5236026,69.939131 C29.1315536,70.8249241 26.6037114,71.299269 24.0523665,71.3359586 L23.5744789,71.3359586 C17.7092583,71.4827172 12.1156239,68.8646483 8.45704238,64.2600966 C3.21072521,56.7989931 4.55821135,45.1840966 8.59283555,37.5709931 C9.36058929,36.1269931 10.1884054,34.8166483 10.9901074,33.5482345 C13.0687876,30.6235448 14.5834038,27.3345793 15.4582252,23.8516828 C17.4899001,14.4958207 23.0574203,14.2337517 23.6632668,14.2337517 L23.6893809,14.2337517 L23.7781687,14.2337517 L23.9426874,14.2337517 C24.0053611,14.2337517 30.019432,13.9743034 32.160786,23.8516828 C32.4349837,25.1096138 32.8240834,26.3334759 33.3176394,27.523269 C34.0018281,29.1245103 34.8139757,30.6680966 35.7514709,32.1356828 C36.0413372,32.6047862 36.3364262,33.0738897 36.6262924,33.535131 C37.0284491,34.1693379 37.4358286,34.8087862 37.8379853,35.4796828 C38.2401421,36.1479586 38.6396874,36.8319586 39.0209528,37.5578897 C43.0607998,45.1736138 44.4056746,56.791131 39.1593574,64.2469931 C38.2166394,65.5652 37.0650088,66.7183034 35.7488595,67.6538897 L35.7566938,67.6879586 Z M66.8089374,35.5006483 C65.9628414,33.9020276 65.08802,32.5183034 64.241924,31.1817517 C62.4452759,28.6973379 61.1291266,25.8932 60.3613729,22.9213379 C59.7059096,18.2040966 57.0631655,13.995269 53.1068835,11.3693379 C49.7956191,9.30685517 45.6069219,9.30685517 42.2956575,11.3693379 C39.9662822,12.8002345 38.1069603,14.8863034 36.9422727,17.3680966 C36.6132353,18.023269 35.8141447,18.2853379 35.1586815,17.955131 C34.9079864,17.8267172 34.7042966,17.6196828 34.5737263,17.3680966 C33.4090386,14.8836828 31.5497167,12.7976138 29.2203414,11.3667172 C28.0896021,10.6958207 26.8544064,10.2267172 25.5669827,9.98037241 C24.5276426,5.84754483 21.6054779,2.45375172 17.6805328,0.823682759 C17.0198467,0.50657931 16.2259789,0.781751724 15.9099987,1.44478621 C15.886496,1.49195862 15.8708276,1.53913103 15.8525477,1.58368276 L15.2649811,3.26616552 C15.0430115,3.89775172 15.3250434,4.59747586 15.9230557,4.89361379 C17.7484294,5.74009655 19.3126623,7.06878621 20.4460131,8.73816552 C20.8194443,9.37237241 20.6131431,10.1926483 19.9785712,10.5726483 C19.9211202,10.6067172 19.8636692,10.6355448 19.8036069,10.659131 C19.3204965,10.8635448 18.8504432,11.0994069 18.3986698,11.3667172 C14.4423878,13.995269 11.7996437,18.2014759 11.1441804,22.9187172 C10.3764267,25.8905793 9.06027745,28.6947172 7.26362926,31.179131 C6.41753332,32.5156828 5.54271189,33.8994069 4.69661594,35.4980276 C0.168435768,44.0362345 -1.71438886,57.4803724 4.85068897,66.8205103 C9.31880677,72.5703034 16.2207561,75.8802345 23.4883025,75.7544414 L24.1385429,75.7544414 C27.9616431,75.7020276 31.7299038,74.8162345 35.1795728,73.1547172 C35.5425584,72.9738897 35.9656063,72.9738897 36.328592,73.1547172 C39.7756495,74.8162345 43.5439102,75.7020276 47.3722332,75.7544414 L48.0224736,75.7544414 C55.2847972,75.8776138 62.1841351,72.5676828 66.6496415,66.8205103 C69.550915,62.4858897 71.0420285,57.3598207 70.9140696,52.1420276 C70.8801213,46.3450621 69.4725728,40.6398207 66.806326,35.5006483 L66.8089374,35.5006483 Z" id="Fill-5"></path>
                    <path d="M29.8985239,59.1573517 C28.9192462,60.3890759 27.6187654,61.3246621 26.1459317,61.8645241 C25.3964578,62.1318345 24.6104242,62.2681103 23.8165564,62.2681103 C18.9358362,62.2681103 14.9612744,57.1813517 14.9612744,50.9310069 C14.9612744,44.3609379 19.267485,38.1472828 23.8165564,38.1472828 C24.9290159,38.170869 26.0153613,38.5036966 26.9476337,39.1169379 C28.347348,40.0394207 29.5172584,41.2737655 30.3659658,42.7230069 C31.8596907,45.1995586 32.6561699,48.0377655 32.6666156,50.9336276 C32.7136209,53.9159724 31.7343432,56.8196966 29.8959125,59.1599724 L29.8985239,59.1573517 Z M33.4291465,39.3423172 C33.0792179,38.8496276 32.7031753,38.3752828 32.30363,37.9219034 C31.3139066,36.7792828 30.1361619,35.8122483 28.8252355,35.0653517 C27.2975623,34.1900414 25.5740335,33.7261793 23.8165564,33.7183172 C19.8837771,33.8912828 16.2904807,35.9930759 14.2013549,39.3396966 C11.8380313,42.738731 10.5610532,46.7824552 10.5479962,50.9283862 C10.495768,54.9144552 11.8145287,58.7930759 14.2849199,61.9143172 C16.5699013,64.8809379 20.0744098,66.6368 23.8113336,66.6892138 C25.2789445,66.6918345 26.7387211,66.4088 28.1044871,65.8584552 C29.4754759,65.2976276 30.739397,64.4983172 31.8335767,63.4972138 C32.374138,63.0123862 32.8755281,62.4882483 33.3351358,61.9274207 C35.8055271,58.8035586 37.1242877,54.9275586 37.0720596,50.9414897 C37.0590026,46.7955586 35.7846358,42.7518345 33.4187009,39.3528 L33.4291465,39.3423172 Z" id="Fill-7"></path>
                </g>
            </g>
        </g>
    </g>
</svg>