<?xml version="1.0" encoding="UTF-8"?>
<svg width="37px" height="37px" viewBox="0 0 37 37" version="1.1" xmlns="http://www.w3.org/2000/svg" xmlns:xlink="http://www.w3.org/1999/xlink">
    <!-- Generator: Sketch 51.3 (57544) - http://www.bohemiancoding.com/sketch -->
    <title>Back to top</title>
    <desc>Created with Sketch.</desc>
    <defs></defs>
    <g id="The-Corporation-App-(1920-x-1080-HD-Desktop)" stroke="none" stroke-width="1" fill="none" fill-rule="evenodd">
        <g id="New-User" transform="translate(-1790.000000, -6541.000000)" fill="#FFFFFE">
            <g id="Footer-Info._Sticky" transform="translate(-4.000000, 6524.000000)">
                <path d="M1812.5,51.6875 C1803.55987,51.6875 1796.3125,44.4378125 1796.3125,35.5 C1796.3125,26.5621875 1803.55987,19.3125 1812.5,19.3125 C1821.44013,19.3125 1828.6875,26.5621875 1828.6875,35.5 C1828.6875,44.4378125 1821.44013,51.6875 1812.5,51.6875 L1812.5,51.6875 Z M1812.5,17 C1802.28337,17 1794,25.27875 1794,35.5 C1794,45.72125 1802.28337,54 1812.5,54 C1822.71663,54 1831,45.72125 1831,35.5 C1831,25.27875 1822.71663,17 1812.5,17 L1812.5,17 Z M1813.51634,30.250625 C1813.23884,29.973125 1812.85959,29.8921875 1812.5,29.9615625 C1812.14041,29.8921875 1811.76116,29.973125 1811.48366,30.250625 L1802.63025,39.1075 C1802.17931,39.5584375 1802.17931,40.2984375 1802.63025,40.749375 C1803.08234,41.2003125 1803.81425,41.2003125 1804.26634,40.749375 L1812.5,32.5053125 L1820.73366,40.749375 C1821.18575,41.2003125 1821.91766,41.2003125 1822.36975,40.749375 C1822.82069,40.2984375 1822.82069,39.5584375 1822.36975,39.1075 L1813.51634,30.250625 L1813.51634,30.250625 Z" id="Back-to-top"></path>
            </g>
        </g>
    </g>
</svg>