<?xml version="1.0" encoding="UTF-8"?>
<svg width="73px" height="54px" viewBox="0 0 73 54" version="1.1" xmlns="http://www.w3.org/2000/svg" xmlns:xlink="http://www.w3.org/1999/xlink">
    <!-- Generator: Sketch 51.3 (57544) - http://www.bohemiancoding.com/sketch -->
    <title>Comments_small_UI animation</title>
    <desc>Created with Sketch.</desc>
    <defs></defs>
    <g id="The-Corporation-App-(1920-x-1080-HD-Desktop)" stroke="none" stroke-width="1" fill="none" fill-rule="evenodd">
        <g id="New-User" transform="translate(-97.000000, -656.000000)">
            <g id="Animated-Icons-(Banner-Area)" transform="translate(86.000000, 600.000000)">
                <g id="Comments_small_UI-animation" transform="translate(12.000000, 57.000000)">
                    <path d="M55.8149857,47.7961147 C48.3445242,48.0233645 42.0273169,42.3335959 41.5163453,34.9138877 C40.1318692,23.1338226 43.9912747,11.3452357 52.0868914,2.64156566 C52.4066055,2.925628 52.7805567,3.26082155 53.314365,3.75793064 C53.9709207,4.35162093 54.8615527,5.16403921 56.2203375,6.37698539 C51.7100856,14.1546122 52.9033041,19.4665779 53.3600385,20.2108212 C53.5769873,20.5715803 53.9709207,20.7874677 54.3962546,20.770424 C61.8866983,20.2733149 68.3666171,25.9119523 68.869025,33.3685886 C69.3714328,40.8223843 63.705072,47.2705994 56.2146283,47.7705491 C56.0804626,47.7790709 55.9491514,47.7875928 55.8178403,47.7932741 L55.8149857,47.7961147 Z M55.1926851,18.5291721 C54.9157899,14.3278902 56.1147176,10.1578551 58.5925016,6.7434258 C58.875106,6.28608544 58.7866137,5.69239515 58.3841166,5.33163599 C56.6485259,3.77781501 55.5809093,2.79779994 54.8215885,2.10468784 C53.8339004,1.19568837 53.3800206,0.783797979 52.7263195,0.252601409 C52.2895673,-0.105317135 51.6529938,-0.0797515246 51.2447874,0.309413876 C42.1529188,9.52439607 37.7597051,22.3498106 39.3040382,35.1723844 C39.9377571,43.7567483 47.2854713,50.3043851 55.9291693,49.9890759 C64.6613596,49.5743449 71.4010461,42.1944054 70.9814214,33.5077792 C70.5789243,25.1194184 63.6308526,18.5206503 55.1926851,18.5121284 L55.1926851,18.5291721 Z" id="Fill-16" fill="#F8E71C"></path>
                    <path d="M55.8149857,47.7961147 C48.3445242,48.0233645 42.0273169,42.3335959 41.5163453,34.9138877 C40.1318692,23.1338226 43.9912747,11.3452357 52.0868914,2.64156566 C52.4066055,2.925628 52.7805567,3.26082155 53.314365,3.75793064 C53.9709207,4.35162093 54.8615527,5.16403921 56.2203375,6.37698539 C51.7100856,14.1546122 52.9033041,19.4665779 53.3600385,20.2108212 C53.5769873,20.5715803 53.9709207,20.7874677 54.3962546,20.770424 C61.8866983,20.2733149 68.3666171,25.9119523 68.869025,33.3685886 C69.3714328,40.8223843 63.705072,47.2705994 56.2146283,47.7705491 C56.0804626,47.7790709 55.9491514,47.7875928 55.8178403,47.7932741 L55.8149857,47.7961147 Z M55.1926851,18.5291721 C54.9157899,14.3278902 56.1147176,10.1578551 58.5925016,6.7434258 C58.875106,6.28608544 58.7866137,5.69239515 58.3841166,5.33163599 C56.6485259,3.77781501 55.5809093,2.79779994 54.8215885,2.10468784 C53.8339004,1.19568837 53.3800206,0.783797979 52.7263195,0.252601409 C52.2895673,-0.105317135 51.6529938,-0.0797515246 51.2447874,0.309413876 C42.1529188,9.52439607 37.7597051,22.3498106 39.3040382,35.1723844 C39.9377571,43.7567483 47.2854713,50.3043851 55.9291693,49.9890759 C64.6613596,49.5743449 71.4010461,42.1944054 70.9814214,33.5077792 C70.5789243,25.1194184 63.6308526,18.5206503 55.1926851,18.5121284 L55.1926851,18.5291721 Z" id="Stroke-18" stroke="#F8E71C"></path>
                    <path d="M16.8136233,49.7934266 C9.34535351,50.0206805 3.03044041,44.33081 2.5137138,36.9109689 C1.12911486,25.1335335 4.99171767,13.3418947 13.0851981,4.63806888 C13.413505,4.92497698 13.778925,5.26301722 14.3213452,5.75729453 C14.9751042,6.35383612 15.8686702,7.16910963 17.2161561,8.37639618 C12.7055039,16.1570029 13.9016832,21.4662231 14.3556033,22.2104797 C14.5725714,22.5712453 14.9693946,22.7842959 15.3919114,22.7700925 C22.8972941,22.4888658 29.2093523,28.312248 29.4919818,35.7775399 C29.7717564,43.0951167 24.153425,49.3019899 16.8136233,49.7905859 L16.8136233,49.7934266 Z M16.1912674,20.5259599 C15.9143477,16.3274434 17.1133818,12.1573336 19.5913857,8.74284316 C19.8711603,8.28265393 19.785515,7.68895301 19.3801273,7.33102806 C17.6529471,5.7828606 16.5766713,4.80282799 15.8258475,4.10118145 C14.8295072,3.20352839 14.378442,2.78310861 13.7275378,2.24906185 C13.2907468,1.89681824 12.6541167,1.91954364 12.2458742,2.30871601 C3.15319867,11.5210226 -1.24040497,24.3466667 0.304065183,37.1694702 C0.94069521,45.7539878 8.28906154,52.3017419 16.9335267,51.9892677 C25.6664919,51.5716886 32.401067,44.1887763 31.981405,35.5048351 C31.5788721,27.1191648 24.6301839,20.5202785 16.1912674,20.5089158 L16.1912674,20.5259599 Z" id="Fill-20" fill="#F8E71C"></path>
                    <path d="M16.8136233,49.7934266 C9.34535351,50.0206805 3.03044041,44.33081 2.5137138,36.9109689 C1.12911486,25.1335335 4.99171767,13.3418947 13.0851981,4.63806888 C13.413505,4.92497698 13.778925,5.26301722 14.3213452,5.75729453 C14.9751042,6.35383612 15.8686702,7.16910963 17.2161561,8.37639618 C12.7055039,16.1570029 13.9016832,21.4662231 14.3556033,22.2104797 C14.5725714,22.5712453 14.9693946,22.7842959 15.3919114,22.7700925 C22.8972941,22.4888658 29.2093523,28.312248 29.4919818,35.7775399 C29.7717564,43.0951167 24.153425,49.3019899 16.8136233,49.7905859 L16.8136233,49.7934266 Z M16.1912674,20.5259599 C15.9143477,16.3274434 17.1133818,12.1573336 19.5913857,8.74284316 C19.8711603,8.28265393 19.785515,7.68895301 19.3801273,7.33102806 C17.6529471,5.7828606 16.5766713,4.80282799 15.8258475,4.10118145 C14.8295072,3.20352839 14.378442,2.78310861 13.7275378,2.24906185 C13.2907468,1.89681824 12.6541167,1.91954364 12.2458742,2.30871601 C3.15319867,11.5210226 -1.24040497,24.3466667 0.304065183,37.1694702 C0.94069521,45.7539878 8.28906154,52.3017419 16.9335267,51.9892677 C25.6664919,51.5716886 32.401067,44.1887763 31.981405,35.5048351 C31.5788721,27.1191648 24.6301839,20.5202785 16.1912674,20.5089158 L16.1912674,20.5259599 Z" id="Stroke-22" stroke="#F8E71C"></path>
                </g>
            </g>
        </g>
    </g>
</svg>