<?xml version="1.0" encoding="utf-8"?>
<!-- Generator: Adobe Illustrator 23.0.4, SVG Export Plug-In . SVG Version: 6.00 Build 0)  -->
<svg version="1.1" id="Layer_1" xmlns="http://www.w3.org/2000/svg" xmlns:xlink="http://www.w3.org/1999/xlink" x="0px" y="0px"
	 viewBox="0 0 612 792" style="enable-background:new 0 0 612 792;" xml:space="preserve">
<style type="text/css">
	.st0{fill:#FFFFFF;}
</style>
<g>
	<path class="st0" d="M320.81,213.81c0-0.14,0-0.27,0-0.27c1.35-1.32,2.56-2.5,3.45-3.95l-5.09-3.48c0.28-4.82-0.46-8.59-2.26-11.34
		c-4.47-2.51-9.56-3.65-15.69-3.07c-2.53,3.07-5.07,6.7-7.17,10.92l-6.73,2.91c1.19,2.18,2.98,3.64,5.67,4.67c0,0.13,0,0.13,0,0.27
		c0,2.94,0,5.99,0.32,8.89c0.43,3.35,1.19,6.42,2.66,9.32c0.18,0,0.32,0.16,0.47,0.45c0.46,0.59,0.9,1.61,0.74,2.48
		c0,0,0,0.13,0,0.28c-0.29,0.14-0.45,0.45-0.74,0.6c-1.21,1.17-2.1,2.31-2.55,3.91c-2.54,1.03-4.78,2.35-6.74,3.38
		c-1.79,1.14-3.9,2.17-6.12,3.19c-2.12,1.01-4.2,3.21-6,6.85v0.13c-0.89,2.93-1.62,6.27-2.09,9.91c-0.29,3.79-1.05,7.3-2.53,10.34
		c-1.05,2.63-2.24,5.69-3.43,9.04c-1.23,3.06-1.66,6.4-1.23,9.89c-0.27,0.16-0.43,0.46-0.59,0.61c-0.13,0.29-0.44,0.59-0.6,0.85
		c-0.14,1.33-0.45,3.07-0.87,5.55c-0.46,3.33-0.91,7-1.35,11.2c-0.47,4.08-0.59,8.01-0.47,11.79c0,3.65,0,7.15-0.12,10.52
		c0,0.11,0,0.28,0,0.4l0,0c0.27,0.16,0.41,0.28,0.74,0.28c-1.05,2.49-2.25,5.11-3.76,7.6c-0.29,0.43-0.59,0.86-0.74,1.31
		c-1.49,1.6-1.17,3.19,0.74,4.93c0,0,0.17,0,0.17,0.15c0,0.3,0,0.6-0.17,0.89c0,0.28,0,0.57,0,0.86l-4.5-1.76l-10.92,0.56
		l-10.15,43.02l30.59,9.64l10.1,0.1l7.94-40.35l-13.48-6.83l1.06-5.83c0.3-0.3,0.3-0.57,0.47-0.88c0.12,0,0.12,0,0.12,0
		c-1.02-0.72-1.78-1.87-2.23-3.49l-0.6,0.3c0.15-0.3,0.29-0.47,0.29-0.74c1.36-2.17,1.8-4.66,1.52-7.56c1.16,0,2.25-0.14,3.29-0.43
		c0,0,0,0,0.15,0c0.57-3.37,1.48-6.56,2.82-9.77c1.21-3.35,2.25-6.7,2.87-10.04c0.27-2.05,0.87-3.95,1.33-5.69
		c0.44-1.45,0.91-2.91,1.34-4.22c0.16-0.15,0.16-0.15,0.16-0.15c-0.16,1.46-0.16,2.92-0.32,4.37c-0.28,0-0.28,0-0.58,0
		c-0.3,2.47-0.61,4.81-0.89,6.84c0,0.14,0,0.44,0.15,0.74c0,0.15,0,0.45,0.13,0.57c0,0.15,0,0.44-0.13,0.59
		c-0.33,3.35-0.61,6.56-1.07,9.76c-0.44,3.5-0.74,7.1-0.59,10.91c0,1.31,0.14,2.63,0.14,3.65c0,0.14,0,0.43,0.15,0.43
		c2.56,2.06,5.07,3.5,7.64,4.37h0.14c0,0.89-0.14,1.47-0.3,1.9c0,0.29,0,0.29,0,0.6c0,0.72,0.3,1.47,0.9,1.9
		c0.14,0.27,0.3,0.7,0.14,1.16c0,0.59,0,1.02,0.16,1.3c0.16,0.15,0.16,0.29,0.16,0.43c-0.16,0.59-0.32,1.02-0.46,1.31
		c-0.3,0.44-0.44,0.88-0.44,1.61c0,0.71,0,1.46-0.16,2.04c-0.14,1.17,0,1.88,0.6,2.47c0.14,0.13,0.3,0.29,0.46,0.29
		c0.15,0.28,0.29,0.58,0.61,0.71c0.13,0.29,0.28,0.29,0.45,0.6c0.15,0.13,0.3,0.13,0.59,0.31c0.45,0.45,0.9,0.57,1.37,0.87
		c0.28,0,0.42,0,0.42,0.44c0.73,0.57,1.04,1.45,0.6,2.46c0.13,1.3,0.59,2.77,0.92,4.38c0.72,2.9,1.93,5.81,3.12,8.31
		c1.37,2.61,3.01,5.23,4.94,7.85c1.36,2.04,2.4,4.22,3.13,6.54c0,0.17,0,0.32,0,0.45c-0.12,3.33-0.87,6.42-2.37,8.89
		c-0.6,0.86-0.76,1.75-0.76,2.47c0,0.44,0,1,0.32,1.29c-0.16,1.05-0.32,2.04-0.32,3.37c-0.16,3.78-0.28,7.57-0.43,11.49
		c-0.15,3.79-0.3,7.72-0.3,11.5c0,3.65,0,7.02-0.3,10.22c0.87,0.74,1.93,1.15,3.12,1.3c-1.33,2.03-2.09,4.09-2.25,6.42
		c0,0.13,0,0.27,0,0.44c-0.27,0.14-0.42,0.43-0.57,0.72c-1.51,2.33-2.7,4.8-3.32,7.27c-0.11,0.3-0.27,0.61-0.27,0.75
		c-1.66,2.17-2.26,4.36-1.51,6.41c2.26,2.47,5.56,3.18,9.86,2.04c4.06-0.88,6.43-3.06,7.05-6.7c0.73-3.51,1.78-6.72,3.6-9.18
		c1.62-2.61,1.35-4.96-0.62-7c-0.13-0.15-0.44-0.3-0.44-0.43c0.61,0,1.18,0,1.64,0c0.47-3.64,1.21-7.27,1.94-10.78
		c0.16-1.17,0.47-2.33,0.78-3.79c3.12,0.16,5.22-1.32,6.57-4.37c0.89-2.47,1.19-5.37,0.89-8.89c-0.13-0.85,0-1.43,0.43-2.03
		c2.25-2.92,3.76-5.97,4.49-9.17c0.32-2.04-0.43-3.34-2.23-4.09c0-0.14,0.16-0.56,0.3-0.73c-0.75-0.27-1.32-0.73-1.78-1.29
		c-1.33-1.9-2.69-3.81-4.04-5.98c0,0,0,0,0-0.14c0.3-2.91,0.76-5.83,1.49-8.73c0.61-2.34,1.07-4.82,1.35-7.29
		c0.15-1.17,0.43-2.33,0.43-3.51c0.32-3.78,0.93-7.41,1.67-10.91c0.75-3.66,1.35-7.16,1.78-10.64c0.17-2.02,0.32-3.91,0.17-5.81
		c1.19-0.29,2.4-0.74,3.45-1.31c0-2.78,0.3-5.54,0.72-8.02c1.35-0.44,2.87-0.73,4.35-0.86c-1.06-3.38-1.64-6.85-2.1-10.2
		c-0.3-3.36-0.56-6.55-1.03-9.62c0.6,0,1.03,0,1.49,0c0-3.04-0.31-5.97-0.89-8.58c0,0,0-0.15,0-0.3c0,0,0,0-0.13,0
		c-0.18,0-0.18,0-0.34,0c-0.57-3.35-0.73-6.56-0.13-9.76c0.29-0.87,0.29-1.74,0.47-2.62c0.56,1.17,1.61,2.06,3.12,2.62
		c-0.3,1.18-0.45,2.19-0.45,3.36c-0.16,3.5,0.45,6.85,1.37,9.91c1.03,3.34,1.8,6.71,2.23,10.03c0.61,3.51,0.9,6.87,1.05,10.48
		c0.3,0,0.3,0,0.61,0c-0.16,0.3-0.31,0.47-0.31,0.75c-0.16,0.45-0.3,0.74-0.3,1.03c-0.3,0.43-0.3,0.86-0.3,1.14
		c-0.14,0.44-0.45,0.74-0.92,1.02c-0.14,0-0.26,0-0.26,0.15c0,0.3-0.33,0.45-0.48,0.6c-0.29,0.28-0.29,0.56-0.29,0.86
		c-0.13,0.3-0.13,0.61-0.13,1.03c-0.16,0.42-0.16,0.88-0.3,1.17c0,0.15-0.16,0.28,0,0.56c0,0.15,0,0.3,0.13,0.46
		c0,0,0.16,0.14,0.3,0.28c-0.13,0-0.3,0-0.3,0.14c-0.29,0.73-0.46,1.31-0.46,2.19c0.16,0.28,0.33,0.72,0.33,1
		c0.13,0.46,0.43,0.75,0.72,1.33c0.48,0.57,0.91,0.88,1.81,0.88c0.45,0,0.59-0.3,0.59-0.6c0.16-0.15,0.29-0.15,0.29-0.28
		c0-0.14,0-0.14,0-0.14c0.3,0.72,0.47,1.31,0.76,1.88c0,0.13,0,0.13,0.17,0.13c0.29,0.16,0.59,0.31,0.59,0.76c0,0,0,0,0.29,0
		c0.77,0,1.21-0.44,1.47-1.17l0.2-0.16c0.88,0.3,1.76,0.16,2.22-0.42c0.15,0,0.28-0.3,0.28-0.3c0.16-0.14,0.16-0.14,0.32-0.14
		c-0.16-0.43,0-0.74,0.44-0.86c0-0.15,0-0.15,0-0.15l0,0c0.6-0.29,1.2-0.44,1.8-0.75c0-0.12,0.15-0.28,0.15-0.28
		c0.15-0.11,0.31-0.11,0.31-0.29c0.14-0.15,0.3-0.15,0.3-0.43c0.15,0,0.15-0.16,0.15-0.3c0.74-1.16,1.48-2.03,1.94-2.91
		c0.14-0.14,0.14-0.14,0.14-0.27c0-0.15,0-0.15,0-0.3v-0.3c0-0.59-0.14-1.15-0.14-1.76v-0.15c-0.15-0.29-0.15-0.58-0.15-0.71
		c-0.14-0.75-0.45-1.32-0.74-1.77c-0.32-0.13-0.32-0.28-0.46-0.43c0-0.27-0.14-0.71-0.3-1c-0.16,0-0.3-0.29-0.3-0.46
		c0-0.28-0.15-0.56-0.44-1.03c0,0,0-0.28-0.16-0.41c0,0,0,0,0-0.17c1.07-0.11,2.09-0.29,3.45-0.42c0-3.65,0-7.16-0.44-10.49
		c-0.32-2.03-0.46-4.23-0.61-6.43c-0.45-3.64-1.05-7.13-1.79-10.47c-0.44-2.04-0.75-4.08-0.91-6.42c0-0.59,0-1.3,0-1.89
		c0,0,0-0.15,0-0.42c0-2.2,0-4.37,0.15-6.54c0-0.18,0-0.32,0-0.46c-0.9-2.92-2.23-5.69-3.9-7.87c0-0.15,0-0.3,0-0.58
		c0-3.77-0.14-7.44-0.28-11.07c-0.31-3.78-0.9-7.26-1.93-10.37c-1.06-2.73-2.11-5.2-3.31-7.25c0-0.32-0.15-0.44-0.3-0.6
		c0-0.28,0-0.73,0-1.02c-0.3-1.73-0.75-3.05-1.18-4.23h-0.33c-1.47-0.6-3.13-1.15-4.94-1.6c-3.58-1.02-6.73-2.19-9.71-3.47
		c-0.32-0.16-0.45-0.32-0.75-0.48c-2.54-1.14-5.23-2.91-7.62-4.79c-0.3-1.3-0.89-2.17-2.09-2.61c0.31-2.77,0.58-5.69,0.74-8.59
		v-0.15c2.98-0.45,4.49-2.62,4.62-6.56C320.81,214.7,320.81,214.27,320.81,213.81 M265.91,348.98l-3.75-1.48l0.18-0.14l0.44-1.47
		c0.73,0.45,1.49,0.76,1.94,0.45c0.59,0.58,1.19,0.87,1.94,1.02L265.91,348.98z"/>
</g>
<path class="st0" d="M320.93,180.11c-8.04-3.65-19.44-4.64-27.77-0.91c-0.04,1.82-0.33,4.1,1.66,5.22
	c7.83,3.15,17.33,4.02,26.24,2.69c1.66-0.37,1.91-2.11,1.95-3.57C322.92,182.14,322.17,180.9,320.93,180.11z M296.31,181.44
	c7.92-1.99,17.24-1.08,24.33,2.11C312.89,184.84,303.69,183.93,296.31,181.44z"/>
<g>
	<defs>
		<path id="SVGID_1_" d="M374.15,436.63c-0.07,0-0.14-0.02-0.2-0.06c-6.34-0.27-11.2-3.01-14.06-7.94
			c-4.84-9.15-5.47-20.35-6.08-31.18c-0.91-16.29-1.78-31.67-15.78-40.44c-1.81-1.13-3.76-2.06-5.96-2.85
			c-0.14-0.05-0.25-0.18-0.26-0.33l-0.48-4.11c-0.02-0.13,0.04-0.27,0.14-0.35s0.24-0.12,0.37-0.08
			c11.27,3.28,19.33,14.74,21.56,30.64c0.98,5.57,1.25,11.25,1.51,16.73c0.42,8.95,0.83,17.41,4.03,25.66
			c3.15,7.14,9.92,8.9,13.67,9.31c4.84,0.35,11.11-0.85,13.79-8.43c-0.23,0.18-0.49,0.4-0.74,0.62c-0.83,0.71-1.77,1.52-2.64,1.63
			c-0.04,0-0.09,0-0.13,0l-3.24-0.63c-0.16-0.03-0.28-0.16-0.32-0.31c-0.03-0.16,0.03-0.32,0.17-0.41l0.51-0.34
			c2.33-1.56,6.68-4.47,8.09-8.51c0.04-0.12,0.13-0.21,0.25-0.25c1.4-0.46,2.64-0.14,3.4,0.88c0.06,0.09,0.09,0.19,0.08,0.3
			c-0.85,5.62-0.79,10.78,0.2,15.34c0.03,0.14-0.02,0.28-0.12,0.38c-0.1,0.1-0.25,0.13-0.39,0.09c-0.18-0.05-0.39-0.06-0.61-0.07
			c-0.53-0.02-1.18-0.05-1.7-0.71c-0.02-0.03-0.04-0.06-0.05-0.09c-0.37-0.86-0.63-2.76-0.87-4.43c-0.04-0.26-0.07-0.52-0.11-0.77
			c-0.09,0.17-0.18,0.34-0.27,0.5c-0.24,0.44-0.47,0.85-0.65,1.38c-1.92,5.04-5.69,8.12-10.62,8.7c-0.06,0.05-0.13,0.08-0.2,0.08
			c-0.45,0.02-0.89,0.04-1.33,0.04C374.82,436.61,374.49,436.62,374.15,436.63C374.15,436.63,374.15,436.63,374.15,436.63z"/>
	</defs>
	<use xlink:href="#SVGID_1_"  style="overflow:visible;fill:#FFFFFF;"/>
	<clipPath id="SVGID_2_">
		<use xlink:href="#SVGID_1_"  style="overflow:visible;"/>
	</clipPath>
</g>
</svg>
