<?xml version="1.0" encoding="UTF-8" standalone="no"?>
<!DOCTYPE svg PUBLIC "-//W3C//DTD SVG 1.1//EN" "http://www.w3.org/Graphics/SVG/1.1/DTD/svg11.dtd">
<svg version="1.1" xmlns:xl="http://www.w3.org/1999/xlink" xmlns:dc="http://purl.org/dc/elements/1.1/" xmlns="http://www.w3.org/2000/svg" viewBox="233.16 176.84218 158.87865 290.37735" width="158.87865" height="290.37735">
  <defs/>
  <metadata> Produced by OmniGraffle 7.10.2 
    <dc:date>2019-06-28 21:51:25 +0000</dc:date>
  </metadata>
  <g id="Canvas_1" stroke-opacity="1" stroke="none" stroke-dasharray="none" fill="none" fill-opacity="1">
    <title>Canvas 1</title>
    <g id="Canvas_1: Layer 1">
      <title>Layer 1</title>
      <g id="Group_6">
        <g id="Graphic_7">
          <path d="M 320.81 213.81 C 320.81 213.67 320.81 213.54 320.81 213.54 C 322.16 212.22 323.37 211.04 324.26 209.59 L 319.17 206.11 C 319.45 201.29 318.71 197.52 316.91 194.77 C 312.44 192.26 307.35 191.12 301.22 191.7 C 298.69 194.77 296.15 198.4 294.05 202.62 L 287.32 205.53 C 288.51 207.71 290.3 209.17 292.99 210.2 C 292.99 210.33 292.99 210.33 292.99 210.47 C 292.99 213.41 292.99 216.46 293.31 219.36 C 293.74 222.71 294.5 225.78 295.97 228.68 C 296.15 228.68 296.29 228.84 296.44 229.13 C 296.9 229.72 297.34 230.74 297.18 231.61 C 297.18 231.61 297.18 231.74 297.18 231.89 C 296.89 232.03 296.73 232.34 296.44 232.49 C 295.23 233.66 294.34 234.8 293.89 236.4 C 291.35 237.43 289.11 238.75 287.15 239.78 C 285.36 240.92 283.25 241.95 281.03 242.97 C 278.91 243.98 276.83 246.18 275.03 249.82 L 275.03 249.95 C 274.14 252.88 273.41 256.22 272.94 259.86 C 272.65 263.65 271.89 267.16 270.41 270.2 C 269.36 272.83 268.17 275.89 266.98 279.24 C 265.75 282.3 265.32 285.64 265.75 289.13 C 265.48 289.29 265.32 289.59 265.16 289.74 C 265.03 290.03 264.72 290.33 264.56 290.59 C 264.42 291.92 264.11 293.66 263.69 296.14 C 263.23 299.47 262.78 303.14 262.34 307.34 C 261.87 311.42 261.75 315.35 261.87 319.13 C 261.87 322.78 261.87 326.28 261.75 329.65 C 261.75 329.76 261.75 329.93 261.75 330.05 C 262.02 330.21 262.16 330.33 262.49 330.33 C 261.44 332.82 260.24 335.44 258.73 337.93 C 258.44 338.36 258.14 338.79 257.99 339.24 C 256.5 340.84 256.82 342.43 258.73 344.17 C 258.73 344.17 258.9 344.17 258.9 344.32 C 258.9 344.62 258.9 344.92 258.73 345.21 C 258.73 345.49 258.73 345.78 258.73 346.07 L 254.23 344.31 L 243.31 344.87 L 233.16 387.89 L 263.75 397.53 L 273.85 397.63 L 281.79 357.28 L 268.31 350.45 L 269.37 344.62 C 269.67 344.32 269.67 344.05 269.84 343.74 C 269.96 343.74 269.96 343.74 269.96 343.74 C 268.94 343.02 268.18 341.87 267.73 340.25 L 267.13 340.55 C 267.28 340.25 267.42 340.08 267.42 339.81 C 268.78 337.64 269.22 335.15 268.94 332.25 C 270.1 332.25 271.19 332.11 272.23 331.82 C 272.23 331.82 272.23 331.82 272.38 331.82 C 272.95 328.45 273.86 325.26 275.2 322.05 C 276.41 318.7 277.45 315.35 278.07 312.01 C 278.34 309.96 278.94 308.06 279.4 306.32 C 279.84 304.87 280.31 303.41 280.74 302.1 C 280.9 301.95 280.9 301.95 280.9 301.95 C 280.74 303.41 280.74 304.87 280.58 306.32 C 280.3 306.32 280.3 306.32 280 306.32 C 279.7 308.79 279.39 311.13 279.11 313.16 C 279.11 313.3 279.11 313.6 279.26 313.9 C 279.26 314.05 279.26 314.35 279.39 314.47 C 279.39 314.62 279.39 314.91 279.26 315.06 C 278.93 318.41 278.65 321.62 278.19 324.82 C 277.75 328.32 277.45 331.92 277.6 335.73 C 277.6 337.04 277.74 338.36 277.74 339.38 C 277.74 339.52 277.74 339.81 277.89 339.81 C 280.45 341.87 282.96 343.31 285.53 344.18 L 285.67 344.18 C 285.67 345.07 285.53 345.65 285.37 346.08 C 285.37 346.37 285.37 346.37 285.37 346.68 C 285.37 347.4 285.67 348.15 286.27 348.58 C 286.41 348.85 286.57 349.28 286.41 349.74 C 286.41 350.33 286.41 350.76 286.57 351.04 C 286.73 351.19 286.73 351.33 286.73 351.47 C 286.57 352.06 286.41 352.49 286.27 352.78 C 285.97 353.22 285.83 353.66 285.83 354.39 C 285.83 355.1 285.83 355.85 285.67 356.43 C 285.53 357.6 285.67 358.31 286.27 358.9 C 286.41 359.03 286.57 359.19 286.73 359.19 C 286.88 359.47 287.02 359.77 287.34 359.9 C 287.47 360.19 287.62 360.19 287.79 360.5 C 287.94 360.63 288.09 360.63 288.38 360.81 C 288.83 361.26 289.28 361.38 289.75 361.68 C 290.03 361.68 290.17 361.68 290.17 362.12 C 290.9 362.69 291.21 363.57 290.77 364.58 C 290.9 365.88 291.36 367.35 291.69 368.96 C 292.41 371.86 293.62 374.77 294.81 377.27 C 296.18 379.88 297.82 382.5 299.75 385.12 C 301.11 387.16 302.15 389.34 302.88 391.66 C 302.88 391.83 302.88 391.98 302.88 392.11 C 302.76 395.44 302.01 398.53 300.51 401 C 299.91 401.86 299.75 402.75 299.75 403.47 C 299.75 403.91 299.75 404.47 300.07 404.76 C 299.91 405.81 299.75 406.8 299.75 408.13 C 299.59 411.91 299.47 415.7 299.32 419.62 C 299.17 423.41 299.02 427.34 299.02 431.12 C 299.02 434.77 299.02 438.14 298.72 441.34 C 299.59 442.08 300.65 442.49 301.84 442.64 C 300.51 444.67 299.75 446.73 299.59 449.06 C 299.59 449.19 299.59 449.33 299.59 449.5 C 299.32 449.64 299.17 449.93 299.02 450.22 C 297.51 452.55 296.32 455.02 295.7 457.49 C 295.59 457.79 295.43 458.1 295.43 458.24 C 293.77 460.41 293.17 462.6 293.92 464.65 C 296.18 467.12 299.48 467.83 303.78 466.69 C 307.84 465.81 310.21 463.63 310.83 459.99 C 311.56 456.48 312.61 453.27 314.43 450.81 C 316.05 448.2 315.78 445.85 313.81 443.81 C 313.68 443.66 313.37 443.51 313.37 443.38 C 313.98 443.38 314.55 443.38 315.01 443.38 C 315.48 439.74 316.22 436.11 316.95 432.6 C 317.11 431.43 317.42 430.27 317.73 428.81 C 320.85 428.97 322.95 427.49 324.3 424.44 C 325.19 421.97 325.49 419.07 325.19 415.55 C 325.06 414.7 325.19 414.12 325.62 413.52 C 327.87 410.6 329.38 407.55 330.11 404.35 C 330.43 402.31 329.68 401.01 327.88 400.26 C 327.88 400.12 328.04 399.7 328.18 399.53 C 327.43 399.26 326.86 398.8 326.4 398.24 C 325.07 396.34 323.71 394.43 322.36 392.26 C 322.36 392.26 322.36 392.26 322.36 392.12 C 322.66 389.21 323.12 386.29 323.85 383.39 C 324.46 381.05 324.92 378.57 325.2 376.1 C 325.35 374.93 325.63 373.77 325.63 372.59 C 325.95 368.81 326.56 365.18 327.3 361.68 C 328.05 358.02 328.65 354.52 329.08 351.04 C 329.25 349.02 329.4 347.13 329.25 345.23 C 330.44 344.94 331.65 344.49 332.7 343.92 C 332.7 341.14 333 338.38 333.42 335.9 C 334.77 335.46 336.29 335.17 337.77 335.04 C 336.71 331.66 336.13 328.19 335.67 324.84 C 335.37 321.48 335.11 318.29 334.64 315.22 C 335.24 315.22 335.67 315.22 336.13 315.22 C 336.13 312.18 335.82 309.25 335.24 306.64 C 335.24 306.64 335.24 306.49 335.24 306.34 C 335.24 306.34 335.24 306.34 335.11 306.34 C 334.93 306.34 334.93 306.34 334.77 306.34 C 334.2 302.99 334.04 299.78 334.64 296.58 C 334.93 295.71 334.93 294.84 335.11 293.96 C 335.67 295.13 336.72 296.02 338.23 296.58 C 337.93 297.76 337.78 298.77 337.78 299.94 C 337.62 303.44 338.23 306.79 339.15 309.85 C 340.18 313.19 340.95 316.56 341.38 319.88 C 341.99 323.39 342.28 326.75 342.43 330.36 C 342.73 330.36 342.73 330.36 343.04 330.36 C 342.88 330.66 342.73 330.83 342.73 331.11 C 342.57 331.56 342.43 331.85 342.43 332.14 C 342.13 332.57 342.13 333 342.13 333.28 C 341.99 333.72 341.68 334.02 341.21 334.3 C 341.07 334.3 340.95 334.3 340.95 334.45 C 340.95 334.75 340.62 334.9 340.47 335.05 C 340.18 335.33 340.18 335.61 340.18 335.91 C 340.05 336.21 340.05 336.52 340.05 336.94 C 339.89 337.36 339.89 337.82 339.75 338.11 C 339.75 338.26 339.59 338.39 339.75 338.67 C 339.75 338.82 339.75 338.97 339.88 339.13 C 339.88 339.13 340.04 339.27 340.18 339.41 C 340.05 339.41 339.88 339.41 339.88 339.55 C 339.59 340.28 339.42 340.86 339.42 341.74 C 339.58 342.02 339.75 342.46 339.75 342.74 C 339.88 343.2 340.18 343.49 340.47 344.07 C 340.95 344.64 341.38 344.95 342.28 344.95 C 342.73 344.95 342.87 344.65 342.87 344.35 C 343.03 344.2 343.16 344.2 343.16 344.07 C 343.16 343.93 343.16 343.93 343.16 343.93 C 343.46 344.65 343.63 345.24 343.92 345.81 C 343.92 345.94 343.92 345.94 344.09 345.94 C 344.38 346.1 344.68 346.25 344.68 346.7 C 344.68 346.7 344.68 346.7 344.97 346.7 C 345.74 346.7 346.18 346.26 346.44 345.53 L 346.64 345.37 C 347.52 345.67 348.4 345.53 348.86 344.95 C 349.01 344.95 349.14 344.65 349.14 344.65 C 349.3 344.51 349.3 344.51 349.46 344.51 C 349.3 344.08 349.46 343.77 349.9 343.65 C 349.9 343.5 349.9 343.5 349.9 343.5 C 350.5 343.21 351.1 343.06 351.7 342.75 C 351.7 342.63 351.85 342.47 351.85 342.47 C 352 342.36 352.16 342.36 352.16 342.18 C 352.3 342.03 352.46 342.03 352.46 341.75 C 352.61 341.75 352.61 341.59 352.61 341.45 C 353.35 340.29 354.09 339.42 354.55 338.54 C 354.69 338.4 354.69 338.4 354.69 338.27 C 354.69 338.12 354.69 338.12 354.69 337.97 L 354.69 337.67 C 354.69 337.08 354.55 336.52 354.55 335.91 L 354.55 335.76 C 354.4 335.47 354.4 335.18 354.4 335.05 C 354.26 334.3 353.95 333.73 353.66 333.28 C 353.34 333.15 353.34 333 353.2 332.85 C 353.2 332.58 353.06 332.14 352.9 331.85 C 352.74 331.85 352.6 331.56 352.6 331.39 C 352.6 331.11 352.45 330.83 352.16 330.36 C 352.16 330.36 352.16 330.08 352 329.95 C 352 329.95 352 329.95 352 329.78 C 353.07 329.67 354.09 329.49 355.45 329.36 C 355.45 325.71 355.45 322.2 355.01 318.87 C 354.69 316.84 354.55 314.64 354.4 312.44 C 353.95 308.8 353.35 305.31 352.61 301.97 C 352.17 299.93 351.86 297.89 351.7 295.55 C 351.7 294.96 351.7 294.25 351.7 293.66 C 351.7 293.66 351.7 293.51 351.7 293.24 C 351.7 291.04 351.7 288.87 351.85 286.7 C 351.85 286.52 351.85 286.38 351.85 286.24 C 350.95 283.32 349.62 280.55 347.95 278.37 C 347.95 278.22 347.95 278.07 347.95 277.79 C 347.95 274.02 347.81 270.35 347.67 266.72 C 347.36 262.94 346.77 259.46 345.74 256.35 C 344.68 253.62 343.63 251.15 342.43 249.1 C 342.43 248.78 342.28 248.66 342.13 248.5 C 342.13 248.22 342.13 247.77 342.13 247.48 C 341.83 245.75 341.38 244.43 340.95 243.25 L 340.62 243.25 C 339.15 242.65 337.49 242.1 335.68 241.65 C 332.1 240.63 328.95 239.46 325.97 238.18 C 325.65 238.02 325.52 237.86 325.22 237.7 C 322.68 236.56 319.99 234.79 317.6 232.91 C 317.3 231.61 316.71 230.74 315.51 230.3 C 315.82 227.53 316.09 224.61 316.25 221.71 L 316.25 221.56 C 319.23 221.11 320.74 218.94 320.87 215 C 320.81 214.7 320.81 214.27 320.81 213.81 Z M 265.91 348.98 L 262.16 347.5 L 262.34 347.36 L 262.78 345.89 C 263.51 346.34 264.27 346.65 264.72 346.34 C 265.31 346.92 265.91 347.21 266.66 347.36 Z" fill="white"/>
        </g>
      </g>
      <g id="Graphic_5">
        <path d="M 320.93 180.11 C 312.89 176.46 301.49 175.47 293.16 179.2 C 293.12 181.02 292.83 183.3 294.82 184.42 C 302.65 187.57 312.15 188.44 321.06 187.11 C 322.72 186.74 322.97 185 323.01 183.54 C 322.92 182.14 322.17 180.9 320.93 180.11 Z M 296.31 181.44 C 304.23 179.45 313.55 180.36 320.64 183.55 C 312.89 184.84 303.69 183.93 296.31 181.44 Z" fill="white"/>
      </g>
      <g id="Group_2">
        <g id="Graphic_4">
          <title>SVGID_1_</title>
          <path d="M 374.15 436.63 C 374.08 436.63 374.01 436.61 373.95 436.57 C 367.61 436.3 362.75 433.56 359.89 428.63 C 355.05 419.48 354.42 408.28 353.81 397.45 C 352.9 381.16 352.03 365.78 338.03 357.01 C 336.22 355.88 334.27 354.95 332.07 354.16 C 331.93 354.11 331.82 353.98 331.81 353.83 L 331.33 349.72 C 331.31 349.59 331.37 349.45 331.47 349.37 C 331.57 349.29 331.71 349.25 331.84 349.29 C 343.11 352.57 351.17 364.03 353.4 379.93 C 354.38 385.5 354.65 391.18 354.91 396.66 C 355.33 405.61 355.74 414.07 358.94 422.32 C 362.09 429.46 368.86 431.22 372.61 431.63 C 377.45 431.98 383.72 430.78 386.4 423.2 C 386.17 423.38 385.91 423.6 385.66 423.82 C 384.83 424.53 383.89 425.34 383.02 425.45 C 382.98 425.45 382.93 425.45 382.89 425.45 L 379.65 424.82 C 379.49 424.79 379.37 424.66 379.33 424.51 C 379.3 424.35 379.36 424.19 379.5 424.1 L 380.01 423.76 C 382.34 422.2 386.69 419.29 388.1 415.25 C 388.14 415.13 388.23 415.04 388.35 415 C 389.75 414.54 390.99 414.86 391.75 415.88 C 391.81 415.97 391.84 416.07 391.83 416.18 C 390.98 421.8 391.04 426.96 392.03 431.52 C 392.06 431.66 392.01 431.8 391.91 431.9 C 391.81 432 391.66 432.03 391.52 431.99 C 391.34 431.94 391.13 431.93 390.91 431.92 C 390.38 431.9 389.73 431.87 389.21 431.21 C 389.19 431.18 389.17 431.15 389.16 431.12 C 388.79 430.26 388.53 428.36 388.29 426.69 C 388.25 426.43 388.22 426.17 388.18 425.92 C 388.09 426.09 388 426.26 387.91 426.42 C 387.67 426.86 387.44 427.27 387.26 427.8 C 385.34 432.84 381.57 435.92 376.64 436.5 C 376.58 436.55 376.51 436.58 376.44 436.58 C 375.99 436.6 375.55 436.62 375.11 436.62 C 374.82 436.61 374.49 436.62 374.15 436.63 Z" fill="white"/>
        </g>
        <g id="Graphic_3">
          <title>SVGID_1_</title>
          <path d="M 374.15 436.63 C 374.08 436.63 374.01 436.61 373.95 436.57 C 367.61 436.3 362.75 433.56 359.89 428.63 C 355.05 419.48 354.42 408.28 353.81 397.45 C 352.9 381.16 352.03 365.78 338.03 357.01 C 336.22 355.88 334.27 354.95 332.07 354.16 C 331.93 354.11 331.82 353.98 331.81 353.83 L 331.33 349.72 C 331.31 349.59 331.37 349.45 331.47 349.37 C 331.57 349.29 331.71 349.25 331.84 349.29 C 343.11 352.57 351.17 364.03 353.4 379.93 C 354.38 385.5 354.65 391.18 354.91 396.66 C 355.33 405.61 355.74 414.07 358.94 422.32 C 362.09 429.46 368.86 431.22 372.61 431.63 C 377.45 431.98 383.72 430.78 386.4 423.2 C 386.17 423.38 385.91 423.6 385.66 423.82 C 384.83 424.53 383.89 425.34 383.02 425.45 C 382.98 425.45 382.93 425.45 382.89 425.45 L 379.65 424.82 C 379.49 424.79 379.37 424.66 379.33 424.51 C 379.3 424.35 379.36 424.19 379.5 424.1 L 380.01 423.76 C 382.34 422.2 386.69 419.29 388.1 415.25 C 388.14 415.13 388.23 415.04 388.35 415 C 389.75 414.54 390.99 414.86 391.75 415.88 C 391.81 415.97 391.84 416.07 391.83 416.18 C 390.98 421.8 391.04 426.96 392.03 431.52 C 392.06 431.66 392.01 431.8 391.91 431.9 C 391.81 432 391.66 432.03 391.52 431.99 C 391.34 431.94 391.13 431.93 390.91 431.92 C 390.38 431.9 389.73 431.87 389.21 431.21 C 389.19 431.18 389.17 431.15 389.16 431.12 C 388.79 430.26 388.53 428.36 388.29 426.69 C 388.25 426.43 388.22 426.17 388.18 425.92 C 388.09 426.09 388 426.26 387.91 426.42 C 387.67 426.86 387.44 427.27 387.26 427.8 C 385.34 432.84 381.57 435.92 376.64 436.5 C 376.58 436.55 376.51 436.58 376.44 436.58 C 375.99 436.6 375.55 436.62 375.11 436.62 C 374.82 436.61 374.49 436.62 374.15 436.63 Z" fill="white"/>
        </g>
      </g>
    </g>
  </g>
</svg>
