<?xml version="1.0" encoding="UTF-8"?>
<svg width="204px" height="239px" viewBox="0 0 204 239" version="1.1" xmlns="http://www.w3.org/2000/svg" xmlns:xlink="http://www.w3.org/1999/xlink">
    <!-- Generator: Sketch 51.3 (57544) - http://www.bohemiancoding.com/sketch -->
    <title>Devi Logo_Small</title>
    <desc>Created with Sketch.</desc>
    <defs>
        <polygon id="path-1" points="0 238 204 238 204 0 0 0"></polygon>
    </defs>
    <g id="The-Corporation-App-(1920-x-1080-HD-Desktop)" stroke="none" stroke-width="1" fill="none" fill-rule="evenodd">
        <g id="New-User" transform="translate(-90.000000, -31.000000)">
            <g id="Header-Area">
                <g id="Devi-Logo_Small" transform="translate(90.000000, 31.000000)">
                    <path d="M70.2454557,118.525804 L67.6985979,117.508384 L67.8194565,117.410502 L68.1175292,116.393771 C68.6152223,116.706028 69.127174,116.915578 69.4374683,116.706028 C69.8394251,117.104449 70.2454557,117.305727 70.7546915,117.410502 L70.2454557,118.525804 Z M107.522873,25.3512292 L107.522873,25.1630479 C108.442892,24.2510922 109.261064,23.4404649 109.866715,22.4402777 L106.411381,20.0387255 C106.600137,16.7190138 106.101086,14.1148047 104.879599,12.2192052 C101.846591,10.4911078 98.3905777,9.70184908 94.2229921,10.1023376 C92.5031331,12.2192052 90.7785213,14.7234645 89.3533401,17.6316588 L84.7817608,19.6354798 C85.5911062,21.1402411 86.8071612,22.1459428 88.6309043,22.855931 L88.6309043,23.0413551 C88.6309043,25.0679233 88.6309043,27.1675582 88.8481782,29.166554 C89.1394611,31.4757389 89.6534497,33.5926065 90.6542678,35.5902237 C90.7785213,35.5902237 90.8722207,35.6991345 90.9720309,35.8969662 C91.2816462,36.3029691 91.5851508,37.0053749 91.4765138,37.6092095 L91.4765138,37.8001481 C91.2816462,37.8994086 91.1736883,38.1103371 90.9720309,38.215112 C90.1511428,39.0202249 89.5441338,39.8039691 89.2419872,40.908242 C87.5139805,41.6209874 85.9964578,42.5294965 84.666334,43.2346595 C83.450279,44.0197824 82.017629,44.7304598 80.5143649,45.431487 C79.0776411,46.127689 77.6640026,47.64279 76.4377628,50.1539423 L76.4377628,50.2428632 C75.8327907,52.2646062 75.3350976,54.5682766 75.0152975,57.0732251 C74.8217879,59.6863952 74.3050834,62.1058695 73.2974755,64.1993006 C72.5838664,66.0101151 71.776558,68.1180218 70.9685705,70.4306532 C70.1347818,72.5371812 69.8394251,74.8436088 70.1347818,77.245161 C69.9521359,77.3561398 69.8394251,77.5594859 69.73622,77.6628822 C69.6486314,77.8593353 69.4374683,78.0668172 69.3308683,78.2501734 C69.235132,79.1697115 69.0287217,80.3642838 68.7374389,82.0785951 C68.4257866,84.3760617 68.1175292,86.9016895 67.8194565,89.8009228 C67.4989774,92.6139924 67.4195367,95.3257337 67.4989774,97.9285641 C67.4989774,100.442474 67.4989774,102.85988 67.4195367,105.180094 L67.4195367,105.458575 C67.6008246,105.570243 67.6985979,105.653649 67.9185877,105.653649 C67.2042997,107.36796 66.3922383,109.176707 65.36494,110.891707 C65.1693935,111.190178 64.9643412,111.484513 64.8618151,111.79677 C63.8487754,112.896218 64.0674073,113.997044 65.36494,115.194374 C65.36494,115.194374 65.4824038,115.194374 65.4824038,115.295013 C65.4824038,115.501805 65.4824038,115.711355 65.36494,115.911944 L65.36494,116.504061 L62.3068094,115.28812 L54.8889416,115.674133 L48,145.32958 L68.7727459,151.97245 L75.6304543,152.043449 L81.0208848,124.229835 L71.8675414,119.521166 L72.5838664,115.501805 C72.7862028,115.295013 72.7862028,115.105453 72.9029875,114.895903 L72.9817493,114.895903 C72.2891887,114.401668 71.776558,113.608274 71.4689796,112.490904 L71.0636279,112.695629 C71.167512,112.490904 71.2591744,112.374411 71.2591744,112.18554 C72.1812307,110.686983 72.4833772,108.976807 72.2891887,106.976433 C73.0768067,106.976433 73.8135011,106.878551 74.5223573,106.677273 L74.6262414,106.677273 C75.0152975,104.357059 75.6304543,102.155406 76.5416469,99.9441033 C77.3659299,97.6349185 78.0693542,95.3257337 78.4882855,93.0255098 C78.6722894,91.6117373 79.0776411,90.3054969 79.3886144,89.1019635 C79.689403,88.1003977 80.0030922,87.0967639 80.2998069,86.1917013 L80.4091229,86.0903729 C80.2998069,87.0967639 80.2998069,88.1003977 80.1925279,89.1019635 L79.8014349,89.1019635 C79.5990985,90.8038672 79.3886144,92.4196073 79.1998577,93.8182151 C79.1998577,93.9167863 79.1998577,94.1242682 79.3010258,94.3276144 C79.3010258,94.4296321 79.3010258,94.6343568 79.3886144,94.723967 C79.3886144,94.8287419 79.3886144,95.0300201 79.3010258,95.1292806 C79.0776411,97.4391548 78.8882054,99.6490791 78.5731582,101.856246 C78.2723696,104.267449 78.0693542,106.753097 78.1745963,109.377296 C78.1745963,110.283737 78.2723696,111.190178 78.2723696,111.891895 C78.2723696,111.991155 78.2723696,112.18554 78.3735377,112.18554 C80.1090133,113.608274 81.8125767,114.596743 83.5602739,115.194374 L83.6526153,115.194374 C83.6526153,115.807169 83.5602739,116.206279 83.450279,116.504061 L83.450279,116.915578 L87.1099867,129.25145 C87.2002912,130.150998 87.5139805,131.160836 87.7326124,132.27338 C88.2235156,134.273066 89.0444037,136.280333 89.8489963,138.000848 C90.7785213,139.797876 91.8954451,141.603176 93.2011256,143.412612 C94.1258978,144.819492 94.8306801,146.318049 95.3249783,147.921382 L95.3249783,148.23295 C95.2462165,150.530416 94.7349438,152.657623 93.7164722,154.363663 C93.3063677,154.953022 93.2011256,155.567196 93.2011256,156.067635 C93.2011256,156.369552 93.2011256,156.758322 93.4150047,156.957532 C93.3063677,157.67855 93.2011256,158.36648 93.2011256,159.280503 C93.0945256,161.886091 93.0137269,164.497193 92.9091638,167.200663 C92.8079956,169.810386 92.7075064,172.520749 92.7075064,175.125647 C92.7075064,177.641625 92.7075064,179.961149 92.5031331,182.168316 C93.0945256,182.677026 93.8122086,182.958264 94.620196,183.065107 C93.7164722,184.466472 93.2011256,185.882313 93.0945256,187.488403 L93.0945256,187.788941 C92.9091638,187.887512 92.8079956,188.083276 92.7075064,188.284554 C91.682924,189.894091 90.8722207,191.592548 90.4526104,193.293073 C90.3806384,193.502623 90.2672486,193.716998 90.2672486,193.809365 C89.1394611,195.305855 88.7341094,196.81682 89.2419872,198.229903 C90.7785213,199.930428 93.0137269,200.419838 95.9394562,199.636783 C98.6940822,199.027434 100.305983,197.526808 100.728988,195.020481 C101.226682,192.603075 101.936217,190.389014 103.171283,188.689868 C104.271911,186.89215 104.090624,185.267449 102.749636,183.866774 C102.664084,183.763377 102.448168,183.659981 102.448168,183.568303 L103.55966,183.568303 C103.87946,181.061286 104.384622,178.55427 104.879599,176.136174 C104.989594,175.329683 105.198721,174.527327 105.407168,173.524383 C107.522873,173.634672 108.950091,172.613116 109.866715,170.51486 C110.473045,168.80951 110.674703,166.811893 110.473045,164.386215 C110.386815,163.800991 110.473045,163.397746 110.767723,162.986228 C112.297467,160.972757 113.320692,158.871054 113.812953,156.667333 C114.031585,155.260454 113.523707,154.363663 112.297467,153.847371 C112.297467,153.748799 112.406783,153.4586 112.499125,153.346932 C111.989889,153.158751 111.60287,152.843737 111.288501,152.454277 C110.386815,151.14528 109.460685,149.829389 108.544739,148.330831 L108.544739,148.23295 C108.747075,146.229129 109.058049,144.211521 109.558458,142.214593 C109.971278,140.604368 110.282252,138.892125 110.473045,137.192289 C110.574213,136.384419 110.767723,135.58482 110.767723,134.774193 C110.982281,132.171363 111.397138,129.662968 111.900263,127.253144 C112.406783,124.730962 112.818925,122.31976 113.106813,119.918897 C113.224276,118.525804 113.320692,117.225078 113.224276,115.911944 C114.031585,115.711355 114.855868,115.403924 115.564724,115.006192 C115.564724,113.091292 115.766381,111.190178 116.052232,109.477246 C116.96682,109.176707 117.998192,108.976807 119.006479,108.885129 C118.288796,106.557333 117.890234,104.160606 117.578582,101.856246 C117.376924,99.5374111 117.196316,97.3385157 116.879231,95.2230266 L117.890234,95.2230266 C117.890234,93.1289062 117.681108,91.1099204 117.284583,89.305999 L117.284583,89.1019635 L117.196316,89.1019635 L116.96682,89.1019635 C116.576406,86.7948466 116.470485,84.5794078 116.879231,82.3722407 C117.072741,81.7697847 117.072741,81.1714646 117.196316,80.5690086 C117.578582,81.3748107 118.288796,81.9903635 119.314736,82.3722407 C119.111721,83.1842466 119.006479,83.8845844 119.006479,84.6848721 C118.897163,87.0967639 119.314736,89.4038808 119.933967,91.515234 C120.631281,93.8182151 121.155454,96.1384289 121.449453,98.4296917 C121.865668,100.848477 122.05782,103.165933 122.160346,105.653649 L122.571808,105.653649 C122.461134,105.861131 122.364719,105.979692 122.364719,106.167873 C122.258119,106.475305 122.160346,106.677273 122.160346,106.878551 C121.958689,107.1784 121.958689,107.472735 121.958689,107.66712 C121.865668,107.971795 121.653147,108.174452 121.333347,108.369526 C121.236253,108.369526 121.155454,108.369526 121.155454,108.472922 C121.155454,108.677647 120.930711,108.779665 120.83158,108.885129 C120.631281,109.080893 120.631281,109.270453 120.631281,109.477246 C120.540297,109.681281 120.540297,109.894967 120.540297,110.188612 C120.429623,110.480879 120.429623,110.794515 120.339319,110.996482 C120.339319,111.099879 120.229324,111.190178 120.339319,111.381117 C120.339319,111.484513 120.339319,111.58722 120.429623,111.698888 C120.429623,111.698888 120.540297,111.79677 120.631281,111.891895 C120.540297,111.891895 120.429623,111.891895 120.429623,111.991155 C120.229324,112.490904 120.117971,112.896218 120.117971,113.497984 C120.229324,113.690991 120.339319,113.997044 120.339319,114.190051 C120.429623,114.506443 120.631281,114.707032 120.83158,115.105453 C121.155454,115.501805 121.449453,115.711355 122.05782,115.711355 C122.364719,115.711355 122.461134,115.501805 122.461134,115.295013 C122.571808,115.194374 122.656002,115.194374 122.656002,115.105453 L122.656002,115.006192 C122.859017,115.501805 122.972407,115.911944 123.17067,116.302093 C123.17067,116.393771 123.17067,116.393771 123.283381,116.393771 C123.481643,116.504061 123.685337,116.609525 123.685337,116.915578 L123.884279,116.915578 C124.407773,116.915578 124.702451,116.609525 124.885776,116.108397 L125.022251,116.000865 C125.616359,116.206279 126.219295,116.108397 126.530268,115.711355 C126.629399,115.711355 126.72174,115.501805 126.72174,115.501805 C126.830377,115.403924 126.830377,115.403924 126.93562,115.403924 C126.830377,115.105453 126.93562,114.895903 127.234371,114.811807 L127.234371,114.707032 C127.643797,114.506443 128.051185,114.401668 128.453821,114.190051 C128.453821,114.105955 128.557026,113.997044 128.557026,113.997044 C128.656157,113.919841 128.766831,113.919841 128.766831,113.794387 C128.859173,113.690991 128.969847,113.690991 128.969847,113.497984 C129.068978,113.497984 129.068978,113.390452 129.068978,113.29326 C129.570745,112.490904 130.075228,111.891895 130.388238,111.28806 C130.482616,111.190178 130.482616,111.190178 130.482616,111.099879 L130.482616,110.891707 L130.482616,110.686983 C130.482616,110.283737 130.388238,109.894967 130.388238,109.477246 L130.388238,109.377296 C130.285712,109.176707 130.285712,108.976807 130.285712,108.885129 C130.18726,108.369526 129.982886,107.971795 129.785982,107.66712 C129.570745,107.575442 129.570745,107.472735 129.47433,107.36796 C129.47433,107.1784 129.38063,106.878551 129.272672,106.677273 C129.166751,106.677273 129.068978,106.475305 129.068978,106.362259 C129.068978,106.167873 128.969847,105.979692 128.766831,105.653649 C128.766831,105.653649 128.766831,105.458575 128.656157,105.372411 L128.656157,105.256607 C129.38063,105.180094 130.075228,105.05464 131,104.969855 C131,102.455256 131,100.03716 130.698532,97.7417614 C130.482616,96.3397071 130.388238,94.8287419 130.285712,93.3095051 C129.982886,90.8038672 129.570745,88.3974898 129.068978,86.0903729 C128.766831,84.6848721 128.557026,83.274546 128.453821,81.6650097 L128.453821,80.3642838 L128.453821,80.0713275 C128.453821,78.5576052 128.453821,77.0583583 128.557026,75.5653152 L128.557026,75.2509903 C127.945264,73.237519 127.040183,71.3308906 125.911716,69.8254399 L125.911716,69.4249515 C125.911716,66.8269462 125.818696,64.2964932 125.720922,61.7970591 C125.509759,59.19285 125.109839,56.7926764 124.407773,54.651683 C123.685337,52.7691803 122.972407,51.0652087 122.160346,49.655572 C122.160346,49.4356824 122.05782,49.3502081 121.958689,49.2454332 L121.958689,48.544406 C121.75771,47.3532802 121.449453,46.4413246 121.155454,45.630008 L120.930711,45.630008 C119.933967,45.2198692 118.806859,44.8359241 117.578582,44.5284923 C115.147151,43.8288438 113.009039,43.0175272 110.982281,42.1359011 C110.767723,42.026301 110.674703,41.9118757 110.473045,41.8077901 C108.747075,41.0226672 106.924011,39.8039691 105.296494,38.5046218 C105.094157,37.6092095 104.689485,37.0053749 103.87946,36.7027683 C104.090624,34.7933826 104.271911,32.7819792 104.384622,30.7816048 L104.384622,30.6809657 C106.411381,30.3687088 107.433247,28.8756657 107.522873,26.156342 L107.522873,25.3512292 Z" id="Fill-1" fill="#FFFFFF"></path>
                    <path d="M90.1341695,2.53583061 C95.4324092,1.4381347 101.675042,1.94145228 106.418426,3.70196005 C101.230622,4.41168199 95.0723217,3.90836441 90.1341695,2.53583061 M106.612525,1.80348145 C101.230622,-0.209236999 93.6011834,-0.758360897 88.0258502,1.30071575 C87.9977393,2.30735092 87.80364,3.56509299 89.1355624,4.18265042 C94.3782496,5.92108286 100.731318,6.40177323 106.695519,5.66997595 C107.805901,5.46357159 107.97122,4.50274274 108,3.70196005 C107.944447,2.92490835 107.444475,2.23781362 106.612525,1.80348145" id="Fill-3" fill="#E6C7D7"></path>
                    <path d="M145.613028,178 C145.562538,178 145.513432,177.986264 145.471933,177.961539 C141.086923,177.778851 137.726926,175.894274 135.74883,172.505609 C132.40059,166.222772 131.966239,158.529937 131.545029,151.090531 C130.912868,139.903264 130.31529,129.336862 120.63161,123.316383 C119.378354,122.543734 118.031036,121.903637 116.512881,121.361753 C116.413285,121.326039 116.342737,121.238129 116.330288,121.133736 L116.001758,118.308245 C115.991383,118.216214 116.027349,118.12487 116.098588,118.065118 C116.169827,118.005367 116.265965,117.984763 116.355879,118.011548 C124.147918,120.266995 129.723244,128.13359 131.271139,139.053007 C131.947565,142.881911 132.133617,146.777434 132.313444,150.544526 C132.6067,156.693437 132.884048,162.501009 135.103528,168.167787 C137.283583,173.072905 141.964617,174.280297 144.561041,174.561885 C147.911355,174.801577 152.24795,173.974671 154.099476,168.770796 C153.93694,168.895107 153.75988,169.046202 153.585586,169.195238 C153.010831,169.684925 152.359996,170.239859 151.758959,170.31472 C151.729219,170.317467 151.699478,170.31678 151.671121,170.311973 L149.428126,169.875856 C149.316771,169.854565 149.230316,169.769402 149.208184,169.659514 C149.186051,169.550313 149.231699,169.438365 149.325071,169.375179 L149.677808,169.140294 C151.292101,168.067514 154.297286,166.071676 155.275267,163.294261 C155.303625,163.213906 155.367947,163.150034 155.450253,163.123248 C156.419243,162.804574 157.276188,163.025723 157.803219,163.730379 C157.847484,163.79013 157.86685,163.863618 157.855092,163.936418 C157.265122,167.798289 157.311462,171.342171 157.993421,174.471227 C158.014862,174.567379 157.983046,174.666278 157.910424,174.732898 C157.839184,174.799517 157.736821,174.823555 157.642066,174.794709 C157.518263,174.757622 157.371634,174.752128 157.216707,174.745947 C156.852211,174.730837 156.398494,174.71298 156.040915,174.261753 C156.026391,174.242523 156.01325,174.221919 156.003567,174.199942 C155.746967,173.607234 155.565757,172.30575 155.404605,171.156736 C155.379705,170.974734 155.354806,170.796853 155.329907,170.626527 C155.267659,170.745343 155.203337,170.860038 155.139706,170.972673 C154.972328,171.271431 154.814634,171.553018 154.69083,171.917709 C153.362186,175.379862 150.758153,177.493829 147.34905,177.890799 C147.307551,177.923765 147.26052,177.945743 147.212796,177.94849 C146.904324,177.964973 146.597927,177.974588 146.293604,177.975962 C146.075737,177.987638 145.846803,177.995879 145.61787,178 L145.613028,178 Z" id="Fill-5" fill="#E6C7D7"></path>
                    <path d="M26.9520817,197.273898 L26.9520817,201.345085 C26.9520817,201.511864 27.145326,201.631186 27.3794187,201.631186 L27.9041634,201.631186 L27.9041634,203 L26.8138256,203 C25.6967793,203 24.923802,202.321356 24.923802,201.571525 L24.923802,197.273898 L24,197.273898 L24,195.975593 L24.923802,195.975593 L24.923802,195 L26.9520817,195 L26.9520817,195.975593 L28,195.975593 L28,197.273898 L26.9520817,197.273898 Z" id="Fill-7" fill="#E6C7D7"></path>
                    <path d="M31.3480486,202 L31.3480486,196.869955 C31.3480486,196.64574 31.190659,196.543882 31,196.543882 C30.8087012,196.543882 30.6519514,196.64574 30.6519514,196.869955 L30.6519514,202 L29,202 L29,193 L30.6519514,193 L30.6519514,195.655349 C30.887396,195.407431 31.2693538,195.238949 31.6960972,195.238949 C32.4152271,195.238949 33,195.655349 33,196.363869 L33,202 L31.3480486,202 Z" id="Fill-9" fill="#E6C7D7"></path>
                    <path d="M36,200.556622 L36,199.780408 L34.3525283,199.780408 L34.3525283,200.576195 C34.3525283,200.772486 34.1962035,200.870911 34.0054235,200.870911 C33.8037965,200.870911 33.6468336,200.772486 33.6468336,200.576195 L33.6468336,199.171405 L36,199.171405 L36,197.452885 C36,196.568739 35.1035253,196 34.0054235,196 C32.8964747,196 32,196.568739 32,197.452885 L32,200.556622 C32,201.430143 32.8964747,202 34.0054235,202 C35.1035253,202 36,201.430143 36,200.556622 Z M34.3525283,198.444962 L33.6468336,198.444962 L33.6468336,197.423245 C33.6468336,197.227514 33.8037965,197.139156 34.0054235,197.139156 C34.1962035,197.139156 34.3525283,197.227514 34.3525283,197.423245 L34.3525283,198.444962 Z" id="Fill-11" fill="#E6C7D7"></path>
                    <path d="M15.651872,208.711466 C15.651872,203.665662 15.0560731,201.434308 12.2735953,201.434308 C8.94392686,201.434308 8.64602743,204.538948 8.64602743,213.611496 C8.64602743,223.896339 8.99392396,226.565692 12.4721949,226.565692 C15.5518778,226.565692 15.9004687,223.120687 15.9504658,217.735197 L24,217.735197 L24,218.948169 C24,226.419241 21.8633181,232 11.5278051,232 C0.844395579,232 0,224.188564 0,213.75727 C0,204.878635 0.496499045,196 12.322898,196 C19.6766391,196 23.7021006,199.105319 23.7021006,207.255763 L23.7021006,208.711466 L15.651872,208.711466 Z" id="Fill-13" fill="#E6C7D7"></path>
                    <path d="M34.9996572,232 C43.3849186,232 45,226.333674 45,218.932244 C45,211.529418 43.8784919,206 34.9996572,206 C26.6150814,206 25,211.667025 25,219.068454 C25,226.47128 26.1215081,232 34.9996572,232 M37.7355613,219.023051 C37.7355613,225.100102 37.2872322,227.15652 35.0442159,227.15652 C32.8923736,227.15652 32.2644387,225.008597 32.2644387,218.976949 C32.2644387,212.991403 32.8923736,210.844178 35.0442159,210.844178 C37.2872322,210.844178 37.7355613,212.900596 37.7355613,219.023051" id="Fill-15" fill="#E6C7D7"></path>
                    <path d="M46,206.63075 L52.9553532,206.63075 L52.9553532,210.054426 L53.0446468,210.054426 C53.9812065,207.892249 55.8093383,206 58.8412289,206 C59.1977214,206 59.5548956,206 60,206.090894 L60,212.937559 C59.2863333,212.802595 58.7076294,212.757148 57.9939627,212.757148 C55.0956716,212.757148 53.2232338,213.9732 53.2232338,217.171707 L53.2232338,231 L46,231 L46,206.63075 Z" id="Fill-17" fill="#E6C7D7"></path>
                    <path d="M62,239 L69.3302667,239 L69.3302667,228.390836 L69.4208833,228.390836 C70.6424792,231.009139 72.859475,231.686833 74.8966209,231.686833 C80.9139833,231.686833 82,226.22456 82,218.640867 C82,209.521665 79.375575,206 74.4428458,206 C71.1854875,206 69.6920416,207.941298 69.1490333,209.612071 L69.0584166,209.612071 L69.0584166,206.632147 L62,206.632147 L62,239 Z M69.1939958,218.685725 C69.1939958,213.945313 69.6470792,211.327011 71.8191125,211.327011 C74.5791167,211.327011 74.6697333,215.073654 74.6697333,219.001108 C74.6697333,223.425446 74.5341542,226.360513 71.864075,226.360513 C69.3759209,226.360513 69.1939958,223.019658 69.1939958,218.685725 Z" id="Fill-19" fill="#E6C7D7"></path>
                    <path d="M92.9993145,232 C101.384974,232 103,226.333674 103,218.932244 C103,211.529418 101.87853,206 92.9993145,206 C84.615026,206 83,211.667025 83,219.068454 C83,226.47128 84.1214697,232 92.9993145,232 M95.7351248,219.023051 C95.7351248,225.100102 95.2868111,227.15652 93.0445572,227.15652 C90.8927886,227.15652 90.2648752,225.008597 90.2648752,218.976949 C90.2648752,212.991403 90.8927886,210.844178 93.0445572,210.844178 C95.2868111,210.844178 95.7351248,212.900596 95.7351248,219.023051" id="Fill-21" fill="#E6C7D7"></path>
                    <path d="M106,206.63075 L112.955358,206.63075 L112.955358,210.054426 L113.043961,210.054426 C113.980429,207.892249 115.808383,206 118.84066,206 C119.197118,206 119.553576,206 120,206.090894 L120,212.937559 C119.285721,212.802595 118.707074,212.757148 117.993476,212.757148 C115.096149,212.757148 113.222531,213.9732 113.222531,217.171707 L113.222531,231 L106,231 L106,206.63075 Z" id="Fill-23" fill="#E6C7D7"></path>
                    <path d="M126.897215,214.225195 C126.940318,212.077913 127.504642,210.84361 129.456233,210.84361 C131.017905,210.84361 131.668435,211.803391 131.668435,213.310819 C131.668435,215.184278 131.277851,215.550308 129.15252,216.14336 C127.200265,216.692405 124.598143,217.149942 122.863395,218.155127 C121.127984,219.159614 120,221.581419 120,224.460063 C120,229.807313 122.299072,232 126.247347,232 C128.589523,232 130.801061,230.720292 131.755305,228.526907 L131.842175,228.526907 C131.885279,229.486688 131.972149,230.492571 132.232759,231.360146 L139,231.360146 C138.175729,230.263453 138.175729,227.887053 138.175729,226.014293 L138.175729,213.310819 C138.175729,208.101878 135.615385,206 129.846817,206 C126.940318,206 124.945623,206.411434 123.297082,207.599635 C121.648541,208.787835 120.694297,210.84361 120.650531,214.225195 L126.897215,214.225195 Z M126.767241,223.728702 C126.767241,222.358883 127.114058,221.581419 127.851459,220.987668 C128.502653,220.439322 129.456233,220.393917 131.668435,219.159614 C131.668435,220.164799 131.625332,221.445206 131.625332,223.500981 C131.625332,225.968889 130.281167,226.881868 128.805703,226.881868 C127.504642,226.881868 126.767241,225.694366 126.767241,223.728702 Z" id="Fill-25" fill="#E6C7D7"></path>
                    <path d="M141.08514,210.282534 L138,210.282534 L138,205.206271 L141.08514,205.206271 L141.08514,198 L148.545939,198 L148.545939,205.206271 L152,205.206271 L152,210.282534 L148.545939,210.282534 L148.545939,222.656533 C148.545939,224.379802 149.190847,224.923737 150.940407,224.923737 C151.263566,224.923737 151.67825,224.878004 152,224.832965 L152,229.727686 C150.572894,229.909229 149.14438,230 147.717274,230 C142.558713,230 141.08514,229.09298 141.08514,223.38201 L141.08514,210.282534 Z" id="Fill-27" fill="#E6C7D7"></path>
                    <mask id="mask-2" fill="white">
                        <use xlink:href="#path-1"></use>
                    </mask>
                    <g id="Clip-30"></g>
                    <path d="M155,202.49549 L162,202.49549 L162,197 L155,197 L155,202.49549 Z M155,229 L162,229 L162,205.02202 L155,205.02202 L155,229 Z" id="Fill-29" fill="#E6C7D7" mask="url(#mask-2)"></path>
                    <path d="M171.999657,232 C180.385604,232 182,226.333674 182,218.932244 C182,211.529418 180.878492,206 171.999657,206 C163.614396,206 162,211.667025 162,219.068454 C162,226.47128 163.121508,232 171.999657,232 M174.734876,219.023051 C174.734876,225.100102 174.287232,227.15652 172.044901,227.15652 C169.892374,227.15652 169.264439,225.008597 169.264439,218.976949 C169.264439,212.991403 169.892374,210.844178 172.044901,210.844178 C174.287232,210.844178 174.734876,212.900596 174.734876,219.023051" id="Fill-31" fill="#E6C7D7" mask="url(#mask-2)"></path>
                    <path d="M185,206.63075 L191.909276,206.63075 L191.909276,209.513882 L191.998646,209.513882 C193.016926,207.352394 195.098172,206 197.755586,206 C201.830061,206 204,208.07266 204,212.757148 L204,231 L196.825322,231 L196.825322,214.378092 C196.825322,212.622184 196.072444,211.585854 194.744753,211.585854 C193.371022,211.585854 192.175355,212.667631 192.175355,215.0536 L192.175355,231 L185,231 L185,206.63075 Z" id="Fill-32" fill="#E6C7D7" mask="url(#mask-2)"></path>
                </g>
            </g>
        </g>
    </g>
</svg>