
<svg width="372px" height="503px" viewBox="0 0 372 503" version="1.1" xmlns="http://www.w3.org/2000/svg" xmlns:xlink="http://www.w3.org/1999/xlink">
    <defs>
        <polygon id="path-1" points="0 0 107 0 107 388 0 388"></polygon>
        <polygon id="path-3" points="0 0 125 0 125 410 0 410"></polygon>
        <polygon id="path-5" points="0 0 140 0 140 386 0 386"></polygon>
        <polygon id="path-7" points="0 0.037632501 197.995057 0.037632501 197.995057 374 0 374"></polygon>
        <polygon id="path-9" points="0 0 200 0 200 410 0 410"></polygon>
    </defs>
    <g id="The-Corporation-App-(375x667-Mobile)" stroke="none" stroke-width="1" fill="none" fill-rule="evenodd">
        <g id="The-Corporation_Intro.-Animation_2" transform="translate(0.000000, -48.000000)">
            <g id="Group" transform="translate(0.000000, 48.000000)">
                <g id="Group-3" transform="translate(245.000000, 0.000000)">
                    <mask id="mask-2" fill="white">
                        <use xlink:href="#path-1"></use>
                    </mask>
                    <g id="Clip-2"></g>
                    <path d="M58.0675786,339.819085 C58.2391456,338.862079 59.2386148,337.315809 59.9175822,337.287297 C62.7969878,337.168128 62.8999281,335.587497 62.7407723,333.576981 C62.1289716,325.819313 61.4288321,318.063839 61.0031999,310.296667 C60.7367234,305.456075 60.8987995,300.595744 60.8776274,295.743455 C60.8659463,293.251146 60.8754372,290.758837 60.8754372,288.07425 L49.595088,288.07425 C50.6354412,291.642733 52.0422908,294.969955 52.5095372,298.411958 C53.2381495,303.781133 53.4060661,309.223417 53.6681621,314.641575 C53.9163867,319.788496 53.9631114,324.942728 54.1536603,330.091842 C54.1741023,330.644552 54.3872835,331.445834 54.8019646,331.69002 C58.5421257,333.895008 56.9673595,337.18275 56.8286457,340.167087 C56.7118341,342.657933 56.5329664,345.145856 56.3811113,347.63524 C56.6760606,347.644013 56.9695497,347.653517 57.2630388,347.662291 C57.5061529,345.043502 57.6032525,342.402049 58.0675786,339.819085 M13.8704535,71.7719658 C11.3298014,72.0709844 8.73731423,72.01469 6.16745926,72.0307741 C1.78848479,72.0570936 1.11389786,71.5073088 0.697756572,67.4716548 C0.417408757,64.7519749 0.290376153,62.017673 0.0764649298,59.2921443 C-0.252067666,55.0985734 0.335640644,54.42304 4.68030171,54.3309218 C10.1412435,54.2146774 15.6036455,54.189089 21.0623971,54.0501806 C21.9523554,54.0282477 23.097109,53.886415 23.6731361,53.3600253 C27.7191975,49.6599447 34.2832788,49.3192536 38.579025,52.7846522 C41.5913039,55.2140867 44.4159541,57.8518837 47.4216624,60.2893603 C49.605309,62.0608077 52.3153379,61.3582238 52.8183578,58.7430907 C53.6433397,54.445704 54.1989248,50.093485 50.1645445,46.6288175 C49.2592547,45.8501995 48.6299322,44.6607051 48.1831279,43.5501691 C46.4784088,39.3112702 44.7963219,35.0584804 43.3332567,30.7413541 C42.8638201,29.3537325 42.3878129,27.0193405 43.1317567,26.3774376 C46.0600773,23.8522294 44.7685791,20.7450682 45.0788599,17.9025641 C45.8490863,10.8379762 49.1957384,5.20560684 55.310095,1.13559124 C56.4329464,0.388410363 58.071229,-0.0458611056 59.4466854,-2.84217094e-14 C62.2056292,0.104744825 65.9479805,0.339426881 68.5696706,1.09172544 C70.6175238,1.67879613 72.5799585,2.91434963 74.2489041,4.23617255 C79.5996049,8.47360931 81.0393078,14.2829041 81.1948132,20.5674117 C81.2422679,22.4901962 80.8611701,24.6301164 83.701882,25.4950038 C84.3049218,25.6785091 84.6611971,27.2277031 84.7451555,28.1773978 C85.0970504,32.1772281 81.2043042,36.8891467 77.3575525,38.7592921 C76.848692,39.0071339 76.1719149,39.5393724 76.1390616,39.9787615 C75.8054185,44.3814261 75.5017084,48.7914017 75.4214004,53.2028395 C75.4053388,54.0465252 76.2186395,55.1117331 76.9720743,55.7192745 C78.6899347,57.1068962 82.3191248,58.4352989 84.2757189,59.4924648 C87.4807369,61.2251641 90.7288292,62.9549391 94.1455681,64.2453248 C97.036655,65.3383145 100.11464,66.3033622 100.644673,69.4543892 C102.13037,78.2816513 103.011568,87.1103756 99.9153306,95.9054695 C97.3513162,103.189386 95.2289956,110.612212 92.9219667,117.97728 C91.4034161,122.825183 91.2866045,127.507127 94.6215754,131.851303 C95.4962022,132.989621 96.1226043,134.30194 96.8220137,135.553577 C99.6554248,140.625195 99.5897183,141.720378 95.0939322,145.626628 C93.3454088,147.145116 93.2256769,148.421611 94.5295863,149.97373 C99.0801277,155.388963 100.81259,161.854052 102.22674,168.413452 C103.572994,174.654825 104.562242,180.967845 106.022387,187.182899 C107.524146,193.577802 107.297823,199.80236 105.328818,206.064203 C104.265102,209.450643 103.524079,212.929202 102.698367,216.379247 C99.3495245,230.376095 96.8373452,244.613473 92.3780628,258.285713 C89.8111281,266.153776 87.1361427,273.490332 89.1876462,281.729792 C89.3657839,282.447729 88.4853166,283.384264 88.1538637,284.238916 C87.7968583,285.161561 87.1142405,286.16097 87.2463836,287.036824 C88.791947,297.275103 88.0852369,307.314523 85.7599562,317.45118 C83.6945812,326.453905 76.718009,334.855669 77.8547318,344.493717 C75.1293714,348.606868 76.758163,353.313668 76.0215199,357.712678 C75.235962,362.406319 76.2200996,367.349264 76.2244801,372.184007 C76.2259402,373.703226 75.7156196,375.278008 75.1498135,376.72558 C74.6015291,378.129285 73.7531849,379.44526 72.9055708,380.721023 C71.9469857,382.164208 71.1628879,384.035816 69.7436271,384.823207 C64.4133682,387.777569 58.6238938,388.725802 52.4620825,387.43834 C47.7523852,386.455015 47.2705374,385.755356 48.1225319,381.23206 C48.4773471,379.346561 48.2773073,377.357978 48.214521,375.419841 C48.1948091,374.797677 47.8056805,374.186481 47.3858888,373.007953 C45.7556371,373.77926 43.4230556,374.408734 41.743889,375.760532 C35.2455143,380.99226 27.4344693,381.865921 19.4701091,381.857148 C17.504024,381.854223 14.4917452,380.488535 13.7886854,378.984669 C12.2036982,375.599691 15.3576111,370.771528 19.0766001,369.212829 C22.0005402,367.98678 24.700348,366.580881 25.3829658,363.04018 C25.6954368,361.418607 27.1125074,359.984926 28.0411595,358.473018 C30.4934728,354.479037 34.2635669,350.713157 35.0848983,346.440628 C36.1391229,340.94936 35.6346429,334.88345 34.3475252,329.368788 C32.4894908,321.412262 28.1594312,313.794965 25.8852556,305.908624 C23.6928481,298.307411 21.8822684,290.587761 20.356417,282.840328 C19.5431163,278.717674 19.7526471,274.421018 19.3700892,270.213556 C19.2255348,268.617572 18.6947722,267.05595 18.3793809,265.470932 C17.7522487,262.327216 16.8031545,259.197391 16.6199063,256.028817 C16.314006,250.781005 16.4987143,245.506873 16.4921436,240.243707 C16.4833828,232.974412 16.4899534,225.70658 16.4899534,218.59447 C15.4043357,218.07393 14.0683032,217.863374 13.7178684,217.192958 C11.4604844,212.878756 9.3659066,208.486327 7.3370353,204.071234 C6.62813496,202.530082 5.34028719,200.471313 5.88346108,199.294978 C8.72855336,193.133295 8.98042835,186.527836 10.1164211,180.092722 C12.6191094,165.927723 15.2094064,151.762723 17.1127052,137.520228 C18.5597088,126.693416 18.7057233,115.715998 19.9818899,104.862867 C21.1478156,94.9470017 23.0533046,85.1079016 24.7185998,74.7029327 C21.7837086,72.7838037 18.2121943,71.2601981 13.8704535,71.7719658" id="Fill-1" fill="#E6C7D7" mask="url(#mask-2)"></path>
                </g>
                <g id="Group-3" transform="translate(70.000000, 18.000000)">
                    <mask id="mask-4" fill="white">
                        <use xlink:href="#path-3"></use>
                    </mask>
                    <g id="Clip-2"></g>
                    <path d="M93.1174546,78.3834531 C91.232766,83.119222 90.8313776,87.9543131 90.8900312,92.8971794 C90.9274847,96.1029632 90.6907503,99.3115646 90.5699097,102.519462 C90.4526025,105.59986 88.3050328,107.734936 86.0578227,109.798162 C84.9554177,110.808994 83.7342922,111.721209 82.5661669,112.678507 C82.3372059,112.550303 82.1075381,112.422805 81.8785771,112.295306 C82.3414459,111.076671 82.7555544,109.841835 83.2777834,108.643629 C84.6409496,105.516035 86.8959331,102.480719 87.2768282,99.2714131 C88.203979,91.4432709 86.2627569,84.2596667 78.2512407,79.3393416 C75.7863763,77.8248536 72.9483901,77.4085454 70.1047506,77.1887686 C67.1296705,76.9591299 64.1199635,77.0950816 61.1279234,76.9964638 C60.539974,76.9767402 59.8785311,76.7161074 59.4008222,76.3955995 C57.5627739,75.1614678 55.7748992,73.8695743 53.9884378,72.5776808 C51.7249742,70.9420337 47.0913399,71.5436024 45.3882656,73.3159057 C43.3841499,75.4009683 41.1842866,77.3810733 39.503119,79.6528054 C37.9738854,81.7195533 35.742222,82.7177065 33.2985576,84.0215751 C32.7254484,80.5931968 31.9099514,77.4472882 31.7403506,74.2760206 C31.5085629,69.9037289 31.8159643,65.5117136 31.7997109,61.1281512 C31.7792174,55.2984288 31.6739236,49.4687065 31.5990166,43.6396886 C31.529763,38.1790787 31.4089224,32.7184687 31.4110149,27.2578588 C31.4110149,25.818743 32.1509258,24.5536172 33.6427058,23.7667878 C35.8369158,22.6094372 38.0184056,21.4281365 40.2712691,20.363064 C40.9835923,20.0263545 41.8987298,19.9502779 42.7333069,19.8967425 C44.8059696,19.7636085 46.8864057,19.6290656 48.9618951,19.6530156 C50.8783837,19.6748524 51.4924798,18.9176084 51.2069852,17.3742394 C51.151865,17.0748639 51.1412649,16.7691486 51.0953314,16.3387522 L54.4894667,16.3387522 C59.940718,16.3387522 65.3919693,16.3986274 70.8411006,16.3112801 C73.3412985,16.2711286 75.4860416,16.3725641 77.3283299,18.3089955 C78.2208539,19.2465693 80.2058896,19.7614952 81.7224031,19.8093953 C88.5792207,20.0221281 92.10621,22.4960267 92.9450271,28.3729447 C93.5555899,32.6480274 94.0163386,36.9562176 94.1732193,41.2608857 C94.3244467,45.4232624 93.8318978,49.6032494 93.9364849,53.7691481 C94.0255253,57.3412267 94.5618878,60.9048523 94.8961426,64.4719999 C95.3399313,69.2105864 94.9025026,73.8998641 93.1174546,78.3834531 L93.1174546,78.3834531 Z M45.2080648,3.13523417 C45.5931998,3.22539904 46.0482952,3.88895612 46.0546553,4.29469804 C46.1189622,8.0893711 46.0928154,11.885453 46.0928154,15.9139912 C45.1571845,15.7047805 44.443448,15.5779862 43.7544449,15.3835682 C41.1701532,14.6537962 40.9616856,14.3339927 40.900912,11.962234 C40.8592185,10.3160207 40.7023377,8.67051186 40.534857,7.02922947 C40.3963497,5.67252995 43.7226447,2.78866295 45.2080648,3.13523417 L45.2080648,3.13523417 Z M78.9049103,4.82652988 C82.9449419,6.54529771 84.1448674,10.7879775 83.4410242,13.6422591 C82.970382,15.5484008 81.707563,16.118271 78.9049103,15.9301927 L78.9049103,4.82652988 Z M124.967772,401.765393 C124.916185,401.090565 125.024305,400.400945 124.940918,399.731753 C124.566383,396.718274 123.331124,394.381031 120.481125,392.789058 C116.40788,390.514508 112.03642,388.588643 110.309319,383.498554 C109.009753,379.672887 107.368866,365.270458 107.279825,361.158799 C107.023304,349.356358 106.846637,337.551804 106.513795,325.750773 C106.433235,322.886629 105.874259,320.035165 105.495484,316.83713 C108.809765,316.508874 109.479688,314.932397 108.486817,312.226042 C108.092496,311.153221 108.240896,309.877529 108.174469,308.692706 C107.953988,304.79378 107.730681,300.895558 107.542706,296.995928 C107.318692,292.339758 106.76749,284.768022 107.008464,280.133688 C107.410559,272.435863 108.304497,264.763396 109.066993,257.086702 C109.158154,256.168148 109.476155,254.996005 110.122758,254.463468 C111.704992,253.158895 112.086594,251.583828 111.971406,249.712202 C111.893673,248.444963 111.901446,247.166454 111.812406,245.902032 C112.566422,245.755514 112.984064,245.673802 112.984064,245.673802 C112.984064,245.673802 115.256715,238.084456 111.206083,228.493873 C110.478213,226.772287 109.76801,224.952788 109.09102,223.126245 C110.790561,222.696553 112.984771,217.397958 105.705365,183.836903 C105.500431,182.891581 105.254509,181.979366 104.990215,181.081944 C105.088442,179.335704 105.31387,177.588055 105.507497,175.847451 C105.997926,171.444869 106.608489,167.052854 107.084784,162.649568 C107.303145,160.632129 107.132838,158.57313 107.468506,156.575414 C108.206976,152.187625 108.999153,147.808289 109.81253,143.430362 C112.851917,134.221571 117.539965,119.181648 118.547676,111.140773 C120.067723,99.0269817 117.029043,64.1986876 117.029043,64.1986876 L111.712059,46.7855972 L106.88833,35.2311101 L106.88833,35.2297012 C106.657249,34.3301658 106.460088,33.5820791 107.697467,32.9706486 C108.317923,32.6642289 108.724258,31.7921656 108.922833,31.1088849 C109.575796,28.8582853 108.182243,27.2289779 106.577395,25.677156 C106.070713,25.1868845 105.499017,24.6395555 105.304683,24.0337603 C104.911775,22.8087861 104.829801,21.509144 104.489893,20.2672638 C103.468755,16.5472585 102.661031,12.7575163 101.241331,9.15514803 C100.109953,6.28255164 97.5694747,4.46587041 93.7449774,4.61943245 C93.4623095,4.63140747 93.1436013,4.50531754 92.8884935,4.3735923 C91.3203931,3.56563054 89.8031729,3.59451147 88.2188191,4.39472469 C87.1142941,4.95332423 86.0846761,4.79976219 85.0331514,4.03970051 C83.5964915,2.99998686 82.0326311,2.08706756 80.4652374,1.1980983 C78.7416696,0.220372994 77.0435419,0.202058255 75.4478814,1.5059268 C75.1722801,1.73133897 74.693158,1.85813332 74.3030762,1.8679951 C65.9820386,2.06875282 57.6602944,2.24626491 49.1286691,2.43293436 C49.1343225,0.815602016 47.8757435,0.130208125 46.4440304,0.0351123637 C44.9791037,-0.0620966363 43.3276163,0.0231373419 42.0209837,0.538063277 C40.0967217,1.29601171 38.3583138,2.4512491 36.6319194,3.54661138 C35.5387011,4.23904941 34.4186294,4.37781878 33.1105834,4.52363227 C31.0647742,4.75045327 28.588603,4.9948846 27.2105968,6.10363073 C25.4290821,7.53781569 24.0425958,9.70599903 23.3875128,11.776269 C22.0603869,15.9703442 21.2349965,20.2940315 20.4018327,24.5937687 C14.3251786,38.9792919 11.4525656,48.2993808 9.17355529,55.1138726 C6.894545,61.92766 6.13558157,85.3987026 6.13558157,85.3987026 C6.13558157,85.3987026 -0.700742651,104.326281 0.0589274476,114.926289 C1.2955997,132.188635 8.57571259,146.436797 11.2370313,151.133823 C11.6405398,153.668302 11.9281544,156.221799 12.0412216,158.804881 C12.3260095,165.367898 13.0786129,171.920348 13.7937628,178.462936 C13.973257,180.104923 14.1845513,181.744092 14.4064456,183.383261 C14.204338,183.949609 13.9824437,184.475102 13.7308692,184.935083 C9.17355529,193.263359 4.86993585,218.248185 5.37591147,223.547484 C5.88259376,228.848192 13.9845637,228.343128 13.9845637,228.343128 L14.1470978,228.332562 C14.9597681,230.836046 15.6636113,233.478299 16.0098795,236.064904 C16.8804968,242.577203 17.7553541,252.070577 22.8158169,256.528103 C22.7423233,257.28746 22.6617629,258.052453 22.4377486,258.456786 C21.2385298,260.627787 21.0208755,262.924878 22.164974,265.048683 C24.0157424,268.481288 24.3104237,272.12733 24.3923974,275.886782 C24.4291442,277.571034 24.5980383,279.296141 25.0234536,280.920518 C25.9230443,284.354531 27.5300116,287.673726 27.9526001,291.148595 C28.9490046,299.338806 29.3722999,310.491073 30.1227833,318.712278 C30.5778787,323.695295 30.7573728,328.764252 31.8597778,333.614135 C34.1705882,343.77318 37.1386016,364.491377 39.5525859,374.629289 C40.2486557,377.552603 41.0606194,380.4731 40.3129627,383.782432 C39.1059705,389.126814 38.7052887,396.396357 38.1180461,401.866124 C37.953392,403.391883 36.8297869,407.496497 40.3581895,408.903915 C46.7288183,411.443324 54.4718,409.277254 60.1180921,405.407913 C61.5660587,404.416099 62.3638889,400.860222 62.235275,399.077353 C62.1073678,397.314911 61.9794605,394.512756 61.8826468,392.745384 C61.5837254,387.300976 61.4975117,384.68549 58.4651913,379.768687 C58.0016159,379.014965 58.1931234,377.829438 58.1782834,376.841146 C58.1669767,376.099399 58.3726176,375.35413 58.3775643,374.61027 C58.4249111,366.748316 57.5274404,351.671764 59.1457144,344.009863 C61.1632569,334.453091 60.8572688,326.94264 60.2855729,320.09504 C60.0636786,317.43095 59.2948217,314.7253 60.9448959,312.165463 C61.2346305,311.714638 61.0205095,310.8306 60.8360687,310.20649 C59.6446233,306.153297 61.5158851,302.518526 62.4395026,298.776684 C62.6069834,298.09763 63.6867749,297.642579 64.6259392,296.845183 C65.0089542,298.537888 65.2725421,299.760749 65.5622767,300.977975 C66.4830676,304.848724 67.7508333,308.674392 68.2511555,312.597972 C68.8313315,317.152707 68.6680908,317.536612 73.0289505,318.83555 C74.7715983,319.353998 74.988546,320.252829 74.9941993,321.774361 C75.0196395,328.336673 76.4195525,334.560867 79.7345408,340.310286 C81.0892269,342.660912 82.3661793,345.067187 83.5095712,347.526293 C87.5524294,356.222272 88.0315516,376.511481 90.2512016,385.661102 C90.271695,385.742109 90.2815884,385.837205 90.258975,385.914691 C88.9134756,390.546911 87.9347378,392.052946 86.9348,398.022142 C86.4500244,400.912349 88.9148889,405.013442 91.8744223,405.407913 C95.3194378,405.86719 98.2846246,406.539905 101.75508,406.81533 C108.43523,407.344344 112.70705,407.909988 119.397093,408.222043 C123.343138,408.406599 125.278,405.743918 124.967772,401.765393 L124.967772,401.765393 Z" id="Fill-1" fill="#D1B8C7" mask="url(#mask-4)"></path>
                </g>
                <g id="Group-3" transform="translate(0.000000, 100.000000)">
                    <mask id="mask-6" fill="white">
                        <use xlink:href="#path-5"></use>
                    </mask>
                    <g id="Clip-2"></g>
                    <path d="M82.3087814,76.4131614 C81.885172,75.4329353 82.1061856,73.3837897 82.808693,72.8490015 C85.6930518,70.6526906 85.398367,67.9064808 84.3347392,65.2568482 C82.8764442,61.6256756 84.6011395,59.4917785 87.1664756,57.2941537 C89.0418021,59.0318869 88.7004151,60.9765714 88.3748147,63.024403 C88.1926101,64.1669051 88.317588,65.432264 88.6070105,66.5649113 C90.3955103,73.5618335 92.270179,80.537732 93.6929539,87.7015291 C88.8339441,84.7956712 84.5314149,81.5600054 82.3087814,76.4131614 M89.0049665,290.695052 C86.2791324,299.793022 84.608375,308.934353 84.5892994,318.521122 C84.5715394,327.370093 83.3717514,336.217094 82.6705596,345.063437 C82.6527995,345.285499 82.3725859,345.486537 81.977261,346.012785 C81.2826469,344.51091 80.5998728,343.246865 80.1012767,341.914494 C78.8981999,338.699851 77.4037271,335.524628 76.7617353,332.191728 C76.3256281,329.933004 77.2721714,327.43842 77.3596559,325.041071 C77.5017361,321.153673 77.4524027,317.259048 77.4741094,313.367051 C77.5122606,306.59022 77.5365984,299.812075 77.5819851,293.034587 C77.5892206,292.009685 77.5648828,290.963761 77.7556386,289.96711 C77.9983589,288.697152 78.4206527,287.45873 78.8159775,286.224249 C78.9850266,285.699316 79.9243343,282.688997 80.0151077,282.161435 C80.7038018,278.174832 80.8116775,276.724203 81.4865583,272.734315 C81.6404784,271.825043 81.923981,270.936795 82.1463101,270.038693 C83.2152002,265.714398 84.3478947,261.4039 85.3306158,257.060552 C86.0193099,254.015413 86.5034349,250.924941 87.6058716,247.860749 C87.4966804,252.419589 92.317539,255.248579 91.1164355,260.384911 C90.4053769,263.426766 92.2563656,267.013263 92.7023395,270.38821 C93.6462516,277.524414 90.9855376,284.084439 89.0049665,290.695052 M7.56606815,152.347177 C6.19262664,147.838925 4.78300732,143.341186 3.4648192,138.817166 C2.97016977,137.118852 2.56366265,135.371921 2.37948467,133.620391 C2.31633794,133.01202 3.04712985,132.321526 3.41614359,131.667823 C3.95815308,132.081068 4.88496298,132.418103 4.98494531,132.920042 C6.25840449,139.296768 7.41346354,145.697145 8.59812262,152.090952 C8.25410446,152.17636 7.91008631,152.261769 7.56606815,152.347177 M139.8644,374.937995 C139.239511,372.112947 137.033322,371.159657 134.364714,371.140605 C130.992284,371.116296 127.613276,371.285142 124.248739,371.118924 C123.189057,371.067022 122.092541,370.321341 121.147971,369.691289 C119.564698,368.635509 118.201123,367.209846 116.542206,366.316342 C114.162363,365.035872 111.458236,364.321726 109.178375,362.906574 C108.116721,362.248272 106.820897,360.084154 107.176755,359.331245 C107.197147,359.287227 107.195831,359.230726 107.233324,359.199848 C110.21635,356.741399 111.233275,352.949921 110.460386,346.179003 C109.801949,340.410648 109.625007,335.63106 110.460386,332.842146 C111.485205,329.420553 111.481916,327.611208 112.45477,324.171219 C112.810628,322.839504 113.20398,321.436178 113.611802,320.021683 C115.156924,314.399836 116.60009,311.304109 117.938012,305.634303 C119.733747,298.026382 125.13082,296.44961 125.682696,282.961647 C125.703745,282.448539 125.590607,279.886286 125.623496,279.339015 C125.641256,279.039428 126.198394,276.592148 126.216812,276.292562 C126.580563,270.450624 126.535177,266.755067 126.60227,260.907874 C126.664101,255.48838 126.201025,250.062316 125.946465,244.640194 C125.561007,236.416018 125.115033,228.19447 124.811797,219.968324 C124.774961,218.967731 125.295264,217.841653 125.836616,216.940923 C131.171857,208.078812 134.07266,198.585992 131.980267,188.286391 C131.087004,183.893113 131.472462,179.763286 132.040125,175.523086 C132.140765,174.774776 132.819592,174.102678 133.231362,173.395759 C133.482633,173.53504 133.734562,173.674321 133.985834,173.81426 C133.607611,175.418625 133.154402,177.011163 132.888001,178.634581 C132.782099,179.2804 132.888001,180.160107 133.271486,180.624597 C133.571433,180.987912 134.713995,181.167927 135.009995,180.903817 C135.4586,180.501084 135.763151,179.60101 135.665142,178.985412 C135.246137,176.353518 134.648217,173.749875 134.138438,171.132435 C134.03714,170.610786 133.870722,170.020811 134.012145,169.546466 C136.419614,161.491136 130.651554,153.294554 124.338854,150.950421 C119.519969,149.160785 115.566062,150.009614 112.142983,153.81226 C111.537827,154.484359 111.210911,155.40677 110.755728,156.213551 C108.919868,154.018555 107.904916,152.456237 107.22872,150.759237 C105.512576,146.455966 104.375935,141.857707 102.165141,137.840225 C100.819984,135.395573 98.9591286,132.917414 97.1002465,130.882065 C94.9631242,128.543845 95.4860581,126.716761 95.8110007,124.197869 C96.5023259,124.400222 96.9390908,124.489572 97.3469135,124.653162 C101.55538,126.337679 105.827652,127.601724 110.45907,127.193735 C113.326327,126.940794 114.788568,125.57623 115.837067,122.790601 C117.113157,119.399229 115.498969,116.346206 115.706169,113.175582 C116.281725,104.377855 113.774932,96.4427544 109.912456,88.6607316 C106.388079,81.5586914 103.070902,74.3147417 101.867825,66.3224827 C101.480394,63.7464328 102.124359,61.9403728 104.420663,60.7045784 C106.513057,59.578501 106.453857,57.9964739 105.237624,56.2574266 C104.775864,55.5978107 104.219383,55.0052075 103.627383,54.2864626 C104.084539,54.0762265 104.327917,53.8594204 104.554192,53.8751882 C108.786997,54.1767456 113.056637,55.2213566 117.121051,52.8943051 C117.555842,52.6453066 118.51291,53.1676121 119.1674,53.4639137 C121.417002,54.486187 123.211422,54.0243244 123.810658,51.6736214 C125.151211,46.4170604 125.065699,41.074434 123.237733,35.9348169 C122.543119,33.9829056 120.898673,33.1708684 118.752999,34.4585649 C118.090616,34.8566996 116.997388,35.2522064 116.429068,34.9756145 C113.133597,33.3745347 109.823656,34.5268917 106.526212,34.6825978 C102.123701,34.890863 97.7231628,35.162856 93.321309,35.4079126 C93.125291,35.2311828 92.929273,35.05511 92.7325973,34.8783802 C93.9744831,34.3054867 95.2170267,33.7325932 96.4589125,33.1596996 C96.2300056,32.7405413 96.0010986,32.3220399 95.7721917,31.9035386 C94.5737193,31.5362823 93.3962958,30.9922962 92.1715122,30.8444739 C90.2238301,30.6086152 88.2439168,30.5724809 86.2778169,30.5751089 C84.7155929,30.5777368 84.2235746,29.9575401 84.1577967,28.3847109 C83.8335119,20.6986083 80.7754997,14.3238538 74.5969862,9.60470898 C72.3776416,7.90902296 69.5347229,6.78163156 67.8554144,4.69043876 C65.8603722,2.20702414 63.5390719,1.36476552 60.6862865,0.994881283 C58.6438843,0.730772108 56.6291087,0.142767851 54.5847331,0.0356788075 C52.5936376,-0.068782284 50.5393954,0.0527604954 48.5877666,0.444982329 C46.4092042,0.882536335 44.6654334,3.20695987 42.0481327,1.92254833 C41.8507992,1.8259711 41.4363987,2.19519835 41.1127717,2.32199704 C39.8235258,2.82393587 38.519151,3.28842638 37.242403,3.81861569 C35.9353971,4.36128778 33.9502216,4.62868189 33.4831988,5.60168112 C31.6368146,9.44900283 29.9357994,13.434292 30.5185911,17.9340028 C30.6975069,19.3117066 30.6876402,20.7478824 30.5258267,22.1288712 C29.9292216,27.226441 29.0912118,32.2990454 28.6228735,37.40647 C28.3097709,40.8260926 27.3849344,44.795614 28.6998336,47.5996388 C30.2271953,50.8550143 29.9213283,53.2339679 28.8682249,56.1746461 C28.3498954,57.6206767 28.570909,59.3170197 28.196633,60.835976 C28.0670507,61.3628804 27.1527386,61.6972872 26.5969157,62.1190735 C24.9932517,58.9070592 23.504699,60.449667 21.9451062,62.1854293 C21.5918791,62.5783082 21.0077718,62.8549001 20.4802334,62.9869547 C16.8256161,63.9047669 15.6376681,66.5971037 14.9187162,69.9569403 C14.5569381,71.6480274 13.3295234,73.1728966 12.4092912,74.7240452 C11.0582142,77.0011656 9.36180346,79.1120681 8.29159784,81.5081033 C5.86307961,86.942708 3.66281053,92.4824308 1.50792816,98.0333224 C0.78042514,99.9090231 -0.0240379663,101.967367 0.0621310173,103.904167 C0.316033518,109.600253 1.01656762,115.275315 1.50463927,120.962203 C1.72565284,123.532998 1.867733,126.111018 2.01441761,128.686411 C2.02823096,128.937381 1.81313739,129.199519 1.71249727,129.459029 C-2.17102699,139.504376 1.24152787,148.632567 5.09479432,157.965081 C6.11698211,157.596511 6.90302742,157.073549 7.6653927,157.105084 C8.44551801,157.137277 9.56834591,157.500591 9.91039073,158.086624 C11.9797619,161.62976 13.8478528,165.289184 15.8225039,168.888821 C18.5068979,173.780753 21.2182609,178.658232 23.9401484,183.529798 C24.3953311,184.345777 24.9314206,185.123651 25.5168434,185.848309 C25.5720968,185.916636 26.6153335,185.398272 26.5903379,185.288555 C26.3870844,184.383883 26.1029241,183.483152 25.7227281,182.635638 C24.9675984,180.952434 24.1355086,179.304709 23.3356499,177.642529 C23.5691613,177.44806 23.8033304,177.252935 24.0368418,177.05781 C26.9185694,178.095851 29.764777,179.250836 32.6938646,180.130542 C34.7356091,180.744169 35.3355031,181.840682 34.9303115,183.855664 C33.8798393,189.08069 32.8826471,194.318198 31.9584683,199.566875 C31.7249569,200.894648 30.8731338,202.633038 33.3897943,202.982556 C35.54073,203.280829 35.5394144,201.734936 35.8834326,200.391395 C36.3162508,198.702279 36.7885358,197.023018 37.2443763,195.339158 C38.3533909,203.472012 38.3027419,210.225192 43.428152,214.941708 C43.5504988,215.05471 45.0305004,218.409948 45.0305004,218.409948 C46.2263417,224.041649 47.6057033,228.453324 48.2351973,234.148096 C49.1310916,242.250072 50.8242135,246.14601 51.1728361,254.420117 C51.3313607,258.196484 50.7656712,264.079155 50.3716618,267.756974 C49.8717502,272.423559 47.784619,274.564683 47.166965,279.22667 C46.2467329,286.17169 44.7693624,293.855165 44.7627846,300.833034 C44.7575223,307.027117 46.0382171,317.350369 48.2351973,322.972873 C51.73129,331.921049 54.119026,339.758259 54.8531068,349.206403 C54.9695336,350.693167 55.9614635,355.121266 56.2469394,356.581751 C56.7514555,359.168312 58.2090927,360.959919 58.6504621,363.517573 C59.9857524,371.252293 58.1163459,372.586635 60.194926,375.880116 C61.7117632,378.284035 63.5364408,380.561813 66.3951461,380.588749 C69.3314693,380.616343 71.8191876,379.031031 74.1398302,376.854429 C74.9956,376.05159 76.2855036,374.360503 77.3991227,373.922292 C78.948191,373.310636 79.9197299,373.74819 79.8960498,375.657397 C79.8756587,377.338629 79.9657744,379.027089 80.1032501,380.705693 C80.4525305,384.951806 81.4497227,386.091024 85.6792384,385.994446 C97.0956421,385.733622 108.537699,385.644272 119.908058,384.730401 C125.501149,384.281022 131.024515,382.371158 136.447899,380.697152 C138.859972,379.952785 140.493894,377.784067 139.8644,374.937995" id="Fill-1" fill="#422035" mask="url(#mask-6)"></path>
                </g>
                <g id="Group-6" transform="translate(154.000000, 61.000000)">
                    <g id="Group-3">
                        <mask id="mask-8" fill="white">
                            <use xlink:href="#path-7"></use>
                        </mask>
                        <g id="Clip-2"></g>
                        <path d="M158.578444,129.944956 C154.48563,134.409326 154.857185,132.176733 154.857185,132.176733 C154.857185,132.176733 154.279481,121.669696 151.879852,115.804659 C148.530963,107.618215 151.879852,111.339474 151.879852,111.339474 L158.578444,117.664881 C158.578444,117.664881 161.926519,117.664881 163.78837,120.269844 C165.648593,122.873993 162.671259,125.47977 158.578444,129.944956 M48.8505926,91.6502889 C48.8937778,91.2086593 48.9337037,90.7654 48.9874815,90.3286593 L49.1227407,91.2705852 C49.0331111,91.3968815 48.9402222,91.5231778 48.8505926,91.6502889 M193.896593,100.873178 C189.565037,95.1214 184.640296,89.9008815 177.730667,87.1036222 C170.687407,84.2517704 164.700148,79.1828074 158.476593,74.6573259 C155.985704,72.8468074 152.974963,71.6808074 150.052222,70.7649556 C146.497185,69.6519185 142.801185,69.0074 139.133704,68.3742889 C137.537481,68.0988815 135.859778,68.3596222 134.218741,68.3742889 C133.693185,68.3775481 133.12037,68.5185111 132.648593,68.3474 C129.997185,67.3867333 127.369407,66.3486593 124.569704,65.0278444 C128.936296,63.5962148 133.261333,62.1719185 134.270074,55.6925111 C135.476,58.8425852 136.425259,60.8722889 139.245333,59.3102889 C139.607926,59.1090296 140.479778,59.9621407 141.419259,60.502363 C141.007778,59.5245852 140.807333,58.8352519 140.456148,58.2502148 C137.266963,52.9449556 136.879111,47.1279926 137.785185,41.1195481 C138.456593,36.6747333 138.042667,32.6006593 135.326889,28.9087333 C134.020741,27.1340667 133.073111,25.0538444 132.012222,23.0819926 C129.806519,18.9891778 127.726296,18.0252519 123.33363,18.8514741 C121.909333,19.1187333 120.358741,18.5785111 118.906741,18.7569556 C116.569037,19.0445852 114.217481,19.1399185 111.886296,18.8074741 C105.871333,17.9486593 100.166,18.3756222 95.1068148,21.6927333 C92.523037,23.3867333 91.0767407,25.7651778 90.3605185,29.0554 C89.7616296,31.8102889 88.1246667,34.3068815 86.9505185,36.9191778 C85.5001481,40.1425852 84.5443704,43.3708815 85.7861481,47.0236963 C86.0745926,47.8719185 85.2296296,49.1079926 85.0813333,50.1925111 C84.8548148,51.8416963 84.4718519,53.5650296 84.7,55.1677704 C85.2679259,59.1538444 86.1438519,63.0910296 87.0645926,67.9391778 C82.1308889,68.9568815 77.5548889,69.9036963 72.9748148,70.8391037 C72.454963,70.9450296 71.8055556,70.7910296 71.412,71.0721407 C66.6062222,74.5033259 60.4625185,75.8233259 56.7192593,80.8336222 C56.3151111,76.5900667 58.6120741,71.6946593 60.8788889,68.0076222 C64.6547407,64.9610296 67.223037,60.8836963 67.9661481,54.9608074 C71.376963,55.8807333 74.3608148,56.6849556 77.3886667,57.5014 C82.2718519,52.5554741 82.1178519,52.1822889 76.4866667,47.0016963 C60.8177778,32.5835481 45.2507407,18.0391037 29.6437778,3.54436296 C25.9714074,0.134362963 22.0431852,-0.838525926 17.1982963,0.844881481 C3.75548148,5.51458519 -2.31488889,24.0402148 0.801777778,36.9265111 C2.37925926,43.4482889 7.91674074,47.3716222 13.5707407,47.8458444 C25.3839259,48.8366593 37.1677778,50.2291778 49.7151111,51.5361407 C43.8345926,69.4881407 37.2182963,72.2845852 27.6800741,93.7582148 C25.7913333,100.051844 25.7766667,108.569919 28.4427407,119.809474 C29.2176296,123.078511 31.6074815,128.412289 34.7037778,128.224067 C36.5868148,128.108363 42.7639259,127.772659 48.1539259,127.277252 C51.8385185,129.714363 56.1211852,130.472141 58.4800741,136.148141 C60.3028148,140.531844 59.3046667,140.992215 58.9062222,144.749326 C58.2038519,151.359919 57.7687407,158.103326 58.1981481,164.717993 C58.5167407,169.641919 58.9322963,174.1894 57.6334815,179.171993 C56.707037,182.729474 58.1476296,187.001548 58.5900741,190.946881 C58.6373333,191.363252 58.9991111,191.928733 59.3486667,192.087622 C63.8920741,194.142585 64.2856296,198.574363 64.7231852,202.860289 C64.9048889,204.636585 64.6653333,206.420215 64.1128889,208.118289 C62.5737037,212.849104 63.4985185,217.503326 64.5048148,222.045104 C66.3202222,230.238067 68.3996296,238.369104 70.5711111,246.463474 C72.3156296,252.965696 74.756,259.2854 76.1240741,265.8634 C76.9861481,270.009178 76.9405185,274.305696 75.9423704,278.422956 C73.339037,289.171993 72.0247407,299.949548 73.0033333,311.022067 C73.7831111,319.84977 74.6362222,328.6734 75.2457037,337.514956 C75.556963,342.045326 74.7698519,346.409474 71.9440741,350.092437 C70.884,351.472733 69.6120741,351.682956 68.0606667,351.2894 C60.6678519,349.413696 58.4784444,352.974437 57.3173333,357.917919 C55.9125926,363.896215 58.9233333,369.123252 64.5708148,369.634141 C69.5314074,370.083104 74.0405926,371.715178 78.628,373.382289 C82.5391111,374.803326 86.1454815,373.589252 89.5538519,371.610881 C90.9121481,370.822956 91.5322222,369.553474 90.5658519,367.711993 C89.7632593,366.180141 89.5342963,364.315844 88.8205185,362.715548 C84.383037,352.768289 86.6091111,343.032881 89.8048148,333.456363 C91.8654815,327.279252 94.5804444,321.354733 96.8635556,315.258289 C99.8188889,307.365993 100.637778,299.047548 100.804815,290.631326 C100.91563,285.017252 102.093852,279.709548 104.472296,274.687844 C107.193778,268.9434 108.35163,262.789104 107.390963,256.461252 C106.673111,251.738585 108.895111,248.010807 109.817481,243.84303 C110.029333,243.860141 110.24037,243.876437 110.452222,243.893548 C110.452222,245.277104 110.739852,246.74703 110.404963,248.030363 C108.341852,255.925104 109.718889,263.519178 111.291481,271.318585 C112.66037,278.108437 113.341556,285.184289 113.343185,292.133844 C113.344815,303.269919 115.607556,313.878807 118.11637,324.540659 C118.901852,327.880585 119.125111,331.499993 118.925481,334.945844 C118.601185,340.534659 117.642963,346.077844 117.101111,351.656881 C116.873778,353.988881 116.361259,356.672881 117.163037,358.647178 C118.377926,361.639178 119.828296,365.142067 123.600889,365.557622 C128.06037,366.048956 132.544296,366.459622 136.935333,364.865844 C139.924074,363.782141 140.966222,361.05903 139.069333,358.216956 C137.447037,355.787993 135.309778,353.759104 133.590519,351.395326 C132.808296,350.3214 132.404148,348.897104 131.973111,347.577919 C131.576296,346.363844 131.446741,345.052807 131.07437,343.828141 C129.093556,337.315326 130.878815,331.136585 132.474222,324.934215 C134.848593,315.703178 137.522815,306.542215 139.48163,297.210956 C140.790222,290.980881 140.078074,284.504733 138.636667,278.323548 C137.361481,272.847178 138.731185,267.6454 139.251852,262.353178 C139.593259,258.886956 140.365704,255.469622 140.945037,252.030289 C141.247333,250.235252 141.759037,248.917696 143.185778,248.136289 C144.363185,247.49177 145.349926,246.538437 145.907259,245.317844 C149.096444,238.334881 150.046519,235.63377 150.912667,231.474956 C151.395852,229.155993 151.109852,226.466289 151.738074,224.095178 C154.50763,213.644363 156.250519,203.026511 156.66037,192.174807 C156.733704,190.236363 157.294296,188.926956 159.110519,188.329696 C161.869481,187.422807 161.48,184.612511 161.919185,182.4614 C162.228815,180.938511 162.36163,179.766807 163.993704,179.168733 C164.532296,178.972363 165.101852,177.42503 164.929111,176.690881 C163.617259,171.101252 162.11963,165.560511 160.690444,160.001844 C160.213778,158.14977 160.458222,156.695326 161.485704,154.828585 C166.408,145.883548 174.90163,140.820289 181.203407,133.416881 C185.856,127.950289 190.820667,122.719993 194.933852,116.816659 C199.195333,110.700659 199.150519,107.854511 193.896593,100.873178" id="Fill-1" fill-opacity="0.7" fill="#D580AA" mask="url(#mask-8)"></path>
                    </g>
                    <path d="M159.208491,117.091874 L152.492304,110.834749 C152.492304,110.834749 149.13462,107.15366 152.492304,115.251733 C154.898237,121.053457 155.477458,131.447877 155.477458,131.447877 C155.477458,131.447877 155.104926,133.656369 159.208491,129.239385 C163.312055,124.822401 166.297209,122.245559 164.432101,119.668716 C162.565359,117.091874 159.208491,117.091874 159.208491,117.091874" id="Fill-4" fill="#FEFEFE"></path>
                </g>
                <g id="Group-3" transform="translate(172.000000, 93.000000)">
                    <mask id="mask-10" fill="white">
                        <use xlink:href="#path-9"></use>
                    </mask>
                    <g id="Clip-2"></g>
                    <path d="M105.919354,169.440022 C104.607881,172.221164 103.193839,174.50338 100.258233,176.770777 C100.258233,175.358682 100.103318,174.465273 100.282991,173.645256 C101.475625,168.196588 102.702921,162.754977 104.02359,157.336653 C104.185578,156.675418 104.970765,156.1652 105.467342,155.585825 C105.880449,156.173669 106.527697,156.711408 106.669879,157.359236 C107.560464,161.435328 107.874539,165.294772 105.919354,169.440022 M165.418779,47.2892257 C169.87807,43.8510816 171.455516,39.3466329 170.687307,33.8951421 C170.539466,32.8507141 170.332205,31.813343 170.221147,30.7653866 C170.063402,29.2679026 170.697918,28.0879812 172.154403,27.7492478 C173.587544,27.4147486 176.109336,29.049843 176.103677,30.2516409 C176.0867,33.86762 176.243737,37.5280579 175.732305,41.0854644 C175.16499,45.0324143 173.910814,48.8784499 173.00113,52.7795297 C172.198967,56.2183795 172.682812,59.5725459 173.929206,62.8561429 L173.613717,63.3896481 C172.934637,63.1786454 171.966241,63.1758226 171.633067,62.7164154 C170.758752,61.5082662 169.890803,60.1695636 169.527212,58.7539402 C169.124716,57.1837697 168.561645,56.288949 166.907803,55.7497983 C163.507452,54.6432691 162.632429,49.4387714 165.418779,47.2892257 M0.00623345971,60.6120341 C0.192980432,62.2697107 2.04559528,67.3154271 2.04559528,67.3154271 C2.04559528,67.3154271 5.08942945,74.9933844 6.65202059,77.6340936 C8.21390436,80.2748028 10.2242638,82.2239313 12.1122474,83.6049757 C13.9995236,84.98602 14.9233552,85.5816262 14.9233552,85.5816262 L15.4397389,87.0579393 C15.4397389,87.0579393 13.7979218,89.591383 13.3501535,90.282258 C12.9023852,90.973133 12.4546169,91.664008 13.0792289,92.7197271 C13.7045483,93.776152 16.0261527,93.4769375 16.0261527,93.4769375 C15.9582447,94.0873633 17.2350564,95.3999552 17.5880365,96.1183524 C17.9417239,96.8353381 16.8636846,98.0406645 17.6856542,99.5924869 C18.2303329,100.62139 19.640131,101.033515 19.640131,101.033515 C19.640131,101.033515 18.4764993,103.063799 19.1527497,104.311467 C19.4724832,104.900016 21.3922986,105.779311 21.9567838,106.062295 C22.8834449,107.602826 22.7257003,108.35298 23.9331893,109.647929 C25.8756407,111.733963 28.3288169,113.19969 31.3521372,113.246266 C33.5343887,113.280845 35.735032,113.436098 37.8967697,113.223684 C43.1065858,112.71135 47.3190033,115.24197 51.5370798,117.583465 C57.0503597,120.642651 62.8140503,125.331992 68.8585688,127.524585 C71.4687822,128.471627 71.9434307,129.418669 75.2652632,131.07564 C75.9577833,131.420725 77.3979985,132.048087 78.1117398,132.022682 C84.7561122,131.786275 88.3856528,131.253475 93.8862,127.974818 C97.8156675,125.633323 101.660957,123.151396 105.59184,120.812018 C106.207963,120.445057 107.162919,120.246051 107.798849,120.456348 C108.197809,120.587607 108.519664,121.64262 108.487125,122.26222 C108.331503,125.215552 108.713485,128.434931 107.643934,131.045295 C106.083465,134.848989 106.093369,138.813582 105.172366,142.649737 C104.482676,145.524737 103.804303,148.405383 103.006384,151.252155 C102.138435,154.347331 101.066763,157.387463 100.214376,160.486874 C98.7876006,165.675847 97.4817866,170.897281 96.0896728,176.096133 C95.5131622,178.247796 94.9557508,180.417101 94.1896638,182.505251 C93.1477006,185.344261 90.4136966,186.185449 87.9760827,187.302563 C85.5356393,188.420384 83.527402,189.948212 81.9322716,192.183147 C79.3475238,195.804772 79.9275712,199.578827 81.1485002,203.326065 C83.487789,210.500156 86.4785701,217.463951 87.4292819,225.055108 C88.0298432,229.843245 88.1812214,229.824192 83.267088,229.840423 C77.6377986,229.857359 77.5996004,229.856654 77.5529136,235.494448 C77.485713,243.73061 77.4708582,251.966771 77.4552959,260.203639 C77.4510517,262.45057 78.5142361,263.514758 80.7148794,263.512641 C86.4021736,263.507701 92.0901751,263.442071 97.7774693,263.487236 C99.5869342,263.500644 100.475397,262.908566 100.449932,260.987665 C100.397586,257.030836 100.406782,253.071183 100.515717,249.116471 C100.54189,248.158137 101.058274,247.213212 101.349005,246.261936 C102.214125,246.592201 103.10471,246.867422 103.938705,247.261905 C107.225876,248.818668 108.236714,251.579345 108.758757,255.047834 C109.387613,259.235426 110.697672,263.339745 111.935578,267.412309 C112.908218,270.610517 114.371777,273.662646 115.309049,276.867911 C115.737718,278.332227 115.383323,280.013898 115.461134,281.592536 C115.544604,283.283381 115.736303,284.968579 115.850898,286.658718 C115.9662,288.355208 116.044011,290.053815 116.139507,291.75101 C116.164972,292.206889 116.050378,292.743923 116.251272,293.103827 C117.368217,301.754937 115.294194,309.530986 115.232652,313.354439 C115.042368,325.223517 116.851833,331.334832 118.316807,343.179916 C119.090675,349.434487 119.109067,352.699736 119.230735,359.029817 C119.303595,362.789757 119.093504,366.562401 119.323401,370.309639 C119.653745,375.694089 117.687243,379.770181 113.114772,382.626127 C110.664425,384.156779 108.299671,385.837037 105.773635,387.22655 C103.364316,388.55255 100.724393,389.460779 98.3157816,390.787485 C95.5103327,392.332956 92.68437,393.93206 90.2036063,395.924942 C89.280482,396.668038 88.9805551,398.59035 88.9869214,399.971395 C88.9947026,401.540859 90.6351049,401.568382 91.8489603,401.845014 C100.295724,403.772971 108.179417,404.794112 115.984592,401.564147 C118.983154,400.322125 122.305694,399.817553 125.514346,399.135147 C128.99746,398.394873 132.535042,397.909355 136.009668,397.135914 C136.613058,397.001832 137.39683,396.027268 137.456957,395.380851 C137.817718,391.51929 137.838232,384.897052 136.241687,381.065131 C134.985389,378.04758 134.381998,374.389965 136.939866,371.280675 C137.326092,370.809977 137.438565,370.08664 137.596309,369.459983 C138.013661,367.812892 138.411913,366.158038 138.764893,364.494716 C138.926174,363.733977 139.05138,362.946422 139.042184,362.172275 C138.993375,357.889414 138.996912,353.675712 140.53333,349.516348 C141.730208,346.274387 142.041453,342.714157 143.140714,339.427032 C145.207663,333.244441 145.488491,326.858611 145.409265,320.489717 C145.329332,314.108121 144.467749,307.740639 144.259781,301.356219 C144.175603,298.770554 144.893589,296.15525 145.281938,293.559 C145.603793,291.419334 146.277214,289.286725 146.274385,287.151998 C146.263774,279.501563 145.997094,271.851128 145.91716,264.199987 C145.902305,262.824588 146.311168,261.44425 146.524088,260.066028 C146.767425,260.092845 147.011469,260.121072 147.254806,260.147889 C147.389207,260.572011 147.578784,260.986254 147.648814,261.41955 C148.296062,265.382731 149.077004,269.332504 149.519113,273.318267 C150.12887,278.828331 152.076274,283.878281 154.336336,288.854134 C154.472152,289.153348 154.714075,289.468088 154.697098,289.763774 C154.403537,294.807374 157.288212,299.026016 158.359885,303.719591 C158.92154,306.181053 160.127615,308.492909 161.009004,310.885214 C161.390279,311.917645 161.782164,312.961367 162.00711,314.034023 C163.113444,319.300622 164.195728,324.57216 165.22708,329.853579 C166.018633,333.907089 166.600095,338.004352 167.504827,342.031045 C168.292843,345.541876 169.614927,348.939089 170.301788,352.46474 C170.850003,355.285401 170.775022,358.224619 171.02331,361.106676 C171.129416,362.337407 171.364972,363.556847 171.51635,364.784756 C171.58921,365.36766 171.810618,366.04301 171.609017,366.529939 C170.204877,369.916567 170.506219,373.458448 170.913667,376.892358 C171.838206,384.691695 168.823374,390.735969 163.141739,395.726642 C160.577505,397.979219 158.706498,400.704611 157.252843,403.746155 C155.70157,406.99235 157.045582,409.604126 160.673001,409.928746 C162.882132,410.12634 165.150684,409.873701 167.37467,409.648585 C169.205357,409.462987 170.997845,408.901254 172.828531,408.714951 C177.154128,408.275303 180.94778,406.906961 184.141578,403.748272 C185.742367,402.165399 187.96989,401.226825 189.862826,399.921996 C194.123345,396.983484 193.541175,392.945499 191.898651,388.987964 C191.624189,388.328139 191.119123,387.690191 191.080925,387.020487 C190.972697,385.158159 190.355866,383.60422 188.995584,382.308564 C187.594982,380.97339 188.335603,379.827342 189.236799,378.516867 C189.96681,377.454797 190.708846,376.1168 190.718749,374.895243 C190.757655,369.824121 190.274518,364.741709 190.454898,359.680467 C190.633157,354.689089 191.296675,349.706885 191.896528,344.738795 C192.961128,335.921141 193.394041,327.149357 191.175713,318.414975 C190.254004,314.782765 189.738328,311.047523 188.804593,307.418842 C187.689063,303.087994 186.181647,298.854532 185.113511,294.512393 C184.382792,291.540008 184.118942,288.452594 183.635097,285.418813 C182.07958,275.654822 183.574263,265.7878 182.721876,256.032984 C182.109289,249.021202 183.723519,242.2423 183.713616,235.351898 C183.707249,230.90461 185.320064,226.848983 185.85201,222.562594 C186.110909,220.473033 186.224089,218.366534 186.395981,216.267093 C186.697323,212.548788 187.017056,208.831189 187.275956,205.109355 C187.339619,204.196187 187.459873,203.151758 187.106893,202.367026 C185.526618,198.857607 187.198852,195.962142 188.467175,192.857791 C190.05311,188.977882 191.340532,184.970948 192.625125,180.976717 C193.446387,178.422808 194.001676,175.785627 194.740883,173.204902 C194.896505,172.662223 195.261511,172.128718 195.659763,171.715887 C199.766074,167.465488 199.952114,162.270164 199.393995,156.849724 C199.270912,155.651455 199.484539,154.415784 199.572961,153.199166 C199.696044,151.502676 199.930893,149.810421 199.972628,148.112519 C200.095004,143.099971 199.824786,138.167165 198.801215,133.180022 C197.869602,128.642405 198.140527,123.866264 197.780473,119.203034 C197.598678,116.854483 197.157276,114.527807 196.901913,112.18349 C196.680505,110.153912 196.324695,108.103164 196.428679,106.08276 C196.763975,99.5776673 195.946957,93.3654377 192.963957,87.4531283 C191.617823,84.7863084 190.81566,81.8463847 189.76733,79.0299575 C189.698715,78.8443599 189.598267,78.6573508 189.586242,78.4661076 C189.358467,74.6913471 189.544507,70.8340204 188.79469,67.1665256 C188.19625,64.2428328 188.636945,61.6790443 188.984973,58.8456805 C189.449719,55.0582176 188.757199,51.1119734 188.408463,47.2490011 C188.243645,45.4233692 187.730798,43.6273764 187.355889,41.8222096 C186.81121,39.2047883 186.569996,36.4666933 185.606551,34.0115817 C184.618348,31.4901349 183.113762,29.0957131 181.453553,26.9384047 C180.47879,25.6716829 180.129347,24.4945843 180.011216,23.0154484 C179.958162,22.3499784 179.473611,21.3351896 178.948031,21.1502976 C173.159582,19.1143687 169.539238,14.7355336 166.07593,9.99750008 C163.640438,6.66591586 160.697759,3.58414753 156.719482,2.08878067 C152.53253,0.515787397 148.183589,-0.880076528 143.622436,0.684448407 C139.511173,2.09442622 135.409106,3.53686599 131.352311,5.0915112 C127.794923,6.45491318 125.524249,8.90437914 125.304256,12.91837 C125.269595,13.5457325 124.913785,14.1695666 124.640738,14.7644671 C123.858382,16.4722481 122.789538,18.0974627 122.317719,19.8821644 C121.901783,21.4551577 121.693107,23.3450078 122.180488,24.8389633 C123.224574,28.0392883 122.585107,30.584023 120.454494,33.0461915 C119.361599,34.3086792 118.338735,35.7320652 117.699976,37.2563655 C117.039288,38.83571 117.315164,40.409409 119.374332,41.0163064 C119.729434,41.1207492 120.321507,41.4820648 120.298164,41.6556657 C119.915474,44.4325739 122.834103,46.6752714 121.575683,49.5848502 C121.432793,49.915821 121.349323,50.5361266 121.532533,50.7019648 C123.160203,52.1860405 122.59501,54.0801249 122.679895,55.886703 C122.757706,57.518269 123.523086,58.9607087 125.256154,59.22111 C127.592614,59.5725459 129.894412,60.7679926 132.370224,59.4321127 C133.733335,58.6960732 134.674144,59.338961 135.435279,61.3156116 C134.464761,61.37489 133.588323,61.5484908 132.742303,61.4574562 C130.112283,61.1744727 127.597565,61.2767984 125.33821,62.8956618 C124.927932,63.1892308 124.355666,63.4101132 123.859796,63.4072904 C121.110938,63.3924708 119.411116,65.1489447 117.725441,66.9258837 C115.729937,69.0323821 113.696234,71.1092413 111.820276,73.3173597 C110.771239,74.5509139 110.012225,76.0286384 109.115274,77.3913347 C108.402948,78.4724588 107.614225,79.5091242 106.972636,80.6304729 C105.410752,83.3600996 104.179919,86.3226056 102.328719,88.8327613 C99.7326535,92.3513546 96.7878518,95.6314231 93.812633,98.8479791 C91.8093473,101.013756 89.5117936,102.913486 87.3125651,104.895076 C85.4175077,106.604268 83.4432244,107.436988 80.6731443,106.66143 C78.3098048,106.000194 75.6939324,105.996665 73.202558,106.07782 C68.2261757,106.24013 65.5141003,106.232367 60.8701841,104.642437 L57.390607,103.37995 L48.1360213,99.4922783 C48.1360213,99.4922783 45.5293448,98.4633755 43.4249045,97.9221078 C41.3204642,97.3822514 39.6496447,95.1607248 39.6496447,95.1607248 C39.6496447,95.1607248 35.8057695,90.2328594 34.1490975,89.0007166 C32.4917181,87.7692795 30.0484452,87.4989985 28.1335814,86.9175061 C26.2194249,86.3353081 23.0829246,85.619028 22.6478891,84.5223786 C22.2128535,83.4250235 21.0449776,81.6918376 21.3293423,80.2430466 C21.613707,78.7935498 23.2965519,76.4499381 23.6219443,75.1895675 C23.9466294,73.9299026 23.1996415,72.304688 22.4116259,70.4903471 C21.6236102,68.6760063 20.1692475,65.6154088 20.1692475,65.6154088 L16.9379589,66.3069895 C16.9379589,66.3069895 13.4930432,55.8288361 9.72202764,54.9474235 C5.32569267,53.9192265 -0.211638008,58.6749024 0.00623345971,60.6120341" id="Fill-1" fill="#691446" mask="url(#mask-10)"></path>
                </g>
            </g>
        </g>
    </g>
</svg>