<?xml version="1.0" encoding="utf-8"?>
<!-- Generator: Adobe Illustrator 23.0.3, SVG Export Plug-In . SVG Version: 6.00 Build 0)  -->
<svg version="1.1" id="Layer_1" xmlns="http://www.w3.org/2000/svg" xmlns:xlink="http://www.w3.org/1999/xlink" x="0px" y="0px"
	 viewBox="0 0 80 50" style="enable-background:new 0 0 80 50;" xml:space="preserve">
<style type="text/css">
	.st0{fill:#FFFFFF;}
	.st1{fill-rule:evenodd;clip-rule:evenodd;fill:#FFFFFF;}
	.st2{fill:#6B0046;}
</style>
<g>
	<path d="M23.88,9.37h3.75v6.12h5.57V9.37h3.75v15.31H33.2v-5.99h-5.57v5.99h-3.75V9.37z"/>
	<path d="M47.78,21.46H43l-0.92,3.21h-3.85l5.2-15.31h3.94l5.2,15.31h-3.85L47.78,21.46z M45.38,12.86c0,0-0.34,1.67-0.62,2.63
		l-0.88,2.98h3.02l-0.86-2.98c-0.28-0.96-0.62-2.63-0.62-2.63H45.38z"/>
	<path d="M70.38,9.11c4.62,0,8.01,3.43,8.01,7.82c0,4.5-3.38,8.01-8.01,8.01c-4.62,0-8.01-3.51-8.01-8.01
		C62.37,12.54,65.76,9.11,70.38,9.11z M70.38,21.5c2.29,0,4.13-1.97,4.13-4.58c0-2.51-1.84-4.39-4.13-4.39
		c-2.29,0-4.13,1.88-4.13,4.39C66.25,19.54,68.09,21.5,70.38,21.5z"/>
	<path d="M53.86,9.37h3.75v12.09h6.25v3.21h-10V9.37z"/>
</g>
<g>
	<g>
		<path class="st0" d="M22.89,27.9h-4.65v-3.21h13.04v3.21h-4.65V40h-3.75V27.9z"/>
		<path class="st0" d="M39.59,36.79h-4.77L33.9,40h-3.85l5.2-15.31h3.94L44.39,40h-3.85L39.59,36.79z M37.19,28.18
			c0,0-0.34,1.67-0.62,2.63l-0.88,2.98h3.02l-0.86-2.98c-0.28-0.96-0.62-2.63-0.62-2.63H37.19z"/>
		<path class="st0" d="M45.67,24.69h3.75v12.09h6.25V40h-10V24.69z"/>
		<path class="st0" d="M57.3,24.69h9.59v3.21h-5.84v2.78h4.67v3.21h-4.67v2.89h6.14V40H57.3V24.69z"/>
		<path class="st0" d="M70.3,35.22c0,0,1.73,1.58,3.66,1.58c0.77,0,1.61-0.3,1.61-1.22c0-1.82-6.89-1.75-6.89-6.47
			c0-2.83,2.38-4.69,5.42-4.69c3.3,0,4.92,1.73,4.92,1.73l-1.58,3.06c0,0-1.54-1.35-3.38-1.35c-0.77,0-1.63,0.34-1.63,1.2
			c0,1.93,6.89,1.58,6.89,6.42c0,2.55-1.95,4.75-5.4,4.75c-3.6,0-5.59-2.18-5.59-2.18L70.3,35.22z"/>
	</g>
</g>
<polyline class="st1" points="10.02,11.64 8.55,10.49 6.66,10.72 6.32,11.3 4.88,15.57 7.01,17.78 "/>
<path class="st0" d="M7.79,4.7C7.3,4.7,5.69,4.64,5.25,4.17C5.12,4.04,5.1,3.9,5.11,3.81C5.14,3.09,6.83,3,7.84,3.01
	c0.48,0.01,2.1,0.06,2.54,0.54c0.12,0.13,0.14,0.27,0.14,0.36C10.49,4.63,8.79,4.72,7.79,4.7z M5.9,3.84c0.3,0.1,0.91,0.23,1.9,0.24
	c1,0.01,1.63-0.1,1.93-0.2c-0.3-0.1-0.91-0.23-1.9-0.24C6.87,3.63,6.21,3.74,5.9,3.84z"/>
<g>
	<path class="st2" d="M11.22,3.15c-0.09-0.01-0.29-0.15-0.62-0.19c-0.24-0.02-0.68-0.07-0.68-0.07s-0.07,0.39,0.11,0.42
		c0.27,0.05,1.11,0.11,1.21,0.51"/>
</g>
<path d="M19.09,38.82c-0.12-0.6-0.33-1.15-0.63-1.66c-0.12-0.21-0.4-0.13-0.54,0.03c-0.48,0.55-0.85,1.2-1.32,1.75
	c-0.31,0.36,0.24,0.5,0.46,0.25c0.23-0.27,0.44-0.57,0.65-0.87c-0.08,0.64-0.27,1.27-0.51,1.85c-0.29,0.72-0.72,1.58-1.37,1.96
	c-0.4,0.24-0.93,0.17-1.29-0.14c-0.38-0.33-0.57-0.87-0.68-1.39c-0.31-1.39-0.21-2.91-0.12-4.33c0.04-0.69,0.09-1.37,0.13-2.06
	c0.03-0.68,0-1.33-0.07-2.01c-0.14-1.4-0.4-2.82-1.12-4c-0.3-0.49-0.65-0.92-1.06-1.29c-0.17-0.15-0.36-0.31-0.54-0.48
	c-0.07-0.57-0.13-1.02-0.13-1.02l0.3-0.1c0,0-0.02-3.89,0.02-4.61c0.03-0.43,0.55-2.49,0.96-4.06l3.26-4.43c0,0,0.79-1.21,0.79-1.47
	c0-0.26,0.26-0.56,0.09-0.91c-0.18-0.35-3.48-4.16-3.48-4.16l-0.03,0.02c-0.08-0.25-0.15-0.53-0.13-0.79
	c0.04-0.67-0.12-1.03-0.12-1.03l-0.22-0.15c0.01,0,0.01,0,0.01,0l0-0.01c0,0-0.34-0.59-0.36-0.67c-0.02-0.08-0.36-0.36-0.43-0.43
	c-0.07-0.07-0.18-0.22-0.23-0.19c-0.05,0.02-0.15,0.19-0.07,0.36c0.04,0.08,0.1,0.16,0.16,0.24c-0.28-0.16-0.37-0.11-0.63-0.26
	c-0.3-0.17-0.45-0.27-0.45-0.27s-0.14,0.19-0.05,0.36c0.02,0.03,0.04,0.07,0.08,0.09c-0.22-0.02-0.48-0.05-0.48-0.05
	s-0.07,0.39,0.11,0.42c0.27,0.05,1.11,0.11,1.21,0.51c0.06,0.25,0.28,0.37,0.26,0.55c-0.02,0.18-0.28,0.33-0.62,0.2
	c-0.34-0.13-0.49-0.22-0.64-0.23c-0.15-0.01-0.25,0.2-0.25,0.2l0.4,0.4c0,0,0.59,0.22,0.68,0.32c0.08,0.1,0.48,0.17,0.51,0.33
	l0.25,0.71l-0.75,0.46l0.18,0.26l0.19,0.52c0,0,0.65,0.74,0.67,0.96c0.02,0.22,0.75,0.51,0.88,0.57c0.13,0.06-0.12,0.49,0.27,0.62
	c0.4,0.13,0.44,0.26,0.44,0.26l-0.44,0.13l-0.03,0.4l-0.19,0.49l-0.51,0.4l-0.8,0.62l-1.58-0.36L9.08,10.9c0,0-0.4,0.95-0.62,1.49
	c-0.22,0.54-0.86,3.2-0.89,3.28c-0.02,0.07-0.2-2.07-0.17-2.64c0.02-0.57,0.11-0.6,0.11-0.6l0.33-0.28l-0.38-0.47
	c0,0,0.83-0.37,1.08-0.65c0.25-0.27,0.3-0.38,0.3-0.38l0.19-1.3c0,0,0.14-0.29,0.32-0.5c0.18-0.21,0.23-0.39,0.23-0.39L9.45,8.33
	c0,0,0.25-0.67,0.22-1.08c-0.02-0.42-0.3-1.06-0.62-1.36C8.73,5.59,8.09,5.3,7.01,5.62C5.92,5.94,6.27,5.94,6.27,5.94L5.87,6.6
	L5.84,7.92c0,0,0.07,0.43,0.01,0.55C5.78,8.6,5.95,9.19,5.95,9.19l0.2,0.3l0.06,0.3c0,0,0.39,0.96,0.48,1.55
	c0.03,0.21,0.52,0.36,0.52,0.36l-0.44,0.42L7,12.6c0,0-0.32,0.56-0.41,1.08c-0.1,0.52-0.57,2.14-0.57,2.14S6,13.18,6.05,12.54
	c0.05-0.64,0.22-1.08,0.22-1.08l0.09-0.25c0,0-1.05,0.4-1.57,0.65c-0.65,0.31-1.6,0.94-1.8,0.96c-0.2,0.02-0.51,0.01-0.55,0.12
	c-0.04,0.11-0.32,1.84-0.4,2.27c-0.08,0.43-0.08,1.36-0.08,1.36s-0.19,0.65-0.24,0.9c-0.05,0.25-0.18,1.9-0.18,1.9
	s-0.32,0.54-0.35,0.86c-0.01,0.15,0.02,0.39,0.06,0.6L1,21.39l0.11,0.74l0.57,0.9l0.52,1.06l-0.06,1.52l0.27-0.07l-0.04,0.6
	l0.07,0.96l0.32,2.29l0.44,3.15l0.28,2l0.25,1.38c0,0-0.17,1.23-0.07,1.86c0.1,0.63,0.65,3.24,0.65,3.24s0.02,0.79-0.03,0.99
	c-0.05,0.2,0.17,0.54,0.17,0.54s-0.25,0.42-0.84,0.67c-0.59,0.25-0.83,0.09-1,0.32c-0.18,0.23-0.2,0.42-0.2,0.42l-0.03,0.02
	l0.01,0.19c0,0,1.18,0.35,1.82,0.3c0.64-0.05,1.03-0.3,1.23-0.39s0.37-0.07,0.37-0.07l0.04,0.18l1.21-0.1L7.01,43.1L7.16,43
	c0,0-0.12-0.34-0.17-1.01c-0.05-0.67-0.1-1.63-0.05-2.32c0.05-0.69-0.17-3.01,0.1-3.99c0.27-0.99,0.05-1.7-0.02-1.97
	c-0.07-0.27-0.27-0.62-0.27-0.62s0.08-0.42,0.15-0.71c0.07-0.3,0.09-2.77,0.09-2.77s0.91,3.21,0.89,3.64
	c-0.02,0.43,0.03,1.74,0.18,2.28c0.15,0.54,0.94,3.01,0.89,3.87s0.17,2.93,0.35,3.15c0.17,0.22,0.32,0.84,0.32,0.84l0.2,0.07
	c0,0-0.1,0.42-0.1,0.59c0,0.17,0.04,0.29,0.04,0.29s0.31,0.11,0.33,0.25c0.02,0.15-0.07,0.3,0.54,0.34C11.22,45,11.96,45,12.18,44.7
	c0.22-0.3-0.12-0.91-0.27-1.11c-0.15-0.2-0.15-0.2-0.15-0.2s0.25-1.21,0.2-2.34c-0.05-1.13-0.27-2.41-0.27-2.41l0.06-1.09
	l-0.33-3.27c0,0,0-4.88-0.07-5.59c-0.03-0.25-0.08-0.73-0.14-1.25c0.27,0.27,0.52,0.55,0.74,0.88c0.71,1.07,1.03,2.4,1.19,3.72
	c0.09,0.78,0.14,1.54,0.11,2.32c-0.03,0.72-0.09,1.44-0.13,2.16c-0.09,1.49-0.2,3.11,0.18,4.56c0.14,0.52,0.37,1.06,0.79,1.36
	c0.49,0.36,1.15,0.35,1.68,0.12c0.86-0.36,1.47-1.24,1.89-2.13c0.28-0.61,0.52-1.29,0.64-1.98c0.07,0.22,0.13,0.44,0.18,0.67
	C18.53,39.44,19.15,39.16,19.09,38.82z"/>
</svg>
