<?xml version="1.0" encoding="UTF-8"?>
<svg width="23px" height="19px" viewBox="0 0 23 19" version="1.1" xmlns="http://www.w3.org/2000/svg" xmlns:xlink="http://www.w3.org/1999/xlink">
    <!-- Generator: Sketch 51.3 (57544) - http://www.bohemiancoding.com/sketch -->
    <title>Twitter</title>
    <desc>Created with Sketch.</desc>
    <defs>
        <polygon id="path-1" points="0 0 42 0 42 35 0 35"></polygon>
    </defs>
    <g id="The-Corporation-App-(Mobile)" stroke="none" stroke-width="1" fill="none" fill-rule="evenodd">
        <g id="Landing_NU_Menu" transform="translate(-100.000000, -297.000000)">
            <g id="Social-Media-Icons" transform="translate(48.000000, 294.000000)">
                <g id="Twitter" transform="translate(43.000000, 3.000000)">
                    <mask id="mask-2" fill="white">
                        <use xlink:href="#path-1"></use>
                    </mask>
                    <g id="Clip-2"></g>
                    <path d="M32,2.24925356 C31.1447407,2.63076923 30.2332593,2.88323647 29.2830185,3.00622222 C30.2605185,2.41294587 31.0067407,1.48059259 31.3572778,0.35639886 C30.4462222,0.908968661 29.4397593,1.2991453 28.3672778,1.51696866 C27.5017963,0.5802849 26.2687407,0 24.9232407,0 C22.3127407,0 20.2112222,2.15398291 20.2112222,4.7951453 C20.2112222,5.17492877 20.2427407,5.54042165 20.3202593,5.88815954 C16.400037,5.69415385 12.9312963,3.78354416 10.6014815,0.873891738 C10.1947222,1.59145299 9.95577778,2.41294587 9.95577778,3.29679772 C9.95577778,4.95753846 10.7969815,6.42903704 12.0504815,7.28127635 C11.2927593,7.26655271 10.5495185,7.04309972 9.92,6.69059829 L9.92,6.7434302 C9.92,9.07323077 11.5547037,11.0080912 13.697537,11.453698 C13.3137778,11.560661 12.8955185,11.6117607 12.4615,11.6117607 C12.1595185,11.6117607 11.8549815,11.5944387 11.5687593,11.5299145 C12.179537,13.4283989 13.9134815,14.824114 15.974537,14.869584 C14.3705,16.1453447 12.3337222,16.9144387 10.1282778,16.9144387 C9.74196296,16.9144387 9.37098148,16.8966838 9,16.8486154 C11.0887407,18.2179145 13.5642222,19 16.2335,19 C24.910037,19 29.654,11.6923077 29.654,5.35767521 C29.654,5.14591453 29.6467593,4.94108262 29.636963,4.73841595 C30.5722963,4.0628604 31.3589815,3.2197151 32,2.24925356" id="Fill-1" fill="#D1B8C7" mask="url(#mask-2)"></path>
                </g>
            </g>
        </g>
    </g>
</svg>