<?xml version="1.0" encoding="UTF-8"?>
<svg width="41px" height="43px" viewBox="0 0 41 43" version="1.1" xmlns="http://www.w3.org/2000/svg" xmlns:xlink="http://www.w3.org/1999/xlink">
    <!-- Generator: Sketch 51.3 (57544) - http://www.bohemiancoding.com/sketch -->
    <title>Avocado Meter</title>
    <desc>Created with Sketch.</desc>
    <defs></defs>
    <g id="The-Corporation-App-(Mobile)" stroke="none" stroke-width="1" fill="none" fill-rule="evenodd">
        <g id="New-User" transform="translate(-203.000000, -1070.000000)" fill="#7ED321">
            <g id="Story_1" transform="translate(-11.000000, 829.000000)">
                <g id="AP&amp;AM" transform="translate(12.000000, 231.000000)">
                    <g id="Avocado-Meter" transform="translate(202.000000, 10.000000)">
                        <path d="M36.413537,36.3414672 C34.6556118,38.7911333 31.360716,40.3002534 27.6035751,40.3770969 C27.5040656,40.3788944 27.4107254,40.3788944 27.3259539,40.3770969 C25.7675047,40.3450788 24.2894857,40.0677008 22.9679857,39.5787787 C23.5798949,39.0412116 24.1239412,38.4465735 24.5884712,37.7993584 C28.417588,32.4646923 27.3196702,24.7840538 24.6790694,19.9044942 C24.1855206,18.9925961 23.6758628,18.2030408 23.1821996,17.4386506 C22.7207543,16.7251523 22.2896987,16.0576029 21.9188516,15.361518 C22.1915602,14.7169991 22.4235967,14.0223747 22.5931399,13.256524 C23.7793709,7.91174694 27.0229697,7.76255379 27.3772509,7.76255379 C27.3812496,7.76255379 27.3849055,7.76356489 27.3879902,7.76356489 L27.4259204,7.77277712 L27.5321705,7.76356489 C27.5375401,7.76356489 27.5424527,7.76255379 27.5486221,7.76255379 C27.9034746,7.76255379 31.1469591,7.91264569 32.3322761,13.256524 C32.8414769,15.5503686 33.9068342,17.1994697 34.9376887,18.7947579 C35.1715532,19.1572927 35.4089594,19.524546 35.6437378,19.905393 C35.879316,20.2862399 36.1113526,20.6791077 36.3353918,21.0919728 C38.6904882,25.4440762 39.4727404,32.0790145 36.413537,36.3414672 M20.500584,38.2921002 C19.766887,38.8121417 18.9372222,39.2444423 18.0330681,39.5792281 C16.7125963,40.0677008 15.2349201,40.3450788 13.6778419,40.3770969 C13.5783324,40.3788944 13.4851065,40.3788944 13.3994209,40.3770969 C9.63953804,40.3002534 6.34464222,38.7911333 4.58580306,36.3414672 C1.52751367,32.0790145 2.31067978,25.4440762 4.66486228,21.0919728 C5.11202672,20.2670291 5.59529334,19.5187041 6.06256532,18.7947579 C7.09341986,17.1994697 8.15877712,15.5503686 8.66797791,13.256524 C9.85283798,7.91174694 13.0967795,7.76255379 13.451632,7.76255379 C13.4578013,7.76255379 13.462714,7.76356489 13.4671696,7.76356489 L13.518581,7.76839569 L13.6144345,7.76255379 C13.650651,7.76086863 17.1557621,7.61875317 18.4066572,13.256524 C18.5766573,14.0223747 18.8086939,14.715988 19.0814025,15.3598328 C19.4884661,16.326555 19.9864706,17.1801465 20.500584,17.9968891 C20.6692132,18.2655042 20.8405844,18.5308612 21.0111558,18.7947579 C21.245363,19.1562816 21.4832261,19.524546 21.7184616,19.905393 C21.9532401,20.2862399 22.1861906,20.6791077 22.4088588,21.0919728 C24.763841,25.4440762 25.5475784,32.0790145 22.4878038,36.3414672 C21.9558678,37.0822651 21.2837501,37.7370073 20.500584,38.2921002 M38.6048027,19.9044942 C38.1120535,18.9925961 37.601139,18.2030408 37.1074759,17.4386506 C36.1145515,15.9008827 35.2563248,14.5734232 34.8444628,12.7180581 C33.9710412,8.7789321 32.0613955,6.95502342 30.6150231,6.11828354 C29.1328912,5.26289452 27.8150471,5.22818015 27.4629365,5.23615659 C27.110369,5.22818015 25.7925249,5.26289452 24.311764,6.11828354 C23.0644105,6.83885948 21.4747718,8.29281859 20.500584,11.2000628 C19.5250252,8.29281859 17.9353865,6.83885948 16.6884901,6.11828354 C15.8896721,5.65654873 15.1389522,5.43399479 14.5615457,5.32782949 L14.5610887,5.32782949 C14.0489175,2.33014822 11.252369,0.693292683 9.90013642,0.0668612183 C9.51763603,-0.110417988 9.06338826,0.0786573632 8.92309242,0.470851094 L8.56983937,1.45880631 C8.43434192,1.83774343 8.6060558,2.25577633 8.97130483,2.43552711 C9.88802619,2.88647688 11.5000574,3.88094806 11.9512205,5.45859818 C11.4813208,5.58902984 10.9448149,5.79484448 10.385231,6.11828354 C8.93885856,6.95502342 7.0292128,8.7789321 6.15579122,12.7174964 C5.74392924,14.5734232 4.88570256,15.9008827 3.89277817,17.4386506 C3.39865804,18.2030408 2.88820053,18.9925961 2.39545138,19.9044942 C-0.245149425,24.7840538 -1.34295296,32.4646923 2.48513561,37.7993584 C4.71250346,40.9019691 8.77319979,42.8109224 13.3498375,42.9052916 C13.4114169,42.9061903 13.4729962,42.9069767 13.5390312,42.9069767 C13.6015246,42.9069767 13.663104,42.9061903 13.7283392,42.9052916 C16.2069372,42.8539503 18.5347285,42.2698726 20.500584,41.2516968 C22.4673535,42.270659 24.7959446,42.8539503 27.2751137,42.9052916 C27.3366931,42.9061903 27.3991865,42.9069767 27.4643075,42.9069767 C27.5272578,42.9069767 27.5888372,42.9061903 27.6539582,42.9052916 C32.22694,42.8109224 36.2872936,40.9019691 38.5137475,37.7993584 C40.2827546,35.3351999 41,32.3712219 41,29.4138722 C41,25.967151 40.0256979,22.5305408 38.6048027,19.9044942" id="Fill-1"></path>
                        <path d="M17.8016969,33.782346 C17.2015535,34.5141362 16.4628981,35.0609885 15.6426458,35.3485182 C15.2156142,35.4995622 14.7657039,35.579975 14.3026073,35.579975 C11.495176,35.579975 9.21068654,32.6387104 9.21068654,29.0240032 C9.21068654,25.2229931 11.685306,21.6292136 14.3026073,21.6292136 C14.9224737,21.6292136 15.5335493,21.8305298 16.1058551,22.1881221 C16.8489058,22.6525143 17.5260254,23.38021 18.0706062,24.2732808 C18.878912,25.5994658 19.3936265,27.2904086 19.3936265,29.0240032 C19.3936265,30.8957894 18.7816493,32.5867322 17.8016969,33.782346 M19.8315903,22.321423 C19.6255692,22.0295713 19.4098557,21.7559177 19.183999,21.5004622 C18.573825,20.8042719 17.8998612,20.2488893 17.1830702,19.8471666 C16.2775017,19.3358006 15.3037479,19.0697674 14.3026073,19.0697674 C12.2197435,19.0697674 10.2557813,20.2238669 8.77351167,22.321423 C7.43955916,24.2069715 6.6744186,26.6501774 6.6744186,29.0240032 C6.6744186,31.4120461 7.43786861,33.6676981 8.82456612,35.3760428 C10.2707708,37.1580897 12.2162497,38.1395349 14.3026073,38.1395349 C15.1575722,38.1395349 15.9892075,37.9746148 16.7714789,37.6573995 C17.5414657,37.3459849 18.2643426,36.8870521 18.9181326,36.2912924 C19.2214164,36.0149091 19.5098233,35.7096363 19.7809867,35.3760428 C21.1668953,33.6676981 21.9302326,31.4120461 21.9302326,29.0240032 C21.9297817,26.6501774 21.1659936,24.2069715 19.8315903,22.321423" id="Fill-3"></path>
                    </g>
                </g>
            </g>
        </g>
    </g>
</svg>