<?xml version="1.0" encoding="UTF-8"?>
<svg width="60px" height="42px" viewBox="0 0 60 42" version="1.1" xmlns="http://www.w3.org/2000/svg" xmlns:xlink="http://www.w3.org/1999/xlink">
    <!-- Generator: Sketch 51.3 (57544) - http://www.bohemiancoding.com/sketch -->
    <title>Comments</title>
    <desc>Created with Sketch.</desc>
    <defs></defs>
    <g id="The-Corporation-App-(Mobile)" stroke="none" stroke-width="1" fill="none" fill-rule="evenodd">
        <g id="Returning-User-(After-Sign-In)" transform="translate(-46.000000, -585.000000)">
            <g id="Comments_large" transform="translate(38.000000, 554.000000)">
                <g id="Comments" transform="translate(9.000000, 32.000000)">
                    <path d="M45.0343732,38.2292502 C39.0528228,38.2292502 34.375989,33.6642104 33.9001512,27.3693685 C33.2746546,17.9275709 36.9393736,8.69234467 43.9320795,2.09415934 C44.1786325,2.3342287 44.4702751,2.61617062 44.89143,3.03489624 C45.3998857,3.53271448 46.0944555,4.22035501 47.1507004,5.24390653 C43.1281437,11.2530845 43.8841119,15.5371129 44.2160472,16.1503133 C44.3791368,16.4452822 44.6938038,16.632313 45.0382106,16.6388265 C51.18381,16.6388265 56.1666765,21.4709202 56.1666765,27.4326426 C56.1666765,33.394365 51.18381,38.2264587 45.0382106,38.2264587 L45.0343732,38.2292502 Z M45.786504,14.8857619 C45.6675445,13.6547086 45.7577235,10.2965291 49.0713202,5.63471712 C49.3197919,5.28205709 49.2737431,4.80750138 48.9619542,4.50508843 C47.612148,3.19680348 46.7794318,2.36493524 46.1903906,1.79360739 C45.4229102,1.02873525 45.0679505,0.682588735 44.5546979,0.230365061 C44.2131692,-0.0711173886 43.6922418,-0.0776308983 43.3420789,0.21640754 C35.51186,7.18027992 31.3684252,17.2175984 32.0783445,27.4987082 C32.624215,34.7426615 38.0742852,39.9999943 45.0295765,39.9999943 C52.1853719,40.0065079 57.9923206,34.3862795 57.9999954,27.4447391 C58.0057515,20.7776967 52.6449008,15.266337 45.7817073,14.8857619 L45.786504,14.8857619 Z" id="Fill-1" fill="#F8E71C"></path>
                    <path d="M45.0343732,38.2292502 C39.0528228,38.2292502 34.375989,33.6642104 33.9001512,27.3693685 C33.2746546,17.9275709 36.9393736,8.69234467 43.9320795,2.09415934 C44.1786325,2.3342287 44.4702751,2.61617062 44.89143,3.03489624 C45.3998857,3.53271448 46.0944555,4.22035501 47.1507004,5.24390653 C43.1281437,11.2530845 43.8841119,15.5371129 44.2160472,16.1503133 C44.3791368,16.4452822 44.6938038,16.632313 45.0382106,16.6388265 C51.18381,16.6388265 56.1666765,21.4709202 56.1666765,27.4326426 C56.1666765,33.394365 51.18381,38.2264587 45.0382106,38.2264587 L45.0343732,38.2292502 Z M45.786504,14.8857619 C45.6675445,13.6547086 45.7577235,10.2965291 49.0713202,5.63471712 C49.3197919,5.28205709 49.2737431,4.80750138 48.9619542,4.50508843 C47.612148,3.19680348 46.7794318,2.36493524 46.1903906,1.79360739 C45.4229102,1.02873525 45.0679505,0.682588735 44.5546979,0.230365061 C44.2131692,-0.0711173886 43.6922418,-0.0776308983 43.3420789,0.21640754 C35.51186,7.18027992 31.3684252,17.2175984 32.0783445,27.4987082 C32.624215,34.7426615 38.0742852,39.9999943 45.0295765,39.9999943 C52.1853719,40.0065079 57.9923206,34.3862795 57.9999954,27.4447391 C58.0057515,20.7776967 52.6449008,15.266337 45.7817073,14.8857619 L45.786504,14.8857619 Z" id="Stroke-3" stroke="#F8E71C"></path>
                    <path d="M13.0331181,38.2291575 C7.05851295,38.2291575 2.37493661,33.6638789 1.89919344,27.3687076 C1.27286222,17.9264159 4.93877022,8.69070641 11.9291254,2.09217581 C12.1823435,2.33225773 12.4672139,2.6179366 12.888285,3.03296194 C13.3966396,3.53545898 14.0910712,4.22313549 15.1403918,5.24208782 C11.1186355,11.256233 11.8792491,15.5358328 12.2072817,16.1490653 C12.3703388,16.4449802 12.6849432,16.6320208 13.0302406,16.6376041 C19.1746171,16.6376041 24.156492,21.4699506 24.156492,27.431985 C24.156492,33.3940193 19.1746171,38.2263659 13.0302406,38.2263659 L13.0331181,38.2291575 Z M13.7841401,14.8844477 C13.6652043,13.6579827 13.7515287,10.3052108 17.0683026,5.63291886 C17.3167249,5.28024038 17.2706852,4.80565984 16.9589584,4.50323106 C15.6151758,3.20046095 14.7759111,2.37227138 14.1927421,1.79160813 C13.416782,1.03134872 13.0657295,0.68053134 12.5525792,0.228284002 C12.2092,-0.0704225732 11.6912538,-0.0769364237 11.3392423,0.214325751 C3.51058158,7.17856254 -0.632987909,17.2164062 0.0787085164,27.498054 C0.62447033,34.7423864 6.07345603,39.9999943 13.0331181,39.9999943 C20.1874896,40.0065082 25.9932827,34.3850552 25.9999968,27.4431516 C26.0047926,20.7766908 20.6450087,15.2650427 13.7841401,14.8844477 Z" id="Fill-5" fill="#F8E71C"></path>
                    <path d="M13.0331181,38.2291575 C7.05851295,38.2291575 2.37493661,33.6638789 1.89919344,27.3687076 C1.27286222,17.9264159 4.93877022,8.69070641 11.9291254,2.09217581 C12.1823435,2.33225773 12.4672139,2.6179366 12.888285,3.03296194 C13.3966396,3.53545898 14.0910712,4.22313549 15.1403918,5.24208782 C11.1186355,11.256233 11.8792491,15.5358328 12.2072817,16.1490653 C12.3703388,16.4449802 12.6849432,16.6320208 13.0302406,16.6376041 C19.1746171,16.6376041 24.156492,21.4699506 24.156492,27.431985 C24.156492,33.3940193 19.1746171,38.2263659 13.0302406,38.2263659 L13.0331181,38.2291575 Z M13.7841401,14.8844477 C13.6652043,13.6579827 13.7515287,10.3052108 17.0683026,5.63291886 C17.3167249,5.28024038 17.2706852,4.80565984 16.9589584,4.50323106 C15.6151758,3.20046095 14.7759111,2.37227138 14.1927421,1.79160813 C13.416782,1.03134872 13.0657295,0.68053134 12.5525792,0.228284002 C12.2092,-0.0704225732 11.6912538,-0.0769364237 11.3392423,0.214325751 C3.51058158,7.17856254 -0.632987909,17.2164062 0.0787085164,27.498054 C0.62447033,34.7423864 6.07345603,39.9999943 13.0331181,39.9999943 C20.1874896,40.0065082 25.9932827,34.3850552 25.9999968,27.4431516 C26.0047926,20.7766908 20.6450087,15.2650427 13.7841401,14.8844477 Z" id="Stroke-7" stroke="#F8E71C"></path>
                </g>
            </g>
        </g>
    </g>
</svg>