<?xml version="1.0" encoding="UTF-8"?>
<svg width="51px" height="53px" viewBox="0 0 51 53" version="1.1" xmlns="http://www.w3.org/2000/svg" xmlns:xlink="http://www.w3.org/1999/xlink">
    <!-- Generator: Sketch 51.3 (57544) - http://www.bohemiancoding.com/sketch -->
    <title>Avocado_large</title>
    <desc>Created with Sketch.</desc>
    <defs></defs>
    <g id="The-Corporation-App-(Mobile)" stroke="none" stroke-width="1" fill="none" fill-rule="evenodd">
        <g id="Returning-User-(After-Sign-In)" transform="translate(-282.000000, -581.000000)" fill="#7ED321">
            <g id="Avocado-Meter_large" transform="translate(257.000000, 554.000000)">
                <g id="Avocado_large" transform="translate(25.000000, 27.000000)">
                    <path d="M45.2948875,44.8900833 C43.1082001,47.9159852 39.0096711,49.7800962 34.3361544,49.8750156 C34.2123743,49.8772359 34.0962682,49.8772359 33.9908206,49.8750156 C32.0522619,49.8354659 30.2137505,49.4928402 28.5699335,48.8889088 C29.3310888,48.2248895 30.0078293,47.4903745 30.5856593,46.6909147 C35.3487071,40.1013733 33.9830044,30.6140155 30.6983547,24.5866354 C30.084428,23.4602311 29.4504635,22.4849485 28.8363947,21.5407505 C28.2624017,20.6594158 27.7262106,19.8348385 27.2649129,18.9750133 C27.6041359,18.178884 27.8927667,17.3208628 28.1036618,16.3748608 C29.5792175,9.77282996 33.6139379,9.58854206 34.0546292,9.58854206 C34.0596032,9.58854206 34.0641508,9.589791 34.0679878,9.589791 L34.1151692,9.60117022 L34.247334,9.589791 C34.2540133,9.589791 34.2601241,9.58854206 34.2677982,9.58854206 C34.7092001,9.58854206 38.7437784,9.77394013 40.2181972,16.3748608 C40.8515933,19.2082873 42.1767938,21.245307 43.4590762,23.2158554 C43.7499808,23.6636694 44.0452909,24.1173119 44.3373324,24.5877456 C44.6303687,25.0581793 44.9189995,25.5434615 45.1976824,26.053445 C48.1271927,31.4292952 49.100238,39.6249724 45.2948875,44.8900833 M25.5007265,47.2995644 C24.588079,47.9419354 23.5560569,48.4759263 22.4313774,48.8894639 C20.7888393,49.4928402 18.9507542,49.8354659 17.0139009,49.8750156 C16.8901207,49.8772359 16.7741568,49.8772359 16.6675723,49.8750156 C11.9906449,49.7800962 7.89211593,47.9159852 5.70429162,44.8900833 C1.90007798,39.6249724 2.87426022,31.4292952 5.80263357,26.053445 C6.3588625,25.0344495 6.95999903,24.1100958 7.54123978,23.2158554 C8.82352226,21.245307 10.1487228,19.2082873 10.7821189,16.3748608 C12.2559692,9.77282996 16.2911159,9.58854206 16.7325178,9.58854206 C16.7401919,9.58854206 16.7463027,9.589791 16.7518451,9.589791 L16.8157958,9.59575815 L16.9350283,9.58854206 C16.980078,9.58646049 21.3400943,9.41091516 22.8960857,16.3748608 C23.1075494,17.3208628 23.3961802,18.177635 23.7354031,18.9729317 C24.2417505,20.1670563 24.8612195,21.2214384 25.5007265,22.2303036 C25.7104847,22.5621051 25.9236537,22.8898823 26.1358279,23.2158554 C26.4271589,23.6624205 26.7230374,24.1173119 27.0156474,24.5877456 C27.3076889,25.0581793 27.5974566,25.5434615 27.8744341,26.053445 C30.8038023,31.4292952 31.7786951,39.6249724 27.972634,44.8900833 C27.3109574,45.8051394 26.4749087,46.6138968 25.5007265,47.2995644 M48.0206082,24.5866354 C47.4076763,23.4602311 46.7721485,22.4849485 46.1580798,21.5407505 C44.9229787,19.6412529 43.8554284,18.0015346 43.3431123,15.7097314 C42.2566611,10.8440034 39.881248,8.59105603 38.0821018,7.55748953 C36.2384744,6.50088705 34.5992049,6.45800681 34.1612137,6.46785955 C33.7226541,6.45800681 32.0833846,6.50088705 30.2414625,7.55748953 C28.6898765,8.4475668 26.7125211,10.2435412 25.5007265,13.8346575 C24.2872265,10.2435412 22.309871,8.4475668 20.7588535,7.55748953 C19.7652018,6.98714068 18.8313796,6.7122353 18.1131422,6.5810967 L18.1125738,6.5810967 C17.4754828,2.8782698 13.9968492,0.856376166 12.3148038,0.0825890063 C11.8390107,-0.13639165 11.2739708,0.0971599625 11.0994564,0.581609563 L10.6600441,1.80196184 C10.4914985,2.27003646 10.7050938,2.78640339 11.159428,3.00843701 C12.2997399,3.56546385 14.3049494,4.79386484 14.8661523,6.74262615 C14.281643,6.9037393 13.6142819,7.15796779 12.9182142,7.55748953 C11.119068,8.59105603 8.74365495,10.8440034 7.65720371,15.7090375 C7.14488759,18.0015346 6.07733733,19.6412529 4.84223626,21.5407505 C4.22759903,22.4849485 3.59263969,23.4602311 2.97970781,24.5866354 C-0.304941967,30.6140155 -1.67050246,40.1013733 3.09126624,46.6909147 C5.86189455,50.5233538 10.9130046,52.8813508 16.6058954,52.9979184 C16.6824942,52.9990286 16.7590929,53 16.841234,53 C16.9189696,53 16.9955683,52.9990286 17.0767147,52.9979184 C20.1598487,52.9345001 23.055394,52.2130296 25.5007265,50.9553479 C27.9471958,52.214001 30.8437359,52.9345001 33.9275805,52.9979184 C34.0041792,52.9990286 34.0819149,53 34.1629191,53 C34.2412231,53 34.3178219,52.9990286 34.3988261,52.9979184 C40.0871693,52.8813508 45.137853,50.5233538 47.9073444,46.6909147 C50.1078168,43.6471114 51,39.9859158 51,36.3329077 C51,32.0754131 49.7880633,27.8304078 48.0206082,24.5866354" id="Fill-1"></path>
                    <path d="M21.1288314,41.5163184 C20.4207354,42.4373032 19.5492121,43.1255368 18.5814144,43.4874034 C18.0775692,43.6774979 17.5467299,43.7787003 17.0003324,43.7787003 C13.6879059,43.7787003 10.9924869,40.0770112 10.9924869,35.5277698 C10.9924869,30.7440595 13.912236,26.2211566 17.0003324,26.2211566 C17.7316992,26.2211566 18.4526939,26.4745205 19.1279449,26.9245634 C20.0046542,27.509018 20.8035726,28.4248497 21.4461116,29.5488119 C22.3998138,31.2178643 23.0071142,33.3459777 23.0071142,35.5277698 C23.0071142,37.8834812 22.2850557,40.0115946 21.1288314,41.5163184 M23.5238581,27.0923275 C23.2807784,26.7250215 23.0262627,26.3806184 22.7597793,26.0591182 C22.0398484,25.1829373 21.2446533,24.4839679 20.3989273,23.9783853 C19.330467,23.3348125 18.1815563,23 17.0003324,23 C14.5428071,23 12.2255712,24.4524764 10.4766738,27.0923275 C8.90277254,29.4653593 8,32.5402233 8,35.5277698 C8,38.5332093 8.90077791,41.3720298 10.5369119,43.5220441 C12.243257,45.7648153 14.5386849,47 17.0003324,47 C18.0090867,47 18.9903149,46.792442 19.9132998,46.393215 C20.8217903,46.0012883 21.6746969,45.4237046 22.4460894,44.6739193 C22.8039272,44.3260807 23.1442122,43.9418838 23.4641519,43.5220441 C25.0993551,41.3720298 26,38.5332093 26,35.5277698 C25.9994681,32.5402233 25.0982913,29.4653593 23.5238581,27.0923275" id="Fill-3"></path>
                </g>
            </g>
        </g>
    </g>
</svg>