
<svg width="49px" height="40px" viewBox="0 0 49 40" version="1.1" xmlns="http://www.w3.org/2000/svg" xmlns:xlink="http://www.w3.org/1999/xlink">
    <defs>
        <polygon id="path-1" points="0 46 39 46 39 0 0 0"></polygon>
    </defs>
    <g id="The-Corporation-App-(375x667-Mobile)" stroke="none" stroke-width="1" fill="none" fill-rule="evenodd">
        <g id="New-User" transform="translate(-21.000000, -18.000000)">
            <rect fill="#FFFFFF" x="0" y="0" width="375" height="2339"></rect>
            <g id="Menu-bar" transform="translate(21.000000, 18.000000)">
                <g id="Menu" transform="translate(0.000000, 9.000000)" stroke="#979797" stroke-linecap="square">
                    <line x1="0.5" y1="1.5" x2="24.5" y2="1.5" id="Line" fill-rule="nonzero"></line>
                    <line x1="0.5" y1="10.25" x2="24.5" y2="10.25" id="Line-Copy" fill-rule="nonzero"></line>
                    <line x1="0.5" y1="20.25" x2="24.5" y2="20.25" id="Line-Copy-2" fill-rule="nonzero"></line>
                </g>
                <g id="Devi-Logo-Small" transform="translate(19.000000, 0.000000)">
                    <path d="M13.5562982,24.1339723 L13.0346526,23.9358431 L13.0594068,23.9167819 L13.1204578,23.718787 C13.2223949,23.7795949 13.3272525,23.820402 13.3908068,23.7795949 C13.4731353,23.8571821 13.5562982,23.8963784 13.6605995,23.9167819 L13.5562982,24.1339723 Z M21.1914318,5.9894499 L21.1914318,5.95280406 C21.3798694,5.77521269 21.5474469,5.6173537 21.6714959,5.42258039 L20.9637768,4.9549097 C21.0024378,4.30843952 20.9002225,3.80130408 20.6500384,3.43216102 C20.0288199,3.09563678 19.3209617,2.94193903 18.4673598,3.01992889 C18.1150996,3.43216102 17.7618658,3.91983256 17.4699612,4.48616513 L16.5336137,4.8763829 C16.6993832,5.16941537 16.9484547,5.36526254 17.3219924,5.5035234 L17.3219924,5.5396323 C17.3219924,5.93427979 17.3219924,6.34315607 17.3664943,6.7324342 C17.4261547,7.18211757 17.5314295,7.59434969 17.7364163,7.98335936 C17.7618658,7.98335936 17.7810572,8.0045683 17.8015003,8.04309342 C17.8649155,8.12215715 17.9270791,8.25894143 17.9048281,8.37653027 L17.9048281,8.41371305 C17.8649155,8.43304272 17.8428036,8.47411828 17.8015003,8.49452182 C17.6333666,8.65130695 17.5090394,8.80393082 17.447154,9.01897343 C17.0932249,9.15777122 16.782407,9.33469142 16.509972,9.47201264 C16.2609005,9.62490499 15.9674662,9.76330007 15.6595687,9.89981589 C15.3653,10.0353921 15.0757596,10.330438 14.824602,10.8194519 L14.824602,10.8367681 C14.7006921,11.2304759 14.5987549,11.6790854 14.5332537,12.1668912 C14.4936192,12.6757717 14.3877882,13.1469325 14.1814106,13.5546006 C14.0352498,13.9072329 13.8698974,14.31772 13.704406,14.7680746 C13.53363,15.1782932 13.4731353,15.6274396 13.53363,16.0951103 C13.4962206,16.116722 13.4731353,16.1563209 13.4519969,16.176456 C13.434057,16.2147127 13.3908068,16.255117 13.368973,16.2908232 C13.3493644,16.4698912 13.3070876,16.7025184 13.2474272,17.036358 C13.1835948,17.4837594 13.1204578,17.9755922 13.0594068,18.5401797 C12.9937665,19.087988 12.9774955,19.6160639 12.9937665,20.1229309 C12.9937665,20.6124817 12.9937665,21.0832398 12.9774955,21.5350709 L12.9774955,21.5893014 C13.0146267,21.6110473 13.0346526,21.6272895 13.0797107,21.6272895 C12.9334108,21.9611291 12.767085,22.3133587 12.5566745,22.6473325 C12.5166228,22.7054557 12.4746241,22.7627736 12.4536248,22.8235815 C12.2461347,23.0376845 12.2909147,23.2520559 12.5566745,23.4852201 C12.5566745,23.4852201 12.5807333,23.4852201 12.5807333,23.5048183 C12.5807333,23.5450884 12.5807333,23.5858955 12.5566745,23.6249576 L12.5566745,23.7402644 L11.9303104,23.5034759 L10.410988,23.5786469 L9,29.3536551 L13.2546588,30.6472667 L14.6592497,30.6610927 L15.7633138,25.2447573 L13.8885326,24.3278059 L14.0352498,23.5450884 C14.0766921,23.5048183 14.0766921,23.467904 14.1006119,23.4270969 L14.1167438,23.4270969 C13.9748941,23.3308512 13.8698974,23.1763481 13.8068994,22.958755 L13.7238756,22.9986225 C13.7451531,22.958755 13.7639273,22.9360695 13.7639273,22.8992894 C13.9527822,22.607465 14.0146676,22.2744309 13.9748941,21.8848843 C14.1362134,21.8848843 14.2871026,21.8658231 14.43229,21.8266268 L14.4535675,21.8266268 C14.5332537,21.3747957 14.6592497,20.9460528 14.8458795,20.5154307 C15.0147085,20.0657473 15.1587834,19.6160639 15.2445886,19.1681256 C15.2822761,18.892812 15.3653,18.6384389 15.4289933,18.4040666 C15.4906006,18.2090248 15.5548502,18.0135803 15.6156231,17.8373313 L15.6380131,17.8175989 C15.6156231,18.0135803 15.6156231,18.2090248 15.5936503,18.4040666 L15.5135469,18.4040666 C15.4721045,18.7354899 15.4289933,19.0501341 15.3903323,19.3224945 C15.3903323,19.34169 15.3903323,19.3820943 15.4110535,19.4216933 C15.4110535,19.4415599 15.4110535,19.4814274 15.4289933,19.4988778 C15.4289933,19.5192813 15.4289933,19.5584776 15.4110535,19.5778073 C15.3653,20.0276249 15.3264999,20.4579786 15.2619722,20.8877953 C15.2003649,21.3573453 15.1587834,21.8413925 15.180339,22.3524208 C15.180339,22.5289383 15.2003649,22.7054557 15.2003649,22.8421058 C15.2003649,22.8614355 15.2003649,22.8992894 15.221086,22.8992894 C15.5765449,23.1763481 15.9254675,23.3688394 16.2834296,23.4852201 L16.3023429,23.4852201 C16.3023429,23.604554 16.2834296,23.6822754 16.2609005,23.7402644 L16.2609005,23.820402 L17.0104792,26.2226508 C17.0289753,26.397826 17.0932249,26.5944786 17.1380049,26.811132 C17.2385514,27.2005443 17.4066851,27.5914333 17.5714812,27.926481 C17.7618658,28.2764286 17.9906333,28.627987 18.2580619,28.9803508 C18.447473,29.2543221 18.591826,29.5461465 18.6930678,29.8583744 L18.6930678,29.9190481 C18.6769359,30.3664495 18.5722174,30.7806951 18.3636148,31.1129238 C18.2796175,31.2276938 18.2580619,31.3472961 18.2580619,31.4447499 C18.2580619,31.5035443 18.2580619,31.5792522 18.3018684,31.6180458 C18.2796175,31.7584544 18.2580619,31.8924198 18.2580619,32.0704138 C18.2362281,32.5778177 18.219679,33.0862955 18.1982625,33.6127606 C18.1775413,34.12097 18.1569591,34.6487774 18.1569591,35.1560471 C18.1569591,35.6460006 18.1569591,36.0976975 18.1150996,36.5275142 C18.2362281,36.6265788 18.3832234,36.6813462 18.5487148,36.7021525 C18.3636148,36.9750499 18.2580619,37.2507662 18.2362281,37.563531 L18.2362281,37.622057 C18.1982625,37.6412524 18.1775413,37.6793748 18.1569591,37.7185711 C17.9471049,38.0320071 17.7810572,38.3627593 17.695113,38.6939142 C17.6803717,38.7347213 17.6571473,38.776468 17.6571473,38.7944553 C17.4261547,39.085877 17.3431308,39.3801176 17.447154,39.6552969 C17.7618658,39.9864518 18.219679,40.0817579 18.8189248,39.9292682 C19.3831253,39.8106055 19.7132737,39.5183784 19.7999133,39.0303042 C19.9018504,38.5595461 20.0471769,38.128387 20.3001423,37.7975006 C20.5255722,37.4474188 20.488441,37.1310296 20.2137809,36.8582664 C20.1962582,36.8381314 20.1520345,36.8179963 20.1520345,36.8001432 L20.3796895,36.8001432 C20.4451907,36.3119347 20.5486576,35.8237262 20.6500384,35.3528339 C20.6725675,35.1957803 20.7154006,35.0395321 20.7580946,34.8442219 C21.1914318,34.8656993 21.4837535,34.6667648 21.6714959,34.2581569 C21.795684,33.9260624 21.8369873,33.5370528 21.795684,33.0646839 C21.7780223,32.9507193 21.795684,32.8721926 21.8560397,32.7920549 C22.1693608,32.3999579 22.3789369,31.9906789 22.4797615,31.5615333 C22.5245415,31.2875621 22.4205183,31.1129238 22.1693608,31.0123827 C22.1693608,30.9931873 22.1917508,30.9366748 22.2106641,30.9149289 C22.1063628,30.8782831 22.0270938,30.8169382 21.9627051,30.7410961 C21.7780223,30.486186 21.588333,30.2299336 21.4007297,29.9381093 L21.4007297,29.9190481 C21.4421721,29.5288303 21.5058654,29.1359279 21.6083588,28.7470524 C21.6929124,28.4334822 21.7566057,28.1000453 21.795684,27.7690247 C21.8164052,27.6117026 21.8560397,27.4559913 21.8560397,27.2981323 C21.8999853,26.7912654 21.9849561,26.3027884 22.0880058,25.8335069 C22.1917508,25.3423453 22.2761653,24.8727953 22.3351303,24.4052589 C22.3591891,24.1339723 22.3789369,23.880673 22.3591891,23.6249576 C22.5245415,23.5858955 22.6933705,23.5260272 22.8385579,23.4485743 C22.8385579,23.0756727 22.8798613,22.7054557 22.9384091,22.3718847 C23.1257342,22.3133587 23.3369791,22.2744309 23.5434957,22.2565778 C23.3965004,21.8032701 23.3148672,21.3365391 23.2510348,20.8877953 C23.2097315,20.4362327 23.1727393,20.0080267 23.1077944,19.5960631 L23.3148672,19.5960631 C23.3148672,19.1882607 23.2720342,18.7950898 23.1908182,18.4437998 L23.1908182,18.4040666 L23.1727393,18.4040666 L23.1257342,18.4040666 C23.0457699,17.9547859 23.0240752,17.5233584 23.1077944,17.0935416 C23.1474289,16.9762212 23.1474289,16.8597063 23.1727393,16.7423859 C23.2510348,16.8993052 23.3965004,17.0191761 23.6066327,17.0935416 C23.5650513,17.2516691 23.5434957,17.3880506 23.5434957,17.5438961 C23.5211057,18.0135803 23.6066327,18.462861 23.7334631,18.8740193 C23.8762864,19.3224945 23.9836472,19.7743256 24.0438638,20.2205189 C24.1291127,20.6915454 24.1684691,21.1428396 24.1894684,21.6272895 L24.2737439,21.6272895 C24.2510757,21.6676939 24.231328,21.6907822 24.231328,21.727428 C24.2094943,21.7872963 24.1894684,21.8266268 24.1894684,21.8658231 C24.1481651,21.9242148 24.1481651,21.9815327 24.1481651,22.0193866 C24.1291127,22.078718 24.0855843,22.1181827 24.0200831,22.1561709 C24.0001963,22.1561709 23.9836472,22.1561709 23.9836472,22.176306 C23.9836472,22.2161734 23.9376155,22.23604 23.9173116,22.2565778 C23.8762864,22.2947002 23.8762864,22.3316145 23.8762864,22.3718847 C23.8576512,22.4116179 23.8576512,22.4532304 23.8576512,22.510414 C23.8349831,22.5673291 23.8349831,22.6284055 23.816487,22.667736 C23.816487,22.6878711 23.7939579,22.7054557 23.816487,22.7426385 C23.816487,22.7627736 23.816487,22.7827744 23.8349831,22.8045203 C23.8349831,22.8045203 23.8576512,22.8235815 23.8762864,22.8421058 C23.8576512,22.8421058 23.8349831,22.8421058 23.8349831,22.8614355 C23.7939579,22.958755 23.7711507,23.0376845 23.7711507,23.1548706 C23.7939579,23.1924561 23.816487,23.2520559 23.816487,23.2896414 C23.8349831,23.3512548 23.8762864,23.3903168 23.9173116,23.467904 C23.9836472,23.5450884 24.0438638,23.5858955 24.1684691,23.5858955 C24.231328,23.5858955 24.2510757,23.5450884 24.2510757,23.5048183 C24.2737439,23.4852201 24.2909884,23.4852201 24.2909884,23.467904 L24.2909884,23.4485743 C24.3325698,23.5450884 24.3557942,23.6249576 24.3964022,23.7009339 C24.3964022,23.718787 24.3964022,23.718787 24.4194876,23.718787 C24.4600955,23.7402644 24.5018161,23.7608022 24.5018161,23.820402 L24.5425631,23.820402 C24.6497849,23.820402 24.7101405,23.7608022 24.747689,23.6632142 L24.7756418,23.6422737 C24.8973266,23.6822754 25.0208194,23.6632142 25.0845127,23.5858955 C25.1048167,23.5858955 25.12373,23.5450884 25.12373,23.5450884 C25.1459809,23.5260272 25.1459809,23.5260272 25.1675365,23.5260272 C25.1459809,23.467904 25.1675365,23.4270969 25.2287266,23.4107203 L25.2287266,23.3903168 C25.3125849,23.3512548 25.3960259,23.3308512 25.4784935,23.2896414 C25.4784935,23.2732649 25.4996319,23.2520559 25.4996319,23.2520559 C25.5199359,23.2370218 25.542604,23.2370218 25.542604,23.2125912 C25.5615173,23.1924561 25.5841855,23.1924561 25.5841855,23.1548706 C25.6044895,23.1548706 25.6044895,23.1339302 25.6044895,23.1150032 C25.707261,22.958755 25.8105888,22.8421058 25.8746994,22.724517 C25.8940299,22.7054557 25.8940299,22.7054557 25.8940299,22.6878711 L25.8940299,22.6473325 L25.8940299,22.607465 C25.8940299,22.5289383 25.8746994,22.4532304 25.8746994,22.3718847 L25.8746994,22.3524208 C25.8537,22.3133587 25.8537,22.2744309 25.8537,22.2565778 C25.8335351,22.1561709 25.7916755,22.078718 25.7513457,22.0193866 C25.707261,22.0015335 25.707261,21.9815327 25.6875133,21.9611291 C25.6875133,21.9242148 25.6683219,21.8658231 25.64621,21.8266268 C25.6245153,21.8266268 25.6044895,21.7872963 25.6044895,21.7652819 C25.6044895,21.727428 25.5841855,21.6907822 25.542604,21.6272895 C25.542604,21.6272895 25.542604,21.5893014 25.5199359,21.5725221 L25.5199359,21.5499709 C25.6683219,21.5350709 25.8105888,21.5106403 26,21.4941296 C26,21.0044445 26,20.5335522 25.9382536,20.0865535 C25.8940299,19.8135219 25.8746994,19.5192813 25.8537,19.2234299 C25.7916755,18.7354899 25.707261,18.2668796 25.6044895,17.8175989 C25.542604,17.5438961 25.4996319,17.2692537 25.4784935,16.9558177 L25.4784935,16.7025184 L25.4784935,16.645469 C25.4784935,16.3506915 25.4784935,16.0587329 25.4996319,15.7679824 L25.4996319,15.7067718 C25.3743312,15.3146748 25.1889531,14.943384 24.9578214,14.6502173 L24.9578214,14.5722274 C24.9578214,14.0663 24.938769,13.5735276 24.9187431,13.0867957 C24.8754929,12.5796603 24.7935816,12.112258 24.6497849,11.6953277 C24.5018161,11.3287351 24.3557942,10.9969091 24.1894684,10.7224009 C24.1894684,10.6795803 24.1684691,10.6629353 24.1481651,10.6425317 L24.1481651,10.5060159 C24.1070009,10.2740598 24.0438638,10.0964685 23.9836472,9.93847524 L23.9376155,9.93847524 C23.7334631,9.8586061 23.5026096,9.78383785 23.2510348,9.72396956 C22.7530309,9.58772221 22.3151045,9.42972898 21.8999853,9.2580439 C21.8560397,9.23670072 21.8369873,9.2144179 21.795684,9.19414859 C21.4421721,9.04125625 21.0687734,8.80393082 20.7354264,8.55090003 C20.6939841,8.37653027 20.6110993,8.25894143 20.4451907,8.20001278 C20.488441,7.82818504 20.5255722,7.43649069 20.5486576,7.04694409 L20.5486576,7.02734595 C20.9637768,6.96653802 21.1730747,6.67578752 21.1914318,6.14623502 L21.1914318,5.9894499 L21.1914318,5.9894499 Z" id="Fill-1" fill="#691446"></path>
                    <path d="M17.4268339,0.422638435 C18.4864818,0.239689116 19.7350084,0.32357538 20.6836852,0.616993342 C19.6461244,0.735280332 18.4144643,0.651394069 17.4268339,0.422638435 M20.722505,0.300580242 C19.6461244,-0.0348728332 18.1202367,-0.126393483 17.00517,0.216785958 C16.9995479,0.384558486 16.960728,0.594182165 17.2271125,0.697108403 C18.2756499,0.986847143 19.5462637,1.0669622 20.7391039,0.944995992 C20.9611802,0.910595265 20.994244,0.750457124 21,0.616993342 C20.9888895,0.487484724 20.8888949,0.372968936 20.722505,0.300580242" id="Fill-3" fill="#000000"></path>
                    <path d="M27.6405768,36 C27.6309597,36 27.6216061,35.9972528 27.6137016,35.9923079 C26.7784615,35.9557701 26.1384621,35.5788549 25.7616818,34.9011217 C25.123922,33.6445544 25.0411884,32.1059874 24.960958,30.6181063 C24.8405464,28.3806527 24.7267219,26.2673724 22.8822114,25.0632765 C22.643496,24.9087468 22.3868639,24.7807275 22.0976917,24.6723506 C22.0787209,24.6652079 22.0652833,24.6476258 22.062912,24.6267471 L22.0003348,24.061649 C21.9983587,24.0432428 22.0052093,24.0249739 22.0187786,24.0130236 C22.032348,24.0010733 22.05066,23.9969525 22.0677864,24.0023096 C23.5519843,24.4533991 24.6139513,26.0267181 24.9087884,28.2106013 C25.0376314,28.9763821 25.0730698,29.7554868 25.1073226,30.5089052 C25.1631809,31.7386874 25.2160092,32.9002017 25.6387672,34.0335573 C26.0540159,35.0145809 26.9456412,35.2560594 27.4401982,35.3123769 C28.0783533,35.3603155 28.9043715,35.1949343 29.257043,34.1541592 C29.2260838,34.1790213 29.192358,34.2092405 29.1591592,34.2390476 C29.0496822,34.3369851 28.9257136,34.4479718 28.8112304,34.462944 C28.8055655,34.4634934 28.7999006,34.4633561 28.7944992,34.4623946 L28.367262,34.3751711 C28.3460517,34.3709129 28.329584,34.3538803 28.3253683,34.3319028 C28.3211526,34.3100626 28.3298475,34.2876729 28.3476326,34.2750358 L28.4148207,34.2280588 C28.7223049,34.0135028 29.2947211,33.6143353 29.4810033,33.0588523 C29.4864047,33.0427812 29.4986567,33.0300067 29.5143339,33.0246497 C29.6989035,32.9609148 29.862131,33.0051446 29.9625179,33.1460757 C29.9709494,33.158026 29.9746381,33.1727235 29.9723985,33.1872837 C29.8600232,33.9596578 29.8688498,34.6684342 29.9987468,35.2942454 C30.0028308,35.3134758 29.9967707,35.3332556 29.9829378,35.3465795 C29.9693685,35.3599034 29.9498708,35.364711 29.9318222,35.3589419 C29.9082405,35.3515245 29.8803113,35.3504256 29.8508013,35.3491893 C29.7813736,35.3461674 29.6949513,35.3425961 29.626841,35.2523507 C29.6240744,35.2485046 29.6215713,35.2443838 29.619727,35.2399883 C29.5708509,35.1214468 29.5363347,34.86115 29.505639,34.6313471 C29.5008963,34.5949468 29.4961536,34.5593706 29.4914109,34.5253053 C29.4795542,34.5490686 29.4673022,34.5720077 29.455182,34.5945347 C29.4233006,34.6542862 29.3932636,34.7106037 29.3696819,34.7835417 C29.1166068,35.4759724 28.6206006,35.8987658 27.9712476,35.9781598 C27.9633431,35.9847531 27.9543847,35.9891486 27.9452945,35.989698 C27.8865379,35.9929947 27.8281765,35.9949177 27.7702103,35.9951924 C27.7287118,35.9975275 27.6851054,35.9991758 27.641499,36 L27.6405768,36 Z" id="Fill-5" fill="#000000"></path>
                    <mask id="mask-2" fill="white">
                        <use xlink:href="#path-1"></use>
                    </mask>
                    <g id="Clip-30"></g>
                </g>
            </g>
        </g>
    </g>
</svg>