<?xml version="1.0" encoding="UTF-8"?>
<svg width="21px" height="18px" viewBox="0 0 21 18" version="1.1" xmlns="http://www.w3.org/2000/svg" xmlns:xlink="http://www.w3.org/1999/xlink">
    <!-- Generator: Sketch 51.3 (57544) - http://www.bohemiancoding.com/sketch -->
    <title>Share</title>
    <desc>Created with Sketch.</desc>
    <defs></defs>
    <g id="The-Corporation-App-(Mobile)" stroke="none" stroke-width="1" fill="none" fill-rule="evenodd">
        <g id="Returning-User-(After-Sign-In)" transform="translate(-340.000000, -2082.000000)" fill="#FFFFFF">
            <g id="Title_3" transform="translate(0.000000, 2040.000000)">
                <path d="M347.428817,47.332524 L349.690965,44.5913653 L349.690965,54.4609212 C349.690965,54.8444065 350.000384,55.1545174 350.383177,55.1545174 C350.76597,55.1545174 351.075389,54.8444065 351.075389,54.4609212 L351.075389,44.5650612 L353.358996,47.332524 C353.62965,47.6059477 354.069897,47.6059477 354.341936,47.332524 C354.612591,47.0604848 354.612591,46.6181614 354.341936,46.34543 L350.920333,42.1983891 C350.774969,42.0530246 350.583226,41.9907256 350.394252,42.0011087 C350.204586,41.9907256 350.012844,42.0530246 349.868171,42.1983891 L346.446569,46.34543 C346.175221,46.6181614 346.175221,47.0604848 346.446569,47.332524 C346.717916,47.6059477 347.158162,47.6059477 347.428817,47.332524 L347.428817,47.332524 Z M360.074142,53.077882 C359.691349,53.077882 359.38193,53.3879929 359.38193,53.7700938 L359.38193,58.6155764 L341.384424,58.6155764 L341.384424,53.7700938 C341.384424,53.3879929 341.075005,53.077882 340.692212,53.077882 C340.309419,53.077882 340,53.3879929 340,53.7700938 L340,59.3077882 C340,59.6905813 340.309419,60 340.692212,60 L360.074142,60 C360.456935,60 360.766354,59.6905813 360.766354,59.3077882 L360.766354,53.7700938 C360.766354,53.3879929 360.456935,53.077882 360.074142,53.077882 L360.074142,53.077882 Z" id="Share"></path>
            </g>
        </g>
    </g>
</svg>