<?xml version="1.0" encoding="UTF-8"?>
<svg width="28px" height="29px" viewBox="0 0 28 29" version="1.1" xmlns="http://www.w3.org/2000/svg" xmlns:xlink="http://www.w3.org/1999/xlink">
    <!-- Generator: Sketch 51.3 (57544) - http://www.bohemiancoding.com/sketch -->
    <title>Avocado Meter_small_UI animation</title>
    <desc>Created with Sketch.</desc>
    <defs></defs>
    <g id="The-Corporation-App-(Mobile)" stroke="none" stroke-width="1" fill="none" fill-rule="evenodd">
        <g id="Returning-User-(After-Sign-In)" transform="translate(-55.000000, -388.000000)" fill="#7ED321">
            <g id="Animated-Icons" transform="translate(35.000000, 212.000000)">
                <g id="Avocado-Meter_small_UI-animation" transform="translate(20.000000, 176.000000)">
                    <path d="M24.1445,24.5273 C22.7455,26.2843 20.6035,27.2833 18.3585,27.2273 L18.1765,27.2273 C17.4905,27.2153 16.8065,27.1233 16.1405,26.9553 C15.8695,26.8853 15.7045,26.6093 15.7735,26.3383 C15.7925,26.2573 15.8315,26.1843 15.8865,26.1243 C16.0625,25.9273 16.2265,25.7213 16.3785,25.5063 C18.8935,21.9433 18.1725,16.8133 16.4375,13.5543 C16.1135,12.9453 15.7785,12.4183 15.4555,11.9073 C15.1985,11.5073 14.9555,11.1253 14.7415,10.7353 C14.6685,10.6043 14.6575,10.4483 14.7105,10.3073 C14.8605,9.9203 14.9805,9.5203 15.0685,9.1143 C15.8475,5.5453 17.9775,5.4443 18.2105,5.4443 L18.2115,5.4443 L18.2365,5.4513 L18.2785,5.4513 L18.3625,5.4513 C18.7485,5.4663 20.7175,5.7173 21.4625,9.1193 C21.7965,10.4483 22.3775,11.7033 23.1735,12.8183 C23.3285,13.0603 23.4835,13.3053 23.6375,13.5603 C23.7915,13.8153 23.9445,14.0783 24.0915,14.3533 C25.6385,17.2603 26.1525,21.6923 24.1425,24.5393 L24.1445,24.5273 Z M13.6925,25.8283 C13.1925,26.1843 12.6475,26.4733 12.0715,26.6873 C11.1555,27.0253 10.1875,27.2063 9.2105,27.2203 L9.0275,27.2203 C6.7815,27.2763 4.6395,26.2773 3.2385,24.5203 C1.2295,21.6733 1.7455,17.2413 3.2905,14.3363 C3.5845,13.7853 3.9015,13.2853 4.2085,12.8013 C5.0045,11.6853 5.5845,10.4303 5.9195,9.1013 C6.6975,5.5313 8.8295,5.4313 9.0615,5.4313 L9.0715,5.4313 L9.1055,5.4313 L9.1685,5.4313 C9.1925,5.4313 11.4955,5.3323 12.3155,9.1013 C12.4205,9.5813 12.5695,10.0483 12.7585,10.5023 C13.0205,11.1133 13.3315,11.7023 13.6905,12.2623 C13.8015,12.4413 13.9145,12.6203 14.0255,12.7963 C14.1795,13.0383 14.3355,13.2823 14.4895,13.5383 C14.6435,13.7933 14.7965,14.0543 14.9425,14.3313 C16.4895,17.2373 17.0045,21.6703 14.9955,24.5153 C14.6345,25.0183 14.1935,25.4583 13.6895,25.8153 L13.6925,25.8283 Z M25.5835,13.5463 C25.2595,12.9363 24.9245,12.4083 24.6005,11.8983 C23.9125,10.9503 23.4085,9.8803 23.1145,8.7463 C22.8635,6.9463 21.8515,5.3403 20.3365,4.3383 C19.0685,3.5513 17.4645,3.5513 16.1965,4.3383 C15.3045,4.8843 14.5925,5.6803 14.1465,6.6273 C14.0205,6.8773 13.7145,6.9773 13.4635,6.8513 C13.3675,6.8023 13.2895,6.7233 13.2395,6.6273 C12.7935,5.6793 12.0815,4.8833 11.1895,4.3373 C10.7565,4.0813 10.2835,3.9023 9.7905,3.8083 C9.3925,2.2313 8.2735,0.9363 6.7705,0.3143 C6.5175,0.1933 6.2135,0.2983 6.0925,0.5513 C6.0835,0.5693 6.0775,0.5873 6.0705,0.6043 L5.8455,1.2463 C5.7605,1.4873 5.8685,1.7543 6.0975,1.8673 C6.7965,2.1903 7.3955,2.6973 7.8295,3.3343 C7.9725,3.5763 7.8935,3.8893 7.6505,4.0343 C7.6285,4.0473 7.6065,4.0583 7.5835,4.0673 C7.3985,4.1453 7.2185,4.2353 7.0455,4.3373 C5.5305,5.3403 4.5185,6.9453 4.2675,8.7453 C3.9735,9.8793 3.4695,10.9493 2.7815,11.8973 C2.4575,12.4073 2.1225,12.9353 1.7985,13.5453 C0.0645,16.8033 -0.6565,21.9333 1.8575,25.4973 C3.5685,27.6913 6.2115,28.9543 8.9945,28.9063 L9.2435,28.9063 C10.7075,28.8863 12.1505,28.5483 13.4715,27.9143 C13.6105,27.8453 13.7725,27.8453 13.9115,27.9143 C15.2315,28.5483 16.6745,28.8863 18.1405,28.9063 L18.3895,28.9063 C21.1705,28.9533 23.8125,27.6903 25.5225,25.4973 C26.6335,23.8433 27.2045,21.8873 27.1555,19.8963 C27.1425,17.6843 26.6035,15.5073 25.5825,13.5463 L25.5835,13.5463 Z" id="Fill-5"></path>
                    <path d="M11.4492,22.5732 C11.0742,23.0432 10.5762,23.4002 10.0122,23.6062 C9.7252,23.7082 9.4242,23.7602 9.1202,23.7602 C7.2512,23.7602 5.7292,21.8192 5.7292,19.4342 C5.7292,16.9272 7.3782,14.5562 9.1202,14.5562 C9.5462,14.5652 9.9622,14.6922 10.3192,14.9262 C10.8552,15.2782 11.3032,15.7492 11.6282,16.3022 C12.2002,17.2472 12.5052,18.3302 12.5092,19.4352 C12.5272,20.5732 12.1522,21.6812 11.4482,22.5742 L11.4492,22.5732 Z M12.8012,15.0122 C12.6672,14.8242 12.5232,14.6432 12.3702,14.4702 C11.9912,14.0342 11.5402,13.6652 11.0382,13.3802 C10.4532,13.0462 9.7932,12.8692 9.1202,12.8662 C7.6142,12.9322 6.2382,13.7342 5.4382,15.0112 C4.5332,16.3082 4.0442,17.8512 4.0392,19.4332 C4.0192,20.9542 4.5242,22.4342 5.4702,23.6252 C6.3452,24.7572 7.6872,25.4272 9.1182,25.4472 C9.6802,25.4482 10.2392,25.3402 10.7622,25.1302 C11.2872,24.9162 11.7712,24.6112 12.1902,24.2292 C12.3972,24.0442 12.5892,23.8442 12.7652,23.6302 C13.7112,22.4382 14.2162,20.9592 14.1962,19.4382 C14.1912,17.8562 13.7032,16.3132 12.7972,15.0162 L12.8012,15.0122 Z" id="Fill-7"></path>
                </g>
            </g>
        </g>
    </g>
</svg>