<?xml version="1.0" encoding="UTF-8"?>
<svg width="251px" height="461px" viewBox="0 0 251 461" version="1.1" xmlns="http://www.w3.org/2000/svg" xmlns:xlink="http://www.w3.org/1999/xlink">
    <!-- Generator: Sketch 51.3 (57544) - http://www.bohemiancoding.com/sketch -->
    <title>Devi Logo</title>
    <desc>Created with Sketch.</desc>
    <defs>
        <polygon id="path-1" points="0 551 472 551 472 0 0 0"></polygon>
    </defs>
    <g id="The-Corporation-App-(Mobile)" stroke="none" stroke-width="1" fill="none" fill-rule="evenodd">
        <g id="The-Corporation_Intro.-Animation_1" transform="translate(-69.000000, -76.000000)">
            <g id="Context" transform="translate(-42.000000, 76.000000)">
                <g id="Devi-Logo">
                    <path d="M162.995403,273.180537 L157.042506,270.835116 L157.324995,270.609472 L158.021695,268.265641 C159.184977,268.985475 160.381587,269.468543 161.106854,268.985475 C162.046367,269.903939 162.995403,270.367939 164.185665,270.609472 L162.995403,273.180537 Z M250.125751,58.3886231 L250.125751,57.9548156 C252.276157,55.8525178 254.188511,53.9838086 255.60413,51.6781138 L247.527806,46.141904 C247.968996,38.4890949 246.802539,32.4857077 243.947498,28.115852 C236.858297,24.1321327 228.780386,22.3126837 219.039283,23.235915 C215.019371,28.115852 210.988351,33.8888286 207.657205,40.5929818 L196.971826,45.2123165 C198.863549,48.6811874 201.705895,50.9995944 205.96862,52.636304 L205.96862,53.0637554 C205.96862,57.7355283 205.96862,62.5757394 206.476465,67.1839508 C207.157295,72.5072296 208.358666,77.3871666 210.697927,81.9922 C210.988351,81.9922 211.207359,82.243268 211.440651,82.6993221 C212.16433,83.6352657 212.873726,85.2544959 212.619803,86.6464935 L212.619803,87.0866572 C212.16433,87.3154787 211.911994,87.8017245 211.440651,88.0432583 C209.521948,89.8992552 208.103156,91.7059919 207.396934,94.2516314 C203.357978,95.8946972 199.810998,97.9890498 196.702034,99.6146361 C193.859688,101.424551 190.511085,103.06285 186.997431,104.678902 C183.639306,106.28383 180.335138,109.776537 177.468988,115.565404 L177.468988,115.77039 C176.054957,120.43104 174.891674,125.741606 174.144189,131.516172 C173.69189,137.540216 172.484171,143.117741 170.129039,147.943651 C168.461085,152.118055 166.574123,156.977334 164.685575,162.308558 C162.736719,167.16466 162.046367,172.481582 162.736719,178.017792 C162.309812,178.273627 162.046367,178.742394 161.805141,178.98075 C161.600416,179.433625 161.106854,179.911926 160.857692,180.33461 C160.633923,182.454388 160.15147,185.208191 159.47064,189.16013 C158.7422,194.456395 158.021695,200.278632 157.324995,206.962127 C156.575923,213.446993 156.390242,219.69827 156.575923,225.698479 C156.575923,231.493702 156.575923,237.06646 156.390242,242.415164 L156.390242,243.057135 C156.813976,243.314559 157.042506,243.506833 157.556699,243.506833 C155.887158,247.458772 153.989087,251.628408 151.587932,255.581936 C151.130872,256.26999 150.651593,256.948509 150.411953,257.668344 C148.044126,260.20286 148.555145,262.740554 151.587932,265.500714 C151.587932,265.500714 151.862486,265.500714 151.862486,265.732714 C151.862486,266.209425 151.862486,266.692493 151.587932,267.154903 L151.587932,268.519887 L144.440012,265.716823 L127.101864,266.606685 L111,334.970296 L159.553165,350.283859 L175.582026,350.44753 L188.181345,286.32983 L166.786784,275.475108 L168.461085,266.209425 C168.934016,265.732714 168.934016,265.295728 169.206983,264.81266 L169.391077,264.81266 C167.77232,263.67332 166.574123,261.844336 165.855205,259.268505 L164.907757,259.74045 C165.15057,259.268505 165.364817,258.999958 165.364817,258.564561 C167.519985,255.109992 168.226207,251.167587 167.77232,246.556198 C169.613259,246.556198 171.335171,246.330554 172.992016,245.866555 L173.234829,245.866555 C174.144189,240.517852 175.582026,235.442463 177.711801,230.344828 C179.638439,225.021549 181.282587,219.69827 182.261776,214.395649 C182.691857,211.136531 183.639306,208.125303 184.366159,205.350842 C185.069207,203.041969 185.802408,200.728329 186.495934,198.641922 L186.751444,198.408333 C186.495934,200.728329 186.495934,203.041969 186.245186,205.350842 L185.331065,205.350842 C184.858134,209.274178 184.366159,212.998884 183.924969,216.223043 C183.924969,216.450276 183.924969,216.928576 184.161434,217.397343 C184.161434,217.63252 184.161434,218.104465 184.366159,218.31104 C184.366159,218.552574 184.366159,219.016573 184.161434,219.245394 C183.639306,224.570262 183.196528,229.664719 182.460153,234.75282 C181.757105,240.311277 181.282587,246.041349 181.528574,252.090819 C181.528574,254.180404 181.757105,256.26999 181.757105,257.887631 C181.757105,258.116452 181.757105,258.564561 181.99357,258.564561 C186.049983,261.844336 190.031806,264.123018 194.116785,265.500714 L194.332619,265.500714 C194.332619,266.913369 194.116785,267.833422 193.859688,268.519887 L193.859688,269.468543 L202.413704,297.905975 C202.624777,299.97967 203.357978,302.307611 203.868998,304.872319 C205.01641,309.48212 206.935112,314.109399 208.815726,318.075639 C210.988351,322.218263 213.598992,326.379954 216.650824,330.55118 C218.812339,333.794408 220.459662,337.248977 221.61501,340.94508 L221.61501,341.663326 C221.430916,346.959591 220.235893,351.863364 217.855369,355.796234 C216.896811,357.154861 216.650824,358.570695 216.650824,359.724337 C216.650824,360.420335 216.650824,361.316553 217.150734,361.775785 C216.896811,363.437919 216.650824,365.02378 216.650824,367.130845 C216.401662,373.13741 216.212807,379.156688 215.968407,385.388896 C215.731942,391.404996 215.497063,397.653095 215.497063,403.658071 C215.497063,409.458061 215.497063,414.805176 215.019371,419.893277 C216.401662,421.065987 218.079138,421.714315 219.967687,421.960616 C217.855369,425.191131 216.650824,428.455016 216.401662,432.157475 L216.401662,432.850296 C215.968407,433.077529 215.731942,433.528816 215.497063,433.992815 C213.102256,437.703219 211.207359,441.61861 210.226583,445.538768 C210.05836,446.021836 209.793328,446.516027 209.793328,446.728958 C207.157295,450.17876 206.209846,453.661932 207.396934,456.919461 C210.988351,460.839619 216.212807,461.967836 223.051259,460.162689 C229.489783,458.757979 233.257358,455.298642 234.246069,449.520898 C235.409352,443.94814 237.067784,438.844149 239.954566,434.927169 C242.527118,430.782957 242.103385,427.037594 238.969029,423.808667 C238.769065,423.570312 238.264394,423.331956 238.264394,423.120614 L240.862339,423.120614 C241.609823,417.341281 242.790563,411.561948 243.947498,405.987601 C244.204594,404.128426 244.693395,402.278786 245.180609,399.966735 C250.125751,400.220981 253.461658,397.866026 255.60413,393.028993 C257.021335,389.097712 257.492678,384.492679 257.021335,378.900852 C256.819784,377.551759 257.021335,376.622171 257.7101,375.673515 C261.285647,371.031934 263.677279,366.186956 264.827866,361.1068 C265.338885,357.863573 264.151797,355.796234 261.285647,354.606044 C261.285647,354.378811 261.541156,353.709826 261.75699,353.452402 C260.566728,353.018594 259.662129,352.292404 258.927341,351.394597 C256.819784,348.377013 254.655094,345.343539 252.51421,341.888969 L252.51421,341.663326 C252.98714,337.043991 253.713994,332.392876 254.883624,327.789431 C255.84853,324.077438 256.575383,320.130266 257.021335,316.211697 C257.2578,314.349344 257.7101,312.50606 257.7101,310.637351 C258.211597,304.637141 259.181263,298.854631 260.357242,293.299352 C261.541156,287.485061 262.504475,281.926604 263.177369,276.391983 C263.451923,273.180537 263.677279,270.182021 263.451923,267.154903 C265.338885,266.692493 267.265522,265.983782 268.922367,265.066906 C268.922367,260.652558 269.393711,256.26999 270.061845,252.321229 C272.199555,251.628408 274.610232,251.167587 276.966951,250.956245 C275.289475,245.590062 274.357897,240.064976 273.629456,234.75282 C273.158113,229.407295 272.735966,224.338262 271.99483,219.461504 L274.357897,219.461504 C274.357897,214.634005 273.869096,209.979711 272.942278,205.821198 L272.942278,205.350842 L272.735966,205.350842 L272.199555,205.350842 C271.287021,200.032331 271.039446,194.925161 271.99483,189.83706 C272.447129,188.44824 272.447129,187.068955 272.735966,185.680136 C273.629456,187.537721 275.289475,188.956733 277.687456,189.83706 C277.212938,191.708947 276.966951,193.32341 276.966951,195.168284 C276.711441,200.728329 277.687456,206.046841 279.134815,210.914066 C280.76468,216.223043 281.989856,221.571747 282.677034,226.85371 C283.649875,232.429646 284.099,237.771993 284.33864,243.506833 L285.300371,243.506833 C285.041688,243.985134 284.816332,244.258448 284.816332,244.692256 C284.56717,245.400967 284.33864,245.866555 284.33864,246.330554 C283.867296,247.021786 283.867296,247.700305 283.867296,248.148414 C283.649875,248.850769 283.153139,249.317947 282.405654,249.767644 C282.178711,249.767644 281.989856,249.767644 281.989856,250.006 C281.989856,250.477945 281.464554,250.713122 281.23285,250.956245 C280.76468,251.407532 280.76468,251.844518 280.76468,252.321229 C280.55202,252.791585 280.55202,253.284186 280.55202,253.961117 C280.293336,254.634869 280.293336,255.357882 280.082263,255.82347 C280.082263,256.061826 279.825166,256.26999 280.082263,256.710153 C280.082263,256.948509 280.082263,257.185276 280.293336,257.4427 C280.293336,257.4427 280.55202,257.668344 280.76468,257.887631 C280.55202,257.887631 280.293336,257.887631 280.293336,258.116452 C279.825166,259.268505 279.564896,260.20286 279.564896,261.59009 C279.825166,262.035021 280.082263,262.740554 280.082263,263.185485 C280.293336,263.914854 280.76468,264.377264 281.23285,265.295728 C281.989856,266.209425 282.677034,266.692493 284.099,266.692493 C284.816332,266.692493 285.041688,266.209425 285.041688,265.732714 C285.300371,265.500714 285.497161,265.500714 285.497161,265.295728 L285.497161,265.066906 C285.971679,266.209425 286.236711,267.154903 286.700119,268.054299 C286.700119,268.265641 286.700119,268.265641 286.963564,268.265641 C287.426973,268.519887 287.903078,268.76301 287.903078,269.468543 L288.368073,269.468543 C289.591662,269.468543 290.280427,268.76301 290.708922,267.607779 L291.027912,267.359889 C292.416551,267.833422 293.825821,267.607779 294.552674,266.692493 C294.784379,266.692493 295.000213,266.209425 295.000213,266.209425 C295.254135,265.983782 295.254135,265.983782 295.500123,265.983782 C295.254135,265.295728 295.500123,264.81266 296.19841,264.618798 L296.19841,264.377264 C297.15538,263.914854 298.10759,263.67332 299.04869,263.185485 C299.04869,262.991622 299.289917,262.740554 299.289917,262.740554 C299.521621,262.562582 299.780305,262.562582 299.780305,262.273377 C299.996139,262.035021 300.254822,262.035021 300.254822,261.59009 C300.486527,261.59009 300.486527,261.3422 300.486527,261.118146 C301.659331,259.268505 302.838484,257.887631 303.570099,256.495633 C303.790694,256.26999 303.790694,256.26999 303.790694,256.061826 L303.790694,255.581936 L303.790694,255.109992 C303.790694,254.180404 303.570099,253.284186 303.570099,252.321229 L303.570099,252.090819 C303.330459,251.628408 303.330459,251.167587 303.330459,250.956245 C303.100342,249.767644 302.62265,248.850769 302.162416,248.148414 C301.659331,247.937072 301.659331,247.700305 301.433975,247.458772 C301.433975,247.021786 301.214967,246.330554 300.962632,245.866555 C300.715057,245.866555 300.486527,245.400967 300.486527,245.140365 C300.486527,244.692256 300.254822,244.258448 299.780305,243.506833 C299.780305,243.506833 299.780305,243.057135 299.521621,242.858505 L299.521621,242.591547 C301.214967,242.415164 302.838484,242.125959 305,241.930507 C305,236.133695 305,230.559348 304.295365,225.26785 C303.790694,222.035746 303.570099,218.552574 303.330459,215.050333 C302.62265,209.274178 301.659331,203.726845 300.486527,198.408333 C299.780305,195.168284 299.289917,191.917111 299.04869,188.206707 L299.04869,185.208191 L299.04869,184.53285 C299.04869,181.043321 299.04869,177.587163 299.289917,174.145306 L299.289917,173.420704 C297.860015,168.779123 295.744523,164.383843 293.106903,160.913383 L293.106903,159.990151 C293.106903,154.001065 292.889482,148.167705 292.660951,142.405852 C292.167389,136.402465 291.232637,130.869433 289.591662,125.93388 C287.903078,121.594216 286.236711,117.666113 284.33864,114.416529 C284.33864,113.909626 284.099,113.712585 283.867296,113.471051 L283.867296,111.854999 C283.397539,109.109141 282.677034,107.006843 281.989856,105.136545 L281.464554,105.136545 C279.134815,104.191067 276.500368,103.305972 273.629456,102.597261 C267.946352,100.984387 262.948839,99.114089 258.211597,97.0817089 C257.7101,96.8290518 257.492678,96.5652714 257.021335,96.3253266 C252.98714,94.5154118 248.726003,91.7059919 244.921925,88.7106544 C244.448995,86.6464935 243.503133,85.2544959 241.609823,84.556908 C242.103385,80.1552715 242.527118,75.5184574 242.790563,70.9070679 L242.790563,70.6750683 C247.527806,69.9552339 249.916264,66.5133766 250.125751,60.24462 L250.125751,58.3886231 Z" id="Fill-1" fill="#691446"></path>
                    <path d="M212.015298,7.18485339 C224.466162,4.07471497 239.136349,5.50078146 250.283301,10.4888868 C238.091961,12.4997657 223.619956,11.0736992 212.015298,7.18485339 M250.739434,5.10986411 C238.091961,-0.592838164 220.162781,-2.14868921 207.060748,3.68536129 C206.994687,6.53749426 206.538554,10.1010968 209.668572,11.8508429 C221.988887,16.7764014 236.918598,18.1383575 250.93447,16.0649319 C253.543867,15.4801195 253.932366,12.7577711 254,10.4888868 C253.869452,8.28724031 252.694515,6.34047192 250.739434,5.10986411" id="Fill-3" fill="#000000"></path>
                    <path d="M333.686922,414 C333.571516,414 333.459273,413.968178 333.364419,413.910899 C323.341538,413.487671 315.661545,409.121736 311.140182,401.271327 C303.487064,386.716089 302.494261,368.894355 301.531495,351.659731 C300.086556,325.742561 298.720662,301.263731 276.586536,287.316287 C273.721953,285.526317 270.642367,284.043426 267.1723,282.788061 C266.944651,282.705325 266.7834,282.501666 266.754944,282.259821 L266.004018,275.714101 C265.980305,275.500896 266.062511,275.289281 266.225343,275.150857 C266.388176,275.012433 266.60792,274.9647 266.813437,275.026752 C284.623812,280.251873 297.367415,298.476151 300.905461,323.772798 C302.451577,332.643093 302.876838,341.667722 303.287871,350.394819 C303.958171,364.639796 304.59211,378.094003 309.665206,391.222039 C314.64819,402.585562 325.347695,405.382688 331.282379,406.035033 C338.940239,406.590321 348.852458,404.674656 353.084517,392.619011 C352.713006,392.906997 352.308297,393.257036 351.909911,393.602301 C350.596186,394.736744 349.108563,396.02234 347.734764,396.195768 C347.666786,396.202132 347.598807,396.200541 347.53399,396.189404 L342.407144,395.179065 C342.15262,395.129742 341.955008,394.932447 341.90442,394.677874 C341.853831,394.424891 341.95817,394.165545 342.171591,394.019165 L342.977848,393.475014 C346.667659,390.989741 353.536653,386.36605 355.77204,379.931706 C355.836857,379.745549 355.98388,379.597578 356.172007,379.535526 C358.386842,378.797263 360.345572,379.309592 361.550215,380.942044 C361.651392,381.080468 361.695658,381.250714 361.668782,381.419369 C360.320278,390.366036 360.426198,398.57603 361.984961,405.825009 C362.033969,406.047761 361.961248,406.276877 361.795254,406.431213 C361.632422,406.585548 361.398449,406.641236 361.181866,406.57441 C360.898886,406.488492 360.563736,406.475763 360.209615,406.461443 C359.376483,406.426439 358.339415,406.385071 357.522092,405.339729 C357.488893,405.295178 357.458856,405.247446 357.436723,405.196531 C356.850211,403.823426 356.436016,400.808321 356.067667,398.146437 C356.010755,397.7248 355.953843,397.312709 355.896931,396.91812 C355.75465,397.193378 355.607627,397.459089 355.462184,397.720027 C355.079607,398.412148 354.719163,399.064493 354.436183,399.909359 C351.399281,407.930014 345.447208,412.827371 337.654971,413.747018 C337.560117,413.82339 337.452616,413.874304 337.343534,413.880669 C336.638455,413.918855 335.938118,413.94113 335.242523,413.944312 C334.744541,413.97136 334.221265,413.990453 333.697988,414 L333.686922,414 Z" id="Fill-5" fill="#000000"></path>
                    <mask id="mask-2" fill="white">
                        <use xlink:href="#path-1"></use>
                    </mask>
                    <g id="Clip-30"></g>
                </g>
            </g>
        </g>
    </g>
</svg>