<?xml version="1.0" encoding="UTF-8"?>
<svg width="27px" height="20px" viewBox="0 0 27 20" version="1.1" xmlns="http://www.w3.org/2000/svg" xmlns:xlink="http://www.w3.org/1999/xlink">
    <!-- Generator: Sketch 51.3 (57544) - http://www.bohemiancoding.com/sketch -->
    <title>Comments_small_UI animation</title>
    <desc>Created with Sketch.</desc>
    <defs></defs>
    <g id="The-Corporation-App-(Mobile)" stroke="none" stroke-width="1" fill="none" fill-rule="evenodd">
        <g id="Returning-User-(After-Sign-In)" transform="translate(-35.000000, -217.000000)">
            <g id="Animated-Icons" transform="translate(35.000000, 212.000000)">
                <g id="Comments_small_UI-animation" transform="translate(0.000000, 5.000000)">
                    <path d="M20.2471,17.6435 C17.6301,17.7235 15.4171,15.7205 15.2381,13.1085 C14.7531,8.9615 16.1051,4.8115 18.9411,1.7475 C19.0531,1.8475 19.1841,1.9655 19.3711,2.1405 C19.6011,2.3495 19.9131,2.6355 20.3891,3.0625 C18.8091,5.8005 19.2271,7.6705 19.3871,7.9325 C19.4631,8.0595 19.6011,8.1355 19.7501,8.1295 C22.3741,7.9545 24.6441,9.9395 24.8201,12.5645 C24.9961,15.1885 23.0111,17.4585 20.3871,17.6345 C20.3401,17.6375 20.2941,17.6405 20.2481,17.6425 L20.2471,17.6435 Z M20.0291,7.3405 C19.9321,5.8615 20.3521,4.3935 21.2201,3.1915 C21.3191,3.0305 21.2881,2.8215 21.1471,2.6945 C20.5391,2.1475 20.1651,1.8025 19.8991,1.5585 C19.5531,1.2385 19.3941,1.0935 19.1651,0.9065 C19.0121,0.7805 18.7891,0.7895 18.6461,0.9265 C15.4611,4.1705 13.9221,8.6855 14.4631,13.1995 C14.6851,16.2215 17.2591,18.5265 20.2871,18.4155 C23.3461,18.2695 25.7071,15.6715 25.5601,12.6135 C25.4191,9.6605 22.9851,7.3375 20.0291,7.3345 L20.0291,7.3405 Z" id="Fill-16" fill="#F8E71C"></path>
                    <path d="M20.2471,17.6435 C17.6301,17.7235 15.4171,15.7205 15.2381,13.1085 C14.7531,8.9615 16.1051,4.8115 18.9411,1.7475 C19.0531,1.8475 19.1841,1.9655 19.3711,2.1405 C19.6011,2.3495 19.9131,2.6355 20.3891,3.0625 C18.8091,5.8005 19.2271,7.6705 19.3871,7.9325 C19.4631,8.0595 19.6011,8.1355 19.7501,8.1295 C22.3741,7.9545 24.6441,9.9395 24.8201,12.5645 C24.9961,15.1885 23.0111,17.4585 20.3871,17.6345 C20.3401,17.6375 20.2941,17.6405 20.2481,17.6425 L20.2471,17.6435 Z M20.0291,7.3405 C19.9321,5.8615 20.3521,4.3935 21.2201,3.1915 C21.3191,3.0305 21.2881,2.8215 21.1471,2.6945 C20.5391,2.1475 20.1651,1.8025 19.8991,1.5585 C19.5531,1.2385 19.3941,1.0935 19.1651,0.9065 C19.0121,0.7805 18.7891,0.7895 18.6461,0.9265 C15.4611,4.1705 13.9221,8.6855 14.4631,13.1995 C14.6851,16.2215 17.2591,18.5265 20.2871,18.4155 C23.3461,18.2695 25.7071,15.6715 25.5601,12.6135 C25.4191,9.6605 22.9851,7.3375 20.0291,7.3345 L20.0291,7.3405 Z" id="Stroke-18" stroke="#F8E71C"></path>
                    <path d="M6.3896,18.3691 C3.7736,18.4491 1.5616,16.4461 1.3806,13.8341 C0.8956,9.6881 2.2486,5.5371 5.0836,2.4731 C5.1986,2.5741 5.3266,2.6931 5.5166,2.8671 C5.7456,3.0771 6.0586,3.3641 6.5306,3.7891 C4.9506,6.5281 5.3696,8.3971 5.5286,8.6591 C5.6046,8.7861 5.7436,8.8611 5.8916,8.8561 C8.5206,8.7571 10.7316,10.8071 10.8306,13.4351 C10.9286,16.0111 8.9606,18.1961 6.3896,18.3681 L6.3896,18.3691 Z M6.1716,8.0661 C6.0746,6.5881 6.4946,5.1201 7.3626,3.9181 C7.4606,3.7561 7.4306,3.5471 7.2886,3.4211 C6.6836,2.8761 6.3066,2.5311 6.0436,2.2841 C5.6946,1.9681 5.5366,1.8201 5.3086,1.6321 C5.1556,1.5081 4.9326,1.5161 4.7896,1.6531 C1.6046,4.8961 0.0656,9.4111 0.6066,13.9251 C0.8296,16.9471 3.4036,19.2521 6.4316,19.1421 C9.4906,18.9951 11.8496,16.3961 11.7026,13.3391 C11.5616,10.3871 9.1276,8.0641 6.1716,8.0601 L6.1716,8.0661 Z" id="Fill-20" fill="#F8E71C"></path>
                    <path d="M6.3896,18.3691 C3.7736,18.4491 1.5616,16.4461 1.3806,13.8341 C0.8956,9.6881 2.2486,5.5371 5.0836,2.4731 C5.1986,2.5741 5.3266,2.6931 5.5166,2.8671 C5.7456,3.0771 6.0586,3.3641 6.5306,3.7891 C4.9506,6.5281 5.3696,8.3971 5.5286,8.6591 C5.6046,8.7861 5.7436,8.8611 5.8916,8.8561 C8.5206,8.7571 10.7316,10.8071 10.8306,13.4351 C10.9286,16.0111 8.9606,18.1961 6.3896,18.3681 L6.3896,18.3691 Z M6.1716,8.0661 C6.0746,6.5881 6.4946,5.1201 7.3626,3.9181 C7.4606,3.7561 7.4306,3.5471 7.2886,3.4211 C6.6836,2.8761 6.3066,2.5311 6.0436,2.2841 C5.6946,1.9681 5.5366,1.8201 5.3086,1.6321 C5.1556,1.5081 4.9326,1.5161 4.7896,1.6531 C1.6046,4.8961 0.0656,9.4111 0.6066,13.9251 C0.8296,16.9471 3.4036,19.2521 6.4316,19.1421 C9.4906,18.9951 11.8496,16.3961 11.7026,13.3391 C11.5616,10.3871 9.1276,8.0641 6.1716,8.0601 L6.1716,8.0661 Z" id="Stroke-22" stroke="#F8E71C"></path>
                </g>
            </g>
        </g>
    </g>
</svg>