<?xml version="1.0" encoding="UTF-8"?>
<svg width="198px" height="374px" viewBox="0 0 198 374" version="1.1" xmlns="http://www.w3.org/2000/svg" xmlns:xlink="http://www.w3.org/1999/xlink">
    <!-- Generator: Sketch 51.3 (57544) - http://www.bohemiancoding.com/sketch -->
    <title>Group 6</title>
    <desc>Created with Sketch.</desc>
    <defs>
        <polygon id="path-1" points="0 0.037632501 197.995057 0.037632501 197.995057 374 0 374"></polygon>
    </defs>
    <g id="The-Corporation-App-(Mobile)" stroke="none" stroke-width="1" fill="none" fill-rule="evenodd">
        <g id="The-Corporation_Intro.-Animation_2" transform="translate(-154.000000, -109.000000)">
            <g id="Group-6" transform="translate(154.000000, 109.000000)">
                <g id="Group-3">
                    <mask id="mask-2" fill="white">
                        <use xlink:href="#path-1"></use>
                    </mask>
                    <g id="Clip-2"></g>
                    <path d="M158.578444,129.944956 C154.48563,134.409326 154.857185,132.176733 154.857185,132.176733 C154.857185,132.176733 154.279481,121.669696 151.879852,115.804659 C148.530963,107.618215 151.879852,111.339474 151.879852,111.339474 L158.578444,117.664881 C158.578444,117.664881 161.926519,117.664881 163.78837,120.269844 C165.648593,122.873993 162.671259,125.47977 158.578444,129.944956 M48.8505926,91.6502889 C48.8937778,91.2086593 48.9337037,90.7654 48.9874815,90.3286593 L49.1227407,91.2705852 C49.0331111,91.3968815 48.9402222,91.5231778 48.8505926,91.6502889 M193.896593,100.873178 C189.565037,95.1214 184.640296,89.9008815 177.730667,87.1036222 C170.687407,84.2517704 164.700148,79.1828074 158.476593,74.6573259 C155.985704,72.8468074 152.974963,71.6808074 150.052222,70.7649556 C146.497185,69.6519185 142.801185,69.0074 139.133704,68.3742889 C137.537481,68.0988815 135.859778,68.3596222 134.218741,68.3742889 C133.693185,68.3775481 133.12037,68.5185111 132.648593,68.3474 C129.997185,67.3867333 127.369407,66.3486593 124.569704,65.0278444 C128.936296,63.5962148 133.261333,62.1719185 134.270074,55.6925111 C135.476,58.8425852 136.425259,60.8722889 139.245333,59.3102889 C139.607926,59.1090296 140.479778,59.9621407 141.419259,60.502363 C141.007778,59.5245852 140.807333,58.8352519 140.456148,58.2502148 C137.266963,52.9449556 136.879111,47.1279926 137.785185,41.1195481 C138.456593,36.6747333 138.042667,32.6006593 135.326889,28.9087333 C134.020741,27.1340667 133.073111,25.0538444 132.012222,23.0819926 C129.806519,18.9891778 127.726296,18.0252519 123.33363,18.8514741 C121.909333,19.1187333 120.358741,18.5785111 118.906741,18.7569556 C116.569037,19.0445852 114.217481,19.1399185 111.886296,18.8074741 C105.871333,17.9486593 100.166,18.3756222 95.1068148,21.6927333 C92.523037,23.3867333 91.0767407,25.7651778 90.3605185,29.0554 C89.7616296,31.8102889 88.1246667,34.3068815 86.9505185,36.9191778 C85.5001481,40.1425852 84.5443704,43.3708815 85.7861481,47.0236963 C86.0745926,47.8719185 85.2296296,49.1079926 85.0813333,50.1925111 C84.8548148,51.8416963 84.4718519,53.5650296 84.7,55.1677704 C85.2679259,59.1538444 86.1438519,63.0910296 87.0645926,67.9391778 C82.1308889,68.9568815 77.5548889,69.9036963 72.9748148,70.8391037 C72.454963,70.9450296 71.8055556,70.7910296 71.412,71.0721407 C66.6062222,74.5033259 60.4625185,75.8233259 56.7192593,80.8336222 C56.3151111,76.5900667 58.6120741,71.6946593 60.8788889,68.0076222 C64.6547407,64.9610296 67.223037,60.8836963 67.9661481,54.9608074 C71.376963,55.8807333 74.3608148,56.6849556 77.3886667,57.5014 C82.2718519,52.5554741 82.1178519,52.1822889 76.4866667,47.0016963 C60.8177778,32.5835481 45.2507407,18.0391037 29.6437778,3.54436296 C25.9714074,0.134362963 22.0431852,-0.838525926 17.1982963,0.844881481 C3.75548148,5.51458519 -2.31488889,24.0402148 0.801777778,36.9265111 C2.37925926,43.4482889 7.91674074,47.3716222 13.5707407,47.8458444 C25.3839259,48.8366593 37.1677778,50.2291778 49.7151111,51.5361407 C43.8345926,69.4881407 37.2182963,72.2845852 27.6800741,93.7582148 C25.7913333,100.051844 25.7766667,108.569919 28.4427407,119.809474 C29.2176296,123.078511 31.6074815,128.412289 34.7037778,128.224067 C36.5868148,128.108363 42.7639259,127.772659 48.1539259,127.277252 C51.8385185,129.714363 56.1211852,130.472141 58.4800741,136.148141 C60.3028148,140.531844 59.3046667,140.992215 58.9062222,144.749326 C58.2038519,151.359919 57.7687407,158.103326 58.1981481,164.717993 C58.5167407,169.641919 58.9322963,174.1894 57.6334815,179.171993 C56.707037,182.729474 58.1476296,187.001548 58.5900741,190.946881 C58.6373333,191.363252 58.9991111,191.928733 59.3486667,192.087622 C63.8920741,194.142585 64.2856296,198.574363 64.7231852,202.860289 C64.9048889,204.636585 64.6653333,206.420215 64.1128889,208.118289 C62.5737037,212.849104 63.4985185,217.503326 64.5048148,222.045104 C66.3202222,230.238067 68.3996296,238.369104 70.5711111,246.463474 C72.3156296,252.965696 74.756,259.2854 76.1240741,265.8634 C76.9861481,270.009178 76.9405185,274.305696 75.9423704,278.422956 C73.339037,289.171993 72.0247407,299.949548 73.0033333,311.022067 C73.7831111,319.84977 74.6362222,328.6734 75.2457037,337.514956 C75.556963,342.045326 74.7698519,346.409474 71.9440741,350.092437 C70.884,351.472733 69.6120741,351.682956 68.0606667,351.2894 C60.6678519,349.413696 58.4784444,352.974437 57.3173333,357.917919 C55.9125926,363.896215 58.9233333,369.123252 64.5708148,369.634141 C69.5314074,370.083104 74.0405926,371.715178 78.628,373.382289 C82.5391111,374.803326 86.1454815,373.589252 89.5538519,371.610881 C90.9121481,370.822956 91.5322222,369.553474 90.5658519,367.711993 C89.7632593,366.180141 89.5342963,364.315844 88.8205185,362.715548 C84.383037,352.768289 86.6091111,343.032881 89.8048148,333.456363 C91.8654815,327.279252 94.5804444,321.354733 96.8635556,315.258289 C99.8188889,307.365993 100.637778,299.047548 100.804815,290.631326 C100.91563,285.017252 102.093852,279.709548 104.472296,274.687844 C107.193778,268.9434 108.35163,262.789104 107.390963,256.461252 C106.673111,251.738585 108.895111,248.010807 109.817481,243.84303 C110.029333,243.860141 110.24037,243.876437 110.452222,243.893548 C110.452222,245.277104 110.739852,246.74703 110.404963,248.030363 C108.341852,255.925104 109.718889,263.519178 111.291481,271.318585 C112.66037,278.108437 113.341556,285.184289 113.343185,292.133844 C113.344815,303.269919 115.607556,313.878807 118.11637,324.540659 C118.901852,327.880585 119.125111,331.499993 118.925481,334.945844 C118.601185,340.534659 117.642963,346.077844 117.101111,351.656881 C116.873778,353.988881 116.361259,356.672881 117.163037,358.647178 C118.377926,361.639178 119.828296,365.142067 123.600889,365.557622 C128.06037,366.048956 132.544296,366.459622 136.935333,364.865844 C139.924074,363.782141 140.966222,361.05903 139.069333,358.216956 C137.447037,355.787993 135.309778,353.759104 133.590519,351.395326 C132.808296,350.3214 132.404148,348.897104 131.973111,347.577919 C131.576296,346.363844 131.446741,345.052807 131.07437,343.828141 C129.093556,337.315326 130.878815,331.136585 132.474222,324.934215 C134.848593,315.703178 137.522815,306.542215 139.48163,297.210956 C140.790222,290.980881 140.078074,284.504733 138.636667,278.323548 C137.361481,272.847178 138.731185,267.6454 139.251852,262.353178 C139.593259,258.886956 140.365704,255.469622 140.945037,252.030289 C141.247333,250.235252 141.759037,248.917696 143.185778,248.136289 C144.363185,247.49177 145.349926,246.538437 145.907259,245.317844 C149.096444,238.334881 150.046519,235.63377 150.912667,231.474956 C151.395852,229.155993 151.109852,226.466289 151.738074,224.095178 C154.50763,213.644363 156.250519,203.026511 156.66037,192.174807 C156.733704,190.236363 157.294296,188.926956 159.110519,188.329696 C161.869481,187.422807 161.48,184.612511 161.919185,182.4614 C162.228815,180.938511 162.36163,179.766807 163.993704,179.168733 C164.532296,178.972363 165.101852,177.42503 164.929111,176.690881 C163.617259,171.101252 162.11963,165.560511 160.690444,160.001844 C160.213778,158.14977 160.458222,156.695326 161.485704,154.828585 C166.408,145.883548 174.90163,140.820289 181.203407,133.416881 C185.856,127.950289 190.820667,122.719993 194.933852,116.816659 C199.195333,110.700659 199.150519,107.854511 193.896593,100.873178" id="Fill-1" fill-opacity="0.7" fill="#D580AA" mask="url(#mask-2)"></path>
                </g>
                <path d="M159.208491,117.091874 L152.492304,110.834749 C152.492304,110.834749 149.13462,107.15366 152.492304,115.251733 C154.898237,121.053457 155.477458,131.447877 155.477458,131.447877 C155.477458,131.447877 155.104926,133.656369 159.208491,129.239385 C163.312055,124.822401 166.297209,122.245559 164.432101,119.668716 C162.565359,117.091874 159.208491,117.091874 159.208491,117.091874" id="Fill-4" fill="#FEFEFE"></path>
            </g>
        </g>
    </g>
</svg>