<?xml version="1.0" encoding="UTF-8"?>
<svg width="25px" height="24px" viewBox="0 0 25 24" version="1.1" xmlns="http://www.w3.org/2000/svg" xmlns:xlink="http://www.w3.org/1999/xlink">
    <!-- Generator: Sketch 51.3 (57544) - http://www.bohemiancoding.com/sketch -->
    <title>Action Pledges_small_UI animation</title>
    <desc>Created with Sketch.</desc>
    <defs></defs>
    <g id="The-Corporation-App-(Mobile)" stroke="none" stroke-width="1" fill="none" fill-rule="evenodd">
        <g id="Returning-User-(After-Sign-In)" transform="translate(-297.000000, -391.000000)" fill="#FF4400">
            <g id="Animated-Icons" transform="translate(35.000000, 212.000000)">
                <path d="M282.96,189.1712 C282.234,190.3572 281.156,191.2842 279.877,191.8242 C280.077,191.4972 280.269,191.1502 280.453,190.7822 C281.688,188.1542 282.414,185.3162 282.595,182.4172 L284.987,182.4172 C284.933,184.8112 284.231,187.1442 282.96,189.1712 Z M276.197,193.6962 C276.167,193.7092 276.137,193.7242 276.108,193.7412 C275.173,194.2322 274.057,194.2322 273.121,193.7412 C273.092,193.7242 273.062,193.7082 273.03,193.6952 C272.438,193.3662 271.909,192.9312 271.473,192.4102 C271.446,192.3742 271.417,192.3412 271.385,192.3112 C270.844,191.6522 270.383,190.9332 270.01,190.1662 C268.647,187.2032 267.937,183.9822 267.928,180.7212 L281.301,180.7212 C281.291,183.9822 280.581,187.2032 279.219,190.1662 C278.846,190.9332 278.385,191.6522 277.844,192.3112 C277.812,192.3412 277.781,192.3742 277.756,192.4102 C277.319,192.9312 276.79,193.3662 276.196,193.6952 L276.197,193.6962 Z M275.771,197.8032 L273.457,197.8032 L273.457,195.3372 C274.215,195.5402 275.013,195.5402 275.771,195.3372 L275.771,197.8032 Z M279.463,200.3382 L279.463,201.4952 L269.763,201.4952 L269.763,200.3382 C269.764,199.6992 270.281,199.1822 270.92,199.1822 L278.305,199.1822 C278.943,199.1822 279.461,199.6992 279.462,200.3382 L279.463,200.3382 Z M266.268,189.1712 C264.996,187.1442 264.295,184.8112 264.239,182.4172 L266.633,182.4172 C266.814,185.3162 267.54,188.1542 268.774,190.7822 C268.959,191.1502 269.15,191.4982 269.351,191.8242 C268.071,191.2842 266.993,190.3572 266.268,189.1712 Z M285.69,181.0382 L282.671,181.0382 C282.682,180.7052 282.688,180.3682 282.688,180.0292 C282.688,179.6502 282.379,179.3412 281.999,179.3402 L267.228,179.3402 C266.848,179.3412 266.539,179.6502 266.539,180.0292 C266.539,180.3672 266.544,180.7042 266.556,181.0382 L263.536,181.0382 C263.154,181.0382 262.846,181.3482 262.846,181.7292 C262.792,184.6272 263.582,187.4792 265.12,189.9362 C266.271,191.9232 268.301,193.2412 270.585,193.4842 C271.022,193.9692 271.524,194.3912 272.078,194.7382 L272.078,197.8052 L270.921,197.8052 C269.521,197.8062 268.387,198.9412 268.385,200.3402 L268.385,201.4972 L268.336,201.4972 C267.955,201.5122 267.658,201.8322 267.673,202.2132 C267.687,202.5732 267.976,202.8622 268.336,202.8762 L280.891,202.8762 C281.272,202.8612 281.568,202.5412 281.554,202.1602 C281.54,201.8002 281.251,201.5112 280.891,201.4972 L280.842,201.4972 L280.842,200.3402 C280.84,198.9412 279.705,197.8062 278.306,197.8052 L277.15,197.8052 L277.15,194.7392 C277.704,194.3932 278.206,193.9702 278.644,193.4852 C280.927,193.2412 282.957,191.9232 284.108,189.9372 C285.647,187.4792 286.436,184.6282 286.382,181.7302 C286.382,181.3492 286.074,181.0402 285.693,181.0392 L285.692,181.0392 L285.69,181.0382 Z" id="Action-Pledges_small_UI-animation"></path>
            </g>
        </g>
    </g>
</svg>