<?xml version="1.0" encoding="UTF-8"?>
<svg width="107px" height="373px" viewBox="0 0 107 373" version="1.1" xmlns="http://www.w3.org/2000/svg" xmlns:xlink="http://www.w3.org/1999/xlink">
    <!-- Generator: Sketch 51.3 (57544) - http://www.bohemiancoding.com/sketch -->
    <title>Group 8</title>
    <desc>Created with Sketch.</desc>
    <defs>
        <polygon id="path-1" points="0 0 107 0 107 373 0 373"></polygon>
    </defs>
    <g id="The-Corporation-App-(Mobile)" stroke="none" stroke-width="1" fill="none" fill-rule="evenodd">
        <g id="The-Corporation_Intro.-Animation_3" transform="translate(-31.000000, -125.000000)">
            <g id="Group-8" transform="translate(31.000000, 125.000000)">
                <mask id="mask-2" fill="white">
                    <use xlink:href="#path-1"></use>
                </mask>
                <g id="Clip-2"></g>
                <path d="M88.562464,162.826298 C88.1486402,162.018049 86.2864331,156.360309 86.0795211,154.54175 C85.8726092,152.723191 87.1140807,148.88401 87.1140807,148.88401 C87.7348164,151.106694 87.5279045,153.733502 88.1486402,157.572682 C88.6972703,160.96561 88.9755041,163.634546 88.562464,162.826298 M25.876778,121.202278 C25.6698661,123.425741 25.2560423,125.381609 25.2560423,128.274453 C25.2560423,133.528068 24.4283947,136.761062 24.0153546,138.377559 C23.600747,139.994057 21.3254998,147.8737 19.4632927,154.339688 C17.6010855,160.805676 16.1527022,163.431704 16.1527022,163.431704 L16.1527022,160.603614 C16.1527022,157.774744 19.0494689,145.449734 19.4632927,141.004367 C19.8771165,136.559 21.5324117,133.932192 22.5661875,128.274453 C23.600747,122.616713 23.8076589,117.970064 23.8076589,117.970064 C23.8076589,113.726759 26.0829061,118.980374 25.876778,121.202278 M103.871594,81.8025016 C101.564996,77.6715402 97.9409029,71.6315207 92.6999184,69.7458674 C87.4589339,67.8602142 84.7690791,66.9169975 84.217314,66.6478414 C83.6663327,66.3786853 81.3910855,63.0107229 80.5626541,59.7785089 C79.7350065,56.5455147 78.3563775,53.5816767 77.2528474,51.6960234 C76.1493172,49.8103702 73.3912756,47.9239368 73.6663743,46.3074397 C73.9430406,44.6917228 76.4251997,40.3805438 77.2528474,37.1483298 C78.080495,33.9153356 78.3563775,27.9884396 76.4251997,21.7916074 C74.494022,15.5955553 72.0118629,9.12956691 66.7700946,4.55001192 C62.3230561,0.663241404 60.4263637,-1.37766419 49.3918458,1.04786161 C49.3918458,1.04786161 45.2543914,-0.0303232275 41.9445847,2.66357854 C38.634778,5.35826047 32.5661459,11.0152201 31.7384982,13.9790582 C30.9100669,16.9421161 30.083203,19.9059541 30.9100669,23.6772606 C31.7384982,27.4493472 34.4973236,32.2980583 34.4973236,32.2980583 C34.4973236,32.2980583 33.669676,33.107087 34.2206573,34.722804 C34.7724224,36.3400812 35.048305,37.9557981 35.8759526,38.7640467 C36.7036002,39.5722952 38.0830129,41.1887923 38.0830129,41.1887923 C38.0830129,41.1887923 39.4624256,44.9608789 41.3928196,46.8465322 C43.3239974,48.7321854 45.2543914,51.156931 45.2543914,51.156931 C45.2543914,51.156931 45.8061565,53.5816767 44.9792927,55.4673299 C44.151645,57.3537633 42.4963498,58.7003241 40.565172,60.047665 C38.634778,61.3942258 36.9794827,61.6641621 36.9794827,61.6641621 C36.9794827,61.6641621 34.7034518,60.7880394 33.3240391,61.5970681 C31.9454101,62.4045365 29.8073204,63.0107229 28.7037903,63.2806592 C27.6010439,63.5498153 24.0153546,63.5498153 22.6359419,64.0881276 C21.2557454,64.62722 18.7735863,64.8971563 17.9459387,66.5128732 C17.1182911,68.1293703 12.7049542,73.7871102 12.7049542,73.7871102 C12.7049542,73.7871102 8.01495101,79.9831622 7.18808715,81.3305032 C6.36043953,82.6778442 5.5327919,84.2943413 6.36043953,85.3717459 C7.18808715,86.4491506 7.46318593,88.6047401 8.01495101,89.4129887 L9.11926493,91.567798 C9.11926493,91.567798 8.01495101,99.1111911 7.73985223,102.883278 C7.46318593,106.654584 6.63710582,115.814474 5.25690936,120.394029 C3.87749666,124.974364 1.45098432,140.086116 0.843572473,145.71889 C-0.259173933,155.956185 1.39533755,172.121156 1.94710263,176.969867 C2.49886772,181.819358 2.49886772,189.631908 1.94710263,193.403214 C1.39533755,197.175301 -0.174528153,200.371627 0.0159248508,203.911225 C0.291807391,209.029093 0.636660567,210.712684 0.636660567,210.712684 C0.636660567,210.712684 0.843572473,211.992931 1.94710263,213.608648 C3.0506328,215.225925 3.32651534,216.572486 4.70592804,217.111578 C6.08534074,217.650671 7.73985223,217.380734 7.73985223,217.380734 L9.9461288,218.998011 C9.9461288,218.998011 9.39436372,221.960289 9.11926493,224.654191 C8.84338239,227.348873 9.39436372,245.398717 10.4978939,251.326393 C11.601424,257.253289 11.601424,261.293752 10.7745602,264.526746 C9.9461288,267.75974 8.56749985,269.915329 8.84338239,272.340075 C9.11926493,274.764821 10.4978939,277.458722 10.4978939,277.458722 C10.4978939,277.458722 11.3255415,279.344376 11.0504427,281.499965 C10.7745602,283.654775 9.67103001,288.23511 9.39436372,290.389919 C9.11926493,292.545509 9.39436372,296.855907 9.39436372,296.855907 C9.39436372,296.855907 9.67103001,300.89715 9.39436372,302.244491 C9.11926493,303.591052 8.56749985,307.093202 8.56749985,307.093202 C8.56749985,307.093202 9.08007707,310.855147 9.9461288,319.621055 C10.813748,328.386183 13.2567193,330.127506 11.1876002,337.805867 C9.11926493,345.483448 10.7745602,346.695821 12.8428955,350.332939 C14.9112308,353.970058 15.4473207,354.579365 11.1876002,359.223673 C6.92866351,363.867982 3.73955539,367.305378 4.15416296,370.134248 C4.56720301,372.963118 11.5755601,373.105888 14.4981907,372.963118 C22.7738832,372.559774 29.1693421,371.089168 31.8764395,368.113627 C33.2550684,366.599331 34.5725643,362.971575 34.3593824,359.627017 C33.9447748,353.161809 35.6345554,350.67075 36.8415415,348.312318 C38.9098768,344.271855 39.3244843,339.422364 38.9098768,336.18859 C38.4968367,332.956376 40.9789958,333.764624 39.3244843,325.278014 C37.6684053,316.792185 37.2553653,314.771563 38.0830129,312.346818 C38.9098768,309.922072 38.9098768,307.901451 38.9098768,307.901451 L38.3581117,302.782803 C38.1566861,300.812112 37.8071304,297.831111 37.6347038,296.373767 C37.5704357,295.839355 37.5312478,295.509347 37.5312478,295.509347 L38.3581117,286.617832 C38.3581117,286.617832 40.8410546,285.810364 40.565172,283.116462 C40.2892895,280.42178 39.1865431,278.536127 39.1865431,277.188786 C39.1865431,275.842225 41.1169371,272.609231 41.1169371,272.609231 C41.1169371,272.609231 42.4963498,270.454422 42.7722323,265.604931 C43.0481149,260.755439 43.59988,253.481983 43.59988,253.481983 L44.9792927,245.668653 L45.5310577,235.969671 C45.5310577,235.969671 47.1855692,232.737457 47.1855692,230.043555 C47.1855692,227.348873 47.7373343,223.30763 47.7373343,223.30763 L48.5649819,217.380734 L51.5989061,213.878584 C51.5989061,213.878584 52.4273375,213.608648 52.9791026,216.842422 C53.5300839,220.074636 54.3569478,228.157121 54.3569478,228.157121 C54.3569478,228.157121 55.4612617,228.426278 55.4612617,231.390116 C55.4612617,234.353174 56.5647919,240.819162 56.5647919,241.62741 C56.5647919,242.435659 57.1157732,255.905948 57.1157732,256.714197 C57.1157732,257.522445 57.3916557,266.143243 58.2193033,267.490584 C58.2193033,267.490584 60.1504811,281.499965 60.9781287,283.385618 C61.8049926,285.271272 61.8049926,287.696017 62.0816589,289.312514 C62.3567577,290.929011 63.4610716,293.89285 63.7361704,294.701098 C64.0120529,295.509347 65.6673482,295.509347 65.3914656,298.203248 C65.2637132,299.445267 65.2550919,300.684946 65.2809559,301.742066 C65.1516359,303.614457 65.1273395,306.019698 65.5991613,307.865563 C66.4989146,311.377856 67.1180828,311.084515 66.2191133,315.767831 C65.3201437,320.451148 65.5772161,322.943768 64.9776418,325.870938 C63.7361704,331.932022 64.563818,335.771203 64.563818,335.771203 C64.863997,338.990934 66.2183295,342.907351 67.8571658,346.901003 C69.4952184,350.893876 69.5101098,349.701788 68.5962489,352.943364 C67.682388,356.18494 67.0977051,357.62668 66.7975261,359.968729 C66.4989146,362.309997 66.1987356,366.408191 72.1929108,368.75024 C75.0583272,369.868993 79.1738363,371.091508 82.6827174,371.091508 C85.9792002,371.091508 99.7780298,372.296859 98.0796279,368.503708 C95.9807261,363.820392 89.6832368,357.334119 88.7834835,354.406949 C87.884514,351.479778 89.0139082,347.472863 90.0108474,343.651626 C91.0070028,339.828829 94.8137116,337.136487 95.4125021,333.624195 C96.0120764,330.111122 94.5143163,320.744489 94.5143163,320.744489 C94.5143163,320.744489 93.314384,316.061172 94.2141373,312.841441 C95.1131068,309.62171 94.9853544,307.643217 94.0793311,303.509915 C94.0683585,303.462325 94.0401432,303.410054 94.0244681,303.360904 C93.8771217,301.338722 93.4750543,295.904109 93.2508997,294.161225 C92.9758009,292.007196 92.4240358,286.07952 92.1481533,285.271272 C91.8722707,284.463023 93.7344779,273.956572 93.7344779,271.531046 C93.7344779,269.107081 91.5963882,238.394416 91.5963882,238.394416 L91.5963882,222.500162 C91.5963882,222.500162 93.527566,220.074636 96.0097251,217.380734 C98.492668,214.686832 101.25071,213.340272 100.698945,207.951688 C100.147179,202.563884 99.5961981,194.211463 99.8720807,190.440156 C100.147179,186.66885 105.113065,162.69133 104.837183,154.070532 C104.5613,145.449734 103.45777,127.39911 103.181887,122.011307 C102.906005,116.622723 102.906005,93.9925437 102.906005,93.9925437 C102.906005,93.9925437 103.45777,91.8369542 104.5613,90.4903934 C105.664047,89.1430524 105.733017,89.5471767 106.76836,87.7964916 C107.802136,86.0450263 105.113065,84.024405 103.871594,81.8025016" id="Fill-1" fill-opacity="0.8" fill="#B75085" mask="url(#mask-2)"></path>
            </g>
        </g>
    </g>
</svg>