<?xml version="1.0" encoding="UTF-8"?>
<svg width="148px" height="411px" viewBox="0 0 148 411" version="1.1" xmlns="http://www.w3.org/2000/svg" xmlns:xlink="http://www.w3.org/1999/xlink">
    <!-- Generator: Sketch 51.3 (57544) - http://www.bohemiancoding.com/sketch -->
    <title>Group 9</title>
    <desc>Created with Sketch.</desc>
    <defs>
        <polygon id="path-1" points="0 0 148 0 148 411 0 411"></polygon>
    </defs>
    <g id="The-Corporation-App-(Mobile)" stroke="none" stroke-width="1" fill="none" fill-rule="evenodd">
        <g id="The-Corporation_Intro.-Animation_3" transform="translate(-119.000000, -123.000000)">
            <g id="Group-9" transform="translate(119.000000, 123.000000)">
                <mask id="mask-2" fill="white">
                    <use xlink:href="#path-1"></use>
                </mask>
                <g id="Clip-2"></g>
                <path d="M87.5433239,47.3432889 C87.8475913,46.1406443 88.223241,44.9811981 88.7666394,43.9150606 C88.8915586,44.6909046 88.9932785,45.1911426 88.9932785,45.1911426 L88.1830885,49.0798663 C88.0983219,48.9554548 88.012663,48.8319072 87.9278964,48.7074957 C87.668243,48.3247575 87.4407117,47.7493543 87.5433239,47.3432889 M56.2278733,49.3416488 C55.5140495,49.6250306 54.9376368,49.9974012 54.4691899,50.4397532 C54.3059027,48.893249 54.3139332,46.563989 55.4114373,44.6934965 C57.7286879,40.745159 57.2325803,38.8496113 57.2325803,38.8496113 C57.2325803,38.8496113 57.2415031,38.7779019 57.2557796,38.6569463 C59.2910697,40.0462082 59.3945742,42.3365895 59.3865437,44.6477062 C59.3785131,46.870698 58.4487576,48.4604006 56.2278733,49.3416488 M146.620275,219.385402 C145.703903,214.643077 142.945867,210.433821 142.476527,205.481552 C141.619047,196.444438 140.178015,187.458298 139.242013,178.427232 C138.529082,171.55004 137.742091,164.711727 136.053898,157.971042 C134.611081,152.20837 133.265523,146.411139 132.223341,140.572438 C131.148144,134.549711 130.545855,128.451819 129.633053,122.401445 C129.028087,118.383126 129.726742,117.177026 133.753601,115.998572 C135.699663,115.429217 136.369765,114.466755 135.872765,112.599719 C135.124142,109.7875 134.279153,106.996017 133.43238,104.207989 C130.55567,94.741483 127.606685,85.2939838 124.794219,75.8101979 C123.407617,71.1352626 120.959201,67.2741859 115.680474,66.3704745 C108.468177,65.135863 102.134775,62.0497664 95.8352797,58.7865561 C95.0241974,58.3666672 94.2452372,57.7221465 93.7178998,57.0033244 C93.2164386,56.3190611 92.7337152,55.6218383 92.2429614,54.9297992 C92.5463365,54.1392677 92.8952179,53.3876149 93.1709323,52.1884261 C93.7580524,49.6388541 93.642056,45.9574829 93.642056,45.9574829 L94.4451078,41.520139 C94.4451078,41.520139 94.6191024,40.2483769 94.2800361,38.7701262 C94.5602119,38.4789687 94.786851,38.1696679 94.9055242,37.8379038 C95.9825059,34.8200607 96.6606385,31.6622546 97.3039722,28.5243198 C97.4395987,27.8607918 97.2834498,26.135446 95.5461811,25.3457785 C94.2220379,25.0295659 94.3433879,23.8735756 94.4558152,22.2182113 C95.1455474,12.0890408 86.6108915,2.89122859 77.2473077,0.681196315 C68.8125871,-1.30938787 60.0521844,0.82547911 56.1109847,10.2461952 C53.2833501,17.0041594 52.4392534,24.0411856 51.9993595,31.1887997 C51.9493918,31.9827871 51.9957904,32.7171606 52.1340937,33.398832 C51.4238391,34.866715 50.7064461,36.7596707 50.7367836,38.3839321 C50.7965664,41.5676573 49.3260893,42.657986 48.9254557,45.8132001 C48.6256497,48.1683792 49.2779062,50.9512228 49.2779062,50.9512228 L48.6943553,55.4196696 C48.6943553,55.4196696 48.5908508,56.6413215 48.9700697,58.0608223 C42.3582767,59.9114435 35.7500527,61.7784802 29.6754121,65.0149074 C26.6247076,66.6400328 23.6070174,68.1562981 22.3961938,71.7305371 C19.2990907,80.8721913 16.0601152,89.9706471 12.793479,99.0587352 C11.2525118,103.345749 9.47509056,107.555005 7.88415574,111.825603 C6.95886163,114.308649 7.53705891,115.890576 9.62142444,117.197761 C13.6563135,119.727462 14.0828233,120.70029 12.9871037,125.160962 C11.5407182,131.048045 9.73474397,136.874651 8.68006929,142.823076 C7.04987416,152.009657 5.86492664,161.271403 4.60859673,170.515869 C3.93938691,175.43358 3.57622905,180.390169 2.94717181,185.313927 C2.71964047,187.102343 1.89606625,188.829417 1.7309945,190.617832 C1.10193726,197.433682 0.730748881,204.272859 0.0686772969,211.086118 C-0.496135793,216.912723 2.50281649,221.251575 6.12458005,225.400353 C6.31285108,225.615482 6.64299459,225.770132 6.93566235,225.843569 C11.2712497,226.941674 15.6104062,228.025091 19.9531318,229.094684 C20.1824477,229.151706 20.5108067,229.13961 20.6928317,229.019519 C21.1898316,228.690347 21.7992586,228.359447 22.0232209,227.882536 C22.1267253,227.662224 21.5172982,226.97796 21.089004,226.722226 C20.2895213,226.244451 19.3883187,225.92219 18.5245919,225.543772 C15.3605679,224.156238 13.2994016,221.06755 13.6420371,218.219908 C13.8570765,216.425445 15.0464854,215.827579 16.5133933,216.945554 C18.0936208,218.149063 19.4909309,219.571156 20.9721153,220.893892 C21.5360361,221.39845 22.109772,221.89264 22.737937,222.443852 C24.3003188,220.340952 24.5474803,218.441084 23.5659726,216.251787 C22.9297771,214.834878 22.3506875,213.193338 22.4738221,211.707311 C22.8610716,207.022872 21.015837,203.096134 18.6263118,199.232465 C16.3617058,195.570965 14.6110529,191.694337 15.9753486,187.334751 C17.3173374,183.049465 18.9635936,178.852305 20.4037331,174.59553 C22.2132765,169.250155 24.1968144,163.942794 25.646769,158.508431 C27.0530019,153.240813 28.517233,147.862607 28.7983011,142.477489 C29.1543207,135.663367 31.6482427,129.493765 33.4934772,123.106444 C33.5907357,122.769496 33.9788774,122.508577 34.2322849,122.212236 C34.4651699,122.268394 34.6971626,122.325416 34.9309399,122.381574 C34.9309399,123.494366 34.8863259,124.608885 34.9389704,125.719949 C35.0995808,129.155953 35.1308106,132.608373 35.5305519,136.02105 C35.8660491,138.883379 36.7360219,141.625616 36.3148658,144.620132 C34.9844767,154.098734 33.929802,163.612758 32.7163015,173.106048 C31.8258063,180.073957 30.8416218,187.031497 29.9252504,193.99595 C29.5531698,196.8194 29.3854212,199.549542 30.5552,202.37904 C31.2422554,204.039588 30.9558336,206.160631 30.7470401,208.038036 C30.5667996,209.656249 30.4133275,211.086982 31.4787095,212.532402 C31.9694634,213.200249 32.1389965,214.214549 32.1291815,215.06815 C32.00337,225.970573 31.926634,236.875587 31.6116592,247.774554 C31.3957275,255.270348 30.8674979,262.75923 30.3874514,270.245519 C30.2759164,271.986417 30.5507386,273.44134 31.88202,274.718286 C32.325483,275.144223 32.7671615,275.939938 32.6574111,276.461775 C32.0622605,279.305097 33.7772222,282.563123 31.0031244,285.03321 C30.7318714,285.275985 30.6479971,285.834109 30.6747654,286.233263 C30.8050383,288.221255 30.670304,290.295644 31.2333326,292.173912 C33.1740411,298.644175 33.5131074,305.304511 34.0493675,311.931152 C34.8095899,321.327677 37.0224437,330.464147 39.1139474,339.624809 C40.0909938,343.90059 41.4294134,348.071832 38.7356208,352.289728 C38.2511129,353.047428 38.3983391,354.759814 38.994382,355.450126 C40.8190941,357.565985 42.9703806,359.433886 45.0636689,361.326842 C45.972902,362.150204 45.9033042,362.822372 45.4295036,363.87555 C44.4694106,366.013009 43.513779,368.209217 43.0328402,370.47368 C42.2039123,374.373635 41.6292841,378.330612 41.1501299,382.286725 C40.4666436,387.932762 40.2132361,393.79911 43.2568024,398.776435 C47.711063,406.059692 48.8549656,406.762962 57.0978461,405.225962 C59.8871126,404.706717 61.4718015,402.813761 62.3390974,400.436119 C64.7286226,393.882915 65.3451879,387.229491 63.2599301,380.462023 C62.4042338,377.687819 62.3025139,374.885104 62.9851079,372.022776 C63.5856122,369.503443 63.9193249,366.926224 64.4002637,364.379243 C64.5019835,363.837535 64.726838,363.316562 64.8945866,362.786085 C65.1390713,362.786085 65.3826637,362.785221 65.6271483,362.785221 C65.7654517,363.847903 66.06615,364.916632 66.0126132,365.970674 C65.8439723,369.312505 66.3302648,372.460808 68.2379589,375.361151 C69.297095,376.969861 69.5344414,378.781604 68.8750467,380.608034 C67.2466361,385.116223 67.4946899,389.58467 69.4505671,393.896739 C70.7497264,396.760795 70.8648305,399.618804 70.3651539,402.602089 C70.1956207,403.61466 70.0269798,404.645375 70.040364,405.663994 C70.0831935,408.822664 71.2342344,410.089242 74.5035474,410.460749 C76.3880423,410.674149 78.3001978,410.700068 80.2007537,410.742403 C84.9557126,410.846943 89.7115637,410.903965 94.4665225,410.999002 C97.8322018,411.066391 100.012041,407.710736 98.5165804,404.449254 C97.7858033,402.856095 96.7257749,401.4029 95.8352797,399.874539 C95.0393662,398.508604 93.9070631,397.208331 93.5519358,395.741312 C91.9467245,389.100848 92.1644408,382.564059 95.4284001,376.314109 C95.8406334,375.523577 96.2037912,374.63369 96.2760659,373.767129 C96.9425989,365.738266 97.4074766,357.692989 98.1989288,349.677086 C98.8467239,343.110059 99.8924758,336.579318 100.698204,330.026115 C101.310308,325.05311 102.326615,320.150087 101.834969,315.037984 C101.479841,311.350565 102.207942,307.572429 102.391751,303.831444 C102.453319,302.575233 102.572884,301.247313 102.243633,300.059356 C100.691066,294.473797 100.893614,288.914158 102.174035,283.334647 C103.62399,277.016443 105.266677,270.730206 106.442702,264.365348 C107.144033,260.572524 107.015545,256.645786 107.429563,252.795077 C108.154094,246.053528 109.098126,239.333579 109.782505,232.588574 C110.437438,226.145094 110.839856,219.678288 111.430545,213.227896 C111.672353,210.598839 112.775211,209.426434 115.460973,208.869174 C117.079569,208.533954 117.937942,207.534342 118.163688,206.177047 C118.355529,205.024512 118.164581,203.784717 117.966495,202.609719 C117.624752,200.584577 116.930558,198.594856 116.763702,196.561938 C116.082892,188.296348 115.55377,180.03335 113.74155,171.878348 C112.031942,164.184706 110.759551,156.403802 109.184677,148.682513 C108.386087,144.766142 107.364427,140.889514 106.411472,137.003382 C105.465655,133.150945 106.432886,129.557699 107.958685,126.030978 C108.347719,125.131587 108.753706,124.239107 109.150771,123.343171 C109.716476,124.354879 110.53202,125.309564 110.806842,126.388661 C112.263935,132.104679 113.314148,137.879447 113.893238,143.714692 C114.024403,145.374376 114.116307,147.096266 114.164491,148.93652 C114.215351,149.187935 114.262641,149.421206 114.311717,149.663118 C114.332239,150.165083 114.361684,150.666185 114.375069,151.169879 C114.432175,153.36868 114.903298,155.409374 115.906221,157.266043 C116.65752,160.595779 117.445403,163.594615 118.798992,168.206481 C120.377435,174.313876 120.511277,175.685859 122.10935,181.789799 C123.891232,188.599601 127.124854,193.817109 128.937074,200.619999 C129.987288,204.561425 129.585762,208.277355 127.131992,211.738414 C126.407461,212.759625 125.940799,213.977821 125.521427,215.159731 C124.143747,219.042407 124.265098,223.055542 124.787081,227.031526 C124.831695,227.370202 124.889693,227.727021 124.953937,228.089888 C125.173438,229.400529 125.476813,230.695618 125.870309,231.988116 C126.694775,234.868588 127.76105,237.536523 128.499857,238.358158 C128.673852,238.696834 128.844277,239.034645 129.030764,239.377641 C129.952489,238.427275 130.903659,237.80781 131.318569,236.950753 C132.568653,234.370942 133.609943,231.697822 134.760092,228.998783 C135.214262,229.136155 135.675571,229.266614 136.131526,229.412625 C136.437578,230.189333 136.963131,231.8542 136.525914,233.306532 C136.511637,233.354914 136.48933,233.405025 136.471485,233.455135 C134.562898,235.806858 132.705172,238.198324 130.916151,240.634716 C130.190727,241.622232 129.550071,243.062468 130.74751,243.912613 C131.315,244.314359 132.752463,243.606768 133.791969,243.389912 C133.90618,243.365721 134.002547,243.258589 134.107836,243.190335 C136.881041,241.384641 139.71046,239.650655 142.41496,237.754244 C145.228318,235.780075 147.940849,233.387745 147.997062,229.905951 C148.053276,226.404285 147.292161,222.862013 146.620275,219.385402" id="Fill-1" fill="#422035" mask="url(#mask-2)"></path>
            </g>
        </g>
    </g>
</svg>