<?xml version="1.0" encoding="UTF-8"?>
<svg width="145px" height="288px" viewBox="0 0 145 288" version="1.1" xmlns="http://www.w3.org/2000/svg" xmlns:xlink="http://www.w3.org/1999/xlink">
    <!-- Generator: Sketch 51.3 (57544) - http://www.bohemiancoding.com/sketch -->
    <title>Group 12</title>
    <desc>Created with Sketch.</desc>
    <defs>
        <polygon id="path-1" points="0 0 145 0 145 288 0 288"></polygon>
    </defs>
    <g id="The-Corporation-App-(Mobile)" stroke="none" stroke-width="1" fill="none" fill-rule="evenodd">
        <g id="The-Corporation_Intro.-Animation_3" transform="translate(-96.000000, -56.000000)">
            <g id="Group-12" transform="translate(96.000000, 56.000000)">
                <mask id="mask-2" fill="white">
                    <use xlink:href="#path-1"></use>
                </mask>
                <g id="Clip-2"></g>
                <path d="M120.881643,149.105285 C120.992449,147.842213 120.047871,146.696082 119.499808,145.553916 C118.176107,142.797852 116.28248,141.623477 113.104407,142.938579 C110.772031,143.902855 108.23146,144.366163 105.432509,145.151557 C106.311995,148.539405 106.646895,151.899008 101.034087,150.62999 C101.631343,155.011845 102.281764,158.9626 102.691197,162.938131 C103.825585,173.97428 105.095125,184.783483 102.862622,196.110996 C100.643536,207.370623 101.592089,219.101983 104.672276,230.535041 C106.310007,236.612058 106.563419,243.082021 107.160177,249.401346 C107.344024,251.343276 106.747763,253.411563 106.242431,255.352998 C105.407665,258.560973 104.370667,261.612366 106.652361,264.787142 C107.328124,265.727632 107.34303,267.627444 106.887884,268.786457 C105.938338,271.205075 106.88689,272.897264 107.92687,274.958119 C109.39566,277.86928 110.457503,281.025721 111.338976,284.175226 C111.907909,286.210809 110.882339,287.807859 108.555926,287.887142 C105.679958,287.984759 102.766227,288.12499 99.9245442,287.781597 C97.1966481,287.452078 94.9174387,285.75196 94.9388047,282.858638 C94.9566926,280.500969 93.8044173,279.015905 92.7932573,277.219162 C92.1299164,276.039832 91.9435847,274.531974 91.7925318,273.144032 C91.6116658,271.482564 91.8521579,269.77204 91.6345225,268.118501 C91.0834776,263.93733 90.3421258,259.782422 89.7438768,255.608189 C88.7814115,248.891955 87.8706221,242.168783 86.9424418,235.447594 C86.1479234,229.692662 85.7101681,223.859935 84.4649755,218.204106 C83.3087252,212.952124 81.0523725,207.948891 79.7222125,202.724163 C78.243981,196.917202 77.2661122,190.983884 76.0696143,185.105569 C75.7168263,185.121921 75.8097437,185.117461 75.4564588,185.133318 C75.1011863,188.26201 74.6728718,191.385253 74.4149888,194.522369 C73.9459297,200.233695 73.4192321,205.947499 73.217497,211.670718 C72.997874,217.884498 72.8716654,224.121567 73.1618459,230.326924 C73.4738894,236.998562 74.388157,243.639973 74.8949792,250.305169 C75.119571,253.257953 73.7307787,255.831667 72.8378772,258.583767 C71.4302033,262.921521 70.454819,267.746863 72.2033557,272.594504 C74.6137426,279.276547 71.5658528,282.456278 64.5249988,281.060407 C63.9461284,280.944952 62.9046584,281.24028 62.6547254,281.674353 C59.8632281,286.534877 55.0141319,286.27919 50.4780729,286.463522 C48.648544,286.538345 46.7101974,285.859983 44.9547043,285.181125 C43.6846674,284.690068 41.6688068,283.615292 41.6827196,282.83188 C41.7150171,281.089643 42.4414623,278.171545 43.5365958,277.833602 C50.0900061,275.811398 53.1279581,270.318595 56.9012993,265.499695 C57.0916061,265.255405 57.3778116,265.087425 57.3986808,265.069586 C56.5514926,262.768406 55.7072858,260.678317 55.0141319,258.539171 C54.2653268,256.223621 53.7644672,253.895188 57.2034051,252.676216 C54.3706664,251.031101 54.1102989,248.648161 54.9654372,246.209227 C56.6150938,241.502313 55.5159852,236.937117 54.4466897,232.409085 C53.2506886,227.3454 53.6134143,222.369916 54.5604763,217.359746 C54.6578656,216.843417 54.8645696,216.273078 54.7408454,215.799859 C52.2782856,206.384049 52.3741843,196.607999 50.4581975,187.037093 C48.3156314,176.339382 49.3138724,165.015337 48.9665501,153.963827 C48.936737,153.025318 49.0629457,152.081854 49.1225718,151.035323 C47.1802502,150.615125 45.3646341,150.223171 43.1753608,149.749952 C44.9427791,146.618286 44.7653913,144.036644 41.9540186,141.839523 C41.121737,143.883034 40.3068463,145.884426 39.482018,147.908612 C36.7894007,147.485441 34.2518113,147.222321 31.7996861,146.615313 C31.1154761,146.446342 30.1614578,145.220434 30.2151213,144.550495 C30.909269,135.959721 31.7127313,127.376875 32.5937076,118.802948 C33.1830127,113.074279 36.6294038,108.079966 36.6015783,102.080249 L36.6711421,102.080744 C36.8385922,96.2633775 37.132251,86.5249866 37.2321248,86.1256001 C37.3752275,85.5557559 30.0844407,79.5679313 27.5110756,77.8569119 C24.9377106,76.1463881 19.6483746,72.1540095 15.50237,65.3109231 C11.3563654,58.4678366 6.78154946,47.9177892 5.35201263,45.0665858 C3.92197893,42.2148868 2.7786476,41.5023337 1.77792213,39.0782657 C0.777196666,36.6546932 0.062676696,35.9421401 1.34911077,35.3718003 L2.63554485,34.8014605 C2.63554485,34.8014605 2.7786476,32.6628102 3.20745896,32.3778881 C3.63627031,32.0924704 4.63749266,31.5221306 4.63749266,31.5221306 C4.63749266,31.5221306 3.44546665,29.6233104 2.73094668,27.4851556 C2.01543294,25.3460097 1.70935206,25.3380814 1.99506068,22.7713046 C2.28176306,20.2050233 3.06485309,19.8314037 1.77792213,18.6917151 C0.491488055,17.5510355 -0.2235288,15.982725 0.062676696,15.4118897 C0.348385307,14.8420454 1.06290528,13.9862879 1.06290528,13.9862879 C1.06290528,13.9862879 0.205282559,11.9903464 0.205282559,10.8496668 C0.205282559,9.70997829 1.49221352,7.85575457 1.49221352,7.85575457 C1.49221352,7.85575457 2.09443758,7.35280506 2.7786476,7.00098816 C3.88620324,6.4316394 3.94831381,6.24482958 5.63772125,7.2859103 C7.14228764,8.21203112 8.06798354,9.13914298 8.92610314,10.4225314 C9.78372586,11.7054243 10.7188626,12.7603795 11.0279247,15.0204314 C11.3434464,17.3250799 11.0706568,18.4058019 11.4989713,18.5485108 C11.9282795,18.6917151 12.0872826,15.5496433 13.7866277,14.9842587 C15.0735587,14.5571233 15.3592673,14.6993366 15.6449759,15.2696764 C15.9311814,15.8400161 15.50237,20.5449478 15.50237,20.5449478 C15.50237,20.5449478 14.7873532,23.1107336 13.7866277,24.2514132 C12.7859023,25.3920928 12.2139881,26.3900635 12.3570909,27.2453254 C12.5001936,28.1005874 14.2154391,28.1005874 14.9304559,28.813636 C15.6449759,29.5266846 16.0737873,31.9497616 16.7888041,32.9482278 C17.503821,33.9461986 18.3614437,36.2270623 19.3621692,37.3677418 C20.3628946,38.5084214 21.7924314,41.216916 21.7924314,41.216916 C21.7924314,41.216916 21.3636201,42.7857221 22.3643455,43.4982752 C23.365071,44.2108283 24.9377106,44.6384593 25.6527274,47.7750804 C26.3672474,50.9117015 26.9391615,52.1945944 26.9391615,52.1945944 L27.939887,53.7629049 L30.513252,56.0437686 C30.513252,56.0437686 31.3703779,56.899526 31.6570802,57.8974968 C31.9427888,58.8954675 32.2284975,60.4632826 32.2284975,60.4632826 C32.2284975,60.4632826 32.514703,61.1763312 34.2299484,61.746671 C35.9456907,62.3175063 38.0902444,64.170739 38.0902444,64.170739 C38.0902444,64.170739 39.8054898,65.0260009 41.0924208,65.8812628 C42.3793517,66.7365248 44.8091171,67.7344955 44.8091171,67.7344955 L46.0960481,69.3028061 C46.0960481,69.3028061 46.238654,69.1605928 48.6694131,68.3053308 C51.0996754,67.4495734 51.8141954,67.1646513 52.9580236,67.3068646 C54.1023487,67.4495734 55.2451832,68.1621265 56.8178227,68.4475442 C58.3904623,68.7324663 63.8397951,69.8379642 66.0077023,68.7572421 C68.1766033,67.6760246 69.4769502,66.4322775 68.1766033,64.053797 C67.7860521,63.3407484 67.4978591,62.8363123 67.2866831,62.4800358 C66.9030883,61.834873 66.6119139,61.1411495 66.3967629,60.4231457 C65.6911869,58.0679546 64.6904614,56.1577374 65.2494565,54.4868549 C66.2665792,51.443391 67.3969915,51.9810267 67.3969915,51.9810267 C67.3969915,51.9810267 68.040457,48.3454202 70.613822,45.5655711 C73.1871871,42.7857221 74.474118,41.9299647 75.7600552,41.2882705 C77.0469862,40.6465763 79.8350053,40.2194408 81.9790621,40.8606395 C84.1236158,41.5023337 86.1255636,44.5581856 87.1759775,46.6527349 C88.0803074,48.457407 89.2703459,49.8423763 89.2703459,53.4779828 C89.2703459,57.1135893 89.7910809,58.568922 88.198069,61.1763312 C86.6055541,63.7837404 77.2825094,73.0811214 93.7736105,69.5168693 C93.7736105,69.5168693 96.9899441,67.8063455 99.7779633,67.3777235 C102.565982,66.950588 104.495385,67.5922822 106.211624,67.3777235 C106.761675,67.3098377 107.312224,67.1527589 107.806127,66.9713997 C109.216285,66.4540802 110.74818,66.3708334 112.206536,66.7345427 L112.215977,66.7365248 C112.215977,66.7365248 113.931223,66.0953261 114.574688,65.8812628 C115.218153,65.6671996 115.646468,63.1014138 117.576864,62.4597196 C119.506267,61.8180254 120.149733,62.0315931 121.651318,60.7487002 C123.151909,59.4658073 125.082305,59.4658073 124.867651,56.899526 C124.653494,54.3332447 123.151909,52.6227209 124.43884,50.4840705 C125.725274,48.3454202 126.797551,45.5655711 126.797551,45.5655711 C126.797551,45.5655711 127.226859,43.2128576 127.012205,42.1440279 C126.797551,41.0742072 127.226859,37.652664 127.869828,36.7974021 C128.513293,35.9421401 128.018893,34.2256701 128.138145,33.5596955 C128.663352,30.6267318 129.156262,29.3126214 129.156262,29.3126214 L130.014381,27.1744665 C130.370151,26.0674821 130.96194,25.0511772 131.749999,24.1959153 L132.158438,23.7524278 C132.158438,23.7524278 129.799727,22.6831026 128.942105,20.7585155 C128.083985,18.8339284 126.583394,17.3369723 126.797551,16.0535839 C127.012205,14.770691 126.583394,12.4179774 127.012205,11.3491477 C127.441016,10.2798226 128.083985,8.99643416 128.72745,9.63812836 C129.370916,10.2798226 129.58557,13.2737348 130.229035,14.770691 C130.872004,16.2676471 130.705548,13.4114885 130.76418,9.25955356 C130.76418,9.25955356 130.156987,5.86030857 131.729627,3.00860961 C133.302266,0.157406166 133.445369,1.01316361 134.302992,1.01316361 C135.160615,1.01316361 135.303717,0.157406166 136.161837,0.0146973392 C137.01946,-0.127515971 137.733483,0.789685554 138.162791,1.58300789 C138.746133,2.66075684 139.266868,3.83562709 139.691208,4.96490979 C140.321754,6.64124299 140.736156,7.9984634 140.736156,7.9984634 C140.736156,7.9984634 142.16619,6.85827933 142.451898,8.71151202 C142.737607,10.5647447 141.737378,13.7013658 142.16619,15.2696764 C142.594504,16.8379869 143.452624,18.2635886 143.452624,20.5449478 C143.452624,22.8258114 142.308796,24.6795397 142.16619,25.3920928 C142.023087,26.1046459 142.594504,27.6734519 142.594504,27.6734519 C142.594504,27.6734519 144.452852,28.5282183 144.882161,29.6688979 C145.310972,30.8095775 144.452852,35.7994313 144.167144,38.2230038 C143.881435,40.6465763 143.024309,46.2067698 142.594504,48.488129 C142.16619,50.7689927 141.252419,57.3385539 141.022361,59.7507295 C140.736156,62.7446417 140.59355,67.0219424 137.591374,69.5877282 C134.589197,72.1540095 129.58557,77.1438633 126.583394,79.2825137 C123.581217,81.421164 122.723098,81.848795 122.723098,81.848795 C122.723098,81.848795 120.435938,82.2769214 120.579041,84.8432028 C120.69084,86.8559918 121.659268,99.1388613 122.071682,104.341787 C122.544219,106.622155 123.198119,108.875766 123.646806,111.163567 C124.625669,116.146483 125.458944,121.158635 126.457185,126.137588 C126.852208,128.11024 127.720762,129.998159 128.012434,131.978739 C128.280254,133.795799 128.017899,135.686691 128.08001,137.541906 C128.104854,138.273784 128.33988,139.006158 128.538137,139.72218 C130.454124,146.643062 130.38456,146.786762 123.574261,149.572557 C123.574261,149.572557 120.80562,149.97343 120.881643,149.105285" id="Fill-1" fill="#E6C7D7" mask="url(#mask-2)"></path>
            </g>
        </g>
    </g>
</svg>