<?xml version="1.0" encoding="UTF-8"?>
<svg width="161px" height="340px" viewBox="0 0 161 340" version="1.1" xmlns="http://www.w3.org/2000/svg" xmlns:xlink="http://www.w3.org/1999/xlink">
    <!-- Generator: Sketch 51.3 (57544) - http://www.bohemiancoding.com/sketch -->
    <title>Group 7</title>
    <desc>Created with Sketch.</desc>
    <defs>
        <polygon id="path-1" points="0 0 172 0 172 341 0 341"></polygon>
    </defs>
    <g id="The-Corporation-App-(Mobile)" stroke="none" stroke-width="1" fill="none" fill-rule="evenodd">
        <g id="The-Corporation_Intro.-Animation_3" transform="translate(0.000000, -57.000000)">
            <g id="Group-7" transform="translate(-11.000000, 56.000000)">
                <mask id="mask-2" fill="white">
                    <use xlink:href="#path-1"></use>
                </mask>
                <g id="Clip-2"></g>
                <path d="M94.6806862,74.7144826 C96.2642141,74.0002256 97.5280922,73.4302205 99.1039092,72.7194648 C97.8484429,72.2208854 96.9680042,71.8714597 95.7524941,71.3889861 C96.7394827,70.643918 97.3135904,70.210462 97.8883991,69.7763058 C97.7629226,69.5900388 97.7082456,69.4170765 97.6339411,69.4079732 C93.7869288,68.9479077 93.1819777,68.1517212 93.0011233,64.1770911 C92.7165229,57.912637 92.3464022,51.6495834 91.8802464,45.3956331 C91.7610787,43.7962576 91.1456128,42.2332952 91.0790191,40.4560557 C91.8339813,41.7473203 92.5896444,43.0378847 93.6558444,44.8620411 C93.5289659,43.6401014 93.5689221,42.874726 93.3600282,42.1849778 C91.7757994,36.9638992 87.4661362,35.2790929 82.7709307,34.056453 C81.6402399,33.7630474 80.4822107,33.333793 79.5176537,32.6944629 C76.7361405,30.8485987 73.8578911,30.8233897 70.7770568,31.7351177 C63.8660338,33.7805537 57.4190637,36.7496221 54.8289197,43.9734213 C53.2313721,48.4312254 52.93135,53.3645005 52.171481,58.1038058 C51.9436605,59.524617 52.0572202,61.0161537 52.1546573,62.4663755 C52.2170451,63.3977106 52.121711,64.5643304 53.5741544,64.7127838 C53.7402881,64.7295899 53.9407702,65.0657108 54.0073639,65.2883909 C54.8485473,68.1188094 56.0619544,70.7027391 58.8294479,72.2895101 C58.7705651,72.4981852 58.7116823,72.7075605 58.6527994,72.9162356 C57.9342886,72.9162356 57.1926452,73.0345782 56.5014728,72.8959283 C52.780638,72.1543615 49.0485875,71.4401044 45.3740178,70.5094696 C44.3001069,70.2370716 43.2240931,69.4471874 42.4495034,68.615288 C39.3918015,65.3318066 36.2527853,62.0889397 33.5371648,58.53236 C31.5267364,55.8987123 29.7875896,52.9401478 28.5237115,49.8814472 C26.2952763,44.4874063 23.7549023,39.314645 20.8808589,34.220312 C18.5234423,30.043309 17.321251,25.2059684 15.7272084,20.6186178 C15.4657405,19.8658469 15.6346782,18.8231717 15.9339993,18.0388895 C17.4179871,14.1524911 16.9420175,10.6351255 14.4184671,7.29632412 C13.3683898,5.90562372 12.5713685,4.30974949 11.7673373,2.75098861 C10.1908193,-0.304210714 7.54459644,-0.877016822 4.92571199,1.34628317 C4.63690567,1.59137136 4.31795695,1.84696333 4.13990646,2.16837898 C2.14840466,5.77047509 0.250835009,9.45099942 0.0202105483,13.6392064 C-0.211114898,17.8407182 1.56518414,21.5513534 4.22682874,24.5547341 C7.58174871,28.3395959 9.51506865,32.7119692 10.816099,37.4267657 C12.7403062,44.3984743 14.6582044,51.3981929 18.2255232,57.7186672 C23.0994803,66.3534742 28.3302393,74.7873088 33.3612173,83.3338841 C33.6535285,83.8303627 33.7509656,84.6531588 33.5581944,85.187451 C32.3370764,88.5661668 32.5004062,89.272721 35.8945814,91.6360714 C40.3409369,94.7318853 42.4957684,99.1301679 43.2409168,104.171982 C44.3330533,111.554739 43.4435018,118.92279 42.6037203,126.313949 C42.0303136,131.359965 42.5777838,136.525023 42.41866,141.63056 C42.367488,143.284556 41.7485172,144.945553 41.2304884,146.552632 C40.8849022,147.625418 40.3072895,148.635181 39.7486035,149.626037 C37.5215704,153.573358 39.6644852,157.466058 42.2399085,159.114452 C43.3040055,159.795096 43.4778501,160.435827 43.1567984,161.601046 C41.6952422,166.905455 39.8677712,172.165748 39.0321956,177.574494 C37.6442429,186.555926 35.9317337,195.625589 38.1335313,204.741469 C39.4394686,210.149515 41.0867862,215.477732 42.3401495,220.897683 C43.5914099,226.30923 44.8419693,231.70187 45.1188588,237.340299 C45.2555511,240.142007 43.7463278,242.028486 43.1743231,244.372929 C42.568671,246.860224 41.3440481,249.199066 40.3619665,251.591827 C38.5520201,256.001314 38.6193148,260.551551 38.8962043,265.226433 C39.1121081,268.863542 38.657869,272.559472 38.2786355,276.206384 C37.9582848,279.28119 36.5486015,282.322384 36.0607151,285.380385 C35.9815037,285.878264 35.813968,286.445468 35.967484,286.882425 C37.2594015,290.566451 35.8602331,294.111126 35.4284256,297.690814 C35.0477901,300.844049 34.7071108,303.906951 35.4922153,307.106402 C36.0074402,309.206458 35.661854,311.51869 35.6926974,313.736388 C35.7473743,317.640293 38.9228418,320.763416 42.6927456,321.799089 C45.1735357,322.480434 47.3227594,321.473472 48.6399125,318.920353 C50.7716115,314.789567 50.796847,310.40599 50.1007678,305.948186 C49.836496,304.257077 49.5462877,302.568069 49.3423007,300.868558 C48.968675,297.757338 49.2133192,294.823283 50.4148096,291.770884 C51.4747007,289.077715 51.5707358,285.970697 51.8763658,283.024037 C52.7568045,274.525079 54.3150968,266.224292 58.571485,258.664372 C59.0257241,257.858382 59.7603576,257.212749 60.3393722,256.473283 C60.8412783,255.833953 61.465857,255.231036 61.7623742,254.501374 C63.9809955,249.040809 65.3913798,243.448597 65.8407119,237.488052 C66.6181056,227.19855 67.6212169,216.900644 70.1398603,206.837323 C70.2779546,206.286225 70.4665199,205.746331 70.6564871,205.209938 C70.7763558,204.868915 70.9438915,204.543998 71.2915806,203.751313 C71.7023585,204.713459 71.9883609,205.285565 72.1951518,205.88358 C74.2833897,211.926054 76.5517811,217.91671 78.3729432,224.039013 C79.6697677,228.397381 80.1464383,232.994535 81.3759681,237.376712 C82.9013141,242.814869 82.6854103,248.43089 83.0702518,253.920165 C83.4179409,258.883551 82.6678857,260.490629 81.534391,265.52334 C80.9336458,268.192 79.7875334,275.293955 80.8355078,279.830888 C81.075245,285.463715 81.9844241,288.712884 82.6973271,294.295293 C83.2532092,298.65156 82.7716317,302.850971 82.2255634,307.107103 C82.1134056,307.982418 82.0538218,308.901148 82.1898131,309.765259 C82.7295725,313.203496 81.3640514,316.21598 78.9526588,318.928756 C77.8738411,320.142293 77.8093503,321.848107 78.2621874,323.615543 C79.3452111,327.841563 80.9946316,332.121503 81.837918,336.403544 C82.3328143,338.914648 84.2072514,337.600275 85.4851492,337.857267 C86.8114151,338.124763 86.7903855,337.096093 86.8878226,336.173161 C86.9922696,335.183005 87.2278009,334.205453 87.4969796,332.720919 C87.8734092,333.588531 88.1278672,333.994677 88.2281082,334.435136 C88.9998941,337.815952 91.0145284,340.018945 94.4830081,340.453801 C97.5540287,340.83964 100.670613,340.999298 103.76757,340.999998 C106.087134,341.001398 106.551187,340.285041 106.739051,337.988214 C106.961263,335.28034 106.483191,333.155075 103.773178,331.615921 C102.236616,330.743407 100.913856,329.002581 100.160295,327.349986 C98.5914882,323.907548 97.3913999,320.288646 96.1983214,316.690051 C95.8064701,315.508025 95.3858783,314.036796 97.181104,313.292428 C97.4404689,313.18529 97.5154744,312.538257 97.6016957,312.125108 C100.439288,298.54092 103.407263,284.946229 104.188162,271.070736 C104.588425,263.964579 103.678545,256.787697 103.429695,249.640225 C103.321743,246.538109 103.206781,243.418486 103.414273,240.328274 C103.850988,233.830636 104.725818,227.355406 105.004811,220.853567 C105.393858,211.740488 105.585228,202.609202 105.485688,193.48912 C105.446432,189.92974 104.610156,186.326943 103.73883,182.842489 C102.690856,178.64798 101.761348,174.487783 101.802706,170.129415 C101.822334,168.111989 101.397536,166.093863 101.319026,164.069434 C101.295192,163.461616 101.580493,162.572996 102.03263,162.262084 C103.775982,161.067454 104.271579,159.557711 103.549564,157.649524 C102.479158,154.814905 101.351271,152.001992 100.228291,149.18768 C99.3254208,146.923065 98.8725837,144.662652 99.1515762,142.154349 C99.3927155,139.983568 99.1719048,137.721754 98.8690788,135.539069 C98.1842153,130.606494 99.1536792,125.848982 99.9324749,121.029148 C100.840252,115.414527 101.633067,109.762094 102.051556,104.094954 C102.396441,99.416571 104.790309,95.8375832 109.355131,94.4930994 C110.203325,94.2431095 111.1097,94.1716838 111.930555,93.8621724 C112.355352,93.7018147 112.68061,93.2263436 112.998157,92.8482075 C113.521793,92.2249833 113.869483,91.3377641 114.522802,90.9547262 C122.551197,86.243431 130.630063,81.6175665 138.678786,76.9398834 C143.594101,74.0828554 146.909766,69.7384922 149.922605,65.0363002 C154.542104,57.8272062 159.247824,50.6475228 162.223511,42.5897235 C163.763577,38.4211235 165.572823,34.5564329 168.50645,31.2092285 C169.332212,30.2666894 169.896506,29.0944676 170.561041,28.0160795 C172.990659,24.0722605 172.084985,20.4351518 169.765421,16.7567282 C168.774928,15.1846625 168.091466,13.6202996 165.852516,13.8786926 C165.67727,13.8982997 165.332385,13.5040578 165.266492,13.2505666 C164.787017,11.3899971 163.581321,11.253448 162.03144,11.798244 C161.737727,11.9018813 161.408264,11.9319921 161.093521,11.9417957 C156.87078,12.0867478 156.315599,12.8213121 155.689618,16.8344562 C155.105697,20.5787034 155.158972,24.2368197 155.47021,27.9929712 C155.830517,32.3534402 153.883177,36.1726144 151.373646,39.5940455 C145.636775,47.4151598 139.95388,55.2894931 133.856702,62.8249045 C132.094423,65.0019879 129.126447,66.366779 126.485131,67.6377363 C121.87124,69.8568348 117.230711,72.2741045 112.326612,73.5660694 C107.436532,74.854533 102.355083,76.166105 97.1362409,75.4581502 C96.420534,75.3608152 95.7356705,75.0415003 94.6806862,74.7144826" id="Fill-1" fill-opacity="0.8" fill="#D1B8C7" mask="url(#mask-2)"></path>
            </g>
        </g>
    </g>
</svg>