<?xml version="1.0" encoding="UTF-8"?>
<svg width="156px" height="361px" viewBox="0 0 156 361" version="1.1" xmlns="http://www.w3.org/2000/svg" xmlns:xlink="http://www.w3.org/1999/xlink">
    <!-- Generator: Sketch 51.3 (57544) - http://www.bohemiancoding.com/sketch -->
    <title>Fill 10</title>
    <desc>Created with Sketch.</desc>
    <defs></defs>
    <g id="The-Corporation-App-(Mobile)" stroke="none" stroke-width="1" fill="none" fill-rule="evenodd">
        <g id="The-Corporation_Intro.-Animation_3" transform="translate(-210.000000, -127.000000)" fill="#691446">
            <path d="M300.493363,179.996489 C303.224843,181.114718 306.817481,182.951049 310.622575,184.049449 C315.400719,185.426874 319.294337,187.844628 321.86081,192.035684 C328.216797,202.415595 333.096212,213.483157 336.726383,225.10098 C337.39208,227.228377 337.623657,229.171645 335.803614,231.02993 C335.282388,231.562487 335.35958,233.136081 335.717924,234.004319 C338.110891,239.807211 340.734727,245.515915 343.131943,251.31739 C348.140957,263.442985 353.043742,275.612487 358.01593,287.752953 C360.347285,293.446076 363.04973,299.009601 365.016368,304.824532 C367.23937,311.396516 365.463234,317.639193 362.001612,323.438544 C361.532791,324.222508 360.748827,324.818803 359.784275,325.852757 C358.445092,319.907519 357.294286,314.795818 356.10878,309.531857 C355.223545,311.764774 355.511069,314.351076 354.82271,316.642773 C354.584759,317.434527 353.652076,318.018074 353.032411,318.695809 C352.473651,318.07827 351.581334,317.543588 351.409244,316.833275 C349.89443,310.577143 346.886048,304.539132 348.749998,297.754691 C349.051687,296.653459 348.324377,295.166973 347.82298,293.962345 C343.259417,282.99393 336.558543,273.295296 329.636005,263.750338 C324.912392,257.235009 321.350206,250.172959 318.834723,242.549315 C318.423265,241.30078 317.809266,240.119522 316.804348,238.952429 C316.018967,244.987606 314.887283,251.041905 316.548692,256.977937 C317.4835,260.317043 319.874342,263.229112 320.989739,266.542015 C322.240398,270.255045 322.843066,274.193278 323.634821,278.051486 C325.582337,287.545454 323.007366,296.79793 322.090263,306.14247 C320.819773,319.078939 317.843259,331.641485 313.819335,343.977412 C313.1416,346.055943 312.327892,348.090567 311.436283,350.086949 C307.283469,359.38829 306.00094,368.793734 309.857732,378.500867 C310.380375,379.817388 310.611952,381.25076 311.012078,382.757784 C308.585118,383.655059 308.340085,384.044562 303.850882,383.723045 C306.431519,394.687919 306.02856,405.395721 303.048505,415.971092 C300.889948,423.632977 299.048659,431.386219 296.849027,439.035357 C295.991412,442.017537 297.022533,444.363055 298.111726,446.967062 C299.870157,451.172282 301.393469,455.492937 302.717073,459.854667 C303.098078,461.1117 302.814094,462.857384 302.214259,464.072634 C300.360931,467.825322 298.162008,471.405213 296.215907,475.116117 C295.864646,475.785355 295.895098,476.788149 296.060106,477.572113 C296.978626,481.9388 294.444021,483.624996 291.213267,485.009503 C284.292147,486.393303 277.781066,489.476045 267.681598,487.168768 C266.369326,487.172309 261.763271,484.811211 261.681121,484.086734 C261.438213,481.919679 261.749107,479.530961 262.499078,477.467301 C262.983479,476.133784 265.38282,472.340729 266.687302,471.53906 C271.868405,468.356463 274.010674,463.154823 275.015592,457.75064 C275.698286,454.078686 275.109073,449.968363 274.249333,446.247543 C271.87832,435.986608 268.951379,425.853855 266.464931,415.616998 C264.696586,408.336117 263.285875,400.967421 261.650669,393.336696 C257.37463,391.899075 255.52626,388.577673 255.996496,383.253516 C256.208953,380.851342 255.941258,378.335151 255.461815,375.957055 C253.801114,367.712331 252.26293,359.421575 250.076045,351.310698 C248.390558,345.063064 245.727771,339.083833 243.627286,332.941719 C240.841274,324.791891 238.16574,316.60453 235.469668,308.424959 C234.474664,305.408079 232.891156,302.397572 232.747394,299.328993 C232.45562,293.087733 233.192844,286.790525 233.527817,280.53935 C236.442719,277.212283 237.774112,273.878134 236.791147,269.692035 C236.501498,268.457664 237.172152,266.865657 237.737286,265.583837 C241.135172,257.878044 242.520388,250.081602 238.908629,241.062829 C237.555282,243.360899 236.324451,244.763111 235.937781,246.675218 C233.939982,256.552316 229.801332,265.852948 225.502631,274.967327 C222.768317,280.763846 222.977941,285.989565 224.496296,291.633823 C225.62019,295.810007 226.749042,300.040722 223.528203,304.030653 C222.961653,304.733176 223.614602,306.369798 223.589107,307.573009 C223.555822,309.133147 223.87734,311.738571 223.213768,312.036718 C221.708868,312.711621 219.420005,312.836262 217.934934,312.143654 C212.212068,309.472369 210.309166,305.237405 210.781528,298.120825 C210.892713,296.439586 210.369362,294.717981 210.159031,293.012665 C210.077589,292.354758 209.949407,291.678439 210.020934,291.029739 C211.03081,281.816921 211.746788,272.555239 213.200698,263.411824 C214.532799,255.035377 216.49448,246.742496 218.564514,238.509811 C219.14806,236.189787 219.107694,234.660101 217.21754,233.317377 C214.146129,231.134742 214.153919,228.730444 215.896769,225.500398 C221.64159,214.851376 227.185286,204.09046 232.662411,193.2998 C235.75436,187.207259 239.740042,182.449652 246.986929,181.342754 C248.927364,181.046732 250.765112,180.091386 253.0993,179.282635 C249.010222,175.170896 248.845923,170.470653 249.666004,165.383738 C249.884126,164.032516 249.818973,162.642343 249.475502,161.317323 C247.56906,153.964208 249.06192,150.44593 255.614783,147.599014 C256.376085,147.26829 257.036825,146.078535 257.228035,145.178428 C257.926309,141.89456 258.235079,138.524294 259.009836,135.26238 C259.955975,131.278823 262.647798,128.531762 266.697925,128.259109 C272.357055,127.878812 278.1472,127.604035 283.726304,128.386583 C290.158067,129.289523 292.866178,133.518821 292.643807,140.102136 C292.614063,140.999411 292.713918,141.946258 292.462511,142.782628 C291.204769,146.986432 292.230934,149.955864 296.612492,151.542913 C297.548009,151.882135 298.54018,152.930253 298.890025,153.879225 C300.734855,158.883989 303.10516,163.853344 302.736902,169.327637 C302.521613,172.522981 301.440918,175.660962 300.493363,179.996489" id="Fill-10"></path>
        </g>
    </g>
</svg>