<?xml version="1.0" encoding="UTF-8"?>
<svg width="199px" height="331px" viewBox="0 0 199 331" version="1.1" xmlns="http://www.w3.org/2000/svg" xmlns:xlink="http://www.w3.org/1999/xlink">
    <!-- Generator: Sketch 51.3 (57544) - http://www.bohemiancoding.com/sketch -->
    <title>Group 11</title>
    <desc>Created with Sketch.</desc>
    <defs>
        <polygon id="path-1" points="0 0.576768959 199.628655 0.576768959 199.628655 331 0 331"></polygon>
    </defs>
    <g id="The-Corporation-App-(Mobile)" stroke="none" stroke-width="1" fill="none" fill-rule="evenodd">
        <g id="The-Corporation_Intro.-Animation_3" transform="translate(-176.000000, -46.000000)">
            <g id="Group-11" transform="translate(176.000000, 46.000000)">
                <g id="Group-3">
                    <mask id="mask-2" fill="white">
                        <use xlink:href="#path-1"></use>
                    </mask>
                    <g id="Clip-2"></g>
                    <path d="M2.47046784,8.62894233 C2.47046784,8.62894233 85.9657895,2.21793351 91.4710526,0.996677778 C96.975731,-0.225161728 96.6704678,1.60730564 96.6704678,1.60730564 C96.6704678,1.60730564 101.258187,53.8148206 101.564035,59.9210993 C101.869883,66.027378 101.258187,66.3326919 101.258187,66.3326919 C101.258187,66.3326919 64.8622807,69.9964591 62.4160819,70.301773 C59.9692982,70.6070869 59.6634503,72.1336566 59.6634503,72.1336566 C59.6634503,72.1336566 63.0277778,107.244175 63.3336257,109.076059 C63.6394737,110.907942 65.7804094,109.686687 65.7804094,109.686687 L67.4114035,109.686687 C69.0423977,109.686687 69.0423977,114.164235 68.6347953,116.60733 C68.2266082,119.049258 71.4891813,120.270514 73.9359649,122.306718 C76.3827485,124.341755 78.8295322,124.748646 80.8687135,125.563011 C82.9073099,126.376792 84.1312865,125.155537 85.3540936,123.52739 C86.5774854,121.899244 88.6166667,121.084879 90.655848,120.270514 C92.6944444,119.456732 94.7336257,117.828586 94.7336257,117.828586 C94.7336257,117.828586 94.3254386,114.57171 96.7722222,111.722307 C99.2190058,108.872905 102.073392,104.394773 106.559357,99.9166407 C111.045322,95.4390922 115.530702,95.4390922 120.831871,93.8103621 C126.133626,92.1822157 123.278655,91.3678506 124.910234,88.9259229 C126.541228,86.4828277 125.726023,82.4127536 125.317836,81.1909141 C124.910234,79.9696584 123.686257,76.7133656 123.278655,74.2702704 C121.944152,71.889639 121.565205,69.4249441 121.565205,67.9030446 C121.565205,66.3817289 122.055263,64.9076989 122.055263,64.9076989 C121.184503,62.8796672 121.141813,60.4418259 121.33538,58.6163638 L121.246491,58.0436813 C121.246491,58.0436813 117.392105,57.2655102 115.516667,56.4108647 C113.641228,55.5550517 115.410234,52.528766 115.410234,52.528766 C115.410234,52.528766 123.949415,49.3915631 129.365789,47.4055631 C134.781579,45.4189794 137.10848,45.9753162 139.330702,45.8597289 C141.552924,45.7447254 147.041813,50.6256619 149.369298,52.787378 C151.697368,54.9485102 151.906725,56.7296055 151.388012,61.3957131 C151.359942,61.6525737 151.331871,61.8919212 151.303216,62.1242633 C151.341228,62.2380993 151.375731,62.350184 151.416667,62.4657713 C153.000877,66.9520764 151.476901,71.3262968 151.476901,71.3262968 L149.762281,74.9404432 C149.206725,76.6742527 148.561696,81.5983885 149.377485,84.8546813 C149.386257,84.8873727 149.39386,84.920064 149.402632,84.9515878 C150.068713,87.4711575 152.74883,88.8926478 155.24883,88.1442492 L156.717836,87.7040834 L163.242398,85.6690464 L171.397953,83.2265349 C171.397953,83.2265349 173.437719,80.376549 178.331287,77.5271469 C183.224269,74.6783286 180.369883,74.2702704 181.593275,71.0139776 C182.816667,67.7571011 182.000877,62.0582968 181.593275,59.2088947 C181.185673,56.3594926 180.777485,54.323288 182.000877,49.0319582 C183.224269,43.7400446 182.000877,49.0319582 182.000877,47.403228 C182.000877,45.7750817 180.777485,40.4825843 180.777485,40.4825843 C179.859942,36.9209776 178.024854,37.0231381 175.272222,33.054057 C172.519591,29.0849758 173.437719,28.7796619 173.742982,26.9477783 C174.04883,25.1158947 176.190351,24.1999529 176.190351,24.1999529 L178.942982,19.31493 C178.942982,19.31493 182.918421,18.0936743 184.753509,19.31493 C186.588596,20.5356019 189.647076,22.3680693 190.258772,24.8105808 C190.870468,27.2525085 189.647076,31.2221734 189.03538,33.6646848 C188.423684,36.1066125 189.952924,39.7709635 190.258772,42.2128912 C190.56462,44.6559864 193.011404,46.1819723 194.540058,48.9297977 C196.069883,51.6776231 195.152339,55.0360764 195.458187,57.7839018 C195.764035,60.5317272 196.681579,64.8061222 197.904386,69.3858312 C199.128363,73.9655402 200.045906,77.9346213 199.434211,81.5983885 C198.822515,85.261572 195.458187,88.9259229 193.317251,91.0625367 C191.176316,93.1997342 191.176316,93.5056319 191.176316,93.5056319 C191.176316,93.5056319 190.870468,98.3906549 189.952924,101.44321 C189.03538,104.49635 183.835965,109.076059 175.883918,117.624849 C167.931871,126.173639 172.826023,126.478953 172.214327,128.61615 C171.602632,130.752764 173.131287,137.469671 174.354678,142.965322 C175.578655,148.460972 182.918421,169.527634 184.141813,172.274875 C185.365205,175.022701 189.341228,182.961447 189.341228,183.876805 C189.341228,184.79333 184.141813,186.930528 180.777485,187.845886 C177.413158,188.761828 178.024854,192.425595 178.024854,192.425595 C178.024854,192.425595 179.554094,194.257478 179.859942,197.310618 C180.165789,200.363757 181.695614,205.554094 182.918421,208.301919 C184.141813,211.049745 184.753509,215.629454 185.671053,220.209163 C186.588596,224.788288 188.70848,234.863648 190.237719,237.611473 C191.766374,240.359299 191.745322,244.633694 192.051754,247.686833 C192.228363,249.458004 190.849415,251.961228 189.931871,255.624995 C189.013743,259.288762 189.952924,263.868471 189.952924,263.868471 C189.03538,271.50132 191.176316,275.470401 192.09386,280.049526 C193.011404,284.629235 191.788012,289.991202 191.788012,293.960283 C191.788012,297.92878 193.317251,300.065978 194.846491,304.340373 C196.375731,308.614768 194.234795,310.446651 193.317251,311.973221 C192.399708,313.499207 191.788012,316.85766 195.764035,322.353311 C199.740058,327.848962 191.788012,327.848962 191.788012,327.848962 C190.870468,327.544232 181.389181,327.848962 178.331287,326.017662 C175.272222,324.185778 171.602632,322.659209 171.602632,317.773602 C171.602632,312.888579 171.602632,315.636404 170.684503,314.415732 C169.766959,313.194477 168.85,308.614768 169.461696,304.340373 C170.073392,300.065978 170.684503,300.981919 170.990351,296.707524 C171.296199,292.433129 170.684503,288.158734 170.990351,284.189653 C171.296199,280.220572 168.85,276.385759 168.543567,269.668852 C168.238304,262.951946 166.402632,261.42596 164.261696,257.456879 C162.121345,253.487798 159.368713,251.655914 158.757018,248.602775 C158.145322,245.549635 156.921345,240.359299 154.475146,235.169546 C152.028363,229.979209 147.440058,218.682009 145.299708,215.323556 C143.158772,211.965103 142.241228,215.018826 141.017836,216.85071 C139.794444,218.682009 138.265205,224.17766 137.347661,227.842011 C136.430117,231.505195 131.53655,247.686833 130.619006,250.129344 C129.701462,252.571856 125.114327,261.120646 125.114327,261.120646 L122.055263,269.668852 L121.138304,275.775131 L118.997368,279.744212 C118.997368,279.744212 119.302632,285.716223 120.22076,288.464048 C121.138304,291.211874 122.361696,295.180955 122.666959,297.012838 C122.973392,298.844722 121.443567,303.423847 121.443567,304.645687 C121.443567,305.866942 122.973392,310.446651 122.973392,310.446651 C122.973392,310.446651 125.726023,313.194477 126.031287,316.55293 C126.337135,319.911383 122.055263,319.911383 119.914327,321.742683 C117.773977,323.574567 115.633041,327.848962 113.797368,329.070217 C111.962281,330.291473 105.540058,330.596787 102.481579,330.902685 C99.4230994,331.207415 96.0587719,330.902685 96.0587719,328.45959 C96.0587719,326.017662 98.8114035,325.407034 100.340058,322.963939 C101.869883,320.522011 101.258187,318.38423 100.646491,317.163558 C100.034795,315.942302 99.4230994,314.721046 99.4230994,313.805105 L99.4230994,307.698826 C99.4230994,307.698826 98.1997076,301.287233 98.5055556,297.623466 C98.8114035,293.960283 99.7289474,277.912329 99.4230994,273.333203 C99.1172515,268.753494 97.5880117,265.395041 95.752924,256.235039 C93.9178363,247.076205 97.5880117,237.306743 98.1997076,234.863648 C98.8114035,232.421136 98.8114035,229.979209 99.7289474,225.094186 C100.646491,220.209163 103.704386,211.049745 104.622515,206.470036 C105.540058,201.890327 107.068713,201.890327 107.068713,201.890327 C107.068713,201.890327 104.316667,198.837187 104.622515,193.341537 C104.826608,189.670764 104.622515,184.79333 104.928363,179.29768 C105.234211,173.801445 104.010819,160.978844 104.622515,158.231018 C105.234211,155.483193 105.845322,150.292856 105.540058,148.766286 C105.234211,147.239717 101.869883,149.682228 101.869883,149.682228 L97.5880117,150.292856 C97.5880117,150.292856 93.6119883,151.819426 87.495614,153.651309 C81.378655,155.483193 81.6839181,153.040681 79.5429825,151.208798 C77.4026316,149.377498 73.1207602,145.713147 71.5909357,143.881847 C70.0616959,142.04938 68.8383041,144.186577 68.8383041,144.186577 L76.7903509,217.766651 C76.7903509,217.766651 84.4365497,302.337443 85.3540936,312.717533 C86.2716374,323.098791 85.6599415,325.235988 85.6599415,325.235988 C85.6599415,325.235988 81.0722222,327.677916 79.2371345,327.067288 C77.4026316,326.457244 76.7903509,324.93009 76.178655,322.488163 C75.5669591,320.045068 70.6739766,252.87717 70.6739766,252.87717 C70.6739766,252.87717 59.6634503,141.744066 58.7453216,135.332473 C57.8283626,128.921464 58.1342105,127.700209 56.9108187,127.394311 C55.6874269,127.089581 54.4640351,124.952383 54.4640351,124.952383 L53.2406433,122.815186 C53.2406433,122.815186 52.6289474,120.983302 53.2406433,119.762046 C53.8523392,118.540791 52.9347953,117.319535 52.0172515,115.792965 C51.0997076,114.266396 51.7114035,112.129198 52.3230994,110.907942 C52.9347953,109.686687 55.075731,108.770745 55.075731,108.770745 C55.075731,108.770745 52.0172515,77.0180958 51.7114035,74.881482 C51.4055556,72.7442845 50.4880117,71.5230287 50.4880117,71.5230287 C50.4880117,71.5230287 9.81081871,74.5761681 7.36403509,74.881482 C4.91725146,75.1867959 4.91725146,72.7442845 4.91725146,72.7442845 C4.91725146,72.7442845 0.329532164,13.8192792 0.0236842105,11.6820817 C-0.282163743,9.54488413 2.47046784,8.62894233 2.47046784,8.62894233" id="Fill-1" fill="#691446" opacity="0.5" mask="url(#mask-2)"></path>
                </g>
                <path d="M27.3344486,30.5766646 C26.7405549,30.2238403 26.3022445,29.6686347 26,29 C26.1466611,29.5462507 26.4059668,30.0244439 26.8353548,30.3414484 C27.696919,30.9838153 29.0843441,31.4339498 30,30.3265235 C29.1272829,30.8674013 28.115154,31.0393359 27.3344486,30.5766646" id="Fill-4" fill="#FEFEFE"></path>
                <path d="M37,57.469 C37.334,57.399 37.584,57.257 37.797,57 C37.545,57.179 37.278,57.333 37,57.469" id="Fill-6" fill="#FEFEFE"></path>
                <path d="M65,15.04828 C65.032,15.03228 65.062,15.01928 65.098,15.00128 C65.062,15.00128 65.032,14.99928 65,15.00028 C65,15.01528 65.001,15.03228 65,15.04828" id="Fill-8" fill="#FEFEFE"></path>
                <path d="M64.402,15.674 C64.432,15.536 64.463,15.403 64.496,15.266 C64.517,15.182 64.648,15.091 64.836,15 C64.553,15.022 64.273,15.045 64,15.068 C64.041,15.298 64.086,15.526 64.131,15.754 C64.22,15.726 64.311,15.696 64.402,15.674" id="Fill-10" fill="#FEFEFE"></path>
                <path d="M40,21.154 C40.044,21.22 40.097,21.269 40.163,21.291 C40.406,21.363 40.475,21.222 40.454,21 C40.305,21.054 40.15,21.105 40,21.154" id="Fill-12" fill="#FEFEFE"></path>
                <path d="M65.0025291,15.747 C65.3338392,15.509 65.6666667,15.311 66,15.163 C65.8846737,15.093 65.7622661,15.041 65.6403642,15 C65.4147699,15.085 65.1972686,15.217 65,15.416 C65.0010116,15.524 65.0025291,15.635 65.0025291,15.747" id="Fill-14" fill="#FEFEFE"></path>
                <path d="M46.0212766,28.9626945 C46.9551341,28.8192097 47.5837188,28.0103416 48,27 C47.2895467,27.8415796 46.4167438,28.5025021 45.2796022,28.8630729 C45.1810823,28.8965279 45.0901943,28.9180878 45,28.9344436 C45.2934783,29.0058143 45.6278908,29.0244005 46.0212766,28.9626945" id="Fill-16" fill="#FEFEFE"></path>
                <path d="M38,38.796 C38.0858447,38.82 38.1799087,38.83 38.2730594,38.836 C38.509589,38.633 38.7159817,38.41 38.8885845,38.167 C38.9296804,38.112 38.9625571,38.055 39,38 C38.7041096,38.175 38.3744292,38.326 38.0146119,38.452 C38.0091324,38.568 38.0073059,38.683 38,38.796" id="Fill-18" fill="#FEFEFE"></path>
                <path d="M53,54.9543656 C53.1757396,54.9889646 53.3633136,55.0037012 53.5639053,54.9992161 C54.6153846,54.4392258 55.6650888,53.2269812 56,52 C55.4846154,53.404461 54.5579882,54.5321303 53,54.9543656" id="Fill-20" fill="#FEFEFE"></path>
                <path d="M58.413,30.3650998 C58.473,30.3340998 58.537,30.3080998 58.599,30.2760998 C58.719,30.1920998 58.844,30.1100998 58.972,30.0380998 C58.655,30.0080998 58.338,29.9960998 58.017,30.0010998 C58.01,30.1930998 58.005,30.3840998 58,30.5760998 C58.138,30.5010998 58.279,30.4320998 58.413,30.3650998" id="Fill-22" fill="#FEFEFE"></path>
                <path d="M62.522,45 C62.335,45.028 62.161,45.053 62,45.074 C62.002,45.105 62.002,45.137 62.006,45.172 C62.261,45.113 62.468,45.063 62.522,45" id="Fill-24" fill="#FEFEFE"></path>
                <path d="M54.019,55 C54.014,55.003 54.008,55.003 54,55.006 C54.008,55.005 54.014,55.003 54.019,55" id="Fill-26" fill="#FEFEFE"></path>
                <path d="M28.5971827,19.701276 C28.6337334,19.6913743 28.605305,19.299641 28.6435963,19.2940713 C29.8480292,20.4228575 30.2744542,22.4347456 30.3777245,24.2597403 C30.4363216,25.3056003 30.3371126,26.3830218 30.127091,27.4474473 C30.0481879,27.8534143 29.9083669,28.2414345 29.7575227,28.6288359 C29.6484507,28.9042251 29.495866,29.1499094 29.3229754,29.3801223 C29.2823635,29.3844543 29.2353697,29.3943559 29.1814139,29.4042576 C24.6410033,29.7638106 26.0409536,21.6593239 28.5971827,19.701276 M29.7273539,18.2605883 C29.6124802,18.1733302 29.4987669,18.0879286 29.3775113,18.0179983 C29.0729221,17.8502894 28.1666965,18.9122396 27.997867,18.8181741 C28.0930149,18.8695388 28.1829413,18.9308051 28.2705469,18.9920715 C27.1670636,19.5645097 26.1314601,20.5893287 25.5831994,21.6358075 C24.5597795,23.5851916 24.100865,24.7046949 24.0045568,26.8428289 C23.8914236,29.3788846 25.9046136,31.4792686 27.8464427,30.904355 C29.806257,30.322634 31.2503002,28.6845326 32.0729813,26.620661 C33.0453462,24.1830027 33.6556851,19.9977061 31.7950798,18.3756948 C31.2648044,17.91465 30.5100032,17.9641582 29.7273539,18.2605883" id="Fill-28" fill="#FEFEFE"></path>
                <path d="M37.9847473,27.8502581 C36.2108866,27.5866785 37.3762217,23.2891857 37.8215544,21.2619754 C38.0502543,20.2154982 39.0564189,18.8825215 39.0834262,19.7842411 C39.1127319,20.7016427 38.979994,21.5382213 39.990181,21.2915301 C41.1555161,21.010459 42.4966858,20.6208197 41.8157578,19.153339 C41.8008176,19.1177527 41.7197957,19.1243874 41.6054458,19.1581642 C41.1560907,17.6979214 39.5701317,17.8197591 38.1996562,18.4271381 C36.2781175,19.2793988 35.5092721,21.6552337 35.1708192,23.6372073 C34.8995973,25.2313509 34.6720466,30.0240355 36.8125167,29.9999092 C37.8600541,29.9878461 39.5051993,29.8020738 40.2556568,28.8599427 C40.2556568,28.8599427 40.7498324,28.4015435 41.1296581,27.5293786 C41.5112077,26.6566106 41.4583424,25.5504209 41.4583424,25.5504209 C41.428462,25.5383578 41.3962831,25.5407704 41.3600818,25.5558493 C40.6515719,25.6849249 40.046494,25.9575518 39.3747599,26.3128112 C39.3690137,26.315827 39.1845598,26.3990626 39.1868583,26.4400773 C39.1868583,26.4400773 39.225358,27.1741192 38.8300175,27.6005512 C38.4306546,28.0281894 37.9847473,27.8502581 37.9847473,27.8502581" id="Fill-30" fill="#FEFEFE"></path>
                <path d="M45.121586,29.335873 C46.0782097,29.034938 46.8114268,28.4833272 47.4087334,27.7809387 C47.0587491,28.6241772 46.5302728,29.2986439 45.7451413,29.4190179 C45.4144062,29.4705181 45.1338354,29.4543855 44.8870965,29.3954395 C44.9629264,29.3817888 45.0387563,29.3637948 45.121586,29.335873 M45.938216,29.6101272 C48.3029433,28.6862256 49.3651456,26.5771986 49.3808949,23.9227656 C49.3756451,23.9246271 49.3709787,23.9264885 49.363979,23.9308319 C49.2134858,23.9810912 48.0947026,24.2758214 48.0171227,24.4960934 C47.6753047,25.4541215 46.547772,28.7104245 45.1944993,28.1358558 C44.2944564,27.7542578 44.4373666,26.1366546 44.36212,25.2158555 C44.2116268,23.3984562 44.4536992,21.5196289 45.1075866,19.7245671 C45.3689082,19.2027395 45.6733945,19.2412096 46.0420447,18.9408951 C46.2508686,19.2678904 46.3908624,19.6966453 46.762429,20.209786 C47.2588234,20.8997648 48.9684967,20.0658336 49.5920521,19.6879585 C50.4588466,19.1617876 49.795043,18.3024164 48.9871626,17.6980645 C49.1032407,17.634775 49.2029862,17.5969255 49.2700665,17.6217449 C49.0355771,17.534877 48.8069207,17.4709671 48.5852639,17.4250513 C48.182782,17.1756165 47.8018824,17.0105676 47.6053079,17.0000193 C47.504979,16.9975374 46.8633412,17.2345625 46.5069405,17.4132621 C46.1137914,17.43622 45.7655571,17.5634193 45.454071,17.7638358 C45.209082,17.8302277 44.9728426,17.9102702 44.7599355,18.0070658 C42.9347674,18.8267259 42.022475,21.2038023 42.0218917,23.36495 C41.9746438,24.1839896 42.0067257,25.7103817 42.0907219,26.459927 C42.4162073,29.3749635 43.084094,30.7263789 45.938216,29.6101272" id="Fill-32" fill="#FEFEFE"></path>
                <path d="M68.6305674,16.7127538 C68.9657237,17.3455813 69.0034962,17.8533696 68.4722826,18.5431399 C67.9008981,19.3010066 67.2018066,19.8792395 66.2155239,20.4651039 C66.2742812,19.0720616 66.2508982,17.7752935 66.2293139,16.3934049 C66.8192848,16.2219896 67.313925,16.1445006 67.8685217,16.2296211 C68.2510435,16.2812805 68.495066,16.456805 68.6305674,16.7127538 M64.6674499,15.4746896 C64.6512616,15.3919172 64.6380712,15.3097318 64.6236817,15.2269594 C64.6140887,15.1629722 63.313035,15.6114696 63.3316214,15.724768 C63.3316214,15.724768 63.7279332,18.0735091 63.688362,20.5942524 C63.6451934,23.1173439 63.468322,25.2025046 63.468322,25.2025046 C63.3484092,25.1854805 63.2320938,25.1696305 63.1175771,25.1438008 C63.2063126,25.1637601 63.0714107,25.9439343 63.069612,26.01614 C63.0660146,26.0942161 62.9287145,26.8585402 63.0498264,26.8837829 C64.0936672,27.1033353 65.3131802,26.9683164 66.4913233,26.8344717 C66.5123081,26.8321235 66.5794592,25.0933155 66.5548771,25.0962507 C66.2287143,25.1332341 66.1471736,25.1150359 65.8192122,25.1432137 C65.9067485,24.216867 65.7886344,24.1587502 65.8449934,22.8613951 C65.8515886,22.7023077 65.8599825,22.5449813 65.8671773,22.3864809 C66.5662688,22.1716249 67.9260798,21.8874982 68.5586198,21.4061266 C68.6473552,21.3579895 68.7372898,21.3168968 68.8242266,21.2658244 C70.5941393,20.2197218 72.3268791,15.3637394 69.5185216,15.0890053 C69.5185216,15.0890053 68.0525878,14.8718011 66.6112361,15.1160091 C65.1680858,15.3643264 64.6674499,15.4746896 64.6674499,15.4746896 M63.8076752,21.3433135 C63.7992813,21.4601342 63.7878896,21.5687363 63.777697,21.6814477" id="Fill-34" fill="#FEFEFE"></path>
                <path d="M70.8369709,18.0111588 C70.9248647,18.8217697 71.3767132,20.5953209 72.4425805,20.8401363 C72.2513186,21.9106746 72.284743,22.9691232 72.3243571,24.020318 C72.1541402,24.0269673 71.9845423,24.0360346 71.8149444,24.0426839 C71.8489878,24.0426839 71.675057,26.0024157 71.7412869,25.9999978 C72.8461493,25.9431764 73.9602963,25.9322957 75.0707295,25.6191739 C75.2199014,25.5768601 75.0298775,23.6951065 75.144387,23.6630689 C75.0862038,23.678181 75.0292585,23.6914796 74.9704563,23.7059872 C74.9927392,22.63424 74.9463165,21.57156 75.123961,20.4859096 C76.3489038,20.0718392 76.5896833,19.35855 77.0669096,18.2209142 C77.4389109,17.3377655 77.7502531,16.3863102 77.9706066,15.4372729 C78.2695694,15.4898629 78.5697701,15.5358035 78.8743037,15.5775128 C78.7078006,15.555147 79.1447938,13.6474006 78.9479612,13.6226168 C78.7232748,13.5911838 78.4979696,13.5567283 78.2745212,13.5204593 C78.278235,13.4648469 78.2869006,13.4043987 78.2899954,13.3505998 C78.2906144,13.3614805 78.1154457,13.3989584 77.8963302,13.4533618 C77.2129867,13.3312563 76.5364518,13.1789268 75.8735344,13 C75.9242899,13.0132986 75.8277305,13.9109549 75.8252547,13.9780525 C75.8233977,14.0536128 75.7243625,14.9349481 75.7986389,14.954896 C75.881581,14.9772618 75.965761,14.9978142 76.049941,15.0201801 C75.5888079,16.3959819 75.2960348,17.76453 74.5489374,19.1209884 C74.4437124,19.3120049 74.324251,19.4945585 74.1967431,19.6759033 C73.6780458,19.0526819 73.4286006,18.0504502 73.2429095,17.4544306 C73.0504096,16.8318137 72.9235207,16.1825997 72.7780626,15.5370125 C72.8919532,15.5110197 73.0015109,15.485027 73.1135446,15.4578253 C73.2367198,15.4269967 73.0955945,13.5246907 73.1884401,13.5005114 C72.1956113,13.7507671 69.214649,14.1013669 70.2136675,14.0360828 C70.0304522,14.0487769 69.8788044,16.0079043 70.1393911,15.9921877 C70.3411755,15.9794936 70.540484,15.9553143 70.7428874,15.9317395 C70.6946076,16.6468421 70.7633134,17.3685941 70.8369709,18.0111588" id="Fill-36" fill="#FEFEFE"></path>
                <path d="M46.2480287,38.8746737 C45.7377713,40.0861832 45.1198914,41.1899223 44.5146729,41.2038477 C44.4019858,41.2050586 44.300694,41.1947659 44.1987692,41.1802351 C43.7625814,40.8296783 43.501122,40.2096954 43.3137321,39.7059593 C42.8275315,38.4024211 43.1877505,36.7035226 43.7568837,35.3333846 C43.9575681,34.8508393 44.2563789,34.2399382 44.6178639,33.7701074 C44.8862872,33.5158175 45.1724365,33.2893785 45.4744126,33.0980556 C45.7580296,33.016925 46.0555743,33.0689939 46.3664135,33.3347874 C47.5781165,34.3634504 46.7544876,37.3004983 46.2480287,38.8746737 M45.8181716,42.7441177 C48.7568997,41.8159597 49,34.8859555 49,34.8859555 C48.9126358,31.7158086 46.3866718,31.427008 43.9632657,32.7232808 C42.2742251,33.6296425 41.4752862,35.5580073 41.0663206,37.7146275 C40.9473027,39.0260367 40.9675611,40.5384559 41.3011909,41.781449 C41.3011909,41.781449 42.882609,43.6710648 45.8181716,42.7441177" id="Fill-38" fill="#FEFEFE"></path>
                <path d="M55.86387,38.5739558 C56.4033861,37.4013973 56.3911508,36.0515634 56.4639797,34.8445179 C56.5204949,33.8994528 56.6381863,32.9755638 56.6043937,32.0698259 C56.7133457,32.0444144 56.8211324,32.020213 56.928919,31.9978267 C56.9965042,31.9827008 56.962129,30.0084705 57,30 C56.1796559,30.1778804 54.8349441,30.4828182 54.0140173,30.4803981 C54.0367399,30.4822132 54.1293782,31.7225356 54.1025772,32.1454553 C53.9528411,32.2101941 54.5756734,32.1521107 54.5739255,32.1950682 C54.451573,34.70778 54.5803344,36.2421496 54.1672492,38.7978188 C54.1608403,38.834726 54.1544313,38.8770785 54.1451092,38.9260863 C53.8089313,39.5988856 53.7996092,39.9637219 53.105696,40.2656346 C52.6092945,40.4894976 52.5452052,40.1161908 52.4484885,39.8148832 C51.8163341,37.8648544 51.8477961,35.4652842 52.0027759,33.1582845 C52.1781478,33.1492089 52.3570154,33.1383183 52.5341352,33.1268226 C52.4187743,33.1346881 52.7398038,31.0666773 52.5988072,31.0745428 C51.8087599,31.1223406 51.0169647,31.1761887 50.2403178,31.1574326 C50.2677015,31.1580376 50.200699,32.1254891 50.1995337,32.1859927 C50.1972032,32.2549667 50.1267048,33.2091074 50.1756458,33.2103175 C50.254301,33.2115276 50.3370346,33.2109225 50.4162723,33.2109225 C49.8225716,35.8186248 49.9857082,37.8460983 50.1663237,40.2378029 C50.2496399,41.3226313 50.5776611,41.7709625 51.1981628,41.7733826 C51.1981628,41.7733826 51.9509218,42.4613078 53.6556994,41.4400082 C55.360477,40.4193136 55.86387,38.5739558 55.86387,38.5739558" id="Fill-40" fill="#FEFEFE"></path>
                <path d="M60.1514184,31.4844375 C60.9197874,31.3953855 61.6709413,31.060822 62.4743144,31.6316207 C63.169806,32.127591 63.4699232,33.284649 63.1084053,34.2363925 C62.6074448,35.5548573 60.9260996,35.8900392 59.7887528,36.1027746 C59.9746763,34.6748501 60.09633,33.2463071 60.1187096,31.8493035 C60.121005,31.7144886 60.1347771,31.5951341 60.1514184,31.4844375 Z M62.5908035,36.3439572 C64.6732614,35.2499778 65.1357748,33.5388183 64.9687879,32.7930076 C65.0801125,31.4615561 63.8750528,30.3910765 62.656221,30.0849602 C62.1386192,29.9544742 61.6221651,29.9829214 61.1057109,30.1115521 L59.0479281,30.4974442 C59.0852275,30.4949705 59.1242485,30.498681 59.1609741,30.4949705 C58.8516755,30.5877331 58.0362518,30.6724562 58.0316611,30.7992316 C57.9312394,33.704554 57.9260749,36.9388742 57.6012826,39.9153145 C57.4256882,39.9276829 57.2489461,39.938196 57.072204,39.9598405 C57.0630226,39.9610774 56.9844068,42.0024714 57.0027696,41.9999978 C57.7022781,41.9152746 58.9050424,41.8225121 59.600534,41.8058149 C59.5609392,41.8064333 59.7371074,39.7650392 59.6711161,39.7662761 C59.5087199,39.7693681 59.3451761,39.778026 59.1816323,39.7835917 C59.3549313,38.9060582 59.5098676,38.0229589 59.642998,37.1349123 C60.0808363,37.1324387 60.5324468,37.0551366 60.9783189,36.9147559 C61.4970684,37.8089867 61.9670417,38.4941926 62.3756143,39.57333 C62.3067537,39.5788958 62.238467,39.5850799 62.1678849,39.5912641 C62.0112272,39.6054877 62.2264164,41.555356 62.0944337,41.5664875 C62.8748533,41.4990801 63.64437,40.9820836 64.3892116,41.1855428 C64.8276238,41.3048972 64.603827,40.3141934 64.6084177,40.227615 C64.6101392,40.1503129 64.5590676,39.3810024 64.6112869,39.3445158 C64.4299541,39.4700544 64.0879467,39.331529 63.895711,39.3735814 C63.5554251,38.2431153 63.6437961,37.6067644 62.9982284,36.7904541 L62.5908035,36.3439572 Z" id="Fill-42" fill="#FEFEFE"></path>
                <path d="M36.452487,56.6995917 C35.6902112,56.9756787 35.4481176,56.3880776 35.4481176,56.3880776 C34.9941194,55.2941136 35.0690116,53.5636836 35.0603032,52.3658815 C35.0556588,51.526626 35.3169109,50.1718452 35.3105247,49.0192432 C35.4440536,49.0119135 35.5799047,49.0064162 35.7140142,48.9917567 C35.7180781,48.9911459 35.8121289,46.9754667 35.7848426,46.9791316 C34.8751045,47.0756398 33.9903305,47.0090614 33.0898814,47.042656 C33.1328429,47.0408236 32.9424191,49.058946 33.0178919,49.0565027 C33.1845128,49.0510054 33.350553,49.049173 33.5171738,49.049173 C33.374356,51.3928582 33.0306643,53.8947436 33.408609,56.0661798 C33.408609,56.0661798 33.2756607,57.3525496 34.4681317,57.7850044 C35.654797,58.2174592 37.0342084,57.8637991 37.0342084,57.8637991 C40.5942045,56.6617214 40.4211975,51.4166798 40.3404996,48.1152417 C40.536729,48.0779821 40.7329584,48.0437767 40.9291878,48.0150685 C40.9564741,48.0114036 41.0058218,45.9993893 40.9994356,46.0000001 C40.026997,46.1325463 38.4948983,46.4318441 37.5183958,46.5650011 C37.4957539,46.5692768 37.4411812,48.5806803 37.4464063,48.5800695 C37.5607767,48.5647992 38.2319044,48.5379235 38.3427914,48.5195991 C38.0205805,50.3019482 37.8214483,52.0806323 37.5834185,53.8629814 C37.5091068,54.4151553 37.4713704,54.9599995 37.4156366,55.5072869 C37.4156366,55.5072869 37.2165044,56.4228939 36.452487,56.6995917" id="Fill-44" fill="#FEFEFE"></path>
                <path d="M35.5474372,38.3611979 C35.7717335,38.6963094 36.0415722,38.9181521 36.3837094,39.0167488 C36.3358899,39.9446146 36.2618835,41.3918739 36.3324742,42.2986118 C36.218049,42.3033069 36.1047623,42.3056545 35.9926141,42.3109364 C36.0387258,42.3091758 35.8548484,44.0041007 35.9322705,43.9999925 C36.6842892,43.9665401 37.875792,43.6995072 38.618133,43.7165269 C38.5680363,43.7153531 38.4251471,42.835612 38.4689816,42.4242053 C38.6483048,42.3614086 38.1985737,42.2862873 38.1940194,42.2487266 C38.0585308,41.0162673 38.3539871,39.9856966 38.2742879,38.7409127 C38.2731493,38.7409127 38.7416667,38.6974832 38.5663285,38.7409127 C40.347036,37.1099583 40.4477985,36.3786991 40.6914503,34.8351906 C40.8428788,34.7864791 40.7916436,34.7553742 40.9385178,34.6890561 C41.0074006,34.6567774 40.9760902,33.9073248 40.9783674,33.8445281 C40.9806445,33.7858395 40.9504726,33.0217148 41,33 C40.2975086,33.3198525 39.5483363,33.4477935 38.809411,33.4894624 C38.8464142,33.486528 38.6807537,35.1802792 38.7490673,35.1767578 C38.8560919,35.1714759 38.9614087,35.1591513 39.0690026,35.1485874 C38.9454689,35.5435612 38.8242123,35.9361875 38.6801845,36.3288138 C38.5213554,36.7642828 38.2782729,37.0729845 38.0516995,37.495542 C37.9663075,37.6586961 37.5330855,38.0489749 37.4226452,38.2027388 C36.7503256,37.828306 36.8801215,36.696791 36.6763193,36.0834957 C36.6091442,35.8804334 36.5453849,35.6709153 36.4861798,35.4590497 C36.6962441,35.4355743 36.9040312,35.4103382 37.1112491,35.3762989 C37.1676078,35.3651481 37.1493908,33.6901772 37.1727313,33.6872428 C36.1400576,33.8597871 35.0988447,33.8950002 34.1128519,33.7758625 C34.2819281,33.7958166 33.8572453,35.4408563 34.0525083,35.4637448 C34.204506,35.4836989 34.3593501,35.4907415 34.5147635,35.5018923 C34.6160954,36.1967646 34.822744,36.8769648 35.1022604,37.5143223 L35.5474372,38.3611979 Z" id="Fill-46" fill="#FEFEFE"></path>
                <path d="M52.0220385,19.2069532 C52.2215529,19.3238861 52.4788214,19.3786207 52.7675922,19.3947923 C52.7261725,19.7337733 52.686503,20.0895479 52.6526672,20.4602502 C52.1247126,23.0309084 52.2658894,25.9100706 53.0108597,27.7461662 C53.4408073,28.7966965 53.8410028,28.8402353 54.8426582,28.9957313 C55.6062965,29.006305 55.1541806,28.9994632 56.0735801,28.9497045 C57.8528749,28.8508091 59.5061606,27.8556353 60.0113636,25.7632824 C60.554486,23.4998841 60.7965868,20.7382768 60.5352346,18.5258811 C60.7592508,18.4854522 60.6758281,18.495404 60.9039278,18.4798544 C60.8794261,18.4823423 61.0439379,15.9956518 60.9885173,16.0000057 C59.9751943,16.0671799 58.9694553,16.406783 57.9584658,16.6250992 C57.8820437,16.6406488 57.9135459,19.0962401 57.8703761,19.1068138 C58.1772316,19.0421275 58.4817535,18.9650016 58.7851087,18.8872536 C58.8691147,21.1767753 59.1193827,23.6037553 58.0098029,25.7489768 C56.7934653,28.1062947 55.4744537,27.183893 54.9855852,25.3838724 C54.459964,23.4420396 54.761569,21.2476814 55.0135872,19.100594 C55.3420275,19.0340418 55.645966,18.9705994 55.8956507,18.9388783 C55.9096517,18.9370123 56.0029917,16.4577856 55.9837403,16.4602736 C55.7673081,16.4863969 55.5088728,16.5349116 55.2300194,16.5908901 C55.2323529,16.5535711 55.2346864,16.5156301 55.2364365,16.4783111 C55.2352698,16.4714693 54.8082391,16.6039518 54.4442129,16.7507399 C53.5633161,16.9192975 52.6363327,17.0368524 52.1089614,16.7252386 C52.1830501,16.7681555 52.0582078,17.8572488 52.0529574,17.9660959 C52.0494571,18.0898706 51.9444496,18.6260205 52.0401231,18.6813771 L52.0220385,19.2069532 Z" id="Fill-48" fill="#FEFEFE"></path>
                <path d="M64.7374998,44.7462914 C65.958572,44.7194715 66.3668821,45.5083265 66.3668821,45.5083265 C65.9322087,46.8743924 64.5400963,46.925117 63.3222391,47.1997295 C63.3035919,46.7262999 63.2688694,46.2540364 63.2251449,45.7846881 C63.311308,45.5199873 63.1068314,45.3141737 63.2064977,45.050639 C63.2064977,45.050639 63.5144985,44.7742774 64.7374998,44.7462914 M68.2624698,46.2406265 C68.7897364,44.4145409 67.1352767,43.3131757 67.1352767,43.3131757 C66.2858631,42.8140923 64.8898927,43.0222381 63.7421233,43.1849066 C63.7389083,43.1598359 63.7350503,43.1405955 63.7273342,43.1405955 C62.5454854,43.1697476 61.3764968,43.0543054 60.1811449,43.162168 C60.1772868,43.1627511 60.0827647,44.9486068 60.109128,44.9468577 C60.430632,44.9165395 60.6376806,44.9171226 60.9559696,44.9130413 C60.9508255,45.952604 60.9276772,47.3629811 61.0344165,48.3150877 C61.0781411,48.6940646 61.0363456,49.1056918 61.069782,49.4805874 C60.9649717,50.4093723 60.993907,51.1988103 60.99455,52.1176835 C60.6897642,52.1200157 60.4068407,52.2080549 60.1239172,52.166659 C60.2859552,52.1893976 59.8596409,53.9169492 60.0499712,53.9472673 C61.148229,54.1134341 62.6875902,53.844652 63.8315015,53.7227964 C63.8462906,53.7216303 63.9195936,51.9392728 63.9041614,51.9404389 C63.7009708,51.9602623 63.4900642,51.9876653 63.2785146,52.0150682 C63.317095,51.0664599 63.3479594,50.1201838 63.3550325,49.1826532 C63.6990418,49.1459216 64.0546252,49.0969462 64.4044216,49.0339777 C64.2944672,49.0817871 64.2083042,49.1243491 64.2166633,49.1406743 C64.672556,50.0997773 65.0705779,51.0973611 65.3650756,52.0529659 C65.3342112,52.5806183 65.2885577,53.3309926 65.317493,53.3280774 C66.8028416,53.2295434 67.5731652,53.8044222 68.9279831,52.9800017 C69.0160752,52.9263619 68.9717076,52.1719063 68.9742797,52.0867823 C68.9794237,52.0133191 68.9254111,51.222715 69,51.1964781 C68.5505374,51.3486519 68.1306531,51.2133863 67.4413485,51.363811 C67.0240363,50.3808033 66.6118682,49.447354 66.037019,48.5459721 C66.037019,48.5459721 67.7371322,48.0672951 68.2624698,46.2406265" id="Fill-50" fill="#FEFEFE"></path>
                <path d="M54.8827196,54.7416899 C54.8857281,54.7405117 54.8893382,54.7399225 54.8941518,54.7381551 C54.8893382,54.7399225 54.8857281,54.7416899 54.8827196,54.7416899 M58.9248877,45.9417892 C58.9339131,45.9412 59.0145398,43.9976456 58.9976924,44.0000021 C58.1793911,44.0889614 56.9429137,44.3393436 56.1246123,44.2645235 C55.8406136,44.2391907 55.7864613,46.173319 55.9459097,46.2210389 C56.0072823,46.2410695 56.6083728,46.1462188 56.6751606,46.1397383 C56.7196859,46.4260577 56.8273888,46.7023617 56.8502531,46.9321241 C56.9880406,48.3855187 56.9826253,49.2798248 56.9603627,49.9101986 C56.9296764,50.9700514 56.7034402,52.0128193 56.1889934,53.0066891 C55.315938,54.6986831 54.0289184,54.3917441 53.8002754,52.9236211 C53.4861921,50.8899291 53.6997928,48.7336972 54.0421557,46.5768761 C54.121579,46.5674499 54.2010024,46.5556672 54.2834342,46.5462411 C54.2984765,46.5444737 54.3700779,44.6015084 54.356239,44.6026866 C53.3610401,44.7175679 52.0583765,44.8901842 51.0758132,45.2377735 C50.92178,45.292563 51.1281604,47.1365538 51,47.1801497 C51.2075838,47.1094536 51.6251582,47.0246182 51.8315386,46.9692396 C51.7479034,47.2791243 51.7743778,47.5884199 51.7057849,47.9118547 C51.2852021,49.3033901 51.3231087,50.411552 51.2545158,52.2802863 C51.2611344,53.0479285 51.3201002,53.7831682 51.4356251,54.4471227 C51.7190222,56.0790251 54.3712813,56.2039216 55.5253269,55.8162711 C58.0734933,54.9596697 58.3611021,53.0343784 58.5500335,51.2198444 C58.7883036,48.9245767 58.7010582,47.8670804 58.5506352,45.9753698 C58.6751854,45.9641763 58.799134,45.9571067 58.9248877,45.9417892" id="Fill-52" fill="#FEFEFE"></path>
                <path d="M42.095262,46.2797996 C42.1464922,46.2785389 41.9403369,48.3594147 42.0174909,48.3575236 C42.9606206,48.349959 43.8864678,48.3058326 44.8067599,48.2030811 C44.5530778,49.3900817 44.5086371,50.5651052 44.4567897,51.7697564 C44.4129662,52.8161829 44.6752896,53.8109184 44.5518433,54.8611272 C44.2660652,54.8737347 43.980287,54.8894942 43.6920399,54.921013 C43.6858676,54.9216434 43.5920484,57.0025192 43.6155032,56.9999977 C44.8882345,56.8663577 46.1381282,56.9552409 47.4102423,56.8216009 C47.4151802,56.8209705 47.5089994,54.7407251 47.4855446,54.7432466 C47.2244557,54.7697225 46.9633667,54.7829604 46.7028951,54.7961983 C46.729436,54.4387743 46.7485702,54.0813503 46.764001,53.7245567 C46.963984,51.8006449 46.7911592,49.9353582 46.6343824,48.082679 C47.729351,47.9629073 49.0594849,48.0215324 49.8618858,47.6609565 C49.9328674,47.6306984 50.0575482,45.2068973 49.9699013,45.1293609 C49.6865921,44.8885567 49.2872433,45.0530852 48.8996219,45.0776699 C48.9057942,45.0764092 48.1151207,45.0404777 48.1064795,45.2100492 C46.0029546,45.7282194 44.8530523,45.4363547 42.7606376,45.6469007 L42.0915586,45.6387058 L42.095262,46.2797996 Z" id="Fill-54" fill="#FEFEFE"></path>
                <path d="M27.2594157,59.8495679 C27.380532,59.84032 27.4998844,59.8378539 27.6192368,59.8255235 C27.6239404,59.824907 27.7138957,57.7897653 27.68979,57.7916148 C27.431683,57.8187418 27.1735761,57.8341549 26.916645,57.8471019 C27.0836208,56.8403202 27.1629931,55.8397037 27.1812193,54.8446359 C27.1853349,54.7965471 27.1906264,54.7496914 27.1929782,54.7003696 C27.1988576,54.5505545 27.1965058,54.4038221 27.2000335,54.252774 C27.2206115,54.2552401 27.2411895,54.2558567 27.2611796,54.2558567 C27.2547122,54.4247839 27.2523604,54.5413067 27.257064,54.5406902 C28.2195266,54.4081378 29.1831652,54.1794078 30.1479796,54.0480885 C30.1791406,54.0431563 30.2179448,52.0129468 30.2191207,52.0129468 C29.2002155,52.1861897 28.1913054,52.2324289 27.1865108,52.2182489 C27.1653449,51.5776817 27.1335959,50.9383475 27.1065506,50.302096 C27.7039006,50.2225646 28.3030145,50.1356349 28.9015405,50.0431565 C29.545926,50.0049321 29.6611628,49.9167693 30.3073122,49.773736 C30.3220107,49.9802711 30.3472923,50.259556 30.3849206,50.4605424 C30.3972674,50.5302095 32.0011759,50.0425399 31.9853014,49.9531441 C31.7953958,48.9315659 31.9541404,48.069667 32,47 C32,47.0246609 30.3067242,47.3409371 30.2996689,47.5228113 C30.2932015,47.6750924 30.2602767,47.608508 30.2520455,47.7607891 C29.618243,47.878545 29.6064841,47.9081381 28.9738575,48.0086313 C27.5539752,48.0881627 26.1423241,47.9765721 24.7371403,47.9642416 C24.7959346,47.9648582 24.5795716,49.9956842 24.6648234,49.9975338 C24.8147488,49.9987668 24.9611466,50.0012329 25.11166,50.0049321 C25.0522778,52.6368678 24.8564928,55.2792845 24.6242553,57.9278664 C24.4425809,57.9395803 24.2597306,57.946362 24.0762924,57.9667073 C24.0715889,57.9673238 23.9816336,60.0012325 24.0033875,59.9999994 C25.091082,59.8840932 26.1593744,59.9321819 27.2417774,59.852034" id="Fill-56" fill="#FEFEFE"></path>
                <path d="M70.0130007,53.475881 C69.9558338,53.4783475 70.107501,51.6118674 70.0777509,51.6131006 C70.3385017,51.6001518 70.5963359,51.590286 70.8570867,51.5810369 C70.9632537,49.2440829 70.939337,46.9299436 70.749753,44.6386188 C70.526919,44.6571171 70.3040849,44.676232 70.0777509,44.6941137 C70.0369174,44.695347 70.1576678,42.8301001 70.1430844,42.8319499 C72.2022577,42.6728644 74.155264,42.4545843 76.1642704,41.797894 C76.1619371,41.6141441 76.1572704,41.4303942 76.1613537,41.2423279 C76.1683538,41.0770763 77.5666083,41.0172651 77.5660249,41 C77.5356915,42.0981834 77.6214418,43.1513542 77.8781093,44.1743111 C77.8961927,44.2396718 76.4950215,44.4918655 76.4769381,44.4160224 C76.4116046,44.1588958 76.3812711,44.1169663 76.3381043,43.8555234 C75.1096004,44.1582792 73.9796801,44.299483 72.9220933,44.4696675 C72.9395934,44.9500071 72.9296767,46.1986435 72.9541768,46.6795997 C73.9545967,46.5248304 74.900183,46.3336812 75.8626861,46.4755016 C75.8691028,46.3071669 75.8708528,46.1400655 75.8766862,45.9735806 C75.8831029,45.8077124 76.9471063,45.5697007 76.9476896,45.551819 C76.9150228,46.5655267 76.9004395,47.5823175 76.9616897,48.5787601 C76.969273,48.708865 75.8936029,49.0153204 75.8918529,48.9992885 C75.8807695,48.818005 75.8743528,48.6373381 75.8685195,48.4560546 C74.9077664,48.4868852 73.9808467,48.8192382 73.0393437,49.141109 C73.0463437,49.9322203 73.027677,50.7270313 72.9518434,51.5323246 C74.2515143,51.5113599 75.5500185,51.4836124 76.857856,51.3713893 C76.8712727,51.2184699 76.8881894,51.0655504 76.9150228,50.9120144 C76.9541063,50.697434 77.9726096,50.5648627 77.9848596,50.4902528 C77.7981923,51.5477399 78.0175264,52.5417161 77.9988597,53.578855 C77.9953596,53.7385571 76.9284395,53.9845847 76.9278562,54 C76.9331062,53.768771 76.9249395,53.5393919 76.9126895,53.3124792 C75.8790195,53.5572736 74.797516,53.7724707 73.8000128,53.7397904 C73.2860945,53.7237585 72.7155927,53.6503818 72.1415908,53.6349666 C72.0021737,53.6830622 71.8615899,53.7231419 71.7606729,53.7508893 C71.7600896,53.7644548 71.7577563,53.776787 71.7583396,53.7903524 L70.0882509,53.8563297 L70.0130007,53.475881 Z" id="Fill-58" fill="#FEFEFE"></path>
            </g>
        </g>
    </g>
</svg>