<?xml version="1.0" encoding="UTF-8"?>
<svg width="40px" height="40px" viewBox="0 0 40 40" version="1.1" xmlns="http://www.w3.org/2000/svg" xmlns:xlink="http://www.w3.org/1999/xlink">
    <!-- Generator: Sketch 51.3 (57544) - http://www.bohemiancoding.com/sketch -->
    <title>Action Pledges</title>
    <desc>Created with Sketch.</desc>
    <defs>
        <polygon id="path-1" points="0 0 40 0 40 40 0 40"></polygon>
    </defs>
    <g id="The-Corporation-App-(Mobile)" stroke="none" stroke-width="1" fill="none" fill-rule="evenodd">
        <g id="New-User" transform="translate(-24.000000, -1072.000000)">
            <g id="Story_1" transform="translate(-11.000000, 829.000000)">
                <g id="AP&amp;AM" transform="translate(12.000000, 231.000000)">
                    <g id="Action-Pledges" transform="translate(23.000000, 12.000000)">
                        <mask id="mask-2" fill="white">
                            <use xlink:href="#path-1"></use>
                        </mask>
                        <g id="Clip-2"></g>
                        <path d="M34.1845312,16.7103649 C32.6984375,18.9442105 30.8945312,20.4829725 28.9453125,21.2189939 C29.284375,20.6629739 29.61125,20.0725006 29.92375,19.4474957 C31.8860156,15.5231681 33.14125,10.5793014 33.5642187,5.23074399 L37.6315625,5.23074399 C37.4475781,9.58171548 36.24,13.6215908 34.1845312,16.7103649 Z M22.6920312,24.4020656 C22.6392187,24.4237064 22.5885156,24.4499566 22.54,24.4789412 C21.7117969,24.8908976 20.860625,25.1042586 20,25.1042586 C19.1396875,25.1042586 18.2889844,24.8908976 17.4609375,24.4795662 C17.411875,24.4499566 17.3608594,24.4237064 17.3075,24.4014406 C16.3885156,23.9155775 15.4996094,23.1818999 14.6588281,22.217908 C14.6145312,22.1547043 14.5649219,22.0964226 14.5096875,22.0432972 C13.675,21.0524301 12.8896875,19.8335143 12.1726562,18.3992062 C10.0189844,14.0922195 8.775,8.42905023 8.6334375,2.34376831 L31.3666406,2.34376831 C31.2246875,8.42905023 29.9807812,14.092532 27.8275,18.3992062 C27.1103125,19.8335143 26.3250781,21.0524301 25.4907812,22.0432972 C25.4352344,22.0964226 25.3848437,22.1550168 25.3409375,22.2182205 C24.5001562,23.1825249 23.6108594,23.91589 22.6920312,24.4020656 Z M21.96625,31.3802452 L18.0338281,31.3802452 L18.0338281,27.1901343 C18.6780469,27.3598231 19.334375,27.4480269 20,27.4480269 C20.665625,27.4480269 21.3220312,27.3598231 21.96625,27.1901343 L21.96625,31.3802452 Z M28.2421875,35.6902788 L28.2421875,37.6565442 L11.7578125,37.6565442 L11.7578125,35.6902788 C11.7578125,34.606286 12.6398437,33.7240135 13.7240625,33.7240135 L26.2760156,33.7240135 C27.3602344,33.7240135 28.2421875,34.606286 28.2421875,35.6902788 Z M5.81546875,16.7103649 C3.76007812,13.6215908 2.5525,9.58171548 2.3684375,5.23074399 L6.43585937,5.23074399 C6.85859375,10.5793014 8.11398437,15.5231681 10.0764062,19.4474957 C10.3889063,20.0725006 10.7157031,20.6629739 11.0546875,21.2189939 C9.10554687,20.4829725 7.30164062,18.9442105 5.81546875,16.7103649 Z M38.828125,2.88697568 L33.6950781,2.88697568 C33.71375,2.31845561 33.7240625,1.74649802 33.7240625,1.17188416 C33.7240625,0.524613474 33.1992187,0 32.5521875,0 L7.44789062,0 C6.80085937,0 6.27601562,0.524613474 6.27601562,1.17188416 C6.27601562,1.74649802 6.28632812,2.31845561 6.305,2.88697568 L1.171875,2.88697568 C0.524609375,2.88697568 0,3.41158915 0,4.05885983 C0,9.30976023 1.37234375,14.2637052 3.86414062,18.0085782 C6.3271875,21.7106384 9.608125,23.8340925 13.1525781,24.0407347 C13.9560937,24.9150384 14.8053125,25.6279346 15.6900781,26.171767 L15.6900781,31.3802452 L13.7240625,31.3802452 C11.3474219,31.3802452 9.4140625,33.313854 9.4140625,35.6902788 L9.4140625,37.6562317 L9.33085937,37.6562317 C8.6834375,37.6562317 8.15898437,38.1811577 8.15898437,38.8281158 C8.15898437,39.4753865 8.6834375,40 9.33085937,40 L30.6692969,40 C31.3165625,40 31.8411719,39.4753865 31.8411719,38.8281158 C31.8411719,38.1811577 31.3165625,37.6562317 30.6692969,37.6562317 L30.5859375,37.6562317 L30.5859375,35.6902788 C30.5859375,33.313854 28.6526562,31.3802452 26.2760156,31.3802452 L24.31,31.3802452 L24.31,26.171767 C25.1947656,25.6282471 26.044375,24.9150384 26.8478906,24.0407347 C30.391875,23.8340925 33.6728125,21.7106384 36.1361719,18.0085782 C38.6279687,14.2637052 40,9.30976023 40,4.05885983 C40,3.41158915 39.4754687,2.88697568 38.828125,2.88697568 Z" id="Fill-1" fill="#EE342E" mask="url(#mask-2)"></path>
                    </g>
                </g>
            </g>
        </g>
    </g>
</svg>