<?xml version="1.0" encoding="UTF-8"?>
<svg width="23px" height="18px" viewBox="0 0 23 18" version="1.1" xmlns="http://www.w3.org/2000/svg" xmlns:xlink="http://www.w3.org/1999/xlink">
    <!-- Generator: Sketch 51.3 (57544) - http://www.bohemiancoding.com/sketch -->
    <title>Vimeo</title>
    <desc>Created with Sketch.</desc>
    <defs></defs>
    <g id="The-Corporation-App-(Mobile)" stroke="none" stroke-width="1" fill="none" fill-rule="evenodd">
        <g id="Landing_NU_Menu" transform="translate(-214.000000, -298.000000)" fill="#D1B8C7" fill-rule="nonzero">
            <g id="Social-Media-Icons" transform="translate(48.000000, 294.000000)">
                <g id="Vimeo" transform="translate(166.000000, 4.000000)">
                    <path d="M18.8704849,0 C21.0074658,0.0561526976 22.0764861,1.26926286 22.0870809,3.64250895 C22.0870809,3.79825323 22.0817835,3.96035441 22.0733076,4.12669353 C21.9790134,6.13865529 20.4819613,8.87954262 17.5757944,12.3482961 C14.5785117,15.9823291 12.035748,17.8014646 9.94750336,17.811 C8.64857492,17.811 7.57001933,16.6985409 6.7044202,14.4725632 L5.79538219,11.4212468 L4.89693903,8.37416834 C4.23476099,6.16620189 3.5270251,5.06433764 2.7716124,5.06433764 C2.60633276,5.06433764 2.03315145,5.38642103 1.04889001,6.02846886 L0,4.78781209 L1.62736875,3.4359094 L3.22825037,2.09778002 C4.66173339,0.949298436 5.75194331,0.328440307 6.49993962,0.236265124 C6.5995312,0.225670275 6.69912278,0.222491821 6.80083332,0.222491821 C8.33602689,0.222491821 9.29486069,1.32541556 9.67097781,3.53232253 C9.88075581,4.79099054 10.0545113,5.81445292 10.1954228,6.60059068 C10.3320964,7.38884742 10.4465207,7.93766058 10.5376364,8.25020861 C11.0451297,10.3373938 11.5918239,11.3862838 12.179838,11.3947597 C12.6311785,11.3947597 13.3262006,10.7145704 14.2649042,9.35419184 C15.1824181,7.95673131 15.676138,6.9216146 15.7397071,6.24778223 C15.7598373,6.11110868 15.7672537,5.98291101 15.7672537,5.86424871 C15.7672537,4.95203224 15.2650579,4.49751324 14.2649042,4.49751324 C13.7574109,4.49751324 13.2160142,4.60558069 12.6364759,4.81429921 C13.6747711,1.61359544 15.6708406,0.0105948486 18.6225654,0 C18.7052052,0 18.7867856,0 18.8704849,0 Z" id="Shape"></path>
                </g>
            </g>
        </g>
    </g>
</svg>