<?xml version="1.0" encoding="UTF-8"?>
<svg width="46px" height="46px" viewBox="0 0 46 46" version="1.1" xmlns="http://www.w3.org/2000/svg" xmlns:xlink="http://www.w3.org/1999/xlink">
    <!-- Generator: Sketch 51.3 (57544) - http://www.bohemiancoding.com/sketch -->
    <title>Action Pledges_large</title>
    <desc>Created with Sketch.</desc>
    <defs>
        <polygon id="path-1" points="0 0 46 0 46 46 0 46"></polygon>
    </defs>
    <g id="The-Corporation-App-(Mobile)" stroke="none" stroke-width="1" fill="none" fill-rule="evenodd">
        <g id="Returning-User-(After-Sign-In)" transform="translate(-169.000000, -586.000000)">
            <g id="Action-Pledges" transform="translate(143.000000, 554.000000)">
                <g id="Action-Pledges_large" transform="translate(26.000000, 32.000000)">
                    <mask id="mask-2" fill="white">
                        <use xlink:href="#path-1"></use>
                    </mask>
                    <g id="Clip-2"></g>
                    <path d="M39.3122109,19.2169197 C37.6032031,21.7858421 35.5287109,23.5554184 33.2871094,24.401843 C33.6770312,23.76242 34.0529375,23.0833757 34.4123125,22.36462 C36.668918,17.8516434 38.1124375,12.1661966 38.5988516,6.01535559 L43.2762969,6.01535559 C43.0647148,11.0189728 41.676,15.6648294 39.3122109,19.2169197 Z M26.0958359,28.0623755 C26.0351016,28.0872624 25.976793,28.1174501 25.921,28.1507824 C24.9685664,28.6245322 23.9897188,28.8698974 23,28.8698974 C22.0106406,28.8698974 21.032332,28.6245322 20.0800781,28.1515012 C20.0236563,28.1174501 19.9649883,28.0872624 19.903625,28.0616567 C18.846793,27.5029141 17.8245508,26.6591848 16.8576523,25.5505941 C16.8067109,25.47791 16.7496602,25.410886 16.6861406,25.3497918 C15.72625,24.2102946 14.8231406,22.8085415 13.9985547,21.1590872 C11.521832,16.2060524 10.09125,9.69340776 9.92845313,2.69533356 L36.0716367,2.69533356 C35.9083906,9.69340776 34.4778984,16.2064118 32.001625,21.1590872 C31.1768594,22.8085415 30.2738398,24.2102946 29.3143984,25.3497918 C29.2505195,25.410886 29.1925703,25.4782694 29.1420781,25.5509535 C28.1751797,26.6599036 27.1524883,27.5032735 26.0958359,28.0623755 Z M25.2611875,36.0872819 L20.7389023,36.0872819 L20.7389023,31.2686544 C21.4797539,31.4637966 22.2345313,31.565231 23,31.565231 C23.7654688,31.565231 24.5203359,31.4637966 25.2611875,31.2686544 L25.2611875,36.0872819 Z M32.4785156,41.0438207 L32.4785156,43.3050258 L13.5214844,43.3050258 L13.5214844,41.0438207 C13.5214844,39.7972289 14.5358203,38.7826155 15.7826719,38.7826155 L30.217418,38.7826155 C31.4642695,38.7826155 32.4785156,39.7972289 32.4785156,41.0438207 Z M6.68778906,19.2169197 C4.32408984,15.6648294 2.935375,11.0189728 2.72370313,6.01535559 L7.40123828,6.01535559 C7.88738281,12.1661966 9.33108203,17.8516434 11.5878672,22.36462 C11.9472422,23.0833757 12.3230586,23.76242 12.7128906,24.401843 C10.4713789,23.5554184 8.39688672,21.7858421 6.68778906,19.2169197 Z M44.6523438,3.32002203 L38.7493398,3.32002203 C38.7708125,2.66622395 38.7826719,2.00847272 38.7826719,1.34766678 C38.7826719,0.603305495 38.1791016,0 37.4350156,0 L8.56507422,0 C7.82098828,0 7.21741797,0.603305495 7.21741797,1.34766678 C7.21741797,2.00847272 7.22927734,2.66622395 7.25075,3.32002203 L1.34765625,3.32002203 C0.603300781,3.32002203 0,3.92332753 0,4.66768881 C0,10.7062243 1.57819531,16.403261 4.44376172,20.7098649 C7.27626563,24.9672341 11.0493438,27.4092063 15.1254648,27.6468449 C16.0495078,28.6522942 17.0261094,29.4721248 18.0435898,30.097532 L18.0435898,36.0872819 L15.7826719,36.0872819 C13.0495352,36.0872819 10.8261719,38.3109321 10.8261719,41.0438207 L10.8261719,43.3046664 L10.7304883,43.3046664 C9.98595313,43.3046664 9.38283203,43.9083313 9.38283203,44.6523332 C9.38283203,45.3966945 9.98595313,46 10.7304883,46 L35.2696914,46 C36.0140469,46 36.6173477,45.3966945 36.6173477,44.6523332 C36.6173477,43.9083313 36.0140469,43.3046664 35.2696914,43.3046664 L35.1738281,43.3046664 L35.1738281,41.0438207 C35.1738281,38.3109321 32.9505547,36.0872819 30.217418,36.0872819 L27.9565,36.0872819 L27.9565,30.097532 C28.9739805,29.4724842 29.9510313,28.6522942 30.8750742,27.6468449 C34.9506563,27.4092063 38.7237344,24.9672341 41.5565977,20.7098649 C44.4221641,16.403261 46,10.7062243 46,4.66768881 C46,3.92332753 45.3967891,3.32002203 44.6523438,3.32002203 Z" id="Fill-1" fill="#EE342E" mask="url(#mask-2)"></path>
                </g>
            </g>
        </g>
    </g>
</svg>