<?xml version="1.0" encoding="UTF-8"?>
<svg width="200px" height="410px" viewBox="0 0 200 410" version="1.1" xmlns="http://www.w3.org/2000/svg" xmlns:xlink="http://www.w3.org/1999/xlink">
    <!-- Generator: Sketch 51.3 (57544) - http://www.bohemiancoding.com/sketch -->
    <title>Group 3</title>
    <desc>Created with Sketch.</desc>
    <defs>
        <polygon id="path-1" points="0 0 200 0 200 410 0 410"></polygon>
    </defs>
    <g id="The-Corporation-App-(Mobile)" stroke="none" stroke-width="1" fill="none" fill-rule="evenodd">
        <g id="The-Corporation_Intro.-Animation_2" transform="translate(-172.000000, -141.000000)">
            <g id="Group-3" transform="translate(172.000000, 141.000000)">
                <mask id="mask-2" fill="white">
                    <use xlink:href="#path-1"></use>
                </mask>
                <g id="Clip-2"></g>
                <path d="M105.919354,169.440022 C104.607881,172.221164 103.193839,174.50338 100.258233,176.770777 C100.258233,175.358682 100.103318,174.465273 100.282991,173.645256 C101.475625,168.196588 102.702921,162.754977 104.02359,157.336653 C104.185578,156.675418 104.970765,156.1652 105.467342,155.585825 C105.880449,156.173669 106.527697,156.711408 106.669879,157.359236 C107.560464,161.435328 107.874539,165.294772 105.919354,169.440022 M165.418779,47.2892257 C169.87807,43.8510816 171.455516,39.3466329 170.687307,33.8951421 C170.539466,32.8507141 170.332205,31.813343 170.221147,30.7653866 C170.063402,29.2679026 170.697918,28.0879812 172.154403,27.7492478 C173.587544,27.4147486 176.109336,29.049843 176.103677,30.2516409 C176.0867,33.86762 176.243737,37.5280579 175.732305,41.0854644 C175.16499,45.0324143 173.910814,48.8784499 173.00113,52.7795297 C172.198967,56.2183795 172.682812,59.5725459 173.929206,62.8561429 L173.613717,63.3896481 C172.934637,63.1786454 171.966241,63.1758226 171.633067,62.7164154 C170.758752,61.5082662 169.890803,60.1695636 169.527212,58.7539402 C169.124716,57.1837697 168.561645,56.288949 166.907803,55.7497983 C163.507452,54.6432691 162.632429,49.4387714 165.418779,47.2892257 M0.00623345971,60.6120341 C0.192980432,62.2697107 2.04559528,67.3154271 2.04559528,67.3154271 C2.04559528,67.3154271 5.08942945,74.9933844 6.65202059,77.6340936 C8.21390436,80.2748028 10.2242638,82.2239313 12.1122474,83.6049757 C13.9995236,84.98602 14.9233552,85.5816262 14.9233552,85.5816262 L15.4397389,87.0579393 C15.4397389,87.0579393 13.7979218,89.591383 13.3501535,90.282258 C12.9023852,90.973133 12.4546169,91.664008 13.0792289,92.7197271 C13.7045483,93.776152 16.0261527,93.4769375 16.0261527,93.4769375 C15.9582447,94.0873633 17.2350564,95.3999552 17.5880365,96.1183524 C17.9417239,96.8353381 16.8636846,98.0406645 17.6856542,99.5924869 C18.2303329,100.62139 19.640131,101.033515 19.640131,101.033515 C19.640131,101.033515 18.4764993,103.063799 19.1527497,104.311467 C19.4724832,104.900016 21.3922986,105.779311 21.9567838,106.062295 C22.8834449,107.602826 22.7257003,108.35298 23.9331893,109.647929 C25.8756407,111.733963 28.3288169,113.19969 31.3521372,113.246266 C33.5343887,113.280845 35.735032,113.436098 37.8967697,113.223684 C43.1065858,112.71135 47.3190033,115.24197 51.5370798,117.583465 C57.0503597,120.642651 62.8140503,125.331992 68.8585688,127.524585 C71.4687822,128.471627 71.9434307,129.418669 75.2652632,131.07564 C75.9577833,131.420725 77.3979985,132.048087 78.1117398,132.022682 C84.7561122,131.786275 88.3856528,131.253475 93.8862,127.974818 C97.8156675,125.633323 101.660957,123.151396 105.59184,120.812018 C106.207963,120.445057 107.162919,120.246051 107.798849,120.456348 C108.197809,120.587607 108.519664,121.64262 108.487125,122.26222 C108.331503,125.215552 108.713485,128.434931 107.643934,131.045295 C106.083465,134.848989 106.093369,138.813582 105.172366,142.649737 C104.482676,145.524737 103.804303,148.405383 103.006384,151.252155 C102.138435,154.347331 101.066763,157.387463 100.214376,160.486874 C98.7876006,165.675847 97.4817866,170.897281 96.0896728,176.096133 C95.5131622,178.247796 94.9557508,180.417101 94.1896638,182.505251 C93.1477006,185.344261 90.4136966,186.185449 87.9760827,187.302563 C85.5356393,188.420384 83.527402,189.948212 81.9322716,192.183147 C79.3475238,195.804772 79.9275712,199.578827 81.1485002,203.326065 C83.487789,210.500156 86.4785701,217.463951 87.4292819,225.055108 C88.0298432,229.843245 88.1812214,229.824192 83.267088,229.840423 C77.6377986,229.857359 77.5996004,229.856654 77.5529136,235.494448 C77.485713,243.73061 77.4708582,251.966771 77.4552959,260.203639 C77.4510517,262.45057 78.5142361,263.514758 80.7148794,263.512641 C86.4021736,263.507701 92.0901751,263.442071 97.7774693,263.487236 C99.5869342,263.500644 100.475397,262.908566 100.449932,260.987665 C100.397586,257.030836 100.406782,253.071183 100.515717,249.116471 C100.54189,248.158137 101.058274,247.213212 101.349005,246.261936 C102.214125,246.592201 103.10471,246.867422 103.938705,247.261905 C107.225876,248.818668 108.236714,251.579345 108.758757,255.047834 C109.387613,259.235426 110.697672,263.339745 111.935578,267.412309 C112.908218,270.610517 114.371777,273.662646 115.309049,276.867911 C115.737718,278.332227 115.383323,280.013898 115.461134,281.592536 C115.544604,283.283381 115.736303,284.968579 115.850898,286.658718 C115.9662,288.355208 116.044011,290.053815 116.139507,291.75101 C116.164972,292.206889 116.050378,292.743923 116.251272,293.103827 C117.368217,301.754937 115.294194,309.530986 115.232652,313.354439 C115.042368,325.223517 116.851833,331.334832 118.316807,343.179916 C119.090675,349.434487 119.109067,352.699736 119.230735,359.029817 C119.303595,362.789757 119.093504,366.562401 119.323401,370.309639 C119.653745,375.694089 117.687243,379.770181 113.114772,382.626127 C110.664425,384.156779 108.299671,385.837037 105.773635,387.22655 C103.364316,388.55255 100.724393,389.460779 98.3157816,390.787485 C95.5103327,392.332956 92.68437,393.93206 90.2036063,395.924942 C89.280482,396.668038 88.9805551,398.59035 88.9869214,399.971395 C88.9947026,401.540859 90.6351049,401.568382 91.8489603,401.845014 C100.295724,403.772971 108.179417,404.794112 115.984592,401.564147 C118.983154,400.322125 122.305694,399.817553 125.514346,399.135147 C128.99746,398.394873 132.535042,397.909355 136.009668,397.135914 C136.613058,397.001832 137.39683,396.027268 137.456957,395.380851 C137.817718,391.51929 137.838232,384.897052 136.241687,381.065131 C134.985389,378.04758 134.381998,374.389965 136.939866,371.280675 C137.326092,370.809977 137.438565,370.08664 137.596309,369.459983 C138.013661,367.812892 138.411913,366.158038 138.764893,364.494716 C138.926174,363.733977 139.05138,362.946422 139.042184,362.172275 C138.993375,357.889414 138.996912,353.675712 140.53333,349.516348 C141.730208,346.274387 142.041453,342.714157 143.140714,339.427032 C145.207663,333.244441 145.488491,326.858611 145.409265,320.489717 C145.329332,314.108121 144.467749,307.740639 144.259781,301.356219 C144.175603,298.770554 144.893589,296.15525 145.281938,293.559 C145.603793,291.419334 146.277214,289.286725 146.274385,287.151998 C146.263774,279.501563 145.997094,271.851128 145.91716,264.199987 C145.902305,262.824588 146.311168,261.44425 146.524088,260.066028 C146.767425,260.092845 147.011469,260.121072 147.254806,260.147889 C147.389207,260.572011 147.578784,260.986254 147.648814,261.41955 C148.296062,265.382731 149.077004,269.332504 149.519113,273.318267 C150.12887,278.828331 152.076274,283.878281 154.336336,288.854134 C154.472152,289.153348 154.714075,289.468088 154.697098,289.763774 C154.403537,294.807374 157.288212,299.026016 158.359885,303.719591 C158.92154,306.181053 160.127615,308.492909 161.009004,310.885214 C161.390279,311.917645 161.782164,312.961367 162.00711,314.034023 C163.113444,319.300622 164.195728,324.57216 165.22708,329.853579 C166.018633,333.907089 166.600095,338.004352 167.504827,342.031045 C168.292843,345.541876 169.614927,348.939089 170.301788,352.46474 C170.850003,355.285401 170.775022,358.224619 171.02331,361.106676 C171.129416,362.337407 171.364972,363.556847 171.51635,364.784756 C171.58921,365.36766 171.810618,366.04301 171.609017,366.529939 C170.204877,369.916567 170.506219,373.458448 170.913667,376.892358 C171.838206,384.691695 168.823374,390.735969 163.141739,395.726642 C160.577505,397.979219 158.706498,400.704611 157.252843,403.746155 C155.70157,406.99235 157.045582,409.604126 160.673001,409.928746 C162.882132,410.12634 165.150684,409.873701 167.37467,409.648585 C169.205357,409.462987 170.997845,408.901254 172.828531,408.714951 C177.154128,408.275303 180.94778,406.906961 184.141578,403.748272 C185.742367,402.165399 187.96989,401.226825 189.862826,399.921996 C194.123345,396.983484 193.541175,392.945499 191.898651,388.987964 C191.624189,388.328139 191.119123,387.690191 191.080925,387.020487 C190.972697,385.158159 190.355866,383.60422 188.995584,382.308564 C187.594982,380.97339 188.335603,379.827342 189.236799,378.516867 C189.96681,377.454797 190.708846,376.1168 190.718749,374.895243 C190.757655,369.824121 190.274518,364.741709 190.454898,359.680467 C190.633157,354.689089 191.296675,349.706885 191.896528,344.738795 C192.961128,335.921141 193.394041,327.149357 191.175713,318.414975 C190.254004,314.782765 189.738328,311.047523 188.804593,307.418842 C187.689063,303.087994 186.181647,298.854532 185.113511,294.512393 C184.382792,291.540008 184.118942,288.452594 183.635097,285.418813 C182.07958,275.654822 183.574263,265.7878 182.721876,256.032984 C182.109289,249.021202 183.723519,242.2423 183.713616,235.351898 C183.707249,230.90461 185.320064,226.848983 185.85201,222.562594 C186.110909,220.473033 186.224089,218.366534 186.395981,216.267093 C186.697323,212.548788 187.017056,208.831189 187.275956,205.109355 C187.339619,204.196187 187.459873,203.151758 187.106893,202.367026 C185.526618,198.857607 187.198852,195.962142 188.467175,192.857791 C190.05311,188.977882 191.340532,184.970948 192.625125,180.976717 C193.446387,178.422808 194.001676,175.785627 194.740883,173.204902 C194.896505,172.662223 195.261511,172.128718 195.659763,171.715887 C199.766074,167.465488 199.952114,162.270164 199.393995,156.849724 C199.270912,155.651455 199.484539,154.415784 199.572961,153.199166 C199.696044,151.502676 199.930893,149.810421 199.972628,148.112519 C200.095004,143.099971 199.824786,138.167165 198.801215,133.180022 C197.869602,128.642405 198.140527,123.866264 197.780473,119.203034 C197.598678,116.854483 197.157276,114.527807 196.901913,112.18349 C196.680505,110.153912 196.324695,108.103164 196.428679,106.08276 C196.763975,99.5776673 195.946957,93.3654377 192.963957,87.4531283 C191.617823,84.7863084 190.81566,81.8463847 189.76733,79.0299575 C189.698715,78.8443599 189.598267,78.6573508 189.586242,78.4661076 C189.358467,74.6913471 189.544507,70.8340204 188.79469,67.1665256 C188.19625,64.2428328 188.636945,61.6790443 188.984973,58.8456805 C189.449719,55.0582176 188.757199,51.1119734 188.408463,47.2490011 C188.243645,45.4233692 187.730798,43.6273764 187.355889,41.8222096 C186.81121,39.2047883 186.569996,36.4666933 185.606551,34.0115817 C184.618348,31.4901349 183.113762,29.0957131 181.453553,26.9384047 C180.47879,25.6716829 180.129347,24.4945843 180.011216,23.0154484 C179.958162,22.3499784 179.473611,21.3351896 178.948031,21.1502976 C173.159582,19.1143687 169.539238,14.7355336 166.07593,9.99750008 C163.640438,6.66591586 160.697759,3.58414753 156.719482,2.08878067 C152.53253,0.515787397 148.183589,-0.880076528 143.622436,0.684448407 C139.511173,2.09442622 135.409106,3.53686599 131.352311,5.0915112 C127.794923,6.45491318 125.524249,8.90437914 125.304256,12.91837 C125.269595,13.5457325 124.913785,14.1695666 124.640738,14.7644671 C123.858382,16.4722481 122.789538,18.0974627 122.317719,19.8821644 C121.901783,21.4551577 121.693107,23.3450078 122.180488,24.8389633 C123.224574,28.0392883 122.585107,30.584023 120.454494,33.0461915 C119.361599,34.3086792 118.338735,35.7320652 117.699976,37.2563655 C117.039288,38.83571 117.315164,40.409409 119.374332,41.0163064 C119.729434,41.1207492 120.321507,41.4820648 120.298164,41.6556657 C119.915474,44.4325739 122.834103,46.6752714 121.575683,49.5848502 C121.432793,49.915821 121.349323,50.5361266 121.532533,50.7019648 C123.160203,52.1860405 122.59501,54.0801249 122.679895,55.886703 C122.757706,57.518269 123.523086,58.9607087 125.256154,59.22111 C127.592614,59.5725459 129.894412,60.7679926 132.370224,59.4321127 C133.733335,58.6960732 134.674144,59.338961 135.435279,61.3156116 C134.464761,61.37489 133.588323,61.5484908 132.742303,61.4574562 C130.112283,61.1744727 127.597565,61.2767984 125.33821,62.8956618 C124.927932,63.1892308 124.355666,63.4101132 123.859796,63.4072904 C121.110938,63.3924708 119.411116,65.1489447 117.725441,66.9258837 C115.729937,69.0323821 113.696234,71.1092413 111.820276,73.3173597 C110.771239,74.5509139 110.012225,76.0286384 109.115274,77.3913347 C108.402948,78.4724588 107.614225,79.5091242 106.972636,80.6304729 C105.410752,83.3600996 104.179919,86.3226056 102.328719,88.8327613 C99.7326535,92.3513546 96.7878518,95.6314231 93.812633,98.8479791 C91.8093473,101.013756 89.5117936,102.913486 87.3125651,104.895076 C85.4175077,106.604268 83.4432244,107.436988 80.6731443,106.66143 C78.3098048,106.000194 75.6939324,105.996665 73.202558,106.07782 C68.2261757,106.24013 65.5141003,106.232367 60.8701841,104.642437 L57.390607,103.37995 L48.1360213,99.4922783 C48.1360213,99.4922783 45.5293448,98.4633755 43.4249045,97.9221078 C41.3204642,97.3822514 39.6496447,95.1607248 39.6496447,95.1607248 C39.6496447,95.1607248 35.8057695,90.2328594 34.1490975,89.0007166 C32.4917181,87.7692795 30.0484452,87.4989985 28.1335814,86.9175061 C26.2194249,86.3353081 23.0829246,85.619028 22.6478891,84.5223786 C22.2128535,83.4250235 21.0449776,81.6918376 21.3293423,80.2430466 C21.613707,78.7935498 23.2965519,76.4499381 23.6219443,75.1895675 C23.9466294,73.9299026 23.1996415,72.304688 22.4116259,70.4903471 C21.6236102,68.6760063 20.1692475,65.6154088 20.1692475,65.6154088 L16.9379589,66.3069895 C16.9379589,66.3069895 13.4930432,55.8288361 9.72202764,54.9474235 C5.32569267,53.9192265 -0.211638008,58.6749024 0.00623345971,60.6120341" id="Fill-1" fill="#691446" mask="url(#mask-2)"></path>
            </g>
        </g>
    </g>
</svg>