
<svg width="388px" height="488px" viewBox="0 0 388 488" version="1.1" xmlns="http://www.w3.org/2000/svg" xmlns:xlink="http://www.w3.org/1999/xlink">
    <defs>
        <polygon id="path-1" points="0 0 145 0 145 288 0 288"></polygon>
        <polygon id="path-3" points="0 0.576768959 199.628655 0.576768959 199.628655 331 0 331"></polygon>
        <polygon id="path-5" points="0 0 172 0 172 341 0 341"></polygon>
        <polygon id="path-7" points="0 0 107 0 107 373 0 373"></polygon>
        <polygon id="path-9" points="0 0 148 0 148 411 0 411"></polygon>
    </defs>
    <g id="The-Corporation-App-(375x667-Mobile)" stroke="none" stroke-width="1" fill="none" fill-rule="evenodd">
        <g id="Group-Copy">
            <g id="Group-12-Copy" transform="translate(108.000000, 10.000000)">
                <mask id="mask-2" fill="white">
                    <use xlink:href="#path-1"></use>
                </mask>
                <g id="Clip-2"></g>
                <path d="M120.881643,149.105285 C120.992449,147.842213 120.047871,146.696082 119.499808,145.553916 C118.176107,142.797852 116.28248,141.623477 113.104407,142.938579 C110.772031,143.902855 108.23146,144.366163 105.432509,145.151557 C106.311995,148.539405 106.646895,151.899008 101.034087,150.62999 C101.631343,155.011845 102.281764,158.9626 102.691197,162.938131 C103.825585,173.97428 105.095125,184.783483 102.862622,196.110996 C100.643536,207.370623 101.592089,219.101983 104.672276,230.535041 C106.310007,236.612058 106.563419,243.082021 107.160177,249.401346 C107.344024,251.343276 106.747763,253.411563 106.242431,255.352998 C105.407665,258.560973 104.370667,261.612366 106.652361,264.787142 C107.328124,265.727632 107.34303,267.627444 106.887884,268.786457 C105.938338,271.205075 106.88689,272.897264 107.92687,274.958119 C109.39566,277.86928 110.457503,281.025721 111.338976,284.175226 C111.907909,286.210809 110.882339,287.807859 108.555926,287.887142 C105.679958,287.984759 102.766227,288.12499 99.9245442,287.781597 C97.1966481,287.452078 94.9174387,285.75196 94.9388047,282.858638 C94.9566926,280.500969 93.8044173,279.015905 92.7932573,277.219162 C92.1299164,276.039832 91.9435847,274.531974 91.7925318,273.144032 C91.6116658,271.482564 91.8521579,269.77204 91.6345225,268.118501 C91.0834776,263.93733 90.3421258,259.782422 89.7438768,255.608189 C88.7814115,248.891955 87.8706221,242.168783 86.9424418,235.447594 C86.1479234,229.692662 85.7101681,223.859935 84.4649755,218.204106 C83.3087252,212.952124 81.0523725,207.948891 79.7222125,202.724163 C78.243981,196.917202 77.2661122,190.983884 76.0696143,185.105569 C75.7168263,185.121921 75.8097437,185.117461 75.4564588,185.133318 C75.1011863,188.26201 74.6728718,191.385253 74.4149888,194.522369 C73.9459297,200.233695 73.4192321,205.947499 73.217497,211.670718 C72.997874,217.884498 72.8716654,224.121567 73.1618459,230.326924 C73.4738894,236.998562 74.388157,243.639973 74.8949792,250.305169 C75.119571,253.257953 73.7307787,255.831667 72.8378772,258.583767 C71.4302033,262.921521 70.454819,267.746863 72.2033557,272.594504 C74.6137426,279.276547 71.5658528,282.456278 64.5249988,281.060407 C63.9461284,280.944952 62.9046584,281.24028 62.6547254,281.674353 C59.8632281,286.534877 55.0141319,286.27919 50.4780729,286.463522 C48.648544,286.538345 46.7101974,285.859983 44.9547043,285.181125 C43.6846674,284.690068 41.6688068,283.615292 41.6827196,282.83188 C41.7150171,281.089643 42.4414623,278.171545 43.5365958,277.833602 C50.0900061,275.811398 53.1279581,270.318595 56.9012993,265.499695 C57.0916061,265.255405 57.3778116,265.087425 57.3986808,265.069586 C56.5514926,262.768406 55.7072858,260.678317 55.0141319,258.539171 C54.2653268,256.223621 53.7644672,253.895188 57.2034051,252.676216 C54.3706664,251.031101 54.1102989,248.648161 54.9654372,246.209227 C56.6150938,241.502313 55.5159852,236.937117 54.4466897,232.409085 C53.2506886,227.3454 53.6134143,222.369916 54.5604763,217.359746 C54.6578656,216.843417 54.8645696,216.273078 54.7408454,215.799859 C52.2782856,206.384049 52.3741843,196.607999 50.4581975,187.037093 C48.3156314,176.339382 49.3138724,165.015337 48.9665501,153.963827 C48.936737,153.025318 49.0629457,152.081854 49.1225718,151.035323 C47.1802502,150.615125 45.3646341,150.223171 43.1753608,149.749952 C44.9427791,146.618286 44.7653913,144.036644 41.9540186,141.839523 C41.121737,143.883034 40.3068463,145.884426 39.482018,147.908612 C36.7894007,147.485441 34.2518113,147.222321 31.7996861,146.615313 C31.1154761,146.446342 30.1614578,145.220434 30.2151213,144.550495 C30.909269,135.959721 31.7127313,127.376875 32.5937076,118.802948 C33.1830127,113.074279 36.6294038,108.079966 36.6015783,102.080249 L36.6711421,102.080744 C36.8385922,96.2633775 37.132251,86.5249866 37.2321248,86.1256001 C37.3752275,85.5557559 30.0844407,79.5679313 27.5110756,77.8569119 C24.9377106,76.1463881 19.6483746,72.1540095 15.50237,65.3109231 C11.3563654,58.4678366 6.78154946,47.9177892 5.35201263,45.0665858 C3.92197893,42.2148868 2.7786476,41.5023337 1.77792213,39.0782657 C0.777196666,36.6546932 0.062676696,35.9421401 1.34911077,35.3718003 L2.63554485,34.8014605 C2.63554485,34.8014605 2.7786476,32.6628102 3.20745896,32.3778881 C3.63627031,32.0924704 4.63749266,31.5221306 4.63749266,31.5221306 C4.63749266,31.5221306 3.44546665,29.6233104 2.73094668,27.4851556 C2.01543294,25.3460097 1.70935206,25.3380814 1.99506068,22.7713046 C2.28176306,20.2050233 3.06485309,19.8314037 1.77792213,18.6917151 C0.491488055,17.5510355 -0.2235288,15.982725 0.062676696,15.4118897 C0.348385307,14.8420454 1.06290528,13.9862879 1.06290528,13.9862879 C1.06290528,13.9862879 0.205282559,11.9903464 0.205282559,10.8496668 C0.205282559,9.70997829 1.49221352,7.85575457 1.49221352,7.85575457 C1.49221352,7.85575457 2.09443758,7.35280506 2.7786476,7.00098816 C3.88620324,6.4316394 3.94831381,6.24482958 5.63772125,7.2859103 C7.14228764,8.21203112 8.06798354,9.13914298 8.92610314,10.4225314 C9.78372586,11.7054243 10.7188626,12.7603795 11.0279247,15.0204314 C11.3434464,17.3250799 11.0706568,18.4058019 11.4989713,18.5485108 C11.9282795,18.6917151 12.0872826,15.5496433 13.7866277,14.9842587 C15.0735587,14.5571233 15.3592673,14.6993366 15.6449759,15.2696764 C15.9311814,15.8400161 15.50237,20.5449478 15.50237,20.5449478 C15.50237,20.5449478 14.7873532,23.1107336 13.7866277,24.2514132 C12.7859023,25.3920928 12.2139881,26.3900635 12.3570909,27.2453254 C12.5001936,28.1005874 14.2154391,28.1005874 14.9304559,28.813636 C15.6449759,29.5266846 16.0737873,31.9497616 16.7888041,32.9482278 C17.503821,33.9461986 18.3614437,36.2270623 19.3621692,37.3677418 C20.3628946,38.5084214 21.7924314,41.216916 21.7924314,41.216916 C21.7924314,41.216916 21.3636201,42.7857221 22.3643455,43.4982752 C23.365071,44.2108283 24.9377106,44.6384593 25.6527274,47.7750804 C26.3672474,50.9117015 26.9391615,52.1945944 26.9391615,52.1945944 L27.939887,53.7629049 L30.513252,56.0437686 C30.513252,56.0437686 31.3703779,56.899526 31.6570802,57.8974968 C31.9427888,58.8954675 32.2284975,60.4632826 32.2284975,60.4632826 C32.2284975,60.4632826 32.514703,61.1763312 34.2299484,61.746671 C35.9456907,62.3175063 38.0902444,64.170739 38.0902444,64.170739 C38.0902444,64.170739 39.8054898,65.0260009 41.0924208,65.8812628 C42.3793517,66.7365248 44.8091171,67.7344955 44.8091171,67.7344955 L46.0960481,69.3028061 C46.0960481,69.3028061 46.238654,69.1605928 48.6694131,68.3053308 C51.0996754,67.4495734 51.8141954,67.1646513 52.9580236,67.3068646 C54.1023487,67.4495734 55.2451832,68.1621265 56.8178227,68.4475442 C58.3904623,68.7324663 63.8397951,69.8379642 66.0077023,68.7572421 C68.1766033,67.6760246 69.4769502,66.4322775 68.1766033,64.053797 C67.7860521,63.3407484 67.4978591,62.8363123 67.2866831,62.4800358 C66.9030883,61.834873 66.6119139,61.1411495 66.3967629,60.4231457 C65.6911869,58.0679546 64.6904614,56.1577374 65.2494565,54.4868549 C66.2665792,51.443391 67.3969915,51.9810267 67.3969915,51.9810267 C67.3969915,51.9810267 68.040457,48.3454202 70.613822,45.5655711 C73.1871871,42.7857221 74.474118,41.9299647 75.7600552,41.2882705 C77.0469862,40.6465763 79.8350053,40.2194408 81.9790621,40.8606395 C84.1236158,41.5023337 86.1255636,44.5581856 87.1759775,46.6527349 C88.0803074,48.457407 89.2703459,49.8423763 89.2703459,53.4779828 C89.2703459,57.1135893 89.7910809,58.568922 88.198069,61.1763312 C86.6055541,63.7837404 77.2825094,73.0811214 93.7736105,69.5168693 C93.7736105,69.5168693 96.9899441,67.8063455 99.7779633,67.3777235 C102.565982,66.950588 104.495385,67.5922822 106.211624,67.3777235 C106.761675,67.3098377 107.312224,67.1527589 107.806127,66.9713997 C109.216285,66.4540802 110.74818,66.3708334 112.206536,66.7345427 L112.215977,66.7365248 C112.215977,66.7365248 113.931223,66.0953261 114.574688,65.8812628 C115.218153,65.6671996 115.646468,63.1014138 117.576864,62.4597196 C119.506267,61.8180254 120.149733,62.0315931 121.651318,60.7487002 C123.151909,59.4658073 125.082305,59.4658073 124.867651,56.899526 C124.653494,54.3332447 123.151909,52.6227209 124.43884,50.4840705 C125.725274,48.3454202 126.797551,45.5655711 126.797551,45.5655711 C126.797551,45.5655711 127.226859,43.2128576 127.012205,42.1440279 C126.797551,41.0742072 127.226859,37.652664 127.869828,36.7974021 C128.513293,35.9421401 128.018893,34.2256701 128.138145,33.5596955 C128.663352,30.6267318 129.156262,29.3126214 129.156262,29.3126214 L130.014381,27.1744665 C130.370151,26.0674821 130.96194,25.0511772 131.749999,24.1959153 L132.158438,23.7524278 C132.158438,23.7524278 129.799727,22.6831026 128.942105,20.7585155 C128.083985,18.8339284 126.583394,17.3369723 126.797551,16.0535839 C127.012205,14.770691 126.583394,12.4179774 127.012205,11.3491477 C127.441016,10.2798226 128.083985,8.99643416 128.72745,9.63812836 C129.370916,10.2798226 129.58557,13.2737348 130.229035,14.770691 C130.872004,16.2676471 130.705548,13.4114885 130.76418,9.25955356 C130.76418,9.25955356 130.156987,5.86030857 131.729627,3.00860961 C133.302266,0.157406166 133.445369,1.01316361 134.302992,1.01316361 C135.160615,1.01316361 135.303717,0.157406166 136.161837,0.0146973392 C137.01946,-0.127515971 137.733483,0.789685554 138.162791,1.58300789 C138.746133,2.66075684 139.266868,3.83562709 139.691208,4.96490979 C140.321754,6.64124299 140.736156,7.9984634 140.736156,7.9984634 C140.736156,7.9984634 142.16619,6.85827933 142.451898,8.71151202 C142.737607,10.5647447 141.737378,13.7013658 142.16619,15.2696764 C142.594504,16.8379869 143.452624,18.2635886 143.452624,20.5449478 C143.452624,22.8258114 142.308796,24.6795397 142.16619,25.3920928 C142.023087,26.1046459 142.594504,27.6734519 142.594504,27.6734519 C142.594504,27.6734519 144.452852,28.5282183 144.882161,29.6688979 C145.310972,30.8095775 144.452852,35.7994313 144.167144,38.2230038 C143.881435,40.6465763 143.024309,46.2067698 142.594504,48.488129 C142.16619,50.7689927 141.252419,57.3385539 141.022361,59.7507295 C140.736156,62.7446417 140.59355,67.0219424 137.591374,69.5877282 C134.589197,72.1540095 129.58557,77.1438633 126.583394,79.2825137 C123.581217,81.421164 122.723098,81.848795 122.723098,81.848795 C122.723098,81.848795 120.435938,82.2769214 120.579041,84.8432028 C120.69084,86.8559918 121.659268,99.1388613 122.071682,104.341787 C122.544219,106.622155 123.198119,108.875766 123.646806,111.163567 C124.625669,116.146483 125.458944,121.158635 126.457185,126.137588 C126.852208,128.11024 127.720762,129.998159 128.012434,131.978739 C128.280254,133.795799 128.017899,135.686691 128.08001,137.541906 C128.104854,138.273784 128.33988,139.006158 128.538137,139.72218 C130.454124,146.643062 130.38456,146.786762 123.574261,149.572557 C123.574261,149.572557 120.80562,149.97343 120.881643,149.105285" id="Fill-1" fill="#E6C7D7" mask="url(#mask-2)"></path>
            </g>
            <g id="Group-11-Copy" transform="translate(188.000000, 0.000000)">
                <g id="Group-3">
                    <mask id="mask-4" fill="white">
                        <use xlink:href="#path-3"></use>
                    </mask>
                    <g id="Clip-2"></g>
                    <path d="M2.47046784,8.62894233 C2.47046784,8.62894233 85.9657895,2.21793351 91.4710526,0.996677778 C96.975731,-0.225161728 96.6704678,1.60730564 96.6704678,1.60730564 C96.6704678,1.60730564 101.258187,53.8148206 101.564035,59.9210993 C101.869883,66.027378 101.258187,66.3326919 101.258187,66.3326919 C101.258187,66.3326919 64.8622807,69.9964591 62.4160819,70.301773 C59.9692982,70.6070869 59.6634503,72.1336566 59.6634503,72.1336566 C59.6634503,72.1336566 63.0277778,107.244175 63.3336257,109.076059 C63.6394737,110.907942 65.7804094,109.686687 65.7804094,109.686687 L67.4114035,109.686687 C69.0423977,109.686687 69.0423977,114.164235 68.6347953,116.60733 C68.2266082,119.049258 71.4891813,120.270514 73.9359649,122.306718 C76.3827485,124.341755 78.8295322,124.748646 80.8687135,125.563011 C82.9073099,126.376792 84.1312865,125.155537 85.3540936,123.52739 C86.5774854,121.899244 88.6166667,121.084879 90.655848,120.270514 C92.6944444,119.456732 94.7336257,117.828586 94.7336257,117.828586 C94.7336257,117.828586 94.3254386,114.57171 96.7722222,111.722307 C99.2190058,108.872905 102.073392,104.394773 106.559357,99.9166407 C111.045322,95.4390922 115.530702,95.4390922 120.831871,93.8103621 C126.133626,92.1822157 123.278655,91.3678506 124.910234,88.9259229 C126.541228,86.4828277 125.726023,82.4127536 125.317836,81.1909141 C124.910234,79.9696584 123.686257,76.7133656 123.278655,74.2702704 C121.944152,71.889639 121.565205,69.4249441 121.565205,67.9030446 C121.565205,66.3817289 122.055263,64.9076989 122.055263,64.9076989 C121.184503,62.8796672 121.141813,60.4418259 121.33538,58.6163638 L121.246491,58.0436813 C121.246491,58.0436813 117.392105,57.2655102 115.516667,56.4108647 C113.641228,55.5550517 115.410234,52.528766 115.410234,52.528766 C115.410234,52.528766 123.949415,49.3915631 129.365789,47.4055631 C134.781579,45.4189794 137.10848,45.9753162 139.330702,45.8597289 C141.552924,45.7447254 147.041813,50.6256619 149.369298,52.787378 C151.697368,54.9485102 151.906725,56.7296055 151.388012,61.3957131 C151.359942,61.6525737 151.331871,61.8919212 151.303216,62.1242633 C151.341228,62.2380993 151.375731,62.350184 151.416667,62.4657713 C153.000877,66.9520764 151.476901,71.3262968 151.476901,71.3262968 L149.762281,74.9404432 C149.206725,76.6742527 148.561696,81.5983885 149.377485,84.8546813 C149.386257,84.8873727 149.39386,84.920064 149.402632,84.9515878 C150.068713,87.4711575 152.74883,88.8926478 155.24883,88.1442492 L156.717836,87.7040834 L163.242398,85.6690464 L171.397953,83.2265349 C171.397953,83.2265349 173.437719,80.376549 178.331287,77.5271469 C183.224269,74.6783286 180.369883,74.2702704 181.593275,71.0139776 C182.816667,67.7571011 182.000877,62.0582968 181.593275,59.2088947 C181.185673,56.3594926 180.777485,54.323288 182.000877,49.0319582 C183.224269,43.7400446 182.000877,49.0319582 182.000877,47.403228 C182.000877,45.7750817 180.777485,40.4825843 180.777485,40.4825843 C179.859942,36.9209776 178.024854,37.0231381 175.272222,33.054057 C172.519591,29.0849758 173.437719,28.7796619 173.742982,26.9477783 C174.04883,25.1158947 176.190351,24.1999529 176.190351,24.1999529 L178.942982,19.31493 C178.942982,19.31493 182.918421,18.0936743 184.753509,19.31493 C186.588596,20.5356019 189.647076,22.3680693 190.258772,24.8105808 C190.870468,27.2525085 189.647076,31.2221734 189.03538,33.6646848 C188.423684,36.1066125 189.952924,39.7709635 190.258772,42.2128912 C190.56462,44.6559864 193.011404,46.1819723 194.540058,48.9297977 C196.069883,51.6776231 195.152339,55.0360764 195.458187,57.7839018 C195.764035,60.5317272 196.681579,64.8061222 197.904386,69.3858312 C199.128363,73.9655402 200.045906,77.9346213 199.434211,81.5983885 C198.822515,85.261572 195.458187,88.9259229 193.317251,91.0625367 C191.176316,93.1997342 191.176316,93.5056319 191.176316,93.5056319 C191.176316,93.5056319 190.870468,98.3906549 189.952924,101.44321 C189.03538,104.49635 183.835965,109.076059 175.883918,117.624849 C167.931871,126.173639 172.826023,126.478953 172.214327,128.61615 C171.602632,130.752764 173.131287,137.469671 174.354678,142.965322 C175.578655,148.460972 182.918421,169.527634 184.141813,172.274875 C185.365205,175.022701 189.341228,182.961447 189.341228,183.876805 C189.341228,184.79333 184.141813,186.930528 180.777485,187.845886 C177.413158,188.761828 178.024854,192.425595 178.024854,192.425595 C178.024854,192.425595 179.554094,194.257478 179.859942,197.310618 C180.165789,200.363757 181.695614,205.554094 182.918421,208.301919 C184.141813,211.049745 184.753509,215.629454 185.671053,220.209163 C186.588596,224.788288 188.70848,234.863648 190.237719,237.611473 C191.766374,240.359299 191.745322,244.633694 192.051754,247.686833 C192.228363,249.458004 190.849415,251.961228 189.931871,255.624995 C189.013743,259.288762 189.952924,263.868471 189.952924,263.868471 C189.03538,271.50132 191.176316,275.470401 192.09386,280.049526 C193.011404,284.629235 191.788012,289.991202 191.788012,293.960283 C191.788012,297.92878 193.317251,300.065978 194.846491,304.340373 C196.375731,308.614768 194.234795,310.446651 193.317251,311.973221 C192.399708,313.499207 191.788012,316.85766 195.764035,322.353311 C199.740058,327.848962 191.788012,327.848962 191.788012,327.848962 C190.870468,327.544232 181.389181,327.848962 178.331287,326.017662 C175.272222,324.185778 171.602632,322.659209 171.602632,317.773602 C171.602632,312.888579 171.602632,315.636404 170.684503,314.415732 C169.766959,313.194477 168.85,308.614768 169.461696,304.340373 C170.073392,300.065978 170.684503,300.981919 170.990351,296.707524 C171.296199,292.433129 170.684503,288.158734 170.990351,284.189653 C171.296199,280.220572 168.85,276.385759 168.543567,269.668852 C168.238304,262.951946 166.402632,261.42596 164.261696,257.456879 C162.121345,253.487798 159.368713,251.655914 158.757018,248.602775 C158.145322,245.549635 156.921345,240.359299 154.475146,235.169546 C152.028363,229.979209 147.440058,218.682009 145.299708,215.323556 C143.158772,211.965103 142.241228,215.018826 141.017836,216.85071 C139.794444,218.682009 138.265205,224.17766 137.347661,227.842011 C136.430117,231.505195 131.53655,247.686833 130.619006,250.129344 C129.701462,252.571856 125.114327,261.120646 125.114327,261.120646 L122.055263,269.668852 L121.138304,275.775131 L118.997368,279.744212 C118.997368,279.744212 119.302632,285.716223 120.22076,288.464048 C121.138304,291.211874 122.361696,295.180955 122.666959,297.012838 C122.973392,298.844722 121.443567,303.423847 121.443567,304.645687 C121.443567,305.866942 122.973392,310.446651 122.973392,310.446651 C122.973392,310.446651 125.726023,313.194477 126.031287,316.55293 C126.337135,319.911383 122.055263,319.911383 119.914327,321.742683 C117.773977,323.574567 115.633041,327.848962 113.797368,329.070217 C111.962281,330.291473 105.540058,330.596787 102.481579,330.902685 C99.4230994,331.207415 96.0587719,330.902685 96.0587719,328.45959 C96.0587719,326.017662 98.8114035,325.407034 100.340058,322.963939 C101.869883,320.522011 101.258187,318.38423 100.646491,317.163558 C100.034795,315.942302 99.4230994,314.721046 99.4230994,313.805105 L99.4230994,307.698826 C99.4230994,307.698826 98.1997076,301.287233 98.5055556,297.623466 C98.8114035,293.960283 99.7289474,277.912329 99.4230994,273.333203 C99.1172515,268.753494 97.5880117,265.395041 95.752924,256.235039 C93.9178363,247.076205 97.5880117,237.306743 98.1997076,234.863648 C98.8114035,232.421136 98.8114035,229.979209 99.7289474,225.094186 C100.646491,220.209163 103.704386,211.049745 104.622515,206.470036 C105.540058,201.890327 107.068713,201.890327 107.068713,201.890327 C107.068713,201.890327 104.316667,198.837187 104.622515,193.341537 C104.826608,189.670764 104.622515,184.79333 104.928363,179.29768 C105.234211,173.801445 104.010819,160.978844 104.622515,158.231018 C105.234211,155.483193 105.845322,150.292856 105.540058,148.766286 C105.234211,147.239717 101.869883,149.682228 101.869883,149.682228 L97.5880117,150.292856 C97.5880117,150.292856 93.6119883,151.819426 87.495614,153.651309 C81.378655,155.483193 81.6839181,153.040681 79.5429825,151.208798 C77.4026316,149.377498 73.1207602,145.713147 71.5909357,143.881847 C70.0616959,142.04938 68.8383041,144.186577 68.8383041,144.186577 L76.7903509,217.766651 C76.7903509,217.766651 84.4365497,302.337443 85.3540936,312.717533 C86.2716374,323.098791 85.6599415,325.235988 85.6599415,325.235988 C85.6599415,325.235988 81.0722222,327.677916 79.2371345,327.067288 C77.4026316,326.457244 76.7903509,324.93009 76.178655,322.488163 C75.5669591,320.045068 70.6739766,252.87717 70.6739766,252.87717 C70.6739766,252.87717 59.6634503,141.744066 58.7453216,135.332473 C57.8283626,128.921464 58.1342105,127.700209 56.9108187,127.394311 C55.6874269,127.089581 54.4640351,124.952383 54.4640351,124.952383 L53.2406433,122.815186 C53.2406433,122.815186 52.6289474,120.983302 53.2406433,119.762046 C53.8523392,118.540791 52.9347953,117.319535 52.0172515,115.792965 C51.0997076,114.266396 51.7114035,112.129198 52.3230994,110.907942 C52.9347953,109.686687 55.075731,108.770745 55.075731,108.770745 C55.075731,108.770745 52.0172515,77.0180958 51.7114035,74.881482 C51.4055556,72.7442845 50.4880117,71.5230287 50.4880117,71.5230287 C50.4880117,71.5230287 9.81081871,74.5761681 7.36403509,74.881482 C4.91725146,75.1867959 4.91725146,72.7442845 4.91725146,72.7442845 C4.91725146,72.7442845 0.329532164,13.8192792 0.0236842105,11.6820817 C-0.282163743,9.54488413 2.47046784,8.62894233 2.47046784,8.62894233" id="Fill-1" fill="#691446" opacity="0.5" mask="url(#mask-4)"></path>
                </g>
                <path d="M27.3344486,30.5766646 C26.7405549,30.2238403 26.3022445,29.6686347 26,29 C26.1466611,29.5462507 26.4059668,30.0244439 26.8353548,30.3414484 C27.696919,30.9838153 29.0843441,31.4339498 30,30.3265235 C29.1272829,30.8674013 28.115154,31.0393359 27.3344486,30.5766646" id="Fill-4" fill="#FEFEFE"></path>
                <path d="M37,57.469 C37.334,57.399 37.584,57.257 37.797,57 C37.545,57.179 37.278,57.333 37,57.469" id="Fill-6" fill="#FEFEFE"></path>
                <path d="M65,15.04828 C65.032,15.03228 65.062,15.01928 65.098,15.00128 C65.062,15.00128 65.032,14.99928 65,15.00028 C65,15.01528 65.001,15.03228 65,15.04828" id="Fill-8" fill="#FEFEFE"></path>
                <path d="M64.402,15.674 C64.432,15.536 64.463,15.403 64.496,15.266 C64.517,15.182 64.648,15.091 64.836,15 C64.553,15.022 64.273,15.045 64,15.068 C64.041,15.298 64.086,15.526 64.131,15.754 C64.22,15.726 64.311,15.696 64.402,15.674" id="Fill-10" fill="#FEFEFE"></path>
                <path d="M40,21.154 C40.044,21.22 40.097,21.269 40.163,21.291 C40.406,21.363 40.475,21.222 40.454,21 C40.305,21.054 40.15,21.105 40,21.154" id="Fill-12" fill="#FEFEFE"></path>
                <path d="M65.0025291,15.747 C65.3338392,15.509 65.6666667,15.311 66,15.163 C65.8846737,15.093 65.7622661,15.041 65.6403642,15 C65.4147699,15.085 65.1972686,15.217 65,15.416 C65.0010116,15.524 65.0025291,15.635 65.0025291,15.747" id="Fill-14" fill="#FEFEFE"></path>
                <path d="M46.0212766,28.9626945 C46.9551341,28.8192097 47.5837188,28.0103416 48,27 C47.2895467,27.8415796 46.4167438,28.5025021 45.2796022,28.8630729 C45.1810823,28.8965279 45.0901943,28.9180878 45,28.9344436 C45.2934783,29.0058143 45.6278908,29.0244005 46.0212766,28.9626945" id="Fill-16" fill="#FEFEFE"></path>
                <path d="M38,38.796 C38.0858447,38.82 38.1799087,38.83 38.2730594,38.836 C38.509589,38.633 38.7159817,38.41 38.8885845,38.167 C38.9296804,38.112 38.9625571,38.055 39,38 C38.7041096,38.175 38.3744292,38.326 38.0146119,38.452 C38.0091324,38.568 38.0073059,38.683 38,38.796" id="Fill-18" fill="#FEFEFE"></path>
                <path d="M53,54.9543656 C53.1757396,54.9889646 53.3633136,55.0037012 53.5639053,54.9992161 C54.6153846,54.4392258 55.6650888,53.2269812 56,52 C55.4846154,53.404461 54.5579882,54.5321303 53,54.9543656" id="Fill-20" fill="#FEFEFE"></path>
                <path d="M58.413,30.3650998 C58.473,30.3340998 58.537,30.3080998 58.599,30.2760998 C58.719,30.1920998 58.844,30.1100998 58.972,30.0380998 C58.655,30.0080998 58.338,29.9960998 58.017,30.0010998 C58.01,30.1930998 58.005,30.3840998 58,30.5760998 C58.138,30.5010998 58.279,30.4320998 58.413,30.3650998" id="Fill-22" fill="#FEFEFE"></path>
                <path d="M62.522,45 C62.335,45.028 62.161,45.053 62,45.074 C62.002,45.105 62.002,45.137 62.006,45.172 C62.261,45.113 62.468,45.063 62.522,45" id="Fill-24" fill="#FEFEFE"></path>
                <path d="M54.019,55 C54.014,55.003 54.008,55.003 54,55.006 C54.008,55.005 54.014,55.003 54.019,55" id="Fill-26" fill="#FEFEFE"></path>
                <path d="M28.5971827,19.701276 C28.6337334,19.6913743 28.605305,19.299641 28.6435963,19.2940713 C29.8480292,20.4228575 30.2744542,22.4347456 30.3777245,24.2597403 C30.4363216,25.3056003 30.3371126,26.3830218 30.127091,27.4474473 C30.0481879,27.8534143 29.9083669,28.2414345 29.7575227,28.6288359 C29.6484507,28.9042251 29.495866,29.1499094 29.3229754,29.3801223 C29.2823635,29.3844543 29.2353697,29.3943559 29.1814139,29.4042576 C24.6410033,29.7638106 26.0409536,21.6593239 28.5971827,19.701276 M29.7273539,18.2605883 C29.6124802,18.1733302 29.4987669,18.0879286 29.3775113,18.0179983 C29.0729221,17.8502894 28.1666965,18.9122396 27.997867,18.8181741 C28.0930149,18.8695388 28.1829413,18.9308051 28.2705469,18.9920715 C27.1670636,19.5645097 26.1314601,20.5893287 25.5831994,21.6358075 C24.5597795,23.5851916 24.100865,24.7046949 24.0045568,26.8428289 C23.8914236,29.3788846 25.9046136,31.4792686 27.8464427,30.904355 C29.806257,30.322634 31.2503002,28.6845326 32.0729813,26.620661 C33.0453462,24.1830027 33.6556851,19.9977061 31.7950798,18.3756948 C31.2648044,17.91465 30.5100032,17.9641582 29.7273539,18.2605883" id="Fill-28" fill="#FEFEFE"></path>
                <path d="M37.9847473,27.8502581 C36.2108866,27.5866785 37.3762217,23.2891857 37.8215544,21.2619754 C38.0502543,20.2154982 39.0564189,18.8825215 39.0834262,19.7842411 C39.1127319,20.7016427 38.979994,21.5382213 39.990181,21.2915301 C41.1555161,21.010459 42.4966858,20.6208197 41.8157578,19.153339 C41.8008176,19.1177527 41.7197957,19.1243874 41.6054458,19.1581642 C41.1560907,17.6979214 39.5701317,17.8197591 38.1996562,18.4271381 C36.2781175,19.2793988 35.5092721,21.6552337 35.1708192,23.6372073 C34.8995973,25.2313509 34.6720466,30.0240355 36.8125167,30 C37.8600541,29.9878461 39.5051993,29.8020738 40.2556568,28.8599427 C40.2556568,28.8599427 40.7498324,28.4015435 41.1296581,27.5293786 C41.5112077,26.6566106 41.4583424,25.5504209 41.4583424,25.5504209 C41.428462,25.5383578 41.3962831,25.5407704 41.3600818,25.5558493 C40.6515719,25.6849249 40.046494,25.9575518 39.3747599,26.3128112 C39.3690137,26.315827 39.1845598,26.3990626 39.1868583,26.4400773 C39.1868583,26.4400773 39.225358,27.1741192 38.8300175,27.6005512 C38.4306546,28.0281894 37.9847473,27.8502581 37.9847473,27.8502581" id="Fill-30" fill="#FEFEFE"></path>
                <path d="M45.121586,29.335873 C46.0782097,29.034938 46.8114268,28.4833272 47.4087334,27.7809387 C47.0587491,28.6241772 46.5302728,29.2986439 45.7451413,29.4190179 C45.4144062,29.4705181 45.1338354,29.4543855 44.8870965,29.3954395 C44.9629264,29.3817888 45.0387563,29.3637948 45.121586,29.335873 M45.938216,29.6101272 C48.3029433,28.6862256 49.3651456,26.5771986 49.3808949,23.9227656 C49.3756451,23.9246271 49.3709787,23.9264885 49.363979,23.9308319 C49.2134858,23.9810912 48.0947026,24.2758214 48.0171227,24.4960934 C47.6753047,25.4541215 46.547772,28.7104245 45.1944993,28.1358558 C44.2944564,27.7542578 44.4373666,26.1366546 44.36212,25.2158555 C44.2116268,23.3984562 44.4536992,21.5196289 45.1075866,19.7245671 C45.3689082,19.2027395 45.6733945,19.2412096 46.0420447,18.9408951 C46.2508686,19.2678904 46.3908624,19.6966453 46.762429,20.209786 C47.2588234,20.8997648 48.9684967,20.0658336 49.5920521,19.6879585 C50.4588466,19.1617876 49.795043,18.3024164 48.9871626,17.6980645 C49.1032407,17.634775 49.2029862,17.5969255 49.2700665,17.6217449 C49.0355771,17.534877 48.8069207,17.4709671 48.5852639,17.4250513 C48.182782,17.1756165 47.8018824,17.0105676 47.6053079,17 C47.504979,16.9975374 46.8633412,17.2345625 46.5069405,17.4132621 C46.1137914,17.43622 45.7655571,17.5634193 45.454071,17.7638358 C45.209082,17.8302277 44.9728426,17.9102702 44.7599355,18.0070658 C42.9347674,18.8267259 42.022475,21.2038023 42.0218917,23.36495 C41.9746438,24.1839896 42.0067257,25.7103817 42.0907219,26.459927 C42.4162073,29.3749635 43.084094,30.7263789 45.938216,29.6101272" id="Fill-32" fill="#FEFEFE"></path>
                <path d="M68.6305674,16.7127538 C68.9657237,17.3455813 69.0034962,17.8533696 68.4722826,18.5431399 C67.9008981,19.3010066 67.2018066,19.8792395 66.2155239,20.4651039 C66.2742812,19.0720616 66.2508982,17.7752935 66.2293139,16.3934049 C66.8192848,16.2219896 67.313925,16.1445006 67.8685217,16.2296211 C68.2510435,16.2812805 68.495066,16.456805 68.6305674,16.7127538 M64.6674499,15.4746896 C64.6512616,15.3919172 64.6380712,15.3097318 64.6236817,15.2269594 C64.6140887,15.1629722 63.313035,15.6114696 63.3316214,15.724768 C63.3316214,15.724768 63.7279332,18.0735091 63.688362,20.5942524 C63.6451934,23.1173439 63.468322,25.2025046 63.468322,25.2025046 C63.3484092,25.1854805 63.2320938,25.1696305 63.1175771,25.1438008 C63.2063126,25.1637601 63.0714107,25.9439343 63.069612,26.01614 C63.0660146,26.0942161 62.9287145,26.8585402 63.0498264,26.8837829 C64.0936672,27.1033353 65.3131802,26.9683164 66.4913233,26.8344717 C66.5123081,26.8321235 66.5794592,25.0933155 66.5548771,25.0962507 C66.2287143,25.1332341 66.1471736,25.1150359 65.8192122,25.1432137 C65.9067485,24.216867 65.7886344,24.1587502 65.8449934,22.8613951 C65.8515886,22.7023077 65.8599825,22.5449813 65.8671773,22.3864809 C66.5662688,22.1716249 67.9260798,21.8874982 68.5586198,21.4061266 C68.6473552,21.3579895 68.7372898,21.3168968 68.8242266,21.2658244 C70.5941393,20.2197218 72.3268791,15.3637394 69.5185216,15.0890053 C69.5185216,15.0890053 68.0525878,14.8718011 66.6112361,15.1160091 C65.1680858,15.3643264 64.6674499,15.4746896 64.6674499,15.4746896 M63.8076752,21.3433135 C63.7992813,21.4601342 63.7878896,21.5687363 63.777697,21.6814477" id="Fill-34" fill="#FEFEFE"></path>
                <path d="M70.8369709,18.0111588 C70.9248647,18.8217697 71.3767132,20.5953209 72.4425805,20.8401363 C72.2513186,21.9106746 72.284743,22.9691232 72.3243571,24.020318 C72.1541402,24.0269673 71.9845423,24.0360346 71.8149444,24.0426839 C71.8489878,24.0426839 71.675057,26.0024157 71.7412869,26 C72.8461493,25.9431764 73.9602963,25.9322957 75.0707295,25.6191739 C75.2199014,25.5768601 75.0298775,23.6951065 75.144387,23.6630689 C75.0862038,23.678181 75.0292585,23.6914796 74.9704563,23.7059872 C74.9927392,22.63424 74.9463165,21.57156 75.123961,20.4859096 C76.3489038,20.0718392 76.5896833,19.35855 77.0669096,18.2209142 C77.4389109,17.3377655 77.7502531,16.3863102 77.9706066,15.4372729 C78.2695694,15.4898629 78.5697701,15.5358035 78.8743037,15.5775128 C78.7078006,15.555147 79.1447938,13.6474006 78.9479612,13.6226168 C78.7232748,13.5911838 78.4979696,13.5567283 78.2745212,13.5204593 C78.278235,13.4648469 78.2869006,13.4043987 78.2899954,13.3505998 C78.2906144,13.3614805 78.1154457,13.3989584 77.8963302,13.4533618 C77.2129867,13.3312563 76.5364518,13.1789268 75.8735344,13 C75.9242899,13.0132986 75.8277305,13.9109549 75.8252547,13.9780525 C75.8233977,14.0536128 75.7243625,14.9349481 75.7986389,14.954896 C75.881581,14.9772618 75.965761,14.9978142 76.049941,15.0201801 C75.5888079,16.3959819 75.2960348,17.76453 74.5489374,19.1209884 C74.4437124,19.3120049 74.324251,19.4945585 74.1967431,19.6759033 C73.6780458,19.0526819 73.4286006,18.0504502 73.2429095,17.4544306 C73.0504096,16.8318137 72.9235207,16.1825997 72.7780626,15.5370125 C72.8919532,15.5110197 73.0015109,15.485027 73.1135446,15.4578253 C73.2367198,15.4269967 73.0955945,13.5246907 73.1884401,13.5005114 C72.1956113,13.7507671 69.214649,14.1013669 70.2136675,14.0360828 C70.0304522,14.0487769 69.8788044,16.0079043 70.1393911,15.9921877 C70.3411755,15.9794936 70.540484,15.9553143 70.7428874,15.9317395 C70.6946076,16.6468421 70.7633134,17.3685941 70.8369709,18.0111588" id="Fill-36" fill="#FEFEFE"></path>
                <path d="M46.2480287,38.8746737 C45.7377713,40.0861832 45.1198914,41.1899223 44.5146729,41.2038477 C44.4019858,41.2050586 44.300694,41.1947659 44.1987692,41.1802351 C43.7625814,40.8296783 43.501122,40.2096954 43.3137321,39.7059593 C42.8275315,38.4024211 43.1877505,36.7035226 43.7568837,35.3333846 C43.9575681,34.8508393 44.2563789,34.2399382 44.6178639,33.7701074 C44.8862872,33.5158175 45.1724365,33.2893785 45.4744126,33.0980556 C45.7580296,33.016925 46.0555743,33.0689939 46.3664135,33.3347874 C47.5781165,34.3634504 46.7544876,37.3004983 46.2480287,38.8746737 M45.8181716,42.7441177 C48.7568997,41.8159597 49,34.8859555 49,34.8859555 C48.9126358,31.7158086 46.3866718,31.427008 43.9632657,32.7232808 C42.2742251,33.6296425 41.4752862,35.5580073 41.0663206,37.7146275 C40.9473027,39.0260367 40.9675611,40.5384559 41.3011909,41.781449 C41.3011909,41.781449 42.882609,43.6710648 45.8181716,42.7441177" id="Fill-38" fill="#FEFEFE"></path>
                <path d="M55.86387,38.5739558 C56.4033861,37.4013973 56.3911508,36.0515634 56.4639797,34.8445179 C56.5204949,33.8994528 56.6381863,32.9755638 56.6043937,32.0698259 C56.7133457,32.0444144 56.8211324,32.020213 56.928919,31.9978267 C56.9965042,31.9827008 56.962129,30.0084705 57,30 C56.1796559,30.1778804 54.8349441,30.4828182 54.0140173,30.4803981 C54.0367399,30.4822132 54.1293782,31.7225356 54.1025772,32.1454553 C53.9528411,32.2101941 54.5756734,32.1521107 54.5739255,32.1950682 C54.451573,34.70778 54.5803344,36.2421496 54.1672492,38.7978188 C54.1608403,38.834726 54.1544313,38.8770785 54.1451092,38.9260863 C53.8089313,39.5988856 53.7996092,39.9637219 53.105696,40.2656346 C52.6092945,40.4894976 52.5452052,40.1161908 52.4484885,39.8148832 C51.8163341,37.8648544 51.8477961,35.4652842 52.0027759,33.1582845 C52.1781478,33.1492089 52.3570154,33.1383183 52.5341352,33.1268226 C52.4187743,33.1346881 52.7398038,31.0666773 52.5988072,31.0745428 C51.8087599,31.1223406 51.0169647,31.1761887 50.2403178,31.1574326 C50.2677015,31.1580376 50.200699,32.1254891 50.1995337,32.1859927 C50.1972032,32.2549667 50.1267048,33.2091074 50.1756458,33.2103175 C50.254301,33.2115276 50.3370346,33.2109225 50.4162723,33.2109225 C49.8225716,35.8186248 49.9857082,37.8460983 50.1663237,40.2378029 C50.2496399,41.3226313 50.5776611,41.7709625 51.1981628,41.7733826 C51.1981628,41.7733826 51.9509218,42.4613078 53.6556994,41.4400082 C55.360477,40.4193136 55.86387,38.5739558 55.86387,38.5739558" id="Fill-40" fill="#FEFEFE"></path>
                <path d="M60.1514184,31.4844375 C60.9197874,31.3953855 61.6709413,31.060822 62.4743144,31.6316207 C63.169806,32.127591 63.4699232,33.284649 63.1084053,34.2363925 C62.6074448,35.5548573 60.9260996,35.8900392 59.7887528,36.1027746 C59.9746763,34.6748501 60.09633,33.2463071 60.1187096,31.8493035 C60.121005,31.7144886 60.1347771,31.5951341 60.1514184,31.4844375 L60.1514184,31.4844375 Z M62.5908035,36.3439572 C64.6732614,35.2499778 65.1357748,33.5388183 64.9687879,32.7930076 C65.0801125,31.4615561 63.8750528,30.3910765 62.656221,30.0849602 C62.1386192,29.9544742 61.6221651,29.9829214 61.1057109,30.1115521 L59.0479281,30.4974442 C59.0852275,30.4949705 59.1242485,30.498681 59.1609741,30.4949705 C58.8516755,30.5877331 58.0362518,30.6724562 58.0316611,30.7992316 C57.9312394,33.704554 57.9260749,36.9388742 57.6012826,39.9153145 C57.4256882,39.9276829 57.2489461,39.938196 57.072204,39.9598405 C57.0630226,39.9610774 56.9844068,42.0024714 57.0027696,42 C57.7022781,41.9152746 58.9050424,41.8225121 59.600534,41.8058149 C59.5609392,41.8064333 59.7371074,39.7650392 59.6711161,39.7662761 C59.5087199,39.7693681 59.3451761,39.778026 59.1816323,39.7835917 C59.3549313,38.9060582 59.5098676,38.0229589 59.642998,37.1349123 C60.0808363,37.1324387 60.5324468,37.0551366 60.9783189,36.9147559 C61.4970684,37.8089867 61.9670417,38.4941926 62.3756143,39.57333 C62.3067537,39.5788958 62.238467,39.5850799 62.1678849,39.5912641 C62.0112272,39.6054877 62.2264164,41.555356 62.0944337,41.5664875 C62.8748533,41.4990801 63.64437,40.9820836 64.3892116,41.1855428 C64.8276238,41.3048972 64.603827,40.3141934 64.6084177,40.227615 C64.6101392,40.1503129 64.5590676,39.3810024 64.6112869,39.3445158 C64.4299541,39.4700544 64.0879467,39.331529 63.895711,39.3735814 C63.5554251,38.2431153 63.6437961,37.6067644 62.9982284,36.7904541 L62.5908035,36.3439572 Z" id="Fill-42" fill="#FEFEFE"></path>
                <path d="M36.452487,56.6995917 C35.6902112,56.9756787 35.4481176,56.3880776 35.4481176,56.3880776 C34.9941194,55.2941136 35.0690116,53.5636836 35.0603032,52.3658815 C35.0556588,51.526626 35.3169109,50.1718452 35.3105247,49.0192432 C35.4440536,49.0119135 35.5799047,49.0064162 35.7140142,48.9917567 C35.7180781,48.9911459 35.8121289,46.9754667 35.7848426,46.9791316 C34.8751045,47.0756398 33.9903305,47.0090614 33.0898814,47.042656 C33.1328429,47.0408236 32.9424191,49.058946 33.0178919,49.0565027 C33.1845128,49.0510054 33.350553,49.049173 33.5171738,49.049173 C33.374356,51.3928582 33.0306643,53.8947436 33.408609,56.0661798 C33.408609,56.0661798 33.2756607,57.3525496 34.4681317,57.7850044 C35.654797,58.2174592 37.0342084,57.8637991 37.0342084,57.8637991 C40.5942045,56.6617214 40.4211975,51.4166798 40.3404996,48.1152417 C40.536729,48.0779821 40.7329584,48.0437767 40.9291878,48.0150685 C40.9564741,48.0114036 41.0058218,45.9993893 40.9994356,46 C40.026997,46.1325463 38.4948983,46.4318441 37.5183958,46.5650011 C37.4957539,46.5692768 37.4411812,48.5806803 37.4464063,48.5800695 C37.5607767,48.5647992 38.2319044,48.5379235 38.3427914,48.5195991 C38.0205805,50.3019482 37.8214483,52.0806323 37.5834185,53.8629814 C37.5091068,54.4151553 37.4713704,54.9599995 37.4156366,55.5072869 C37.4156366,55.5072869 37.2165044,56.4228939 36.452487,56.6995917" id="Fill-44" fill="#FEFEFE"></path>
                <path d="M35.5474372,38.3611979 C35.7717335,38.6963094 36.0415722,38.9181521 36.3837094,39.0167488 C36.3358899,39.9446146 36.2618835,41.3918739 36.3324742,42.2986118 C36.218049,42.3033069 36.1047623,42.3056545 35.9926141,42.3109364 C36.0387258,42.3091758 35.8548484,44.0041007 35.9322705,44 C36.6842892,43.9665401 37.875792,43.6995072 38.618133,43.7165269 C38.5680363,43.7153531 38.4251471,42.835612 38.4689816,42.4242053 C38.6483048,42.3614086 38.1985737,42.2862873 38.1940194,42.2487266 C38.0585308,41.0162673 38.3539871,39.9856966 38.2742879,38.7409127 C38.2731493,38.7409127 38.7416667,38.6974832 38.5663285,38.7409127 C40.347036,37.1099583 40.4477985,36.3786991 40.6914503,34.8351906 C40.8428788,34.7864791 40.7916436,34.7553742 40.9385178,34.6890561 C41.0074006,34.6567774 40.9760902,33.9073248 40.9783674,33.8445281 C40.9806445,33.7858395 40.9504726,33.0217148 41,33 C40.2975086,33.3198525 39.5483363,33.4477935 38.809411,33.4894624 C38.8464142,33.486528 38.6807537,35.1802792 38.7490673,35.1767578 C38.8560919,35.1714759 38.9614087,35.1591513 39.0690026,35.1485874 C38.9454689,35.5435612 38.8242123,35.9361875 38.6801845,36.3288138 C38.5213554,36.7642828 38.2782729,37.0729845 38.0516995,37.495542 C37.9663075,37.6586961 37.5330855,38.0489749 37.4226452,38.2027388 C36.7503256,37.828306 36.8801215,36.696791 36.6763193,36.0834957 C36.6091442,35.8804334 36.5453849,35.6709153 36.4861798,35.4590497 C36.6962441,35.4355743 36.9040312,35.4103382 37.1112491,35.3762989 C37.1676078,35.3651481 37.1493908,33.6901772 37.1727313,33.6872428 C36.1400576,33.8597871 35.0988447,33.8950002 34.1128519,33.7758625 C34.2819281,33.7958166 33.8572453,35.4408563 34.0525083,35.4637448 C34.204506,35.4836989 34.3593501,35.4907415 34.5147635,35.5018923 C34.6160954,36.1967646 34.822744,36.8769648 35.1022604,37.5143223 L35.5474372,38.3611979 Z" id="Fill-46" fill="#FEFEFE"></path>
                <path d="M52.0220385,19.2069532 C52.2215529,19.3238861 52.4788214,19.3786207 52.7675922,19.3947923 C52.7261725,19.7337733 52.686503,20.0895479 52.6526672,20.4602502 C52.1247126,23.0309084 52.2658894,25.9100706 53.0108597,27.7461662 C53.4408073,28.7966965 53.8410028,28.8402353 54.8426582,28.9957313 C55.6062965,29.006305 55.1541806,28.9994632 56.0735801,28.9497045 C57.8528749,28.8508091 59.5061606,27.8556353 60.0113636,25.7632824 C60.554486,23.4998841 60.7965868,20.7382768 60.5352346,18.5258811 C60.7592508,18.4854522 60.6758281,18.495404 60.9039278,18.4798544 C60.8794261,18.4823423 61.0439379,15.9956518 60.9885173,16 C59.9751943,16.0671799 58.9694553,16.406783 57.9584658,16.6250992 C57.8820437,16.6406488 57.9135459,19.0962401 57.8703761,19.1068138 C58.1772316,19.0421275 58.4817535,18.9650016 58.7851087,18.8872536 C58.8691147,21.1767753 59.1193827,23.6037553 58.0098029,25.7489768 C56.7934653,28.1062947 55.4744537,27.183893 54.9855852,25.3838724 C54.459964,23.4420396 54.761569,21.2476814 55.0135872,19.100594 C55.3420275,19.0340418 55.645966,18.9705994 55.8956507,18.9388783 C55.9096517,18.9370123 56.0029917,16.4577856 55.9837403,16.4602736 C55.7673081,16.4863969 55.5088728,16.5349116 55.2300194,16.5908901 C55.2323529,16.5535711 55.2346864,16.5156301 55.2364365,16.4783111 C55.2352698,16.4714693 54.8082391,16.6039518 54.4442129,16.7507399 C53.5633161,16.9192975 52.6363327,17.0368524 52.1089614,16.7252386 C52.1830501,16.7681555 52.0582078,17.8572488 52.0529574,17.9660959 C52.0494571,18.0898706 51.9444496,18.6260205 52.0401231,18.6813771 L52.0220385,19.2069532 Z" id="Fill-48" fill="#FEFEFE"></path>
                <path d="M64.7374998,44.7462914 C65.958572,44.7194715 66.3668821,45.5083265 66.3668821,45.5083265 C65.9322087,46.8743924 64.5400963,46.925117 63.3222391,47.1997295 C63.3035919,46.7262999 63.2688694,46.2540364 63.2251449,45.7846881 C63.311308,45.5199873 63.1068314,45.3141737 63.2064977,45.050639 C63.2064977,45.050639 63.5144985,44.7742774 64.7374998,44.7462914 M68.2624698,46.2406265 C68.7897364,44.4145409 67.1352767,43.3131757 67.1352767,43.3131757 C66.2858631,42.8140923 64.8898927,43.0222381 63.7421233,43.1849066 C63.7389083,43.1598359 63.7350503,43.1405955 63.7273342,43.1405955 C62.5454854,43.1697476 61.3764968,43.0543054 60.1811449,43.162168 C60.1772868,43.1627511 60.0827647,44.9486068 60.109128,44.9468577 C60.430632,44.9165395 60.6376806,44.9171226 60.9559696,44.9130413 C60.9508255,45.952604 60.9276772,47.3629811 61.0344165,48.3150877 C61.0781411,48.6940646 61.0363456,49.1056918 61.069782,49.4805874 C60.9649717,50.4093723 60.993907,51.1988103 60.99455,52.1176835 C60.6897642,52.1200157 60.4068407,52.2080549 60.1239172,52.166659 C60.2859552,52.1893976 59.8596409,53.9169492 60.0499712,53.9472673 C61.148229,54.1134341 62.6875902,53.844652 63.8315015,53.7227964 C63.8462906,53.7216303 63.9195936,51.9392728 63.9041614,51.9404389 C63.7009708,51.9602623 63.4900642,51.9876653 63.2785146,52.0150682 C63.317095,51.0664599 63.3479594,50.1201838 63.3550325,49.1826532 C63.6990418,49.1459216 64.0546252,49.0969462 64.4044216,49.0339777 C64.2944672,49.0817871 64.2083042,49.1243491 64.2166633,49.1406743 C64.672556,50.0997773 65.0705779,51.0973611 65.3650756,52.0529659 C65.3342112,52.5806183 65.2885577,53.3309926 65.317493,53.3280774 C66.8028416,53.2295434 67.5731652,53.8044222 68.9279831,52.9800017 C69.0160752,52.9263619 68.9717076,52.1719063 68.9742797,52.0867823 C68.9794237,52.0133191 68.9254111,51.222715 69,51.1964781 C68.5505374,51.3486519 68.1306531,51.2133863 67.4413485,51.363811 C67.0240363,50.3808033 66.6118682,49.447354 66.037019,48.5459721 C66.037019,48.5459721 67.7371322,48.0672951 68.2624698,46.2406265" id="Fill-50" fill="#FEFEFE"></path>
                <path d="M54.8827196,54.7416899 C54.8857281,54.7405117 54.8893382,54.7399225 54.8941518,54.7381551 C54.8893382,54.7399225 54.8857281,54.7416899 54.8827196,54.7416899 M58.9248877,45.9417892 C58.9339131,45.9412 59.0145398,43.9976456 58.9976924,44 C58.1793911,44.0889614 56.9429137,44.3393436 56.1246123,44.2645235 C55.8406136,44.2391907 55.7864613,46.173319 55.9459097,46.2210389 C56.0072823,46.2410695 56.6083728,46.1462188 56.6751606,46.1397383 C56.7196859,46.4260577 56.8273888,46.7023617 56.8502531,46.9321241 C56.9880406,48.3855187 56.9826253,49.2798248 56.9603627,49.9101986 C56.9296764,50.9700514 56.7034402,52.0128193 56.1889934,53.0066891 C55.315938,54.6986831 54.0289184,54.3917441 53.8002754,52.9236211 C53.4861921,50.8899291 53.6997928,48.7336972 54.0421557,46.5768761 C54.121579,46.5674499 54.2010024,46.5556672 54.2834342,46.5462411 C54.2984765,46.5444737 54.3700779,44.6015084 54.356239,44.6026866 C53.3610401,44.7175679 52.0583765,44.8901842 51.0758132,45.2377735 C50.92178,45.292563 51.1281604,47.1365538 51,47.1801497 C51.2075838,47.1094536 51.6251582,47.0246182 51.8315386,46.9692396 C51.7479034,47.2791243 51.7743778,47.5884199 51.7057849,47.9118547 C51.2852021,49.3033901 51.3231087,50.411552 51.2545158,52.2802863 C51.2611344,53.0479285 51.3201002,53.7831682 51.4356251,54.4471227 C51.7190222,56.0790251 54.3712813,56.2039216 55.5253269,55.8162711 C58.0734933,54.9596697 58.3611021,53.0343784 58.5500335,51.2198444 C58.7883036,48.9245767 58.7010582,47.8670804 58.5506352,45.9753698 C58.6751854,45.9641763 58.799134,45.9571067 58.9248877,45.9417892" id="Fill-52" fill="#FEFEFE"></path>
                <path d="M42.095262,46.2797996 C42.1464922,46.2785389 41.9403369,48.3594147 42.0174909,48.3575236 C42.9606206,48.349959 43.8864678,48.3058326 44.8067599,48.2030811 C44.5530778,49.3900817 44.5086371,50.5651052 44.4567897,51.7697564 C44.4129662,52.8161829 44.6752896,53.8109184 44.5518433,54.8611272 C44.2660652,54.8737347 43.980287,54.8894942 43.6920399,54.921013 C43.6858676,54.9216434 43.5920484,57.0025192 43.6155032,57 C44.8882345,56.8663577 46.1381282,56.9552409 47.4102423,56.8216009 C47.4151802,56.8209705 47.5089994,54.7407251 47.4855446,54.7432466 C47.2244557,54.7697225 46.9633667,54.7829604 46.7028951,54.7961983 C46.729436,54.4387743 46.7485702,54.0813503 46.764001,53.7245567 C46.963984,51.8006449 46.7911592,49.9353582 46.6343824,48.082679 C47.729351,47.9629073 49.0594849,48.0215324 49.8618858,47.6609565 C49.9328674,47.6306984 50.0575482,45.2068973 49.9699013,45.1293609 C49.6865921,44.8885567 49.2872433,45.0530852 48.8996219,45.0776699 C48.9057942,45.0764092 48.1151207,45.0404777 48.1064795,45.2100492 C46.0029546,45.7282194 44.8530523,45.4363547 42.7606376,45.6469007 L42.0915586,45.6387058 L42.095262,46.2797996 Z" id="Fill-54" fill="#FEFEFE"></path>
                <path d="M27.2594157,59.8495679 C27.380532,59.84032 27.4998844,59.8378539 27.6192368,59.8255235 C27.6239404,59.824907 27.7138957,57.7897653 27.68979,57.7916148 C27.431683,57.8187418 27.1735761,57.8341549 26.916645,57.8471019 C27.0836208,56.8403202 27.1629931,55.8397037 27.1812193,54.8446359 C27.1853349,54.7965471 27.1906264,54.7496914 27.1929782,54.7003696 C27.1988576,54.5505545 27.1965058,54.4038221 27.2000335,54.252774 C27.2206115,54.2552401 27.2411895,54.2558567 27.2611796,54.2558567 C27.2547122,54.4247839 27.2523604,54.5413067 27.257064,54.5406902 C28.2195266,54.4081378 29.1831652,54.1794078 30.1479796,54.0480885 C30.1791406,54.0431563 30.2179448,52.0129468 30.2191207,52.0129468 C29.2002155,52.1861897 28.1913054,52.2324289 27.1865108,52.2182489 C27.1653449,51.5776817 27.1335959,50.9383475 27.1065506,50.302096 C27.7039006,50.2225646 28.3030145,50.1356349 28.9015405,50.0431565 C29.545926,50.0049321 29.6611628,49.9167693 30.3073122,49.773736 C30.3220107,49.9802711 30.3472923,50.259556 30.3849206,50.4605424 C30.3972674,50.5302095 32.0011759,50.0425399 31.9853014,49.9531441 C31.7953958,48.9315659 31.9541404,48.069667 32,47 C32,47.0246609 30.3067242,47.3409371 30.2996689,47.5228113 C30.2932015,47.6750924 30.2602767,47.608508 30.2520455,47.7607891 C29.618243,47.878545 29.6064841,47.9081381 28.9738575,48.0086313 C27.5539752,48.0881627 26.1423241,47.9765721 24.7371403,47.9642416 C24.7959346,47.9648582 24.5795716,49.9956842 24.6648234,49.9975338 C24.8147488,49.9987668 24.9611466,50.0012329 25.11166,50.0049321 C25.0522778,52.6368678 24.8564928,55.2792845 24.6242553,57.9278664 C24.4425809,57.9395803 24.2597306,57.946362 24.0762924,57.9667073 C24.0715889,57.9673238 23.9816336,60.0012325 24.0033875,60 C25.091082,59.8840932 26.1593744,59.9321819 27.2417774,59.852034" id="Fill-56" fill="#FEFEFE"></path>
                <path d="M70.0130007,53.475881 C69.9558338,53.4783475 70.107501,51.6118674 70.0777509,51.6131006 C70.3385017,51.6001518 70.5963359,51.590286 70.8570867,51.5810369 C70.9632537,49.2440829 70.939337,46.9299436 70.749753,44.6386188 C70.526919,44.6571171 70.3040849,44.676232 70.0777509,44.6941137 C70.0369174,44.695347 70.1576678,42.8301001 70.1430844,42.8319499 C72.2022577,42.6728644 74.155264,42.4545843 76.1642704,41.797894 C76.1619371,41.6141441 76.1572704,41.4303942 76.1613537,41.2423279 C76.1683538,41.0770763 77.5666083,41.0172651 77.5660249,41 C77.5356915,42.0981834 77.6214418,43.1513542 77.8781093,44.1743111 C77.8961927,44.2396718 76.4950215,44.4918655 76.4769381,44.4160224 C76.4116046,44.1588958 76.3812711,44.1169663 76.3381043,43.8555234 C75.1096004,44.1582792 73.9796801,44.299483 72.9220933,44.4696675 C72.9395934,44.9500071 72.9296767,46.1986435 72.9541768,46.6795997 C73.9545967,46.5248304 74.900183,46.3336812 75.8626861,46.4755016 C75.8691028,46.3071669 75.8708528,46.1400655 75.8766862,45.9735806 C75.8831029,45.8077124 76.9471063,45.5697007 76.9476896,45.551819 C76.9150228,46.5655267 76.9004395,47.5823175 76.9616897,48.5787601 C76.969273,48.708865 75.8936029,49.0153204 75.8918529,48.9992885 C75.8807695,48.818005 75.8743528,48.6373381 75.8685195,48.4560546 C74.9077664,48.4868852 73.9808467,48.8192382 73.0393437,49.141109 C73.0463437,49.9322203 73.027677,50.7270313 72.9518434,51.5323246 C74.2515143,51.5113599 75.5500185,51.4836124 76.857856,51.3713893 C76.8712727,51.2184699 76.8881894,51.0655504 76.9150228,50.9120144 C76.9541063,50.697434 77.9726096,50.5648627 77.9848596,50.4902528 C77.7981923,51.5477399 78.0175264,52.5417161 77.9988597,53.578855 C77.9953596,53.7385571 76.9284395,53.9845847 76.9278562,54 C76.9331062,53.768771 76.9249395,53.5393919 76.9126895,53.3124792 C75.8790195,53.5572736 74.797516,53.7724707 73.8000128,53.7397904 C73.2860945,53.7237585 72.7155927,53.6503818 72.1415908,53.6349666 C72.0021737,53.6830622 71.8615899,53.7231419 71.7606729,53.7508893 C71.7600896,53.7644548 71.7577563,53.776787 71.7583396,53.7903524 L70.0882509,53.8563297 L70.0130007,53.475881 Z" id="Fill-58" fill="#FEFEFE"></path>
            </g>
            <g id="Group-7-Copy" transform="translate(0.000000, 17.000000)">
                <mask id="mask-6" fill="white">
                    <use xlink:href="#path-5"></use>
                </mask>
                <g id="Clip-2"></g>
                <path d="M94.6806862,74.7144826 C96.2642141,74.0002256 97.5280922,73.4302205 99.1039092,72.7194648 C97.8484429,72.2208854 96.9680042,71.8714597 95.7524941,71.3889861 C96.7394827,70.643918 97.3135904,70.210462 97.8883991,69.7763058 C97.7629226,69.5900388 97.7082456,69.4170765 97.6339411,69.4079732 C93.7869288,68.9479077 93.1819777,68.1517212 93.0011233,64.1770911 C92.7165229,57.912637 92.3464022,51.6495834 91.8802464,45.3956331 C91.7610787,43.7962576 91.1456128,42.2332952 91.0790191,40.4560557 C91.8339813,41.7473203 92.5896444,43.0378847 93.6558444,44.8620411 C93.5289659,43.6401014 93.5689221,42.874726 93.3600282,42.1849778 C91.7757994,36.9638992 87.4661362,35.2790929 82.7709307,34.056453 C81.6402399,33.7630474 80.4822107,33.333793 79.5176537,32.6944629 C76.7361405,30.8485987 73.8578911,30.8233897 70.7770568,31.7351177 C63.8660338,33.7805537 57.4190637,36.7496221 54.8289197,43.9734213 C53.2313721,48.4312254 52.93135,53.3645005 52.171481,58.1038058 C51.9436605,59.524617 52.0572202,61.0161537 52.1546573,62.4663755 C52.2170451,63.3977106 52.121711,64.5643304 53.5741544,64.7127838 C53.7402881,64.7295899 53.9407702,65.0657108 54.0073639,65.2883909 C54.8485473,68.1188094 56.0619544,70.7027391 58.8294479,72.2895101 C58.7705651,72.4981852 58.7116823,72.7075605 58.6527994,72.9162356 C57.9342886,72.9162356 57.1926452,73.0345782 56.5014728,72.8959283 C52.780638,72.1543615 49.0485875,71.4401044 45.3740178,70.5094696 C44.3001069,70.2370716 43.2240931,69.4471874 42.4495034,68.615288 C39.3918015,65.3318066 36.2527853,62.0889397 33.5371648,58.53236 C31.5267364,55.8987123 29.7875896,52.9401478 28.5237115,49.8814472 C26.2952763,44.4874063 23.7549023,39.314645 20.8808589,34.220312 C18.5234423,30.043309 17.321251,25.2059684 15.7272084,20.6186178 C15.4657405,19.8658469 15.6346782,18.8231717 15.9339993,18.0388895 C17.4179871,14.1524911 16.9420175,10.6351255 14.4184671,7.29632412 C13.3683898,5.90562372 12.5713685,4.30974949 11.7673373,2.75098861 C10.1908193,-0.304210714 7.54459644,-0.877016822 4.92571199,1.34628317 C4.63690567,1.59137136 4.31795695,1.84696333 4.13990646,2.16837898 C2.14840466,5.77047509 0.250835009,9.45099942 0.0202105483,13.6392064 C-0.211114898,17.8407182 1.56518414,21.5513534 4.22682874,24.5547341 C7.58174871,28.3395959 9.51506865,32.7119692 10.816099,37.4267657 C12.7403062,44.3984743 14.6582044,51.3981929 18.2255232,57.7186672 C23.0994803,66.3534742 28.3302393,74.7873088 33.3612173,83.3338841 C33.6535285,83.8303627 33.7509656,84.6531588 33.5581944,85.187451 C32.3370764,88.5661668 32.5004062,89.272721 35.8945814,91.6360714 C40.3409369,94.7318853 42.4957684,99.1301679 43.2409168,104.171982 C44.3330533,111.554739 43.4435018,118.92279 42.6037203,126.313949 C42.0303136,131.359965 42.5777838,136.525023 42.41866,141.63056 C42.367488,143.284556 41.7485172,144.945553 41.2304884,146.552632 C40.8849022,147.625418 40.3072895,148.635181 39.7486035,149.626037 C37.5215704,153.573358 39.6644852,157.466058 42.2399085,159.114452 C43.3040055,159.795096 43.4778501,160.435827 43.1567984,161.601046 C41.6952422,166.905455 39.8677712,172.165748 39.0321956,177.574494 C37.6442429,186.555926 35.9317337,195.625589 38.1335313,204.741469 C39.4394686,210.149515 41.0867862,215.477732 42.3401495,220.897683 C43.5914099,226.30923 44.8419693,231.70187 45.1188588,237.340299 C45.2555511,240.142007 43.7463278,242.028486 43.1743231,244.372929 C42.568671,246.860224 41.3440481,249.199066 40.3619665,251.591827 C38.5520201,256.001314 38.6193148,260.551551 38.8962043,265.226433 C39.1121081,268.863542 38.657869,272.559472 38.2786355,276.206384 C37.9582848,279.28119 36.5486015,282.322384 36.0607151,285.380385 C35.9815037,285.878264 35.813968,286.445468 35.967484,286.882425 C37.2594015,290.566451 35.8602331,294.111126 35.4284256,297.690814 C35.0477901,300.844049 34.7071108,303.906951 35.4922153,307.106402 C36.0074402,309.206458 35.661854,311.51869 35.6926974,313.736388 C35.7473743,317.640293 38.9228418,320.763416 42.6927456,321.799089 C45.1735357,322.480434 47.3227594,321.473472 48.6399125,318.920353 C50.7716115,314.789567 50.796847,310.40599 50.1007678,305.948186 C49.836496,304.257077 49.5462877,302.568069 49.3423007,300.868558 C48.968675,297.757338 49.2133192,294.823283 50.4148096,291.770884 C51.4747007,289.077715 51.5707358,285.970697 51.8763658,283.024037 C52.7568045,274.525079 54.3150968,266.224292 58.571485,258.664372 C59.0257241,257.858382 59.7603576,257.212749 60.3393722,256.473283 C60.8412783,255.833953 61.465857,255.231036 61.7623742,254.501374 C63.9809955,249.040809 65.3913798,243.448597 65.8407119,237.488052 C66.6181056,227.19855 67.6212169,216.900644 70.1398603,206.837323 C70.2779546,206.286225 70.4665199,205.746331 70.6564871,205.209938 C70.7763558,204.868915 70.9438915,204.543998 71.2915806,203.751313 C71.7023585,204.713459 71.9883609,205.285565 72.1951518,205.88358 C74.2833897,211.926054 76.5517811,217.91671 78.3729432,224.039013 C79.6697677,228.397381 80.1464383,232.994535 81.3759681,237.376712 C82.9013141,242.814869 82.6854103,248.43089 83.0702518,253.920165 C83.4179409,258.883551 82.6678857,260.490629 81.534391,265.52334 C80.9336458,268.192 79.7875334,275.293955 80.8355078,279.830888 C81.075245,285.463715 81.9844241,288.712884 82.6973271,294.295293 C83.2532092,298.65156 82.7716317,302.850971 82.2255634,307.107103 C82.1134056,307.982418 82.0538218,308.901148 82.1898131,309.765259 C82.7295725,313.203496 81.3640514,316.21598 78.9526588,318.928756 C77.8738411,320.142293 77.8093503,321.848107 78.2621874,323.615543 C79.3452111,327.841563 80.9946316,332.121503 81.837918,336.403544 C82.3328143,338.914648 84.2072514,337.600275 85.4851492,337.857267 C86.8114151,338.124763 86.7903855,337.096093 86.8878226,336.173161 C86.9922696,335.183005 87.2278009,334.205453 87.4969796,332.720919 C87.8734092,333.588531 88.1278672,333.994677 88.2281082,334.435136 C88.9998941,337.815952 91.0145284,340.018945 94.4830081,340.453801 C97.5540287,340.83964 100.670613,341 103.76757,341 C106.087134,341 106.551187,340.285041 106.739051,337.988214 C106.961263,335.28034 106.483191,333.155075 103.773178,331.615921 C102.236616,330.743407 100.913856,329.002581 100.160295,327.349986 C98.5914882,323.907548 97.3913999,320.288646 96.1983214,316.690051 C95.8064701,315.508025 95.3858783,314.036796 97.181104,313.292428 C97.4404689,313.18529 97.5154744,312.538257 97.6016957,312.125108 C100.439288,298.54092 103.407263,284.946229 104.188162,271.070736 C104.588425,263.964579 103.678545,256.787697 103.429695,249.640225 C103.321743,246.538109 103.206781,243.418486 103.414273,240.328274 C103.850988,233.830636 104.725818,227.355406 105.004811,220.853567 C105.393858,211.740488 105.585228,202.609202 105.485688,193.48912 C105.446432,189.92974 104.610156,186.326943 103.73883,182.842489 C102.690856,178.64798 101.761348,174.487783 101.802706,170.129415 C101.822334,168.111989 101.397536,166.093863 101.319026,164.069434 C101.295192,163.461616 101.580493,162.572996 102.03263,162.262084 C103.775982,161.067454 104.271579,159.557711 103.549564,157.649524 C102.479158,154.814905 101.351271,152.001992 100.228291,149.18768 C99.3254208,146.923065 98.8725837,144.662652 99.1515762,142.154349 C99.3927155,139.983568 99.1719048,137.721754 98.8690788,135.539069 C98.1842153,130.606494 99.1536792,125.848982 99.9324749,121.029148 C100.840252,115.414527 101.633067,109.762094 102.051556,104.094954 C102.396441,99.416571 104.790309,95.8375832 109.355131,94.4930994 C110.203325,94.2431095 111.1097,94.1716838 111.930555,93.8621724 C112.355352,93.7018147 112.68061,93.2263436 112.998157,92.8482075 C113.521793,92.2249833 113.869483,91.3377641 114.522802,90.9547262 C122.551197,86.243431 130.630063,81.6175665 138.678786,76.9398834 C143.594101,74.0828554 146.909766,69.7384922 149.922605,65.0363002 C154.542104,57.8272062 159.247824,50.6475228 162.223511,42.5897235 C163.763577,38.4211235 165.572823,34.5564329 168.50645,31.2092285 C169.332212,30.2666894 169.896506,29.0944676 170.561041,28.0160795 C172.990659,24.0722605 172.084985,20.4351518 169.765421,16.7567282 C168.774928,15.1846625 168.091466,13.6202996 165.852516,13.8786926 C165.67727,13.8982997 165.332385,13.5040578 165.266492,13.2505666 C164.787017,11.3899971 163.581321,11.253448 162.03144,11.798244 C161.737727,11.9018813 161.408264,11.9319921 161.093521,11.9417957 C156.87078,12.0867478 156.315599,12.8213121 155.689618,16.8344562 C155.105697,20.5787034 155.158972,24.2368197 155.47021,27.9929712 C155.830517,32.3534402 153.883177,36.1726144 151.373646,39.5940455 C145.636775,47.4151598 139.95388,55.2894931 133.856702,62.8249045 C132.094423,65.0019879 129.126447,66.366779 126.485131,67.6377363 C121.87124,69.8568348 117.230711,72.2741045 112.326612,73.5660694 C107.436532,74.854533 102.355083,76.166105 97.1362409,75.4581502 C96.420534,75.3608152 95.7356705,75.0415003 94.6806862,74.7144826" id="Fill-1" fill-opacity="0.8" fill="#D1B8C7" mask="url(#mask-6)"></path>
            </g>
            <path d="M312.493363,133.996489 C315.224843,135.114718 318.817481,136.951049 322.622575,138.049449 C327.400719,139.426874 331.294337,141.844628 333.86081,146.035684 C340.216797,156.415595 345.096212,167.483157 348.726383,179.10098 C349.39208,181.228377 349.623657,183.171645 347.803614,185.02993 C347.282388,185.562487 347.35958,187.136081 347.717924,188.004319 C350.110891,193.807211 352.734727,199.515915 355.131943,205.31739 C360.140957,217.442985 365.043742,229.612487 370.01593,241.752953 C372.347285,247.446076 375.04973,253.009601 377.016368,258.824532 C379.23937,265.396516 377.463234,271.639193 374.001612,277.438544 C373.532791,278.222508 372.748827,278.818803 371.784275,279.852757 C370.445092,273.907519 369.294286,268.795818 368.10878,263.531857 C367.223545,265.764774 367.511069,268.351076 366.82271,270.642773 C366.584759,271.434527 365.652076,272.018074 365.032411,272.695809 C364.473651,272.07827 363.581334,271.543588 363.409244,270.833275 C361.89443,264.577143 358.886048,258.539132 360.749998,251.754691 C361.051687,250.653459 360.324377,249.166973 359.82298,247.962345 C355.259417,236.99393 348.558543,227.295296 341.636005,217.750338 C336.912392,211.235009 333.350206,204.172959 330.834723,196.549315 C330.423265,195.30078 329.809266,194.119522 328.804348,192.952429 C328.018967,198.987606 326.887283,205.041905 328.548692,210.977937 C329.4835,214.317043 331.874342,217.229112 332.989739,220.542015 C334.240398,224.255045 334.843066,228.193278 335.634821,232.051486 C337.582337,241.545454 335.007366,250.79793 334.090263,260.14247 C332.819773,273.078939 329.843259,285.641485 325.819335,297.977412 C325.1416,300.055943 324.327892,302.090567 323.436283,304.086949 C319.283469,313.38829 318.00094,322.793734 321.857732,332.500867 C322.380375,333.817388 322.611952,335.25076 323.012078,336.757784 C320.585118,337.655059 320.340085,338.044562 315.850882,337.723045 C318.431519,348.687919 318.02856,359.395721 315.048505,369.971092 C312.889948,377.632977 311.048659,385.386219 308.849027,393.035357 C307.991412,396.017537 309.022533,398.363055 310.111726,400.967062 C311.870157,405.172282 313.393469,409.492937 314.717073,413.854667 C315.098078,415.1117 314.814094,416.857384 314.214259,418.072634 C312.360931,421.825322 310.162008,425.405213 308.215907,429.116117 C307.864646,429.785355 307.895098,430.788149 308.060106,431.572113 C308.978626,435.9388 306.444021,437.624996 303.213267,439.009503 C296.292147,440.393303 289.781066,443.476045 279.681598,441.168768 C278.369326,441.172309 273.763271,438.811211 273.681121,438.086734 C273.438213,435.919679 273.749107,433.530961 274.499078,431.467301 C274.983479,430.133784 277.38282,426.340729 278.687302,425.53906 C283.868405,422.356463 286.010674,417.154823 287.015592,411.75064 C287.698286,408.078686 287.109073,403.968363 286.249333,400.247543 C283.87832,389.986608 280.951379,379.853855 278.464931,369.616998 C276.696586,362.336117 275.285875,354.967421 273.650669,347.336696 C269.37463,345.899075 267.52626,342.577673 267.996496,337.253516 C268.208953,334.851342 267.941258,332.335151 267.461815,329.957055 C265.801114,321.712331 264.26293,313.421575 262.076045,305.310698 C260.390558,299.063064 257.727771,293.083833 255.627286,286.941719 C252.841274,278.791891 250.16574,270.60453 247.469668,262.424959 C246.474664,259.408079 244.891156,256.397572 244.747394,253.328993 C244.45562,247.087733 245.192844,240.790525 245.527817,234.53935 C248.442719,231.212283 249.774112,227.878134 248.791147,223.692035 C248.501498,222.457664 249.172152,220.865657 249.737286,219.583837 C253.135172,211.878044 254.520388,204.081602 250.908629,195.062829 C249.555282,197.360899 248.324451,198.763111 247.937781,200.675218 C245.939982,210.552316 241.801332,219.852948 237.502631,228.967327 C234.768317,234.763846 234.977941,239.989565 236.496296,245.633823 C237.62019,249.810007 238.749042,254.040722 235.528203,258.030653 C234.961653,258.733176 235.614602,260.369798 235.589107,261.573009 C235.555822,263.133147 235.87734,265.738571 235.213768,266.036718 C233.708868,266.711621 231.420005,266.836262 229.934934,266.143654 C224.212068,263.472369 222.309166,259.237405 222.781528,252.120825 C222.892713,250.439586 222.369362,248.717981 222.159031,247.012665 C222.077589,246.354758 221.949407,245.678439 222.020934,245.029739 C223.03081,235.816921 223.746788,226.555239 225.200698,217.411824 C226.532799,209.035377 228.49448,200.742496 230.564514,192.509811 C231.14806,190.189787 231.107694,188.660101 229.21754,187.317377 C226.146129,185.134742 226.153919,182.730444 227.896769,179.500398 C233.64159,168.851376 239.185286,158.09046 244.662411,147.2998 C247.75436,141.207259 251.740042,136.449652 258.986929,135.342754 C260.927364,135.046732 262.765112,134.091386 265.0993,133.282635 C261.010222,129.170896 260.845923,124.470653 261.666004,119.383738 C261.884126,118.032516 261.818973,116.642343 261.475502,115.317323 C259.56906,107.964208 261.06192,104.44593 267.614783,101.599014 C268.376085,101.26829 269.036825,100.078535 269.228035,99.1784277 C269.926309,95.8945602 270.235079,92.5242936 271.009836,89.2623799 C271.955975,85.2788226 274.647798,82.5317615 278.697925,82.2591091 C284.357055,81.8788122 290.1472,81.6040353 295.726304,82.386583 C302.158067,83.2895226 304.866178,87.5188211 304.643807,94.1021364 C304.614063,94.9994106 304.713918,95.9462579 304.462511,96.7826279 C303.204769,100.986432 304.230934,103.955864 308.612492,105.542913 C309.548009,105.882135 310.54018,106.930253 310.890025,107.879225 C312.734855,112.883989 315.10516,117.853344 314.736902,123.327637 C314.521613,126.522981 313.440918,129.660962 312.493363,133.996489" id="Fill-10-Copy" fill="#691446"></path>
            <g id="Group-8-Copy" transform="translate(43.000000, 79.000000)">
                <mask id="mask-8" fill="white">
                    <use xlink:href="#path-7"></use>
                </mask>
                <g id="Clip-2"></g>
                <path d="M88.562464,162.826298 C88.1486402,162.018049 86.2864331,156.360309 86.0795211,154.54175 C85.8726092,152.723191 87.1140807,148.88401 87.1140807,148.88401 C87.7348164,151.106694 87.5279045,153.733502 88.1486402,157.572682 C88.6972703,160.96561 88.9755041,163.634546 88.562464,162.826298 M25.876778,121.202278 C25.6698661,123.425741 25.2560423,125.381609 25.2560423,128.274453 C25.2560423,133.528068 24.4283947,136.761062 24.0153546,138.377559 C23.600747,139.994057 21.3254998,147.8737 19.4632927,154.339688 C17.6010855,160.805676 16.1527022,163.431704 16.1527022,163.431704 L16.1527022,160.603614 C16.1527022,157.774744 19.0494689,145.449734 19.4632927,141.004367 C19.8771165,136.559 21.5324117,133.932192 22.5661875,128.274453 C23.600747,122.616713 23.8076589,117.970064 23.8076589,117.970064 C23.8076589,113.726759 26.0829061,118.980374 25.876778,121.202278 M103.871594,81.8025016 C101.564996,77.6715402 97.9409029,71.6315207 92.6999184,69.7458674 C87.4589339,67.8602142 84.7690791,66.9169975 84.217314,66.6478414 C83.6663327,66.3786853 81.3910855,63.0107229 80.5626541,59.7785089 C79.7350065,56.5455147 78.3563775,53.5816767 77.2528474,51.6960234 C76.1493172,49.8103702 73.3912756,47.9239368 73.6663743,46.3074397 C73.9430406,44.6917228 76.4251997,40.3805438 77.2528474,37.1483298 C78.080495,33.9153356 78.3563775,27.9884396 76.4251997,21.7916074 C74.494022,15.5955553 72.0118629,9.12956691 66.7700946,4.55001192 C62.3230561,0.663241404 60.4263637,-1.37766419 49.3918458,1.04786161 C49.3918458,1.04786161 45.2543914,-0.0303232275 41.9445847,2.66357854 C38.634778,5.35826047 32.5661459,11.0152201 31.7384982,13.9790582 C30.9100669,16.9421161 30.083203,19.9059541 30.9100669,23.6772606 C31.7384982,27.4493472 34.4973236,32.2980583 34.4973236,32.2980583 C34.4973236,32.2980583 33.669676,33.107087 34.2206573,34.722804 C34.7724224,36.3400812 35.048305,37.9557981 35.8759526,38.7640467 C36.7036002,39.5722952 38.0830129,41.1887923 38.0830129,41.1887923 C38.0830129,41.1887923 39.4624256,44.9608789 41.3928196,46.8465322 C43.3239974,48.7321854 45.2543914,51.156931 45.2543914,51.156931 C45.2543914,51.156931 45.8061565,53.5816767 44.9792927,55.4673299 C44.151645,57.3537633 42.4963498,58.7003241 40.565172,60.047665 C38.634778,61.3942258 36.9794827,61.6641621 36.9794827,61.6641621 C36.9794827,61.6641621 34.7034518,60.7880394 33.3240391,61.5970681 C31.9454101,62.4045365 29.8073204,63.0107229 28.7037903,63.2806592 C27.6010439,63.5498153 24.0153546,63.5498153 22.6359419,64.0881276 C21.2557454,64.62722 18.7735863,64.8971563 17.9459387,66.5128732 C17.1182911,68.1293703 12.7049542,73.7871102 12.7049542,73.7871102 C12.7049542,73.7871102 8.01495101,79.9831622 7.18808715,81.3305032 C6.36043953,82.6778442 5.5327919,84.2943413 6.36043953,85.3717459 C7.18808715,86.4491506 7.46318593,88.6047401 8.01495101,89.4129887 L9.11926493,91.567798 C9.11926493,91.567798 8.01495101,99.1111911 7.73985223,102.883278 C7.46318593,106.654584 6.63710582,115.814474 5.25690936,120.394029 C3.87749666,124.974364 1.45098432,140.086116 0.843572473,145.71889 C-0.259173933,155.956185 1.39533755,172.121156 1.94710263,176.969867 C2.49886772,181.819358 2.49886772,189.631908 1.94710263,193.403214 C1.39533755,197.175301 -0.174528153,200.371627 0.0159248508,203.911225 C0.291807391,209.029093 0.636660567,210.712684 0.636660567,210.712684 C0.636660567,210.712684 0.843572473,211.992931 1.94710263,213.608648 C3.0506328,215.225925 3.32651534,216.572486 4.70592804,217.111578 C6.08534074,217.650671 7.73985223,217.380734 7.73985223,217.380734 L9.9461288,218.998011 C9.9461288,218.998011 9.39436372,221.960289 9.11926493,224.654191 C8.84338239,227.348873 9.39436372,245.398717 10.4978939,251.326393 C11.601424,257.253289 11.601424,261.293752 10.7745602,264.526746 C9.9461288,267.75974 8.56749985,269.915329 8.84338239,272.340075 C9.11926493,274.764821 10.4978939,277.458722 10.4978939,277.458722 C10.4978939,277.458722 11.3255415,279.344376 11.0504427,281.499965 C10.7745602,283.654775 9.67103001,288.23511 9.39436372,290.389919 C9.11926493,292.545509 9.39436372,296.855907 9.39436372,296.855907 C9.39436372,296.855907 9.67103001,300.89715 9.39436372,302.244491 C9.11926493,303.591052 8.56749985,307.093202 8.56749985,307.093202 C8.56749985,307.093202 9.08007707,310.855147 9.9461288,319.621055 C10.813748,328.386183 13.2567193,330.127506 11.1876002,337.805867 C9.11926493,345.483448 10.7745602,346.695821 12.8428955,350.332939 C14.9112308,353.970058 15.4473207,354.579365 11.1876002,359.223673 C6.92866351,363.867982 3.73955539,367.305378 4.15416296,370.134248 C4.56720301,372.963118 11.5755601,373.105888 14.4981907,372.963118 C22.7738832,372.559774 29.1693421,371.089168 31.8764395,368.113627 C33.2550684,366.599331 34.5725643,362.971575 34.3593824,359.627017 C33.9447748,353.161809 35.6345554,350.67075 36.8415415,348.312318 C38.9098768,344.271855 39.3244843,339.422364 38.9098768,336.18859 C38.4968367,332.956376 40.9789958,333.764624 39.3244843,325.278014 C37.6684053,316.792185 37.2553653,314.771563 38.0830129,312.346818 C38.9098768,309.922072 38.9098768,307.901451 38.9098768,307.901451 L38.3581117,302.782803 C38.1566861,300.812112 37.8071304,297.831111 37.6347038,296.373767 C37.5704357,295.839355 37.5312478,295.509347 37.5312478,295.509347 L38.3581117,286.617832 C38.3581117,286.617832 40.8410546,285.810364 40.565172,283.116462 C40.2892895,280.42178 39.1865431,278.536127 39.1865431,277.188786 C39.1865431,275.842225 41.1169371,272.609231 41.1169371,272.609231 C41.1169371,272.609231 42.4963498,270.454422 42.7722323,265.604931 C43.0481149,260.755439 43.59988,253.481983 43.59988,253.481983 L44.9792927,245.668653 L45.5310577,235.969671 C45.5310577,235.969671 47.1855692,232.737457 47.1855692,230.043555 C47.1855692,227.348873 47.7373343,223.30763 47.7373343,223.30763 L48.5649819,217.380734 L51.5989061,213.878584 C51.5989061,213.878584 52.4273375,213.608648 52.9791026,216.842422 C53.5300839,220.074636 54.3569478,228.157121 54.3569478,228.157121 C54.3569478,228.157121 55.4612617,228.426278 55.4612617,231.390116 C55.4612617,234.353174 56.5647919,240.819162 56.5647919,241.62741 C56.5647919,242.435659 57.1157732,255.905948 57.1157732,256.714197 C57.1157732,257.522445 57.3916557,266.143243 58.2193033,267.490584 C58.2193033,267.490584 60.1504811,281.499965 60.9781287,283.385618 C61.8049926,285.271272 61.8049926,287.696017 62.0816589,289.312514 C62.3567577,290.929011 63.4610716,293.89285 63.7361704,294.701098 C64.0120529,295.509347 65.6673482,295.509347 65.3914656,298.203248 C65.2637132,299.445267 65.2550919,300.684946 65.2809559,301.742066 C65.1516359,303.614457 65.1273395,306.019698 65.5991613,307.865563 C66.4989146,311.377856 67.1180828,311.084515 66.2191133,315.767831 C65.3201437,320.451148 65.5772161,322.943768 64.9776418,325.870938 C63.7361704,331.932022 64.563818,335.771203 64.563818,335.771203 C64.863997,338.990934 66.2183295,342.907351 67.8571658,346.901003 C69.4952184,350.893876 69.5101098,349.701788 68.5962489,352.943364 C67.682388,356.18494 67.0977051,357.62668 66.7975261,359.968729 C66.4989146,362.309997 66.1987356,366.408191 72.1929108,368.75024 C75.0583272,369.868993 79.1738363,371.091508 82.6827174,371.091508 C85.9792002,371.091508 99.7780298,372.296859 98.0796279,368.503708 C95.9807261,363.820392 89.6832368,357.334119 88.7834835,354.406949 C87.884514,351.479778 89.0139082,347.472863 90.0108474,343.651626 C91.0070028,339.828829 94.8137116,337.136487 95.4125021,333.624195 C96.0120764,330.111122 94.5143163,320.744489 94.5143163,320.744489 C94.5143163,320.744489 93.314384,316.061172 94.2141373,312.841441 C95.1131068,309.62171 94.9853544,307.643217 94.0793311,303.509915 C94.0683585,303.462325 94.0401432,303.410054 94.0244681,303.360904 C93.8771217,301.338722 93.4750543,295.904109 93.2508997,294.161225 C92.9758009,292.007196 92.4240358,286.07952 92.1481533,285.271272 C91.8722707,284.463023 93.7344779,273.956572 93.7344779,271.531046 C93.7344779,269.107081 91.5963882,238.394416 91.5963882,238.394416 L91.5963882,222.500162 C91.5963882,222.500162 93.527566,220.074636 96.0097251,217.380734 C98.492668,214.686832 101.25071,213.340272 100.698945,207.951688 C100.147179,202.563884 99.5961981,194.211463 99.8720807,190.440156 C100.147179,186.66885 105.113065,162.69133 104.837183,154.070532 C104.5613,145.449734 103.45777,127.39911 103.181887,122.011307 C102.906005,116.622723 102.906005,93.9925437 102.906005,93.9925437 C102.906005,93.9925437 103.45777,91.8369542 104.5613,90.4903934 C105.664047,89.1430524 105.733017,89.5471767 106.76836,87.7964916 C107.802136,86.0450263 105.113065,84.024405 103.871594,81.8025016" id="Fill-1" fill-opacity="0.8" fill="#B75085" mask="url(#mask-8)"></path>
            </g>
            <g id="Group-9-Copy" transform="translate(131.000000, 77.000000)">
                <mask id="mask-10" fill="white">
                    <use xlink:href="#path-9"></use>
                </mask>
                <g id="Clip-2"></g>
                <path d="M87.5433239,47.3432889 C87.8475913,46.1406443 88.223241,44.9811981 88.7666394,43.9150606 C88.8915586,44.6909046 88.9932785,45.1911426 88.9932785,45.1911426 L88.1830885,49.0798663 C88.0983219,48.9554548 88.012663,48.8319072 87.9278964,48.7074957 C87.668243,48.3247575 87.4407117,47.7493543 87.5433239,47.3432889 M56.2278733,49.3416488 C55.5140495,49.6250306 54.9376368,49.9974012 54.4691899,50.4397532 C54.3059027,48.893249 54.3139332,46.563989 55.4114373,44.6934965 C57.7286879,40.745159 57.2325803,38.8496113 57.2325803,38.8496113 C57.2325803,38.8496113 57.2415031,38.7779019 57.2557796,38.6569463 C59.2910697,40.0462082 59.3945742,42.3365895 59.3865437,44.6477062 C59.3785131,46.870698 58.4487576,48.4604006 56.2278733,49.3416488 M146.620275,219.385402 C145.703903,214.643077 142.945867,210.433821 142.476527,205.481552 C141.619047,196.444438 140.178015,187.458298 139.242013,178.427232 C138.529082,171.55004 137.742091,164.711727 136.053898,157.971042 C134.611081,152.20837 133.265523,146.411139 132.223341,140.572438 C131.148144,134.549711 130.545855,128.451819 129.633053,122.401445 C129.028087,118.383126 129.726742,117.177026 133.753601,115.998572 C135.699663,115.429217 136.369765,114.466755 135.872765,112.599719 C135.124142,109.7875 134.279153,106.996017 133.43238,104.207989 C130.55567,94.741483 127.606685,85.2939838 124.794219,75.8101979 C123.407617,71.1352626 120.959201,67.2741859 115.680474,66.3704745 C108.468177,65.135863 102.134775,62.0497664 95.8352797,58.7865561 C95.0241974,58.3666672 94.2452372,57.7221465 93.7178998,57.0033244 C93.2164386,56.3190611 92.7337152,55.6218383 92.2429614,54.9297992 C92.5463365,54.1392677 92.8952179,53.3876149 93.1709323,52.1884261 C93.7580524,49.6388541 93.642056,45.9574829 93.642056,45.9574829 L94.4451078,41.520139 C94.4451078,41.520139 94.6191024,40.2483769 94.2800361,38.7701262 C94.5602119,38.4789687 94.786851,38.1696679 94.9055242,37.8379038 C95.9825059,34.8200607 96.6606385,31.6622546 97.3039722,28.5243198 C97.4395987,27.8607918 97.2834498,26.135446 95.5461811,25.3457785 C94.2220379,25.0295659 94.3433879,23.8735756 94.4558152,22.2182113 C95.1455474,12.0890408 86.6108915,2.89122859 77.2473077,0.681196315 C68.8125871,-1.30938787 60.0521844,0.82547911 56.1109847,10.2461952 C53.2833501,17.0041594 52.4392534,24.0411856 51.9993595,31.1887997 C51.9493918,31.9827871 51.9957904,32.7171606 52.1340937,33.398832 C51.4238391,34.866715 50.7064461,36.7596707 50.7367836,38.3839321 C50.7965664,41.5676573 49.3260893,42.657986 48.9254557,45.8132001 C48.6256497,48.1683792 49.2779062,50.9512228 49.2779062,50.9512228 L48.6943553,55.4196696 C48.6943553,55.4196696 48.5908508,56.6413215 48.9700697,58.0608223 C42.3582767,59.9114435 35.7500527,61.7784802 29.6754121,65.0149074 C26.6247076,66.6400328 23.6070174,68.1562981 22.3961938,71.7305371 C19.2990907,80.8721913 16.0601152,89.9706471 12.793479,99.0587352 C11.2525118,103.345749 9.47509056,107.555005 7.88415574,111.825603 C6.95886163,114.308649 7.53705891,115.890576 9.62142444,117.197761 C13.6563135,119.727462 14.0828233,120.70029 12.9871037,125.160962 C11.5407182,131.048045 9.73474397,136.874651 8.68006929,142.823076 C7.04987416,152.009657 5.86492664,161.271403 4.60859673,170.515869 C3.93938691,175.43358 3.57622905,180.390169 2.94717181,185.313927 C2.71964047,187.102343 1.89606625,188.829417 1.7309945,190.617832 C1.10193726,197.433682 0.730748881,204.272859 0.0686772969,211.086118 C-0.496135793,216.912723 2.50281649,221.251575 6.12458005,225.400353 C6.31285108,225.615482 6.64299459,225.770132 6.93566235,225.843569 C11.2712497,226.941674 15.6104062,228.025091 19.9531318,229.094684 C20.1824477,229.151706 20.5108067,229.13961 20.6928317,229.019519 C21.1898316,228.690347 21.7992586,228.359447 22.0232209,227.882536 C22.1267253,227.662224 21.5172982,226.97796 21.089004,226.722226 C20.2895213,226.244451 19.3883187,225.92219 18.5245919,225.543772 C15.3605679,224.156238 13.2994016,221.06755 13.6420371,218.219908 C13.8570765,216.425445 15.0464854,215.827579 16.5133933,216.945554 C18.0936208,218.149063 19.4909309,219.571156 20.9721153,220.893892 C21.5360361,221.39845 22.109772,221.89264 22.737937,222.443852 C24.3003188,220.340952 24.5474803,218.441084 23.5659726,216.251787 C22.9297771,214.834878 22.3506875,213.193338 22.4738221,211.707311 C22.8610716,207.022872 21.015837,203.096134 18.6263118,199.232465 C16.3617058,195.570965 14.6110529,191.694337 15.9753486,187.334751 C17.3173374,183.049465 18.9635936,178.852305 20.4037331,174.59553 C22.2132765,169.250155 24.1968144,163.942794 25.646769,158.508431 C27.0530019,153.240813 28.517233,147.862607 28.7983011,142.477489 C29.1543207,135.663367 31.6482427,129.493765 33.4934772,123.106444 C33.5907357,122.769496 33.9788774,122.508577 34.2322849,122.212236 C34.4651699,122.268394 34.6971626,122.325416 34.9309399,122.381574 C34.9309399,123.494366 34.8863259,124.608885 34.9389704,125.719949 C35.0995808,129.155953 35.1308106,132.608373 35.5305519,136.02105 C35.8660491,138.883379 36.7360219,141.625616 36.3148658,144.620132 C34.9844767,154.098734 33.929802,163.612758 32.7163015,173.106048 C31.8258063,180.073957 30.8416218,187.031497 29.9252504,193.99595 C29.5531698,196.8194 29.3854212,199.549542 30.5552,202.37904 C31.2422554,204.039588 30.9558336,206.160631 30.7470401,208.038036 C30.5667996,209.656249 30.4133275,211.086982 31.4787095,212.532402 C31.9694634,213.200249 32.1389965,214.214549 32.1291815,215.06815 C32.00337,225.970573 31.926634,236.875587 31.6116592,247.774554 C31.3957275,255.270348 30.8674979,262.75923 30.3874514,270.245519 C30.2759164,271.986417 30.5507386,273.44134 31.88202,274.718286 C32.325483,275.144223 32.7671615,275.939938 32.6574111,276.461775 C32.0622605,279.305097 33.7772222,282.563123 31.0031244,285.03321 C30.7318714,285.275985 30.6479971,285.834109 30.6747654,286.233263 C30.8050383,288.221255 30.670304,290.295644 31.2333326,292.173912 C33.1740411,298.644175 33.5131074,305.304511 34.0493675,311.931152 C34.8095899,321.327677 37.0224437,330.464147 39.1139474,339.624809 C40.0909938,343.90059 41.4294134,348.071832 38.7356208,352.289728 C38.2511129,353.047428 38.3983391,354.759814 38.994382,355.450126 C40.8190941,357.565985 42.9703806,359.433886 45.0636689,361.326842 C45.972902,362.150204 45.9033042,362.822372 45.4295036,363.87555 C44.4694106,366.013009 43.513779,368.209217 43.0328402,370.47368 C42.2039123,374.373635 41.6292841,378.330612 41.1501299,382.286725 C40.4666436,387.932762 40.2132361,393.79911 43.2568024,398.776435 C47.711063,406.059692 48.8549656,406.762962 57.0978461,405.225962 C59.8871126,404.706717 61.4718015,402.813761 62.3390974,400.436119 C64.7286226,393.882915 65.3451879,387.229491 63.2599301,380.462023 C62.4042338,377.687819 62.3025139,374.885104 62.9851079,372.022776 C63.5856122,369.503443 63.9193249,366.926224 64.4002637,364.379243 C64.5019835,363.837535 64.726838,363.316562 64.8945866,362.786085 C65.1390713,362.786085 65.3826637,362.785221 65.6271483,362.785221 C65.7654517,363.847903 66.06615,364.916632 66.0126132,365.970674 C65.8439723,369.312505 66.3302648,372.460808 68.2379589,375.361151 C69.297095,376.969861 69.5344414,378.781604 68.8750467,380.608034 C67.2466361,385.116223 67.4946899,389.58467 69.4505671,393.896739 C70.7497264,396.760795 70.8648305,399.618804 70.3651539,402.602089 C70.1956207,403.61466 70.0269798,404.645375 70.040364,405.663994 C70.0831935,408.822664 71.2342344,410.089242 74.5035474,410.460749 C76.3880423,410.674149 78.3001978,410.700068 80.2007537,410.742403 C84.9557126,410.846943 89.7115637,410.903965 94.4665225,411 C97.8322018,411.066391 100.012041,407.710736 98.5165804,404.449254 C97.7858033,402.856095 96.7257749,401.4029 95.8352797,399.874539 C95.0393662,398.508604 93.9070631,397.208331 93.5519358,395.741312 C91.9467245,389.100848 92.1644408,382.564059 95.4284001,376.314109 C95.8406334,375.523577 96.2037912,374.63369 96.2760659,373.767129 C96.9425989,365.738266 97.4074766,357.692989 98.1989288,349.677086 C98.8467239,343.110059 99.8924758,336.579318 100.698204,330.026115 C101.310308,325.05311 102.326615,320.150087 101.834969,315.037984 C101.479841,311.350565 102.207942,307.572429 102.391751,303.831444 C102.453319,302.575233 102.572884,301.247313 102.243633,300.059356 C100.691066,294.473797 100.893614,288.914158 102.174035,283.334647 C103.62399,277.016443 105.266677,270.730206 106.442702,264.365348 C107.144033,260.572524 107.015545,256.645786 107.429563,252.795077 C108.154094,246.053528 109.098126,239.333579 109.782505,232.588574 C110.437438,226.145094 110.839856,219.678288 111.430545,213.227896 C111.672353,210.598839 112.775211,209.426434 115.460973,208.869174 C117.079569,208.533954 117.937942,207.534342 118.163688,206.177047 C118.355529,205.024512 118.164581,203.784717 117.966495,202.609719 C117.624752,200.584577 116.930558,198.594856 116.763702,196.561938 C116.082892,188.296348 115.55377,180.03335 113.74155,171.878348 C112.031942,164.184706 110.759551,156.403802 109.184677,148.682513 C108.386087,144.766142 107.364427,140.889514 106.411472,137.003382 C105.465655,133.150945 106.432886,129.557699 107.958685,126.030978 C108.347719,125.131587 108.753706,124.239107 109.150771,123.343171 C109.716476,124.354879 110.53202,125.309564 110.806842,126.388661 C112.263935,132.104679 113.314148,137.879447 113.893238,143.714692 C114.024403,145.374376 114.116307,147.096266 114.164491,148.93652 C114.215351,149.187935 114.262641,149.421206 114.311717,149.663118 C114.332239,150.165083 114.361684,150.666185 114.375069,151.169879 C114.432175,153.36868 114.903298,155.409374 115.906221,157.266043 C116.65752,160.595779 117.445403,163.594615 118.798992,168.206481 C120.377435,174.313876 120.511277,175.685859 122.10935,181.789799 C123.891232,188.599601 127.124854,193.817109 128.937074,200.619999 C129.987288,204.561425 129.585762,208.277355 127.131992,211.738414 C126.407461,212.759625 125.940799,213.977821 125.521427,215.159731 C124.143747,219.042407 124.265098,223.055542 124.787081,227.031526 C124.831695,227.370202 124.889693,227.727021 124.953937,228.089888 C125.173438,229.400529 125.476813,230.695618 125.870309,231.988116 C126.694775,234.868588 127.76105,237.536523 128.499857,238.358158 C128.673852,238.696834 128.844277,239.034645 129.030764,239.377641 C129.952489,238.427275 130.903659,237.80781 131.318569,236.950753 C132.568653,234.370942 133.609943,231.697822 134.760092,228.998783 C135.214262,229.136155 135.675571,229.266614 136.131526,229.412625 C136.437578,230.189333 136.963131,231.8542 136.525914,233.306532 C136.511637,233.354914 136.48933,233.405025 136.471485,233.455135 C134.562898,235.806858 132.705172,238.198324 130.916151,240.634716 C130.190727,241.622232 129.550071,243.062468 130.74751,243.912613 C131.315,244.314359 132.752463,243.606768 133.791969,243.389912 C133.90618,243.365721 134.002547,243.258589 134.107836,243.190335 C136.881041,241.384641 139.71046,239.650655 142.41496,237.754244 C145.228318,235.780075 147.940849,233.387745 147.997062,229.905951 C148.053276,226.404285 147.292161,222.862013 146.620275,219.385402" id="Fill-1" fill="#422035" mask="url(#mask-10)"></path>
            </g>
        </g>
    </g>
</svg>