<?xml version="1.0" encoding="UTF-8"?>
<svg width="25px" height="17px" viewBox="0 0 25 17" version="1.1" xmlns="http://www.w3.org/2000/svg" xmlns:xlink="http://www.w3.org/1999/xlink">
    <!-- Generator: Sketch 51.3 (57544) - http://www.bohemiancoding.com/sketch -->
    <title>youtube</title>
    <desc>Created with Sketch.</desc>
    <defs></defs>
    <g id="The-Corporation-App-(Mobile)" stroke="none" stroke-width="1" fill="none" fill-rule="evenodd">
        <g id="Landing_NU_Menu" transform="translate(-161.000000, -297.000000)" fill="#D1B8C7" fill-rule="nonzero">
            <g id="Social-Media-Icons" transform="translate(48.000000, 294.000000)">
                <g id="youtube" transform="translate(113.000000, 3.000000)">
                    <path d="M24.0255645,1.45932913 C23.1231452,0.422806487 21.4570161,0 18.2750806,0 L6.72467742,0 C3.46991935,0 1.77556452,0.450079297 0.876532258,1.55361514 C0,2.62956648 0,4.214896 0,6.40903257 L0,10.5910454 C0,14.8417856 1.04,17 6.72467742,17 L18.2751613,17 C21.0345161,17 22.5635484,16.626908 23.5527419,15.7121779 C24.5671774,14.774149 25,13.2425859 25,10.5910454 L25,6.40903257 C25,4.0951294 24.9321774,2.5004492 24.0255645,1.45932913 Z M16.0500806,9.07740436 L10.8050806,11.7260618 C10.6878226,11.7852828 10.5595968,11.8146595 10.4315323,11.8146595 C10.2865323,11.8146595 10.1418548,11.7769451 10.0137097,11.7019838 C9.77241935,11.5607107 9.62508065,11.3080086 9.62508065,11.0354363 L9.62508065,5.7551085 C9.62508065,5.48300377 9.77201613,5.23053546 10.0128226,5.08918438 C10.2537097,4.9478333 10.5533065,4.93817093 10.8032258,5.06362586 L16.0482258,7.69521832 C16.3150806,7.82908886 16.4826613,8.09527149 16.4830645,8.38568796 C16.4833871,8.6763382 16.3165323,8.94291044 16.0500806,9.07740436 Z" id="XMLID_823_"></path>
                </g>
            </g>
        </g>
    </g>
</svg>