
<svg width="440px" height="301px" viewBox="0 0 440 301" version="1.1" xmlns="http://www.w3.org/2000/svg" xmlns:xlink="http://www.w3.org/1999/xlink">
    <g id="The-Corporation-App-(375x667-Mobile)" stroke="none" stroke-width="1" fill="none" fill-rule="evenodd">
        <rect id="Rectangle-4" fill="#D1B8C7" fill-rule="nonzero" x="0" y="71" width="440" height="230"></rect>
        <g id="Vist-TheCorp." transform="translate(48.000000, 219.000000)">
            <rect id="Rectangle" fill="#691446" fill-rule="nonzero" x="0" y="0" width="345" height="45" rx="8"></rect>
            <text id="VISIT-THECORPORATION" font-family="SFProText-Medium, SF Pro Text" font-size="17" font-weight="400" line-spacing="25" fill="#FFFFFF">
                <tspan x="45.8693848" y="25">VISIT THECORPORATION.COM</tspan>
            </text>
        </g>
        <text id="More-than-a-decade-a" font-family="SFProText-Regular, SF Pro Text" font-size="17" font-weight="normal" line-spacing="24" letter-spacing="-0.300000012" fill="#000000">
            <tspan x="32" y="114">More than a decade after The Corporation </tspan>
            <tspan x="32" y="138">likened the dominant institution of our </tspan>
            <tspan x="32" y="162">time to a psychopath, its creators are </tspan>
            <tspan x="32" y="186">now working on a follow-up film.</tspan>
        </text>
        <g id="Title_3">
            <rect id="Rectangle-3" fill-opacity="0.5" fill="#000000" fill-rule="nonzero" x="0" y="0" width="439" height="71"></rect>
            <text id="THE-SEQUEL-IS-COMING" font-family="SFProText-Regular, SF Pro Text" font-size="20" font-weight="normal" fill="#FFFFFF">
                <tspan x="38" y="31">THE SEQUEL IS COMING</tspan>
            </text>
            <path d="M406.943333,47.332524 L409.666667,44.5913653 L409.666667,54.4609212 C409.666667,54.8444065 410.039167,55.1545174 410.5,55.1545174 C410.960833,55.1545174 411.333333,54.8444065 411.333333,54.4609212 L411.333333,44.5650612 L414.0825,47.332524 C414.408333,47.6059477 414.938333,47.6059477 415.265833,47.332524 C415.591667,47.0604848 415.591667,46.6181614 415.265833,46.34543 L411.146667,42.1983891 C410.971667,42.0530246 410.740833,41.9907256 410.513333,42.0011087 C410.285,41.9907256 410.054167,42.0530246 409.88,42.1983891 L405.760833,46.34543 C405.434167,46.6181614 405.434167,47.0604848 405.760833,47.332524 C406.0875,47.6059477 406.6175,47.6059477 406.943333,47.332524 L406.943333,47.332524 Z M422.166667,53.077882 C421.705833,53.077882 421.333333,53.3879929 421.333333,53.7700938 L421.333333,58.6155764 L399.666667,58.6155764 L399.666667,53.7700938 C399.666667,53.3879929 399.294167,53.077882 398.833333,53.077882 C398.3725,53.077882 398,53.3879929 398,53.7700938 L398,59.3077882 C398,59.6905813 398.3725,60 398.833333,60 L422.166667,60 C422.6275,60 423,59.6905813 423,59.3077882 L423,53.7700938 C423,53.3879929 422.6275,53.077882 422.166667,53.077882 L422.166667,53.077882 Z" id="Fill-103" fill="#FFFFFF"></path>
        </g>
    </g>
</svg>