<?xml version="1.0" encoding="UTF-8"?>
<svg width="55px" height="48px" viewBox="0 0 55 48" version="1.1" xmlns="http://www.w3.org/2000/svg" xmlns:xlink="http://www.w3.org/1999/xlink">
    <!-- Generator: Sketch 51.3 (57544) - http://www.bohemiancoding.com/sketch -->
    <title>Share</title>
    <desc>Created with Sketch.</desc>
    <defs></defs>
    <g id="The-Corporation-App-(1920-x-1080-HD-Desktop)" stroke="none" stroke-width="1" fill="none" fill-rule="evenodd">
        <g id="New-User" transform="translate(-1767.000000, -2736.000000)" fill="#FFFFFF">
            <g id="Story_1" transform="translate(-2.000000, 1854.000000)">
                <g id="Title_1" transform="translate(2.000000, 762.000000)">
                    <path d="M1786.67533,134.12327 L1792.66667,126.86327 L1792.66667,153.002936 C1792.66667,154.018603 1793.48617,154.839936 1794.5,154.839936 C1795.51383,154.839936 1796.33333,154.018603 1796.33333,153.002936 L1796.33333,126.793603 L1802.3815,134.12327 C1803.09833,134.847436 1804.26433,134.847436 1804.98483,134.12327 C1805.70167,133.40277 1805.70167,132.23127 1804.98483,131.508936 L1795.92267,120.525436 C1795.53767,120.140436 1795.02983,119.975436 1794.52933,120.002936 C1794.027,119.975436 1793.51917,120.140436 1793.136,120.525436 L1784.07383,131.508936 C1783.35517,132.23127 1783.35517,133.40277 1784.07383,134.12327 C1784.7925,134.847436 1785.9585,134.847436 1786.67533,134.12327 L1786.67533,134.12327 Z M1820.16667,149.339936 C1819.15283,149.339936 1818.33333,150.16127 1818.33333,151.17327 L1818.33333,164.006603 L1770.66667,164.006603 L1770.66667,151.17327 C1770.66667,150.16127 1769.84717,149.339936 1768.83333,149.339936 C1767.8195,149.339936 1767,150.16127 1767,151.17327 L1767,165.839936 C1767,166.85377 1767.8195,167.67327 1768.83333,167.67327 L1820.16667,167.67327 C1821.1805,167.67327 1822,166.85377 1822,165.839936 L1822,151.17327 C1822,150.16127 1821.1805,149.339936 1820.16667,149.339936 L1820.16667,149.339936 Z" id="Share"></path>
                </g>
            </g>
        </g>
    </g>
</svg>