<?xml version="1.0" encoding="UTF-8"?>
<svg width="33px" height="29px" viewBox="0 0 33 29" version="1.1" xmlns="http://www.w3.org/2000/svg" xmlns:xlink="http://www.w3.org/1999/xlink">
    <!-- Generator: Sketch 51.3 (57544) - http://www.bohemiancoding.com/sketch -->
    <title>Twitter</title>
    <desc>Created with Sketch.</desc>
    <defs>
        <polygon id="path-1" points="0 0 42 0 42 35 0 35"></polygon>
    </defs>
    <g id="The-Corporation-App-(1920-x-1080-HD-Desktop)" stroke="none" stroke-width="1" fill="none" fill-rule="evenodd">
        <g id="New-User" transform="translate(-1617.000000, -83.000000)">
            <g id="Header-Area">
                <g id="Social-Media-Icons" transform="translate(1533.000000, 80.000000)">
                    <g id="Twitter" transform="translate(75.000000, 3.000000)">
                        <mask id="mask-2" fill="white">
                            <use xlink:href="#path-1"></use>
                        </mask>
                        <g id="Clip-2"></g>
                        <path d="M44,3.42277716 C42.6985185,4.00334448 41.3114815,4.38753375 39.865463,4.57468599 C41.352963,3.67187415 42.4885185,2.25307568 43.0219444,0.542346092 C41.6355556,1.38321318 40.1039815,1.97696024 38.4719444,2.30843057 C37.1549074,0.88304224 35.2785185,0 33.2310185,0 C29.2585185,0 26.0605556,3.27780007 26.0605556,7.29696024 C26.0605556,7.87489161 26.1085185,8.43107643 26.2264815,8.96024278 C20.2609259,8.66501672 14.9824074,5.7575672 11.437037,1.32983525 C10.8180556,2.42177629 10.4544444,3.67187415 10.4544444,5.0168661 C10.4544444,7.54408027 11.734537,9.78331723 13.642037,11.0802031 C12.4889815,11.0577976 11.357963,10.7177604 10.4,10.1813452 L10.4,10.2617416 C10.4,13.8070903 12.8875926,16.7514431 16.1484259,17.4295404 C15.5644444,17.5923102 14.927963,17.6700706 14.2675,17.6700706 C13.807963,17.6700706 13.344537,17.6437111 12.9089815,17.5455221 C13.8384259,20.43452 16.477037,22.5584343 19.6134259,22.6276279 C17.1725,24.5690028 14.0730556,25.7393633 10.7169444,25.7393633 C10.1290741,25.7393633 9.56453704,25.7123449 9,25.6391973 C12.1785185,27.7229134 15.9455556,28.9130435 20.0075,28.9130435 C33.2109259,28.9130435 40.43,17.7926421 40.43,8.15298402 C40.43,7.8307395 40.4189815,7.51903877 40.4040741,7.21063297 C41.8274074,6.18261365 43.024537,4.89956646 44,3.42277716" id="Fill-1" fill="#D1B8C7" mask="url(#mask-2)"></path>
                    </g>
                </g>
            </g>
        </g>
    </g>
</svg>