<?xml version="1.0" encoding="UTF-8"?>
<svg width="36px" height="29px" viewBox="0 0 36 29" version="1.1" xmlns="http://www.w3.org/2000/svg" xmlns:xlink="http://www.w3.org/1999/xlink">
    <!-- Generator: Sketch 51.3 (57544) - http://www.bohemiancoding.com/sketch -->
    <title>Vimeo</title>
    <desc>Created with Sketch.</desc>
    <defs></defs>
    <g id="The-Corporation-App-(1920-x-1080-HD-Desktop)" stroke="none" stroke-width="1" fill="none" fill-rule="evenodd">
        <g id="New-User" transform="translate(-1787.000000, -84.000000)" fill="#D1B8C7" fill-rule="nonzero">
            <g id="Header-Area">
                <g id="Social-Media-Icons" transform="translate(1533.000000, 80.000000)">
                    <g id="Vimeo" transform="translate(254.777778, 4.000000)">
                        <path d="M29.9028637,0 C33.2892023,0.0889816281 34.983211,2.01132057 35,5.77205353 C35,6.01885163 34.9916055,6.27572313 34.9781743,6.53931021 C34.8287523,9.72753873 32.4564686,14.0708495 27.8512496,19.5675637 C23.1016453,25.326186 19.0722886,28.208855 15.7631794,28.2239651 C13.7048496,28.2239651 11.9957308,26.4611215 10.6240706,22.9337555 L9.18357557,18.0985274 L7.75986953,13.2700149 C6.71055787,9.7711901 5.58905358,8.02513551 4.39199885,8.02513551 C4.13009066,8.02513551 3.22180649,8.5355207 1.66210966,9.55293328 L0,7.58694297 L2.57878831,5.4446683 L5.11560416,3.32421931 C7.38715403,1.50429318 9.11474073,0.520458579 10.3000432,0.374394397 C10.4578596,0.357605411 10.6156761,0.352568715 10.7768504,0.352568715 C13.2095745,0.352568715 14.7289778,2.1003022 15.3249868,5.59744807 C15.6574087,7.59197966 15.9327481,9.21379575 16.1560416,10.4595385 C16.3726196,11.7086391 16.5539406,12.5783086 16.6983259,13.0735837 C17.5025183,16.3810141 18.36883,18.0431237 19.3006188,18.0565549 C20.0158296,18.0565549 21.1171871,16.978702 22.6046913,14.8229961 C24.0586175,12.6085288 24.8409843,10.9682448 24.9417182,9.90046529 C24.9736173,9.68388737 24.9853696,9.48074063 24.9853696,9.29270399 C24.9853696,7.84717226 24.1895716,7.12692474 22.6046913,7.12692474 C21.8004989,7.12692474 20.9425817,7.2981724 20.0242241,7.62891543 C21.6695448,2.55696263 24.8325898,0.0167889864 29.5100014,0 C29.6409555,0 29.7702307,0 29.9028637,0 Z" id="Shape"></path>
                    </g>
                </g>
            </g>
        </g>
    </g>
</svg>