<?xml version="1.0" encoding="UTF-8"?>
<svg width="36px" height="24px" viewBox="0 0 36 24" version="1.1" xmlns="http://www.w3.org/2000/svg" xmlns:xlink="http://www.w3.org/1999/xlink">
    <!-- Generator: Sketch 51.3 (57544) - http://www.bohemiancoding.com/sketch -->
    <title>youtube</title>
    <desc>Created with Sketch.</desc>
    <defs></defs>
    <g id="The-Corporation-App-(1920-x-1080-HD-Desktop)" stroke="none" stroke-width="1" fill="none" fill-rule="evenodd">
        <g id="New-User" transform="translate(-1703.000000, -83.000000)" fill="#D1B8C7" fill-rule="nonzero">
            <g id="Header-Area">
                <g id="Social-Media-Icons" transform="translate(1533.000000, 80.000000)">
                    <g id="youtube" transform="translate(170.388889, 3.000000)">
                        <path d="M33.6357903,2.04306079 C32.3724032,0.591929082 30.0398226,0 25.5851129,0 L9.41454839,0 C4.8578871,0 2.48579032,0.630111016 1.22714516,2.17506119 C0,3.68139307 0,5.9008544 0,8.9726456 L0,14.8274635 C0,20.7784999 1.456,23.8 9.41454839,23.8 L25.5852258,23.8 C29.4483226,23.8 31.5889677,23.2776711 32.9738387,21.997049 C34.3940484,20.6838087 35,18.5396203 35,14.8274635 L35,8.9726456 C35,5.73318116 34.9050484,3.50062888 33.6357903,2.04306079 Z M22.4701129,12.7083661 L15.1271129,16.4164865 C14.9629516,16.4993959 14.7834355,16.5405233 14.6041452,16.5405233 C14.4011452,16.5405233 14.1985968,16.4877231 14.0191935,16.3827773 C13.6813871,16.1849949 13.4751129,15.831212 13.4751129,15.4496108 L13.4751129,8.05715189 C13.4751129,7.67620527 13.6808226,7.32274965 14.0179516,7.12485814 C14.3551935,6.92696662 14.774629,6.91343931 15.1245161,7.08907621 L22.4675161,10.7733056 C22.8411129,10.9607244 23.0757258,11.3333801 23.0762903,11.7399631 C23.0767419,12.1468735 22.8431452,12.5200746 22.4701129,12.7083661 Z" id="XMLID_823_"></path>
                    </g>
                </g>
            </g>
        </g>
    </g>
</svg>