<?xml version="1.0" encoding="utf-8"?>
<!-- Generator: Adobe Illustrator 23.0.3, SVG Export Plug-In . SVG Version: 6.00 Build 0)  -->
<svg version="1.1" id="Layer_1" xmlns="http://www.w3.org/2000/svg" xmlns:xlink="http://www.w3.org/1999/xlink" x="0px" y="0px"
	 viewBox="0 0 50 50" style="enable-background:new 0 0 50 50;" xml:space="preserve">
<style type="text/css">
	.st0{fill:#754C24;}
	.st1{fill:url(#SVGID_1_);}
	.st2{fill:url(#SVGID_2_);}
	.st3{fill:#B27315;}
	.st4{fill:#009245;}
	.st5{fill:#CF8F4E;}
</style>
<path class="st0" d="M28.24,5.46l1.05-0.31c0.42-0.12,0.66-0.56,0.53-0.98l-0.28-0.94c-0.12-0.42-0.56-0.66-0.98-0.53l-1.05,0.31
	c-0.42,0.12-0.66,0.56-0.53,0.98l0.28,0.94C27.38,5.34,27.82,5.58,28.24,5.46z"/>
<linearGradient id="SVGID_1_" gradientUnits="userSpaceOnUse" x1="1.5259" y1="23.9091" x2="29.3999" y2="23.9091">
	<stop  offset="0" style="stop-color:#006837"/>
	<stop  offset="1" style="stop-color:#754C24"/>
</linearGradient>
<path class="st1" d="M29.02,31.58c0-0.02,0.01-0.03,0.01-0.05c1.15-4.8-0.73-11.1-0.73-11.1c-0.34-0.88-0.64-2.38-0.67-3.33
	c0,0,0.91-10.64-5.1-12.41c-0.02-0.01-0.04-0.01-0.06-0.02c-0.02-0.01-0.04-0.01-0.06-0.02c-6.02-1.77-11.02,7.66-11.02,7.66
	c-0.53,0.78-1.6,1.88-2.37,2.44c0,0-5,4.28-6.63,8.93c-0.01,0.01-0.01,0.03-0.02,0.04c-0.05,0.15-0.1,0.3-0.15,0.46
	c-2.4,8.15,1.62,16.52,8.99,18.69c7.36,2.17,15.28-2.68,17.68-10.83C28.94,31.89,28.98,31.73,29.02,31.58z"/>
<path class="st0" d="M22.86,5.46l-1.05-0.31c-0.42-0.12-0.66-0.56-0.53-0.98l0.28-0.94c0.12-0.42,0.56-0.66,0.98-0.53l1.05,0.31
	c0.42,0.12,0.66,0.56,0.53,0.98l-0.28,0.94C23.72,5.34,23.28,5.58,22.86,5.46z"/>
<radialGradient id="SVGID_2_" cx="35.6366" cy="23.9091" r="16.9384" gradientUnits="userSpaceOnUse">
	<stop  offset="0.4684" style="stop-color:#D9E021"/>
	<stop  offset="1" style="stop-color:#8CC63F"/>
</radialGradient>
<path class="st2" d="M22.08,31.58c0-0.02-0.01-0.03-0.01-0.05c-1.15-4.8,0.73-11.1,0.73-11.1c0.34-0.88,0.64-2.38,0.67-3.33
	c0,0-0.91-10.64,5.1-12.41c0.02-0.01,0.04-0.01,0.06-0.02c0.02-0.01,0.04-0.01,0.06-0.02c6.02-1.77,11.02,7.66,11.02,7.66
	c0.53,0.78,1.6,1.88,2.37,2.44c0,0,5,4.28,6.63,8.93c0.01,0.01,0.01,0.03,0.02,0.04c0.05,0.15,0.1,0.3,0.15,0.46
	c2.4,8.15-1.62,16.52-8.99,18.69c-7.36,2.17-15.28-2.68-17.68-10.83C22.16,31.89,22.12,31.73,22.08,31.58z"/>
<path class="st3" d="M41.54,28.05c0.83,2.97-1.04,6.09-4.19,6.97c-3.15,0.88-6.37-0.8-7.21-3.77s0.26-8.85,3.41-9.74
	S40.7,25.08,41.54,28.05z"/>
<path class="st4" d="M9.82,28.72c0-4.62,1.33-8.85,3.51-12.07c-4.43,1.02-7.78,5.9-7.78,11.76c0,5.65,3.12,10.39,7.31,11.64
	C10.95,36.94,9.82,33,9.82,28.72z"/>
<path class="st0" d="M41.68,28.19c-0.12-0.44-0.33-0.92-0.58-1.41c-0.41,2.78-2.23,5.07-4.82,5.67c-2.28,0.53-4.59-0.39-6.19-2.19
	c0.04,0.41,0.11,0.79,0.21,1.13c0.83,2.97,4.06,4.65,7.21,3.77S42.51,31.16,41.68,28.19z"/>
<path class="st5" d="M38.33,25.24c0.46,1.65-0.58,3.39-2.34,3.89c-1.76,0.49-3.56-0.44-4.03-2.1s0.15-4.93,1.91-5.43
	C35.63,21.11,37.87,23.59,38.33,25.24z"/>
</svg>
