<?xml version="1.0" encoding="utf-8"?>
<!-- Generator: Adobe Illustrator 23.0.3, SVG Export Plug-In . SVG Version: 6.00 Build 0)  -->
<svg version="1.1" id="Layer_1" xmlns="http://www.w3.org/2000/svg" xmlns:xlink="http://www.w3.org/1999/xlink" x="0px" y="0px"
	 viewBox="0 0 50 50" style="enable-background:new 0 0 50 50;" xml:space="preserve">
<style type="text/css">
	.st0{fill:#754C24;}
	.st1{fill:#006837;}
	.st2{fill:url(#SVGID_1_);}
	.st3{fill:#B4CD23;}
	.st4{fill:#B27315;}
	.st5{fill:#CF8F4E;}
</style>
<path class="st0" d="M43.56,9.53l-0.1-0.19c-0.42-0.76-0.14-1.74,0.62-2.16l2.38-1.32c0.76-0.42,1.74-0.14,2.16,0.62l0.1,0.19
	c0.42,0.76,0.14,1.74-0.62,2.16l-2.38,1.32C44.95,10.58,43.98,10.3,43.56,9.53z"/>
<path class="st1" d="M12.53,18.95c0,0-13.34,10.3-10.53,15.05s11.16,14.07,22.23,9.96s11.6-11.43,14.69-16.68
	c3.08-5.25,6.69-9.44,7.62-12.86s-0.93-7.43-3.3-8.34c-2.37-0.92-14.69,4.19-14.69,4.19L12.53,18.95z"/>
<g>
	
		<radialGradient id="SVGID_1_" cx="22.1218" cy="22.2681" r="21.7313" fx="19.7413" fy="22.344" gradientTransform="matrix(0.8125 -0.5829 0.3228 0.4499 -3.0408 25.1443)" gradientUnits="userSpaceOnUse">
		<stop  offset="9.651951e-03" style="stop-color:#FCEE21"/>
		<stop  offset="0.5856" style="stop-color:#D9E021"/>
		<stop  offset="0.7173" style="stop-color:#D4DE21"/>
		<stop  offset="0.8664" style="stop-color:#C7D722"/>
		<stop  offset="1" style="stop-color:#B4CD23"/>
	</radialGradient>
	<path class="st2" d="M12.5,12.05c0.02-0.01,0.03-0.02,0.05-0.03c5.41-3.15,13.19-3.94,13.19-3.94c1.11-0.04,2.93-0.37,4.05-0.74
		c0,0,12.33-5.36,15.58-0.19c0.01,0.02,0.02,0.04,0.03,0.05c0.01,0.02,0.02,0.03,0.04,0.05c3.25,5.17-6.87,14.04-6.87,14.04
		c-0.82,0.85-1.9,2.36-2.41,3.35c0,0-4.06,6.71-9.21,10.27c-0.02,0.01-0.03,0.02-0.05,0.03c-0.17,0.12-0.34,0.23-0.51,0.34
		c-9.12,5.78-19.73,5.34-23.71-0.98s0.18-16.14,9.3-21.92C12.15,12.26,12.32,12.15,12.5,12.05z"/>
	<path class="st3" d="M13.35,40.12c-1.32,0-2.61-0.13-3.83-0.41c-3.33-0.75-5.93-2.48-7.51-5c-4.2-6.68,0.08-17,9.55-23.01
		c0.18-0.11,0.36-0.22,0.54-0.33l0.04-0.02c5.51-3.2,13.2-4.02,13.52-4.05l0.05,0c1.02-0.03,2.74-0.35,3.79-0.69
		c0.88-0.38,13.01-5.46,16.53,0.12l0.07,0.1c3.51,5.59-6.27,14.39-6.99,15.03c-0.76,0.8-1.79,2.23-2.25,3.14l-0.03,0.05
		c-0.17,0.28-4.21,6.9-9.44,10.51h0l-0.05,0.03c-0.18,0.12-0.36,0.24-0.53,0.35C22.52,38.66,17.72,40.12,13.35,40.12z M12.5,12.05
		l0.4,0.68c-0.17,0.1-0.33,0.2-0.5,0.3C3.66,18.57-0.4,27.92,3.34,33.87c1.36,2.16,3.62,3.65,6.53,4.31
		c4.83,1.09,10.85-0.24,16.1-3.57c0.16-0.1,0.32-0.21,0.49-0.32l0.05-0.04c4.81-3.32,8.72-9.59,8.97-10
		c0.54-1.05,1.67-2.61,2.53-3.51l0.05-0.05c2.67-2.35,9.09-9.26,6.72-13.03L44.7,7.55c-2.37-3.76-11.34-0.92-14.6,0.5l-0.06,0.03
		c-1.17,0.39-3.06,0.74-4.24,0.78c-0.48,0.05-7.8,0.9-12.85,3.84l-0.05,0.03L12.5,12.05z"/>
</g>
<g>
	<path class="st0" d="M22.42,28.14c-3.37,1.73-8.28,1.44-9.66-1.31s-0.97-7.93,3.56-10.71c5.02-3.09,10.4,0.08,11.78,2.83
		C29.48,21.69,25.79,26.4,22.42,28.14z"/>
	<g>
		<path class="st4" d="M16.47,16.09c-3.79,2.33-4.69,6.32-4.08,9.18c3.34,2.88,8.76,2.23,12.24-1.52c1.65-1.78,2.57-3.95,2.74-6.07
			C25.27,15.36,20.74,13.47,16.47,16.09z"/>
	</g>
	<path class="st5" d="M15.67,16.23C13.23,18.1,13.03,21,14,22.27c0.97,1.27,3.74,0.78,6.18-1.09c2.44-1.87,3.64-4.41,2.67-5.68
		C21.89,14.23,18.12,14.36,15.67,16.23z"/>
</g>
</svg>
