<?xml version="1.0" encoding="UTF-8"?>
<svg width="78px" height="43px" viewBox="0 0 78 43" version="1.1" xmlns="http://www.w3.org/2000/svg" xmlns:xlink="http://www.w3.org/1999/xlink">
    <!-- Generator: Sketch 54.1 (76490) - https://sketchapp.com -->
    <title>halo-tales-logo</title>
    <desc>Created with Sketch.</desc>
    <g id="halo-tales-logo" stroke="none" stroke-width="1" fill="none" fill-rule="evenodd">
        <g>
            <g id="Group" transform="translate(22.000000, 7.000000)" fill="#000000" fill-rule="nonzero">
                <polygon id="Path" points="0.88 0.37 4.63 0.37 4.63 6.49 10.2 6.49 10.2 0.37 13.95 0.37 13.95 15.68 10.2 15.68 10.2 9.69 4.63 9.69 4.63 15.68 0.88 15.68 0.88 0.37"></polygon>
                <path d="M24.78,12.46 L20,12.46 L19.08,15.67 L15.23,15.67 L20.43,0.36 L24.37,0.36 L29.57,15.67 L25.72,15.67 L24.78,12.46 Z M22.38,3.86 C22.38,3.86 22.04,5.53 21.76,6.49 L20.88,9.47 L23.9,9.47 L23.04,6.49 C22.76,5.53 22.42,3.86 22.42,3.86 L22.38,3.86 Z" id="Shape"></path>
                <path d="M47.38,0.11 C52,0.11 55.39,3.54 55.39,7.93 C55.39,12.43 52.01,15.94 47.38,15.94 C42.76,15.94 39.37,12.43 39.37,7.93 C39.37,3.54 42.76,0.11 47.38,0.11 Z M47.38,12.5 C49.67,12.5 51.51,10.53 51.51,7.92 C51.51,5.41 49.67,3.53 47.38,3.53 C45.09,3.53 43.25,5.41 43.25,7.92 C43.25,10.54 45.09,12.5 47.38,12.5 Z" id="Shape"></path>
                <polygon id="Path" points="30.86 0.37 34.61 0.37 34.61 12.46 40.86 12.46 40.86 15.67 30.86 15.67"></polygon>
            </g>
            <g id="Group" transform="translate(17.000000, 22.000000)" fill="#FFFFFF" fill-rule="nonzero">
                <polygon id="Path" points="4.89 3.9 0.24 3.9 0.24 0.69 13.28 0.69 13.28 3.9 8.63 3.9 8.63 16 4.88 16 4.88 3.9"></polygon>
                <path d="M21.59,12.79 L16.82,12.79 L15.9,16 L12.05,16 L17.25,0.69 L21.19,0.69 L26.39,16 L22.54,16 L21.59,12.79 Z M19.19,4.18 C19.19,4.18 18.85,5.85 18.57,6.81 L17.69,9.79 L20.71,9.79 L19.85,6.81 C19.57,5.85 19.23,4.18 19.23,4.18 L19.19,4.18 Z" id="Shape"></path>
                <polygon id="Path" points="27.67 0.69 31.42 0.69 31.42 12.78 37.67 12.78 37.67 16 27.67 16"></polygon>
                <polygon id="Path" points="39.3 0.69 48.89 0.69 48.89 3.9 43.05 3.9 43.05 6.68 47.72 6.68 47.72 9.89 43.05 9.89 43.05 12.78 49.19 12.78 49.19 16 39.3 16"></polygon>
                <path d="M52.3,11.22 C52.3,11.22 54.03,12.8 55.96,12.8 C56.73,12.8 57.57,12.5 57.57,11.58 C57.57,9.76 50.68,9.83 50.68,5.11 C50.68,2.28 53.06,0.42 56.1,0.42 C59.4,0.42 61.02,2.15 61.02,2.15 L59.44,5.21 C59.44,5.21 57.9,3.86 56.06,3.86 C55.29,3.86 54.43,4.2 54.43,5.06 C54.43,6.99 61.32,6.64 61.32,11.48 C61.32,14.03 59.37,16.23 55.92,16.23 C52.32,16.23 50.33,14.05 50.33,14.05 L52.3,11.22 Z" id="Path"></path>
            </g>
            <polyline id="Path" fill="#FFFFFF" points="9.02 9.64 7.55 8.49 5.66 8.72 5.32 9.3 3.88 13.57 6.01 15.78"></polyline>
            <path d="M6.79,2.7 C6.3,2.7 4.69,2.64 4.25,2.17 C4.12,2.04 4.1,1.9 4.11,1.81 C4.14,1.09 5.83,1 6.84,1.01 C7.32,1.02 8.94,1.07 9.38,1.55 C9.5,1.68 9.52,1.82 9.52,1.91 C9.49,2.63 7.79,2.72 6.79,2.7 Z M4.9,1.84 C5.2,1.94 5.81,2.07 6.8,2.08 C7.8,2.09 8.43,1.98 8.73,1.88 C8.43,1.78 7.82,1.65 6.83,1.64 C5.87,1.63 5.21,1.74 4.9,1.84 Z" id="Shape" fill="#FFFFFF" fill-rule="nonzero"></path>
            <path d="M10.22,1.15 C10.13,1.14 9.93,1 9.6,0.96 C9.36,0.94 8.92,0.89 8.92,0.89 C8.92,0.89 8.85,1.28 9.03,1.31 C9.3,1.36 10.14,1.42 10.24,1.82" id="Path" fill="#6B0046" fill-rule="nonzero"></path>
            <path d="M18.09,36.82 C17.97,36.22 17.76,35.67 17.46,35.16 C17.34,34.95 17.06,35.03 16.92,35.19 C16.44,35.74 16.07,36.39 15.6,36.94 C15.29,37.3 15.84,37.44 16.06,37.19 C16.29,36.92 16.5,36.62 16.71,36.32 C16.63,36.96 16.44,37.59 16.2,38.17 C15.91,38.89 15.48,39.75 14.83,40.13 C14.43,40.37 13.9,40.3 13.54,39.99 C13.16,39.66 12.97,39.12 12.86,38.6 C12.55,37.21 12.65,35.69 12.74,34.27 C12.78,33.58 12.83,32.9 12.87,32.21 C12.9,31.53 12.87,30.88 12.8,30.2 C12.66,28.8 12.4,27.38 11.68,26.2 C11.38,25.71 11.03,25.28 10.62,24.91 C10.45,24.76 10.26,24.6 10.08,24.43 C10.01,23.86 9.95,23.41 9.95,23.41 L10.25,23.31 C10.25,23.31 10.23,19.42 10.27,18.7 C10.3,18.27 10.82,16.21 11.23,14.64 L14.49,10.21 C14.49,10.21 15.28,9 15.28,8.74 C15.28,8.48 15.54,8.18 15.37,7.83 C15.19,7.48 11.89,3.67 11.89,3.67 L11.86,3.69 C11.78,3.44 11.71,3.16 11.73,2.9 C11.77,2.23 11.61,1.87 11.61,1.87 L11.39,1.72 C11.4,1.72 11.4,1.72 11.4,1.72 L11.4,1.71 C11.4,1.71 11.06,1.12 11.04,1.04 C11.02,0.96 10.68,0.68 10.61,0.61 C10.54,0.54 10.43,0.39 10.38,0.42 C10.33,0.44 10.23,0.61 10.31,0.78 C10.35,0.86 10.41,0.94 10.47,1.02 C10.19,0.86 10.1,0.91 9.84,0.76 C9.54,0.59 9.39,0.49 9.39,0.49 C9.39,0.49 9.25,0.68 9.34,0.85 C9.36,0.88 9.38,0.92 9.42,0.94 C9.2,0.92 8.94,0.89 8.94,0.89 C8.94,0.89 8.87,1.28 9.05,1.31 C9.32,1.36 10.16,1.42 10.26,1.82 C10.32,2.07 10.54,2.19 10.52,2.37 C10.5,2.55 10.24,2.7 9.9,2.57 C9.56,2.44 9.41,2.35 9.26,2.34 C9.11,2.33 9.01,2.54 9.01,2.54 L9.41,2.94 C9.41,2.94 10,3.16 10.09,3.26 C10.17,3.36 10.57,3.43 10.6,3.59 L10.85,4.3 L10.1,4.76 L10.28,5.02 L10.47,5.54 C10.47,5.54 11.12,6.28 11.14,6.5 C11.16,6.72 11.89,7.01 12.02,7.07 C12.15,7.13 11.9,7.56 12.29,7.69 C12.69,7.82 12.73,7.95 12.73,7.95 L12.29,8.08 L12.26,8.48 L12.07,8.97 L11.56,9.37 L10.76,9.99 L9.18,9.63 L8.08,8.9 C8.08,8.9 7.68,9.85 7.46,10.39 C7.24,10.93 6.6,13.59 6.57,13.67 C6.55,13.74 6.37,11.6 6.4,11.03 C6.42,10.46 6.51,10.43 6.51,10.43 L6.84,10.15 L6.46,9.68 C6.46,9.68 7.29,9.31 7.54,9.03 C7.79,8.76 7.84,8.65 7.84,8.65 L8.03,7.35 C8.03,7.35 8.17,7.06 8.35,6.85 C8.53,6.64 8.58,6.46 8.58,6.46 L8.45,6.33 C8.45,6.33 8.7,5.66 8.67,5.25 C8.65,4.83 8.37,4.19 8.05,3.89 C7.73,3.59 7.09,3.3 6.01,3.62 C4.92,3.94 5.27,3.94 5.27,3.94 L4.87,4.6 L4.84,5.92 C4.84,5.92 4.91,6.35 4.85,6.47 C4.78,6.6 4.95,7.19 4.95,7.19 L5.15,7.49 L5.21,7.79 C5.21,7.79 5.6,8.75 5.69,9.34 C5.72,9.55 6.21,9.7 6.21,9.7 L5.77,10.12 L6,10.6 C6,10.6 5.68,11.16 5.59,11.68 C5.49,12.2 5.02,13.82 5.02,13.82 C5.02,13.82 5,11.18 5.05,10.54 C5.1,9.9 5.27,9.46 5.27,9.46 L5.36,9.21 C5.36,9.21 4.31,9.61 3.79,9.86 C3.14,10.17 2.19,10.8 1.99,10.82 C1.79,10.84 1.48,10.83 1.44,10.94 C1.4,11.05 1.12,12.78 1.04,13.21 C0.96,13.64 0.96,14.57 0.96,14.57 C0.96,14.57 0.77,15.22 0.72,15.47 C0.67,15.72 0.54,17.37 0.54,17.37 C0.54,17.37 0.22,17.91 0.19,18.23 C0.18,18.38 0.21,18.62 0.25,18.83 L0,19.39 L0.11,20.13 L0.68,21.03 L1.2,22.09 L1.14,23.61 L1.41,23.54 L1.37,24.14 L1.44,25.1 L1.76,27.39 L2.2,30.54 L2.48,32.54 L2.73,33.92 C2.73,33.92 2.56,35.15 2.66,35.78 C2.76,36.41 3.31,39.02 3.31,39.02 C3.31,39.02 3.33,39.81 3.28,40.01 C3.23,40.21 3.45,40.55 3.45,40.55 C3.45,40.55 3.2,40.97 2.61,41.22 C2.02,41.47 1.78,41.31 1.61,41.54 C1.43,41.77 1.41,41.96 1.41,41.96 L1.38,41.98 L1.39,42.17 C1.39,42.17 2.57,42.52 3.21,42.47 C3.85,42.42 4.24,42.17 4.44,42.08 C4.64,41.99 4.81,42.01 4.81,42.01 L4.85,42.19 L6.06,42.09 L6.01,41.1 L6.16,41 C6.16,41 6.04,40.66 5.99,39.99 C5.94,39.32 5.89,38.36 5.94,37.67 C5.99,36.98 5.77,34.66 6.04,33.68 C6.31,32.69 6.09,31.98 6.02,31.71 C5.95,31.44 5.75,31.09 5.75,31.09 C5.75,31.09 5.83,30.67 5.9,30.38 C5.97,30.08 5.99,27.61 5.99,27.61 C5.99,27.61 6.9,30.82 6.88,31.25 C6.86,31.68 6.91,32.99 7.06,33.53 C7.21,34.07 8,36.54 7.95,37.4 C7.9,38.26 8.12,40.33 8.3,40.55 C8.47,40.77 8.62,41.39 8.62,41.39 L8.82,41.46 C8.82,41.46 8.72,41.88 8.72,42.05 C8.72,42.22 8.76,42.34 8.76,42.34 C8.76,42.34 9.07,42.45 9.09,42.59 C9.11,42.74 9.02,42.89 9.63,42.93 C10.22,43 10.96,43 11.18,42.7 C11.4,42.4 11.06,41.79 10.91,41.59 C10.76,41.39 10.76,41.39 10.76,41.39 C10.76,41.39 11.01,40.18 10.96,39.05 C10.91,37.92 10.69,36.64 10.69,36.64 L10.75,35.55 L10.42,32.28 C10.42,32.28 10.42,27.4 10.35,26.69 C10.32,26.44 10.27,25.96 10.21,25.44 C10.48,25.71 10.73,25.99 10.95,26.32 C11.66,27.39 11.98,28.72 12.14,30.04 C12.23,30.82 12.28,31.58 12.25,32.36 C12.22,33.08 12.16,33.8 12.12,34.52 C12.03,36.01 11.92,37.63 12.3,39.08 C12.44,39.6 12.67,40.14 13.09,40.44 C13.58,40.8 14.24,40.79 14.77,40.56 C15.63,40.2 16.24,39.32 16.66,38.43 C16.94,37.82 17.18,37.14 17.3,36.45 C17.37,36.67 17.43,36.89 17.48,37.12 C17.53,37.44 18.15,37.16 18.09,36.82 Z" id="Path" fill="#000000" fill-rule="nonzero"></path>
        </g>
    </g>
</svg>