<?xml version="1.0" encoding="UTF-8" standalone="no"?>
<!DOCTYPE svg PUBLIC "-//W3C//DTD SVG 1.1//EN" "http://www.w3.org/Graphics/SVG/1.1/DTD/svg11.dtd">
<svg version="1.1" xmlns:xl="http://www.w3.org/1999/xlink" xmlns:dc="http://purl.org/dc/elements/1.1/" xmlns="http://www.w3.org/2000/svg" viewBox="0 .41608405 18.094085 42.55209" width="18.094085" height="42.55209">
  <defs/>
  <metadata> Produced by OmniGraffle 7.10.2 
    <dc:date>2019-06-28 21:15:13 +0000</dc:date>
  </metadata>
  <g id="Canvas_1" stroke-opacity="1" stroke="none" stroke-dasharray="none" fill="none" fill-opacity="1">
    <title>Canvas 1</title>
    <g id="Canvas_1: Layer 1">
      <title>Layer 1</title>
      <g id="Group_2">
        <title>halo-stories-logo</title>
        <g id="Group_3">
          <g id="Line_7">
            <title>Path</title>
          </g>
          <g id="Graphic_6">
            <title>Shape</title>
            <path d="M 6.79 2.7 C 6.3 2.7 4.69 2.64 4.25 2.17 C 4.12 2.04 4.1 1.9 4.11 1.81 C 4.14 1.09 5.83 1 6.84 1.01 C 7.32 1.02 8.94 1.07 9.38 1.55 C 9.5 1.68 9.52 1.82 9.52 1.91 C 9.49 2.63 7.79 2.72 6.79 2.7 Z M 4.9 1.84 C 5.2 1.94 5.81 2.07 6.8 2.08 C 7.8 2.09 8.43 1.98 8.73 1.88 C 8.43 1.78 7.82 1.65 6.83 1.64 C 5.87 1.63 5.21 1.74 4.9 1.84 Z" fill="white"/>
          </g>
          <g id="Graphic_5">
            <title>Path</title>
            <path d="M 10.22 1.15 C 10.13 1.14 9.93 1 9.6 .96 C 9.36 .94 8.92 .89 8.92 .89 C 8.92 .89 8.85 1.28 9.03 1.31 C 9.3 1.36 10.14 1.42 10.24 1.82" fill="#6b0046"/>
          </g>
          <g id="Graphic_4">
            <title>Path</title>
            <path d="M 18.09 36.82 C 17.97 36.22 17.76 35.67 17.46 35.16 C 17.34 34.95 17.06 35.03 16.92 35.19 C 16.44 35.74 16.07 36.39 15.6 36.94 C 15.29 37.3 15.84 37.44 16.06 37.19 C 16.29 36.92 16.5 36.62 16.71 36.32 C 16.63 36.96 16.44 37.59 16.2 38.17 C 15.91 38.89 15.48 39.75 14.83 40.13 C 14.43 40.37 13.9 40.3 13.54 39.99 C 13.16 39.66 12.97 39.12 12.86 38.6 C 12.55 37.21 12.65 35.69 12.74 34.27 C 12.78 33.58 12.83 32.9 12.87 32.21 C 12.9 31.53 12.87 30.88 12.8 30.2 C 12.66 28.8 12.4 27.38 11.68 26.2 C 11.38 25.71 11.03 25.28 10.62 24.91 C 10.45 24.76 10.26 24.6 10.08 24.43 C 10.01 23.86 9.95 23.41 9.95 23.41 L 10.25 23.31 C 10.25 23.31 10.23 19.42 10.27 18.7 C 10.3 18.27 10.82 16.21 11.23 14.64 L 14.49 10.21 C 14.49 10.21 15.28 9 15.28 8.74 C 15.28 8.48 15.54 8.18 15.37 7.83 C 15.19 7.48 11.89 3.67 11.89 3.67 L 11.86 3.69 C 11.78 3.44 11.71 3.16 11.73 2.9 C 11.77 2.23 11.61 1.87 11.61 1.87 L 11.39 1.72 C 11.4 1.72 11.4 1.72 11.4 1.72 L 11.4 1.71 C 11.4 1.71 11.06 1.12 11.04 1.04 C 11.02 .96 10.68 .68 10.61 .61 C 10.54 .54 10.43 .39 10.38 .42 C 10.33 .44 10.23 .61 10.31 .78 C 10.35 .86 10.41 .94 10.47 1.02 C 10.19 .86 10.1 .91 9.84 .76 C 9.54 .59 9.39 .49 9.39 .49 C 9.39 .49 9.25 .68 9.34 .85 C 9.36 .88 9.38 .92 9.42 .94 C 9.2 .92 8.94 .89 8.94 .89 C 8.94 .89 8.87 1.28 9.05 1.31 C 9.32 1.36 10.16 1.42 10.26 1.82 C 10.32 2.07 10.54 2.19 10.52 2.37 C 10.5 2.55 10.24 2.7 9.9 2.57 C 9.56 2.44 9.41 2.35 9.26 2.34 C 9.11 2.33 9.01 2.54 9.01 2.54 L 9.41 2.94 C 9.41 2.94 10 3.16 10.09 3.26 C 10.17 3.36 10.57 3.43 10.6 3.59 L 10.85 4.3 L 10.1 4.76 L 10.28 5.02 L 10.47 5.54 C 10.47 5.54 11.12 6.28 11.14 6.5 C 11.16 6.72 11.89 7.01 12.02 7.07 C 12.15 7.13 11.9 7.56 12.29 7.69 C 12.69 7.82 12.73 7.95 12.73 7.95 L 12.29 8.08 L 12.26 8.48 L 12.07 8.97 L 11.56 9.37 L 10.76 9.99 L 9.18 9.63 L 8.08 8.9 C 8.08 8.9 7.68 9.85 7.46 10.39 C 7.24 10.93 6.6 13.59 6.57 13.67 C 6.55 13.74 6.37 11.6 6.4 11.03 C 6.42 10.46 6.51 10.43 6.51 10.43 L 6.84 10.15 L 6.46 9.68 C 6.46 9.68 7.29 9.31 7.54 9.03 C 7.79 8.76 7.84 8.65 7.84 8.65 L 8.03 7.35 C 8.03 7.35 8.17 7.06 8.35 6.85 C 8.53 6.64 8.58 6.46 8.58 6.46 L 8.45 6.33 C 8.45 6.33 8.7 5.66 8.67 5.25 C 8.65 4.83 8.37 4.19 8.05 3.89 C 7.73 3.59 7.09 3.3 6.01 3.62 C 4.92 3.94 5.27 3.94 5.27 3.94 L 4.87 4.6 L 4.84 5.92 C 4.84 5.92 4.91 6.35 4.85 6.47 C 4.78 6.6 4.95 7.19 4.95 7.19 L 5.15 7.49 L 5.21 7.79 C 5.21 7.79 5.6 8.75 5.69 9.34 C 5.72 9.55 6.21 9.7 6.21 9.7 L 5.77 10.12 L 6 10.6 C 6 10.6 5.68 11.16 5.59 11.68 C 5.49 12.2 5.02 13.82 5.02 13.82 C 5.02 13.82 5 11.18 5.05 10.54 C 5.1 9.9 5.27 9.46 5.27 9.46 L 5.36 9.21 C 5.36 9.21 4.31 9.61 3.79 9.86 C 3.14 10.17 2.19 10.8 1.99 10.82 C 1.79 10.84 1.48 10.83 1.44 10.94 C 1.4 11.05 1.12 12.78 1.04 13.21 C .96 13.64 .96 14.57 .96 14.57 C .96 14.57 .77 15.22 .72 15.47 C .67 15.72 .54 17.37 .54 17.37 C .54 17.37 .22 17.91 .19 18.23 C .18 18.38 .21 18.62 .25 18.83 L 17763568e-22 19.39 L .11 20.13 L .68 21.03 L 1.2 22.09 L 1.14 23.61 L 1.41 23.54 L 1.37 24.14 L 1.44 25.1 L 1.76 27.39 L 2.2 30.54 L 2.48 32.54 L 2.73 33.92 C 2.73 33.92 2.56 35.15 2.66 35.78 C 2.76 36.41 3.31 39.02 3.31 39.02 C 3.31 39.02 3.33 39.81 3.28 40.01 C 3.23 40.21 3.45 40.55 3.45 40.55 C 3.45 40.55 3.2 40.97 2.61 41.22 C 2.02 41.47 1.78 41.31 1.61 41.54 C 1.43 41.77 1.41 41.96 1.41 41.96 L 1.38 41.98 L 1.39 42.17 C 1.39 42.17 2.57 42.52 3.21 42.47 C 3.85 42.42 4.24 42.17 4.44 42.08 C 4.64 41.99 4.81 42.01 4.81 42.01 L 4.85 42.19 L 6.06 42.09 L 6.01 41.1 L 6.16 41 C 6.16 41 6.04 40.66 5.99 39.99 C 5.94 39.32 5.89 38.36 5.94 37.67 C 5.99 36.98 5.77 34.66 6.04 33.68 C 6.31 32.69 6.09 31.98 6.02 31.71 C 5.95 31.44 5.75 31.09 5.75 31.09 C 5.75 31.09 5.83 30.67 5.9 30.38 C 5.97 30.08 5.99 27.61 5.99 27.61 C 5.99 27.61 6.9 30.82 6.88 31.25 C 6.86 31.68 6.91 32.99 7.06 33.53 C 7.21 34.07 8 36.54 7.95 37.4 C 7.9 38.26 8.12 40.33 8.3 40.55 C 8.47 40.77 8.62 41.39 8.62 41.39 L 8.82 41.46 C 8.82 41.46 8.72 41.88 8.72 42.05 C 8.72 42.22 8.76 42.34 8.76 42.34 C 8.76 42.34 9.07 42.45 9.09 42.59 C 9.11 42.74 9.02 42.89 9.63 42.93 C 10.22 43 10.96 43 11.18 42.7 C 11.4 42.4 11.06 41.79 10.91 41.59 C 10.76 41.39 10.76 41.39 10.76 41.39 C 10.76 41.39 11.01 40.18 10.96 39.05 C 10.91 37.92 10.69 36.64 10.69 36.64 L 10.75 35.55 L 10.42 32.28 C 10.42 32.28 10.42 27.4 10.35 26.69 C 10.32 26.44 10.27 25.96 10.21 25.44 C 10.48 25.71 10.73 25.99 10.95 26.32 C 11.66 27.39 11.98 28.72 12.14 30.04 C 12.23 30.82 12.28 31.58 12.25 32.36 C 12.22 33.08 12.16 33.8 12.12 34.52 C 12.03 36.01 11.92 37.63 12.3 39.08 C 12.44 39.6 12.67 40.14 13.09 40.44 C 13.58 40.8 14.24 40.79 14.77 40.56 C 15.63 40.2 16.24 39.32 16.66 38.43 C 16.94 37.82 17.18 37.14 17.3 36.45 C 17.37 36.67 17.43 36.89 17.48 37.12 C 17.53 37.44 18.15 37.16 18.09 36.82 Z" fill="black"/>
          </g>
        </g>
      </g>
    </g>
  </g>
</svg>
