<?xml version="1.0" encoding="UTF-8"?>
<svg width="49px" height="42px" viewBox="0 0 49 42" version="1.1" xmlns="http://www.w3.org/2000/svg" xmlns:xlink="http://www.w3.org/1999/xlink">
    <!-- Generator: Sketch 54.1 (76490) - https://sketchapp.com -->
    <title>Artboard</title>
    <desc>Created with Sketch.</desc>
    <defs>
        <linearGradient x1="0.00116129257%" y1="50.0022265%" x2="99.9907465%" y2="50.0022265%" id="linearGradient-1">
            <stop stop-color="#006837" offset="0%"></stop>
            <stop stop-color="#754C24" offset="100%"></stop>
        </linearGradient>
        <radialGradient cx="50.0022525%" cy="50.0022265%" fx="50.0022525%" fy="50.0022265%" r="60.7614117%" gradientTransform="translate(0.500023,0.500022),scale(1.000000,0.715544),translate(-0.500023,-0.500022)" id="radialGradient-2">
            <stop stop-color="#D9E021" offset="46.84%"></stop>
            <stop stop-color="#8CC63F" offset="100%"></stop>
        </radialGradient>
    </defs>
    <g id="Artboard" stroke="none" stroke-width="1" fill="none" fill-rule="evenodd">
        <g id="avocado-pair" fill-rule="nonzero">
            <path d="M27.24,3.46 L28.29,3.15 C28.71,3.03 28.95,2.59 28.82,2.17 L28.54,1.23 C28.42,0.81 27.98,0.57 27.56,0.7 L26.51,1.01 C26.09,1.13 25.85,1.57 25.98,1.99 L26.26,2.93 C26.38,3.34 26.82,3.58 27.24,3.46 Z" id="Path" fill="#754C24"></path>
            <path d="M28.02,29.58 C28.02,29.56 28.03,29.55 28.03,29.53 C29.18,24.73 27.3,18.43 27.3,18.43 C26.96,17.55 26.66,16.05 26.63,15.1 C26.63,15.1 27.54,4.46 21.53,2.69 C21.51,2.68 21.49,2.68 21.47,2.67 C21.45,2.66 21.43,2.66 21.41,2.65 C15.39,0.88 10.39,10.31 10.39,10.31 C9.86,11.09 8.79,12.19 8.02,12.75 C8.02,12.75 3.02,17.03 1.39,21.68 C1.38,21.69 1.38,21.71 1.37,21.72 C1.32,21.87 1.27,22.02 1.22,22.18 C-1.18,30.33 2.84,38.7 10.21,40.87 C17.57,43.04 25.49,38.19 27.89,30.04 C27.94,29.89 27.98,29.73 28.02,29.58 Z" id="Path" fill="url(#linearGradient-1)"></path>
            <path d="M21.86,3.46 L20.81,3.15 C20.39,3.03 20.15,2.59 20.28,2.17 L20.56,1.23 C20.68,0.81 21.12,0.57 21.54,0.7 L22.59,1.01 C23.01,1.13 23.25,1.57 23.12,1.99 L22.84,2.93 C22.72,3.34 22.28,3.58 21.86,3.46 Z" id="Path" fill="#754C24"></path>
            <path d="M21.08,29.58 C21.08,29.56 21.07,29.55 21.07,29.53 C19.92,24.73 21.8,18.43 21.8,18.43 C22.14,17.55 22.44,16.05 22.47,15.1 C22.47,15.1 21.56,4.46 27.57,2.69 C27.59,2.68 27.61,2.68 27.63,2.67 C27.65,2.66 27.67,2.66 27.69,2.65 C33.71,0.88 38.71,10.31 38.71,10.31 C39.24,11.09 40.31,12.19 41.08,12.75 C41.08,12.75 46.08,17.03 47.71,21.68 C47.72,21.69 47.72,21.71 47.73,21.72 C47.78,21.87 47.83,22.02 47.88,22.18 C50.28,30.33 46.26,38.7 38.89,40.87 C31.53,43.04 23.61,38.19 21.21,30.04 C21.16,29.89 21.12,29.73 21.08,29.58 Z" id="Path" fill="url(#radialGradient-2)"></path>
            <path d="M40.54,26.05 C41.37,29.02 39.5,32.14 36.35,33.02 C33.2,33.9 29.98,32.22 29.14,29.25 C28.3,26.28 29.4,20.4 32.55,19.51 C35.7,18.62 39.7,23.08 40.54,26.05 Z" id="Path" fill="#B27315"></path>
            <path d="M8.82,26.72 C8.82,22.1 10.15,17.87 12.33,14.65 C7.9,15.67 4.55,20.55 4.55,26.41 C4.55,32.06 7.67,36.8 11.86,38.05 C9.95,34.94 8.82,31 8.82,26.72 Z" id="Path" fill="#009245"></path>
            <path d="M40.68,26.19 C40.56,25.75 40.35,25.27 40.1,24.78 C39.69,27.56 37.87,29.85 35.28,30.45 C33,30.98 30.69,30.06 29.09,28.26 C29.13,28.67 29.2,29.05 29.3,29.39 C30.13,32.36 33.36,34.04 36.51,33.16 C39.66,32.28 41.51,29.16 40.68,26.19 Z" id="Path" fill="#754C24"></path>
            <path d="M37.33,23.24 C37.79,24.89 36.75,26.63 34.99,27.13 C33.23,27.62 31.43,26.69 30.96,25.03 C30.49,23.37 31.11,20.1 32.87,19.6 C34.63,19.11 36.87,21.59 37.33,23.24 Z" id="Path" fill="#CF8F4E"></path>
        </g>
    </g>
</svg>