<?xml version="1.0" encoding="utf-8"?>
<!-- Generator: Adobe Illustrator 24.1.2, SVG Export Plug-In . SVG Version: 6.00 Build 0)  -->
<svg version="1.1" id="Layer_1" xmlns="http://www.w3.org/2000/svg" xmlns:xlink="http://www.w3.org/1999/xlink" x="0px" y="0px"
	 viewBox="0 0 363.2 505.9" style="enable-background:new 0 0 363.2 505.9;" xml:space="preserve">
<style type="text/css">
	.st0{fill:none;}
	.st1{fill:#8D0000;}
	.st2{fill:#DD1C24;}
	.st3{fill:#AE272D;}
	.st4{fill:#ED1C24;}
	.st5{fill:#88272D;}
	.st6{fill:#007DB9;}
	.st7{fill:#E6E6E6;}
	.st8{fill:#310C23;}
	.st9{fill:#730E03;}
	.st10{fill:#C1272D;}
</style>
<path class="st0" d="M228.5,176.1c1.8-0.6,3.8-0.8,5.2-1.2l1.2-0.3c0,0-0.1-0.1-0.1-0.1c-0.2-0.6-0.4-1.3-0.5-1.9
	c-1-1.1-1.7-2.4-2.1-3.8c-0.5-2.1-0.6-4.2-0.3-6.4c0-0.1,0-0.2,0-0.4c-0.5-0.6-0.8-1.2-1.1-1.8L232,174L228.5,176.1z"/>
<path class="st0" d="M196.8,166.2c0.6-0.8,1-1.8,1-2.8c0-1,0.1-2.9,0.3-4.8c-0.4,1-0.9,1.9-1.2,2.4c-0.7,1.4-1.1,2.9-1.2,4.4
	c0.3,0.2,0.6,0.4,0.9,0.6C196.7,166.1,196.7,166.1,196.8,166.2z"/>
<path class="st0" d="M116.7,118.9c-0.7-0.6-1.5-1.2-2.3-1.6c0.4,0.8,0.7,1.6,1.1,2.4l1.5-0.6C116.9,119.1,116.8,119,116.7,118.9z"/>
<path class="st1" d="M299.4,226c-0.1,0-0.2,0-0.3-0.1c0,0,0.6,2.6-0.9,4.7s1.2,9.7,1.8,13.3c0.2,1,0.6,2,1.1,2.9
	c0.8-3.2,1.6-6.5,2.3-9.4c-1.2-4.3-2.5-8.5-2.5-8.5L299.4,226z"/>
<path class="st1" d="M235.6,144.5l-1.6-2.1c0-1.6,0.1-3.2,0.2-4.9c0.2-1.1,0.2-2.4-2.9-3.1c-1-0.3-2-0.3-2.9,0.1l-2.3-25.4
	c-1,0.4-2.1,0.7-3.2,0.9c-1.2,0.2-2.5,0.3-3.7,0.3l-1-9.7l-3.8,0.3c1.8-0.5,3.1-1.6,3.7-1.7c0.2,0,1.2-0.1,2.6-0.1
	c2.2-0.3,5-0.6,5.5-0.7c0.4-0.1,0.9-0.2,1.2-0.5c0,0,0.3-0.9,1.1,0.5c1.4-0.2,2.5-0.6,3.1-1c2.1-1.7,3.5-6.8,4.4-7.8
	s0.9-0.4,1.1,0.1s-0.7,3.4-0.7,3.4s1.8-1.9,3.2-3.6c1-1.1,2.1-2.1,3.4-2.8c0,0,1,0.8-0.1,2c-0.9,1.1-1.8,2.2-2.6,3.4
	c0.9-0.7,3.4-2.5,3.9-2.8c0.7-0.4,1.7-0.2,1.3,0.6s-4.3,4.4-4.3,4.4c0.4-0.1,0.9-0.3,1.2-0.6c0.2-0.2,1.7-0.9,2.3-1.3
	s1.5-0.5,1.5,0.3s-3.5,3.1-3.5,3.1l-0.5,0.5c0,0-0.4,0.7,0.7,0.4s3-1.2,3-0.7c0.1,0.8-0.5,1.7-2.8,2.7l0,0l-17.9,1.3v0l39-2.9
	l-6.2-88.7l-89.9,7.7l8.2,87.5l41.7-3.1l3.5,33.1c-1.1,1-3.2,3-3.4,3.5c-0.2,0.7,0.7,1.8,0.7,1.8l-0.9,2.4c0,0,1.1,1.3,1.1,2
	c0,0.7,0.1,1.3,0.2,2l0.9,2l3.1,2.2l2.7,25.4l1.3,1.3c0.4-0.2,0.8-0.3,1.2-0.4l3.4-2l-1.2-13.9c-0.4-0.9-0.6-1.8-0.5-2.8
	c0.7-4.5,4.1-8,7.5-10.8c0.1-0.1,0.2-0.1,0.2-0.2c0.1-0.4,0.3-0.7,0.5-1.1l-1.1-0.4C237.4,144.9,236.3,144.2,235.6,144.5z
	 M215.8,64.2c-0.2,0.1-0.8,0.2-1,0.3c-0.9-3.2,1.4-2.8,3.8-3.2c-0.1,0.1,0.5,2.7-0.1,2.4c-1.5,12.7,6.9,11.1,3.2-0.6
	c-1.4,0.8-1.3-1.8-1-2.3c2.4,0.1,4.1-1.4,3.8,2c-0.2,0-0.3,0-0.5,0C228.9,77.5,213,80.7,215.8,64.2z M222.2,56.2
	c0.1-0.5-0.8-2.9,0.5-2.4c0.9-3.2-2.5-10,0.8-10.9h-0.1c4.7-2.3,12.5,2.4,5.5,6.7c1.3,0.9,1.5,2,2.1,3.5c0.2,0,0.7,0.1,0.9,0
	c-0.2,0.5,0.8,2,0,2.1c-1-0.2-2,0.4-3,0.5c0.2-0.1-0.7-2.6,0.1-2.3c-0.6-1.1-1.4-2.1-2.2-3.1c-0.6,0.2-1.1,0.3-1.7,0.3
	c-0.1,1-0.1,2.1-0.2,3.1c1.2-0.6,0.6,1.9,0.8,2.3C224.6,56,223.1,56.1,222.2,56.2z M233.7,72c0.4-1.5-1.7-4-1.7-5.3
	c-0.4,0.1-0.8,0.1-1.2,0.2c0.1,1.2,0.2,2.3,0.3,3.5c1.2-0.7,0.7,1.6,0.9,2.1c-2.4,0.1-5,1.6-4.6-1.9c0.3,0,0.7,0,1-0.1
	c-0.2-3-0.7-5.8-1.1-8.9c-1.5,0.6-1-1.4-1.2-2.2c1.4-0.1,2.8-0.1,4.2,0c2.9-0.4,5.5-0.8,5.7,3.7c-0.2,1.3-1.1,2.4-2.3,2.9
	c0.8,1.1,1.5,2.3,2.1,3.5c0.8-0.2,1.3,0,1.8-0.2C238.6,72.7,236.3,72.1,233.7,72L233.7,72z M247.5,60.2c-0.1-0.2-0.2-0.4-0.3-0.7
	c-1.5,0.4-3,0.5-4.3,0.7c0.1,0.6,0.2,2,0.3,2.6c1.2-0.3,2.5-0.3,3.7-0.3c-0.4-0.8,0.9-1,1.3-1.1c-0.2,1.5,1.4,4-0.9,4
	c0-0.2-0.1-0.4-0.1-0.6c-1.2,0.1-2.4,0.4-3.6,0.8c0.1,0.9,0.2,1.9,0.2,2.8c1.7,0,3.4-0.1,5-0.2c-0.3-0.8,1-0.9,1.3-1
	c-0.4,1.5,1.5,4-0.9,4.1c0-0.3-0.1-0.5-0.1-0.8c-2.2,0.7-4.4,0.3-6.6,0.6v0l-2.1,0.1l-0.1-0.4c-0.1,0-0.1-2.2-0.2-2.2l1,0
	c-0.2-2.7-0.5-5.4-1.1-8.1c-1.4,0.7-0.8-1.5-1-2.1c2.6-0.1,5.2-0.5,7.7-1.2c-0.6-1.1,1.3-0.8,1.7-0.9
	C248.3,58,250.5,60.5,247.5,60.2L247.5,60.2z M239.5,23.3c-0.2,0.3,0.7,2.6-0.2,2.4c0.6,1.7,1,3.4,2.3,4.9c1-1.7,1.2-3.7,1.6-5.5
	c-0.8-0.1-0.2-1.9-0.5-2.4c0.9,0.1,2.1,0.7,3,0.4c0,0.1,0,0.1,0,0.2c1.5-0.4,0.7,1.8,1,2.4c-0.4,0-0.7-0.1-1.1-0.2
	c-0.5,2.1-0.4,5.1-2.8,6c0,1.3,0.1,2.6,0.3,3.8l0.2-0.1c-0.1,0,0.4,2.3,0.2,2.3c-2.4,0.4-4.6,1.4-4.2-1.8l0.6,0
	c-0.2-1.2-0.3-2.5-0.3-3.8c-1.3-0.3-2.1-2.4-2.4-3.3c-0.2-0.8-0.3-1.6-0.4-2.5c-1.3,0.7-1.1-1.8-0.9-2.2
	C234.7,24.1,238.3,23.6,239.5,23.3L239.5,23.3z M227.4,25.3c10-3.6,11.2,6.4,2.5,8.4c0.1,1.5,0.3,2.3,0.3,3.4c1.4-0.6,1,1.4,1.1,2.1
	c-2.4,0.1-5,1.2-4.5-2c0.1,0,0.3,0,0.5,0.1c0.3,0-1.1-11.8-1.5-11.6C225.9,25.5,227.6,24.6,227.4,25.3z M216.1,26.8
	c1.6-1,0.9,2.1,1.2,2.7c-0.3,0-0.7,0.1-1.1,0.2c-1.3,12.1,7.8,11.6,4.9-0.3c-0.4,0.1-0.8,0.2-1.1,0.3c0,0-0.3-2.8-0.2-2.9
	c2.9-0.7,4.4-1.6,4.1,2.1c-0.2,0-0.3,0-0.5,0.1c4.5,14.7-12.3,17.4-9.9,1.1c-0.3,0-0.7-0.1-1-0.2l0-0.6c-0.2-0.5,0-1.8-0.2-2.3
	C212.8,27.6,215.4,26.7,216.1,26.8L216.1,26.8z M209.1,27.7c-0.1,0-0.3,0-0.4,0.1c4.4,2.4-3,4.8-3.6,1.5c-4.4,3,0.4,17.6,3.3,6.4
	c0.1-0.3,1.5-0.6,1.7-0.7c0.3,3.1-0.8,5.5-3.7,6.6C198.2,45.1,197.9,23.3,209.1,27.7L209.1,27.7z M207.5,58.1
	c-8.7,2.2-7.4-9-3.6-11.9C210.8,41.9,212.7,53.8,207.5,58.1L207.5,58.1z M198.7,30.1c2.6,1.7-3.9,4.4-3.2,0.8
	c-2.1-0.9-2.9,9.8-0.3,9.6c0.8,0.5,1.7-1.2,1.4-1.7c0.9-0.6,1.8-0.9,2.9-1.1c0.8,3.1-2.4,5.8-5.5,5.3
	C187.3,41.1,191.8,23.7,198.7,30.1L198.7,30.1z M182.2,30.5c-0.1-0.1-0.2-0.1-0.4-0.2c0.5-0.1,1.5-1.5,2.2-0.7
	c7.7-1.3,5.5,13.8-0.7,14.7C175.7,45.2,176.4,33,182.2,30.5L182.2,30.5z M181.5,86.3c-0.1,1.7-0.8,5.7-0.8,5.7l0.7,1
	c0.1,1.1-0.1,2.2-0.4,3.2c-0.3,0.8-0.8,1.5-1.4,2c0,0-0.3,2-0.8,3.7s-1,0.8-1.9,1.5c-0.1,0.1-0.1,0.1-0.2,0.2h-0.2L174,77
	c1.1,0.4,2.3,0.9,3.3,1.4C182,80.8,181.7,84.7,181.5,86.3L181.5,86.3z M188.6,66.8c-1.3,0.3-2.7,0.5-4,0.6c0.1,0.7,0.2,1.5,0.4,2.2
	c1.3,0,2.6-0.1,3.9-0.3c0,0,0.2,2.4,0.2,2.4c-1.1-0.1-3.2,1.1-3.7,0.3h-0.1c0.2,1.4,0.2,2.8,0.1,4.2c0.3,0,0.7,0,1-0.1
	c-0.1,0.2,0.6,2.8-0.3,2.4l0,0c-1.4,0.1-2.8,0.1-4.1,0.2c0.1-0.5-0.7-2.9,0.5-2.4c-0.1-3.1-0.2-6.2-0.5-9.2c-1,0.5-0.6-2-0.8-2.4
	c2.4,0,4.7,0.3,7-0.3c-0.3-0.6,2-0.8,2.1-0.9c0.1,1.2,0,2.2,0.4,3.4C190.3,67.3,188.4,68.3,188.6,66.8L188.6,66.8z M190.8,47.1
	c1.3,0.1,2.7,0.1,4-0.1c-0.1,0.6,0.7,2.5-0.7,2.2c0.7,1,0.5,2.6,1.6,3.3c1-1,1.6-2.3,1.7-3.8c-0.8,0.5-0.4-1.8-0.6-2
	c1,0,1.9-0.2,2.8-0.6c-0.1,0.6,0.6,2.1-0.1,2.2c-0.1,1.9-0.1,2.8-2.2,4.8c0,0,0,0,0,0l0,0c-0.1,0-0.4,0-0.4,0
	c0.4,1.5-0.3,3.6,0.8,4.5c0,0.5,0.2,1.1,0.4,1.6c-2.1-0.1-4,1.5-3.7-1.7h0.4c-0.2-1.3-0.3-2.7-0.4-4c-0.5-0.1-0.9-0.4-1.2-0.8
	c-0.8-1-1.4-2.2-1.8-3.5C190.4,49.7,191.2,47.6,190.8,47.1L190.8,47.1z M201.7,65.4c1,5,1.2,13.3-6.3,11.4
	c-3.5-2.5-1.8-6.6-2.4-10.2c-1.2,0.6-0.6-1.9-0.8-2.3c1.2,0,2.3,0,3.5-0.1c-0.1,0.3,0.7,2.9-0.3,2.4c0.6,2.9-1,8.5,2.5,9
	c2.5-2.5,0.5-6.4,1.3-9.6c-1.7,0.6-1.2-1.3-1.3-2.3c1.2-0.2,3.2-0.5,4.5-0.7C202.2,63.4,203.1,65.7,201.7,65.4z M213.7,64.9
	c-0.9,0.4-2.6,0.4-3.9,0.5c0.6,2.5,0.9,5.1,1,7.6c1.5-0.7,0.9,1.6,1.1,2.3c-1.5,0.2-3.1,0.1-4.6,0.2c0-0.8-0.8-2.9,0.9-2.4
	c-0.3-2.5-0.9-5-0.6-7.6c-2.4,0.2-3.9,0.9-3.6-2.2l-0.1-0.7c2.7-0.2,4.6,0,7.3-0.5c0-0.2,1-0.2,1-0.2
	C214.1,61.1,213.7,64,213.7,64.9L213.7,64.9z M211.9,47.1c-0.8,0.1-0.3-1.9-0.5-2.4c2.6,0,3.4-0.7,3.2,2.3l-0.7,0
	c0.7,15.4,6.2,6.1,2.6-1.2c-0.1-0.7-0.2-1.3-0.3-2c1.3-0.1,2.6-0.3,3.8-0.6c-0.1,0.2,0.6,2.7-0.2,2.5c0.1,2.5,0.7,5.2-0.1,7.7
	c0.5,1.1-4.2,5.5-5.6,3.8C211.2,55.8,211.9,50.3,211.9,47.1z"/>
<path class="st1" d="M340.3,131.2c0.7-1.1,5.7-4.9,6.2-6s1.1-5.3,1.1-5.3s4-4.4,5.7-7.3s0.4-6,0.4-8.8S350.7,85,350.7,83
	s-1.3-4.2-1.3-4.2l-0.2-0.9l-2.2-1.5c0,0-2-8.4-2-9.9s1.1-4.2,1.1-5.3v-4.6c0-0.7-3.1-2.7-4-3.3s-4-2.2-4.9-2.2s-2.7,0.9-3.1,1.5
	s-1.1,3.8-1.1,3.8s-1.5,0-2.4,0.9s-1.1,3.3-1.3,4s6.6,8,6.6,8l3.3,7.7l-1.5,2.4c0,0,0.2,4,0.4,11.1s-0.7,10.8-0.7,10.8l-1.5,2.9
	l-8.4,7.5l-14.8,4.4l-3.5-2.9l-2-1.8l-0.4-4.5c0.1-0.2,0.1-0.4,0.2-0.6c0.4-2.4,0.7-3.5,0.7-3.5s2.9-2,3.3-4s0-4.9,0-4.9l-1.1-0.9
	c0,0,0.7-7.3-1.1-9.9s-6-4.6-6-4.6s-1.1-2-6-2.2c-2.7-0.1-5.4,0-8,0.4c-0.5,0.1-1,0.2-1.5,0.3c-0.7,0.2,2.2,0.7,2.2,0.7
	s-4.9,0.4-7.7,4.2c-0.8,1.1-1.5,2-2,2.8c-0.7,1.1-1.4,2.2-1.9,3.3l3.5-2.9c0,0-1.3,3.6-1.1,4.7s1.5-1.5,1.5-1.5v4.4l0.9,2.4
	c0,0-1.1,4.4,0,7.3s4.2,9.9,4.2,9.9s0.8,0.6,1.8,1.4l-1.2,0.8c0,0-1.1,2.2-1.3,2.9s-0.9,1.3-2,2.7c-0.9,1-5.4,3.1-7.5,4.3
	c-1.4,0.2-2.6,0.5-3.1,0.8c-0.2,0.2-0.6,0.5-1.1,0.8c2.3,1.2,3.5,2.7,3.7,3.7c0.2,1.5,1.2,10.3,1.8,14.8c0.7,0.2,1.4,0.6,2,1
	c0.1,0,0.3,0,0.4,0.1c0.9,0.5,1.3,1.4,1.8,2.3c0.6,1,1.3,2,1.8,3.1c0.1,0.1,0.2,0.1,0.3,0.1c0.5,0,1,0,1.6,0c1.3,0,1.3,2,0,2h-0.6
	c0.6,0.5,1,1,1.4,1.6c0.7,1.1,1.1,2.3,1.1,3.6c0.4,0.6,0.7,1.3,1,2c0.7,1.7,0.5,3.7-0.6,5.1c0.2,1.7,1,3.4,0.9,5.2
	c0,1.3-0.3,2.6-0.8,3.8c0.9,0.3,1.9,0.6,2.9,0.9c4.1,1.5,9.4,2.6,11.8,7.4s15.9,30.9,15,33c-0.4,1-1.7,2.5-3.6,4l3.6,8.4
	c0,0,8.8,14.7,12.7,25.3c3.8,10.6,6.2,18.6,8,20.6s4.1,8.3,5,10.3s1.5,3.5,0.9,5.9s-1.8,9.4-2.1,10.6s-2.6,3.5-3.5,3.5s-0.9-3-0.9-3
	c1.1-1.8,1.4-3.9,0.9-5.9c-0.9-3.2-3.8-5-3.8-5s0.3,4.4-0.3,6.2s-3.2,1.2-3.2,1.2s0.9-3.5-1.2-6.2s-2.9-6.5-2.6-8.8s0.6-5-3-11.8
	c-1.5-2.9-5.2-7.5-9-12l0.2,0.7c0,0,0.2,5.3,2.6,8.6s5.8,15.2,5.8,18.1s1.5,9.1,1.3,11.9s-0.7,8-1.1,12.6c-0.3,2.7,0.6,5.3,2.4,7.3
	l-0.9,6c0,0,4,4.2,5.3,5.5s6.2,4,9.3,4.9s9.5,0.9,11.5-1.3s-3.6-6.7-4.6-8c-4-4.9-0.4-4.6-0.4-4.6l1.5-1.5c0,0-0.4-3.1-0.2-4
	s-1.8-7.7-1.8-7.7c0-1,0.1-1.9,0.2-2.9c0.6-4,0.8-8.1,0.7-12.2c-0.2-4.6-4.9-24.1-4.9-24.1s1.3-3.3,2.2-4.6s-0.2-4.9,0.2-6.6
	c0.4-1.8-2-13.7-2.4-19c-0.3-3.7-4.4-19.7-6.8-29c2.4-0.9,4.5-2.2,6.4-3.9c2.6-2.6-5.5-17.7-6.4-20.8s-8.2-29.4-8.2-29.4
	s-0.9-2.9-0.9-4.2s3.8-4.4,4.9-6.4S339.7,132.3,340.3,131.2z"/>
<path class="st1" d="M47.8,306.4c-0.6-1.5-1.5-10.4-1.2-11.6s2.8-8.3,3.1-11.3s-2.1-12.5-2.8-29.7s1.8-23.3,3.7-26.6
	s2.4-11.6,2.8-21.7c0.2-4.5,0.8-9,1.7-13.5c-0.6-1.1-1.1-2-1.4-2.5c-1.5-2.8-1.8-4-1.5-5.2s12.6-17.1,12.6-17.1s2.4-1.5,4.3-1.5
	s6.4-0.6,6.4-0.6c0.9-0.7,2-1.2,3.1-1.5c1.4-0.4,2.8-0.6,4.3-0.6c0,0,3.7-4.3,4.6-4.9c0.7-0.5,2.1-0.6,2.8-0.6v-3.7
	c-0.1-0.7-0.3-1.5-0.6-2.1c-0.9,2.8-1.9,3.9-2.9,3.3c-1.7-0.8-0.5-2.3,0.2-4.8c0.2-1,0.2-2.1,0.1-3.1c-0.7-1-1.6-2.1-2.4-3
	c-0.3,0.6-0.5,1.3-0.7,2c-0.5,2.3,1.7,7.1,0.2,7.6c-2.3,0.7-2.5-1.6-2.8-3.7c-0.2-1.4-0.7-6.6-1.1-9.9l-0.5-0.5
	c-0.3,2.5-0.8,6.3-1.9,8.1c-1.6,2.8-2.8,0.7-2.8,0.7c0.6-1.2,1-2.4,1.4-3.7c0.5-1.8,0.5-6.9,0.5-6.9L77,136
	c-0.2-0.3-0.3-0.6-0.4-0.9c0-0.1,0-0.2-0.1-0.4c-0.5,1-0.9,2.2-1.1,3.3c-0.2,2.1-1.8,1.4-2.1-0.7c-0.2-1.4,1-6.2,1.8-9.3l-0.1-0.5
	c-0.6,1.4-1.3,3.1-2.2,4.1c-1.6,1.8-1.1-0.7-1.1-0.7s0.7-2.5,2.3-7.1c0.2-0.5,0.4-0.9,0.6-1.4c0-0.5,0-0.9,0.1-1.4
	c0.6-3.4,8-10.7,11-13.2c0.8-0.6,1.6-1.1,2.6-1.4c-0.1-1.8,0.1-4.1,0.2-6.5c0.5,0.7,0.9,1.4,1.3,2.1c0.5,1.2,0.7,2.6,0.6,3.9
	c0.5-0.1,1-0.1,1.5-0.1c0.2-1.6,0.2-3.1,0-4.7c-0.4-3.3-1.7-6.3-3.8-8.9c-1.3-4.1-6.7-4.5-10.1-7.3c-3.5-2.9-7.7,0-7.7,0
	s-4.1-0.9-5.6-0.3s-10,3.5-12.1,11.2c-0.9,2.9-1.2,6-1.1,9c-0.4,0.8-0.7,1.6-0.6,2.5c0,2.9,0.6,9.1,2.9,9.4c0.2,0,0.4,0,0.6,0
	c0.4,1.9,1.1,3.7,1.9,5.4c-1-0.4-2-0.8-3.1-1c-0.9,0-3.2,1.2-3.5,0s-0.6-1.8-1.8-1.8h-2.1c0,0-1.8-2.7-2.7-2.1
	c-0.2,0.1-0.6,0.4-1.2,0.8c-1.9-2.5-3.9-4.9-6-7.2c-5-5.2-4.9-6.5-5.7-8s-7.5-16.7-8.7-18.9s-4.9-10-4.1-11.6s1.5-5.6,0.9-7.7
	s-2-4.2-2-4.8s-2.1-1.5-2.1-2.1s-1.9-1.9-1.9-1.9l-0.9,0.7c0,0-1.2-1.6-2.4-1.5c-0.8,0.1-1.4,0.6-1.9,1.2c-0.5,0.1-1,0.5-1.2,1
	c-0.2,0.6-0.3,1.2-0.4,1.8c0,0-1.3,0.4-1.6,1.2c-0.2,0.7-0.3,1.4-0.3,2.1c-0.2,0.4-0.2,0.8-0.2,1.2C3.5,64.4,6,70.1,6.5,71
	s1.5,2.9,2.8,5.8s7.4,24.8,10.8,31.5s10.6,17.4,10.6,17.4l4.1,5.7c-0.8,3.9-1.3,7-1.3,7s6.8,3,8.3,5.9s2.9,21.2,2.4,26.5
	s-1.8,12.1-1.8,13.3s0,7.1-1.2,10c-0.7,1.9-1.3,3.9-1.8,5.9c0,0,0.5,1.4,2.6,3.2c-0.1,1.4-0.2,3.1-0.3,4.1c-0.2,2-0.2,3.5-0.2,3.5
	s-3.3,6.9-3.8,13.7s2,22.5,2,23.4s2.4,17.9,3.3,19.5s0.2,4.9,0.2,4.9s0.2,4-0.2,5.3s-0.4,4.4-0.4,4.4s-3.8,5.1-2.7,11
	s-1.5,16.6-2,18.8s-1.7,6.4-1.5,8.8c0,0,0,0,0,0.1l-0.6,0.6c0,0-2.3,2.7-2.4,5.6s0.9,6.7,0.9,6.7l-0.2,2.9h1c0,0-0.7,4.6,0.3,8.6
	s5.4,7.1,7.8,7.8s5.5-1.7,6.4-6s-1.6-10.6-1.2-12.5c0.3-1.5,1.4-8.7,1.9-11.5c1.2-2.9,2.3-6.8,3.2-10.8c-0.2,0-0.3-0.1-0.5-0.1
	C52.1,311.3,48.4,307.9,47.8,306.4z"/>
<path class="st1" d="M160.5,72.8l0.3-2.8l-2.1-1.6c0,0,0.7-1.8-1-2.7c-1.5-0.7-4.4,0.4-4.4,0.4l-1.3-1.5l-4.7,2.1
	c0,0-0.9,14.1-1.5,16.2s-1.2,7.2-9.2,16.5c0.2,0.2,0.4,0.5,0.6,0.8c1,2,1.9,0.4,2.6,0.3c0.1,0,0.7,0,1.5-0.1
	c0.6-3.2,5.8-4.1,6.2-4.5s2.1,0,3.1,0.6c-3.1,7-8.2,17.6-10.4,21.4c-0.1-0.3-0.1-0.5-0.1-0.7c-0.1-0.9-0.3-2-0.5-3.1
	c-1.9-0.8-4.6-3.1-5.8-4c-0.8-0.6-2.6-1.1-4.3-1.6c-2.4,3.9-3,5.8-3.7,6.4c-0.6,0.4-3.3,1.7-7,3.3c0,0.1,0,0.2,0.1,0.3
	c0,0.6-0.6,1.5-1.8,0.5l-1.5,0.6c1.6,3.6,3,7.6,3.6,11c0.2,1.1,0.2,2.3,0.2,3.4c6.2-4.3,14.3-10.1,16.1-10.9
	c2.6-1.2,2.1-0.9,4.1-4.1s13-25.9,13.6-28.9s4-5.7,4-5.7l1-3.1l2.1-3.2c0,0,0.9-2.4,1.2-3.2S160.5,72.8,160.5,72.8z"/>
<path class="st1" d="M92.2,312.2c0,0-0.9,6.4-1.5,9.8s-4,31.8-4.6,35.2c-0.4,1.7-0.9,3.3-1.5,5c0.8,1.5,2,2.6,3.6,3.3
	c2.8,1,11.9,0.7,11.9,0.7s2.1-1.6,1.2-4s-2.5-4-5.2-6.3s-4.3-7.8-4.6-9.7c-0.1-0.8-0.3-1.8-0.5-2.8h0.1c0,0,2.6-1,2.4-2.6
	s1.2-11.7,1.5-15c0.1-0.6,0.9-4.8,1.9-10.2c-0.9-3.8-2-7.1-2-7.1L92.2,312.2z"/>
<path class="st1" d="M64.3,230.5c-0.3,3.4-1.2,13.5-2.4,21.4c-0.7,4.3-0.7,12.2-0.6,18.7c1.9-8.9,4.3-19.3,4.3-19.3s0.6-5.5,0.9-7
	s4-15.6,4-17.1c0-1.4-0.7-8.4-1.8-11.2C66.6,222.2,64.5,228.8,64.3,230.5z"/>
<path class="st2" d="M89.3,121.9c-0.5,2-1.3,4-2.4,5.8c0.9,0,1.9-0.1,2.8-0.2l2.9-0.6c1.6-0.4,3-1,4.4-1.8c0.7-0.5,1.7,0,2.8,1.2
	c1.9-0.9,4.2-1.9,6.9-3c2.9-1.1,5.9-2.4,8.7-3.6c-0.4-0.8-0.7-1.7-1.1-2.4c0.8,0.4,1.6,0.9,2.3,1.6c0.1,0.1,0.2,0.2,0.3,0.2
	c0.6-0.3,1.2-0.5,1.7-0.8c-0.2-0.6-1-1.3-1.8-2.5c-0.9-1.4-4.1-4.1-6.1-5.4c-0.9-1.2-10.4-6.4-13.5-5.5s-4.3,0.9-4.3,0.9
	c-0.4,0-0.8-0.1-1.3-0.1c-0.3,3.1-1.1,6.2-2.2,9.2C89.9,117.4,89.8,119.7,89.3,121.9z"/>
<path class="st3" d="M136.5,311.9c0,0.3,0,0.6,0,0.9c1.4-0.9,1.2-2.3,1.2-3.1s-1.3-1.3-2.1-1.4C136.2,309.7,136.7,311,136.5,311.9z"
	/>
<path class="st3" d="M129.2,314.3c0,0-1.5,2.4-1.8,3.5s1.2,3.8,2.1,5.3c0.6,1,2.3,1.2,3.8,1.6c0-2.1,0-4.4,0-6.7c-0.7-1-1.5-2-1.5-2
	L129.2,314.3z"/>
<path class="st3" d="M143.3,251.8c-0.9,4.7-7.7,26.2-10.6,35.7s0,13.3,0.6,15.6c0.4,1.3,1,2.5,1.6,3.7c-0.1-1.1-0.3-2.1-0.5-3.2
	c-0.6-2.8,0.6-14.1,0.9-16.8s9.2-24.5,10.1-35.5c0.3-4.1,0.4-8.1,0.3-12.2c-0.2,0.6-0.4,1.1-0.6,1.5
	C143.6,243.9,144.2,247.1,143.3,251.8z"/>
<path class="st2" d="M83,359.5l-0.7,4.4l-3.5,0.1c0,0-3.1-9.7-2.9-12.8c0.1-2.5,2.1-8.3,3-10.9c-1.2-5-0.5-33.9-0.7-39
	c-0.2-5.5,1.3-15,1.3-18.1S75.2,259,75.2,259l-6.9-20.6c-2.3,12.5-4.8,27.1-4.8,29.9c0,4.4-1.6,15-2.7,18.6s-3.1,4.4-4,7.1
	c-0.5,1.5-1.6,9.8-3.3,17.9c0.5,0.1,1,0.1,1.6,0.1c-0.4,4.8-0.5,9.1-0.2,12.1c0.9,10.1,2.4,23,1.5,24.8s-0.3,6.1-0.3,6.1
	c-0.9,3.2-1.3,6.5-1.2,9.8c0.2,3.1,0.8,6.2,1.8,9.2c0,0-1.2,0.9-1.2,5.8s-2.8,18.1-2.1,20.8s4.3,13.8,4.3,16.8s-0.9,8-0.9,12.5
	s1.2,8.3,1.8,9.2c0.3,0.3,0.7,0.6,1.1,0.9c-0.4,1.1-1,2.2-1.7,3.1c-1.8,2.1-5.2,5.8-6.7,6.7s-1.2,4-1.8,4.9s1.2,3.1,1.2,3.1
	c3.3,1.9,7.2,2.7,11,2.1c6.4-0.9,10.1-3.4,11.9-5.2c1.4-1.3,3-2.6,4.6-3.7c0,0,0.6-4,0.9-9.2c0-1.8-0.1-3.6-0.6-5.3
	c3-5.5,2.6-9,3.3-12.1c0.9-3.7,1.5-4.9,0.9-8.6s-0.9-12.2-0.3-16.8S82,385,82,382.6c-0.1-1.8-0.3-3.7-0.6-5.5c0,0,2.8-3.1,2.8-4.9
	s-1.2-6.1-1.2-6.1s0.8-1.8,1.6-3.9c-0.2-0.3-0.3-0.6-0.4-0.9L83,359.5z"/>
<path class="st2" d="M123.3,327c-1.5-0.6-5.9-8-6.8-9.7s0.6-11.8,0.6-13s0.3-4.4,0.3-5.6s1.5-6.2,1.8-8.3s3.8-28.3,4.7-35.1
	s5.3-21.8,5.3-21.8l-0.1-4.7l-2.8-0.9c0,0-2.1-3.8-1.8-5.3s2.9-13.6,4.4-19.2c1.5-5.6,8.6-19.7,8.6-19.7s0.6-1.5,2.6-3.8
	c0.5-0.6,2.1-1.3,4.1-1.9c-0.6-1.3-1.3-2.6-2.1-3.8c-2.1-2.4-6.1-3.7-6.1-3.7l-5.8-1.2l-5.5-4l-7.3-8.3l-2.4-1.2l-1.7-0.7
	c0.5-1.2,1-2.4,1.5-3.5c0.3,0.5,0.7,1.1,1,1.5c0.9,1.4,1.1-2.3,0.5-5.2c0,0,3.1-6.9,3.3-13.7c-2.7,1.9-5,3.4-6.3,4.1
	c-1.6,0.9-3.9,2-6.1,3c0.2,0.4,0.2,0.9,0.2,1.4c0,0-8.5,8-11.5,19.2S93,185.5,93,187.6s1.5,6.8,3.2,8.8s-0.3,2.4-0.6,3.5
	c-0.3,0.7-0.7,1.4-1.2,1.9c1,8.8,2.9,25.4,3.1,31.4c0.2,8.4,0.4,42.9,0.9,44.9s0.9,6.4,0.4,7.5c-0.3,0.9-0.5,1.9-0.7,2.9
	c0,0,0,1.5,0.2,3.5s-0.4,18-1.1,21.7c-0.1,0.6-0.2,1.2-0.3,1.8c0.5,2.1,0.9,4.2,1.1,6.4c0.3,5.2,2.4,19.9,2.8,24.2
	c0,0,1.5,8.6,2.4,17.8s3.4,17.8,3.7,19.6s1.5,11.3,1.5,11.3s0.9,14.1,0.6,18.1s0,16.8,0.3,19c0.1,0.4,0.2,0.8,0.4,1.2
	c-0.6,2-0.8,4.1-0.8,6.2c0.3,5.2,0.9,9.2,0.9,9.2c1.6,1.1,3.2,2.3,4.6,3.7c1.8,1.8,5.5,4.3,11.9,5.2c3.8,0.6,7.7-0.2,11-2.1
	c0,0,1.8-2.1,1.2-3.1s-0.3-4-1.8-4.9s-4.9-4.6-6.7-6.7c-0.8-1-1.4-2.1-1.8-3.3c1.1-1.1,2.1-2.2,3.1-3.4c2.8-3.4,0.9-7,1.8-8.3
	s3.1,0.3,3.7-4.3s-3.7-47.7-3.7-48.7s1.8-33.7,0.6-35.5c-0.3-0.5-0.4-3.3-0.5-7.4H133C131.2,329.6,124.8,327.6,123.3,327z"/>
<path class="st3" d="M88.6,108.6c0.2,0.7,0.3,1.4,0.4,2.1c0.7-1.5,1.2-3,1.3-4.6c-0.7,0.1-1.4,0.2-2,0.4
	C88.3,107.2,88.4,107.9,88.6,108.6z"/>
<path class="st4" d="M98.4,292.1c-0.2-2-0.2-3.5-0.2-3.5c0.1-1,0.3-1.9,0.7-2.9c0.4-1.1,0-5.5-0.4-7.5s-0.7-36.5-0.9-44.9
	c-0.2-6-2-22.6-3.1-31.4c0.5-0.6,1-1.2,1.2-1.9c0.3-1.2,2.4-1.5,0.6-3.5s-3.2-6.8-3.2-8.8s-0.3-14.4,2.6-25.6s11.5-19.2,11.5-19.2
	c0-0.5-0.1-0.9-0.2-1.4c2.2-1,4.5-2.1,6.1-3c1.3-0.7,3.6-2.3,6.3-4.1c0-1.2,0-2.3-0.2-3.4c-0.5-3.3-2-7.4-3.6-11
	c-2.8,1.2-5.8,2.4-8.7,3.6c-2.8,1.1-5.1,2.1-6.9,3c-1.1-1.2-2.1-1.7-2.8-1.2c-1.4,0.8-2.9,1.4-4.4,1.8l-2.9,0.6
	c-0.9,0.1-1.9,0.2-2.8,0.2c1.1-1.8,1.9-3.7,2.4-5.8c0.4-2.2,0.6-4.5,0.3-6.8c1.1-3,1.8-6.1,2.2-9.2c-0.5,0-1,0-1.5,0.1
	c-0.2,1.6-0.6,3.2-1.3,4.6c-0.1-0.7-0.3-1.4-0.4-2.1c-0.2-0.7-0.3-1.4-0.3-2.1c-0.9,0.3-1.8,0.8-2.6,1.4c-3.1,2.4-10.4,9.8-11,13.2
	c-0.1,0.5-0.1,0.9-0.1,1.4c-0.2,0.4-0.4,0.9-0.6,1.4c-1.6,4.6-2.3,7.1-2.3,7.1s-0.5,2.5,1.1,0.7c0.9-1,1.7-2.7,2.2-4.1l0.1,0.5
	c-0.8,3.1-2,7.9-1.8,9.3c0.2,2.1,1.8,2.8,2.1,0.7c0.2-1.2,0.5-2.3,1.1-3.3c0,0.2,0.1,0.3,0.1,0.4c0.1,0.3,0.2,0.6,0.4,0.9l-0.2,1.7
	c0,0,0,5.1-0.5,6.9c-0.3,1.3-0.8,2.5-1.4,3.7c0,0,1.1,2.1,2.8-0.7c1.1-1.8,1.6-5.7,1.9-8.1l0.5,0.5c0.4,3.3,0.9,8.5,1.1,9.9
	c0.2,2.1,0.5,4.4,2.8,3.7c1.5-0.4-0.7-5.3-0.2-7.6c0.1-0.7,0.4-1.4,0.7-2c0.8,0.9,1.7,2,2.4,3c0.1,1,0.1,2.1-0.1,3.1
	c-0.7,2.5-1.9,4-0.2,4.8c1.1,0.5,2.1-0.6,2.9-3.3c0.4,0.7,0.6,1.4,0.6,2.1v3.7c-0.6,0-2,0.1-2.8,0.6c-0.9,0.6-4.6,4.9-4.6,4.9
	c-1.4,0-2.9,0.2-4.3,0.6c-1.1,0.4-2.1,0.9-3.1,1.5c0,0-4.6,0.6-6.4,0.6s-4.3,1.5-4.3,1.5s-12.2,15.9-12.6,17.1s0,2.4,1.5,5.2
	c0.2,0.4,0.7,1.3,1.4,2.5c-0.9,4.4-1.5,8.9-1.7,13.5c-0.3,10.1-0.9,18.4-2.8,21.7s-4.3,9.5-3.7,26.6s3.1,26.6,2.8,29.7
	s-2.8,10.1-3.1,11.3s0.6,10.1,1.2,11.6s4.3,4.9,5.2,5.2c0.2,0,0.3,0.1,0.5,0.1c1.8-8,2.9-16.4,3.3-17.9c0.9-2.6,2.9-3.5,4-7.1
	s2.7-14.1,2.7-18.6c0-2.8,2.5-17.4,4.8-29.9l6.9,20.6c0,0,4.2,21.2,4.2,24.3s-1.6,12.6-1.3,18.1c0.2,5.2-0.5,34,0.7,39
	c-0.9,2.6-2.9,8.4-3,10.9c-0.1,3.1,2.9,12.8,2.9,12.8l3.5-0.1l0.7-4.4l1.2,1.8c0.1,0.3,0.3,0.6,0.4,0.9c0.6-1.6,1.1-3.3,1.5-5
	c0.6-3.4,4-31.8,4.6-35.2s1.5-9.8,1.5-9.8l2.8-3.7c0,0,1.1,3.3,2,7.1c0.1-0.6,0.2-1.2,0.3-1.8C98,310.1,98.6,294.1,98.4,292.1z
	 M66.5,244.3c-0.3,1.5-0.9,7-0.9,7s-2.3,10.4-4.3,19.3c-0.1-6.4-0.1-14.4,0.6-18.7c1.2-8,2.1-18.1,2.4-21.4
	c0.2-1.7,2.3-8.3,4.3-14.5c1,2.7,1.8,9.8,1.8,11.2C70.4,228.7,66.8,242.8,66.5,244.3L66.5,244.3z"/>
<path class="st3" d="M118.8,118.7c0-0.1,0-0.2-0.1-0.3c-0.6,0.2-1.1,0.5-1.7,0.8C118.2,120.1,118.8,119.3,118.8,118.7z"/>
<polygon class="st0" points="237.2,163.1 237.2,163.1 237.2,163.1 "/>
<path class="st5" d="M237.8,163.1c1.6-0.7,0.5-1.6,0-2.1c-0.1-0.1-0.2-0.3-0.3-0.4c-0.3,0.6-0.6,1.3-0.7,1.9
	c0.1,0.2,0.2,0.3,0.4,0.5c0,0.1,0,0.1,0.1,0.1l0,0C237.4,163.2,237.6,163.2,237.8,163.1z"/>
<path class="st0" d="M234.3,161.6c0-0.2,0-0.5,0-0.7l-0.3-0.2c0,0.2-0.1,0.4-0.1,0.6C234.1,161.4,234.2,161.5,234.3,161.6z"/>
<path class="st5" d="M235.1,159.8c0.6-0.6,0.7-0.7,0.7-1.6c0-0.2,0-0.5,0-0.8c0.1-0.3,0.1-0.5,0.3-0.8c0-0.9,0.2-1.9,0.7-2.7
	c0.6-1,1.5-1.9,2.4-2.6l0,0c0-0.1-0.2-0.2-0.3-0.4c-2.6,1.6-4.9,3.4-4.9,6.8c0,0.7,0.2,1.4,0.2,2.2c0,0.3,0,0.5,0,0.8l0.3,0.2
	C234.5,160.5,234.7,160.1,235.1,159.8z"/>
<path class="st5" d="M278.4,146.6c-0.1-0.1-0.2-0.1-0.2-0.1c0,0.2,0,0.4,0,0.4L278,147c0.2,0.4,0.4,0.7,0.6,1.1
	c0.2,0.1,0.5,0.3,0.7,0.4c-0.3-0.5-0.5-1.1-0.6-1.7C278.6,146.7,278.5,146.7,278.4,146.6z"/>
<path class="st0" d="M233.7,163.8c-0.1,1.2,0,2.3,0.2,3.5c-0.1-1.1,0-2.2,0.1-3.3L233.7,163.8z"/>
<path class="st6" d="M238.5,148.5L238.5,148.5L238.5,148.5z"/>
<path class="st5" d="M281.8,155.3c0.7,0.4,1.3,1,1.6,1.8c0-0.8-0.1-1.6-0.2-2.3c-0.2-0.4-0.5-0.8-0.7-1.1c-0.1-0.1-0.2-0.2-0.3-0.3
	c-0.4-0.3-0.9-0.5-1.3-0.8c0.1,0.4,0.2,0.8,0.3,1.1C281.3,154.2,281.5,154.7,281.8,155.3z"/>
<path class="st5" d="M282.8,170.9c-0.3,0.4-0.9,0.4-1.2,0.1c-0.2,0.9-0.4,1.6-0.5,1.6c0.7,0.3,2.2-1.6,2.4-1.9
	c0.1-0.2,0.2-0.5,0.3-0.7C283.4,170.3,283.1,170.6,282.8,170.9z"/>
<path class="st5" d="M285.4,171.9c-0.3,0.5-0.7,1-1.2,1.3c0.4,0.1,1.2,0.3,2.2,0.5c0.1-0.2,0.2-0.4,0.2-0.6c0.4-1.5,0.4-3,0.1-4.5
	C286.5,169.8,286,170.9,285.4,171.9z"/>
<path class="st5" d="M282.2,166.2l-0.4,2.7c0.5-0.5,1.1-1,1.6-1.5c-0.3-0.1-0.5-0.3-0.7-0.5C282.6,166.7,282.4,166.5,282.2,166.2z"
	/>
<path class="st5" d="M285.8,161c0-0.6,0-1.3,0-1.9c-0.2,0.5-0.3,0.9-0.6,1.4C285.5,160.6,285.6,160.8,285.8,161L285.8,161z"/>
<path class="st5" d="M284.7,165.8c0.3-0.8,0.7-1.8,0.6-2.4c-0.1-0.3-0.3-0.7-0.6-0.9c-0.3,0.7-0.6,1.3-1,1.9c0.1,0.5,0.4,1,0.9,1.3
	L284.7,165.8z"/>
<path class="st3" d="M223.6,270.4c0,2.9,0.1,7.4,0.1,11.8c0,6.8,6.2,20.3,6.2,20.3s1.8,5.5,4,12.4c0.5-1.9,0.8-3.9,0.7-6
	C234.7,304.8,227.3,283.1,223.6,270.4z"/>
<path class="st3" d="M303.4,237.3c0.8,2.9,1.6,5.8,1.9,7.4c0.5,2.3,5.6,8.3,10.5,14.2l-10-31.8C305.8,227.1,304.8,231.6,303.4,237.3
	z"/>
<path class="st3" d="M238.8,326.4l-0.9,0.9c0.8,2.6,1.6,5.1,2.3,7.3c0-0.1,0.1-0.2,0.1-0.2C240.9,332.6,238.8,326.4,238.8,326.4z"/>
<path class="st2" d="M293.7,273.9c-0.2,2.2-1.3,40.5-2.4,43.1s-2.9,11.7-2.7,13.5s0.4,4,0.4,4s-0.5,0.5-1.2,1.2
	c0.1,0.5,0.1,1,0.1,1.5c0,1.8-0.2,3.5-0.4,5.3c0,0-4.2,2-6.9,3.3s-5.3,4.4-7.5,6s-6.2,3.1-9.7,0.9s-3.1-8.6-2.2-10.2s4.9-3.1,6.2-4
	c0.6-0.5,1.2-1.1,1.8-1.7c-1.7-2-2.8-4-2.7-4.7c0.2-1.5,2.2-6.4,2.2-7.7s-1.1-4,0-5.5c0.7-0.9,1.2-2,1.5-3.1c0,0-1.8-11.9-1.8-13.9
	s2-25.6,2.2-27.4s-2.6-3.8-1.8-6.6c0.7-2.4,4.1-41.1,5.6-54.8l-0.3,0.2c-1.9-1.5-3.8-3.1-5.5-4.9c-2.4-2.4-3.5-4-3.8-4.6
	s0.4-2.4,0.7-3.1s2.9-14.1,3.3-16.8c0.7-5.1,1.1-10.2,1.1-15.3c0-1,0-2.3-0.1-3.6c-5.1,1.9-10.5,3.6-10.5,3.6s-12.8-0.9-13.5-1.5
	s-8-3.3-8.6-3.8l-0.2-0.1l0,0c-0.4-0.3-1.5-1.2-2.8-2.2c-0.1,0.2-0.1,0.5,0,0.7c-0.1-0.1-0.2-0.2-0.3-0.3c0-0.2,0.1-0.4,0.1-0.6
	c-1.2-1-2.5-2-3.6-2.9l0.2,2.4c0.3,0.6,0.7,1.3,1.2,1.8c0,0.1,0,0.2,0,0.4c-0.2,2.1-0.1,4.3,0.3,6.4c0.4,1.4,1.1,2.7,2.1,3.8
	c0.1,0.7,0.3,1.3,0.5,1.9c0,0,0.1,0.1,0.1,0.1l-1.2,0.3c-1.3,0.3-3.4,0.6-5.2,1.2l-1,0.6l-0.2-0.2c-0.9,0.4-1.6,0.9-2.2,1.6
	c-1.3,1.7-3.4,2.2-4.5,3.3c0.8,0.1,1.7,0.2,2.5,0.2c1.7,1.2,3.3,2.6,4.7,4.1c2.1,2.4,10.6,32.1,11.5,34.5s1.5,3.2,0.6,4.4
	c-0.5,0.7-2,1.6-4.3,3.2c-0.5,4.7-1,11.6-0.4,13.3c0.9,2.6,7.7,18.9,8,36c0.2,11,1.5,22,3.8,32.7c0.6,3.2,2.4,5.3,3.5,8.5
	s0.6,13.6,0.3,14.4s-5.9,7.4-6.8,8.2c-0.5,0.4-1.1,0.8-1.7,0.9c0.1,0.3,0.1,0.5,0.2,0.8c0,1.8-0.3,5.9-0.3,5.9s0,12.7,0.9,13.6
	s6.2,4.1,8,4.1c0.2,0,0.9-0.1,1.9-0.3c3.6,14.3,12.1,47.9,12.5,50.8c0.5,3.8-0.9,13.7-2,16.4s-1.5,4.5-4.5,6.8s-3.9,11.2-3.9,11.2
	s1.5,2.6,5.5,2.6s9,0.5,13-1.8c2.4-1.4,4.3-4.1,5.9-7.2c1.7-0.4,3.2-1.2,4.6-2.2c3.7-2.8,5.5-8.9,6.8-14.3s2.7-6.6,2.7-6.6
	s-0.8-6.8-7.1-14.2c-4.7-5.6-2.9-12-2.8-18.1c0.1-5.2,2.5-15.7-1.9-28.7c1.5-0.3,0.3-0.3,0.3-0.3l5.9-2.4c0,0,4.1,0.6,5.3-0.3
	s-1.2-13-1.2-16.2s3.5-15.9,3.5-15.9s10.3-39.2,10.6-55.7c0.2-12.8-3.3-19.6-5.1-23.6c-1.6,6.6-3.2,12.9-3.9,14.9
	C295.6,266.4,293.9,271.7,293.7,273.9z"/>
<path class="st3" d="M220,243.9c-1,2.9-2.2,6.1-2.7,8.2c-0.6,2.8,0.6,8,1.2,12.2c1.1-3.7,1.9-6.7,1.8-8c-0.1-1.5,0.4-4.8,1.1-8.4
	c-0.2-1.2-0.6-2.3-1.1-3.4C220.2,244.3,220.1,244.1,220,243.9z"/>
<path class="st2" d="M255.2,146.5c0,0,2.4-3.3,3.5-5.3s2-2.4,2-2.4c1.3-2,2.7-3.9,4.2-5.7c2.4-2.5,4.9-4.9,7.5-7.1
	c-2.5-1.2-6.2-2.1-11.4-1.7c-10,0.9-13.6,1.8-14.7,4.4s-1.2,6.2-1.2,6.2s-0.6,3.8-0.9,5.3c0,0.2-0.1,0.6-0.2,0.9
	c-1.3,0.7-2.5,1.5-3.6,2.3c-0.8,0.5-1.5,1.2-2.1,1.9l2.7,1.1L255.2,146.5z"/>
<path class="st4" d="M327.7,282.8c-0.3,2.4,0.6,6.2,2.6,8.8s1.2,6.2,1.2,6.2s2.7,0.6,3.2-1.2s0.3-6.2,0.3-6.2s3,1.8,3.8,5
	c0.5,2,0.2,4.1-0.9,5.9c0,0,0,3,0.9,3s3.2-2.4,3.5-3.5s1.5-8.2,2.1-10.6s0-3.8-0.9-5.9s-3.2-8.2-5-10.3s-4.1-10-8-20.6
	S318,227.9,318,227.9l-3.6-8.4c1.9-1.5,3.1-3,3.6-4c0.9-2.1-12.7-28.3-15-33s-7.7-5.9-11.8-7.4c-1-0.4-2-0.7-2.9-0.9
	c0.5-1.2,0.7-2.5,0.8-3.8c0-1.8-0.7-3.4-0.9-5.2c1.1-1.5,1.3-3.4,0.6-5.1c-0.3-0.7-0.6-1.4-1-2c-0.1-1.3-0.5-2.5-1.1-3.6
	c-0.3-0.6-0.8-1.2-1.4-1.6h0.6c1.3,0,1.3-2,0-2c-0.5,0.1-1,0.1-1.6,0c-0.1,0-0.2-0.1-0.3-0.1c-0.5-1.1-1.2-2.1-1.8-3.1
	c-0.5-0.9-0.9-1.8-1.8-2.3c-0.1-0.1-0.3-0.1-0.4-0.1c-0.6-0.4-1.3-0.8-2-1c-0.5-4.5-1.5-13.3-1.8-14.8c-0.1-1-1.3-2.5-3.7-3.7
	c-2.6,2.2-5.2,4.6-7.5,7.1c-1.5,1.8-2.9,3.8-4.2,5.7c0,0-0.9,0.4-2,2.4s-3.5,5.3-3.5,5.3h-14.1l-2.7-1.1c-0.2,0.3-0.4,0.7-0.5,1.1
	c-0.1,0.1-0.2,0.1-0.2,0.2c-3.3,2.9-6.8,6.3-7.5,10.8c-0.1,1,0.1,1.9,0.5,2.8l-0.2-2.4c1.1,0.9,2.4,2,3.6,2.9c0-0.3,0-0.5,0-0.8
	c0-0.7-0.2-1.4-0.2-2.2c0-3.4,2.4-5.2,4.9-6.8c0.2,0.1,0.3,0.3,0.3,0.4l0,0c-0.9,0.7-1.8,1.6-2.4,2.6c-0.5,0.8-0.7,1.7-0.7,2.7
	c-0.1,0.3-0.2,0.5-0.3,0.8c0,0.2,0,0.5,0,0.8c0,0.9-0.1,1-0.7,1.6c-0.3,0.3-0.5,0.7-0.7,1.2c1.3,1,2.4,1.9,2.8,2.2
	c0,0,0-0.1-0.1-0.1c-0.1-0.2-0.2-0.3-0.4-0.5c0.1-0.7,0.4-1.3,0.7-1.9c0.1,0.1,0.2,0.3,0.3,0.4c0.5,0.6,1.6,1.5,0,2.1
	c-0.2,0.1-0.4,0.1-0.6,0l0.2,0.1c0.7,0.4,8,3.1,8.6,3.8s13.5,1.5,13.5,1.5s5.4-1.7,10.5-3.6c0.1,1.4,0.1,2.6,0.1,3.6
	c0,5.1-0.4,10.2-1.1,15.3c-0.4,2.6-3.1,16.1-3.3,16.8s-0.9,2.4-0.7,3.1s1.3,2.2,3.8,4.6c1.7,1.7,3.6,3.3,5.5,4.9l0.3-0.2
	c-1.5,13.6-4.8,52.4-5.6,54.8c-0.9,2.9,2,4.9,1.8,6.6s-2.2,25.4-2.2,27.4s1.8,13.9,1.8,13.9c-0.4,1.1-0.9,2.1-1.5,3.1
	c-1.1,1.5,0,4.2,0,5.5s-2,6.2-2.2,7.7c-0.1,0.7,1,2.7,2.7,4.7c-0.5,0.6-1.1,1.2-1.8,1.7c-1.3,0.9-5.3,2.4-6.2,4s-1.3,8,2.2,10.2
	s7.5,0.7,9.7-0.9s4.9-4.6,7.5-6s6.9-3.3,6.9-3.3c0.3-1.8,0.4-3.5,0.4-5.3c0-0.4,0-0.9-0.1-1.5c0.8-0.7,1.2-1.2,1.2-1.2
	s-0.2-2.2-0.4-4s1.5-10.8,2.7-13.5s2.2-40.9,2.4-43.1s2-7.5,3.5-12.4c0.6-2,2.2-8.2,3.9-14.9c-0.5-0.9-0.8-1.9-1.1-2.9
	c-0.6-3.5-3.2-11.2-1.8-13.3s0.9-4.7,0.9-4.7c0.1,0.1,0.2,0.1,0.3,0.1l1.5,2.8c0,0,1.3,4.2,2.5,8.5c1.4-5.7,2.5-10.2,2.5-10.2
	l10,31.8c3.8,4.5,7.4,9.1,9,12C328.3,277.8,328,280.4,327.7,282.8z M238.5,148.5L238.5,148.5L238.5,148.5
	C238.5,148.5,238.5,148.6,238.5,148.5z M278.6,148.1c-0.2-0.4-0.3-0.8-0.6-1.1l0.2-0.1c0,0,0-0.1,0-0.4c0.1,0,0.2,0.1,0.2,0.1
	s0.2,0.1,0.2,0.2c0.1,0.6,0.3,1.2,0.6,1.7C279,148.4,278.8,148.2,278.6,148.1L278.6,148.1z M285.9,159c0,0.6,0,1.3,0,1.9l0,0
	c-0.2-0.2-0.3-0.4-0.5-0.6C285.5,159.9,285.7,159.5,285.9,159L285.9,159z M282.2,153.2c0.1,0.1,0.2,0.2,0.3,0.3
	c0.2,0.4,0.5,0.8,0.7,1.1c0.1,0.8,0.2,1.5,0.2,2.3c-0.3-0.8-0.9-1.4-1.6-1.8c-0.3-0.5-0.5-1.1-0.6-1.7c-0.1-0.4-0.2-0.8-0.3-1.1
	C281.3,152.7,281.8,152.9,282.2,153.2L282.2,153.2z M283.5,167.4c-0.6,0.5-1.1,1-1.6,1.5l0.4-2.7c0.2,0.2,0.3,0.5,0.5,0.7
	C283,167.1,283.3,167.3,283.5,167.4L283.5,167.4z M283.4,170.6c-0.2,0.4-1.7,2.3-2.4,1.9c0.1,0.1,0.3-0.7,0.5-1.6
	c0.4,0.3,0.9,0.3,1.2-0.1c0.3-0.3,0.6-0.6,0.9-0.9C283.6,170.2,283.6,170.4,283.4,170.6L283.4,170.6z M283.6,164.4
	c0.4-0.6,0.8-1.2,1-1.9c0.3,0.3,0.5,0.6,0.6,0.9c0.1,0.6-0.2,1.5-0.6,2.4l-0.2-0.1C284.1,165.4,283.7,164.9,283.6,164.4L283.6,164.4
	z M286.6,173.2c-0.1,0.2-0.1,0.4-0.2,0.6c-1-0.3-1.8-0.4-2.2-0.5c0.5-0.4,0.9-0.8,1.2-1.3c0.6-1,1-2.1,1.3-3.2
	C287.1,170.2,287,171.7,286.6,173.2L286.6,173.2z"/>
<path class="st3" d="M228.5,176c-0.4,0.1-0.8,0.3-1.2,0.4l0.2,0.2L228.5,176z"/>
<path class="st7" d="M133.3,329.6c0.9,0,1.8,0.1,2.6,0.3c0,0,0.6-3.2-0.9-4.4c-0.5-0.4-1.1-0.6-1.8-0.8
	C133.3,326.5,133.3,328.1,133.3,329.6z"/>
<path class="st8" d="M135.6,308.3c-0.2-0.5-0.5-1-0.7-1.5c0.1,0.9,0.1,1.4,0.1,1.4S135.3,308.3,135.6,308.3z"/>
<path class="st7" d="M133.3,318c0.6,0.9,1.2,1.8,1.2,2.2c0,0.9,1.8,2.4,1.8,2.4s2.4,0.3,2.1-2.9c-0.3-2.8-1.6-4.8-1.8-6.8
	c-1,0.6-2.1,0.9-3.2,0.9C133.3,315.2,133.3,316.6,133.3,318z"/>
<path class="st7" d="M250.6,318.4c-1.2-3.2-3-5.3-3.5-8.5c-2.3-10.8-3.6-21.7-3.8-32.7c-0.3-17.1-7.1-33.3-8-36
	c-0.6-1.7,0-8.6,0.4-13.3c2.3-1.6,3.8-2.5,4.3-3.2c0.9-1.2,0.3-2.1-0.6-4.4s-9.4-32.1-11.5-34.5c-1.4-1.6-3-2.9-4.7-4.1
	c-0.8,0-1.7-0.1-2.5-0.2c-3-0.4-5.9-1.2-8.7-2.5c-5.5-2.6-9.8-5.2-12.5-7.5l1.3-0.5c0,0,1.2-2.4,1.2-3.2s0.6-10,0.6-11.2
	s1.5-8.5,2.4-10.6c0.7-1.6-0.6-3-1.7-3.7c0.4-3.1,0.2-6.2-0.6-9.3c-1.5-5-7.7-10.9-10.3-12.1s-7.7-1.5-7.7-1.5s-5.6-0.6-8.6,0.6
	s-9.1,10.3-9.7,13.3s-1.8,7.4-1.5,10.6c0,0.1,0.1,0.3,0.1,0.4c-0.6,3.5-1.3,7.9-1.3,9.3c0,2.4-1.2,4.4-1.2,5.6s-1.5,4.4-1.2,7.7
	c0.1,2.1,0.1,4.1-0.1,6.2c-0.5,0.5-0.8,0.9-0.8,0.9s-10.2,2-16.2,4c-2,0.7-3.6,1.3-4.1,1.9c-2.1,2.4-2.6,3.8-2.6,3.8
	s-7.1,14.1-8.6,19.7c-1.5,5.6-4.1,17.7-4.4,19.2s1.8,5.3,1.8,5.3s1.2,0.4,2.8,0.9l0.1,4.7c0,0-4.4,15-5.3,21.8s-4.4,33-4.7,35.1
	s-1.8,7.1-1.8,8.3s-0.3,4.4-0.3,5.6s-1.5,11.2-0.6,13s5.3,9.1,6.8,9.7s8,2.7,9.7,2.7h0.3c0-1.5,0-3.1,0-4.9
	c-1.5-0.4-3.2-0.6-3.8-1.6c-0.9-1.5-2.4-4.1-2.1-5.3s1.8-3.5,1.8-3.5l2.7,1.8c0,0,0.8,0.9,1.5,2c0-1.4,0-2.8,0-4.3
	c1.1,0,2.2-0.3,3.2-0.9c0-0.3,0-0.6,0-0.9c0.1-1-0.3-2.3-0.9-3.6c-0.4-0.1-0.6-0.1-0.6-0.1s0-0.5-0.1-1.4c-0.7-1.2-1.2-2.4-1.6-3.7
	c-0.6-2.4-3.5-6.2-0.6-15.6s9.7-30.9,10.6-35.7s0.3-8,1.8-11.2c0.2-0.4,0.4-0.9,0.6-1.5c0.6-1.6,1.3-3.9,2-6.1
	c1.1,0,1.8-0.1,1.8-0.1l0.4,0c-0.4,5.3-0.9,11.7-1.2,13.6c-0.6,3.2-0.9,16.2-0.9,19.7s-0.6,10-1.2,12.1s-2.4,20-2.4,21.5
	s2.1,4.4,1.2,6.8s-0.6,4.4-0.6,5.3s0.3,3.5,0.3,3.5l2,0.2c-1,11.8-2.4,29.1-2,32.2c0.6,4.7,0,7.4-0.3,11.2s-1.2,5.9-0.9,8
	s1.8,5.3,1.8,5.3s0.9,5,0.3,6.2s-2.9,3.2-2.1,4.7s2.9,10.9,3.5,15.6s0,7.4,0.3,11.8s5,18.6,4.7,20.6s1.8,4.1,0.6,6.2
	s-0.9,10-0.3,12.1c0.5,1.6,1.4,1.2,4.1,3.5v2.9c0,0-1.2,2.4-1.8,9.7s-1.8,10.6-0.9,15.6s8,8.5,8.8,9.1s6.5,0.9,7.1-0.3
	s3.2-0.3,4.7-10.9s-1.8-15-1.5-18c0.2-1.7,0.5-5.7,0.8-8.6c0.3-0.1,0.6-0.3,0.9-0.5c0.8-0.5,1.6-5.8,2.4-13.8
	c0.1,3.7,0.2,7.2-0.1,8.5c-0.6,3.2,0,10.3,1.8,12.7c0.3,0.4,0.7,1,1.2,1.8l-0.6,3.2c0,0-1.5,5.6-1.5,8.8v5.3l2.1,1.2
	c0,0,0.6,4.1,0.3,6.8s1.2,5,4.1,6.8c4.3,2.6,5.1,4.3,11.2,4.1c8.8-0.3,11.5-3.2,11.5-6.8s-5-7.1-5.3-11.5c-0.1-2.1-0.4-4.8-0.6-7.2
	c1.1-0.3,1.8-0.5,1.8-0.5s1.2-3.2,0.9-6.2s0.9-9.1,0.9-11.7s4.1-29.2,4.7-36s1.5-21.8,1.5-21.8c-0.3-1.6-0.7-3.2-1.2-4.7
	c-0.6-1.5,0.9-14.4,1.8-18s2.7-10.9,3.2-15.3s2.1-26.2,3.2-30.4c0.7-2.3,0.1-8.2-0.5-13.1c3.4-2.5,5.8-4.6,5.8-4.6s-5.3-37.4-5-41.6
	c0-1.4,0-2.7-0.3-4c-0.6-4.2-1.8-9.4-1.2-12.2c0.5-2.1,1.7-5.4,2.7-8.2c0.1,0.2,0.2,0.4,0.2,0.6c0.5,1.1,0.9,2.2,1.1,3.4l0,0
	c0.8,4.5,0.1,10,0.1,13.7c0,1.2,0.9,4.5,2.1,8.9c3.8,12.7,11.1,34.4,11.1,38.6c0,2-0.2,4-0.7,6c-0.5,1.9-1,3.2-1,4.4
	c0,2.1-0.3,8.2-0.6,10.6s1.2,7.1,1.2,7.1s2.4-1.8,2.7-2.6s0-5.3,0-5.3l1.7-1.7l0.9-0.9c0,0,2.1,6.2,1.5,8c0,0.1-0.1,0.2-0.1,0.2
	c-0.7,1.6-1.8,3.1-3.1,4.2c-1.2,0.9-0.9,2.4-0.9,3.5s5.3,0,5.3,0c0.3-0.1,0.6-0.1,0.9-0.2c0.6-0.2,1.2-0.5,1.7-0.9
	c0.9-0.9,6.5-7.4,6.8-8.3S251.8,321.6,250.6,318.4z M169.4,163.8c-0.8,0.5-1.7,0.8-2.7,1c0-2,0.2-4.3,0.6-5.7c0.5-1.5,1.6-5,2.5-7.9
	c0.8,1.4,1.3,2.6,1.3,3.4c0.1,2.4,0.4,4.8,0.9,7.2C171,162.7,170,163.4,169.4,163.8z M197.9,163.3c0,1-0.4,2-1,2.8
	c-0.1-0.1-0.1-0.1-0.1-0.1c-0.3-0.2-0.6-0.4-0.9-0.6c0.1-1.5,0.6-3,1.2-4.4c0.3-0.6,0.7-1.4,1.2-2.4
	C198,160.5,197.9,162.4,197.9,163.3z"/>
<path class="st0" d="M193.3,105.5c0.2,0.6,5,0.3,5.6,0s0.2-1.5,1.4-2s3.7-1.1,4.2-1s2,1.1,3.6,0.3s2.2-1.4,4.7-1.5
	c0.5,0,1.1-0.1,1.6-0.3l-23.7,1.8C191.8,103.4,192.7,104.4,193.3,105.5z"/>
<path class="st0" d="M175.8,105.1c1.7-0.3,6.3-1.1,7.3-1.6l0.4-0.2l-6.9,0.5C176.4,104.2,176.1,104.7,175.8,105.1z"/>
<path class="st9" d="M235.7,102.7c2.4-0.5,5.2-2.8,7.6-3.8l-17.9,1.3l0.8,9c1.4-0.6,2.8-1.2,4.2-1.9c0.4-0.1,0.8-0.3,1-0.6
	c0.3-0.5,0.2-1.5,0.1-2.6c0-0.2-0.1-0.4-0.1-0.5c0-0.1,0.1-0.2,0.2-0.2C232.3,102.3,234.1,103,235.7,102.7z"/>
<path class="st9" d="M136.5,99.5c-1.1-1.1-2.7-1-4.4-1.7c-2.1-0.8-4.3-2.1-8.7-6.1s-14.5-8.6-15.2-8.9s-6.4-4.3-6.4-4.3
	s0.6-2.5-0.4-4.4s-3-3.7-3.1-4.5c-0.2-0.7-0.4-1.4-0.8-2l-1.1,0.6c0,0-4.5-3.6-5-4.2s-1.4,0.2-1.4,0.2v1.1c0,0-2.5-1.3-2.6-0.7
	c-0.1,0.7,0.6,2.2,0.6,2.2c-0.4,0.2-0.7,0.7-0.7,1.2c0.1,0.8,3.2,4,3.6,4.3s1.4,2.5,1.4,2.5s-3.7-3.2-4.3-3.3s-0.8,0.6-0.8,1.1
	s2.8,2.9,3.5,3.5s1.6,2.4,2,3.3s3,3.3,3.7,4.1c0.7,0.5,1.5,0.9,2.3,1.1l1.1,3c0,0,2.9,0.8,3.7,1.9s19.5,17.1,22,18.1
	c1.2,0.4,2.4,0.8,3.7,1.1c2-3.1,4.2-6,6.6-8.7L136.5,99.5z"/>
<path class="st9" d="M214.5,101c-0.5,0.2-1,0.3-1.6,0.3c-2.5,0.1-3.1,0.8-4.7,1.5s-3.2-0.2-3.6-0.3s-3,0.6-4.2,1s-0.8,1.7-1.4,2
	s-5.4,0.6-5.6,0c-0.6-1.1-1.5-2-2.5-2.7l-7.2,0.5l-0.4,0.2c-1.1,0.5-5.6,1.3-7.3,1.6c0.3-0.5,0.5-0.9,0.9-1.3h-0.2L174,77.1
	c-2.9-1-4.9-1-5.6-0.7c-0.9,0.4-9,5.6-9.4,8.2s1.8,8.6,2.1,10.7s0.2,2.4,0.8,2.9c0.5,0.3,0.8,0.9,1,1.4c0,0.3,0.8,2.1-1.1,2.2
	s-3.5-1.5-3.5-1.5s-1.5-1.7-2.5-2.1s-3.9-0.4-4.7-1.1c-0.2-0.1-0.3-0.2-0.5-0.3c-3.1,7-8.2,17.5-10.4,21.4
	c0.8,3.2,3.8,10.2,2.6,12.4c-1.3,2.4,0.3,2.2-1.8,2.9s-5.1,4.3-6,7.8s-4.6,12.1-1.3,14s6.9,1.9,7.2,3.3s1.5,4.3,2.2,4
	c0.8-0.3,1.7-0.4,2.6-0.5l-0.2,0.3c0,0,1.9,9,1.4,14.9c5.9-1.7,13.5-3.1,13.5-3.1s0.4-0.4,0.8-0.9c0.2-2.1,0.2-4.1,0.1-6.2
	c-0.3-3.2,1.2-6.5,1.2-7.7s1.2-3.2,1.2-5.6c0-1.4,0.7-5.8,1.3-9.3c0-0.1-0.1-0.3-0.1-0.4c-0.3-3.2,0.9-7.7,1.5-10.6
	s6.8-12.1,9.7-13.3s8.5-0.6,8.5-0.6s5,0.3,7.7,1.5c0.3,0.2,0.7,0.3,1,0.6c0-0.7,0-1.5-0.1-2.2c2.9-0.5,5.8-1.2,8.5-2.1
	c3.7-1.3,12.5-4.9,16.7-6.8h0.9l-1-9.7L214.5,101z"/>
<path class="st9" d="M183.6,103.3l7.2-0.5c-0.3-0.2-0.7-0.4-1-0.6C188,101.3,185.1,102.6,183.6,103.3z"/>
<path class="st10" d="M147.4,96.1c-0.4,0.4-5.6,1.3-6.2,4.5c-0.8,0-1.3,0-1.5,0.1c-0.7,0.1-1.5,1.7-2.6-0.3
	c-0.2-0.3-0.4-0.6-0.6-0.9L136,100c-2.4,2.7-4.6,5.6-6.6,8.7c1.8,0.5,3.5,0.9,4.4,1.6c1.2,0.9,3.9,3.2,5.7,4
	c0.2,1.1,0.4,2.2,0.5,3.1c0,0.2,0.1,0.4,0.1,0.7c2.1-3.8,7.2-14.3,10.4-21.4C149.5,96.1,147.8,95.7,147.4,96.1z"/>
<path class="st10" d="M176.7,103.8c0.1-0.1,0.1-0.1,0.2-0.2c0.9-0.8,1.4,0.2,1.9-1.5s0.8-3.7,0.8-3.7c0.7-0.5,1.2-1.2,1.4-2
	c0.3-1,0.5-2.1,0.4-3.2l-0.7-1c0,0,0.7-4.1,0.8-5.7s0.4-5.6-4.2-7.9c-1.1-0.5-2.2-1-3.3-1.4l2.5,26.7L176.7,103.8z"/>
<path class="st10" d="M243.3,98.9L243.3,98.9c2.4-1,3-1.9,2.9-2.7c-0.1-0.4-1.9,0.4-3,0.7s-0.7-0.4-0.7-0.4l0.5-0.5
	c0,0,3.4-2.3,3.5-3.1s-0.9-0.7-1.5-0.3s-2.1,1.1-2.3,1.3c-0.4,0.2-0.8,0.4-1.2,0.6c0,0,3.9-3.6,4.3-4.4s-0.6-1-1.3-0.6
	c-0.5,0.3-3,2.1-3.9,2.8c0.8-1.2,1.6-2.3,2.6-3.4c1.1-1.2,0.1-2,0.1-2c-1.3,0.7-2.5,1.6-3.4,2.8c-1.4,1.8-3.2,3.6-3.2,3.6
	s0.9-2.9,0.7-3.4s-0.2-1.1-1.1-0.1s-2.3,6.2-4.4,7.8c-0.5,0.4-1.7,0.8-3.1,1c-0.8-1.4-1.1-0.5-1.1-0.5c-0.4,0.2-0.8,0.4-1.2,0.5
	c-0.5,0.1-3.3,0.4-5.5,0.7c-1.4,0.1-2.4,0.1-2.6,0.1c-0.6,0.1-2,1.2-3.7,1.7l3.8-0.3l1,9.7c1.2,0,2.5-0.1,3.7-0.3
	c1.1-0.2,2.1-0.5,3.2-1l-0.8-8.9L243.3,98.9z"/>
<path class="st1" d="M182.7,31.6c0,0,0-0.5,0-0.5c3,2.6,4.1,8.1,2.3,11.7C179,43.6,179.6,33.9,182.7,31.6z"/>
<path class="st1" d="M232.6,27c1.3,1.9-0.9,3.5-2.5,4.6c-0.1-1.7-0.3-3.3-0.6-5C230.5,26.3,231.9,26.1,232.6,27z"/>
<path class="st1" d="M207.4,53.8c-2.6,7.5-5.5-3.3-2.6-6C208.1,44.6,208.2,51.7,207.4,53.8z"/>
<path class="st1" d="M224.9,44.2c5.5-1.5,5.8,5.4,0.1,5.4C225.1,47.8,225,46,224.9,44.2z"/>
<path class="st1" d="M231.8,61.7c0.8-0.1,1.5,0.3,2,0.9c-0.3,1.7-1.9,1.8-3.3,2.1C230.6,63.1,228.7,61.7,231.8,61.7z"/>
<path class="st9" d="M169.3,163.8c-0.8,0.5-1.7,0.8-2.7,1c0-2,0.2-4.3,0.6-5.7c0.5-1.5,1.6-5,2.5-7.9c0.8,1.4,1.3,2.6,1.3,3.4
	c0.1,2.4,0.4,4.8,0.9,7.2C170.9,162.7,169.9,163.4,169.3,163.8z"/>
</svg>
