<svg xmlns="http://www.w3.org/2000/svg" xmlns:xlink="http://www.w3.org/1999/xlink" viewBox="0 0 1000.42 1003.17"><defs><style>.cls-1{isolation:isolate;}.cls-2{fill:url(#linear-gradient);}.cls-3,.cls-4,.cls-5,.cls-6{fill-rule:evenodd;}.cls-3{fill:url(#linear-gradient-2);}.cls-4,.cls-5{mix-blend-mode:darken;}.cls-4{fill:url(#linear-gradient-3);}.cls-5{fill:url(#linear-gradient-4);}.cls-6{fill:url(#linear-gradient-5);}.cls-7{fill:none;stroke:#000;stroke-miterlimit:10;stroke-width:1.16px;opacity:0.52;}</style><linearGradient id="linear-gradient" x1="499.79" y1="1001.55" x2="499.79" gradientUnits="userSpaceOnUse"><stop offset="0.02"/><stop offset="0.3" stop-color="#686868"/><stop offset="0.55" stop-color="#909090"/><stop offset="0.85" stop-color="#bbb"/><stop offset="1" stop-color="#ccc"/></linearGradient><linearGradient id="linear-gradient-2" x1="7.71" y1="588.64" x2="157.17" y2="999.3" gradientUnits="userSpaceOnUse"><stop offset="0.1" stop-color="#666"/><stop offset="0.87"/></linearGradient><linearGradient id="linear-gradient-3" x1="331.83" y1="305.93" x2="795.54" y2="858.55" gradientUnits="userSpaceOnUse"><stop offset="0.1" stop-color="#848484"/><stop offset="0.87"/></linearGradient><linearGradient id="linear-gradient-4" x1="283.5" y1="538.14" x2="283.5" y2="1003.17" gradientUnits="userSpaceOnUse"><stop offset="0" stop-color="#333"/><stop offset="0.7"/></linearGradient><linearGradient id="linear-gradient-5" x1="811.82" y1="61.06" x2="811.82" y2="1003.17" xlink:href="#linear-gradient-4"/></defs><g class="cls-1"><g id="Layer_1" data-name="Layer 1"><rect class="cls-2" width="999.58" height="1001.55"/><polygon class="cls-3" points="1.37 683.27 1.37 1003.17 146.53 1003.17 146.53 538.11 1.37 683.27"/><polygon class="cls-4" points="420.41 264.23 420.41 1003.17 623.18 1003.17 623.18 61.46 420.41 264.23"/><polygon class="cls-5" points="146.53 538.14 146.53 1003.17 420.47 1003.17 420.47 573.54 146.53 538.14"/><polygon class="cls-6" points="623.22 61.06 623.22 1003.17 1000.42 1003.17 1000.42 137.07 623.22 61.06"/><line class="cls-7" x1="418.74" y1="698.02" x2="622.01" y2="568.41"/></g></g></svg>