<svg id="Layer_1" data-name="Layer 1" xmlns="http://www.w3.org/2000/svg" viewBox="0 0 701.87 977.78"><defs><style>.cls-1{fill:none;}.cls-2{fill:#8d0000;}.cls-3{fill:#dd1c24;}.cls-4{fill:#ae272d;}.cls-5{fill:#ed1c24;}.cls-6{fill:#88272d;}.cls-7{fill:#007db9;}.cls-8{fill:#310c23;}.cls-9{fill:#e6e6e6;}.cls-10{fill:#730e03;}.cls-11{fill:#c1272d;}</style></defs><path class="cls-1" d="M603.62,351.83c3.63-1.17,7.67-1.65,10.36-2.32l2.34-.61c-.05-.09-.13-.17-.17-.26a16.37,16.37,0,0,1-1-3.88,17.93,17.93,0,0,1-4.26-7.58,37.92,37.92,0,0,1-.68-12.75c0-.24,0-.47.08-.71A17.16,17.16,0,0,1,608,320.1l2.47,27.64Z" transform="translate(-153.26 -17.07)"/><path class="cls-1" d="M540.15,332.12a9.72,9.72,0,0,0,2.08-5.6c0-2,.24-5.7.55-9.62-.89,2.06-1.7,3.79-2.32,4.9a26.47,26.47,0,0,0-2.43,8.86,9.43,9.43,0,0,1,1.84,1.16C540,331.92,540,332,540.15,332.12Z" transform="translate(-153.26 -17.07)"/><path class="cls-1" d="M380,237.51a20.21,20.21,0,0,0-4.61-3.14c.73,1.56,1.48,3.2,2.21,4.89l2.94-1.25C380.37,237.86,380.19,237.7,380,237.51Z" transform="translate(-153.26 -17.07)"/><path class="cls-2" d="M745.42,451.68a1.53,1.53,0,0,1-.59-.2s1.18,5.3-1.76,9.43,2.35,19.45,3.53,26.52a25.15,25.15,0,0,0,2.12,5.77c1.58-6.37,3.18-12.92,4.6-18.81-2.41-8.56-5-17-5-17Z" transform="translate(-153.26 -17.07)"/><path class="cls-2" d="M617.69,288.9l-3.12-4.23a90.41,90.41,0,0,1,.44-9.73c.44-2.21.44-4.86-5.75-6.19a10.08,10.08,0,0,0-5.88.1l-4.54-50.78a39.74,39.74,0,0,1-6.32,1.9,44.53,44.53,0,0,1-7.46.55l-2-19.31-7.52.55c3.53-1,6.22-3.24,7.43-3.41.44-.06,2.45-.1,5.22-.21,4.41-.51,9.91-1.17,11-1.42a6.31,6.31,0,0,0,2.49-.93s.65-1.85,2.21,1c2.79-.48,5.07-1.12,6.16-2,4.19-3.3,7.05-13.65,8.81-15.63s1.76-.88,2.2.22-1.32,6.82-1.32,6.82,3.52-3.74,6.39-7.26a23.35,23.35,0,0,1,6.82-5.51s2,1.54-.22,4a71.48,71.48,0,0,0-5.11,6.83c1.87-1.32,6.87-4.94,7.89-5.6,1.33-.87,3.39-.35,2.51,1.19s-8.63,8.77-8.63,8.77a12.38,12.38,0,0,0,2.49-1.14c.41-.42,3.42-1.87,4.56-2.7s3-.94,2.91.62-7,6.23-7,6.23l-1,1s-.86,1.49,1.35.83,6-2.31,6.09-1.44c.24,1.65-1,3.42-5.63,5.4l-.09.05-35.8,2.64v.09l78-5.76L662.9,17.07,483.13,32.39l16.5,175.06L583,201.3l7,66.28c-2.13,1.91-6.47,5.92-6.81,6.92-.44,1.33,1.33,3.54,1.33,3.54l-1.77,4.86s2.21,2.65,2.21,4a34.36,34.36,0,0,0,.44,4l1.77,4,6.16,4.48,5.34,50.78,2.62,2.62a24.1,24.1,0,0,1,2.34-.89l6.82-4.09L608,320.1a9.87,9.87,0,0,1-1-5.57c1.4-9.09,8.22-15.95,14.91-21.67.16-.14.34-.21.5-.34a5.8,5.8,0,0,1,1-2.11l-2.14-.88S619.08,288.21,617.69,288.9ZM578.05,128.13c-.5.14-1.53.35-2,.53-1.88-6.31,2.79-5.54,7.68-6.34-.15.27,1,5.45-.22,4.81-2.94,25.43,13.7,22.28,6.48-1.11-2.79,1.64-2.62-3.54-1.92-4.55,4.74.25,8.17-2.79,7.5,4-.31,0-.62.06-.93.09C604.3,154.86,572.56,161.28,578.05,128.13Zm12.82-15.93c.2-.92-1.5-5.79,1-4.84,1.75-6.33-5-20.07,1.55-21.88h-.3c9.41-4.51,25,4.76,10.9,13.49,2.65,1.88,3,4,4.26,7,.49-.1,1.43.21,1.87-.09-.45,1,1.53,4-.08,4.28-2-.46-3.9.76-5.93.93.5-.24-1.33-5.24.2-4.63a42.2,42.2,0,0,0-4.4-6.14,12.78,12.78,0,0,1-3.45.53q-.16,3.09-.5,6.15c2.34-1.19,1.2,3.88,1.66,4.69C595.82,111.76,592.69,112,590.87,112.2Zm23,31.7c.77-3-3.41-8-3.38-10.55-.8.17-1.62.29-2.42.39.26,2.31.46,4.63.64,7,2.42-1.41,1.42,3.22,1.79,4.2-4.75.26-10.1,3.13-9.15-3.77a11.75,11.75,0,0,0,2-.14c-.5-5.94-1.46-11.69-2.17-17.71-2.92,1.16-2-2.74-2.32-4.3a58.31,58.31,0,0,1,8.36,0c5.82-.81,10.94-1.56,11.49,7.44a7.17,7.17,0,0,1-4.56,5.71,52.87,52.87,0,0,1,4.11,6.91c1.57-.38,2.6-.06,3.61-.44C623.72,145.28,619.08,144,613.9,143.9Zm27.61-23.73a10.93,10.93,0,0,1-.51-1.3c-3.1.72-6,1.07-8.67,1.48.18,1.12.49,4,.68,5.14a27.76,27.76,0,0,1,7.47-.52c-.83-1.56,1.76-2,2.56-2.17-.32,3,2.73,7.91-1.79,8q-.12-.63-.21-1.26a26.2,26.2,0,0,0-7.13,1.64,49,49,0,0,1,.42,5.56c3.36-.07,6.71-.16,10.06-.44-.67-1.64,2-1.74,2.68-2.07-.7,3.08,3.06,8-1.78,8.18,0-.54-.13-1.07-.22-1.59-4.42,1.44-8.79.62-13.21,1.11v.09l-4.3.18-.3-.88c-.14,0-.26-4.34-.34-4.34l2-.08a116.92,116.92,0,0,0-2.17-16.15c-2.75,1.31-1.69-3-2.06-4.19A68.22,68.22,0,0,0,640,114.09c-1.18-2.15,2.54-1.65,3.41-1.89C643.05,115.86,647.49,120.86,641.51,120.17Zm-16-73.7c-.4.51,1.43,5.3-.43,4.84,1.3,3.44,2.05,6.72,4.61,9.79,2-3.44,2.38-7.39,3.23-11.08-1.62-.17-.45-3.72-1-4.79,1.87.3,4.22,1.36,6,.79,0,.13,0,.27,0,.41,3-.73,1.4,3.63,2,4.87-.75-.1-1.49-.2-2.24-.32-1,4.28-.82,10.24-5.53,12a51.4,51.4,0,0,0,.52,7.65l.41-.11c-.27.08.72,4.54.37,4.65-4.77.84-9.25,2.83-8.38-3.69l1.24-.06a34.07,34.07,0,0,1-.6-7.55c-2.67-.56-4.26-4.76-4.7-6.68a27.54,27.54,0,0,1-.81-4.94c-2.53,1.44-2.23-3.56-1.82-4.48C616,48,623.14,47.07,625.48,46.47ZM601.33,50.4c20.09-7.18,22.32,12.79,5,16.87.12,3,.63,4.6.67,6.73,2.74-1.23,1.9,2.72,2.17,4.12-4.85.28-9.91,2.36-9-4.07.3.06.59.1.9.14.61.07-2.24-23.65-3.06-23.15C598.27,50.73,601.64,49,601.33,50.4Zm-22.68,3c3.18-2,1.86,4.13,2.35,5.4-.64.08-1.41.23-2.24.39-2.58,24.28,15.64,23.21,9.7-.56-.77.18-1.53.37-2.3.52.1,0-.65-5.68-.45-5.72,5.77-1.38,8.71-3.17,8.12,4.22a6,6,0,0,0-1,.11c9,29.37-24.67,34.79-19.85,2.14a5,5,0,0,1-2-.41L571,58.32c-.45-.91.08-3.56-.35-4.52C572.13,55.1,577.37,53.26,578.65,53.44Zm-13.84,1.8a1,1,0,0,0-.72.18c8.72,4.84-6,9.5-7.28,2.93-8.71,6,.83,35.27,6.62,12.8.16-.53,3-1.2,3.37-1.35.68,6.14-1.5,11-7.36,13.21C542.89,90,542.34,46.47,564.81,55.24Zm-3.34,60.87c-17.39,4.35-14.78-18-7.21-23.7C568.21,83.69,571.87,107.49,561.47,116.11Zm-17.58-56c5.24,3.32-7.7,8.8-6.45,1.53-4.17-1.71-5.79,19.69-.63,19.2,1.52,1,3.46-2.48,2.76-3.37a14.69,14.69,0,0,1,5.72-2.16c1.53,6.12-4.77,11.56-11,10.67C521.21,82.08,530.18,47.25,543.89,60.14Zm-33,.81a7.79,7.79,0,0,0-.76-.39c.94-.11,3-3,4.35-1.33,15.46-2.65,11,27.64-1.46,29.34C498,90.29,499.41,65.83,510.91,61Zm-1.29,111.64c-.22,3.3-1.54,11.45-1.54,11.45l1.32,2a17.61,17.61,0,0,1-.88,6.39,8.28,8.28,0,0,1-2.86,4s-.66,4-1.55,7.49-2,1.54-3.74,3.08a3,3,0,0,0-.38.4l-.35,0-5-53.42a52.44,52.44,0,0,1,6.65,2.8C510.5,161.36,509.84,169.29,509.62,172.59Zm14.17-39a75.09,75.09,0,0,1-8.08,1.29c.25,1.48.5,3,.73,4.45a45.6,45.6,0,0,0,7.73-.53s.45,4.73.37,4.74c-2.11-.2-6.4,2.13-7.35.53H517a50.7,50.7,0,0,1,.26,8.36c.65,0,1.31-.07,2-.14-.2.5,1.28,5.67-.55,4.8h0c-2.76.21-5.51.11-8.27.4.19-.92-1.49-5.81,1-4.83-.12-6.16-.34-12.31-.91-18.44-2.06,1-1.12-4-1.51-4.74,4.71,0,9.49.59,14.09-.57-.54-1.22,4-1.55,4.28-1.8.18,2.49,0,4.5.77,6.87C527.08,134.44,523.34,136.48,523.79,133.64Zm4.4-39.49a30.88,30.88,0,0,0,8.08-.27c-.16,1.2,1.46,5-1.31,4.34,1.33,2,1,5.29,3.27,6.69a13.41,13.41,0,0,0,3.49-7.5c-1.67,1-.79-3.62-1.16-4a16.33,16.33,0,0,0,5.66-1.24c-.3,1.16,1.2,4.12-.29,4.49-.2,3.76-.26,5.55-4.47,9.54.07,0,.08,0,0,0l0,0c-.18,0-.82,0-.82,0,.88,2.94-.62,7.27,1.57,9a9.5,9.5,0,0,0,.77,3.15c-4.21-.16-8.1,2.94-7.36-3.38l.89,0a71.41,71.41,0,0,1-.8-8,4.66,4.66,0,0,1-2.4-1.59,21.13,21.13,0,0,1-3.56-7C527.25,99.19,528.87,95,528.19,94.15ZM550,130.57c1.93,10.05,2.31,26.54-12.6,22.81-6.91-5.09-3.57-13.11-4.87-20.5-2.37,1.15-1.21-3.87-1.67-4.7,2.33-.09,4.65,0,7-.2-.19.6,1.35,5.73-.67,4.8,1.28,5.72-2,16.94,5.08,18,4.9-4.91,1-12.85,2.66-19.25-3.41,1.2-2.32-2.6-2.68-4.57,2.5-.33,6.4-1.06,8.9-1.39C551,126.69,552.64,131.28,550,130.57Zm24-1c-1.87.84-5.13.72-7.78,1a72.33,72.33,0,0,1,2,15.27c2.93-1.35,1.89,3.17,2.27,4.59-3.07.33-6.15.15-9.23.48.06-1.59-1.55-5.87,1.72-4.89-.54-5-1.84-10.05-1.15-15.15-4.74.44-7.81,1.71-7.14-4.33l-.18-1.45c5.48-.34,9.2.1,14.59-1.09,0-.38,1.91-.31,1.9-.31C574.78,121.93,573.89,127.85,574,129.61ZM570.27,94c-1.54.19-.53-3.89-1-4.86,5.23-.06,6.77-1.49,6.49,4.63l-1.37.08c1.43,30.76,12.39,12.27,5.16-2.44a28.29,28.29,0,0,0-.69-3.94,45.87,45.87,0,0,0,7.6-1.2c-.27.49,1.27,5.48-.45,4.92.23,5,1.35,10.49-.11,15.43,1.1,2.22-8.41,10.94-11.2,7.67C568.87,111.48,570.26,100.34,570.27,94Z" transform="translate(-153.26 -17.07)"/><path class="cls-2" d="M827.21,262.12c1.32-2.21,11.49-9.72,12.37-11.93s2.22-10.61,2.22-10.61,8-8.84,11.49-14.59.88-11.94.88-17.68S848,169.73,848,165.75s-2.65-8.4-2.65-8.4l-.44-1.77-4.42-3.09s-4-16.8-4-19.89,2.21-8.4,2.21-10.61V112.7c0-1.32-6.19-5.3-8-6.63s-8-4.42-9.72-4.42-5.31,1.77-6.19,3.1-2.21,7.51-2.21,7.51-3.1,0-4.86,1.77-2.22,6.63-2.66,8,13.26,15.91,13.26,15.91L825,153.37l-3.1,4.87s.44,7.95.89,22.1S821.46,202,821.46,202l-3.1,5.75-16.79,15L772,231.62l-7.08-5.75-4-3.53-.79-8.92a10.79,10.79,0,0,0,.34-1.25c.89-4.86,1.33-7.07,1.33-7.07s5.75-4,6.63-8,0-9.73,0-9.73l-2.21-1.77s1.33-14.58-2.21-19.89-11.94-9.28-11.94-9.28-2.21-4-11.93-4.42a86.83,86.83,0,0,0-16.07.74,24.13,24.13,0,0,0-2.94.58c-1.33.45,4.42,1.33,4.42,1.33s-9.73.88-15.47,8.4c-1.63,2.13-3,4.05-4.07,5.7a55.91,55.91,0,0,0-3.89,6.68l7.07-5.75S706.52,176.8,707,179s3.1-3.09,3.1-3.09v8.84l1.77,4.86s-2.21,8.84,0,14.59,8.4,19.89,8.4,19.89,1.55,1.29,3.69,2.76l-2.37,1.67s-2.21,4.42-2.65,5.74-1.77,2.65-4,5.31c-1.71,2-10.77,6.19-15,8.59-2.76.41-5.23.93-6.19,1.57-.47.32-1.23.92-2.15,1.69,4.65,2.33,7,5.3,7.31,7.3.43,3.06,2.49,20.66,3.52,29.58a13.83,13.83,0,0,1,4,2,2,2,0,0,1,.86.16c1.87,1.07,2.56,2.9,3.66,4.65,1.28,2.05,2.54,4,3.61,6.19a2.31,2.31,0,0,0,.63.27,17.35,17.35,0,0,0,3.14-.07c2.59,0,2.58,4,0,4l-1.26,0a11.34,11.34,0,0,1,2.7,3.3,16.35,16.35,0,0,1,2.29,7.22,27.78,27.78,0,0,1,2,4,10.57,10.57,0,0,1-1.23,10.28c.45,3.49,1.93,6.82,1.88,10.33a22.78,22.78,0,0,1-1.54,7.53c1.76.53,3.7,1.15,5.76,1.89,8.25,2.94,18.86,5.3,23.58,14.73s31.83,61.89,30.06,66c-.87,2-3.34,4.93-7.15,8l7.15,16.77s17.68,29.47,25.34,50.69,12.38,37.14,15.92,41.26,8.25,16.51,10,20.63,2.95,7.08,1.77,11.79-3.54,18.86-4.13,21.22-5.3,7.08-7.07,7.08-1.77-5.9-1.77-5.9a15.52,15.52,0,0,0,1.77-11.79c-1.77-6.48-7.67-10-7.67-10s.59,8.84-.59,12.38-6.48,2.36-6.48,2.36,1.77-7.07-2.36-12.38-5.89-13-5.3-17.68,1.18-10-5.9-23.58c-3.06-5.87-10.43-14.94-17.94-24l.41,1.32s.44,10.61,5.3,17.24,11.5,30.5,11.5,36.25,3.09,18.12,2.65,23.87-1.33,15.91-2.21,25.2a18.29,18.29,0,0,0,4.86,14.59l-1.77,11.93s8,8.4,10.61,11.05,12.38,8,18.57,9.73,19,1.77,23-2.65-7.25-13.43-9.28-15.92c-8-9.72-.89-9.28-.89-9.28l3.1-3.1s-.89-6.18-.45-8S840,614.45,840,614.45a37.53,37.53,0,0,1,.44-5.74,149.24,149.24,0,0,0,1.33-24.32c-.45-9.28-9.73-48.18-9.73-48.18s2.65-6.63,4.42-9.29-.44-9.72.44-13.26-4-27.41-4.86-38c-.62-7.41-8.79-39.43-13.66-58a38.1,38.1,0,0,0,12.78-7.82c5.2-5.21-11.06-35.37-12.83-41.56S802,309.42,802,309.42s-1.77-5.74-1.77-8.39,7.52-8.85,9.73-12.82S825.88,264.33,827.21,262.12Z" transform="translate(-153.26 -17.07)"/><path class="cls-2" d="M242.14,612.52c-1.22-3.06-3.06-20.81-2.44-23.25s5.5-16.53,6.12-22.65-4.29-25.09-5.51-59.36S244,460.74,247.65,454s4.9-23.25,5.51-43.45a174.6,174.6,0,0,1,3.36-26.92c-1.28-2.29-2.28-4.06-2.75-4.91-3.06-5.5-3.67-8-3.06-10.4s25.1-34.27,25.1-34.27,4.89-3.06,8.56-3.06,12.86-1.23,12.86-1.23a23.68,23.68,0,0,1,6.12-3.06,32.34,32.34,0,0,1,8.56-1.22s7.35-8.57,9.18-9.79c1.42-.95,4.27-1.16,5.51-1.21v-7.36a11,11,0,0,0-1.3-4.22c-1.7,5.55-3.79,7.72-5.89,6.67-3.31-1.66-.92-4.59.46-9.64a19,19,0,0,0,.16-6.23c-1.46-2-3.16-4.15-4.78-6a18.64,18.64,0,0,0-1.35,4c-.91,4.59,3.41,14.26.46,15.14-4.59,1.38-5.05-3.21-5.51-7.34-.31-2.78-1.44-13.24-2.16-19.79l-1-1.06c-.52,4.91-1.63,12.65-3.74,16.26-3.21,5.51-5.51,1.38-5.51,1.38a41.33,41.33,0,0,0,2.75-7.35c.92-3.67.92-13.77.92-13.77l.35-3.49a8,8,0,0,1-.81-1.86c0-.21-.09-.48-.16-.81a23.2,23.2,0,0,0-2.13,6.62c-.46,4.13-3.67,2.75-4.13-1.38-.31-2.76,2.05-12.5,3.65-18.65l-.15-1c-1.11,2.75-2.69,6.17-4.42,8.15-3.21,3.67-2.3-1.38-2.3-1.38s1.38-5.05,4.59-14.23a28,28,0,0,1,1.17-2.73,17.22,17.22,0,0,1,.21-2.78c1.23-6.73,15.91-21.42,22-26.31a16.38,16.38,0,0,1,5.1-2.71c-.14-3.59.19-8.26.4-13a21.68,21.68,0,0,1,2.51,4.29,16.41,16.41,0,0,1,1.16,7.8,26.53,26.53,0,0,1,3-.2,45.85,45.85,0,0,0,0-9.37,34.3,34.3,0,0,0-7.5-17.73c-2.58-8.19-13.47-9.08-20.2-14.69-7.08-5.89-15.33,0-15.33,0s-8.25-1.77-11.2-.59-20,7.07-24.16,22.4a57.76,57.76,0,0,0-2.28,18,9.19,9.19,0,0,0-1.26,5c0,5.89,1.18,18.27,5.89,18.86a11.33,11.33,0,0,0,1.15,0,53,53,0,0,0,3.84,10.77,38.67,38.67,0,0,0-6.17-2c-1.76,0-6.48,2.36-7.07,0s-1.18-3.54-3.54-3.54h-4.12s-3.54-5.3-5.31-4.12c-.4.27-1.27.85-2.36,1.67a165.18,165.18,0,0,0-12.08-14.35c-10-10.31-9.72-13-11.49-15.91s-15-33.3-17.39-37.72-9.72-20-8.25-23.29,2.95-11.2,1.77-15.32S179,121.1,179,119.92s-4.13-2.94-4.13-4.12S171,112,171,112l-1.76,1.47s-2.36-3.24-4.72-3a6.21,6.21,0,0,0-3.83,2.36,3.18,3.18,0,0,0-2.36,2.06,26,26,0,0,0-.88,3.54s-2.66.88-3.25,2.36a14.5,14.5,0,0,0-.58,4.12,3.87,3.87,0,0,0-.3,2.36c.3,1.18,5.31,12.67,6.19,14.44s2.95,5.9,5.6,11.5,14.74,49.51,21.51,63.06,21.22,34.78,21.22,34.78l8.21,11.31c-1.66,7.74-2.61,14-2.61,14S227,282.31,230,288.21s5.89,42.43,4.71,53-3.53,24.17-3.53,26.53,0,14.14-2.36,20a76.09,76.09,0,0,0-3.54,11.79s.92,2.72,5.11,6.32c-.16,2.9-.38,6.24-.6,8.2-.44,4-.44,7.07-.44,7.07s-6.63,13.71-7.52,27.41,4,45.09,4,46.86,4.87,35.81,6.63,38.9.45,9.73.45,9.73.44,8-.45,10.61-.88,8.84-.88,8.84-7.52,10.17-5.31,22.1-3.09,33.16-4,37.58-3.49,12.85-3,17.61a.35.35,0,0,1,0,.11L218.14,642s-4.51,5.4-4.85,11.11S215,666.45,215,666.45l-.35,5.71h2.08s-1.38,9.2.69,17.14,10.75,14.27,15.6,15.54,11.09-3.49,12.82-12.05-3.12-21.26-2.43-25.07c.56-3,2.88-17.39,3.79-23.05,2.48-5.85,4.59-13.61,6.35-21.54a5.55,5.55,0,0,1-1-.2C250.71,622.32,243.37,615.58,242.14,612.52Z" transform="translate(-153.26 -17.07)"/><path class="cls-2" d="M467.51,145.27l.59-5.6L464,136.43s1.31-3.62-2.06-5.31c-3-1.47-8.84.89-8.84.89l-2.66-2.95L441,133.19s-1.77,28.29-2.94,32.41-2.33,14.33-18.48,33.06a7.28,7.28,0,0,1,1.22,1.67c2.09,4,3.85.89,5.17.67.29-.05,1.41-.09,3-.12,1.26-6.38,11.69-8.18,12.42-8.91s4.16.08,6.26,1.15c-6.27,14.07-16.49,35.1-20.71,42.75q-.2-.78-.3-1.41c-.29-1.79-.67-4.06-1.05-6.29-3.71-1.61-9.16-6.22-11.5-8-1.66-1.28-5.1-2.18-8.68-3.1-4.9,7.71-5.93,11.68-7.43,12.8-1.19.9-6.66,3.48-13.92,6.64a1.89,1.89,0,0,1,.1.56c0,1.29-1.2,3-3.59,1l-2.94,1.25c3.13,7.19,6.07,15.28,7.14,22a38.37,38.37,0,0,1,.43,6.89c12.32-8.51,28.55-20.12,32.24-21.76,5.3-2.36,4.12-1.77,8.25-8.26s25.93-51.87,27.11-57.76,8-11.49,8-11.49l2.06-6.19,4.13-6.49s1.77-4.71,2.36-6.48S467.51,145.27,467.51,145.27Z" transform="translate(-153.26 -17.07)"/><path class="cls-2" d="M330.89,624.15s-1.84,12.85-3.06,19.59-8,63.64-9.18,70.38a64.31,64.31,0,0,1-3,9.91,14.3,14.3,0,0,0,7.12,6.54c5.6,2.07,23.87,1.48,23.87,1.48s4.13-3.25,2.36-8-5-8-10.31-12.67-8.55-15.62-9.14-19.46c-.24-1.56-.63-3.66-1-5.6h.12s5.3-2.07,4.86-5.16,2.5-23.43,3.09-29.92c.12-1.28,1.7-9.58,3.73-20.34-1.78-7.51-4-14.14-4-14.14Z" transform="translate(-153.26 -17.07)"/><path class="cls-2" d="M275.19,460.74c-.61,6.74-2.44,26.93-4.89,42.84-1.32,8.6-1.39,24.49-1.18,37.31,3.88-17.76,8.52-38.53,8.52-38.53s1.23-11,1.84-14.08,7.95-31.21,7.95-34.27c0-2.75-1.48-16.86-3.56-22.35C279.7,444.18,275.5,457.41,275.19,460.74Z" transform="translate(-153.26 -17.07)"/><path class="cls-3" d="M325.16,243.56a40.21,40.21,0,0,1-4.76,11.52,45.54,45.54,0,0,0,5.64-.47l5.9-1.18a31,31,0,0,0,8.84-3.54c1.45-1,3.42,0,5.58,2.4,3.76-1.75,8.35-3.76,13.87-5.93,5.77-2.27,11.83-4.76,17.37-7.1-.73-1.69-1.48-3.33-2.21-4.89a20.21,20.21,0,0,1,4.61,3.14c.19.19.37.35.54.5,1.2-.52,2.37-1,3.49-1.52-.4-1.21-2-2.56-3.57-4.94-1.84-2.76-8.26-8.27-12.24-10.71-1.84-2.45-20.81-12.86-26.93-11s-8.57,1.83-8.57,1.83a21.78,21.78,0,0,0-2.54-.13,74.48,74.48,0,0,1-4.35,18.4A46.68,46.68,0,0,1,325.16,243.56Z" transform="translate(-153.26 -17.07)"/><path class="cls-4" d="M419.63,623.59a9.25,9.25,0,0,0,0,1.82c2.73-1.81,2.49-4.52,2.49-6.15s-2.64-2.51-4.27-2.86C419,619.07,419.87,621.64,419.63,623.59Z" transform="translate(-153.26 -17.07)"/><path class="cls-4" d="M404.89,628.31s-2.94,4.71-3.53,7.07,2.35,7.66,4.12,10.61c1.21,2,4.64,2.38,7.62,3.16,0-4.22,0-8.75.06-13.41-1.42-2-3-3.9-3-3.9Z" transform="translate(-153.26 -17.07)"/><path class="cls-4" d="M433.19,503.35c-1.77,9.43-15.33,52.46-21.22,71.32s0,26.52,1.17,31.24a45.75,45.75,0,0,0,3.25,7.47,57,57,0,0,0-1.05-6.37c-1.22-5.5,1.23-28.15,1.84-33.66s18.36-49,20.2-71a238.31,238.31,0,0,0,.54-24.39c-.44,1.18-.84,2.2-1.2,3C433.77,487.43,435,493.92,433.19,503.35Z" transform="translate(-153.26 -17.07)"/><path class="cls-3" d="M312.49,718.78,311,727.63l-7.07.29s-6.19-19.45-5.89-25.64c.23-4.93,4.19-16.56,5.95-21.7-2.37-10.1-1-67.7-1.39-78.06-.44-11,2.66-30.06,2.66-36.25s-8.4-48.63-8.4-48.63L283.1,476.35c-4.64,25-9.57,54.21-9.57,59.79,0,8.84-3.1,30.06-5.31,37.14s-6.19,8.84-8,14.14c-1,2.92-3.12,19.66-6.69,35.71a22.67,22.67,0,0,0,3.15.15c-.73,9.57-1,18.26-.5,24.13,1.84,20.19,4.9,45.9,3.06,49.57s-.61,12.24-.61,12.24a62.19,62.19,0,0,0-2.45,19.59,75.4,75.4,0,0,0,3.67,18.36s-2.44,1.83-2.44,11.62-5.51,36.11-4.29,41.62,8.57,27.54,8.57,33.66-1.84,15.91-1.84,25.09,2.45,16.53,3.68,18.36a10.34,10.34,0,0,0,2.18,1.76,23.14,23.14,0,0,1-3.41,6.2c-3.67,4.28-10.4,11.63-13.46,13.46s-2.45,8-3.68,9.8,2.45,6.12,2.45,6.12a33.94,33.94,0,0,0,22,4.28c12.85-1.83,20.19-6.73,23.86-10.4a71.87,71.87,0,0,1,9.18-7.35s1.23-7.95,1.84-18.36a40.39,40.39,0,0,0-1.14-10.65c6-11,5.11-18.1,6.65-24.23,1.83-7.35,3.06-9.79,1.83-17.14s-1.83-24.48-.61-33.66-.61-27.54-.61-32.44a67.85,67.85,0,0,0-1.22-11s5.5-6.12,5.5-9.79-2.44-12.24-2.44-12.24,1.57-3.54,3.15-7.84a15.64,15.64,0,0,1-.84-1.71Z" transform="translate(-153.26 -17.07)"/><path class="cls-3" d="M393.1,653.65c-2.94-1.18-11.78-15.91-13.55-19.45s1.18-23.58,1.18-25.93.59-8.85.59-11.2,2.94-12.38,3.53-16.51,7.66-56.58,9.43-70.14,10.61-43.62,10.61-43.62l-.2-9.47L399,455.6s-4.13-7.66-3.54-10.61,5.9-27.11,8.84-38.31,17.1-39.49,17.1-39.49,1.18-2.95,5.3-7.66c1-1.19,4.14-2.53,8.18-3.86a37.56,37.56,0,0,0-4.24-7.54c-4.28-4.89-12.24-7.34-12.24-7.34l-11.62-2.45-11-7.95-14.69-16.53-4.89-2.45-3.33-1.49c1.08-2.45,2.07-4.86,2.93-7,.66,1,1.34,2.11,1.93,3,1.83,2.75,2.29-4.59.91-10.41,0,0,6.24-13.82,6.55-27.38-5.4,3.73-10.05,6.86-12.56,8.3-3.14,1.79-7.73,4-12.21,6.07a7.59,7.59,0,0,1,.42,2.77s-17.09,15.91-23,38.31-5.3,47.16-5.3,51.28,2.94,13.56,6.48,17.68-.59,4.72-1.18,7.08a10.89,10.89,0,0,1-2.46,3.88c2.08,17.65,5.83,50.78,6.15,62.87.44,16.8.88,85.76,1.76,89.74s1.77,12.82.89,15a28.73,28.73,0,0,0-1.33,5.75s0,3.09.44,7.07-.81,35.94-2.21,43.32c-.23,1.26-.46,2.48-.69,3.68a78.56,78.56,0,0,1,2.13,12.79c.62,10.4,4.9,39.78,5.51,48.34,0,0,3.06,17.14,4.9,35.5s6.73,35.5,7.34,39.17,3.06,22.64,3.06,22.64,1.84,28.16,1.23,36.11,0,33.66.61,38a9.4,9.4,0,0,0,.72,2.32,43.75,43.75,0,0,0-1.54,12.37c.61,10.4,1.83,18.36,1.83,18.36a71.6,71.6,0,0,1,9.18,7.34c3.68,3.67,11,8.57,23.87,10.4a33.92,33.92,0,0,0,22-4.28s3.68-4.28,2.45-6.12-.61-8-3.67-9.79-9.79-9.18-13.46-13.47A24.12,24.12,0,0,1,403,874a84.11,84.11,0,0,0,6.24-6.85c5.51-6.73,1.84-14.08,3.68-16.52s6.12.61,7.34-8.57-7.34-95.48-7.34-97.31,3.67-67.32,1.22-71c-.61-.91-.88-6.59-1-14.75h-.59C409,659,396.05,654.83,393.1,653.65Z" transform="translate(-153.26 -17.07)"/><path class="cls-4" d="M323.69,216.88a38.37,38.37,0,0,1,.89,4.13,27,27,0,0,0,2.62-9.29,21.28,21.28,0,0,0-4.07.9A17.2,17.2,0,0,0,323.69,216.88Z" transform="translate(-153.26 -17.07)"/><path class="cls-5" d="M343.28,584c-.44-4-.44-7.07-.44-7.07a28.73,28.73,0,0,1,1.33-5.75c.88-2.21,0-11-.89-15s-1.32-72.94-1.76-89.74c-.32-12.09-4.07-45.22-6.15-62.87a10.89,10.89,0,0,0,2.46-3.88c.59-2.36,4.72-2.95,1.18-7.08s-6.48-13.55-6.48-17.68-.59-28.88,5.3-51.28,23-38.31,23-38.31a7.59,7.59,0,0,0-.42-2.77c4.48-2.06,9.07-4.28,12.21-6.07,2.51-1.44,7.16-4.57,12.56-8.3a38.37,38.37,0,0,0-.43-6.89c-1.07-6.69-4-14.78-7.14-22-5.54,2.34-11.6,4.83-17.37,7.1-5.52,2.17-10.11,4.18-13.87,5.93-2.16-2.36-4.13-3.37-5.58-2.4a31,31,0,0,1-8.84,3.54l-5.9,1.18a45.54,45.54,0,0,1-5.64.47,40.21,40.21,0,0,0,4.76-11.52,46.68,46.68,0,0,0,.67-13.64,74.48,74.48,0,0,0,4.35-18.4,26.53,26.53,0,0,0-3,.2,27,27,0,0,1-2.62,9.29,38.37,38.37,0,0,0-.89-4.13,17.2,17.2,0,0,1-.56-4.26,16.38,16.38,0,0,0-5.1,2.71c-6.12,4.89-20.8,19.58-22,26.31a17.22,17.22,0,0,0-.21,2.78,28,28,0,0,0-1.17,2.73c-3.21,9.18-4.59,14.23-4.59,14.23s-.91,5.05,2.3,1.38c1.73-2,3.31-5.4,4.42-8.15l.15,1c-1.6,6.15-4,15.89-3.65,18.65.46,4.13,3.67,5.51,4.13,1.38a23.2,23.2,0,0,1,2.13-6.62c.07.33.12.6.16.81a8,8,0,0,0,.81,1.86l-.35,3.49s0,10.1-.92,13.77a41.33,41.33,0,0,1-2.75,7.35s2.3,4.13,5.51-1.38c2.11-3.61,3.22-11.35,3.74-16.26l1,1.06c.72,6.55,1.85,17,2.16,19.79.46,4.13.92,8.72,5.51,7.34,2.95-.88-1.37-10.55-.46-15.14a18.64,18.64,0,0,1,1.35-4c1.62,1.86,3.32,4,4.78,6a19,19,0,0,1-.16,6.23c-1.38,5.05-3.77,8-.46,9.64,2.1,1.05,4.19-1.12,5.89-6.67a11,11,0,0,1,1.3,4.22v7.36c-1.24.05-4.09.26-5.51,1.21-1.83,1.22-9.18,9.79-9.18,9.79a32.34,32.34,0,0,0-8.56,1.22,23.68,23.68,0,0,0-6.12,3.06S288.05,331,284.37,331s-8.56,3.06-8.56,3.06-24.48,31.82-25.1,34.27,0,4.9,3.06,10.4c.47.85,1.47,2.62,2.75,4.91a174.6,174.6,0,0,0-3.36,26.92c-.61,20.2-1.83,36.72-5.51,43.45s-8.57,19-7.34,53.25,6.12,53.24,5.51,59.36-5.51,20.2-6.12,22.65,1.22,20.19,2.44,23.25,8.57,9.8,10.41,10.41a5.55,5.55,0,0,0,1,.2c3.57-16,5.72-32.79,6.69-35.71,1.77-5.3,5.75-7.07,8-14.14s5.31-28.3,5.31-37.14c0-5.58,4.93-34.79,9.57-59.79l13.77,41.29s8.4,42.44,8.4,48.63-3.1,25.2-2.66,36.25c.42,10.36-1,68,1.39,78.06-1.76,5.14-5.72,16.77-5.95,21.7-.3,6.19,5.89,25.64,5.89,25.64l7.07-.29,1.48-8.85,2.35,3.54a15.64,15.64,0,0,0,.84,1.71,64.31,64.31,0,0,0,3-9.91c1.22-6.74,8-63.65,9.18-70.38s3.06-19.59,3.06-19.59l5.5-7.34s2.21,6.63,4,14.14c.23-1.2.46-2.42.69-3.68C342.47,619.89,343.73,587.93,343.28,584Zm-63.8-95.67c-.61,3.06-1.84,14.08-1.84,14.08s-4.64,20.77-8.52,38.53c-.21-12.82-.14-28.71,1.18-37.31,2.45-15.91,4.28-36.1,4.89-42.84.31-3.33,4.51-16.56,8.68-29.08,2.08,5.49,3.56,19.6,3.56,22.35C287.43,457.07,280.09,485.22,279.48,488.28Z" transform="translate(-153.26 -17.07)"/><path class="cls-4" d="M384.13,237.05a1.89,1.89,0,0,0-.1-.56c-1.12.5-2.29,1-3.49,1.52C382.93,240,384.13,238.34,384.13,237.05Z" transform="translate(-153.26 -17.07)"/><polygon class="cls-1" points="467.63 308.93 467.62 308.92 467.63 308.93 467.63 308.93"/><path class="cls-6" d="M622.12,325.93c3.24-1.33.9-3.12,0-4.24-.24-.28-.42-.56-.64-.84a15.7,15.7,0,0,0-1.41,3.88c.23.32.48.64.7,1,.06.1.09.19.14.28h0A2.51,2.51,0,0,0,622.12,325.93Z" transform="translate(-153.26 -17.07)"/><path class="cls-1" d="M615.22,322.94a4.25,4.25,0,0,1,.1-1.4l-.62-.5c-.05.41-.11.83-.17,1.24C614.76,322.5,615,322.73,615.22,322.94Z" transform="translate(-153.26 -17.07)"/><path class="cls-6" d="M616.66,319.23c1.15-1.3,1.38-1.37,1.44-3.26a10.78,10.78,0,0,1,0-1.5,5.81,5.81,0,0,1,.54-1.6,10.19,10.19,0,0,1,1.42-5.38,20,20,0,0,1,4.8-5.13s0,0,0,0c0-.24-.34-.49-.68-.76-5.13,3.2-9.83,6.89-9.84,13.59,0,1.48.37,2.9.4,4.36a12.79,12.79,0,0,1-.08,1.52l.62.5A5.43,5.43,0,0,1,616.66,319.23Z" transform="translate(-153.26 -17.07)"/><path class="cls-6" d="M703.4,293c-.16-.1-.34-.14-.5-.23.05.43.08.73.08.73l-.43.12a20.08,20.08,0,0,1,1.12,2.28c.46.3.93.58,1.42.84a7.91,7.91,0,0,1-1.2-3.42C703.72,293.21,703.54,293.09,703.4,293Z" transform="translate(-153.26 -17.07)"/><path class="cls-1" d="M614,327.25a34.38,34.38,0,0,0,.37,7,47.39,47.39,0,0,1,.15-6.63Z" transform="translate(-153.26 -17.07)"/><path class="cls-7" d="M623.54,296.8s0,0,0,0v0Z" transform="translate(-153.26 -17.07)"/><path class="cls-6" d="M710.14,310.27a7.19,7.19,0,0,1,3.3,3.5,31,31,0,0,0-.44-4.64c-.46-.77-.93-1.53-1.38-2.3-.23-.23-.45-.47-.68-.69-.87-.53-1.75-1.05-2.65-1.54.17.77.34,1.54.55,2.3A22,22,0,0,0,710.14,310.27Z" transform="translate(-153.26 -17.07)"/><path class="cls-6" d="M712.07,341.49a1.78,1.78,0,0,1-2.48.2c-.34,1.7-.73,3.29-1,3.16,1.31.68,4.39-3.1,4.8-3.85a7.22,7.22,0,0,0,.55-1.38C713.3,340.25,712.65,340.87,712.07,341.49Z" transform="translate(-153.26 -17.07)"/><path class="cls-6" d="M717.36,343.52a9,9,0,0,1-2.38,2.61c.84.17,2.36.51,4.38,1a11.64,11.64,0,0,0,.44-1.11,17.48,17.48,0,0,0,.15-8.93A21.16,21.16,0,0,1,717.36,343.52Z" transform="translate(-153.26 -17.07)"/><path class="cls-6" d="M711,332.21l-.75,5.42c1.07-1.05,2.17-2.06,3.29-3.05a6.21,6.21,0,0,1-1.46-1A8.37,8.37,0,0,1,711,332.21Z" transform="translate(-153.26 -17.07)"/><path class="cls-6" d="M718.21,321.63c0-1.29.09-2.58.08-3.86a28.87,28.87,0,0,1-1.11,2.7c.35.38.66.78,1,1.15Z" transform="translate(-153.26 -17.07)"/><path class="cls-6" d="M715.93,331.38c.68-1.68,1.44-3.54,1.15-4.77a5,5,0,0,0-1.19-1.85,14.59,14.59,0,0,1-2.1,3.79,4.26,4.26,0,0,0,1.78,2.6Z" transform="translate(-153.26 -17.07)"/><path class="cls-4" d="M593.68,540.54c0,5.89.26,14.71.26,23.52,0,13.56,12.38,40.67,12.38,40.67s3.61,11,8.1,24.87a46.88,46.88,0,0,0,1.49-11.9C615.91,609.35,601.19,566,593.68,540.54Z" transform="translate(-153.26 -17.07)"/><path class="cls-4" d="M753.32,474.39c1.62,5.73,3.18,11.5,3.89,14.81,1,4.68,11.11,16.57,21,28.45L758.24,454S756.11,462.91,753.32,474.39Z" transform="translate(-153.26 -17.07)"/><path class="cls-4" d="M624.16,652.47l-1.81,1.82c1.65,5.19,3.21,10.16,4.58,14.56.05-.15.13-.31.18-.46C628.29,664.85,624.16,652.47,624.16,652.47Z" transform="translate(-153.26 -17.07)"/><path class="cls-3" d="M733.93,547.7c-.44,4.42-2.65,80.9-4.86,86.21s-5.75,23.43-5.31,27,.89,8,.89,8-.9.95-2.41,2.36c.11,1.07.2,2.08.2,2.94a82.08,82.08,0,0,1-.89,10.61s-8.4,4-13.7,6.64-10.61,8.84-15,11.93-12.38,6.19-19.45,1.77-6.19-17.24-4.43-20.34,9.73-6.18,12.38-8a29.44,29.44,0,0,0,3.54-3.33c-3.39-4-5.51-8.05-5.31-9.49.45-3.1,4.43-12.82,4.43-15.48s-2.22-8,0-11a22.45,22.45,0,0,0,3.09-6.19s-3.54-23.87-3.54-27.85,4-51.28,4.42-54.81-5.3-7.52-3.53-13.27c1.48-4.8,8.21-82.28,11.15-109.56l-.54.37a144.39,144.39,0,0,1-11-9.72c-4.87-4.87-7.08-8-7.52-9.29s.88-4.86,1.33-6.19,5.74-28.29,6.63-33.59a224.25,224.25,0,0,0,2.21-30.51c0-2-.08-4.56-.21-7.3-10.13,3.89-21,7.3-21,7.3s-25.64-1.77-27-3.09-15.91-6.63-17.24-7.52l-.31-.22h0c-.85-.64-3-2.38-5.56-4.45a4.25,4.25,0,0,0-.1,1.4c-.24-.21-.46-.44-.69-.66.06-.41.12-.83.17-1.24-2.36-1.91-5-4-7.17-5.84l.44,4.9a17.16,17.16,0,0,0,2.31,3.62c0,.24-.06.47-.08.71a37.92,37.92,0,0,0,.68,12.75,17.93,17.93,0,0,0,4.26,7.58,16.37,16.37,0,0,0,1,3.88c0,.09.12.17.17.26l-2.34.61c-2.69.67-6.73,1.15-10.36,2.32l-2,1.21-.32-.32a11,11,0,0,0-4.39,3.27c-2.58,3.44-6.72,4.38-9,6.69a45.76,45.76,0,0,0,5,.38,54.43,54.43,0,0,1,9.43,8.25c4.13,4.72,21.22,64.25,23,69s2.95,6.48,1.18,8.84c-1.06,1.42-4.08,3.29-8.59,6.46-.91,9.31-2,23.11-.84,26.55,1.77,5.3,15.32,37.72,15.91,71.91a343.12,343.12,0,0,0,7.67,65.42c1.17,6.49,4.71,10.61,7.07,17.1s1.18,27.11.59,28.88-11.79,14.74-13.56,16.5a8.79,8.79,0,0,1-3.43,1.88,9.68,9.68,0,0,1,.32,1.66c0,3.54-.59,11.79-.59,11.79s0,25.35,1.77,27.11,12.38,8.26,15.92,8.26c.45,0,1.83-.19,3.86-.52,7.22,28.55,24.13,95.7,25,101.67,1.07,7.61-1.74,27.31-4,32.79s-3,9.08-9,13.64-7.89,22.43-7.89,22.43,3,5.11,10.91,5.13,18,1.08,26.1-3.63c4.89-2.85,8.64-8.23,11.72-14.31a26.9,26.9,0,0,0,9.22-4.42c7.44-5.69,10.91-17.81,13.58-28.56s5.43-13.11,5.43-13.11-1.63-13.5-14.27-28.4c-9.44-11.14-5.89-24.07-5.62-36.15C714,768.9,718.9,748,710.06,722c3-.57.59-.59.59-.59l11.79-4.72s8.25,1.18,10.61-.59-2.36-25.93-2.36-32.42,7.07-31.83,7.07-31.83,20.63-78.39,21.22-111.4c.46-25.65-6.55-39.19-10.26-47.28-3.27,13.26-6.44,25.73-7.72,29.75C737.91,532.67,734.37,543.28,733.93,547.7Z" transform="translate(-153.26 -17.07)"/><path class="cls-4" d="M586.55,487.46c-2,5.72-4.43,12.19-5.42,16.48-1.29,5.6,1.2,15.94,2.4,24.32,2.22-7.37,3.7-13.32,3.5-16.07-.22-3.05.76-9.59,2.13-16.83a26.14,26.14,0,0,0-2.13-6.75C586.87,488.29,586.71,487.83,586.55,487.46Z" transform="translate(-153.26 -17.07)"/><path class="cls-3" d="M657,292.63s4.86-6.64,7.07-10.61,4-4.87,4-4.87a122.46,122.46,0,0,1,8.4-11.49,200.06,200.06,0,0,1,15.09-14.23c-4.94-2.47-12.44-4.22-22.75-3.31-20,1.77-27.12,3.54-29.47,8.85S637,269.34,637,269.34,635.79,277,635.2,280c-.09.48-.25,1.16-.41,1.9a49.2,49.2,0,0,0-7.18,4.69,20.07,20.07,0,0,0-4.27,3.87l5.38,2.22Z" transform="translate(-153.26 -17.07)"/><path class="cls-5" d="M802,565.24c-.59,4.71,1.18,12.38,5.3,17.68s2.36,12.38,2.36,12.38,5.31,1.18,6.48-2.36.59-12.38.59-12.38,5.9,3.54,7.67,10a15.52,15.52,0,0,1-1.77,11.79s0,5.9,1.77,5.9,6.48-4.72,7.07-7.08,2.95-16.5,4.13-21.22,0-7.66-1.77-11.79-6.49-16.5-10-20.63-8.25-20-15.92-41.26-25.34-50.69-25.34-50.69l-7.15-16.77c3.81-3.05,6.28-5.95,7.15-8,1.77-4.13-25.35-56.59-30.06-66S737.17,353,728.92,350.1c-2.06-.74-4-1.36-5.76-1.89a22.78,22.78,0,0,0,1.54-7.53c0-3.51-1.43-6.84-1.88-10.33a10.57,10.57,0,0,0,1.23-10.28,27.78,27.78,0,0,0-2-4,16.35,16.35,0,0,0-2.29-7.22,11.34,11.34,0,0,0-2.7-3.3l1.26,0c2.58-.05,2.59-4.06,0-4a17.35,17.35,0,0,1-3.14.07,2.31,2.31,0,0,1-.63-.27c-1.07-2.15-2.33-4.14-3.61-6.19-1.1-1.75-1.79-3.58-3.66-4.65a2,2,0,0,0-.86-.16,13.83,13.83,0,0,0-4-2c-1-8.92-3.09-26.52-3.52-29.58-.29-2-2.66-5-7.31-7.3a200.06,200.06,0,0,0-15.09,14.23,122.46,122.46,0,0,0-8.4,11.49s-1.77.89-4,4.87S657,292.63,657,292.63H628.72l-5.38-2.22a5.8,5.8,0,0,0-1,2.11c-.16.13-.34.2-.5.34-6.69,5.72-13.51,12.58-14.91,21.67a9.87,9.87,0,0,0,1,5.57l-.44-4.9c2.19,1.8,4.81,3.93,7.17,5.84a12.79,12.79,0,0,0,.08-1.52c0-1.46-.4-2.88-.4-4.36,0-6.7,4.71-10.39,9.84-13.59.34.27.63.52.68.76,0,0,0,0,0,0a20,20,0,0,0-4.8,5.13,10.19,10.19,0,0,0-1.42,5.38,5.81,5.81,0,0,0-.54,1.6,10.78,10.78,0,0,0,0,1.5c-.06,1.89-.29,2-1.44,3.26a5.43,5.43,0,0,0-1.34,2.31c2.55,2.07,4.71,3.81,5.56,4.45,0-.09-.08-.18-.14-.28-.22-.34-.47-.66-.7-1a15.7,15.7,0,0,1,1.41-3.88c.22.28.4.56.64.84.93,1.12,3.27,2.91,0,4.24a2.51,2.51,0,0,1-1.23.07l.31.22c1.33.89,15.92,6.19,17.24,7.52s27,3.09,27,3.09,10.88-3.41,21-7.3c.13,2.74.21,5.27.21,7.3a224.25,224.25,0,0,1-2.21,30.51c-.89,5.3-6.19,32.27-6.63,33.59s-1.77,4.87-1.33,6.19,2.65,4.42,7.52,9.29a144.39,144.39,0,0,0,11,9.72l.54-.37c-2.94,27.28-9.67,104.76-11.15,109.56-1.77,5.75,4,9.73,3.53,13.27s-4.42,50.83-4.42,54.81,3.54,27.85,3.54,27.85a22.45,22.45,0,0,1-3.09,6.19c-2.22,3.1,0,8.4,0,11s-4,12.38-4.43,15.48c-.2,1.44,1.92,5.49,5.31,9.49a29.44,29.44,0,0,1-3.54,3.33c-2.65,1.77-10.61,4.86-12.38,8s-2.65,15.92,4.43,20.34,15,1.33,19.45-1.77,9.72-9.28,15-11.93,13.7-6.64,13.7-6.64a82.08,82.08,0,0,0,.89-10.61c0-.86-.09-1.87-.2-2.94,1.51-1.41,2.41-2.36,2.41-2.36s-.45-4.42-.89-8,3.1-21.66,5.31-27,4.42-81.79,4.86-86.21,4-15,7.07-24.75c1.28-4,4.45-16.49,7.72-29.75a25.15,25.15,0,0,1-2.12-5.77c-1.18-7.07-6.48-22.4-3.53-26.52s1.76-9.43,1.76-9.43a1.53,1.53,0,0,0,.59.2l3,5.69s2.54,8.46,5,17c2.79-11.48,4.92-20.41,4.92-20.41l19.93,63.67c7.51,9.07,14.88,18.14,17.94,24C803.19,555.22,802.6,560.52,802,565.24ZM623.54,296.8h0v0S623.54,296.82,623.54,296.8Zm80.13-.89a20.08,20.08,0,0,0-1.12-2.28l.43-.12s0-.3-.08-.73c.16.09.34.13.5.23s.32.2.49.32a7.91,7.91,0,0,0,1.2,3.42C704.6,296.49,704.13,296.21,703.67,295.91Zm14.62,21.86c0,1.28,0,2.57-.08,3.86h0c-.36-.37-.67-.77-1-1.15A28.87,28.87,0,0,0,718.29,317.77Zm-7.35-11.63c.23.22.45.46.68.69.45.77.92,1.53,1.38,2.3a31,31,0,0,1,.44,4.64,7.19,7.19,0,0,0-3.3-3.5,22,22,0,0,1-1.3-3.37c-.21-.76-.38-1.53-.55-2.3C709.19,305.09,710.07,305.61,710.94,306.14Zm2.64,28.44c-1.12,1-2.22,2-3.29,3.05l.75-5.42a8.37,8.37,0,0,0,1.08,1.37A6.21,6.21,0,0,0,713.58,334.58Zm-.17,6.42c-.41.75-3.49,4.53-4.8,3.85.25.13.64-1.46,1-3.16a1.78,1.78,0,0,0,2.48-.2c.58-.62,1.23-1.24,1.89-1.87A7.22,7.22,0,0,1,713.41,341Zm.38-12.45a14.59,14.59,0,0,0,2.1-3.79,5,5,0,0,1,1.19,1.85c.29,1.23-.47,3.09-1.15,4.77l-.36-.23A4.26,4.26,0,0,1,713.79,328.55Zm6,17.5a11.64,11.64,0,0,1-.44,1.11c-2-.52-3.54-.86-4.38-1a9,9,0,0,0,2.38-2.61,21.16,21.16,0,0,0,2.59-6.4A17.48,17.48,0,0,1,719.8,346.05Z" transform="translate(-153.26 -17.07)"/><path class="cls-4" d="M603.62,351.83a24.1,24.1,0,0,0-2.34.89l.32.32Z" transform="translate(-153.26 -17.07)"/><path class="cls-8" d="M413.15,659a26.46,26.46,0,0,1,5.3.58s1.18-6.49-1.77-8.85a9.77,9.77,0,0,0-3.58-1.55C413.1,652.68,413.11,656,413.15,659Z" transform="translate(-153.26 -17.07)"/><path class="cls-8" d="M417.81,616.4c-.45-1-.93-2-1.42-3,.18,1.78.18,2.82.18,2.82S417.09,616.25,417.81,616.4Z" transform="translate(-153.26 -17.07)"/><path class="cls-9" d="M413.16,635.74c1.21,1.72,2.34,3.54,2.34,4.35,0,1.77,3.54,4.72,3.54,4.72s4.71.59,4.13-5.89c-.52-5.65-3.26-9.5-3.58-13.51a13.26,13.26,0,0,1-6.37,1.76C413.2,630.05,413.17,632.92,413.16,635.74Z" transform="translate(-153.26 -17.07)"/><path class="cls-9" d="M647.76,636.44c-2.36-6.48-5.9-10.61-7.07-17.09A343.41,343.41,0,0,1,633,553.92c-.59-34.19-14.14-66.61-15.91-71.91-1.15-3.44-.07-17.24.84-26.55,4.51-3.17,7.53-5,8.59-6.46,1.77-2.36.59-4.12-1.18-8.84s-18.86-64.25-23-69a54.23,54.23,0,0,0-9.43-8.26,45.52,45.52,0,0,1-5-.38,58.32,58.32,0,0,1-17.37-4.92c-10.91-5.17-19.56-10.34-24.9-15l2.51-.95s2.35-4.72,2.35-6.49,1.18-20,1.18-22.4,3-17.09,4.72-21.22c1.36-3.18-1.14-6-3.43-7.4a49.58,49.58,0,0,0-1.29-18.53c-2.95-10-15.32-21.81-20.63-24.17s-15.32-2.94-15.32-2.94-11.2-1.18-17.1,1.17-18.27,20.63-19.45,26.53-3.53,14.73-2.95,21.22c0,.25.15.56.21.83-1.17,7-2.56,15.88-2.56,18.62,0,4.71-2.36,8.84-2.36,11.2s-2.95,8.84-2.36,15.32a91.5,91.5,0,0,1-.12,12.35c-.94,1.07-1.65,1.8-1.65,1.8s-20.46,4-32.49,7.93c-4,1.33-7.14,2.67-8.18,3.86-4.12,4.71-5.3,7.66-5.3,7.66s-14.15,28.29-17.1,39.49-8.25,35.37-8.84,38.32S399,455.49,399,455.49s2.34.7,5.69,1.73l.2,9.46s-8.84,30.07-10.61,43.62-8.84,66-9.43,70.14-3.53,14.15-3.53,16.51-.59,8.84-.59,11.2-2.95,22.4-1.18,25.93,10.61,18.27,13.56,19.45,15.91,5.31,19.45,5.31h.59c0-3-.05-6.28-.05-9.82-3-.78-6.41-1.14-7.62-3.16-1.77-3-4.71-8.25-4.12-10.61s3.53-7.07,3.53-7.07l5.31,3.53s1.54,1.89,3,3.9c0-2.82,0-5.69.06-8.57a13.34,13.34,0,0,0,6.38-1.76,8.54,8.54,0,0,1,0-1.82c.24-2-.63-4.52-1.82-7.18-.72-.15-1.24-.21-1.24-.21s0-1-.18-2.82a44.74,44.74,0,0,1-3.24-7.47c-1.18-4.72-7.08-12.38-1.18-31.24s19.45-61.89,21.22-71.32.59-15.92,3.53-22.4c.36-.78.76-1.8,1.2-3,1.2-3.25,2.65-7.76,4-12.15,2.17-.07,3.64-.19,3.64-.19l.73-.05c-.78,10.53-1.83,23.48-2.49,27.16-1.18,6.48-1.77,32.42-1.77,39.49s-1.18,20-2.36,24.17-4.72,40.08-4.72,43,4.13,8.84,2.36,13.55-1.18,8.84-1.18,10.61.59,7.08.59,7.08l3.95.41c-2,23.58-4.71,58.3-3.95,64.42,1.18,9.43,0,14.74-.59,22.4s-2.35,11.79-1.76,15.92,3.53,10.61,3.53,10.61,1.77,10,.59,12.37-5.89,6.49-4.12,9.43,5.89,21.81,7.07,31.24,0,14.74.59,23.58,10,37.14,9.43,41.26,3.54,8.25,1.18,12.38-1.77,20-.59,24.17c.93,3.27,2.83,2.39,8.25,7.07v5.89s-2.36,4.72-3.54,19.46-3.53,21.21-1.76,31.24,15.91,17.09,17.68,18.27,13,1.77,14.14-.59,6.49-.59,9.44-21.81-3.54-30.06-2.95-36c.34-3.45,1.09-11.34,1.65-17.3a10.68,10.68,0,0,0,1.88-1c1.51-1,3.16-11.59,4.82-27.61.28,7.45.37,14.42-.1,17-1.18,6.49,0,20.63,3.54,25.35.63.84,1.45,2.1,2.42,3.61l-1.24,6.41s-2.95,11.2-2.95,17.68v10.61l4.12,2.36s1.18,8.25.59,13.55,2.36,10,8.26,13.56c8.69,5.22,10.25,8.66,22.39,8.25,17.69-.59,23-6.48,23-13.55s-10-14.15-10.61-23c-.27-4.12-.8-9.64-1.29-14.37,2.21-.53,3.65-1,3.65-1s2.36-6.48,1.77-12.37S557,912.29,557,907s8.25-58.35,9.43-71.91,2.94-43.62,2.94-43.62A68.72,68.72,0,0,0,567,782c-1.18-2.95,1.77-28.88,3.53-36s5.31-21.8,6.49-30.65,4.12-52.46,6.48-60.71c1.31-4.59.25-16.5-1-26.15,6.75-4.93,11.56-9.21,11.56-9.21s-10.61-74.86-10-83.11a40.44,40.44,0,0,0-.55-8.1c-1.2-8.38-3.69-18.71-2.4-24.32,1-4.29,3.44-10.75,5.42-16.47.16.36.32.82.48,1.14a26.14,26.14,0,0,1,2.13,6.75h0c1.67,9,.23,20,.23,27.44,0,2.4,1.72,9,4.29,17.74,7.51,25.46,22.23,68.81,22.23,77.16a46.81,46.81,0,0,1-1.49,11.9c-1,3.8-2.05,6.45-2.05,8.73,0,4.12-.59,16.5-1.18,21.22s2.36,14.14,2.36,14.14,4.72-3.53,5.31-5.3,0-10.61,0-10.61l3.49-3.49,1.81-1.82s4.13,12.38,3,15.92c0,.15-.13.31-.18.46a20.65,20.65,0,0,1-6.3,8.38c-2.36,1.77-1.77,4.72-1.77,7.07s10.61,0,10.61,0a13.73,13.73,0,0,0,1.87-.47,9,9,0,0,0,3.43-1.88c1.77-1.77,13-14.74,13.56-16.51S650.12,642.92,647.76,636.44ZM485.33,327.34a16.16,16.16,0,0,1-5.38,2c.05-4.05.33-8.6,1.25-11.38,1-2.93,3.22-10,5-15.74,1.51,2.73,2.65,5.19,2.65,6.9a118.17,118.17,0,0,0,1.77,14.46C488.55,325.07,486.55,326.52,485.33,327.34Zm56.92-.94a9.72,9.72,0,0,1-2.08,5.6c-.11-.1-.16-.19-.28-.3a9.43,9.43,0,0,0-1.84-1.16,26.47,26.47,0,0,1,2.43-8.86c.62-1.11,1.43-2.84,2.32-4.9C542.49,320.71,542.25,324.44,542.25,326.4Z" transform="translate(-153.26 -17.07)"/><path class="cls-1" d="M533.18,210.68c.44,1.1,9.91.66,11.23,0s.44-3.08,2.86-4,7.49-2.2,8.37-2,4,2.2,7.26.66,4.41-2.86,9.47-3.08a12.74,12.74,0,0,0,3.14-.56l-47.39,3.5A16.08,16.08,0,0,1,533.18,210.68Z" transform="translate(-153.26 -17.07)"/><path class="cls-1" d="M498.23,210c3.49-.6,12.57-2.23,14.69-3.29l.8-.39-13.73,1A18.69,18.69,0,0,0,498.23,210Z" transform="translate(-153.26 -17.07)"/><path class="cls-10" d="M617.94,205.13c4.74-.93,10.5-5.61,15.11-7.61l-35.8,2.64,1.61,17.91a80.26,80.26,0,0,0,8.39-3.81,3.23,3.23,0,0,0,2.08-1.24c.62-1,.41-2.91.2-5.19a4.26,4.26,0,0,0-.26-1.09,5.27,5.27,0,0,1,.31-.46C611.12,204.3,614.79,205.75,617.94,205.13Z" transform="translate(-153.26 -17.07)"/><path class="cls-10" d="M419.53,198.63c-2.18-2.16-5.32-2.09-8.77-3.36-4.19-1.54-8.59-4.18-17.4-12.11S364.3,166,363,165.33s-12.77-8.59-12.77-8.59,1.1-5.07-.88-8.81-5.95-7.49-6.17-9a15.9,15.9,0,0,0-1.54-4l-2.2,1.1s-9-7.27-9.91-8.37-2.86.44-2.86.44v2.21s-5.07-2.65-5.29-1.32,1.1,4.4,1.1,4.4a2.63,2.63,0,0,0-1.32,2.42c.22,1.54,6.39,7.93,7.27,8.59s2.86,5.06,2.86,5.06-7.49-6.38-8.59-6.6-1.54,1.1-1.54,2.2,5.51,5.72,7.05,7,3.3,4.85,4,6.61,6,6.61,7.49,8.15a11.06,11.06,0,0,0,4.62,2.2l2.2,5.94s5.73,1.54,7.49,3.75,39,34.12,44,36.11a70.63,70.63,0,0,0,7.35,2.17,140.45,140.45,0,0,1,13.25-17.34Z" transform="translate(-153.26 -17.07)"/><path class="cls-10" d="M575.51,201.76a12.74,12.74,0,0,1-3.14.56c-5.06.22-6.16,1.54-9.47,3.08s-6.38-.44-7.26-.66-5.95,1.1-8.37,2-1.54,3.3-2.86,4-10.79,1.1-11.23,0a16.08,16.08,0,0,0-5.06-5.42l-14.4,1.07-.8.39c-2.12,1.06-11.2,2.69-14.69,3.29a18.69,18.69,0,0,1,1.76-2.67l-.35,0-5-53.42c-5.79-2-9.88-2-11.18-1.39-1.76.89-18.06,11.23-18.72,16.3s3.52,17.17,4.19,21.36.44,4.84,1.54,5.72a5.17,5.17,0,0,1,2,2.86c0,.66,1.54,4.19-2.2,4.41s-7-3.09-7-3.09-3.08-3.3-5.06-4.18-7.71-.88-9.47-2.2a6.56,6.56,0,0,0-1-.61c-6.27,14.07-16.49,35.1-20.71,42.75,1.62,6.42,7.65,20.31,5.2,24.79-2.64,4.85.67,4.41-3.52,5.73S418.46,275,416.7,282s-9.25,24.22-2.64,28,13.87,3.74,14.31,6.6,3.08,8.59,4.41,7.93a22.77,22.77,0,0,1,5.17-1l-.33.63s3.82,18,2.78,29.72c11.88-3.34,27-6.26,27-6.26s.71-.73,1.65-1.8a91.51,91.51,0,0,0,.12-12.35c-.59-6.48,2.36-13,2.36-15.32s2.36-6.49,2.36-11.2c0-2.74,1.39-11.64,2.56-18.62-.06-.27-.18-.58-.21-.83-.59-6.49,1.77-15.33,2.95-21.22s13.56-24.17,19.45-26.53,17.1-1.18,17.1-1.18,10,.59,15.32,3a15.81,15.81,0,0,1,2,1.12,42.11,42.11,0,0,0-.23-4.43A111.28,111.28,0,0,0,549.91,234c7.35-2.65,25.07-9.83,33.42-13.5h1.73l-2-19.31Z" transform="translate(-153.26 -17.07)"/><path class="cls-10" d="M513.72,206.33l14.4-1.07a15.57,15.57,0,0,0-2-1.18C522.52,202.27,516.72,204.85,513.72,206.33Z" transform="translate(-153.26 -17.07)"/><path class="cls-11" d="M441.35,191.89c-.73.73-11.17,2.53-12.43,8.91-1.57,0-2.69.07-3,.12-1.32.22-3.08,3.3-5.17-.66a7,7,0,0,0-1.25-1.71l-.93,1.07A140.2,140.2,0,0,0,405.33,217c3.59.92,7.05,1.83,8.72,3.11,2.34,1.81,7.79,6.41,11.49,8,.39,2.24.77,4.5,1.06,6.29.06.42.17.89.3,1.41,4.22-7.65,14.43-28.68,20.71-42.74C445.5,192,442.09,191.15,441.35,191.89Z" transform="translate(-153.26 -17.07)"/><path class="cls-11" d="M499.9,207.28a5,5,0,0,1,.38-.4c1.76-1.54,2.86.45,3.74-3.08s1.54-7.48,1.54-7.48a8.33,8.33,0,0,0,2.87-4,17.56,17.56,0,0,0,.88-6.38L508,184s1.33-8.15,1.55-11.45.88-11.23-8.37-15.86a52.89,52.89,0,0,0-6.65-2.79l5,53.42Z" transform="translate(-153.26 -17.07)"/><path class="cls-11" d="M633.15,197.5l.09,0c4.63-2,5.87-3.76,5.63-5.41-.13-.87-3.89.78-6.09,1.45s-1.35-.84-1.35-.84l1-1s6.86-4.68,7-6.24-1.77-1.44-2.91-.61-4.15,2.28-4.56,2.7a12.38,12.38,0,0,1-2.49,1.14s7.75-7.23,8.63-8.78-1.18-2.05-2.51-1.18c-1,.66-6,4.28-7.89,5.6a71.1,71.1,0,0,1,5.11-6.84c2.2-2.42.22-4,.22-4a23.42,23.42,0,0,0-6.82,5.5c-2.87,3.53-6.39,7.27-6.39,7.27s1.76-5.72,1.32-6.83-.44-2.2-2.2-.22-4.62,12.33-8.81,15.64c-1.09.86-3.37,1.5-6.16,2-1.56-2.86-2.21-1-2.21-1a6.31,6.31,0,0,1-2.49.93c-1.09.24-6.58.9-11,1.42-2.77.1-4.78.15-5.22.21-1.21.17-3.9,2.36-7.43,3.41l7.52-.55,2,19.31a44.53,44.53,0,0,0,7.46-.55,40,40,0,0,0,6.34-1.91l-1.61-17.9Z" transform="translate(-153.26 -17.07)"/><path class="cls-2" d="M512,62.94c.1,0-.09-.93,0-.95,6,5.26,8.21,16.21,4.51,23.36C504.5,86.84,505.72,67.58,512,62.94Z" transform="translate(-153.26 -17.07)"/><path class="cls-2" d="M611.69,53.7c2.67,3.79-1.8,7-5,9.21-.25-3.4-.68-6.57-1.13-9.94C607.52,52.39,610.38,51.9,611.69,53.7Z" transform="translate(-153.26 -17.07)"/><path class="cls-2" d="M561.44,107.28c-5.11,15-11.05-6.7-5.3-12.06C562.73,89,563,103.16,561.44,107.28Z" transform="translate(-153.26 -17.07)"/><path class="cls-2" d="M596.31,88.11c11.07-3,11.52,10.85.3,10.71A103,103,0,0,0,596.31,88.11Z" transform="translate(-153.26 -17.07)"/><path class="cls-2" d="M610.09,123.15a4.57,4.57,0,0,1,4,1.85c-.63,3.36-3.88,3.51-6.66,4.21C607.7,125.86,603.88,123.16,610.09,123.15Z" transform="translate(-153.26 -17.07)"/><path class="cls-10" d="M485.16,327.34a16,16,0,0,1-5.38,2c.06-4.05.33-8.6,1.26-11.38,1-2.93,3.21-10,5-15.74,1.5,2.73,2.64,5.19,2.64,6.9a120.2,120.2,0,0,0,1.77,14.46C488.39,325.07,486.39,326.52,485.16,327.34Z" transform="translate(-153.26 -17.07)"/></svg>