<svg id="Layer_1" data-name="Layer 1" xmlns="http://www.w3.org/2000/svg" xmlns:xlink="http://www.w3.org/1999/xlink" viewBox="0 0 350.09 638"><defs><style>.cls-1{fill:url(#linear-gradient);}.cls-2{fill:#f2f2f2;}</style><linearGradient id="linear-gradient" x1="152.08" y1="34.73" x2="152.08" y2="643" gradientUnits="userSpaceOnUse"><stop offset="0" stop-color="#da1c24"/><stop offset="0.06" stop-color="#d41d25"/><stop offset="0.13" stop-color="#c42128"/><stop offset="0.2" stop-color="#ae272d"/><stop offset="1" stop-color="#9d272d"/></linearGradient></defs><path class="cls-1" d="M210.66,83.88v-.61c3-2.92,5.65-5.51,7.61-8.71L207,66.87c.62-10.63-1-19-5-25-9.85-5.54-21.08-8.06-34.63-6.78a127.14,127.14,0,0,0-15.83,24.1l-14.85,6.42c2.62,4.82,6.58,8,12.51,10.31v.59a182.76,182.76,0,0,0,.7,19.61,61.88,61.88,0,0,0,5.87,20.57c.41,0,.71.35,1,1a7.62,7.62,0,0,1,1.63,5.48v.61c-.63.32-1,1-1.63,1.33-2.67,2.58-4.65,5.09-5.63,8.62a163,163,0,0,0-14.87,7.45,115.25,115.25,0,0,1-13.49,7c-4.67,2.23-9.27,7.08-13.25,15.12v.29A135.17,135.17,0,0,0,105,185.43c-.63,8.37-2.31,16.11-5.58,22.81-2.32,5.8-4.94,12.55-7.57,19.95A43.58,43.58,0,0,0,89.14,250a6.91,6.91,0,0,0-1.29,1.34c-.29.63-1,1.29-1.32,1.88-.31,2.94-1,6.77-1.93,12.25-1,7.36-2,15.44-3,24.73a177.83,177.83,0,0,0-1.05,26c0,8,0,15.78-.25,23.21v.89h0a2.7,2.7,0,0,0,1.62.63,128.42,128.42,0,0,1-8.3,16.77A13.16,13.16,0,0,0,72,360.62c-3.29,3.53-2.58,7.05,1.64,10.88,0,0,.38,0,.38.32a3.65,3.65,0,0,1-.38,2v1.89L63.7,371.8,39.59,373,17.2,468l67.51,21.26,22.29.23,17.52-89L94.77,385.35l2.33-12.86c.66-.67.66-1.27,1-1.94h.25c-2.25-1.59-3.91-4.13-4.91-7.7l-1.32.65a3.47,3.47,0,0,0,.64-1.63c3-4.8,4-10.27,3.34-16.68a26.86,26.86,0,0,0,7.26-.95h.34A97.32,97.32,0,0,1,110,322.68a140.5,140.5,0,0,0,6.33-22.15A100.12,100.12,0,0,1,119.22,288c1-3.21,2-6.42,3-9.32l.35-.32c-.35,3.22-.35,6.43-.7,9.64h-1.27c-.66,5.45-1.34,10.62-2,15.1a3.54,3.54,0,0,0,.33,1.63,2,2,0,0,0,.29,1.27,2.08,2.08,0,0,1-.29,1.29c-.72,7.4-1.34,14.47-2.36,21.54a143.29,143.29,0,0,0-1.3,24.08c0,2.9.32,5.8.32,8.05,0,.32,0,.94.33.94a54.65,54.65,0,0,0,16.86,9.63h.3a11.47,11.47,0,0,1-.66,4.19V377a5.17,5.17,0,0,0,2,4.19,3.23,3.23,0,0,1,.31,2.55,6.49,6.49,0,0,0,.35,2.88,1.09,1.09,0,0,1,.36.95s2.55,9.23,2.83,13.37,6.07,15.55,6.07,15.55c.3,2.88,1.31,6.12,2,9.68a100.7,100.7,0,0,0,6.87,18.33,137.52,137.52,0,0,0,10.9,17.33,55.85,55.85,0,0,1,6.9,14.43v1c-.25,7.36-1.92,14.17-5.23,19.63a9.28,9.28,0,0,0-1.67,5.45c0,1,0,2.22.69,2.85a45.78,45.78,0,0,0-.69,7.44c-.35,8.34-.61,16.7-1,25.35-.33,8.36-.66,17-.66,25.38,0,8,0,15.48-.66,22.54a13,13,0,0,0,6.88,2.87,28.71,28.71,0,0,0-5,14.17v1a3.34,3.34,0,0,0-1.26,1.58,54.76,54.76,0,0,0-7.32,16,10.32,10.32,0,0,0-.61,1.65c-3.66,4.79-5,9.63-3.33,14.15,5,5.45,12.26,7,21.77,4.51,9-2,14.19-6.76,15.57-14.78,1.61-7.74,3.92-14.83,7.93-20.27,3.58-5.75,3-11-1.37-15.44-.28-.33-1-.66-1-1h3.62c1-8,2.68-16,4.28-23.79.36-2.58,1-5.15,1.72-8.36,6.88.35,11.51-2.92,14.49-9.63,2-5.46,2.63-11.86,2-19.63a5.51,5.51,0,0,1,1-4.48,51.82,51.82,0,0,0,9.9-20.23c.71-4.5-.94-7.37-4.93-9a3.88,3.88,0,0,1,.66-1.61,9,9,0,0,1-3.93-2.85c-2.94-4.2-6-8.41-8.92-13.21v-.31A134.55,134.55,0,0,1,217.27,458a117.16,117.16,0,0,0,3-16.07,61.9,61.9,0,0,0,1-7.75,195.24,195.24,0,0,1,3.68-24.07c1.65-8.08,3-15.8,3.92-23.48a79.5,79.5,0,0,0,.39-12.83,31.52,31.52,0,0,0,7.6-2.9,107.06,107.06,0,0,1,1.59-17.7,45.24,45.24,0,0,1,9.6-1.9,137.81,137.81,0,0,1-4.64-22.5c-.66-7.42-1.24-14.46-2.28-21.24h3.29a87.87,87.87,0,0,0-2-18.94V288h-1a60.31,60.31,0,0,1-.29-21.54,53.14,53.14,0,0,0,1-5.78,11.72,11.72,0,0,0,6.88,5.78,28.71,28.71,0,0,0-1,7.4,65.88,65.88,0,0,0,3,21.86,135.49,135.49,0,0,1,4.93,22.14A173.91,173.91,0,0,1,258.23,341h1.34a3.43,3.43,0,0,0-.68,1.64,8.08,8.08,0,0,0-.66,2.28,4.12,4.12,0,0,0-.66,2.52,4,4,0,0,1-2,2.25c-.31,0-.58,0-.58.33,0,.66-.73,1-1.05,1.32a2.26,2.26,0,0,0-.65,1.9,5.29,5.29,0,0,0-.3,2.28c-.36.93-.36,1.94-.65,2.58,0,.33-.36.62,0,1.23a1.42,1.42,0,0,0,.29,1s.36.31.66.62c-.3,0-.66,0-.66.32a11.64,11.64,0,0,0-1,4.82,5.36,5.36,0,0,1,.72,2.22,19.78,19.78,0,0,0,1.6,2.93,4.52,4.52,0,0,0,4,1.94,1.21,1.21,0,0,0,1.31-1.34c.36-.32.63-.32.63-.6v-.32c.66,1.59,1,2.9,1.67,4.15,0,.29,0,.29.37.29.64.35,1.31.69,1.31,1.67h.64c1.7,0,2.66-1,3.26-2.58l.44-.35c1.93.66,3.89.35,4.9-.92.32,0,.62-.67.62-.67.36-.32.36-.32.7-.32a1.3,1.3,0,0,1,1-1.89v-.34h0c1.33-.64,2.65-1,4-1.65,0-.27.34-.62.34-.62.32-.25.68-.25.68-.65.3-.33.66-.33.66-.95.32,0,.32-.34.32-.66,1.63-2.56,3.27-4.48,4.29-6.42.31-.31.31-.31.31-.6v-1.32c0-1.29-.31-2.53-.31-3.87v-.32a3.36,3.36,0,0,1-.33-1.58,10.78,10.78,0,0,0-1.63-3.9c-.7-.29-.7-.62-1-1a5.33,5.33,0,0,0-.66-2.2c-.34,0-.66-.65-.66-1a4.51,4.51,0,0,0-1-2.27,1.27,1.27,0,0,0-.36-.9v-.37c2.36-.25,4.61-.65,7.62-.92,0-8,0-15.79-1-23.14-.7-4.49-1-9.33-1.34-14.19-1-8-2.33-15.73-4-23.11a94.27,94.27,0,0,1-2-14.17v-5.1c0-4.85,0-9.65.34-14.43v-1a56.56,56.56,0,0,0-8.6-17.37V225c0-8.31-.3-16.41-.62-24.41a98,98,0,0,0-4.27-22.88,114.43,114.43,0,0,0-7.3-16,1.65,1.65,0,0,0-.66-1.31v-2.24A49.65,49.65,0,0,0,255,148.8h-.73a80.1,80.1,0,0,0-10.89-3.53,175.05,175.05,0,0,1-21.44-7.66c-.7-.35-1-.71-1.66-1.05A84.46,84.46,0,0,1,203.42,126c-.66-2.87-2-4.8-4.6-5.77.68-6.12,1.27-12.55,1.64-19v-.32c6.58-1,9.9-5.78,10.2-14.49V83.88M89.5,382.17l-8.28-3.26.4-.31,1-3.26c1.61,1,3.28,1.67,4.28,1a8.06,8.06,0,0,0,4.29,2.26Z" transform="translate(-17.2 -5)"/><path class="cls-2" d="M210.32,12.21c-17.75-8-42.9-10.24-61.28-2-.1,4-.74,9.06,3.65,11.53,17.29,7,38.24,8.87,57.9,5.94,3.66-.82,4.21-4.66,4.3-7.87A9.58,9.58,0,0,0,210.32,12.21ZM156,15.14c17.47-4.39,38-2.38,53.69,4.66C192.57,22.64,172.27,20.63,156,15.14Z" transform="translate(-17.2 -5)"/><path class="cls-2" d="M327.76,578.29a.9.9,0,0,1-.45-.13c-14-.58-24.71-6.64-31-17.53-10.68-20.19-12.07-44.9-13.41-68.81-2-35.94-3.92-69.9-34.82-89.24a68.81,68.81,0,0,0-13.14-6.28.86.86,0,0,1-.58-.73l-1.05-9.08a.88.88,0,0,1,1.13-.95c24.86,7.24,42.65,32.52,47.58,67.61,2.16,12.3,2.76,24.81,3.33,36.92.94,19.76,1.82,38.42,8.9,56.62,7,15.77,21.89,19.64,30.18,20.55,10.69.77,24.52-1.89,30.43-18.61-.52.4-1.08.89-1.64,1.36-1.83,1.58-3.91,3.36-5.83,3.6a.89.89,0,0,1-.28,0l-7.15-1.4a.87.87,0,0,1-.7-.69.89.89,0,0,1,.37-.92l1.12-.75c5.15-3.45,14.74-9.86,17.86-18.78a.89.89,0,0,1,.56-.56c3.09-1,5.83-.31,7.51,2a.86.86,0,0,1,.16.66c-1.88,12.41-1.73,23.79.45,33.85a.91.91,0,0,1-.27.84.9.9,0,0,1-.86.2,5.55,5.55,0,0,0-1.35-.16,4.43,4.43,0,0,1-3.75-1.56.76.76,0,0,1-.12-.19c-.82-1.91-1.4-6.09-1.91-9.78-.08-.58-.16-1.16-.24-1.71-.2.39-.41.75-.61,1.12a17.33,17.33,0,0,0-1.43,3c-4.23,11.1-12.51,17.89-23.36,19.19a.88.88,0,0,1-.5.19c-1,0-2,.08-2.93.09-.7,0-1.43.06-2.16.08Z" transform="translate(-17.2 -5)"/></svg>