<svg id="Layer_1" data-name="Layer 1" xmlns="http://www.w3.org/2000/svg" viewBox="0 0 366.81 496.51"><defs><style>.cls-1{fill:none;}.cls-2{fill:#a80000;}.cls-3{fill:#9e005d;}.cls-4{fill:#ed1c24;}.cls-5{fill:#8d0000;}.cls-6{fill:#d51c24;}.cls-7{fill:#730e03;}.cls-8{fill:#c1272d;}.cls-9{fill:#006837;}.cls-10{fill:#e6e6e6;}.cls-11{fill:red;}</style></defs><path class="cls-1" d="M141.44,179.58l-.1,0v0a9.12,9.12,0,0,1-1.2-.53c-6.92-3.71-8.23-15.39-2.9-26.09,3.34-6.71,8.5-11.44,13.59-13.11a2.92,2.92,0,0,1,.26-1.68c.12-.32.27-.65.43-1-.35-.66-.59-1.16-.59-1.16s-1.83-4.44-5.2-6-3.22,0-5.82-.46-3.67-1.08-4.59-2.45c-.33-.5-.63-.91-.89-1.27a1.55,1.55,0,0,1-.21,0h-23a6,6,0,0,1,.36.92,45.3,45.3,0,0,1-4.59,1.38c-1.07.15-2-.46-3.37-.46a8.11,8.11,0,0,0-3.21,1.07,13.71,13.71,0,0,1-2.61,1.38c-1.53.61-4.74,2.14-5.2,3.52a4,4,0,0,1-.42.83c.33.26.55.5.57.7.16,1.22-.61,3.83-1.22,5.36s1.07,13,1.22,18.67-.46,21.43-.46,28.78a16.08,16.08,0,0,0,.4,4c1.24-1.41,2.82-3.29,4.65-5.64,4.29-5.51,6.13-9.49,12.56-9.49a9.94,9.94,0,0,1,8.88,5.51s14.69-.92,17.75,3.06,7,4.9,8,11.94-3.67,15.92-4,16.84a12.45,12.45,0,0,0,.82,3.54c1.56-2.16,3.42-4.7,4.23-5.68,1.54-1.84,2.91-3.22,2.91-3.22s1.08-15,2.15-20.2a35.18,35.18,0,0,1,2.13-6.9l-8.41-1.61A9.69,9.69,0,0,1,141.44,179.58Z" transform="translate(-2.19 -71.87)"/><path class="cls-1" d="M83.28,489.94c0,5.13-.14,9.82-.38,11.52-.64,4.44-.32,14.9-.32,14.9l4.12,8.56,1.44,3.78c1.63-6.1,1.12-13.42,1.41-14.88.16-.78,1-10.27,2-20.08-2.53-1.16-6.48-2.5-7.33-3.07A8.76,8.76,0,0,1,83.28,489.94Z" transform="translate(-2.19 -71.87)"/><path class="cls-1" d="M90.82,443.12c-2.53,6-3.17,12.37-3.8,14.59a40.27,40.27,0,0,0-1.59,8.56c0,2.22-2.22,6-2.22,6s.05,3.51.07,8.13a3.32,3.32,0,0,1,1.53-.77,26.07,26.07,0,0,0,8.64-3.22,30.83,30.83,0,0,1,.86-4.77l.24-.61c-.06-2.71-.28-5.59.06-6.1.61-.91,1.53-2.75,1.53-2.75s-2.06-16.3-3.4-27.06a1,1,0,0,0-.07-.15A42,42,0,0,1,90.82,443.12Z" transform="translate(-2.19 -71.87)"/><path class="cls-1" d="M137,123.1a2.94,2.94,0,0,1-.13.67c.68.42.71,1.23,1.51,1.5s3.52-1.38,3.52-1.38v-4.28c0-1.08-2-4-2.45-4.6a10.29,10.29,0,0,0-3-2,2.74,2.74,0,0,1,.55,1.57Z" transform="translate(-2.19 -71.87)"/><path class="cls-1" d="M262.37,192.78a35.11,35.11,0,0,0-3.58,0,42.17,42.17,0,0,1,2.83,5.9C261.93,196.32,262.18,194.26,262.37,192.78Z" transform="translate(-2.19 -71.87)"/><path class="cls-1" d="M264.26,400.22c-.15,2-.53,6.17-1.34,10.92a4.28,4.28,0,0,1,1.82-1.93c1.75-.58,2.33-4.65,1.46-5.52s-.05-5.85-.05-5.85l0-6.13-.48.42A48.58,48.58,0,0,0,264.26,400.22Z" transform="translate(-2.19 -71.87)"/><path class="cls-1" d="M198.31,245.3a8.26,8.26,0,0,1-1.74,3.3l1.62,3.5.19,0s.53.08,1.36.26c-.32-2.54-.82-5.2-1.26-7.3Z" transform="translate(-2.19 -71.87)"/><path class="cls-1" d="M102.26,122.21a4,4,0,0,0,2,1.07,23.86,23.86,0,0,0,2.63.72,3,3,0,0,1-.18-.9v-8.52c0-.43-.48-.58-.3-.94a2.38,2.38,0,0,1-.92-1.08h-2.3l-2.6,2.3s1.68,2.91,1.68,4Z" transform="translate(-2.19 -71.87)"/><path class="cls-1" d="M177.66,193.18a19.87,19.87,0,0,1,.58-4.79,13.27,13.27,0,0,1,.68-1.62l-4.49-.86c.26,4.46.58,9.6.86,14.16A23.31,23.31,0,0,0,177.66,193.18Z" transform="translate(-2.19 -71.87)"/><path class="cls-1" d="M262.71,190.06l1.2-8.4a27,27,0,0,0-2.41,2.6c-.41.69-.76,1.51-1.17,2.25a11.32,11.32,0,0,0,.75,1.28C261.57,188.5,262.15,189.3,262.71,190.06Z" transform="translate(-2.19 -71.87)"/><path class="cls-1" d="M11.24,316.94,8.71,316s-1,0-.94,0c.1-.33.68-2.31,1.26-3.76.39-1,.05-5.44-.27-8.65a49.49,49.49,0,0,0-1.64,5.79c-1.3,6.08,3.78,17.19,7.12,23.61-.62-2.59-1.37-5.37-2-8.07A25.1,25.1,0,0,1,11.24,316.94Z" transform="translate(-2.19 -71.87)"/><path class="cls-1" d="M340,230l0,.19s.91.76,2.13,1.72a22.27,22.27,0,0,1,.44-8.71c0-.18.08-.32.13-.5l0,0C341.75,224.88,340.68,227.93,340,230Z" transform="translate(-2.19 -71.87)"/><path class="cls-1" d="M344.54,200.23a2.35,2.35,0,0,1-2.34-2,11.56,11.56,0,0,1,.11-1.38c-.25-.33-.5-.64-.75-.95-.46.49-1,1.11-1.81,2-1.86,2.1.47,7.69-1.4,12.58s-2.79,3-4.42,5.12c-.54.69-.67,3-.6,5.73.77.36,1.6.78,2.46,1.26a8.25,8.25,0,0,1,3.48,4.6,77.75,77.75,0,0,1,4.09-9.37c1.91-3.6,2.65-8.26,2.95-11.38a12.61,12.61,0,0,0-.74-3.88A16.61,16.61,0,0,0,344.54,200.23Z" transform="translate(-2.19 -71.87)"/><path class="cls-2" d="M94.61,465c-.34.51-.12,3.39-.06,6.1,1.48-3.75,5.15-13.34,5.15-13.34s-2.54-2.85-2.54-5.39.32-4.76.32-7a25.7,25.7,0,0,0-1.27-6s-.22,2.75-3.47-4.18c1.34,10.76,3.4,27.06,3.4,27.06S95.22,464,94.61,465Z" transform="translate(-2.19 -71.87)"/><path class="cls-2" d="M158.32,232.13a106.64,106.64,0,0,1,3.76-11.08c1.44-3,8.37-15,11.54-18.58a13.22,13.22,0,0,0,1.67-2.4c-.28-4.56-.6-9.7-.86-14.16l-21.66-4.16a35.18,35.18,0,0,0-2.13,6.9c-1.07,5.2-2.15,20.2-2.15,20.2s-1.37,1.38-2.91,3.22c-.81,1-2.67,3.52-4.23,5.68a12.45,12.45,0,0,1-.82-3.54c.31-.92,4.9-9.8,4-16.84s-4.9-8-8-11.94-17.75-3.06-17.75-3.06a9.94,9.94,0,0,0-8.88-5.51c-6.43,0-8.27,4-12.56,9.49-1.83,2.35-3.41,4.23-4.65,5.64a16.08,16.08,0,0,1-.4-4c0-7.35.62-23.11.46-28.78s-1.83-17.14-1.22-18.67,1.38-4.14,1.22-5.36c0-.2-.24-.44-.57-.7a4,4,0,0,0,.42-.83c.46-1.38,3.67-2.91,5.2-3.52a13.71,13.71,0,0,0,2.61-1.38,8.11,8.11,0,0,1,3.21-1.07c1.38,0,2.3.61,3.37.46a45.3,45.3,0,0,0,4.59-1.38,6,6,0,0,0-.36-.92h23a1.55,1.55,0,0,0,.21,0c.26.36.56.77.89,1.27.92,1.37,2,2,4.59,2.45s2.45-1.08,5.82.46,5.2,6,5.2,6,.24.5.59,1.16c-.16.33-.31.66-.43,1a2.92,2.92,0,0,0-.26,1.68,10.76,10.76,0,0,1,8.59.48,10.24,10.24,0,0,1,3.66,3.42l1.25,1.17c-.08-.37-.16-.71-.23-.93-.31-.92.61-3.22.61-4a16.42,16.42,0,0,0-.31-2.3,4.28,4.28,0,0,0,.16-2.3c-.31-1.05-1.65-3.44-2.86-3.51a103.45,103.45,0,0,0-2.5-11.18,15.55,15.55,0,0,0-5.51-7.2c-.92-.46-3.22.31-3.22.31s-1.37-1.07-2-.92-2.14.77-2.14.77l-2-.31-1.22.15s-3.22-2.6-5.06-2.91a11.4,11.4,0,0,0-3.82.16,1.54,1.54,0,0,0,.08,1.09l-.11,0H109.48a2.21,2.21,0,0,0-.25,0c-.82-.88-2.78-2.93-3.14-2.81s-4.13.31-4.75.77a37.47,37.47,0,0,1-6.12,2.75,23.53,23.53,0,0,0-4.9,1.69,24.35,24.35,0,0,0-6.27,8c-2.15,4.28-1.38,7.5-1.84,8.88a9.46,9.46,0,0,0-.28,1.16,2.05,2.05,0,0,0-1.4,1c-.62,1.38-.77,4.59-1.84,7.19s-8.42,26.49-9,29.4c-.48,2.25-1.6,13.92-2.08,19.38a26.91,26.91,0,0,1,5.67,4.8A8.92,8.92,0,0,1,79,196.88c2.88,2.88,5.76,2.88,8.64,8.64s2.88,5.76,2.88,11.52v.59h6.13a3.43,3.43,0,0,1,2.35,1h3.32a.54.54,0,1,1,0,1.07H99.79a3.41,3.41,0,0,1,.29,1.19h17.26c.24-.32.49-.54.75-.54.44,0,.84.53,1.2,1.37h5.77c.35-.81.74-1.31,1.17-1.31,1.35,0,2.44,4.55,2.44,10.17s-1.09,10.16-2.44,10.16c-.47,0-.9-.58-1.28-1.54h-5.61c-.37.92-.79,1.48-1.25,1.48-.26,0-.51-.21-.75-.53h-5a3.55,3.55,0,0,1,.44,1c.46,1.62,0,1.85,0,1.85a1.15,1.15,0,0,1,.69,1.15,4.07,4.07,0,0,1-1.61,3.46c-1.39.93-2.31,4.62-2.08,7.85a75.88,75.88,0,0,0,7,23.78c5.08,10.62,4.62,26.55,3.24,30s-.93,2.77-5.54,2.77c-3.67,0-10.82-2-13.61-2.87-.07.86-.15,1.63-.24,2.19-1,5.7,3.49,8.56,6.66,13s2.85,7.3,2.85,7.3a137.09,137.09,0,0,1,5.71,13c1.58,4.76,13.63,58,13.63,58s.38,1.89-1.48,5c.09.29.16.55.21.75a19.17,19.17,0,0,1,.32,2,25.2,25.2,0,0,0,5.55,1.5,61.66,61.66,0,0,0,1.84,12.77c2.45,9.19,6.43,14.7,9.19,25.72s2.14,11.56,2.14,11.56-1.23,4.67-.92,5.89a13.63,13.63,0,0,1,0,3.67l.31,2.76a31.69,31.69,0,0,1-.62,6.43c-.61,2.14-1.83,8.27-2.14,9.8s1.53,4.89,8.57,5.81,12.25-.92,16.84-.3a29.63,29.63,0,0,0,9.49-.31c2.11-.46,4-3.67,2.15-7.65s-7-5.51-8.58-6.13-7.34-3.36-7.34-6.12a37.64,37.64,0,0,0-.92-6.73s.3-1.11.61-2.65-1.22-3.78-1.22-3.78.3-20.52.3-31.84c0-7-1.5-15.07-2.66-20.3a22,22,0,0,0,3.89-1.14c.91-.61.3-2.45.3-4.89s-.92-6.13-1.22-8.27-1.23-23.27-1.23-23.27l1.84-.92a12.75,12.75,0,0,0,.61-3.37,40.93,40.93,0,0,0-.61-6.12c-.31-1.53.92-11,.92-11s7-4.29,5.2-7.65-.61-10.41-1.53-14.09-.3-2.45-1.53-8.26l-5.2-24.8s.92-4.6.61-5.51a57.46,57.46,0,0,1-.61-6.13,60.85,60.85,0,0,0,.61-11.63c-.08-1.68,0-6,.15-11.37.68-.83,1.07-1.34,1.07-1.34s3-13,4.94-22.12a13.16,13.16,0,0,1-3.52-1.24A47.34,47.34,0,0,1,158.32,232.13ZM139.46,115c.46.62,2.45,3.52,2.45,4.6v4.28s-2.6,1.69-3.52,1.38-.83-1.08-1.51-1.5a2.94,2.94,0,0,0,.13-.67v-8.52a2.74,2.74,0,0,0-.55-1.57A10.29,10.29,0,0,1,139.46,115Zm-36.28-2.45h2.3a2.38,2.38,0,0,0,.92,1.08c-.18.36.3.51.3.94v8.52a3,3,0,0,0,.18.9,23.86,23.86,0,0,1-2.63-.72,4,4,0,0,1-2-1.07v-3.37c0-1.07-1.68-4-1.68-4Z" transform="translate(-2.19 -71.87)"/><path class="cls-2" d="M83.28,480.42c0,2.93,0,6.31,0,9.52a8.76,8.76,0,0,0,.92.73c.85.57,4.8,1.91,7.33,3.07.64-6.43,1.33-13,1.92-17.31a26.07,26.07,0,0,1-8.64,3.22A3.32,3.32,0,0,0,83.28,480.42Z" transform="translate(-2.19 -71.87)"/><path class="cls-2" d="M90.84,250.05a53.86,53.86,0,0,1,.8-6.15h-4v1.94c0,5.76-10.35,4.34-10.35,5.29,0,2.4,9.28,8.12,7.94,8.85a15.13,15.13,0,0,1,1.47,1.48c.63,1,2.85,5.39,2.85,5.39L93,269.07l1.27,2.22,3.17.95a9.42,9.42,0,0,1,1.25.93,22,22,0,0,0-.86-6.73C96.49,261.83,90.84,252.13,90.84,250.05Z" transform="translate(-2.19 -71.87)"/><path class="cls-3" d="M215.55,163.58a2.75,2.75,0,0,0-.92.79,1.73,1.73,0,0,0-.08.27,7.89,7.89,0,0,1,1-.8C215.54,163.76,215.55,163.67,215.55,163.58Z" transform="translate(-2.19 -71.87)"/><path class="cls-4" d="M180,221.6l2.74-1.27a4.81,4.81,0,0,1,5.64,1.91L194.24,235a5.78,5.78,0,0,1,2-.39c1.19.09,1.53,1.09,2.25,2.93s2.19,3.61,1.52,5.2a12.08,12.08,0,0,1-1.53,2.36c.44,2.1.94,4.76,1.26,7.3,2.28.49,6.84,1.71,8.89,3.93,2.79,3,6.05,6.76,6.05,6.76L227,268.42s8.38,2.57,14.2,2.57c3,0,7.81.37,11.71.74a135.57,135.57,0,0,1,.14-16.86c0-.71.16-1.7.31-2.86a3.05,3.05,0,0,1-.31-1.21c0-2.32.87-16.27.87-16.27l2.75-10.18c-.9-.77-1.8-1.55-2.75-2.31-7.18-5.74-7.56-7.56-7.56-7.56l-5.23-9.35-.87-2.91s-.58.59-4.07-4.06.58-11.63.58-11.63,2.91-9.88,4.07-11.91c.9-1.57,6.47-12.63,9.1-18-5.56-1.08-19.9-2.7-21.79-2.7-2.31,0-11,3.6-11.84,5.1a10.27,10.27,0,0,0-.72,3.58,3.44,3.44,0,0,0-1.47,1.59,3.85,3.85,0,0,0-.28,1.27,3.78,3.78,0,0,0-.26.43c-.78,1.76-3.09.91-3.09.91s1.42,1,2.52.32a4.16,4.16,0,0,0,.83-.74,10.61,10.61,0,0,0,.52,2.39,47.29,47.29,0,0,1-2.67,6.13c-1.15,1.8,0,4.49,0,4.49s-.24,2.2-.6,4.47c-.76,1.35-2.18,2.32-2,3.3.29,1.49.17,1.64,1.62,2.54a2,2,0,0,0,.59.28c0,5.11,2.61,7.92,3.4,10.66-2.54.85-7.56,2.34-11.09,2.12-4.91-.3-6.35,1.8-6.93,2.7s-4.9,3.29-6.64,5.09-6.06,1.5-6.06,1.5a23.89,23.89,0,0,1,3.18-8.09c2.31-3.29,3.46-7.79,6.06-8.69a8.07,8.07,0,0,0,4.62-4.79.31.31,0,0,1,0-.09l.76.15c1.64.88,4-.46,5.27-3,1.16-2.33,1-4.83-.32-5.92l-39.25-36.75a12.74,12.74,0,0,0,.84,3.2,15.32,15.32,0,0,1,1.07,3.21s8.11,17.76,8,19.75a31.7,31.7,0,0,1-.46,3.52s.3,5,.68,11.35l4.49.86a13.27,13.27,0,0,0-.68,1.62,19.87,19.87,0,0,0-.58,4.79,23.31,23.31,0,0,1-2.37,6.89c.23,3.77.45,7.14.6,9.39.62,8.88-4.13,16.38-4.89,21-.22,1.31-.86,4.36-1.65,8a67.81,67.81,0,0,0,13.2,1.2l-5.63-12.14C176.27,226.12,177.62,222.68,180,221.6Zm34.5-55.91c.31-.42.57-.78.79-.85a1,1,0,0,1,.26-.05c0,.63,0,1.08,0,1.08s-.25.7-.63,1.73A8.89,8.89,0,0,1,214.45,165.69Z" transform="translate(-2.19 -71.87)"/><path class="cls-5" d="M262.37,192.78c.19-1.52.29-2.42.29-2.42l0-.3c-.56-.76-1.14-1.56-1.63-2.27a11.32,11.32,0,0,1-.75-1.28,3.79,3.79,0,0,1-1.73,1.82c-1.46.58-2.59,1-1.17,2.61a13.08,13.08,0,0,1,1.36,1.88A35.11,35.11,0,0,1,262.37,192.78Z" transform="translate(-2.19 -71.87)"/><path class="cls-4" d="M153.55,175.33a17.94,17.94,0,0,1,.15-2.15s-2.14-25.1-1.84-27.24a11.22,11.22,0,0,0,0-4c-.1-.84-.84-1.25-1-2.15-5.09,1.67-10.25,6.4-13.59,13.11-5.33,10.7-4,22.38,2.9,26.09a9.12,9.12,0,0,0,1.2.53v0l.1,0a9.69,9.69,0,0,0,2.92.56l8.41,1.61a6.27,6.27,0,0,0,.47-1.22C153.24,180.07,153.55,176.4,153.55,175.33Z" transform="translate(-2.19 -71.87)"/><path class="cls-4" d="M251.63,417.16c.69-1.69,7.28-3.22,10.72-5,.18-.34.37-.7.57-1,.81-4.75,1.19-8.91,1.34-10.92a48.58,48.58,0,0,1,1.44-8.09l.48-.42,0-4c-3.66-7.7-12.36-21.44-14.25-26.37-2.33-6.05.46-8.62,2.56-10.71a31.84,31.84,0,0,1,5.21-3.44c-.11-.51-.2-1-.25-1.38a5.33,5.33,0,0,1,.87-3.78,4.16,4.16,0,0,1-2.62-3.19c-.49-2.23-3.5-31.76-4.4-40.54,0-.14-.07-.27-.09-.35a7.87,7.87,0,0,1-.16-1.61c-7.61-2.85-26.55-13-30.47-16.05-4.19-3.26-9.08-2.33-15.14-2.56a12.64,12.64,0,0,1-9.31-4.89s-.34-.14-.8-.39c-.58,3.31-1.12,7-1.42,10.91a163.11,163.11,0,0,0,.31,24.57c.4,5.19,1.09,12.82,3.08,17a131,131,0,0,0,.07,15c.58,6,2.81,51.53,2.81,51.53S201,399,200.47,403.82s-.29,18.57,0,22.47.86,31.76,0,32.95-8.95,3.9-10.11,3.6-6.35,5.09-4.62,11.09,8.66,6.89,11.26,7.19,12.41,4.79,13.28,4.49,4.91-3,5.48-4.49-2.31-12.29-.86-19.18,4-14.08,7.5-23.07,4.91-24.57,4.33-27,3.18-11.39,3.18-12.59,2.88-.9,2.88-.9l2.6-7.19S236,408,236.83,414.3s3.76,27,4.33,30.26S240,456.25,238.86,459s-.29,13.78-.58,15.87,3.46,3.3,5.48,3.3,12.7-1.5,18.19-2.4,3.75.3,6.06-3.89-1.45-3.9-3.18-5.39-6.92-3-9.23-4.2-2.6-6.29-2-10.49,2.31-18.27,5.77-27l.12-.33C255.07,424.19,249.32,422.81,251.63,417.16Z" transform="translate(-2.19 -71.87)"/><path class="cls-4" d="M175.89,209.46c-.15-2.25-.37-5.62-.6-9.39a13.22,13.22,0,0,1-1.67,2.4c-3.17,3.6-10.1,15.58-11.54,18.58a106.64,106.64,0,0,0-3.76,11.08,47.34,47.34,0,0,0,7.51,5.1,13.16,13.16,0,0,0,3.52,1.24c.79-3.67,1.43-6.72,1.65-8C171.76,225.84,176.51,218.34,175.89,209.46Z" transform="translate(-2.19 -71.87)"/><path class="cls-6" d="M159.43,140.29a10.76,10.76,0,0,0-8.59-.48c.18.9.92,1.31,1,2.15a11.22,11.22,0,0,1,0,4c-.3,2.14,1.84,27.24,1.84,27.24a17.94,17.94,0,0,0-.15,2.15c0,1.07-.31,4.74-.31,5.2a6.27,6.27,0,0,1-.47,1.22l21.66,4.16c-.38-6.36-.68-11.35-.68-11.35a31.7,31.7,0,0,0,.46-3.52c.15-2-8-19.75-8-19.75a15.32,15.32,0,0,0-1.07-3.21,12.74,12.74,0,0,1-.84-3.2l-1.25-1.17A10.24,10.24,0,0,0,159.43,140.29Z" transform="translate(-2.19 -71.87)"/><path class="cls-7" d="M259.93,173.11a72.79,72.79,0,0,1-1.24,9.07,26.38,26.38,0,0,0,1.64,4.33c.41-.74.76-1.56,1.17-2.25a27,27,0,0,1,2.41-2.6l-1.2,8.4c1.1,1.5,2.12,2.83,2.12,2.83s-1.1-.08-2.46-.11c-.19,1.48-.44,3.54-.75,5.94a42.17,42.17,0,0,0-2.83-5.9l-.6.07a4.8,4.8,0,0,1-2.9-.78,6,6,0,0,1-1.2,2,16.58,16.58,0,0,1-4.43,3.26c-.52.79-1,1.41-1.19,1.65,3.41,2.35,8.42,5.72,9.72,6.11,2,.6,7.8,1.8,8.37,3s3.76,3.29,3.76,3.29,6.92,1.8,8.08,5.09c.64,1.82,4,11.77,7.23,21a24,24,0,0,0,3.12-3.57c1.86-2.79,7.91-2.33,7.91-2.33a9.73,9.73,0,0,1,1.63-1.16c.67-.4,5.16-.57,8.87-.64l0-.29-2.79-3s-8.15,1.4-9.55-.7-.7-5.12-.7-5.12-2.09-.47-2.33-2.1,2.1-3,2.1-3-2.1-1.39-2.1-2.09a16.29,16.29,0,0,1,.47-3,1.76,1.76,0,0,0-.7-1.63s-3.26-.7-2.56-2.56,4-5.36,4.89-7.92-1.17-5.12-.47-8.62a23,23,0,0,1,3-7s1.63-5.36,5.36-7.69,12.34-6.52,21.89-4.43a20,20,0,0,1,8,3.43l.2-.19c3.19-2.91,3.19-10.46,3.77-18.31a19.6,19.6,0,0,0-2.35-10.66c-.08-1.68-.17-2.87-.17-2.87s-2.39-3.71-3.05-4.58-5.23-2-7.41-3-4.36-2.4-4.36-2.4l-2.49-1.36a6.53,6.53,0,0,0-1.67-1.81,36.62,36.62,0,0,0-4.08-1.35l-1.55-.85-1.05-4.19-2-.18c.15-2.9.37-6.81.5-7.49.07-.33.69-2.18,1.52-4.66l1-.14c1.09-.22,3.92-3.49,4.58-5.45s0-5-.88-5.89a1.31,1.31,0,0,0-1.05-.28,21,21,0,0,0,1-5.15c-.22-3.49-1.09-10-2-11.34a33.05,33.05,0,0,0-3.05-3.48l1.31-.66s-6.1-5-10.68-5.66-11.77.87-14.38,3.26-5.67,9.59-5.89,10.47.65,3,.65,3-1.3,7.41-1.08,8.93c0,.1,0,.26.06.45a3.44,3.44,0,0,0-1.28.85c-.87,1.09-.44,1.74.65,4.58a23.83,23.83,0,0,0,2.17,3.88c.49,2.82,1,5.45,1.23,6.59.65,2.83,4.14,7,4.14,7l2.06.42-.66,6.76s.65.88-3.05,2.62c-.15.07-.34.13-.52.2-3.14-2.53-8.19-6.65-8.64-7.39-.65-1.09-2.17-3.49-3.48-3.27s-8.28,1.31-9.16,1.52A20,20,0,0,0,257,124.1l-.05.22H240.28a2.65,2.65,0,0,0-2.64,2.64v10.63a2.65,2.65,0,0,0,2.64,2.64h10.28l-.5.87s4.36,1.41,6.86,2.07c0,0-.06.08-.07.12-.58,2-5.23,9.59-5.52,10.46-.06.2-.59,1.29-1.36,2.88a6.86,6.86,0,0,1,2.16.6C253,158.13,259.93,170.41,259.93,173.11Z" transform="translate(-2.19 -71.87)"/><path class="cls-7" d="M272.91,293.93a126.85,126.85,0,0,1,4.71,19.12l3-9.25a27.21,27.21,0,0,1-.69-4.17c-.23-3,.72-7.88,1.78-12.14-2.06,1.36-3.94,2.56-5.66,3.62l-1.37,1.25Z" transform="translate(-2.19 -71.87)"/><path class="cls-8" d="M276.74,336.43c1.63-1.18,3.58-2.63,5.43-4,.52-3,1-5.27,1.22-6.45,1.4-6.29.7-6.52.93-8.62a10.83,10.83,0,0,0-.67-3.25Z" transform="translate(-2.19 -71.87)"/><path class="cls-7" d="M280.28,410.42c-2.42.65-4.25.87-4.81.31-2.33-2.33-6.75-13.74-7.69-18.87a8,8,0,0,0-.39-1.37c-.43.48-.88.92-1.21,1.22l0,6.13s-.83,5,.05,5.85.29,4.94-1.46,5.52a4.28,4.28,0,0,0-1.82,1.93,70.89,70.89,0,0,1-3.45,13.32,30.94,30.94,0,0,0,4.5,0s8.26-1.66,11.55-1.74a34.41,34.41,0,0,0,6.87-.79,66.75,66.75,0,0,1-2-10.46C280.33,411.11,280.31,410.76,280.28,410.42Z" transform="translate(-2.19 -71.87)"/><path class="cls-7" d="M316.31,427.4c.87.21,1.77.4,2.63.55-.57-2.3-1.1-4.34-1.52-5.94A49.08,49.08,0,0,0,316.31,427.4Z" transform="translate(-2.19 -71.87)"/><path class="cls-7" d="M253.91,192.9a4.73,4.73,0,0,1-1.34,1.58,6,6,0,0,1-1.75.83,14.73,14.73,0,0,1-.68,1.31,6.56,6.56,0,0,0,3.77-3.72Z" transform="translate(-2.19 -71.87)"/><path class="cls-7" d="M270.36,260.17a4.66,4.66,0,0,1-1.49-2.27,14.11,14.11,0,0,0-2.88-6.22v9.52a14.78,14.78,0,0,0,.74,3.39l.12-.13A38.73,38.73,0,0,0,270.36,260.17Z" transform="translate(-2.19 -71.87)"/><path class="cls-8" d="M262.37,192.78c1.36,0,2.46.11,2.46.11s-1-1.33-2.12-2.83l0,.3S262.56,191.26,262.37,192.78Z" transform="translate(-2.19 -71.87)"/><path class="cls-6" d="M262.35,412.17c-3.44,1.77-10,3.3-10.72,5-2.31,5.65,3.44,7,7.84,7.3a70.89,70.89,0,0,0,3.45-13.32C262.72,411.47,262.53,411.83,262.35,412.17Z" transform="translate(-2.19 -71.87)"/><path class="cls-6" d="M254.51,296.84c-.42-.13-.9-.29-1.44-.49a7.87,7.87,0,0,0,.16,1.61c0,.08.06.21.09.35.9,8.78,3.91,38.31,4.4,40.54a4.16,4.16,0,0,0,2.62,3.19,5.33,5.33,0,0,0-.87,3.78c0,.41.14.87.25,1.38,3.31-1.9,7.1-3.89,8.45-4.74l9.45-29.41a126.85,126.85,0,0,0-4.71-19.12l1.74-1.57,1.37-1.25a101.2,101.2,0,0,1-12.19,6.66S260.8,298.7,254.51,296.84Z" transform="translate(-2.19 -71.87)"/><path class="cls-9" d="M266.18,391.71c.33-.3.78-.74,1.21-1.22-.28-.78-.69-1.72-1.19-2.77Z" transform="translate(-2.19 -71.87)"/><path class="cls-6" d="M236.8,186.53s-4.06,7-.58,11.63,4.07,4.06,4.07,4.06l.87,2.91,5.23,9.35s.38,1.82,7.56,7.56c1,.76,1.85,1.54,2.75,2.31L254,234.53s-.87,13.95-.87,16.27a3.05,3.05,0,0,0,.31,1.21c-.15,1.16-.26,2.15-.31,2.86a135.57,135.57,0,0,0-.14,16.86c3.61.33,6.46.65,6.46.65s1.84-2.07,7.33-7.79a14.78,14.78,0,0,1-.74-3.39v-9.52a14.11,14.11,0,0,1,2.88,6.22,4.66,4.66,0,0,0,1.49,2.27c4.14-5.74,7.83-13,10.93-17.37a41.44,41.44,0,0,1,4.34-5.28c-3.23-9.2-6.59-19.15-7.23-21-1.16-3.29-8.08-5.09-8.08-5.09s-3.18-2.1-3.76-3.29-6.35-2.4-8.37-3c-1.3-.39-6.31-3.76-9.72-6.11.19-.24.67-.86,1.19-1.65a16.58,16.58,0,0,0,4.43-3.26,6,6,0,0,0,1.2-2,4.8,4.8,0,0,0,2.9.78l.6-.07a13.08,13.08,0,0,0-1.36-1.88c-1.42-1.56-.29-2,1.17-2.61a3.79,3.79,0,0,0,1.73-1.82,26.38,26.38,0,0,1-1.64-4.33,72.79,72.79,0,0,0,1.24-9.07c0-2.7-6.93-15-7.8-15.88a6.86,6.86,0,0,0-2.16-.6c-2.63,5.36-8.2,16.42-9.1,18C239.71,176.65,236.8,186.53,236.8,186.53Zm14,8.78a6,6,0,0,0,1.75-.83,4.73,4.73,0,0,0,1.34-1.58,6.56,6.56,0,0,1-3.77,3.72A14.73,14.73,0,0,0,250.82,195.31Z" transform="translate(-2.19 -71.87)"/><path class="cls-10" d="M368.94,302.65c-.47-10.48-3.73-23.75-4-26.78s-.93-4.66-.93-11.88-4.89-14.44-4.89-14.44a55.39,55.39,0,0,0-2.1-8.15,5.87,5.87,0,0,0-1.87-2.56,17,17,0,0,0,1.87-2.8c2.33-4.42.23-2.56,1.16-7.22s-1.16-7.45-1.16-15.37-2.56-11.18-6.06-17a22.45,22.45,0,0,0-1.47-2.16s.06-.13.08-.17c.35-.81-.12-1.51-.47-2.33s-1.63-.7-1.63-.7a2.5,2.5,0,0,0-1.51-1.63,1,1,0,0,0-1.21.52c-1-.62-2-1-2.64-1.45A24,24,0,0,1,337.5,182c-2.1-4.19-4.2-9.32-13.74-11.41s-18.17,2.09-21.9,4.42-5.35,7.69-5.35,7.69a22.94,22.94,0,0,0-3,7c-.7,3.49,1.4,6.05.46,8.61s-4.19,6.06-4.89,7.92,2.56,2.56,2.56,2.56a1.73,1.73,0,0,1,.7,1.63,16.32,16.32,0,0,0-.46,3c0,.7,2.09,2.1,2.09,2.1s-2.33,1.4-2.09,3,2.33,2.09,2.33,2.09-.7,3,.7,5.13,9.54.7,9.54.7l2.8,3v.29c-3.71.07-8.19.24-8.86.64a8.8,8.8,0,0,0-1.63,1.17s-6.06-.47-7.92,2.33-3.49,3.26-7.45,8.85-8.85,15.84-14.44,21.66-7.46,7.92-7.46,7.92-12.34-1.4-18.16-1.4-14.21-2.56-14.21-2.56l-12.34-5.36s-3.26-3.73-6.06-6.75-10.25-4.2-10.25-4.2h-.18l-1.63-3.51a8.29,8.29,0,0,0,1.74-3.29,13.51,13.51,0,0,0,1.7-2.58c.67-1.6-.79-3.36-1.51-5.21s-1.06-2.84-2.26-2.93a5.9,5.9,0,0,0-2,.4l-5.91-12.75a4.8,4.8,0,0,0-5.63-1.91L180,221.6c-2.32,1.07-3.68,4.51-3,5.92L187,249c.54,1.16,3.11,2.09,4.79,2l.82,1.75c-1.36,1.06-3,3.31-3.9,4l-.93.7a3.43,3.43,0,0,0,2.56,2.33l2.1.47a1.75,1.75,0,0,0-.7,2.09,4.62,4.62,0,0,0,1.4,2.1,10.62,10.62,0,0,0,.23,1.86,2.57,2.57,0,0,0,.93,1.63s.23.93.7,2.33,3.26,2.56,3.26,2.56a12.64,12.64,0,0,0,9.32,4.89c6.05.24,10.94-.69,15.14,2.57s25.61,14.67,31.9,16.53,9.32.93,9.32.93,6.41-2.67,17.85-10.28c-1.05,4.27-2,9.14-1.78,12.15a26.89,26.89,0,0,0,.69,4.16l-12.41,38.66c-2.3,1.45-11.67,6.19-13.67,8.18s-4.89,4.66-2.56,10.72,14.91,25.38,15.84,30.51,5.36,16.53,7.68,18.86c.57.56,2.39.34,4.82-.3,0,.33.05.68.08,1,.93,10,6.52,24,6.52,26.55s0,14.44.23,16.54.93,5.12.93,5.12a114.56,114.56,0,0,0-.46,20.5c.69,12.34,3.49,37.73,3.49,41.69a56.25,56.25,0,0,1-.7,9.08c-.23.93-.47,2.56-.47,2.56l.5,0a15.87,15.87,0,0,1-1.89,2.12c-2.8,2.33-17,10.48-19.8,11.18s-6.29,3-6.06,5.12,0,3.73,2.8,4.89,6.75,3,14.91.93,10-2.79,15.37-4,9.55-.93,10.71-1.63,2.8-10,1.86-13.27c-.47-1.68-1.07-5.68-1.55-9.18,1-1.31,1.64-3.46,2-7.59.7-7.69,3-24.92,3.26-25.62s3.73-10,3.73-19.56-2.1-16.07-1.4-21.2,1.86-22.82,1.86-27.25a34.21,34.21,0,0,1,1.2-6.42c.71,2.72,1.73,6.7,2.76,11.08,1.86,7.92,2.8,11.41,5.13,18.87s7,18.16,7,18.16l2.33,16.54s4.43,20.49,5.36,26.78,0,7.92-.23,11.18a9.18,9.18,0,0,0,.69,4.89,12.88,12.88,0,0,0-.69,4.43,7.71,7.71,0,0,0,1.63,3.26,13.31,13.31,0,0,1-.94,3.72c-.69,1.4-3.26,4.66-4.42,6.76s-6.29,5.12-7.92,8.15-2.1,7.22.93,8.15,13,1.17,17-.93,13.28-7.45,15.14-9.55.24-3.73-.46-6.29a66.1,66.1,0,0,0-2.33-8.38c-1.17-2.8-1.17-2.56-1.87-2.1s2.33-2.56,2.8-4.66-1.4-11.18-.93-14.67,2.33-12.58,2.79-22.36-.7-21.19-3.49-29.34a109.42,109.42,0,0,1-4-14.68,3.73,3.73,0,0,0-.23-2.09,9.23,9.23,0,0,1-.47-3,81.79,81.79,0,0,1-1.16-12.11c0-5.59,1.63-13.74.23-17.93s1.16-17.47,3.49-30.52.93-27.48.93-27.48.94-4,1.63-8.85.24-16.77-.93-16.77,1.87-1.86,4.2-3.72,5.59-7.69,5.59-7.69A60,60,0,0,0,368.94,302.65Zm-85.48,23.29c-.26,1.19-.7,3.46-1.22,6.46-1.85,1.39-3.8,2.85-5.42,4l6.9-22.35a10.72,10.72,0,0,1,.67,3.25C284.16,319.42,284.86,319.66,283.46,325.94Zm59.16-102.71a22.45,22.45,0,0,0-.43,8.71c-1.22-1-2.13-1.72-2.13-1.72l0-.18c.71-2.12,1.79-5.17,2.7-7.27v0C342.71,222.91,342.66,223.06,342.62,223.23Zm.82-5.47a78,78,0,0,0-4.1,9.37,8.24,8.24,0,0,0-3.47-4.59c-.86-.49-1.69-.9-2.47-1.27-.06-2.74.07-5,.6-5.72,1.63-2.1,2.56-.23,4.43-5.13s-.47-10.48,1.4-12.57c.77-.87,1.35-1.5,1.8-2,.25.31.5.62.75.95-.06.54-.11,1-.11,1.39,0,1.13,1.17,1.93,2.34,2a16.67,16.67,0,0,1,1,2.28,12.53,12.53,0,0,1,.73,3.87C346.09,209.5,345.34,214.16,343.44,217.76Z" transform="translate(-2.19 -71.87)"/><path class="cls-11" d="M140.84,553.08c-1.9-1.27-9.82.32-13.31-1s-7.93-6-7.93-6l-5.68-3.49a24.73,24.73,0,0,1,1.56-4.12c.64-1-.32-5.39-.32-5.39V516c0-4.12,8.56-30.75,8.88-32s3.49-5.39,4.76-9.83,1.58-12.37,1.58-12.37.32-11.73.32-20.29-1.9-30.75-2.54-33.29c0-.19-.12-.46-.21-.75,1.86-3.06,1.48-4.95,1.48-4.95s-12.05-53.27-13.63-58a136.46,136.46,0,0,0-5.71-13s.32-2.85-2.85-7.29-7.61-7.29-6.66-13c.09-.55.17-1.32.24-2.19,2.79.84,9.94,2.88,13.61,2.88,4.61,0,4.15.69,5.54-2.77s1.84-19.4-3.24-30a75.49,75.49,0,0,1-7-23.77c-.23-3.24.69-6.93,2.08-7.85a4.09,4.09,0,0,0,1.61-3.47,1.15,1.15,0,0,0-.69-1.15s.46-.23,0-1.85a4.07,4.07,0,0,0-.44-1h5c.24.32.49.54.75.54.46,0,.88-.56,1.25-1.49h5.61c.38,1,.81,1.55,1.28,1.55,1.35,0,2.44-4.55,2.44-10.17s-1.09-10.16-2.44-10.16c-.43,0-.82.5-1.17,1.31h-5.77c-.36-.85-.76-1.37-1.2-1.37-.26,0-.51.21-.75.53H100a3.41,3.41,0,0,0-.29-1.19h2.54a.54.54,0,1,0,0-1.07H98.94a3.48,3.48,0,0,0-2.35-1H90.46V217c0-5.76,0-5.76-2.88-11.52s-5.76-5.76-8.64-8.64a8.92,8.92,0,0,0-5.76-2.88s-4-4.5-7.16-5.46a10.74,10.74,0,0,0-6.34.32,85.41,85.41,0,0,0-9.83,1.27c-4.75,1-9.51.63-11.41,7s-1.59,13.32-1.9,15.86-3.81,14.58-3.49,17.75,3.17,3.81,1.9,7.61-.31,3.49-.31,8.56c0,.75,0,1.49.08,2.22H33.37s-.32-2.54-2.54-1.9a11.14,11.14,0,0,0-4.12,2.53s-.95-.31-3.81,3.17a21.48,21.48,0,0,0-3.8,8.25s-6,14.9-9.19,19.65S5.47,289,6.42,294.06c.08.44.16.82.25,1.2A31.37,31.37,0,0,0,2.3,306.74c-1.27,8.56,8.87,33,8.87,33s2.54,1.91,4.13,1a3.55,3.55,0,0,0,.31-.23c1.62,5.35,9.31,19.2,10.47,21.79,1.26,2.86,6.34,9.83,7.6,8.88s-2.53-7-2.53-7l-.95-3.49s2.85,3.8,5.39,4.12a23.1,23.1,0,0,0,5.07,0s1,5.71,0,9.51a100.91,100.91,0,0,1-4.12,11.1s.31,1.9,1.58,1.9a12.3,12.3,0,0,0,3.49-.95l2.22-3.17.83-1.6c-.11,4.42-.2,8.33-.2,9.52A7.94,7.94,0,0,0,47,396.46a34.81,34.81,0,0,1,1.9,4.44c.09.37.73.86,1.56,1.38a36.88,36.88,0,0,0-.29,4.33c0,8.88,7.29,32,7.29,32a25.21,25.21,0,0,0-.63,5.39c0,2.85-1.59,11.73-1.59,11.73s-6.65,23.46-4.75,34.56,10.14,39.63,10.14,39.63v4.75c0,3.17,2.54,9.2,2.54,10.47s2.22,1,2.22,1l-1,8.87a8.52,8.52,0,0,0,9.19,7.3c5.7-.22,10.18-5.14,12.41-8.15.17,4.36.86,10.68,2.49,12.58,1.9,2.22,15.54,1.59,15.54,1.59s1-2.22,5.7-2.22,13.64,0,19-.32,14.58-3.8,15.53-6.65S142.75,554.35,140.84,553.08ZM7.05,309.28a48.94,48.94,0,0,1,1.64-5.79c.32,3.2.66,7.65.27,8.64-.59,1.45-1.17,3.43-1.26,3.76,0,0,.94.05.94.05l2.53.95a25.05,25.05,0,0,0,1,7.92c.67,2.7,1.42,5.48,2,8.08C10.83,326.47,5.75,315.35,7.05,309.28Zm84.52-65.43a53.31,53.31,0,0,0-.8,6.15c0,2.07,5.65,11.77,7,16.39a22.17,22.17,0,0,1,.86,6.72,9.42,9.42,0,0,0-1.25-.93l-3.17-.95L93,269l-3.49-2.22s-2.22-4.43-2.85-5.39a15.51,15.51,0,0,0-1.47-1.47c1.34-.74-7.94-6.46-7.94-8.86,0-.95,10.35.47,10.35-5.29v-1.93ZM94.24,471.6c-1.27,3.17-4.44,40.58-4.76,42.17s.22,8.77-1.41,14.87l-1.44-3.77-4.12-8.56s-.32-10.47.32-14.91.31-29.16.31-29.16,2.22-3.81,2.22-6A40.27,40.27,0,0,1,87,457.65c.63-2.22,1.27-8.56,3.8-14.58a42.21,42.21,0,0,0,1.85-8.13c3.31,7.12,3.54,4.32,3.54,4.32a25.83,25.83,0,0,1,1.27,6c0,2.22-.32,4.44-.32,7s2.54,5.39,2.54,5.39S95.51,468.43,94.24,471.6Z" transform="translate(-2.19 -71.87)"/></svg>