<?xml version="1.0" encoding="UTF-8"?>
<svg width="370px" height="500px" viewBox="0 0 370 500" version="1.1" xmlns="http://www.w3.org/2000/svg" xmlns:xlink="http://www.w3.org/1999/xlink">
    <!-- Generator: Sketch 58 (84663) - https://sketch.com -->
    <title>intro-ani-rect-2</title>
    <desc>Created with Sketch.</desc>
    <g id="Page-1" stroke="none" stroke-width="1" fill="none" fill-rule="evenodd">
        <g id="intro-ani-rect-2">
            <path d="M140.090543,108.360161 L139.98994,108.360161 L139.98994,108.360161 C139.575248,108.211638 139.17179,108.033444 138.782696,107.826962 C131.820926,104.094567 130.503018,92.3440644 135.865191,81.5794769 C139.225352,74.8289738 144.416499,70.0704225 149.537223,68.3903421 C149.454856,67.8134883 149.545905,67.2251703 149.798793,66.7002012 C149.919517,66.3782696 150.070423,66.0462777 150.231388,65.694165 C149.879276,65.0301811 149.637827,64.527163 149.637827,64.527163 C149.637827,64.527163 147.796781,60.0603622 144.406439,58.4909457 C141.016097,56.9215292 141.167002,58.4909457 138.551308,58.028169 C135.935614,57.5653924 134.859155,56.9416499 133.933602,55.5633803 C133.60161,55.0603622 133.299799,54.6478873 133.038229,54.2857143 C132.967888,54.2904903 132.897303,54.2904903 132.826962,54.2857143 L109.688129,54.2857143 C109.83409,54.5837517 109.955225,54.8933186 110.050302,55.2112676 C108.536644,55.7552064 106.995252,56.2186316 105.432596,56.5995976 C104.356137,56.750503 103.420523,56.1368209 102.042254,56.1368209 C100.902082,56.2645928 99.8016772,56.6313945 98.8128773,57.2132797 C97.9901508,57.7692222 97.1097961,58.2346971 96.1871227,58.6016097 C94.6478873,59.2152918 91.4185111,60.7545272 90.9557344,62.1428571 C90.8478429,62.4366794 90.7060392,62.7169105 90.5331992,62.9778672 C90.8651911,63.2394366 91.0865191,63.4808853 91.1066398,63.6820926 C91.2676056,64.9094567 90.4929577,67.5352113 89.8792757,69.0744467 C89.2655936,70.6136821 90.9557344,82.1529175 91.1066398,87.8571429 C91.2575453,93.5613682 90.6438632,109.416499 90.6438632,116.810865 C90.6091425,118.163799 90.7443369,119.515742 91.0462777,120.83501 C92.2937626,119.416499 93.8832998,117.525151 95.7243461,115.160966 C100.040241,109.617706 101.891348,105.613682 108.360161,105.613682 C112.147466,105.620636 115.605863,107.766555 117.293763,111.156942 C117.293763,111.156942 132.072435,110.231388 135.150905,114.235412 C138.229376,118.239437 142.193159,119.16499 143.199195,126.247485 C144.205231,133.32998 139.507042,142.263581 139.17505,143.189135 C139.274381,144.410214 139.552324,145.610114 140,146.750503 C141.569416,144.577465 143.440644,142.022133 144.255533,141.036217 C145.804829,139.185111 147.183099,137.796781 147.183099,137.796781 C147.183099,137.796781 148.269618,122.706237 149.346076,117.474849 C149.820361,115.093588 150.538429,112.767453 151.488934,110.533199 L143.028169,108.913481 C142.026337,108.881163 141.035482,108.694529 140.090543,108.360161 Z" id="Path"></path>
            <path d="M81.5794769,420.593561 C81.5794769,425.754527 81.4386318,430.472837 81.1971831,432.183099 C80.5533199,436.649899 80.8752515,447.173038 80.8752515,447.173038 L85.0201207,455.784708 L86.4688129,459.587525 C88.1086519,453.450704 87.5955734,446.086519 87.8873239,444.617706 C88.0482897,443.832998 88.8933602,434.285714 89.8993964,424.416499 C87.3541247,423.249497 83.3802817,421.901408 82.5251509,421.327968 C82.1936416,421.104887 81.8776879,420.859519 81.5794769,420.593561 L81.5794769,420.593561 Z" id="Path"></path>
            <path d="M89.1649899,373.490946 C86.6197183,379.527163 85.9758551,385.935614 85.3420523,388.169014 C84.4991994,390.973327 83.9628665,393.860754 83.7424547,396.780684 C83.7424547,399.014085 81.5090543,402.816901 81.5090543,402.816901 C81.5090543,402.816901 81.5593561,406.348089 81.5794769,410.995976 C82.0159685,410.607574 82.5467103,410.340469 83.1187123,410.221328 C86.1855553,409.66654 89.1289671,408.569575 91.8108652,406.981891 C91.972881,405.362067 92.2621718,403.757512 92.6760563,402.183099 L92.917505,401.569416 C92.8571429,398.843058 92.6358149,395.945674 92.9778672,395.432596 C93.5915493,394.517103 94.5171026,392.665996 94.5171026,392.665996 C94.5171026,392.665996 92.444668,376.267606 91.0965795,365.442656 C91.077316,365.390494 91.0537612,365.34002 91.0261569,365.291751 C90.6799053,368.079896 90.0564305,370.826555 89.1649899,373.490946 L89.1649899,373.490946 Z" id="Path"></path>
            <path d="M135.623742,51.5392354 C135.606463,51.7682322 135.562572,51.9944374 135.492958,52.2132797 C136.177062,52.6358149 136.207243,53.4507042 137.012072,53.722334 C137.816901,53.9939638 140.55332,52.334004 140.55332,52.334004 L140.55332,48.028169 C140.55332,46.9416499 138.541247,44.0040241 138.088531,43.4004024 C137.208754,42.5573106 136.187037,41.8761657 135.070423,41.38833 C135.414094,41.8447565 135.607448,42.3966943 135.623742,42.9678068 L135.623742,51.5392354 Z" id="Path"></path>
            <path d="M261.750503,121.639839 C260.550748,121.578593 259.348649,121.578593 258.148893,121.639839 C259.250227,123.541648 260.20212,125.526159 260.995976,127.575453 C261.307847,125.201207 261.559356,123.128773 261.750503,121.639839 Z" id="Path"></path>
            <path d="M263.651911,330.331992 C263.501006,332.344064 263.118712,336.539235 262.303823,341.317907 C262.69311,340.493107 263.334245,339.813222 264.134809,339.376258 C265.895372,338.792757 266.478873,334.698189 265.603622,333.822938 C264.72837,332.947686 265.55332,327.937626 265.55332,327.937626 L265.55332,321.770624 L265.070423,322.193159 C264.368724,324.861205 263.894192,327.583874 263.651911,330.331992 Z" id="Path"></path>
            <path d="M197.303823,174.476861 C196.981134,175.702514 196.382363,176.838115 195.55332,177.796781 L197.183099,181.317907 L197.374245,181.317907 C197.374245,181.317907 197.907445,181.39839 198.742455,181.579477 C198.420523,179.024145 197.917505,176.348089 197.474849,174.235412 L197.303823,174.476861 Z" id="Path"></path>
            <path d="M100.674044,50.6438632 C101.226818,51.1893104 101.925608,51.5631632 102.686117,51.7203219 C103.553546,52.0120105 104.436947,52.253854 105.331992,52.444668 C105.225546,52.153932 105.164469,51.848548 105.150905,51.5392354 L105.150905,42.9678068 C105.150905,42.5352113 104.668008,42.3843058 104.849095,42.0221328 C104.437294,41.7624746 104.114428,41.3834577 103.923541,40.9356137 L101.609658,40.9356137 L98.9939638,43.249497 C98.9939638,43.249497 100.684105,46.1770624 100.684105,47.2736419 L100.674044,50.6438632 Z" id="Path"></path>
            <path d="M176.529175,122.042254 C176.527202,120.41821 176.723146,118.799978 177.112676,117.22334 C177.304458,116.665565 177.532993,116.121112 177.796781,115.593561 L173.279678,114.72837 C173.541247,119.215292 173.863179,124.386318 174.144869,128.973843 C175.298069,126.80258 176.102664,124.463481 176.529175,122.042254 Z" id="Path"></path>
            <path d="M262.092555,118.903421 L263.299799,110.452716 C262.435186,111.270558 261.625258,112.144339 260.875252,113.06841 C260.462777,113.762575 260.110664,114.587525 259.698189,115.331992 C259.92127,115.777271 260.17332,116.207436 260.452716,116.619718 C260.945674,117.334004 261.529175,118.138833 262.092555,118.903421 Z" id="Path"></path>
            <path d="M9.10462777,246.549296 L6.55935614,245.603622 C6.55935614,245.603622 5.55331992,245.603622 5.61368209,245.603622 C5.71428571,245.27163 6.29778672,243.279678 6.88128773,241.820926 C7.27364185,240.814889 6.93158954,236.348089 6.60965795,233.118712 C5.94204301,235.025097 5.39105821,236.970342 4.95975855,238.943662 C3.65191147,245.060362 8.76257545,256.237425 12.1227364,262.696177 C11.498994,260.090543 10.7444668,257.293763 10.110664,254.577465 C9.3459875,251.972878 9.00628241,249.262031 9.10462777,246.549296 Z" id="Path"></path>
            <path d="M339.849095,159.084507 L339.849095,159.275654 C339.849095,159.275654 340.764588,160.040241 341.991952,161.006036 C341.560557,158.08455 341.710993,155.1066 342.434608,152.243461 C342.434608,152.062374 342.515091,151.921529 342.565392,151.740443 L342.565392,151.740443 C341.609658,153.933602 340.533199,157.002012 339.849095,159.084507 Z" id="Path"></path>
            <path d="M344.416499,129.134809 C343.240597,129.142916 342.237485,128.285555 342.062374,127.122736 C342.071494,126.658165 342.108448,126.194557 342.173038,125.734406 C341.921529,125.402414 341.67002,125.090543 341.418511,124.778672 C340.955734,125.27163 340.412475,125.895372 339.597586,126.790744 C337.726358,128.903421 340.070423,134.527163 338.189135,139.44668 C336.307847,144.366197 335.382294,142.464789 333.742455,144.597586 C333.199195,145.291751 333.06841,147.615694 333.138833,150.362173 C333.913481,150.724346 334.748491,151.146881 335.613682,151.629779 C337.299492,152.700871 338.542522,154.343957 339.114688,156.257545 C340.277951,153.028487 341.652484,149.879495 343.229376,146.830986 C345.150905,143.209256 345.895372,138.521127 346.197183,135.382294 C346.155617,134.050125 345.90438,132.732828 345.452716,131.478873 C345.167827,130.672144 344.821403,129.888485 344.416499,129.134809 Z" id="Path"></path>
            <path d="M92.9778672,395.503018 C92.6358149,396.016097 92.8571429,398.913481 92.917505,401.639839 C94.4064386,397.867203 98.0985915,388.219316 98.0985915,388.219316 C98.0985915,388.219316 95.5432596,385.352113 95.5432596,382.796781 C95.5432596,380.241449 95.8651911,378.008048 95.8651911,375.754527 C95.6817659,373.698669 95.2528238,371.672171 94.5875252,369.71831 C94.5875252,369.71831 94.3661972,372.484909 91.0965795,365.513078 C92.444668,376.338028 94.5171026,392.736419 94.5171026,392.736419 C94.5171026,392.736419 93.5915493,394.496982 92.9778672,395.503018 Z" id="Path" fill="#A80000" fill-rule="nonzero"></path>
            <path d="M157.072435,161.227364 C158.128389,157.445312 159.391188,153.724085 160.855131,150.080483 C162.303823,147.062374 169.275654,134.98994 172.464789,131.38833 C173.112368,130.648097 173.67584,129.838317 174.144869,128.973843 C173.863179,124.386318 173.541247,119.215292 173.279678,114.72837 L151.488934,110.54326 C150.538429,112.777514 149.820361,115.103648 149.346076,117.484909 C148.269618,122.716298 147.183099,137.806841 147.183099,137.806841 C147.183099,137.806841 145.804829,139.195171 144.255533,141.046278 C143.440644,142.052314 141.569416,144.587525 140,146.760563 C139.552324,145.620174 139.274381,144.420274 139.17505,143.199195 C139.486922,142.273642 144.104628,133.34004 143.199195,126.257545 C142.293763,119.17505 138.269618,118.209256 135.150905,114.245473 C132.032193,110.28169 117.293763,111.167002 117.293763,111.167002 C115.605863,107.776615 112.147466,105.630696 108.360161,105.623742 C101.891348,105.623742 100.040241,109.647887 95.7243461,115.171026 C93.8832998,117.535211 92.2937626,119.426559 91.0462777,120.84507 C90.7443369,119.525803 90.6091425,118.173859 90.6438632,116.820926 C90.6438632,109.426559 91.2676056,93.5714286 91.1066398,87.8672032 C90.945674,82.1629779 89.2655936,70.6237425 89.8792757,69.084507 C90.4929577,67.5452716 91.2676056,64.9195171 91.1066398,63.6921529 C91.1066398,63.4909457 90.8651911,63.249497 90.5331992,62.9879276 C90.7060392,62.7269709 90.8478429,62.4467397 90.9557344,62.1529175 C91.4185111,60.7645875 94.6478873,59.2253521 96.1871227,58.61167 C97.1097961,58.2447575 97.9901508,57.7792826 98.8128773,57.22334 C99.8016772,56.6414549 100.902082,56.2746532 102.042254,56.1468813 C103.430584,56.1468813 104.356137,56.7605634 105.432596,56.6096579 C106.995252,56.2286919 108.536644,55.7652668 110.050302,55.221328 C109.955225,54.9033789 109.83409,54.5938121 109.688129,54.2957746 L132.826962,54.2957746 C132.897303,54.3005507 132.967888,54.3005507 133.038229,54.2957746 C133.299799,54.6579477 133.60161,55.0704225 133.933602,55.5734406 C134.859155,56.9517103 135.945674,57.5855131 138.551308,58.0382294 C141.156942,58.4909457 141.016097,56.9517103 144.406439,58.501006 C147.796781,60.0503018 149.637827,64.5372233 149.637827,64.5372233 C149.637827,64.5372233 149.879276,65.0402414 150.231388,65.7042254 C150.070423,66.0362173 149.919517,66.3682093 149.798793,66.7102616 C149.545905,67.2352306 149.454856,67.8235487 149.537223,68.4004024 C152.359657,67.352626 155.490945,67.527599 158.179074,68.8832998 C159.672352,69.7076656 160.937571,70.8899186 161.861167,72.3239437 L163.118712,73.501006 C163.038229,73.1287726 162.957746,72.7867203 162.887324,72.5653924 C162.575453,71.639839 163.501006,69.3259557 163.501006,68.5412475 C163.451755,67.7635626 163.347537,66.9903374 163.189135,66.2273642 C163.453432,65.4853133 163.509107,64.684979 163.350101,63.9134809 C163.038229,62.8571429 161.690141,60.4527163 160.472837,60.3822938 C159.842868,56.5895541 159.003218,52.8346364 157.957746,49.1348089 C156.870524,46.2233 154.940729,43.7016072 152.414487,41.8913481 C151.488934,41.4285714 149.17505,42.2032193 149.17505,42.2032193 C149.17505,42.2032193 147.796781,41.1267606 147.162978,41.277666 C146.529175,41.4285714 145.01006,42.0523139 145.01006,42.0523139 L142.997988,41.7404427 L141.770624,41.8913481 C141.770624,41.8913481 138.531187,39.2756539 136.68008,38.9637827 C135.399134,38.8007085 134.099845,38.8551289 132.837022,39.1247485 C132.728879,39.4878214 132.757511,39.8779349 132.917505,40.221328 L132.806841,40.221328 L107.937626,40.221328 C107.853857,40.2165823 107.769886,40.2165823 107.686117,40.221328 C106.861167,39.3360161 104.889336,37.2736419 104.527163,37.3943662 C104.16499,37.5150905 100.372233,37.7062374 99.7484909,38.1690141 C97.7830381,39.2734742 95.7224656,40.199385 93.5915493,40.9356137 C91.8907594,41.3190825 90.2375391,41.8892748 88.6619718,42.6358149 C86.0166065,44.8449799 83.8671695,47.5874833 82.3541247,50.6841046 C80.1911469,54.9899396 80.9657948,58.2293763 80.5030181,59.6177062 C80.3846556,60.0003912 80.2905718,60.3901671 80.221328,60.7847082 C79.6270319,60.8972888 79.112117,61.2650851 78.8128773,61.7907445 C78.1891348,63.1790744 78.0382294,66.4084507 76.9617706,69.0241449 C75.8853119,71.639839 68.4909457,95.6740443 67.9074447,98.6016097 C67.4245473,100.865191 66.2977867,112.605634 65.8148893,118.098592 C67.9304076,119.436789 69.8501045,121.06193 71.5191147,122.927565 C73.7213569,123.131798 75.7706117,124.142095 77.2736419,125.764588 C80.1710262,128.661972 83.0684105,128.661972 85.9657948,134.45674 C88.8631791,140.251509 88.8631791,140.251509 88.8631791,146.046278 L88.8631791,146.639839 L95.0301811,146.639839 C95.918363,146.658355 96.7651857,147.018706 97.3943662,147.645875 L100.734406,147.645875 C100.944266,147.617117 101.151703,147.712958 101.265829,147.891404 C101.379954,148.069851 101.379954,148.298358 101.265829,148.476805 C101.151703,148.655252 100.944266,148.751092 100.734406,148.722334 L98.1891348,148.722334 C98.357844,149.100516 98.4566883,149.506118 98.4808853,149.919517 L115.84507,149.919517 C116.086519,149.597586 116.338028,149.376258 116.599598,149.376258 C117.042254,149.376258 117.444668,149.909457 117.806841,150.754527 L123.61167,150.754527 C123.963783,149.939638 124.356137,149.43662 124.788732,149.43662 C126.146881,149.43662 127.243461,154.014085 127.243461,159.668008 C127.243461,165.321932 126.146881,169.889336 124.788732,169.889336 C124.315895,169.889336 123.8833,169.305835 123.501006,168.34004 L117.857143,168.34004 C117.484909,169.265594 117.062374,169.828974 116.599598,169.828974 C116.338028,169.828974 116.086519,169.617706 115.84507,169.295775 L110.814889,169.295775 C111.013468,169.60627 111.162788,169.945634 111.257545,170.301811 C111.720322,171.93159 111.257545,172.162978 111.257545,172.162978 C111.713128,172.359821 111.992417,172.825303 111.95171,173.31992 C112.02295,174.677118 111.416127,175.981222 110.331992,176.800805 C108.933602,177.736419 108.008048,181.448692 108.239437,184.698189 C109.2596,193.004815 111.638758,201.087156 115.28169,208.62173 C120.392354,219.305835 119.929577,235.331992 118.541247,238.802817 C117.152918,242.273642 117.605634,241.589537 112.967807,241.589537 C109.275654,241.589537 102.082495,239.577465 99.2756539,238.702213 C99.2052314,239.567404 99.1247485,240.342052 99.0342052,240.905433 C98.028169,246.639839 102.545272,249.517103 105.734406,253.983903 C108.923541,258.450704 108.60161,261.327968 108.60161,261.327968 C110.741059,265.585303 112.658453,269.950647 114.346076,274.406439 C115.935614,279.195171 128.05835,332.756539 128.05835,332.756539 C128.05835,332.756539 128.440644,334.657948 126.569416,337.78672 C126.65996,338.078471 126.730382,338.34004 126.780684,338.541247 C126.923376,339.205797 127.030836,339.877425 127.102616,340.55332 C128.900121,341.26769 130.773477,341.774002 132.686117,342.062374 C132.852196,346.397685 133.472627,350.703611 134.537223,354.909457 C137.002012,364.15493 141.006036,369.698189 143.782696,380.784708 C146.559356,391.871227 145.935614,392.414487 145.935614,392.414487 C145.935614,392.414487 144.698189,397.112676 145.01006,398.34004 C145.176509,399.56513 145.176509,400.807103 145.01006,402.032193 L145.321932,404.808853 C145.334906,406.980741 145.125906,409.148271 144.698189,411.277666 C144.084507,413.430584 142.857143,419.597586 142.545272,421.136821 C142.2334,422.676056 144.084507,426.056338 151.167002,426.981891 C158.249497,427.907445 163.490946,426.056338 168.108652,426.68008 C171.287153,427.090026 174.510965,426.984717 177.655936,426.368209 C179.778672,425.905433 181.68008,422.676056 179.818913,418.672032 C177.957746,414.668008 172.77666,413.128773 171.187123,412.50503 C169.597586,411.881288 163.802817,409.124748 163.802817,406.348089 C163.698986,404.067932 163.389207,401.801832 162.877264,399.577465 C162.877264,399.577465 163.179074,398.460765 163.490946,396.911469 C163.802817,395.362173 162.263581,393.108652 162.263581,393.108652 C162.263581,393.108652 162.565392,372.464789 162.565392,361.076459 C162.565392,354.034205 161.056338,345.915493 159.889336,340.653924 C161.226345,340.39288 162.536398,340.008957 163.802817,339.507042 C164.71831,338.89336 164.104628,337.042254 164.104628,334.587525 C164.104628,332.132797 163.179074,328.420523 162.877264,326.267606 C162.575453,324.114688 161.639839,302.857143 161.639839,302.857143 L163.490946,301.93159 C163.847045,300.834217 164.053468,299.693817 164.104628,298.541247 C164.05477,296.476447 163.84963,294.418324 163.490946,292.384306 C163.179074,290.84507 164.416499,281.317907 164.416499,281.317907 C164.416499,281.317907 171.458753,277.002012 169.647887,273.62173 C167.837022,270.241449 169.034205,263.148893 168.108652,259.44668 C167.183099,255.744467 167.806841,256.981891 166.569416,251.136821 L161.338028,226.187123 C161.338028,226.187123 162.263581,221.559356 161.95171,220.643863 C161.637024,218.600648 161.432169,216.542023 161.338028,214.476861 C161.916191,210.605384 162.121692,206.687378 161.95171,202.77666 C161.871227,201.086519 161.95171,196.740443 162.102616,191.338028 C162.78672,190.503018 163.179074,189.98994 163.179074,189.98994 C163.179074,189.98994 166.197183,176.911469 168.148893,167.736419 C166.91521,167.490928 165.722807,167.070876 164.607646,166.488934 C161.932164,164.982091 159.408681,163.220033 157.072435,161.227364 Z M138.098592,43.3903421 C138.561368,44.0140845 140.56338,46.9315895 140.56338,48.0181087 L140.56338,52.3239437 C140.56338,52.3239437 137.947686,54.0241449 137.022133,53.7122736 C136.096579,53.4004024 136.187123,52.6257545 135.503018,52.2032193 C135.572633,51.984377 135.616523,51.7581718 135.633803,51.5291751 L135.633803,42.9577465 C135.617508,42.386634 135.424154,41.8346961 135.080483,41.3782696 C136.197097,41.8661053 137.218815,42.5472503 138.098592,43.3903421 Z M101.599598,40.9255533 L103.913481,40.9255533 C104.104368,41.3733974 104.427234,41.7524142 104.839034,42.0120724 C104.657948,42.3742455 105.140845,42.5251509 105.140845,42.9577465 L105.140845,51.5291751 C105.154408,51.8384877 105.215485,52.1438716 105.321932,52.4346076 C104.426886,52.2437937 103.543486,52.0019502 102.676056,51.7102616 C101.915548,51.5531028 101.216758,51.1792501 100.663984,50.6338028 L100.663984,47.2434608 C100.663984,46.167002 98.9738431,43.2193159 98.9738431,43.2193159 L101.599598,40.9255533 Z" id="Shape" fill="#A80000" fill-rule="nonzero"></path>
            <path d="M81.5794769,411.016097 C81.5794769,413.963783 81.5794769,417.364185 81.5794769,420.593561 C81.8712187,420.858792 82.1804312,421.104146 82.5050302,421.327968 C83.360161,421.901408 87.334004,423.249497 89.8792757,424.416499 C90.5231388,417.947686 91.2173038,411.338028 91.8108652,407.002012 C89.1289671,408.589695 86.1855553,409.686661 83.1187123,410.241449 C82.5467103,410.36059 82.0159685,410.627695 81.5794769,411.016097 L81.5794769,411.016097 Z" id="Path" fill="#A80000" fill-rule="nonzero"></path>
            <path d="M89.1851107,179.255533 C89.3343277,177.179412 89.6030494,175.113614 89.9899396,173.06841 L85.9657948,173.06841 L85.9657948,175.020121 C85.9657948,180.814889 75.5533199,179.386318 75.5533199,180.342052 C75.5533199,182.756539 84.889336,188.511066 83.5412475,189.245473 C84.0678722,189.70717 84.562004,190.204664 85.0201207,190.734406 C85.6539235,191.740443 87.8873239,196.156942 87.8873239,196.156942 L91.3581489,198.390342 L92.6358149,200.623742 L95.8249497,201.579477 C96.2692474,201.856089 96.6898674,202.16903 97.082495,202.515091 C97.1459328,200.227055 96.8540657,197.943026 96.2173038,195.744467 C94.8692153,191.10664 89.1851107,181.348089 89.1851107,179.255533 Z" id="Path" fill="#A80000" fill-rule="nonzero"></path>
            <path d="M214.647887,92.2635815 C214.284075,92.4563346 213.96787,92.727858 213.722334,93.0583501 C213.68817,93.1465558 213.661253,93.2374 213.641851,93.3299799 C213.954835,93.0348868 214.291288,92.7657242 214.647887,92.5251509 C214.637827,92.444668 214.647887,92.3541247 214.647887,92.2635815 Z" id="Path" fill="#9E005D" fill-rule="nonzero"></path>
            <path d="M178.8833,150.633803 L181.639839,149.356137 C183.747975,148.608229 186.093986,149.402712 187.313883,151.277666 L193.209256,164.114688 C193.851419,163.865781 194.532694,163.732932 195.221328,163.722334 C196.418511,163.812877 196.760563,164.818913 197.484909,166.67002 C198.209256,168.521127 199.688129,170.301811 199.014085,171.901408 C198.595202,172.750057 198.078623,173.546872 197.474849,174.275654 C197.917505,176.38833 198.420523,179.064386 198.742455,181.619718 C201.036217,182.112676 205.623742,183.34004 207.686117,185.573441 C210.492958,188.591549 213.772636,192.374245 213.772636,192.374245 L226.167002,197.736419 C226.167002,197.736419 234.597586,200.321932 240.452716,200.321932 C243.470825,200.321932 248.309859,200.694165 252.2334,201.066398 C251.928379,195.415029 251.975418,189.750153 252.374245,184.104628 C252.374245,183.390342 252.535211,182.394366 252.686117,181.227364 C252.499295,180.847456 252.393112,180.432998 252.374245,180.01006 C252.374245,177.676056 253.249497,163.641851 253.249497,163.641851 L256.016097,153.400402 C255.110664,152.625755 254.205231,151.841046 253.249497,151.076459 C246.026157,145.301811 245.643863,143.470825 245.643863,143.470825 L240.382294,134.064386 L239.507042,131.136821 C239.507042,131.136821 238.923541,131.730382 235.412475,127.052314 C231.901408,122.374245 235.995976,115.352113 235.995976,115.352113 C235.995976,115.352113 238.923541,105.412475 240.090543,103.370221 C240.995976,101.790744 246.599598,90.6639839 249.245473,85.2615694 C243.651911,84.1750503 229.225352,82.5452716 227.323944,82.5452716 C225,82.5452716 216.257545,86.167002 215.412475,87.6760563 C214.957815,88.8236832 214.712489,90.0434984 214.688129,91.277666 C214.03583,91.637764 213.517165,92.198768 213.209256,92.8772636 C213.043587,93.2840974 212.948331,93.7161487 212.927565,94.1549296 C212.830877,94.2931668 212.743494,94.4376845 212.665996,94.5875252 C211.881288,96.3581489 209.557344,95.5030181 209.557344,95.5030181 C209.557344,95.5030181 210.985915,96.5090543 212.092555,95.8249497 C212.402954,95.61528 212.683799,95.364888 212.927565,95.0804829 C213.008671,95.8994455 213.184217,96.7062809 213.450704,97.4849095 C212.701959,99.6013787 211.804344,101.662196 210.764588,103.651911 C209.607646,105.462777 210.764588,108.169014 210.764588,108.169014 C210.764588,108.169014 210.523139,110.382294 210.160966,112.665996 C209.396378,114.024145 207.967807,115 208.148893,115.985915 C208.440644,117.484909 208.31992,117.635815 209.778672,118.541247 C209.959756,118.667031 210.160282,118.762196 210.372233,118.822938 C210.372233,123.963783 212.997988,126.790744 213.792757,129.547284 C211.237425,130.402414 206.187123,131.901408 202.635815,131.68008 C197.696177,131.37827 196.247485,133.490946 195.663984,134.396378 C195.080483,135.301811 190.734406,137.706237 188.983903,139.517103 C187.2334,141.327968 182.887324,141.026157 182.887324,141.026157 C183.447034,138.140399 184.531378,135.3818 186.086519,132.887324 C188.410463,129.577465 189.567404,125.050302 192.183099,124.144869 C194.353426,123.281898 196.04697,121.526038 196.830986,119.325956 C196.826581,119.295935 196.826581,119.265433 196.830986,119.235412 L197.595573,119.386318 C199.245473,120.27163 201.619718,118.923541 202.897384,116.368209 C204.064386,114.024145 203.903421,111.509054 202.575453,110.412475 L163.088531,73.4406439 C163.229096,74.5459188 163.513181,75.6281471 163.933602,76.6599598 C164.410561,77.6933697 164.771582,78.7764326 165.01006,79.889336 C165.01006,79.889336 173.169014,97.7565392 173.05835,99.7585513 C172.970359,100.946685 172.815858,102.128954 172.595573,103.299799 C172.595573,103.299799 172.897384,108.32998 173.279678,114.71831 L177.796781,115.583501 C177.532993,116.111052 177.304458,116.655504 177.112676,117.21328 C176.723146,118.789918 176.527202,120.40815 176.529175,122.032193 C176.102664,124.45342 175.298069,126.792519 174.144869,128.963783 C174.376258,132.756539 174.597586,136.146881 174.748491,138.410463 C175.372233,147.344064 170.593561,154.889336 169.828974,159.537223 C169.607646,160.855131 168.963783,163.923541 168.169014,167.585513 C172.545529,168.420617 176.993331,168.824963 181.448692,168.792757 L175.784708,156.579477 C175.130785,155.181087 176.488934,151.720322 178.8833,150.633803 Z M213.591549,94.3863179 C213.903421,93.9637827 214.16499,93.6016097 214.386318,93.5311871 C214.470893,93.5029006 214.558853,93.4859851 214.647887,93.4808853 C214.647887,94.1146881 214.647887,94.5674044 214.647887,94.5674044 C214.647887,94.5674044 214.396378,95.2716298 214.014085,96.3078471 C213.785881,95.6867993 213.627298,95.0423459 213.541247,94.3863179 L213.591549,94.3863179 Z" id="Shape" fill="#ED1C24" fill-rule="nonzero"></path>
            <path d="M261.750503,121.639839 C261.94165,120.110664 262.042254,119.205231 262.042254,119.205231 L262.042254,118.903421 C261.478873,118.138833 260.895372,117.334004 260.402414,116.619718 C260.123019,116.207436 259.870968,115.777271 259.647887,115.331992 C259.292653,116.122359 258.678796,116.76815 257.907445,117.162978 C256.438632,117.746479 255.301811,118.169014 256.730382,119.788732 C257.241582,120.377404 257.699453,121.010344 258.098592,121.68008 C259.314387,121.603702 260.53332,121.59027 261.750503,121.639839 L261.750503,121.639839 Z" id="Path" fill="#8D0000" fill-rule="nonzero"></path>
            <path d="M152.273642,104.084507 C152.280551,103.361142 152.330943,102.638846 152.424547,101.921529 C152.424547,101.921529 150.27163,76.6700201 150.573441,74.5171026 C150.814476,73.186549 150.814476,71.8235113 150.573441,70.4929577 C150.472837,69.6478873 149.72837,69.2354125 149.567404,68.3299799 C144.44668,70.0100604 139.255533,74.7686117 135.895372,81.5191147 C130.533199,92.2837022 131.871227,104.034205 138.812877,107.7666 C139.201971,107.973082 139.605429,108.151276 140.020121,108.299799 L140.020121,108.299799 L140.120724,108.299799 C141.06512,108.637595 142.05599,108.827625 143.05835,108.863179 L151.519115,110.482897 C151.719067,110.091371 151.877541,109.680014 151.991952,109.255533 C151.961771,108.853119 152.273642,105.160966 152.273642,104.084507 Z" id="Path" fill="#ED1C24" fill-rule="nonzero"></path>
            <path d="M250.945674,347.374245 C251.639839,345.674044 258.269618,344.134809 261.730382,342.344064 C261.911469,342.002012 262.102616,341.639839 262.303823,341.338028 C263.118712,336.559356 263.501006,332.374245 263.651911,330.352113 C263.904087,327.603123 264.388718,324.880442 265.100604,322.21328 L265.583501,321.790744 L265.583501,317.7666 C261.901408,310.020121 253.148893,296.197183 251.247485,291.237425 C248.903421,285.150905 251.710262,282.565392 253.822938,280.462777 C255.452497,279.140269 257.208084,277.98111 259.064386,277.002012 C258.953722,276.488934 258.863179,275.995976 258.812877,275.613682 C258.616663,274.281139 258.929122,272.923556 259.688129,271.810865 C258.303294,271.283233 257.300753,270.062582 257.052314,268.60161 C256.559356,266.358149 253.531187,236.649899 252.625755,227.816901 C252.625755,227.676056 252.555332,227.545272 252.535211,227.464789 C252.426054,226.931846 252.372113,226.389073 252.374245,225.84507 C244.71831,222.977867 225.663984,212.7666 221.720322,209.698189 C217.50503,206.418511 212.585513,207.354125 206.488934,207.122736 C202.800531,206.921108 199.382087,205.125599 197.122736,202.203219 C197.122736,202.203219 196.780684,202.062374 196.317907,201.810865 C195.734406,205.140845 195.191147,208.853119 194.889336,212.78672 C194.371641,221.022278 194.475894,229.285155 195.201207,237.50503 C195.603622,242.726358 196.297787,250.402414 198.299799,254.607646 C198.035027,259.635043 198.058539,264.673482 198.370221,269.698189 C198.953722,275.734406 201.197183,321.539235 201.197183,321.539235 C201.197183,321.539235 200.01006,329.104628 199.476861,333.953722 C198.943662,338.802817 199.185111,352.635815 199.476861,356.559356 C199.768612,360.482897 200.342052,388.511066 199.476861,389.708249 C198.61167,390.905433 190.472837,393.631791 189.305835,393.32998 C188.138833,393.028169 182.917505,398.450704 184.657948,404.486922 C186.39839,410.523139 193.370221,411.418511 195.985915,411.720322 C198.60161,412.022133 208.470825,416.539235 209.346076,416.237425 C210.221328,415.935614 214.285714,413.219316 214.859155,411.720322 C215.432596,410.221328 212.535211,399.356137 213.993964,392.424547 C215.452716,385.492958 218.018109,378.259557 221.539235,369.215292 C225.060362,360.171026 226.478873,344.496982 225.895372,342.052314 C225.311871,339.607646 229.094567,330.593561 229.094567,329.386318 C229.094567,328.179074 231.991952,328.480885 231.991952,328.480885 L234.607646,321.247485 C234.607646,321.247485 235.221328,338.158954 236.056338,344.496982 C236.891348,350.83501 239.839034,371.65996 240.412475,374.939638 C240.985915,378.219316 239.245473,386.700201 238.098592,389.466801 C236.95171,392.2334 237.806841,403.32998 237.515091,405.432596 C237.22334,407.535211 240.995976,408.752515 243.028169,408.752515 C245.060362,408.752515 255.804829,407.243461 261.327968,406.338028 C266.851107,405.432596 265.100604,406.639839 267.424547,402.424547 C269.748491,398.209256 265.965795,398.501006 264.225352,397.002012 C262.484909,395.503018 257.263581,393.983903 254.939638,392.77666 C252.615694,391.569416 252.323944,386.448692 252.927565,382.22334 C253.531187,377.997988 255.251509,363.843058 258.732394,355.060362 L258.853119,354.72837 C254.406439,354.44668 248.62173,353.05835 250.945674,347.374245 Z" id="Path" fill="#ED1C24" fill-rule="nonzero"></path>
            <path d="M174.748491,138.420523 C174.597586,136.156942 174.376258,132.7666 174.144869,128.973843 C173.67584,129.838317 173.112368,130.648097 172.464789,131.38833 C169.275654,135.01006 162.303823,147.062374 160.855131,150.080483 C159.391188,153.724085 158.128389,157.445312 157.072435,161.227364 C159.420704,163.175705 161.950777,164.893864 164.627767,166.358149 C165.742927,166.940092 166.93533,167.360143 168.169014,167.605634 C168.963783,163.913481 169.607646,160.84507 169.828974,159.557344 C170.593561,154.899396 175.372233,147.354125 174.748491,138.420523 Z" id="Path" fill="#ED1C24" fill-rule="nonzero"></path>
            <path d="M158.189135,68.832998 C155.501005,67.4772972 152.369717,67.3023242 149.547284,68.3501006 C149.72837,69.2555332 150.472837,69.668008 150.55332,70.5130785 C150.794356,71.8436321 150.794356,73.2066698 150.55332,74.5372233 C150.251509,76.6901408 152.404427,101.94165 152.404427,101.94165 C152.310823,102.658967 152.26043,103.381262 152.253521,104.104628 C152.253521,105.181087 151.94165,108.873239 151.94165,109.336016 C151.827239,109.760497 151.668766,110.171854 151.468813,110.56338 L173.259557,114.748491 C172.877264,108.350101 172.575453,103.32998 172.575453,103.32998 C172.795737,102.159135 172.950238,100.976866 173.038229,99.7887324 C173.189135,97.77666 164.98994,79.9195171 164.98994,79.9195171 C164.751461,78.8066137 164.39044,77.7235508 163.913481,76.6901408 C163.49306,75.6583282 163.208975,74.5760999 163.06841,73.4708249 L161.810865,72.2937626 C160.906755,70.8597568 159.662735,69.6710262 158.189135,68.832998 L158.189135,68.832998 Z" id="Path" fill="#D51C24" fill-rule="nonzero"></path>
            <path d="M259.295775,101.851107 C259.071809,104.915851 258.655157,107.963459 258.04829,110.975855 C258.469517,112.473452 259.021609,113.931111 259.698189,115.331992 C260.110664,114.587525 260.462777,113.762575 260.875252,113.06841 C261.625258,112.144339 262.435186,111.270558 263.299799,110.452716 L262.092555,118.903421 C263.199195,120.412475 264.225352,121.750503 264.225352,121.750503 C264.225352,121.750503 263.118712,121.67002 261.750503,121.639839 C261.559356,123.128773 261.307847,125.201207 260.995976,127.615694 C260.20212,125.5664 259.250227,123.581889 258.148893,121.68008 L257.545272,121.750503 C256.513872,121.807714 255.491306,121.532679 254.627767,120.965795 C254.36084,121.708997 253.950677,122.392602 253.420523,122.977867 C252.127901,124.311599 250.621599,125.420075 248.963783,126.257545 C248.440644,127.052314 247.957746,127.676056 247.7666,127.917505 C251.197183,130.28169 256.237425,133.672032 257.545272,134.064386 C259.557344,134.668008 265.392354,135.875252 265.965795,137.082495 C266.539235,138.289738 269.748491,140.392354 269.748491,140.392354 C269.748491,140.392354 276.710262,142.203219 277.877264,145.513078 C278.521127,147.344064 281.901408,157.354125 285.150905,166.639839 C286.313161,165.549191 287.364568,164.346139 288.289738,163.04829 C290.160966,160.241449 296.247485,160.704225 296.247485,160.704225 C296.752548,160.259913 297.302065,159.868846 297.887324,159.537223 C298.561368,159.134809 303.078471,158.963783 306.810865,158.89336 L306.810865,158.60161 L304.004024,155.583501 C304.004024,155.583501 295.804829,156.991952 294.396378,154.879276 C292.987928,152.7666 293.692153,149.72837 293.692153,149.72837 C293.692153,149.72837 291.589537,149.255533 291.348089,147.615694 C291.10664,145.975855 293.460765,144.597586 293.460765,144.597586 C293.460765,144.597586 291.348089,143.199195 291.348089,142.49497 C291.411386,141.476406 291.569686,140.465981 291.820926,139.476861 C291.898963,138.843265 291.629893,138.216716 291.1167,137.837022 C291.1167,137.837022 287.837022,137.132797 288.541247,135.261569 C289.245473,133.390342 292.565392,129.869215 293.460765,127.293763 C294.356137,124.71831 292.283702,122.142857 292.987928,118.62173 C293.595634,116.122906 294.615651,113.742868 296.006036,111.579477 C296.006036,111.579477 297.645875,106.187123 301.39839,103.843058 C305.150905,101.498994 313.812877,97.2837022 323.420523,99.3863179 C326.324087,99.9317343 329.071919,101.109867 331.468813,102.837022 L331.67002,102.645875 C334.879276,99.7183099 334.879276,92.1227364 335.462777,84.2253521 C335.706163,80.4988182 334.886301,76.7797842 333.098592,73.501006 C333.018109,71.8108652 332.927565,70.6136821 332.927565,70.6136821 C332.927565,70.6136821 330.523139,66.8812877 329.859155,66.0060362 C329.195171,65.1307847 324.597586,63.9939638 322.404427,62.9879276 C320.211268,61.9818913 318.018109,60.5734406 318.018109,60.5734406 L315.513078,59.2052314 C315.073614,58.4971901 314.503449,57.8792271 313.832998,57.3843058 C312.492556,56.8516275 311.121987,56.3981305 309.72837,56.0261569 L308.169014,55.1710262 L307.112676,50.9557344 L305.100604,50.7746479 C305.251509,47.8571429 305.472837,43.9235412 305.603622,43.2394366 C305.674044,42.9074447 306.297787,41.0462777 307.132797,38.5513078 L308.138833,38.4104628 C309.235412,38.1891348 312.082495,34.8993964 312.746479,32.9275654 C313.410463,30.9557344 312.746479,27.8973843 311.861167,27.0020121 C311.566442,26.7596109 311.181118,26.6568578 310.804829,26.7203219 C311.355426,25.042135 311.693408,23.3015272 311.810865,21.5392354 C311.589537,18.028169 310.714286,11.4788732 309.798793,10.1307847 C308.859043,8.89352555 307.833727,7.72365685 306.730382,6.62977867 L308.04829,5.96579477 C308.04829,5.96579477 301.911469,0.935613682 297.303823,0.271629779 C292.696177,-0.392354125 285.462777,1.14688129 282.837022,3.55130785 C280.211268,5.95573441 277.132797,13.1991952 276.911469,14.084507 C276.690141,14.9698189 277.565392,17.1026157 277.565392,17.1026157 C277.565392,17.1026157 276.257545,24.5573441 276.478873,26.0865191 C276.478873,26.1871227 276.478873,26.3480885 276.539235,26.5392354 C276.05101,26.7235437 275.610788,27.0158789 275.251509,27.3943662 C274.376258,28.4909457 274.808853,29.1448692 275.905433,32.0020121 C276.50991,33.3683358 277.24079,34.6751611 278.088531,35.9054326 C278.581489,38.7424547 279.094567,41.38833 279.325956,42.5352113 C279.979879,45.3822938 283.490946,49.5774648 283.490946,49.5774648 L285.56338,50 L284.899396,56.8008048 C284.899396,56.8008048 285.55332,57.6861167 281.830986,59.4366197 C281.68008,59.5070423 281.488934,59.5674044 281.307847,59.637827 C278.148893,57.0925553 273.06841,52.9476861 272.615694,52.2032193 C271.961771,51.1066398 270.432596,48.6921529 269.114688,48.9134809 C267.796781,49.1348089 260.784708,50.2313883 259.899396,50.4426559 C258.646686,51.0199493 257.456659,51.7245266 256.348089,52.5452716 L256.297787,52.7665996 L239.527163,52.7665996 C238.062621,52.7721158 236.876744,53.9579935 236.871227,55.4225352 L236.871227,66.1167002 C236.876744,67.581242 238.062621,68.7671196 239.527163,68.7726358 L249.869215,68.7726358 L249.366197,69.6478873 C249.366197,69.6478873 253.752515,71.0663984 256.267606,71.7303823 C256.267606,71.7303823 256.207243,71.8108652 256.197183,71.8511066 C255.613682,73.8631791 250.935614,81.498994 250.643863,82.3742455 C250.583501,82.5754527 250.050302,83.6720322 249.275654,85.2716298 C250.028198,85.3523203 250.762345,85.5562499 251.448692,85.8752515 C252.323944,86.7806841 259.295775,99.1348089 259.295775,101.851107 Z" id="Path" fill="#730E03" fill-rule="nonzero"></path>
            <path d="M272.354125,223.400402 C274.429636,229.67974 276.013885,236.110916 277.092555,242.635815 L280.110664,233.32998 C279.770851,231.951704 279.538763,230.549083 279.416499,229.134809 C279.185111,226.1167 280.140845,221.207243 281.207243,216.921529 C279.134809,218.289738 277.243461,219.496982 275.513078,220.56338 L274.134809,221.820926 L272.354125,223.400402 Z" id="Path" fill="#730E03" fill-rule="nonzero"></path>
            <path d="M276.207243,266.156942 C277.847082,264.969819 279.808853,263.511066 281.67002,262.132797 C282.193159,259.114688 282.676056,256.830986 282.897384,255.643863 C284.305835,249.315895 283.60161,249.084507 283.832998,246.971831 C283.777612,245.853804 283.550263,244.750989 283.158954,243.702213 L276.207243,266.156942 Z" id="Path" fill="#C1272D" fill-rule="nonzero"></path>
            <path d="M279.768612,340.593561 C277.334004,341.247485 275.492958,341.468813 274.929577,340.905433 C272.585513,338.561368 268.138833,327.082495 267.193159,321.921529 C267.103617,321.451353 266.972312,320.990102 266.800805,320.54326 C266.368209,321.026157 265.915493,321.468813 265.583501,321.770624 L265.583501,327.937626 C265.583501,327.937626 264.748491,332.967807 265.633803,333.822938 C266.519115,334.678068 265.925553,338.792757 264.16499,339.376258 C263.364426,339.813222 262.723291,340.493107 262.334004,341.317907 C261.614321,345.886686 260.451906,350.374622 258.863179,354.71831 C260.370233,354.828196 261.883288,354.828196 263.390342,354.71831 C263.390342,354.71831 271.700201,353.04829 275.01006,352.967807 C277.334726,352.93564 279.650239,352.669372 281.921529,352.173038 C280.971647,348.724511 280.298815,345.205602 279.909457,341.649899 C279.818913,341.287726 279.798793,340.935614 279.768612,340.593561 Z" id="Path" fill="#730E03" fill-rule="nonzero"></path>
            <path d="M316.016097,357.676056 C316.891348,357.887324 317.796781,358.078471 318.661972,358.229376 C318.088531,355.915493 317.555332,353.863179 317.132797,352.253521 C316.659443,354.038726 316.286623,355.849082 316.016097,357.676056 L316.016097,357.676056 Z" id="Path" fill="#730E03" fill-rule="nonzero"></path>
            <path d="M253.239437,121.760563 C252.913055,122.383518 252.45265,122.926383 251.891348,123.350101 C251.353588,123.721947 250.758988,124.003957 250.130785,124.185111 C249.924916,124.635569 249.696595,125.075424 249.44668,125.503018 C251.180718,124.844015 252.557342,123.485649 253.239437,121.760563 L253.239437,121.760563 Z" id="Path" fill="#730E03" fill-rule="nonzero"></path>
            <path d="M269.788732,189.43662 C269.073448,188.841066 268.551626,188.046076 268.289738,187.152918 C267.852961,184.860627 266.857804,182.711365 265.392354,180.895372 L265.392354,190.472837 C265.505743,191.634945 265.75562,192.779652 266.136821,193.8833 L266.257545,193.752515 C267.536176,192.400067 268.71626,190.957742 269.788732,189.43662 Z" id="Path" fill="#730E03" fill-rule="nonzero"></path>
            <path d="M261.750503,121.639839 C263.118712,121.639839 264.225352,121.750503 264.225352,121.750503 C264.225352,121.750503 263.219316,120.412475 262.092555,118.903421 L262.092555,119.205231 C262.092555,119.205231 261.94165,120.110664 261.750503,121.639839 Z" id="Path" fill="#C1272D" fill-rule="nonzero"></path>
            <path d="M261.730382,342.354125 C258.269618,344.134809 251.67002,345.674044 250.945674,347.384306 C248.62173,353.06841 254.406439,354.426559 258.832998,354.72837 C260.421725,350.384682 261.58414,345.896746 262.303823,341.327968 C262.102616,341.649899 261.911469,342.012072 261.730382,342.354125 Z" id="Path" fill="#D51C24" fill-rule="nonzero"></path>
            <path d="M253.843058,226.327968 C253.420523,226.197183 252.937626,226.036217 252.394305,225.83501 C252.392234,226.379012 252.446174,226.921786 252.555332,227.454728 C252.555332,227.535211 252.615694,227.665996 252.645875,227.806841 C253.551308,236.639839 256.579477,266.348089 257.072435,268.591549 C257.320874,270.052522 258.323414,271.273173 259.708249,271.800805 C258.949243,272.913496 258.636784,274.271079 258.832998,275.603622 C258.832998,276.016097 258.973843,276.478873 259.084507,276.991952 C262.414487,275.080483 266.227364,273.078471 267.585513,272.22334 L277.092555,242.635815 C276.013885,236.110916 274.429636,229.67974 272.354125,223.400402 L274.104628,221.820926 L275.482897,220.56338 C271.553321,223.075025 267.455811,225.313698 263.219316,227.263581 C263.219316,227.263581 260.171026,228.199195 253.843058,226.327968 Z" id="Path" fill="#D51C24" fill-rule="nonzero"></path>
            <path d="M265.583501,321.770624 C265.915493,321.468813 266.368209,321.026157 266.800805,320.54326 C266.519115,319.758551 266.10664,318.812877 265.603622,317.756539 L265.583501,321.770624 Z" id="Path" fill="#006837" fill-rule="nonzero"></path>
            <path d="M236.026157,115.352113 C236.026157,115.352113 231.94165,122.394366 235.442656,127.052314 C238.943662,131.710262 239.537223,131.136821 239.537223,131.136821 L240.412475,134.064386 L245.674044,143.470825 C245.674044,143.470825 246.056338,145.301811 253.279678,151.076459 C254.285714,151.841046 255.140845,152.625755 256.046278,153.400402 L253.32998,163.641851 C253.32998,163.641851 252.454728,177.676056 252.454728,180.01006 C252.473595,180.432998 252.579778,180.847456 252.7666,181.227364 C252.615694,182.394366 252.50503,183.390342 252.454728,184.104628 C252.055901,189.750153 252.008862,195.415029 252.313883,201.066398 C255.945674,201.39839 258.812877,201.720322 258.812877,201.720322 C258.812877,201.720322 260.663984,199.637827 266.187123,193.8833 C265.805922,192.779652 265.556045,191.634945 265.442656,190.472837 L265.442656,180.895372 C266.908106,182.711365 267.903263,184.860627 268.34004,187.152918 C268.601928,188.046076 269.12375,188.841066 269.839034,189.43662 C274.004024,183.661972 277.716298,176.358149 280.83501,171.961771 C282.141661,170.073942 283.602026,168.297277 285.201207,166.649899 C281.95171,157.394366 278.571429,147.384306 277.927565,145.523139 C276.760563,142.21328 269.798793,140.402414 269.798793,140.402414 C269.798793,140.402414 266.599598,138.289738 266.016097,137.092555 C265.432596,135.895372 259.627767,134.678068 257.595573,134.074447 C256.287726,133.682093 251.247485,130.291751 247.816901,127.927565 C248.008048,127.686117 248.490946,127.062374 249.014085,126.267606 C250.671901,125.430135 252.178203,124.32166 253.470825,122.987928 C254.000979,122.402662 254.411142,121.719057 254.678068,120.975855 C255.541608,121.54274 256.564173,121.817774 257.595573,121.760563 L258.199195,121.690141 C257.800056,121.020404 257.342185,120.387465 256.830986,119.798793 C255.402414,118.229376 256.539235,117.78672 258.008048,117.173038 C258.779399,116.778211 259.393256,116.132419 259.748491,115.342052 C259.071911,113.941171 258.519818,112.483512 258.098592,110.985915 C258.705458,107.973519 259.12211,104.925911 259.346076,101.861167 C259.346076,99.1448692 252.374245,86.7706237 251.498994,85.8853119 C250.812647,85.5663103 250.0785,85.3623807 249.325956,85.2816901 C246.68008,90.6740443 241.076459,101.800805 240.171026,103.390342 C238.953722,105.412475 236.026157,115.352113 236.026157,115.352113 Z M250.110664,124.185111 C250.738867,124.003957 251.333467,123.721947 251.871227,123.350101 C252.43253,122.926383 252.892935,122.383518 253.219316,121.760563 C252.537221,123.485649 251.160597,124.844015 249.426559,125.503018 C249.683314,125.075838 249.918355,124.635976 250.130785,124.185111 L250.110664,124.185111 Z" id="Shape" fill="#D51C24" fill-rule="nonzero"></path>
            <path d="M368.963783,232.173038 C368.490946,221.629779 365.211268,208.279678 364.939638,205.231388 C364.668008,202.183099 364.004024,200.54326 364.004024,193.279678 C364.004024,186.016097 359.084507,178.752515 359.084507,178.752515 C358.589238,175.969826 357.882975,173.228851 356.971831,170.55332 C356.592816,169.538539 355.941982,168.647558 355.090543,167.977867 C355.809309,167.103468 356.439495,166.159874 356.971831,165.160966 C359.315895,160.714286 357.203219,162.585513 358.138833,157.897384 C359.074447,153.209256 356.971831,150.402414 356.971831,142.434608 C356.971831,134.466801 354.396378,131.187123 350.875252,125.331992 C350.424898,124.57955 349.931104,123.853976 349.396378,123.158954 C349.396378,123.158954 349.45674,123.028169 349.476861,122.987928 C349.828974,122.173038 349.356137,121.468813 349.004024,120.643863 C348.651911,119.818913 347.364185,119.939638 347.364185,119.939638 C347.14189,119.185669 346.579874,118.57899 345.84507,118.299799 C345.365547,118.144639 344.84521,118.368255 344.627767,118.822938 C343.62173,118.199195 342.615694,117.816901 341.971831,117.364185 C340.069531,115.449027 338.501851,113.22843 337.334004,110.794769 C335.221328,106.579477 333.108652,101.418511 323.511066,99.3158954 C313.913481,97.2132797 305.231388,101.418511 301.478873,103.762575 C297.726358,106.10664 296.096579,111.498994 296.096579,111.498994 C294.705193,113.661853 293.685102,116.042065 293.078471,118.541247 C292.374245,122.052314 294.486922,124.627767 293.541247,127.203219 C292.595573,129.778672 289.325956,133.299799 288.62173,135.171026 C287.917505,137.042254 291.197183,137.746479 291.197183,137.746479 C291.715638,138.121984 291.986106,138.75179 291.901408,139.386318 C291.653734,140.375795 291.498805,141.386199 291.438632,142.404427 C291.438632,143.108652 293.541247,144.517103 293.541247,144.517103 C293.541247,144.517103 291.197183,145.925553 291.438632,147.535211 C291.68008,149.144869 293.782696,149.637827 293.782696,149.637827 C293.782696,149.637827 293.078471,152.655936 294.486922,154.798793 C295.895372,156.94165 304.084507,155.503018 304.084507,155.503018 L306.901408,158.521127 L306.901408,158.812877 C303.169014,158.8833 298.661972,159.054326 297.987928,159.45674 C297.398227,159.785292 296.848038,160.180213 296.348089,160.633803 C296.348089,160.633803 290.251509,160.160966 288.380282,162.977867 C286.509054,165.794769 284.869215,166.257545 280.885312,171.881288 C276.901408,177.50503 271.981891,187.816901 266.358149,193.672032 C260.734406,199.527163 258.853119,201.639839 258.853119,201.639839 C258.853119,201.639839 246.438632,200.231388 240.583501,200.231388 C234.72837,200.231388 226.287726,197.655936 226.287726,197.655936 L213.873239,192.263581 C213.873239,192.263581 210.593561,188.511066 207.77666,185.472837 C204.959759,182.434608 197.464789,181.247485 197.464789,181.247485 L197.283702,181.247485 L195.643863,177.716298 C196.470683,176.759945 197.069268,175.628139 197.394366,174.406439 C198.061837,173.609498 198.635676,172.738613 199.104628,171.810865 C199.778672,170.201207 198.309859,168.430584 197.585513,166.569416 C196.861167,164.708249 196.519115,163.712274 195.311871,163.62173 C194.622905,163.638045 193.942043,163.774217 193.299799,164.024145 L187.354125,151.197183 C186.137738,149.323834 183.79532,148.529159 181.690141,149.275654 L178.8833,150.633803 C176.549296,151.710262 175.181087,155.171026 175.865191,156.589537 L185.925553,178.199195 C186.468813,179.366197 189.054326,180.301811 190.744467,180.211268 L191.569416,181.971831 C190.201207,183.038229 188.551308,185.301811 187.645875,185.995976 L186.710262,186.700201 C187.082601,187.889217 188.066999,188.785173 189.285714,189.044266 L191.39839,189.517103 C190.696321,189.963535 190.402604,190.840491 190.694165,191.619718 C190.958463,192.441018 191.446146,193.172543 192.102616,193.732394 C192.124449,194.361737 192.20188,194.987917 192.334004,195.603622 C192.428019,196.24863 192.762189,196.834327 193.269618,197.243461 C193.269618,197.243461 193.501006,198.179074 193.973843,199.587525 C194.44668,200.995976 197.253521,202.162978 197.253521,202.162978 C199.51513,205.087936 202.937795,206.883733 206.629779,207.082495 C212.716298,207.323944 217.635815,206.38833 221.861167,209.668008 C226.086519,212.947686 247.625755,224.426559 253.953722,226.297787 C260.28169,228.169014 263.32998,227.2334 263.32998,227.2334 C263.32998,227.2334 269.778672,224.547284 281.287726,216.891348 C280.231388,221.187123 279.275654,226.086519 279.496982,229.114688 C279.618461,230.525745 279.850563,231.925084 280.191147,233.299799 L267.706237,272.193159 C265.392354,273.651911 255.965795,278.420523 253.953722,280.422535 C251.94165,282.424547 249.034205,285.110664 251.37827,291.207243 C253.722334,297.303823 266.37827,316.740443 267.313883,321.901408 C268.249497,327.062374 272.706237,338.531187 275.040241,340.875252 C275.613682,341.438632 277.444668,341.217304 279.889336,340.573441 C279.889336,340.905433 279.939638,341.257545 279.969819,341.579477 C280.905433,351.639839 286.529175,365.724346 286.529175,368.289738 C286.529175,370.855131 286.529175,382.816901 286.760563,384.929577 C286.991952,387.042254 287.696177,390.080483 287.696177,390.080483 C286.925749,396.92741 286.77087,403.829632 287.2334,410.704225 C287.927565,423.118712 290.744467,448.661972 290.744467,452.645875 C290.757005,455.70484 290.521492,458.759786 290.040241,461.780684 C289.808853,462.716298 289.567404,464.356137 289.567404,464.356137 L290.070423,464.356137 C289.501637,465.122468 288.865287,465.836258 288.169014,466.488934 C285.352113,468.832998 271.066398,477.032193 268.249497,477.736419 C265.432596,478.440644 261.921529,480.754527 262.152918,482.887324 C262.384306,485.020121 262.152918,486.639839 264.969819,487.806841 C267.78672,488.973843 271.760563,490.82495 279.969819,488.742455 C288.179074,486.65996 290.030181,485.935614 295.432596,484.71831 C300.83501,483.501006 305.040241,483.782696 306.207243,483.078471 C307.374245,482.374245 309.024145,473.018109 308.078471,469.72837 C307.605634,468.038229 307.002012,464.014085 306.519115,460.492958 C307.525151,459.17505 308.169014,457.012072 308.531187,452.857143 C309.235412,445.120724 311.549296,427.78672 311.810865,427.082495 C312.072435,426.37827 315.56338,417.022133 315.56338,407.404427 C315.56338,397.78672 313.450704,391.237425 314.15493,386.076459 C314.859155,380.915493 316.026157,363.118712 316.026157,358.661972 C316.221669,356.47548 316.625925,354.312709 317.2334,352.203219 C317.947686,354.939638 318.973843,358.943662 320.01006,363.350101 C321.881288,371.317907 322.826962,374.828974 325.171026,382.334004 C327.515091,389.839034 332.21328,400.603622 332.21328,400.603622 L334.557344,417.243461 C334.557344,417.243461 339.014085,437.857143 339.949698,444.185111 C340.885312,450.513078 339.949698,452.152918 339.71831,455.432596 C339.495993,457.105057 339.736069,458.806465 340.412475,460.352113 C339.922319,461.785687 339.687372,463.294115 339.71831,464.808853 C339.99495,466.017426 340.557275,467.142075 341.358149,468.088531 C341.225331,469.375143 340.906797,470.635722 340.412475,471.830986 C339.71831,473.239437 337.132797,476.519115 335.965795,478.631791 C334.798793,480.744467 329.637827,483.782696 327.997988,486.830986 C326.358149,489.879276 325.885312,494.094567 328.933602,495.030181 C331.981891,495.965795 342.012072,496.207243 346.036217,494.094567 C350.060362,491.981891 359.396378,486.599598 361.267606,484.486922 C363.138833,482.374245 361.509054,480.734406 360.804829,478.158954 C360.209414,475.300343 359.426365,472.484053 358.460765,469.72837 C357.283702,466.911469 357.283702,467.152918 356.579477,467.615694 C355.875252,468.078471 358.923541,465.040241 359.396378,462.927565 C359.869215,460.814889 357.987928,451.68008 358.460765,448.169014 C358.933602,444.657948 360.804829,435.513078 361.267606,425.674044 C361.730382,415.83501 360.56338,404.356137 357.756539,396.156942 C356.074097,391.333409 354.729466,386.398612 353.732394,381.38833 C353.85849,380.679771 353.778169,379.949896 353.501006,379.285714 C353.177851,378.312682 353.018077,377.292847 353.028169,376.267606 C352.33727,372.241174 351.947191,368.168879 351.861167,364.084507 C351.861167,358.460765 353.501006,350.261569 352.092555,346.046278 C350.684105,341.830986 353.259557,328.470825 355.603622,315.342052 C357.947686,302.21328 356.539235,287.696177 356.539235,287.696177 C356.539235,287.696177 357.484909,283.672032 358.179074,278.792757 C358.873239,273.913481 358.420523,261.921529 357.243461,261.921529 C356.066398,261.921529 359.124748,260.050302 361.468813,258.179074 C363.812877,256.307847 367.092555,250.442656 367.092555,250.442656 C368.644492,244.483872 369.275536,238.322706 368.963783,232.173038 L368.963783,232.173038 Z M282.967807,255.603622 C282.706237,256.800805 282.263581,259.084507 281.740443,262.102616 C279.879276,263.501006 277.917505,264.969819 276.287726,266.126761 L283.229376,243.641851 C283.622402,244.690132 283.849807,245.793217 283.903421,246.911469 C283.672032,249.044266 284.376258,249.285714 282.967807,255.603622 Z M342.484909,152.273642 C341.769346,155.138147 341.622375,158.115161 342.052314,161.036217 C340.82495,160.030181 339.909457,159.305835 339.909457,159.305835 L339.909457,159.124748 C340.623742,156.991952 341.710262,153.923541 342.625755,151.810865 L342.625755,151.810865 C342.575453,151.95171 342.525151,152.102616 342.484909,152.273642 L342.484909,152.273642 Z M343.309859,146.770624 C341.730192,149.819186 340.352315,152.968141 339.185111,156.197183 C338.614158,154.288465 337.374897,152.649212 335.694165,151.579477 C334.828974,151.086519 333.993964,150.674044 333.209256,150.301811 C333.148893,147.545272 333.279678,145.27163 333.812877,144.547284 C335.452716,142.434608 336.38833,144.315895 338.269618,139.386318 C340.150905,134.45674 337.796781,128.843058 339.678068,126.740443 C340.452716,125.865191 341.036217,125.231388 341.488934,124.72837 C341.740443,125.040241 341.991952,125.352113 342.243461,125.684105 C342.183099,126.227364 342.132797,126.690141 342.132797,127.082495 C342.132797,128.219316 343.309859,129.024145 344.486922,129.094567 C344.878973,129.833009 345.215256,130.599734 345.492958,131.38833 C345.941455,132.639291 346.189318,133.953305 346.227364,135.28169 C345.975855,138.460765 345.221328,143.148893 343.309859,146.770624 L343.309859,146.770624 Z" id="Shape" fill="#E6E6E6" fill-rule="nonzero"></path>
            <path d="M139.486922,484.114688 C137.575453,482.837022 129.607646,484.43662 126.096579,483.108652 C122.585513,481.780684 118.118712,477.072435 118.118712,477.072435 L112.404427,473.561368 C112.803216,472.135807 113.328438,470.748682 113.973843,469.416499 C114.617706,468.410463 113.651911,463.993964 113.651911,463.993964 L113.651911,446.810865 C113.651911,442.665996 122.263581,415.875252 122.585513,414.617706 C122.907445,413.360161 126.096579,409.195171 127.374245,404.72837 C128.651911,400.261569 128.963783,392.283702 128.963783,392.283702 C128.963783,392.283702 129.285714,380.482897 129.285714,371.871227 C129.285714,363.259557 127.374245,340.935614 126.730382,338.380282 C126.730382,338.189135 126.609658,337.917505 126.519115,337.625755 C128.390342,334.547284 128.008048,332.645875 128.008048,332.645875 C128.008048,332.645875 115.885312,279.054326 114.295775,274.295775 C112.609207,269.839552 110.69179,265.474154 108.551308,261.217304 C108.551308,261.217304 108.873239,258.350101 105.684105,253.8833 C102.49497,249.416499 98.028169,246.549296 98.9839034,240.804829 C99.0744467,240.251509 99.1549296,239.476861 99.2253521,238.60161 C102.032193,239.44668 109.225352,241.498994 112.917505,241.498994 C117.555332,241.498994 117.092555,242.193159 118.490946,238.712274 C119.889336,235.231388 120.342052,219.195171 115.231388,208.531187 C111.582814,201.002336 109.203347,192.922348 108.189135,184.617706 C107.957746,181.358149 108.8833,177.645875 110.28169,176.720322 C111.36603,175.896414 111.972471,174.589364 111.901408,173.229376 C111.942115,172.734759 111.662826,172.269278 111.207243,172.072435 C111.207243,172.072435 111.67002,171.841046 111.207243,170.211268 C111.105575,169.857552 110.956682,169.519159 110.764588,169.205231 L115.794769,169.205231 C116.036217,169.527163 116.287726,169.748491 116.549296,169.748491 C117.012072,169.748491 117.434608,169.185111 117.806841,168.249497 L123.450704,168.249497 C123.832998,169.255533 124.265594,169.808853 124.738431,169.808853 C126.096579,169.808853 127.193159,165.231388 127.193159,159.577465 C127.193159,153.923541 126.096579,149.356137 124.738431,149.356137 C124.305835,149.356137 123.913481,149.859155 123.561368,150.674044 L117.756539,150.674044 C117.394366,149.818913 116.991952,149.295775 116.549296,149.295775 C116.287726,149.295775 116.036217,149.507042 115.794769,149.828974 L98.4004024,149.828974 C98.3762054,149.415575 98.2773611,149.009972 98.1086519,148.631791 L100.663984,148.631791 C100.873843,148.660549 101.08128,148.564708 101.195406,148.386262 C101.309532,148.207815 101.309532,147.979308 101.195406,147.800861 C101.08128,147.622414 100.873843,147.526574 100.663984,147.555332 L97.334004,147.555332 C96.7019211,146.932482 95.8569005,146.572899 94.9698189,146.549296 L88.8028169,146.549296 L88.8028169,146.006036 C88.8028169,140.211268 88.8028169,140.211268 85.9054326,134.416499 C83.0080483,128.62173 80.110664,128.62173 77.2132797,125.724346 C75.7098778,124.070656 73.6435044,123.037469 71.4185111,122.826962 C71.4185111,122.826962 67.3943662,118.299799 64.2152918,117.334004 C62.1053321,116.796178 59.882105,116.908391 57.8370221,117.655936 C54.5186234,117.89003 51.2166194,118.316637 47.9476861,118.933602 C43.1690141,119.939638 38.3802817,119.567404 36.4688129,125.975855 C34.5573441,132.384306 34.8692153,139.376258 34.5573441,141.93159 C34.2454728,144.486922 30.7243461,156.599598 31.0462777,159.788732 C31.3682093,162.977867 34.2354125,163.62173 32.9577465,167.444668 C31.6800805,171.267606 32.6458753,170.955734 32.6458753,176.056338 C32.6458753,176.810865 32.6458753,177.555332 32.7263581,178.289738 L31.3682093,178.289738 C31.3682093,178.289738 31.0462777,175.734406 28.8128773,176.37827 C27.2615844,176.913033 25.8466419,177.781918 24.668008,178.923541 C24.668008,178.923541 23.7122736,178.61167 20.8350101,182.112676 C18.9836332,184.575136 17.6801827,187.404995 17.0120724,190.412475 C17.0120724,190.412475 10.9758551,205.402414 7.7665996,210.181087 C4.55734406,214.959759 3.29979879,218.440644 4.2555332,223.531187 C4.3360161,223.973843 4.41649899,224.356137 4.50704225,224.738431 C2.29480682,228.260859 0.800708691,232.185858 0.110663984,236.287726 C-1.16700201,244.899396 9.03420523,269.486922 9.03420523,269.486922 C9.03420523,269.486922 11.5895372,271.408451 13.1891348,270.492958 C13.2972113,270.421541 13.4013223,270.344298 13.501006,270.261569 C15.1307847,275.643863 22.8672032,289.577465 24.0342052,292.183099 C25.3018109,295.060362 30.4124748,302.072435 31.6800805,301.1167 C32.9476861,300.160966 29.1348089,294.074447 29.1348089,294.074447 L28.1790744,290.56338 C28.1790744,290.56338 31.0462777,294.386318 33.6016097,294.708249 C35.296661,294.895395 37.007162,294.895395 38.7022133,294.708249 C38.7022133,294.708249 39.7082495,300.452716 38.7022133,304.275654 C37.5403433,308.075904 36.1563386,311.804654 34.5573441,315.442656 C34.5573441,315.442656 34.8692153,317.354125 36.1468813,317.354125 C37.3579393,317.210307 38.541084,316.888248 39.6579477,316.39839 L41.8913481,313.209256 L42.7263581,311.599598 C42.6156942,316.046278 42.5251509,319.979879 42.5251509,321.177062 C42.6534567,323.230023 43.5687766,325.154357 45.0804829,326.549296 C45.8202808,327.992182 46.4589738,329.484706 46.9919517,331.016097 C47.082495,331.38833 47.7263581,331.881288 48.5613682,332.404427 C48.3786966,333.849487 48.2812778,335.30405 48.2696177,336.760563 C48.2696177,345.694165 55.6036217,368.953722 55.6036217,368.953722 C55.1978608,370.733164 54.9853623,372.551206 54.9698189,374.376258 C54.9698189,377.243461 53.3702213,386.177062 53.3702213,386.177062 C53.3702213,386.177062 46.6800805,409.778672 48.5915493,420.945674 C50.5030181,432.112676 58.7927565,460.814889 58.7927565,460.814889 L58.7927565,465.593561 C58.7927565,468.782696 61.3480885,474.849095 61.3480885,476.126761 C61.3480885,477.404427 63.5814889,477.132797 63.5814889,477.132797 L62.5754527,486.056338 C63.21102,490.575133 67.2755122,493.803729 71.8209256,493.400402 C77.555332,493.179074 82.0623742,488.229376 84.305835,485.201207 C84.4768612,489.587525 85.1710262,495.945674 86.8108652,497.857143 C88.722334,500.090543 102.444668,499.45674 102.444668,499.45674 C102.444668,499.45674 103.450704,497.22334 108.179074,497.22334 C112.907445,497.22334 121.901408,497.22334 127.293763,496.901408 C132.686117,496.579477 141.961771,493.078471 142.917505,490.211268 C143.873239,487.344064 141.408451,485.392354 139.486922,484.114688 Z M4.88933602,238.843058 C5.31929376,236.869402 5.87030161,234.924076 6.53923541,233.018109 C6.861167,236.237425 7.20321932,240.714286 6.81086519,241.710262 C6.21730382,243.169014 5.63380282,245.160966 5.54325956,245.492958 C5.54325956,245.492958 6.4889336,245.54326 6.4889336,245.54326 L9.03420523,246.498994 C8.9414799,249.191631 9.28113725,251.881718 10.0402414,254.466801 C10.7142857,257.183099 11.4688129,259.979879 12.0523139,262.595573 C8.69215292,256.136821 3.58148893,244.949698 4.88933602,238.843058 Z M89.9195171,173.018109 C89.5314034,175.063117 89.2626724,177.128986 89.1146881,179.205231 C89.1146881,181.287726 94.7987928,191.046278 96.1569416,195.694165 C96.7899894,197.890053 97.0817927,200.17019 97.0221328,202.454728 C96.6295052,202.108668 96.2088852,201.795726 95.7645875,201.519115 L92.5754527,200.56338 L91.3581489,198.31992 L87.8470825,196.086519 C87.8470825,196.086519 85.6136821,191.629779 84.9798793,190.663984 C84.5205504,190.138507 84.0264832,189.644439 83.501006,189.185111 C84.8490946,188.440644 75.5130785,182.686117 75.5130785,180.27163 C75.5130785,179.315895 85.9255533,180.744467 85.9255533,174.949698 L85.9255533,173.008048 L89.9195171,173.018109 Z M92.6056338,402.142857 C91.3279678,405.331992 88.138833,442.967807 87.8169014,444.567404 C87.4949698,446.167002 88.0382294,453.390342 86.3983903,459.527163 L84.9496982,455.734406 L80.804829,447.122736 C80.804829,447.122736 80.4828974,436.589537 81.1267606,432.122736 C81.7706237,427.655936 81.4386318,402.78672 81.4386318,402.78672 C81.4386318,402.78672 83.6720322,398.953722 83.6720322,396.750503 C83.9066589,393.818534 84.4598867,390.920835 85.3219316,388.108652 C85.9557344,385.875252 86.5995976,379.496982 89.1448692,373.440644 C90.0336694,370.782391 90.6570991,368.04267 91.0060362,365.261569 C94.3360161,372.424547 94.5674044,369.607646 94.5674044,369.607646 C95.2314973,371.561839 95.6604085,373.588191 95.8450704,375.643863 C95.8450704,377.877264 95.5231388,380.110664 95.5231388,382.686117 C95.5231388,385.261569 98.0784708,388.108652 98.0784708,388.108652 C98.0784708,388.108652 93.8832998,398.953722 92.6056338,402.142857 Z" id="Shape" fill="#FF0000" fill-rule="nonzero"></path>
        </g>
    </g>
</svg>