<?xml version="1.0" encoding="UTF-8"?>
<svg width="359px" height="500px" viewBox="0 0 359 500" version="1.1" xmlns="http://www.w3.org/2000/svg" xmlns:xlink="http://www.w3.org/1999/xlink">
    <!-- Generator: Sketch 58 (84663) - https://sketch.com -->
    <title>intro-ani-rect-3</title>
    <desc>Created with Sketch.</desc>
    <g id="Page-1" stroke="none" stroke-width="1" fill="none" fill-rule="evenodd">
        <g id="intro-ani-rect-3">
            <path d="M230.102041,171.530612 C231.938776,170.918367 233.979592,170.714286 235.408163,170.306122 L236.632653,170 C236.632653,170 236.530612,169.897959 236.530612,169.897959 C236.326531,169.285714 236.122449,168.571429 236.020408,167.959184 C235,166.836735 234.285714,165.510204 233.877551,164.081633 C233.367347,161.938776 233.265306,159.795918 233.571429,157.55102 C233.571429,157.44898 233.571429,157.346939 233.571429,157.142857 C233.061224,156.530612 232.755102,155.918367 232.44898,155.306122 L233.673469,169.387755 L230.102041,171.530612 Z" id="Path"></path>
            <path d="M197.755102,161.428571 C198.367347,160.612245 198.77551,159.591837 198.77551,158.571429 C198.77551,157.55102 198.877551,155.612245 199.081633,153.673469 C198.673469,154.693878 198.163265,155.612245 197.857143,156.122449 C197.142857,157.55102 196.734694,159.081633 196.632653,160.612245 C196.938776,160.816327 197.244898,161.020408 197.55102,161.22449 C197.653061,161.326531 197.653061,161.326531 197.755102,161.428571 Z" id="Path"></path>
            <path d="M116.020408,113.163265 C115.306122,112.55102 114.489796,111.938776 113.673469,111.530612 C114.081633,112.346939 114.387755,113.163265 114.795918,113.979592 L116.326531,113.367347 C116.22449,113.367347 116.122449,113.265306 116.020408,113.163265 Z" id="Path"></path>
            <path d="M302.44898,222.44898 C302.346939,222.44898 302.244898,222.44898 302.142857,222.346939 C302.142857,222.346939 302.755102,225 301.22449,227.142857 C299.693878,229.285714 302.44898,237.040816 303.061224,240.714286 C303.265306,241.734694 303.673469,242.755102 304.183673,243.673469 C305,240.408163 305.816327,237.040816 306.530612,234.081633 C305.306122,229.693878 303.979592,225.408163 303.979592,225.408163 L302.44898,222.44898 Z" id="Path" fill="#8D0000" fill-rule="nonzero"></path>
            <path d="M237.346939,139.285714 L235.714286,137.142857 C235.714286,135.510204 235.816327,133.877551 235.918367,132.142857 C236.122449,131.020408 236.122449,129.693878 232.959184,128.979592 C231.938776,128.673469 230.918367,128.673469 230,129.081633 L227.653061,103.163265 C226.632653,103.571429 225.510204,103.877551 224.387755,104.081633 C223.163265,104.285714 221.836735,104.387755 220.612245,104.387755 L219.591837,94.4897959 L215.714286,94.7959184 C217.55102,94.2857143 218.877551,93.1632653 219.489796,93.0612245 C219.693878,93.0612245 220.714286,92.9591837 222.142857,92.9591837 C224.387755,92.6530612 227.244898,92.3469388 227.755102,92.244898 C228.163265,92.1428571 228.673469,92.0408163 228.979592,91.7346939 C228.979592,91.7346939 229.285714,90.8163265 230.102041,92.244898 C231.530612,92.0408163 232.653061,91.6326531 233.265306,91.2244898 C235.408163,89.4897959 236.836735,84.2857143 237.755102,83.2653061 C238.673469,82.244898 238.673469,82.8571429 238.877551,83.3673469 C239.081633,83.877551 238.163265,86.8367347 238.163265,86.8367347 C238.163265,86.8367347 240,84.8979592 241.428571,83.1632653 C242.44898,82.0408163 243.571429,81.0204082 244.897959,80.3061224 C244.897959,80.3061224 245.918367,81.122449 244.795918,82.3469388 C243.877551,83.4693878 242.959184,84.5918367 242.142857,85.8163265 C243.061224,85.1020408 245.612245,83.2653061 246.122449,82.9591837 C246.836735,82.5510204 247.857143,82.755102 247.44898,83.5714286 C247.040816,84.3877551 243.061224,88.0612245 243.061224,88.0612245 C243.469388,87.9591837 243.979592,87.755102 244.285714,87.4489796 C244.489796,87.244898 246.020408,86.5306122 246.632653,86.122449 C247.244898,85.7142857 248.163265,85.6122449 248.163265,86.4285714 C248.163265,87.244898 244.591837,89.5918367 244.591837,89.5918367 L244.081633,90.1020408 C244.081633,90.1020408 243.673469,90.8163265 244.795918,90.5102041 C245.918367,90.2040816 247.857143,89.2857143 247.857143,89.7959184 C247.959184,90.6122449 247.346939,91.5306122 245,92.5510204 L245,92.5510204 L226.734694,93.877551 L226.734694,93.877551 L266.530612,90.9183673 L260.204082,0.408163265 L168.469388,8.26530612 L176.836735,97.5510204 L219.387755,94.3877551 L222.959184,128.163265 C221.836735,129.183673 219.693878,131.22449 219.489796,131.734694 C219.285714,132.44898 220.204082,133.571429 220.204082,133.571429 L219.285714,136.020408 C219.285714,136.020408 220.408163,137.346939 220.408163,138.061224 C220.408163,138.77551 220.510204,139.387755 220.612245,140.102041 L221.530612,142.142857 L224.693878,144.387755 L227.44898,170.306122 L228.77551,171.632653 C229.183673,171.428571 229.591837,171.326531 230,171.22449 L233.469388,169.183673 L232.244898,155 C231.836735,154.081633 231.632653,153.163265 231.734694,152.142857 C232.44898,147.55102 235.918367,143.979592 239.387755,141.122449 C239.489796,141.020408 239.591837,141.020408 239.591837,140.918367 C239.693878,140.510204 239.897959,140.204082 240.102041,139.795918 L238.979592,139.387755 C239.183673,139.693878 238.061224,138.979592 237.346939,139.285714 Z M217.142857,57.3469388 C216.938776,57.4489796 216.326531,57.5510204 216.122449,57.6530612 C215.204082,54.3877551 217.55102,54.7959184 220,54.3877551 C219.897959,54.4897959 220.510204,57.1428571 219.897959,56.8367347 C218.367347,69.7959184 226.938776,68.1632653 223.163265,56.2244898 C221.734694,57.0408163 221.836735,54.3877551 222.142857,53.877551 C224.591837,53.9795918 226.326531,52.4489796 226.020408,55.9183673 C225.816327,55.9183673 225.714286,55.9183673 225.510204,55.9183673 C230.510204,70.9183673 214.285714,74.1836735 217.142857,57.3469388 Z M223.673469,49.1836735 C223.77551,48.6734694 222.857143,46.2244898 224.183673,46.7346939 C225.102041,43.4693878 221.632653,36.5306122 225,35.6122449 L224.897959,35.6122449 C229.693878,33.2653061 237.653061,38.0612245 230.510204,42.4489796 C231.836735,43.3673469 232.040816,44.4897959 232.653061,46.0204082 C232.857143,46.0204082 233.367347,46.122449 233.571429,46.0204082 C233.367347,46.5306122 234.387755,48.0612245 233.571429,48.1632653 C232.55102,47.9591837 231.530612,48.5714286 230.510204,48.6734694 C230.714286,48.5714286 229.795918,46.0204082 230.612245,46.3265306 C230,45.2040816 229.183673,44.1836735 228.367347,43.1632653 C227.755102,43.3673469 227.244898,43.4693878 226.632653,43.4693878 C226.530612,44.4897959 226.530612,45.6122449 226.428571,46.6326531 C227.653061,46.0204082 227.040816,48.5714286 227.244898,48.9795918 C226.122449,48.9795918 224.591837,49.0816327 223.673469,49.1836735 Z M235.408163,65.3061224 C235.816327,63.7755102 233.673469,61.2244898 233.673469,59.8979592 C233.265306,60 232.857143,60 232.44898,60.1020408 C232.55102,61.3265306 232.653061,62.4489796 232.755102,63.6734694 C233.979592,62.9591837 233.469388,65.3061224 233.673469,65.8163265 C231.22449,65.9183673 228.571429,67.4489796 228.979592,63.877551 C229.285714,63.877551 229.693878,63.877551 230,63.7755102 C229.795918,60.7142857 229.285714,57.8571429 228.877551,54.6938776 C227.346939,55.3061224 227.857143,53.2653061 227.653061,52.4489796 C229.081633,52.3469388 230.510204,52.3469388 231.938776,52.4489796 C234.897959,52.0408163 237.55102,51.6326531 237.755102,56.2244898 C237.55102,57.5510204 236.632653,58.6734694 235.408163,59.1836735 C236.22449,60.3061224 236.938776,61.5306122 237.55102,62.755102 C238.367347,62.5510204 238.877551,62.755102 239.387755,62.5510204 C240.408163,66.0204082 238.061224,65.4081633 235.408163,65.3061224 L235.408163,65.3061224 Z M249.489796,53.2653061 C249.387755,53.0612245 249.285714,52.8571429 249.183673,52.5510204 C247.653061,52.9591837 246.122449,53.0612245 244.795918,53.2653061 C244.897959,53.877551 245,55.3061224 245.102041,55.9183673 C246.326531,55.6122449 247.653061,55.6122449 248.877551,55.6122449 C248.469388,54.7959184 249.795918,54.5918367 250.204082,54.4897959 C250,56.0204082 251.632653,58.5714286 249.285714,58.5714286 C249.285714,58.3673469 249.183673,58.1632653 249.183673,57.9591837 C247.959184,58.0612245 246.734694,58.3673469 245.510204,58.7755102 C245.612245,59.6938776 245.714286,60.7142857 245.714286,61.6326531 C247.44898,61.6326531 249.183673,61.5306122 250.816327,61.4285714 C250.510204,60.6122449 251.836735,60.5102041 252.142857,60.4081633 C251.734694,61.9387755 253.673469,64.4897959 251.22449,64.5918367 C251.22449,64.2857143 251.122449,64.0816327 251.122449,63.7755102 C248.877551,64.4897959 246.632653,64.0816327 244.387755,64.3877551 L244.387755,64.3877551 L242.244898,64.4897959 L242.142857,64.0816327 C242.040816,64.0816327 242.040816,61.8367347 241.938776,61.8367347 L242.959184,61.8367347 C242.755102,59.0816327 242.44898,56.3265306 241.836735,53.5714286 C240.408163,54.2857143 241.020408,52.0408163 240.816327,51.4285714 C243.469388,51.3265306 246.122449,50.9183673 248.673469,50.2040816 C248.061224,49.0816327 250,49.3877551 250.408163,49.2857143 C250.306122,51.0204082 252.55102,53.5714286 249.489796,53.2653061 L249.489796,53.2653061 Z M241.326531,15.6122449 C241.122449,15.9183673 242.040816,18.2653061 241.122449,18.0612245 C241.734694,19.7959184 242.142857,21.5306122 243.469388,23.0612245 C244.489796,21.3265306 244.693878,19.2857143 245.102041,17.4489796 C244.285714,17.3469388 244.897959,15.5102041 244.591837,15 C245.510204,15.1020408 246.734694,15.7142857 247.653061,15.4081633 C247.653061,15.5102041 247.653061,15.5102041 247.653061,15.6122449 C249.183673,15.2040816 248.367347,17.4489796 248.673469,18.0612245 C248.265306,18.0612245 247.959184,17.9591837 247.55102,17.8571429 C247.040816,20 247.142857,23.0612245 244.693878,23.9795918 C244.693878,25.3061224 244.795918,26.6326531 245,27.8571429 L245.204082,27.755102 C245.102041,27.755102 245.612245,30.1020408 245.408163,30.1020408 C242.959184,30.5102041 240.714286,31.5306122 241.122449,28.2653061 L241.734694,28.2653061 C241.530612,27.0408163 241.428571,25.7142857 241.428571,24.3877551 C240.102041,24.0816327 239.285714,21.9387755 238.979592,21.0204082 C238.77551,20.2040816 238.673469,19.3877551 238.571429,18.4693878 C237.244898,19.1836735 237.44898,16.6326531 237.653061,16.2244898 C236.428571,16.4285714 240.102041,15.9183673 241.326531,15.6122449 L241.326531,15.6122449 Z M228.979592,17.6530612 C239.183673,13.9795918 240.408163,24.1836735 231.530612,26.2244898 C231.632653,27.755102 231.836735,28.5714286 231.836735,29.6938776 C233.265306,29.0816327 232.857143,31.122449 232.959184,31.8367347 C230.510204,31.9387755 227.857143,33.0612245 228.367347,29.7959184 C228.469388,29.7959184 228.673469,29.7959184 228.877551,29.8979592 C229.183673,29.8979592 227.755102,17.8571429 227.346939,18.0612245 C227.44898,17.8571429 229.183673,16.9387755 228.979592,17.6530612 Z M217.44898,19.1836735 C219.081633,18.1632653 218.367347,21.3265306 218.673469,21.9387755 C218.367347,21.9387755 217.959184,22.0408163 217.55102,22.1428571 C216.22449,34.4897959 225.510204,33.9795918 222.55102,21.8367347 C222.142857,21.9387755 221.734694,22.0408163 221.428571,22.1428571 C221.428571,22.1428571 221.122449,19.2857143 221.22449,19.1836735 C224.183673,18.4693878 225.714286,17.5510204 225.408163,21.3265306 C225.204082,21.3265306 225.102041,21.3265306 224.897959,21.4285714 C229.489796,36.4285714 212.346939,39.1836735 214.795918,22.5510204 C214.489796,22.5510204 214.081633,22.4489796 213.77551,22.3469388 L213.77551,21.7346939 C213.571429,21.2244898 213.77551,19.8979592 213.571429,19.3877551 C214.081633,20 216.734694,19.0816327 217.44898,19.1836735 L217.44898,19.1836735 Z M210.306122,20.1020408 C210.204082,20.1020408 210,20.1020408 209.897959,20.2040816 C214.387755,22.6530612 206.836735,25.1020408 206.22449,21.7346939 C201.734694,24.7959184 206.632653,39.6938776 209.591837,28.2653061 C209.693878,27.9591837 211.122449,27.6530612 211.326531,27.5510204 C211.632653,30.7142857 210.510204,33.1632653 207.55102,34.2857143 C199.183673,37.8571429 198.877551,15.6122449 210.306122,20.1020408 L210.306122,20.1020408 Z M208.673469,51.122449 C199.795918,53.3673469 201.122449,41.9387755 205,38.9795918 C212.040816,34.5918367 213.979592,46.7346939 208.673469,51.122449 L208.673469,51.122449 Z M199.693878,22.5510204 C202.346939,24.2857143 195.714286,27.0408163 196.428571,23.3673469 C194.285714,22.4489796 193.469388,33.3673469 196.122449,33.1632653 C196.938776,33.6734694 197.857143,31.9387755 197.55102,31.4285714 C198.469388,30.8163265 199.387755,30.5102041 200.510204,30.3061224 C201.326531,33.4693878 198.061224,36.2244898 194.897959,35.7142857 C188.061224,33.7755102 192.653061,16.0204082 199.693878,22.5510204 L199.693878,22.5510204 Z M182.857143,22.9591837 C182.755102,22.8571429 182.653061,22.8571429 182.44898,22.755102 C182.959184,22.6530612 183.979592,21.2244898 184.693878,22.0408163 C192.55102,20.7142857 190.306122,36.122449 183.979592,37.0408163 C176.22449,37.9591837 176.938776,25.5102041 182.857143,22.9591837 L182.857143,22.9591837 Z M182.142857,79.8979592 C182.040816,81.6326531 181.326531,85.7142857 181.326531,85.7142857 L182.040816,86.7346939 C182.142857,87.8571429 181.938776,88.9795918 181.632653,90 C181.326531,90.8163265 180.816327,91.5306122 180.204082,92.0408163 C180.204082,92.0408163 179.897959,94.0816327 179.387755,95.8163265 C178.877551,97.5510204 178.367347,96.6326531 177.44898,97.3469388 C177.346939,97.4489796 177.346939,97.4489796 177.244898,97.5510204 L177.040816,97.5510204 L174.489796,70.4081633 C175.612245,70.8163265 176.836735,71.3265306 177.857143,71.8367347 C182.653061,74.2857143 182.346939,78.2653061 182.142857,79.8979592 L182.142857,79.8979592 Z M189.387755,60 C188.061224,60.3061224 186.632653,60.5102041 185.306122,60.6122449 C185.408163,61.3265306 185.510204,62.1428571 185.714286,62.8571429 C187.040816,62.8571429 188.367347,62.755102 189.693878,62.5510204 C189.693878,62.5510204 189.897959,65 189.897959,65 C188.77551,64.8979592 186.632653,66.122449 186.122449,65.3061224 L186.020408,65.3061224 C186.22449,66.7346939 186.22449,68.1632653 186.122449,69.5918367 C186.428571,69.5918367 186.836735,69.5918367 187.142857,69.4897959 C187.040816,69.6938776 187.755102,72.3469388 186.836735,71.9387755 L186.836735,71.9387755 C185.408163,72.0408163 183.979592,72.0408163 182.653061,72.1428571 C182.755102,71.6326531 181.938776,69.1836735 183.163265,69.6938776 C183.061224,66.5306122 182.959184,63.3673469 182.653061,60.3061224 C181.632653,60.8163265 182.040816,58.2653061 181.836735,57.8571429 C184.285714,57.8571429 186.632653,58.1632653 188.979592,57.5510204 C188.673469,56.9387755 191.020408,56.7346939 191.122449,56.6326531 C191.22449,57.8571429 191.122449,58.877551 191.530612,60.1020408 C191.122449,60.5102041 189.183673,61.5306122 189.387755,60 L189.387755,60 Z M191.632653,39.8979592 C192.959184,40 194.387755,40 195.714286,39.7959184 C195.612245,40.4081633 196.428571,42.3469388 195,42.0408163 C195.714286,43.0612245 195.510204,44.6938776 196.632653,45.4081633 C197.653061,44.3877551 198.265306,43.0612245 198.367347,41.5306122 C197.55102,42.0408163 197.959184,39.6938776 197.755102,39.4897959 C198.77551,39.4897959 199.693878,39.2857143 200.612245,38.877551 C200.510204,39.4897959 201.22449,41.0204082 200.510204,41.122449 C200.408163,43.0612245 200.408163,43.9795918 198.265306,46.0204082 C198.265306,46.0204082 198.265306,46.0204082 198.265306,46.0204082 L198.265306,46.0204082 C198.163265,46.0204082 197.857143,46.0204082 197.857143,46.0204082 C198.265306,47.5510204 197.55102,49.6938776 198.673469,50.6122449 C198.673469,51.122449 198.877551,51.7346939 199.081633,52.244898 C196.938776,52.1428571 195,53.7755102 195.306122,50.5102041 L195.714286,50.5102041 C195.510204,49.1836735 195.408163,47.755102 195.306122,46.4285714 C194.795918,46.3265306 194.387755,46.0204082 194.081633,45.6122449 C193.265306,44.5918367 192.653061,43.3673469 192.244898,42.0408163 C191.22449,42.5510204 192.040816,40.4081633 191.632653,39.8979592 L191.632653,39.8979592 Z M202.755102,58.5714286 C203.77551,63.6734694 203.979592,72.1428571 196.326531,70.2040816 C192.755102,67.6530612 194.489796,63.4693878 193.877551,59.7959184 C192.653061,60.4081633 193.265306,57.8571429 193.061224,57.4489796 C194.285714,57.4489796 195.408163,57.4489796 196.632653,57.3469388 C196.530612,57.6530612 197.346939,60.3061224 196.326531,59.7959184 C196.938776,62.755102 195.306122,68.4693878 198.877551,68.9795918 C201.428571,66.4285714 199.387755,62.4489796 200.204082,59.1836735 C198.469388,59.7959184 198.979592,57.8571429 198.877551,56.8367347 C200.102041,56.6326531 202.142857,56.3265306 203.469388,56.122449 C203.265306,56.5306122 204.183673,58.877551 202.755102,58.5714286 Z M215,58.0612245 C214.081633,58.4693878 212.346939,58.4693878 211.020408,58.5714286 C211.632653,61.122449 211.938776,63.7755102 212.040816,66.3265306 C213.571429,65.6122449 212.959184,67.9591837 213.163265,68.6734694 C211.632653,68.877551 210,68.7755102 208.469388,68.877551 C208.469388,68.0612245 207.653061,65.9183673 209.387755,66.4285714 C209.081633,63.877551 208.469388,61.3265306 208.77551,58.6734694 C206.326531,58.877551 204.795918,59.5918367 205.102041,56.4285714 L205,55.7142857 C207.755102,55.5102041 209.693878,55.7142857 212.44898,55.2040816 C212.44898,55 213.469388,55 213.469388,55 C215.408163,54.1836735 215,57.1428571 215,58.0612245 L215,58.0612245 Z M213.163265,39.8979592 C212.346939,40 212.857143,37.9591837 212.653061,37.4489796 C215.306122,37.4489796 216.122449,36.7346939 215.918367,39.7959184 L215.204082,39.7959184 C215.918367,55.5102041 221.530612,46.0204082 217.857143,38.5714286 C217.755102,37.8571429 217.653061,37.244898 217.55102,36.5306122 C218.877551,36.4285714 220.204082,36.2244898 221.428571,35.9183673 C221.326531,36.122449 222.040816,38.6734694 221.22449,38.4693878 C221.326531,41.0204082 221.938776,43.7755102 221.122449,46.3265306 C221.632653,47.4489796 216.836735,51.9387755 215.408163,50.2040816 C212.44898,48.7755102 213.163265,43.1632653 213.163265,39.8979592 Z" id="Shape" fill="#8D0000" fill-rule="nonzero"></path>
            <path d="M344.183673,125.714286 C344.897959,124.591837 350,120.714286 350.510204,119.591837 C351.020408,118.469388 351.632653,114.183673 351.632653,114.183673 C351.632653,114.183673 355.714286,109.693878 357.44898,106.734694 C359.183673,103.77551 357.857143,100.612245 357.857143,97.755102 C357.857143,94.8979592 354.795918,78.5714286 354.795918,76.5306122 C354.795918,74.4897959 353.469388,72.244898 353.469388,72.244898 L353.265306,71.3265306 L351.020408,69.7959184 C351.020408,69.7959184 348.979592,61.2244898 348.979592,59.6938776 C348.979592,58.1632653 350.102041,55.4081633 350.102041,54.2857143 L350.102041,49.5918367 C350.102041,48.877551 346.938776,46.8367347 346.020408,46.2244898 C345.102041,45.6122449 341.938776,43.9795918 341.020408,43.9795918 C340.102041,43.9795918 338.265306,44.8979592 337.857143,45.5102041 C337.44898,46.122449 336.734694,49.3877551 336.734694,49.3877551 C336.734694,49.3877551 335.204082,49.3877551 334.285714,50.3061224 C333.367347,51.2244898 333.163265,53.6734694 332.959184,54.3877551 C332.755102,55.1020408 339.693878,62.5510204 339.693878,62.5510204 L343.061224,70.4081633 L341.530612,72.8571429 C341.530612,72.8571429 341.734694,76.9387755 341.938776,84.1836735 C342.142857,91.4285714 341.22449,95.2040816 341.22449,95.2040816 L339.693878,98.1632653 L331.122449,105.816327 L316.020408,110.306122 L312.44898,107.346939 L310.408163,105.510204 L310,100.918367 C310.102041,100.714286 310.102041,100.510204 310.204082,100.306122 C310.612245,97.8571429 310.918367,96.7346939 310.918367,96.7346939 C310.918367,96.7346939 313.877551,94.6938776 314.285714,92.6530612 C314.693878,90.6122449 314.285714,87.6530612 314.285714,87.6530612 L313.163265,86.7346939 C313.163265,86.7346939 313.877551,79.2857143 312.040816,76.6326531 C310.204082,73.9795918 305.918367,71.9387755 305.918367,71.9387755 C305.918367,71.9387755 304.795918,69.8979592 299.795918,69.6938776 C297.040816,69.5918367 294.285714,69.6938776 291.632653,70.1020408 C291.122449,70.2040816 290.612245,70.3061224 290.102041,70.4081633 C289.387755,70.6122449 292.346939,71.122449 292.346939,71.122449 C292.346939,71.122449 287.346939,71.5306122 284.489796,75.4081633 C283.673469,76.5306122 282.959184,77.4489796 282.44898,78.2653061 C281.734694,79.3877551 281.020408,80.5102041 280.510204,81.6326531 L284.081633,78.6734694 C284.081633,78.6734694 282.755102,82.3469388 282.959184,83.4693878 C283.163265,84.5918367 284.489796,81.9387755 284.489796,81.9387755 L284.489796,86.4285714 L285.408163,88.877551 C285.408163,88.877551 284.285714,93.3673469 285.408163,96.3265306 C286.530612,99.2857143 289.693878,106.428571 289.693878,106.428571 C289.693878,106.428571 290.510204,107.040816 291.530612,107.857143 L290.306122,108.673469 C290.306122,108.673469 289.183673,110.918367 288.979592,111.632653 C288.77551,112.346939 288.061224,112.959184 286.938776,114.387755 C286.020408,115.408163 281.428571,117.55102 279.285714,118.77551 C277.857143,118.979592 276.632653,119.285714 276.122449,119.591837 C275.918367,119.795918 275.510204,120.102041 275,120.408163 C277.346939,121.632653 278.571429,123.163265 278.77551,124.183673 C278.979592,125.714286 280,134.693878 280.612245,139.285714 C281.326531,139.489796 282.040816,139.897959 282.653061,140.306122 C282.755102,140.306122 282.959184,140.306122 283.061224,140.408163 C283.979592,140.918367 284.387755,141.836735 284.897959,142.755102 C285.510204,143.77551 286.22449,144.795918 286.734694,145.918367 C286.836735,146.020408 286.938776,146.020408 287.040816,146.020408 C287.55102,146.020408 288.061224,146.020408 288.673469,146.020408 C290,146.020408 290,148.061224 288.673469,148.061224 L288.061224,148.061224 C288.673469,148.571429 289.081633,149.081633 289.489796,149.693878 C290.204082,150.816327 290.612245,152.040816 290.612245,153.367347 C291.020408,153.979592 291.326531,154.693878 291.632653,155.408163 C292.346939,157.142857 292.142857,159.183673 291.020408,160.612245 C291.22449,162.346939 292.040816,164.081633 291.938776,165.918367 C291.938776,167.244898 291.632653,168.571429 291.122449,169.795918 C292.040816,170.102041 293.061224,170.408163 294.081633,170.714286 C298.265306,172.244898 303.673469,173.367347 306.122449,178.265306 C308.571429,183.163265 322.346939,209.795918 321.428571,211.938776 C321.020408,212.959184 319.693878,214.489796 317.755102,216.020408 L321.428571,224.591837 C321.428571,224.591837 330.408163,239.591837 334.387755,250.408163 C338.265306,261.22449 340.714286,269.387755 342.55102,271.428571 C344.387755,273.469388 346.734694,279.897959 347.653061,281.938776 C348.571429,283.979592 349.183673,285.510204 348.571429,287.959184 C347.959184,290.408163 346.734694,297.55102 346.428571,298.77551 C346.122449,300 343.77551,302.346939 342.857143,302.346939 C341.938776,302.346939 341.938776,299.285714 341.938776,299.285714 C343.061224,297.44898 343.367347,295.306122 342.857143,293.265306 C341.938776,290 338.979592,288.163265 338.979592,288.163265 C338.979592,288.163265 339.285714,292.653061 338.673469,294.489796 C338.061224,296.326531 335.408163,295.714286 335.408163,295.714286 C335.408163,295.714286 336.326531,292.142857 334.183673,289.387755 C332.040816,286.632653 331.22449,282.755102 331.530612,280.408163 C331.836735,278.061224 332.142857,275.306122 328.469388,268.367347 C326.938776,265.408163 323.163265,260.714286 319.285714,256.122449 L319.489796,256.836735 C319.489796,256.836735 319.693878,262.244898 322.142857,265.612245 C324.591837,268.979592 328.061224,281.122449 328.061224,284.081633 C328.061224,287.040816 329.591837,293.367347 329.387755,296.22449 C329.183673,299.081633 328.673469,304.387755 328.265306,309.081633 C327.959184,311.836735 328.877551,314.489796 330.714286,316.530612 L329.795918,322.653061 C329.795918,322.653061 333.877551,326.938776 335.204082,328.265306 C336.530612,329.591837 341.530612,332.346939 344.693878,333.265306 C347.857143,334.183673 354.387755,334.183673 356.428571,331.938776 C358.469388,329.693878 352.755102,325.102041 351.734694,323.77551 C347.653061,318.77551 351.326531,319.081633 351.326531,319.081633 L352.857143,317.55102 C352.857143,317.55102 352.44898,314.387755 352.653061,313.469388 C352.857143,312.55102 350.816327,305.612245 350.816327,305.612245 C350.816327,304.591837 350.918367,303.673469 351.020408,302.653061 C351.632653,298.571429 351.836735,294.387755 351.734694,290.204082 C351.530612,285.510204 346.734694,265.612245 346.734694,265.612245 C346.734694,265.612245 348.061224,262.244898 348.979592,260.918367 C349.897959,259.591837 348.77551,255.918367 349.183673,254.183673 C349.591837,252.346939 347.142857,240.204082 346.734694,234.795918 C346.428571,231.020408 342.244898,214.693878 339.795918,205.204082 C342.244898,204.285714 344.387755,202.959184 346.326531,201.22449 C348.979592,198.571429 340.714286,183.163265 339.795918,180 C338.877551,176.836735 331.428571,150 331.428571,150 C331.428571,150 330.510204,147.040816 330.510204,145.714286 C330.510204,144.387755 334.387755,141.22449 335.510204,139.183673 C336.632653,137.142857 343.571429,126.836735 344.183673,125.714286 Z" id="Path" fill="#8D0000" fill-rule="nonzero"></path>
            <path d="M45.7142857,304.489796 C45.1020408,302.959184 44.1836735,293.877551 44.4897959,292.653061 C44.7959184,291.428571 47.3469388,284.183673 47.6530612,281.122449 C47.9591837,278.061224 45.5102041,268.367347 44.7959184,250.816327 C44.0816327,233.265306 46.6326531,227.040816 48.5714286,223.673469 C50.5102041,220.306122 51.0204082,211.836735 51.4285714,201.530612 C51.6326531,196.938776 52.244898,192.346939 53.1632653,187.755102 C52.5510204,186.632653 52.0408163,185.714286 51.7346939,185.204082 C50.2040816,182.346939 49.8979592,181.122449 50.2040816,179.897959 C50.5102041,178.673469 63.0612245,162.44898 63.0612245,162.44898 C63.0612245,162.44898 65.5102041,160.918367 67.4489796,160.918367 C69.3877551,160.918367 73.9795918,160.306122 73.9795918,160.306122 C74.8979592,159.591837 76.0204082,159.081633 77.1428571,158.77551 C78.5714286,158.367347 80,158.163265 81.5306122,158.163265 C81.5306122,158.163265 85.3061224,153.77551 86.2244898,153.163265 C86.9387755,152.653061 88.3673469,152.55102 89.0816327,152.55102 L89.0816327,148.77551 C88.9795918,148.061224 88.7755102,147.244898 88.4693878,146.632653 C87.5510204,149.489796 86.5306122,150.612245 85.5102041,150 C83.7755102,149.183673 85,147.653061 85.7142857,145.102041 C85.9183673,144.081633 85.9183673,142.959184 85.8163265,141.938776 C85.1020408,140.918367 84.1836735,139.795918 83.3673469,138.877551 C83.0612245,139.489796 82.8571429,140.204082 82.6530612,140.918367 C82.1428571,143.265306 84.3877551,148.163265 82.8571429,148.673469 C80.5102041,149.387755 80.3061224,147.040816 80,144.897959 C79.7959184,143.469388 79.2857143,138.163265 78.877551,134.795918 L78.3673469,134.285714 C78.0612245,136.836735 77.5510204,140.714286 76.4285714,142.55102 C74.7959184,145.408163 73.5714286,143.265306 73.5714286,143.265306 C74.1836735,142.040816 74.5918367,140.816327 75,139.489796 C75.5102041,137.653061 75.5102041,132.44898 75.5102041,132.44898 L75.5102041,130.612245 C75.3061224,130.306122 75.2040816,130 75.1020408,129.693878 C75.1020408,129.591837 75.1020408,129.489796 75,129.285714 C74.4897959,130.306122 74.0816327,131.530612 73.877551,132.653061 C73.6734694,134.795918 72.0408163,134.081633 71.7346939,131.938776 C71.5306122,130.510204 72.755102,125.612245 73.5714286,122.44898 L73.4693878,121.938776 C72.8571429,123.367347 72.1428571,125.102041 71.2244898,126.122449 C69.5918367,127.959184 70.1020408,125.408163 70.1020408,125.408163 C70.1020408,125.408163 70.8163265,122.857143 72.4489796,118.163265 C72.6530612,117.653061 72.8571429,117.244898 73.0612245,116.734694 C73.0612245,116.22449 73.0612245,115.816327 73.1632653,115.306122 C73.7755102,111.836735 81.3265306,104.387755 84.3877551,101.836735 C85.2040816,101.22449 86.0204082,100.714286 87.0408163,100.408163 C86.9387755,98.5714286 87.1428571,96.2244898 87.244898,93.7755102 C87.755102,94.4897959 88.1632653,95.2040816 88.5714286,95.9183673 C89.0816327,97.1428571 89.2857143,98.5714286 89.1836735,99.8979592 C89.6938776,99.7959184 90.2040816,99.7959184 90.7142857,99.7959184 C90.9183673,98.1632653 90.9183673,96.6326531 90.7142857,95 C90.3061224,91.6326531 88.9795918,88.5714286 86.8367347,85.9183673 C85.5102041,81.7346939 80,81.3265306 76.5306122,78.4693878 C72.9591837,75.5102041 68.6734694,78.4693878 68.6734694,78.4693878 C68.6734694,78.4693878 64.4897959,77.5510204 62.9591837,78.1632653 C61.4285714,78.7755102 52.755102,81.7346939 50.6122449,89.5918367 C49.6938776,92.5510204 49.3877551,95.7142857 49.4897959,98.7755102 C49.0816327,99.5918367 48.7755102,100.408163 48.877551,101.326531 C48.877551,104.285714 49.4897959,110.612245 51.8367347,110.918367 C52.0408163,110.918367 52.244898,110.918367 52.4489796,110.918367 C52.8571429,112.857143 53.5714286,114.693878 54.3877551,116.428571 C53.3673469,116.020408 52.3469388,115.612245 51.2244898,115.408163 C50.3061224,115.408163 47.9591837,116.632653 47.6530612,115.408163 C47.3469388,114.183673 47.0408163,113.571429 45.8163265,113.571429 L43.6734694,113.571429 C43.6734694,113.571429 41.8367347,110.816327 40.9183673,111.428571 C40.7142857,111.530612 40.3061224,111.836735 39.6938776,112.244898 C37.755102,109.693878 35.7142857,107.244898 33.5714286,104.897959 C28.4693878,99.5918367 28.5714286,98.2653061 27.755102,96.7346939 C26.9387755,95.2040816 20.1020408,79.6938776 18.877551,77.4489796 C17.6530612,75.2040816 13.877551,67.244898 14.6938776,65.6122449 C15.5102041,63.9795918 16.2244898,59.8979592 15.6122449,57.755102 C15,55.6122449 13.5714286,53.4693878 13.5714286,52.8571429 C13.5714286,52.244898 11.4285714,51.3265306 11.4285714,50.7142857 C11.4285714,50.1020408 9.48979592,48.7755102 9.48979592,48.7755102 L8.57142857,49.4897959 C8.57142857,49.4897959 7.34693878,47.8571429 6.12244898,47.9591837 C5.30612245,48.0612245 4.69387755,48.5714286 4.18367347,49.1836735 C3.67346939,49.2857143 3.16326531,49.6938776 2.95918367,50.2040816 C2.75510204,50.8163265 2.65306122,51.4285714 2.55102041,52.0408163 C2.55102041,52.0408163 1.2244898,52.4489796 0.918367347,53.2653061 C0.714285714,53.9795918 0.612244898,54.6938776 0.612244898,55.4081633 C0.408163265,55.8163265 0.408163265,56.2244898 0.408163265,56.6326531 C0.510204082,57.5510204 3.06122449,63.3673469 3.57142857,64.2857143 C4.08163265,65.2040816 5.10204082,67.244898 6.42857143,70.2040816 C7.75510204,73.1632653 13.9795918,95.5102041 17.4489796,102.346939 C20.9183673,109.183673 28.2653061,120.102041 28.2653061,120.102041 L32.4489796,125.918367 C31.6326531,129.897959 31.122449,133.061224 31.122449,133.061224 C31.122449,133.061224 38.0612245,136.122449 39.5918367,139.081633 C41.122449,142.040816 42.5510204,160.714286 42.0408163,166.122449 C41.5306122,171.530612 40.2040816,178.469388 40.2040816,179.693878 C40.2040816,180.918367 40.2040816,186.938776 38.9795918,189.897959 C38.2653061,191.836735 37.6530612,193.877551 37.1428571,195.918367 C37.1428571,195.918367 37.6530612,197.346939 39.7959184,199.183673 C39.6938776,200.612245 39.5918367,202.346939 39.4897959,203.367347 C39.2857143,205.408163 39.2857143,206.938776 39.2857143,206.938776 C39.2857143,206.938776 35.9183673,213.979592 35.4081633,220.918367 C34.8979592,227.857143 37.4489796,243.877551 37.4489796,244.795918 C37.4489796,245.714286 39.8979592,263.061224 40.8163265,264.693878 C41.7346939,266.326531 41.0204082,269.693878 41.0204082,269.693878 C41.0204082,269.693878 41.2244898,273.77551 40.8163265,275.102041 C40.4081633,276.428571 40.4081633,279.591837 40.4081633,279.591837 C40.4081633,279.591837 36.5306122,284.795918 37.6530612,290.816327 C38.7755102,296.836735 36.122449,307.755102 35.6122449,310 C35.1020408,312.244898 33.877551,316.530612 34.0816327,318.979592 C34.0816327,318.979592 34.0816327,318.979592 34.0816327,319.081633 L33.4693878,319.693878 C33.4693878,319.693878 31.122449,322.44898 31.0204082,325.408163 C30.9183673,328.367347 31.9387755,332.244898 31.9387755,332.244898 L31.7346939,335.204082 L32.755102,335.204082 C32.755102,335.204082 32.0408163,339.897959 33.0612245,343.979592 C34.0816327,348.061224 38.5714286,351.22449 41.0204082,351.938776 C43.4693878,352.653061 46.6326531,350.204082 47.5510204,345.816327 C48.4693878,341.428571 45.9183673,335 46.3265306,333.061224 C46.6326531,331.530612 47.755102,324.183673 48.2653061,321.326531 C49.4897959,318.367347 50.6122449,314.387755 51.5306122,310.306122 C51.3265306,310.306122 51.2244898,310.204082 51.0204082,310.204082 C50.1020408,309.489796 46.3265306,306.020408 45.7142857,304.489796 Z" id="Path" fill="#8D0000" fill-rule="nonzero"></path>
            <path d="M160.714286,66.122449 L161.020408,63.2653061 L158.877551,61.6326531 C158.877551,61.6326531 159.591837,59.7959184 157.857143,58.877551 C156.326531,58.1632653 153.367347,59.2857143 153.367347,59.2857143 L152.040816,57.755102 L147.244898,59.8979592 C147.244898,59.8979592 146.326531,74.2857143 145.714286,76.4285714 C145.102041,78.5714286 144.489796,83.7755102 136.326531,93.2653061 C136.530612,93.4693878 136.734694,93.7755102 136.938776,94.0816327 C137.959184,96.122449 138.877551,94.4897959 139.591837,94.3877551 C139.693878,94.3877551 140.306122,94.3877551 141.122449,94.2857143 C141.734694,91.0204082 147.040816,90.1020408 147.44898,89.6938776 C147.857143,89.2857143 149.591837,89.6938776 150.612245,90.3061224 C147.44898,97.4489796 142.244898,108.265306 140,112.142857 C139.897959,111.836735 139.897959,111.632653 139.897959,111.428571 C139.795918,110.510204 139.591837,109.387755 139.387755,108.265306 C137.44898,107.44898 134.693878,105.102041 133.469388,104.183673 C132.653061,103.571429 130.816327,103.061224 129.081633,102.55102 C126.632653,106.530612 126.020408,108.469388 125.306122,109.081633 C124.693878,109.489796 121.938776,110.816327 118.163265,112.44898 C118.163265,112.55102 118.163265,112.653061 118.265306,112.755102 C118.265306,113.367347 117.653061,114.285714 116.428571,113.265306 L114.897959,113.877551 C116.530612,117.55102 117.959184,121.632653 118.571429,125.102041 C118.77551,126.22449 118.77551,127.44898 118.77551,128.571429 C125.102041,124.183673 133.367347,118.265306 135.204082,117.44898 C137.857143,116.22449 137.346939,116.530612 139.387755,113.265306 C141.428571,110 152.653061,86.8367347 153.265306,83.7755102 C153.877551,80.7142857 157.346939,77.9591837 157.346939,77.9591837 L158.367347,74.7959184 L160.510204,71.5306122 C160.510204,71.5306122 161.428571,69.0816327 161.734694,68.2653061 C162.040816,67.4489796 160.714286,66.122449 160.714286,66.122449 Z" id="Path" fill="#8D0000" fill-rule="nonzero"></path>
            <path d="M91.0204082,310.408163 C91.0204082,310.408163 90.1020408,316.938776 89.4897959,320.408163 C88.877551,323.877551 85.4081633,352.857143 84.7959184,356.326531 C84.3877551,358.061224 83.877551,359.693878 83.2653061,361.428571 C84.0816327,362.959184 85.3061224,364.081633 86.9387755,364.795918 C89.7959184,365.816327 99.0816327,365.510204 99.0816327,365.510204 C99.0816327,365.510204 101.22449,363.877551 100.306122,361.428571 C99.3877551,358.979592 97.755102,357.346939 95,355 C92.244898,352.653061 90.6122449,347.040816 90.3061224,345.102041 C90.2040816,344.285714 90,343.265306 89.7959184,342.244898 L89.8979592,342.244898 C89.8979592,342.244898 92.5510204,341.22449 92.3469388,339.591837 C92.1428571,337.959184 93.5714286,327.653061 93.877551,324.285714 C93.9795918,323.673469 94.7959184,319.387755 95.8163265,313.877551 C94.8979592,310 93.7755102,306.632653 93.7755102,306.632653 L91.0204082,310.408163 Z" id="Path" fill="#8D0000" fill-rule="nonzero"></path>
            <path d="M62.5510204,227.040816 C62.244898,230.510204 61.3265306,240.816327 60.1020408,248.877551 C59.3877551,253.265306 59.3877551,261.326531 59.4897959,267.959184 C61.4285714,258.877551 63.877551,248.265306 63.877551,248.265306 C63.877551,248.265306 64.4897959,242.653061 64.7959184,241.122449 C65.1020408,239.591837 68.877551,225.204082 68.877551,223.673469 C68.877551,222.244898 68.1632653,215.102041 67.0408163,212.244898 C64.8979592,218.571429 62.755102,225.306122 62.5510204,227.040816 Z" id="Path" fill="#8D0000" fill-rule="nonzero"></path>
            <path d="M88.0612245,116.22449 C87.5510204,118.265306 86.7346939,120.306122 85.6122449,122.142857 C86.5306122,122.142857 87.5510204,122.040816 88.4693878,121.938776 L91.4285714,121.326531 C93.0612245,120.918367 94.4897959,120.306122 95.9183673,119.489796 C96.6326531,118.979592 97.6530612,119.489796 98.7755102,120.714286 C100.714286,119.795918 103.061224,118.77551 105.816327,117.653061 C108.77551,116.530612 111.836735,115.204082 114.693878,113.979592 C114.285714,113.163265 113.979592,112.244898 113.571429,111.530612 C114.387755,111.938776 115.204082,112.44898 115.918367,113.163265 C116.020408,113.265306 116.122449,113.367347 116.22449,113.367347 C116.836735,113.061224 117.44898,112.857143 117.959184,112.55102 C117.755102,111.938776 116.938776,111.22449 116.122449,110 C115.204082,108.571429 111.938776,105.816327 109.897959,104.489796 C108.979592,103.265306 99.2857143,97.9591837 96.122449,98.877551 C92.9591837,99.7959184 91.7346939,99.7959184 91.7346939,99.7959184 C91.3265306,99.7959184 90.9183673,99.6938776 90.4081633,99.6938776 C90.1020408,102.857143 89.2857143,106.020408 88.1632653,109.081633 C88.6734694,111.632653 88.5714286,113.979592 88.0612245,116.22449 Z" id="Path" fill="#DD1C24" fill-rule="nonzero"></path>
            <path d="M136.22449,310.102041 C136.22449,310.408163 136.22449,310.714286 136.22449,311.020408 C137.653061,310.102041 137.44898,308.673469 137.44898,307.857143 C137.44898,307.040816 136.122449,306.530612 135.306122,306.428571 C135.918367,307.857143 136.428571,309.183673 136.22449,310.102041 Z" id="Path" fill="#AE272D" fill-rule="nonzero"></path>
            <path d="M128.77551,312.55102 C128.77551,312.55102 127.244898,315 126.938776,316.122449 C126.632653,317.244898 128.163265,320 129.081633,321.530612 C129.693878,322.55102 131.428571,322.755102 132.959184,323.163265 C132.959184,321.020408 132.959184,318.673469 132.959184,316.326531 C132.244898,315.306122 131.428571,314.285714 131.428571,314.285714 L128.77551,312.55102 Z" id="Path" fill="#AE272D" fill-rule="nonzero"></path>
            <path d="M143.163265,248.77551 C142.244898,253.571429 135.306122,275.510204 132.346939,285.204082 C129.387755,294.897959 132.346939,298.77551 132.959184,301.122449 C133.367347,302.44898 133.979592,303.673469 134.591837,304.897959 C134.489796,303.77551 134.285714,302.755102 134.081633,301.632653 C133.469388,298.77551 134.693878,287.244898 135,284.489796 C135.306122,281.734694 144.387755,259.489796 145.306122,248.265306 C145.612245,244.081633 145.714286,240 145.612245,235.816327 C145.408163,236.428571 145.204082,236.938776 145,237.346939 C143.469388,240.714286 144.081633,243.979592 143.163265,248.77551 Z" id="Path" fill="#AE272D" fill-rule="nonzero"></path>
            <path d="M81.6326531,358.673469 L80.9183673,363.163265 L77.3469388,363.265306 C77.3469388,363.265306 74.1836735,353.367347 74.3877551,350.204082 C74.4897959,347.653061 76.5306122,341.734694 77.4489796,339.081633 C76.2244898,333.979592 76.9387755,304.489796 76.7346939,299.285714 C76.5306122,293.673469 78.0612245,283.979592 78.0612245,280.816327 C78.0612245,277.653061 73.6734694,256.122449 73.6734694,256.122449 L66.6326531,235.102041 C64.2857143,247.857143 61.7346939,262.755102 61.7346939,265.612245 C61.7346939,270.102041 60.1020408,280.918367 58.9795918,284.591837 C57.8571429,288.265306 55.8163265,289.081633 54.8979592,291.836735 C54.3877551,293.367347 53.2653061,301.836735 51.5306122,310.102041 C52.0408163,310.204082 52.5510204,310.204082 53.1632653,310.204082 C52.755102,315.102041 52.6530612,319.489796 52.9591837,322.55102 C53.877551,332.857143 55.4081633,346.020408 54.4897959,347.857143 C53.5714286,349.693878 54.1836735,354.081633 54.1836735,354.081633 C53.2653061,357.346939 52.8571429,360.714286 52.9591837,364.081633 C53.1632653,367.244898 53.7755102,370.408163 54.7959184,373.469388 C54.7959184,373.469388 53.5714286,374.387755 53.5714286,379.387755 C53.5714286,384.387755 50.7142857,397.857143 51.4285714,400.612245 C52.1428571,403.367347 55.8163265,414.693878 55.8163265,417.755102 C55.8163265,420.816327 54.8979592,425.918367 54.8979592,430.510204 C54.8979592,435.102041 56.122449,438.979592 56.7346939,439.897959 C57.0408163,440.204082 57.4489796,440.510204 57.8571429,440.816327 C57.4489796,441.938776 56.8367347,443.061224 56.122449,443.979592 C54.2857143,446.122449 50.8163265,449.897959 49.2857143,450.816327 C47.755102,451.734694 48.0612245,454.897959 47.4489796,455.816327 C46.8367347,456.734694 48.6734694,458.979592 48.6734694,458.979592 C52.0408163,460.918367 56.0204082,461.734694 59.8979592,461.122449 C66.4285714,460.204082 70.2040816,457.653061 72.0408163,455.816327 C73.4693878,454.489796 75.1020408,453.163265 76.7346939,452.040816 C76.7346939,452.040816 77.3469388,447.959184 77.6530612,442.653061 C77.6530612,440.816327 77.5510204,438.979592 77.0408163,437.244898 C80.1020408,431.632653 79.6938776,428.061224 80.4081633,424.897959 C81.3265306,421.122449 81.9387755,419.897959 81.3265306,416.122449 C80.7142857,412.346939 80.4081633,403.673469 81.0204082,398.979592 C81.6326531,394.285714 80.6122449,384.693878 80.6122449,382.244898 C80.5102041,380.408163 80.3061224,378.469388 80,376.632653 C80,376.632653 82.8571429,373.469388 82.8571429,371.632653 C82.8571429,369.795918 81.6326531,365.408163 81.6326531,365.408163 C81.6326531,365.408163 82.4489796,363.571429 83.2653061,361.428571 C83.0612245,361.122449 82.9591837,360.816327 82.8571429,360.510204 L81.6326531,358.673469 Z" id="Path" fill="#DD1C24" fill-rule="nonzero"></path>
            <path d="M122.755102,325.510204 C121.22449,324.897959 116.734694,317.346939 115.816327,315.612245 C114.897959,313.877551 116.428571,303.571429 116.428571,302.346939 C116.428571,301.122449 116.734694,297.857143 116.734694,296.632653 C116.734694,295.408163 118.265306,290.306122 118.571429,288.163265 C118.877551,286.020408 122.44898,259.285714 123.367347,252.346939 C124.285714,245.408163 128.77551,230.102041 128.77551,230.102041 L128.673469,225.306122 L125.816327,224.387755 C125.816327,224.387755 123.673469,220.510204 123.979592,218.979592 C124.285714,217.44898 126.938776,205.102041 128.469388,199.387755 C130,193.673469 137.244898,179.285714 137.244898,179.285714 C137.244898,179.285714 137.857143,177.755102 139.897959,175.408163 C140.408163,174.795918 142.040816,174.081633 144.081633,173.469388 C143.469388,172.142857 142.755102,170.816327 141.938776,169.591837 C139.795918,167.142857 135.714286,165.816327 135.714286,165.816327 L129.795918,164.591837 L124.183673,160.510204 L116.734694,152.040816 L114.285714,150.816327 L112.55102,150.102041 C113.061224,148.877551 113.571429,147.653061 114.081633,146.530612 C114.387755,147.040816 114.795918,147.653061 115.102041,148.061224 C116.020408,149.489796 116.22449,145.714286 115.612245,142.755102 C115.612245,142.755102 118.77551,135.714286 118.979592,128.77551 C116.22449,130.714286 113.877551,132.244898 112.55102,132.959184 C110.918367,133.877551 108.571429,135 106.326531,136.020408 C106.530612,136.428571 106.530612,136.938776 106.530612,137.44898 C106.530612,137.44898 97.8571429,145.612245 94.7959184,157.040816 C91.7346939,168.469388 91.8363361,181.122449 91.8363361,183.265306 C91.8363361,185.408163 93.3673469,190.204082 95.1020408,192.244898 C96.8367347,194.285714 94.7959184,194.693878 94.4897959,195.816327 C94.1836735,196.530612 93.7755102,197.244898 93.2653061,197.755102 C94.2857143,206.734694 96.2244898,223.673469 96.4285714,229.795918 C96.6326531,238.367347 96.8367347,273.571429 97.3469388,275.612245 C97.8571429,277.653061 98.2653061,282.142857 97.755102,283.265306 C97.4489796,284.183673 97.244898,285.204082 97.0408163,286.22449 C97.0408163,286.22449 97.0408163,287.755102 97.244898,289.795918 C97.4489796,291.836735 96.8367347,308.163265 96.122449,311.938776 C96.0204082,312.55102 95.9183673,313.163265 95.8163265,313.77551 C96.3265306,315.918367 96.7346939,318.061224 96.9387755,320.306122 C97.244898,325.612245 99.3877551,340.612245 99.7959184,345 C99.7959184,345 101.326531,353.77551 102.244898,363.163265 C103.163265,372.55102 105.714286,381.326531 106.020408,383.163265 C106.326531,385 107.55102,394.693878 107.55102,394.693878 C107.55102,394.693878 108.469388,409.081633 108.163265,413.163265 C107.857143,417.244898 108.163265,430.306122 108.469388,432.55102 C108.571429,432.959184 108.673469,433.367347 108.877551,433.77551 C108.265306,435.816327 108.061224,437.959184 108.061224,440.102041 C108.367347,445.408163 108.979592,449.489796 108.979592,449.489796 C110.612245,450.612245 112.244898,451.836735 113.673469,453.265306 C115.510204,455.102041 119.285714,457.653061 125.816327,458.571429 C129.693878,459.183673 133.673469,458.367347 137.040816,456.428571 C137.040816,456.428571 138.877551,454.285714 138.265306,453.265306 C137.653061,452.244898 137.959184,449.183673 136.428571,448.265306 C134.897959,447.346939 131.428571,443.571429 129.591837,441.428571 C128.77551,440.408163 128.163265,439.285714 127.755102,438.061224 C128.877551,436.938776 129.897959,435.816327 130.918367,434.591837 C133.77551,431.122449 131.836735,427.44898 132.755102,426.122449 C133.673469,424.795918 135.918367,426.428571 136.530612,421.734694 C137.142857,417.040816 132.755102,373.061224 132.755102,372.040816 C132.755102,371.020408 134.591837,337.653061 133.367347,335.816327 C133.061224,335.306122 132.959184,332.44898 132.857143,328.265306 L132.653061,328.265306 C130.816327,328.163265 124.285714,326.122449 122.755102,325.510204 Z" id="Path" fill="#DD1C24" fill-rule="nonzero"></path>
            <path d="M87.3469388,102.653061 C87.5510204,103.367347 87.6530612,104.081633 87.755102,104.795918 C88.4693878,103.265306 88.9795918,101.734694 89.0816327,100.102041 C88.3673469,100.204082 87.6530612,100.306122 87.0408163,100.510204 C87.0408163,101.22449 87.1428571,101.938776 87.3469388,102.653061 Z" id="Path" fill="#AE272D" fill-rule="nonzero"></path>
            <path d="M97.3469388,289.897959 C97.1428571,287.857143 97.1428571,286.326531 97.1428571,286.326531 C97.244898,285.306122 97.4489796,284.387755 97.8571429,283.367347 C98.2653061,282.244898 97.8571429,277.755102 97.4489796,275.714286 C97.0408163,273.673469 96.7346939,238.469388 96.5306122,229.897959 C96.3265306,223.77551 94.4897959,206.836735 93.3673469,197.857143 C93.877551,197.244898 94.3877551,196.632653 94.5918367,195.918367 C94.8979592,194.693878 97.0408163,194.387755 95.2040816,192.346939 C93.3673469,190.306122 91.9387755,185.408163 91.9387755,183.367347 C91.9387755,181.326531 91.6326531,168.673469 94.5918367,157.244898 C97.5510204,145.816327 106.326531,137.653061 106.326531,137.653061 C106.326531,137.142857 106.22449,136.734694 106.122449,136.22449 C108.367347,135.204082 110.714286,134.081633 112.346939,133.163265 C113.673469,132.44898 116.020408,130.816327 118.77551,128.979592 C118.77551,127.755102 118.77551,126.632653 118.571429,125.510204 C118.061224,122.142857 116.530612,117.959184 114.897959,114.285714 C112.040816,115.510204 108.979592,116.734694 106.020408,117.959184 C103.163265,119.081633 100.816327,120.102041 98.9795918,121.020408 C97.8571429,119.795918 96.8367347,119.285714 96.122449,119.795918 C94.6938776,120.612245 93.1632653,121.22449 91.6326531,121.632653 L88.6734694,122.244898 C87.755102,122.346939 86.7346939,122.44898 85.8163265,122.44898 C86.9387755,120.612245 87.755102,118.673469 88.2653061,116.530612 C88.6734694,114.285714 88.877551,111.938776 88.5714286,109.591837 C89.6938776,106.530612 90.4081633,103.367347 90.8163265,100.204082 C90.3061224,100.204082 89.7959184,100.204082 89.2857143,100.306122 C89.0816327,101.938776 88.6734694,103.571429 87.9591837,105 C87.8571429,104.285714 87.6530612,103.571429 87.5510204,102.857143 C87.3469388,102.142857 87.244898,101.428571 87.244898,100.714286 C86.3265306,101.020408 85.4081633,101.530612 84.5918367,102.142857 C81.4285714,104.591837 73.9795918,112.142857 73.3673469,115.612245 C73.2653061,116.122449 73.2653061,116.530612 73.2653061,117.040816 C73.0612245,117.44898 72.8571429,117.959184 72.6530612,118.469388 C71.0204082,123.163265 70.3061224,125.714286 70.3061224,125.714286 C70.3061224,125.714286 69.7959184,128.265306 71.4285714,126.428571 C72.3469388,125.408163 73.1632653,123.673469 73.6734694,122.244898 L73.7755102,122.755102 C72.9591837,125.918367 71.7346939,130.816327 71.9387755,132.244898 C72.1428571,134.387755 73.7755102,135.102041 74.0816327,132.959184 C74.2857143,131.734694 74.5918367,130.612245 75.2040816,129.591837 C75.2040816,129.795918 75.3061224,129.897959 75.3061224,130 C75.4081633,130.306122 75.5102041,130.612245 75.7142857,130.918367 L75.5102041,132.653061 C75.5102041,132.653061 75.5102041,137.857143 75,139.693878 C74.6938776,141.020408 74.1836735,142.244898 73.5714286,143.469388 C73.5714286,143.469388 74.6938776,145.612245 76.4285714,142.755102 C77.5510204,140.918367 78.0612245,136.938776 78.3673469,134.489796 L78.877551,135 C79.2857143,138.367347 79.7959184,143.673469 80,145.102041 C80.2040816,147.244898 80.5102041,149.591837 82.8571429,148.877551 C84.3877551,148.469388 82.1428571,143.469388 82.6530612,141.122449 C82.755102,140.408163 83.0612245,139.693878 83.3673469,139.081633 C84.1836735,140 85.1020408,141.122449 85.8163265,142.142857 C85.9183673,143.163265 85.9183673,144.285714 85.7142857,145.306122 C85,147.857143 83.7755102,149.387755 85.5102041,150.204082 C86.6326531,150.714286 87.6530612,149.591837 88.4693878,146.836735 C88.877551,147.55102 89.0816327,148.265306 89.0816327,148.979592 L89.0816327,152.755102 C88.4693878,152.755102 87.0408163,152.857143 86.2244898,153.367347 C85.3061224,153.979592 81.5306122,158.367347 81.5306122,158.367347 C80.1020408,158.367347 78.5714286,158.571429 77.1428571,158.979592 C76.0204082,159.387755 75,159.897959 73.9795918,160.510204 C73.9795918,160.510204 69.2857143,161.122449 67.4489796,161.122449 C65.6122449,161.122449 63.0612245,162.653061 63.0612245,162.653061 C63.0612245,162.653061 50.6122449,178.877551 50.2040816,180.102041 C49.7959184,181.326531 50.2040816,182.55102 51.7346939,185.408163 C51.9387755,185.816327 52.4489796,186.734694 53.1632653,187.959184 C52.244898,192.44898 51.6326531,197.040816 51.4285714,201.734694 C51.122449,212.040816 50.5102041,220.510204 48.5714286,223.877551 C46.6326531,227.244898 44.1836735,233.571429 44.7959184,251.020408 C45.4081633,268.469388 47.9591837,278.163265 47.6530612,281.326531 C47.3469388,284.489796 44.7959184,291.632653 44.4897959,292.857143 C44.1836735,294.081633 45.1020408,303.163265 45.7142857,304.693878 C46.3265306,306.22449 50.1020408,309.693878 51.0204082,310 C51.2244898,310 51.3265306,310.102041 51.5306122,310.102041 C53.3673469,301.938776 54.4897959,293.367347 54.8979592,291.836735 C55.8163265,289.183673 57.8571429,288.265306 58.9795918,284.591837 C60.1020408,280.918367 61.7346939,270.204082 61.7346939,265.612245 C61.7346939,262.755102 64.2857143,247.857143 66.6326531,235.102041 L73.6734694,256.122449 C73.6734694,256.122449 77.9591837,277.755102 77.9591837,280.918367 C77.9591837,284.081633 76.3265306,293.77551 76.6326531,299.387755 C76.8367347,304.693878 76.122449,334.081633 77.3469388,339.183673 C76.4285714,341.836735 74.3877551,347.755102 74.2857143,350.306122 C74.1836735,353.469388 77.244898,363.367347 77.244898,363.367347 L80.8163265,363.265306 L81.5306122,358.77551 L82.755102,360.612245 C82.8571429,360.918367 83.0612245,361.22449 83.1632653,361.530612 C83.7755102,359.897959 84.2857143,358.163265 84.6938776,356.428571 C85.3061224,352.959184 88.7755102,323.979592 89.3877551,320.510204 C90,317.040816 90.9183673,310.510204 90.9183673,310.510204 L93.7755102,306.734694 C93.7755102,306.734694 94.8979592,310.102041 95.8163265,313.979592 C95.9183673,313.367347 96.0204082,312.755102 96.122449,312.142857 C96.9387755,308.265306 97.5510204,291.938776 97.3469388,289.897959 Z M64.7959184,241.122449 C64.4897959,242.653061 63.877551,248.265306 63.877551,248.265306 C63.877551,248.265306 61.5306122,258.877551 59.4897959,267.959184 C59.3877551,261.428571 59.3877551,253.265306 60.1020408,248.877551 C61.3265306,240.714286 62.244898,230.408163 62.5510204,227.040816 C62.755102,225.306122 64.8979592,218.571429 66.9387755,212.244898 C67.9591837,215 68.7755102,222.244898 68.7755102,223.673469 C68.7755102,225.204082 65.1020408,239.591837 64.7959184,241.122449 L64.7959184,241.122449 Z" id="Shape" fill="#ED1C24" fill-rule="nonzero"></path>
            <path d="M118.163265,112.959184 C118.163265,112.857143 118.163265,112.755102 118.061224,112.653061 C117.44898,112.857143 116.938776,113.163265 116.326531,113.469388 C117.55102,114.387755 118.163265,113.571429 118.163265,112.959184 Z" id="Path" fill="#AE272D" fill-rule="nonzero"></path>
            <path d="M239.591837,158.265306 C241.22449,157.55102 240.102041,156.632653 239.591837,156.122449 C239.489796,156.020408 239.387755,155.816327 239.285714,155.714286 C238.979592,156.326531 238.673469,157.040816 238.571429,157.653061 C238.673469,157.857143 238.77551,157.959184 238.979592,158.163265 C238.979592,158.265306 238.979592,158.265306 239.081633,158.265306 L239.081633,158.265306 C239.183673,158.367347 239.387755,158.367347 239.591837,158.265306 Z" id="Path" fill="#88272D" fill-rule="nonzero"></path>
            <path d="M236.020408,156.734694 C236.020408,156.530612 236.020408,156.22449 236.020408,156.020408 L235.714286,155.816327 C235.714286,156.020408 235.612245,156.22449 235.612245,156.428571 C235.816327,156.530612 235.918367,156.632653 236.020408,156.734694 Z" id="Path"></path>
            <path d="M236.836735,154.897959 C237.44898,154.285714 237.55102,154.183673 237.55102,153.265306 C237.55102,153.061224 237.55102,152.755102 237.55102,152.44898 C237.653061,152.142857 237.653061,151.938776 237.857143,151.632653 C237.857143,150.714286 238.061224,149.693878 238.571429,148.877551 C239.183673,147.857143 240.102041,146.938776 241.020408,146.22449 L241.020408,146.22449 C241.020408,146.122449 240.816327,146.020408 240.714286,145.816327 C238.061224,147.44898 235.714286,149.285714 235.714286,152.755102 C235.714286,153.469388 235.918367,154.183673 235.918367,155 C235.918367,155.306122 235.918367,155.510204 235.918367,155.816327 L236.22449,156.020408 C236.22449,155.612245 236.428571,155.204082 236.836735,154.897959 Z" id="Path" fill="#88272D" fill-rule="nonzero"></path>
            <path d="M281.020408,141.428571 C280.918367,141.326531 280.816327,141.326531 280.816327,141.326531 C280.816327,141.530612 280.816327,141.734694 280.816327,141.734694 L280.612245,141.836735 C280.816327,142.244898 281.020408,142.55102 281.22449,142.959184 C281.428571,143.061224 281.734694,143.265306 281.938776,143.367347 C281.632653,142.857143 281.428571,142.244898 281.326531,141.632653 C281.22449,141.530612 281.122449,141.530612 281.020408,141.428571 Z" id="Path" fill="#88272D" fill-rule="nonzero"></path>
            <path d="M235.408163,158.979592 C235.306122,160.204082 235.408163,161.326531 235.612245,162.55102 C235.510204,161.428571 235.612245,160.306122 235.714286,159.183673 L235.408163,158.979592 Z" id="Path"></path>
            <path d="M284.489796,150.306122 C285.204082,150.714286 285.816327,151.326531 286.122449,152.142857 C286.122449,151.326531 286.020408,150.510204 285.918367,149.795918 C285.714286,149.387755 285.408163,148.979592 285.204082,148.673469 C285.102041,148.571429 285,148.469388 284.897959,148.367347 C284.489796,148.061224 283.979592,147.857143 283.571429,147.55102 C283.673469,147.959184 283.77551,148.367347 283.877551,148.673469 C283.979592,149.183673 284.183673,149.693878 284.489796,150.306122 Z" id="Path" fill="#88272D" fill-rule="nonzero"></path>
            <path d="M285.510204,166.22449 C285.204082,166.632653 284.591837,166.632653 284.285714,166.326531 C284.081633,167.244898 283.877551,167.959184 283.77551,167.959184 C284.489796,168.265306 286.020408,166.326531 286.22449,166.020408 C286.326531,165.816327 286.428571,165.510204 286.530612,165.306122 C286.122449,165.612245 285.816327,165.918367 285.510204,166.22449 Z" id="Path" fill="#88272D" fill-rule="nonzero"></path>
            <path d="M288.163265,167.244898 C287.857143,167.755102 287.44898,168.265306 286.938776,168.571429 C287.346939,168.673469 288.163265,168.877551 289.183673,169.081633 C289.285714,168.877551 289.387755,168.673469 289.387755,168.469388 C289.795918,166.938776 289.795918,165.408163 289.489796,163.877551 C289.285714,165.102041 288.77551,166.22449 288.163265,167.244898 Z" id="Path" fill="#88272D" fill-rule="nonzero"></path>
            <path d="M284.897959,161.428571 L284.489796,164.183673 C285,163.673469 285.612245,163.163265 286.122449,162.653061 C285.816327,162.55102 285.612245,162.346939 285.408163,162.142857 C285.306122,161.938776 285.102041,161.734694 284.897959,161.428571 Z" id="Path" fill="#88272D" fill-rule="nonzero"></path>
            <path d="M288.571429,156.122449 C288.571429,155.510204 288.571429,154.795918 288.571429,154.183673 C288.367347,154.693878 288.265306,155.102041 287.959184,155.612245 C288.265306,155.714286 288.367347,155.918367 288.571429,156.122449 L288.571429,156.122449 Z" id="Path" fill="#88272D" fill-rule="nonzero"></path>
            <path d="M287.44898,161.020408 C287.755102,160.204082 288.163265,159.183673 288.061224,158.571429 C287.959184,158.265306 287.755102,157.857143 287.44898,157.653061 C287.142857,158.367347 286.836735,158.979592 286.428571,159.591837 C286.530612,160.102041 286.836735,160.612245 287.346939,160.918367 L287.44898,161.020408 Z" id="Path" fill="#88272D" fill-rule="nonzero"></path>
            <path d="M225.102041,267.755102 C225.102041,270.714286 225.204082,275.306122 225.204082,279.795918 C225.204082,286.734694 231.530612,300.510204 231.530612,300.510204 C231.530612,300.510204 233.367347,306.122449 235.612245,313.163265 C236.122449,311.22449 236.428571,309.183673 236.326531,307.040816 C236.428571,302.857143 228.877551,280.714286 225.102041,267.755102 Z" id="Path" fill="#AE272D" fill-rule="nonzero"></path>
            <path d="M306.530612,233.979592 C307.346939,236.938776 308.163265,239.897959 308.469388,241.530612 C308.979592,243.877551 314.183673,250 319.183673,256.020408 L308.979592,223.571429 C308.979592,223.571429 307.959184,228.163265 306.530612,233.979592 Z" id="Path" fill="#AE272D" fill-rule="nonzero"></path>
            <path d="M240.612245,324.897959 L239.693878,325.816327 C240.510204,328.469388 241.326531,331.020408 242.040816,333.265306 C242.040816,333.163265 242.142857,333.061224 242.142857,333.061224 C242.755102,331.22449 240.612245,324.897959 240.612245,324.897959 Z" id="Path" fill="#AE272D" fill-rule="nonzero"></path>
            <path d="M296.632653,271.326531 C296.428571,273.571429 295.306122,312.653061 294.183673,315.306122 C293.061224,317.959184 291.22449,327.244898 291.428571,329.081633 C291.632653,330.918367 291.836735,333.163265 291.836735,333.163265 C291.836735,333.163265 291.326531,333.673469 290.612245,334.387755 C290.714286,334.897959 290.714286,335.408163 290.714286,335.918367 C290.714286,337.755102 290.510204,339.489796 290.306122,341.326531 C290.306122,341.326531 286.020408,343.367347 283.265306,344.693878 C280.510204,346.020408 277.857143,349.183673 275.612245,350.816327 C273.367347,352.44898 269.285714,353.979592 265.714286,351.734694 C262.142857,349.489796 262.55102,342.959184 263.469388,341.326531 C264.387755,339.693878 268.469388,338.163265 269.795918,337.244898 C270.408163,336.734694 271.020408,336.122449 271.632653,335.510204 C269.897959,333.469388 268.77551,331.428571 268.877551,330.714286 C269.081633,329.183673 271.122449,324.183673 271.122449,322.857143 C271.122449,321.530612 270,318.77551 271.122449,317.244898 C271.836735,316.326531 272.346939,315.204082 272.653061,314.081633 C272.653061,314.081633 270.816327,301.938776 270.816327,299.897959 C270.816327,297.857143 272.857143,273.77551 273.061224,271.938776 C273.265306,270.102041 270.408163,268.061224 271.22449,265.204082 C271.938776,262.755102 275.408163,223.265306 276.938776,209.285714 L276.632653,209.489796 C274.693878,207.959184 272.755102,206.326531 271.020408,204.489796 C268.571429,202.040816 267.44898,200.408163 267.142857,199.795918 C266.836735,199.183673 267.55102,197.346939 267.857143,196.632653 C268.163265,195.918367 270.816327,182.244898 271.22449,179.489796 C271.938776,174.285714 272.346939,169.081633 272.346939,163.877551 C272.346939,162.857143 272.346939,161.530612 272.244898,160.204082 C267.040816,162.142857 261.530612,163.877551 261.530612,163.877551 C261.530612,163.877551 248.469388,162.959184 247.755102,162.346939 C247.040816,161.734694 239.591837,158.979592 238.979592,158.469388 L238.77551,158.367347 L238.77551,158.367347 C238.367347,158.061224 237.244898,157.142857 235.918367,156.122449 C235.816327,156.326531 235.816327,156.632653 235.918367,156.836735 C235.816327,156.734694 235.714286,156.632653 235.612245,156.530612 C235.612245,156.326531 235.714286,156.122449 235.714286,155.918367 C234.489796,154.897959 233.163265,153.877551 232.040816,152.959184 L232.244898,155.408163 C232.55102,156.020408 232.959184,156.734694 233.469388,157.244898 C233.469388,157.346939 233.469388,157.44898 233.469388,157.653061 C233.265306,159.795918 233.367347,162.040816 233.77551,164.183673 C234.183673,165.612245 234.897959,166.938776 235.918367,168.061224 C236.020408,168.77551 236.22449,169.387755 236.428571,170 C236.428571,170 236.530612,170.102041 236.530612,170.102041 L235.306122,170.408163 C233.979592,170.714286 231.836735,171.020408 230,171.632653 L228.979592,172.244898 L228.77551,172.040816 C227.857143,172.44898 227.142857,172.959184 226.530612,173.673469 C225.204082,175.408163 223.061224,175.918367 221.938776,177.040816 C222.755102,177.142857 223.673469,177.244898 224.489796,177.244898 C226.22449,178.469388 227.857143,179.897959 229.285714,181.428571 C231.428571,183.877551 240.102041,214.183673 241.020408,216.632653 C241.938776,219.081633 242.55102,219.897959 241.632653,221.122449 C241.122449,221.836735 239.591837,222.755102 237.244898,224.387755 C236.734694,229.183673 236.22449,236.22449 236.836735,237.959184 C237.755102,240.612245 244.693878,257.244898 245,274.693878 C245.204082,285.918367 246.530612,297.142857 248.877551,308.061224 C249.489796,311.326531 251.326531,313.469388 252.44898,316.734694 C253.571429,320 253.061224,330.612245 252.755102,331.428571 C252.44898,332.244898 246.734694,338.979592 245.816327,339.795918 C245.306122,340.204082 244.693878,340.612245 244.081633,340.714286 C244.183673,341.020408 244.183673,341.22449 244.285714,341.530612 C244.285714,343.367347 243.979592,347.55102 243.979592,347.55102 C243.979592,347.55102 243.979592,360.510204 244.897959,361.428571 C245.816327,362.346939 251.22449,365.612245 253.061224,365.612245 C253.265306,365.612245 253.979592,365.510204 255,365.306122 C258.673469,379.897959 267.346939,414.183673 267.755102,417.142857 C268.265306,421.020408 266.836735,431.122449 265.714286,433.877551 C264.591837,436.632653 264.183673,438.469388 261.122449,440.816327 C258.061224,443.163265 257.142857,452.244898 257.142857,452.244898 C257.142857,452.244898 258.673469,454.897959 262.755102,454.897959 C266.836735,454.897959 271.938776,455.408163 276.020408,453.061224 C278.469388,451.632653 280.408163,448.877551 282.040816,445.714286 C283.77551,445.306122 285.306122,444.489796 286.734694,443.469388 C290.510204,440.612245 292.346939,434.387755 293.673469,428.877551 C295,423.367347 296.428571,422.142857 296.428571,422.142857 C296.428571,422.142857 295.612245,415.204082 289.183673,407.653061 C284.387755,401.938776 286.22449,395.408163 286.326531,389.183673 C286.428571,383.877551 288.877551,373.163265 284.387755,359.897959 C285.918367,359.591837 284.693878,359.591837 284.693878,359.591837 L290.714286,357.142857 C290.714286,357.142857 294.897959,357.755102 296.122449,356.836735 C297.346939,355.918367 294.897959,343.571429 294.897959,340.306122 C294.897959,337.040816 298.469388,324.081633 298.469388,324.081633 C298.469388,324.081633 308.979592,284.081633 309.285714,267.244898 C309.489796,254.183673 305.918367,247.244898 304.081633,243.163265 C302.44898,249.897959 300.816327,256.326531 300.102041,258.367347 C298.571429,263.673469 296.836735,269.081633 296.632653,271.326531 Z" id="Path" fill="#DD1C24" fill-rule="nonzero"></path>
            <path d="M221.428571,240.714286 C220.408163,243.673469 219.183673,246.938776 218.673469,249.081633 C218.061224,251.938776 219.285714,257.244898 219.897959,261.530612 C221.020408,257.755102 221.836735,254.693878 221.734694,253.367347 C221.632653,251.836735 222.142857,248.469388 222.857143,244.795918 C222.653061,243.571429 222.244898,242.44898 221.734694,241.326531 C221.632653,241.122449 221.530612,240.918367 221.428571,240.714286 Z" id="Path" fill="#AE272D" fill-rule="nonzero"></path>
            <path d="M257.346939,141.326531 C257.346939,141.326531 259.795918,137.959184 260.918367,135.918367 C262.040816,133.877551 262.959184,133.469388 262.959184,133.469388 C264.285714,131.428571 265.714286,129.489796 267.244898,127.653061 C269.693878,125.102041 272.244898,122.653061 274.897959,120.408163 C272.346939,119.183673 268.571429,118.265306 263.265306,118.673469 C253.061224,119.591837 249.387755,120.510204 248.265306,123.163265 C247.142857,125.816327 247.040816,129.489796 247.040816,129.489796 C247.040816,129.489796 246.428571,133.367347 246.122449,134.897959 C246.122449,135.102041 246.020408,135.510204 245.918367,135.816327 C244.591837,136.530612 243.367347,137.346939 242.244898,138.163265 C241.428571,138.673469 240.714286,139.387755 240.102041,140.102041 L242.857143,141.22449 L257.346939,141.326531 Z" id="Path" fill="#DD1C24" fill-rule="nonzero"></path>
            <path d="M331.326531,280.408163 C331.020408,282.857143 331.938776,286.734694 333.979592,289.387755 C336.020408,292.040816 335.204082,295.714286 335.204082,295.714286 C335.204082,295.714286 337.959184,296.326531 338.469388,294.489796 C338.979592,292.653061 338.77551,288.163265 338.77551,288.163265 C338.77551,288.163265 341.836735,290 342.653061,293.265306 C343.163265,295.306122 342.857143,297.44898 341.734694,299.285714 C341.734694,299.285714 341.734694,302.346939 342.653061,302.346939 C343.571429,302.346939 345.918367,299.897959 346.22449,298.77551 C346.530612,297.653061 347.755102,290.408163 348.367347,287.959184 C348.979592,285.510204 348.367347,284.081633 347.44898,281.938776 C346.530612,279.795918 344.183673,273.571429 342.346939,271.428571 C340.510204,269.285714 338.163265,261.22449 334.183673,250.408163 C330.204082,239.591837 321.428571,224.387755 321.428571,224.387755 L317.755102,215.816327 C319.693878,214.285714 320.918367,212.755102 321.428571,211.734694 C322.346939,209.591837 308.469388,182.857143 306.122449,178.061224 C303.77551,173.265306 298.265306,172.040816 294.081633,170.510204 C293.061224,170.102041 292.040816,169.795918 291.122449,169.591837 C291.632653,168.367347 291.836735,167.040816 291.938776,165.714286 C291.938776,163.877551 291.22449,162.244898 291.020408,160.408163 C292.142857,158.877551 292.346939,156.938776 291.632653,155.204082 C291.326531,154.489796 291.020408,153.77551 290.612245,153.163265 C290.510204,151.836735 290.102041,150.612245 289.489796,149.489796 C289.183673,148.877551 288.673469,148.265306 288.061224,147.857143 L288.673469,147.857143 C290,147.857143 290,145.816327 288.673469,145.816327 C288.163265,145.918367 287.653061,145.918367 287.040816,145.816327 C286.938776,145.816327 286.836735,145.714286 286.734694,145.714286 C286.22449,144.591837 285.510204,143.571429 284.897959,142.55102 C284.387755,141.632653 283.979592,140.714286 283.061224,140.204082 C282.959184,140.102041 282.755102,140.102041 282.653061,140.102041 C282.040816,139.693878 281.326531,139.285714 280.612245,139.081633 C280.102041,134.489796 279.081633,125.510204 278.77551,123.979592 C278.673469,122.959184 277.44898,121.428571 275,120.204082 C272.346939,122.44898 269.693878,124.897959 267.346939,127.44898 C265.816327,129.285714 264.387755,131.326531 263.061224,133.265306 C263.061224,133.265306 262.142857,133.673469 261.020408,135.714286 C259.897959,137.755102 257.44898,141.122449 257.44898,141.122449 L243.061224,141.122449 L240.306122,140 C240.102041,140.306122 239.897959,140.714286 239.795918,141.122449 C239.693878,141.22449 239.591837,141.22449 239.591837,141.326531 C236.22449,144.285714 232.653061,147.755102 231.938776,152.346939 C231.836735,153.367347 232.040816,154.285714 232.44898,155.204082 L232.244898,152.755102 C233.367347,153.673469 234.693878,154.795918 235.918367,155.714286 C235.918367,155.408163 235.918367,155.204082 235.918367,154.897959 C235.918367,154.183673 235.714286,153.469388 235.714286,152.653061 C235.714286,149.183673 238.163265,147.346939 240.714286,145.714286 C240.918367,145.816327 241.020408,146.020408 241.020408,146.122449 L241.020408,146.122449 C240.102041,146.836735 239.183673,147.755102 238.571429,148.77551 C238.061224,149.591837 237.857143,150.510204 237.857143,151.530612 C237.755102,151.836735 237.653061,152.040816 237.55102,152.346939 C237.55102,152.55102 237.55102,152.857143 237.55102,153.163265 C237.55102,154.081633 237.44898,154.183673 236.836735,154.795918 C236.530612,155.102041 236.326531,155.510204 236.122449,156.020408 C237.44898,157.040816 238.571429,157.959184 238.979592,158.265306 C238.979592,158.265306 238.979592,158.163265 238.877551,158.163265 C238.77551,157.959184 238.673469,157.857143 238.469388,157.653061 C238.571429,156.938776 238.877551,156.326531 239.183673,155.714286 C239.285714,155.816327 239.387755,156.020408 239.489796,156.122449 C240,156.734694 241.122449,157.653061 239.489796,158.265306 C239.285714,158.367347 239.081633,158.367347 238.877551,158.265306 L239.081633,158.367347 C239.795918,158.77551 247.244898,161.530612 247.857143,162.244898 C248.469388,162.959184 261.632653,163.77551 261.632653,163.77551 C261.632653,163.77551 267.142857,162.040816 272.346939,160.102041 C272.44898,161.530612 272.44898,162.755102 272.44898,163.77551 C272.44898,168.979592 272.040816,174.183673 271.326531,179.387755 C270.918367,182.040816 268.163265,195.816327 267.959184,196.530612 C267.755102,197.244898 267.040816,198.979592 267.244898,199.693878 C267.44898,200.408163 268.571429,201.938776 271.122449,204.387755 C272.857143,206.122449 274.795918,207.755102 276.734694,209.387755 L277.040816,209.183673 C275.510204,223.061224 272.142857,262.653061 271.326531,265.102041 C270.408163,268.061224 273.367347,270.102041 273.163265,271.836735 C272.959184,273.571429 270.918367,297.755102 270.918367,299.795918 C270.918367,301.836735 272.755102,313.979592 272.755102,313.979592 C272.346939,315.102041 271.836735,316.122449 271.22449,317.142857 C270.102041,318.673469 271.22449,321.428571 271.22449,322.755102 C271.22449,324.081633 269.183673,329.081633 268.979592,330.612245 C268.877551,331.326531 270,333.367347 271.734694,335.408163 C271.22449,336.020408 270.612245,336.632653 269.897959,337.142857 C268.571429,338.061224 264.489796,339.591837 263.571429,341.22449 C262.653061,342.857143 262.244898,349.387755 265.816327,351.632653 C269.387755,353.877551 273.469388,352.346939 275.714286,350.714286 C277.959184,349.081633 280.714286,346.020408 283.367347,344.591837 C286.020408,343.163265 290.408163,341.22449 290.408163,341.22449 C290.714286,339.387755 290.816327,337.653061 290.816327,335.816327 C290.816327,335.408163 290.816327,334.897959 290.714286,334.285714 C291.530612,333.571429 291.938776,333.061224 291.938776,333.061224 C291.938776,333.061224 291.734694,330.816327 291.530612,328.979592 C291.326531,327.142857 293.061224,317.959184 294.285714,315.204082 C295.510204,312.44898 296.530612,273.469388 296.734694,271.22449 C296.938776,268.979592 298.77551,263.571429 300.306122,258.571429 C300.918367,256.530612 302.55102,250.204082 304.285714,243.367347 C303.77551,242.44898 303.469388,241.428571 303.163265,240.408163 C302.55102,236.836735 299.897959,228.979592 301.326531,226.836735 C302.755102,224.693878 302.244898,222.040816 302.244898,222.040816 C302.346939,222.142857 302.44898,222.142857 302.55102,222.142857 L304.081633,225 C304.081633,225 305.408163,229.285714 306.632653,233.673469 C308.061224,227.857143 309.183673,223.265306 309.183673,223.265306 L319.387755,255.714286 C323.265306,260.306122 326.938776,265 328.571429,267.959184 C331.938776,275.306122 331.632653,277.959184 331.326531,280.408163 Z M281.22449,142.959184 C281.020408,142.55102 280.918367,142.142857 280.612245,141.836735 L280.816327,141.734694 C280.816327,141.734694 280.816327,141.632653 280.816327,141.326531 C280.918367,141.326531 281.020408,141.428571 281.020408,141.428571 C281.020408,141.428571 281.22449,141.530612 281.22449,141.632653 C281.326531,142.244898 281.530612,142.857143 281.836735,143.367347 C281.632653,143.265306 281.428571,143.061224 281.22449,142.959184 L281.22449,142.959184 Z M288.673469,154.081633 C288.673469,154.693878 288.673469,155.408163 288.673469,156.020408 L288.673469,156.020408 C288.469388,155.816327 288.367347,155.612245 288.163265,155.408163 C288.265306,155 288.469388,154.591837 288.673469,154.081633 L288.673469,154.081633 Z M284.897959,148.163265 C285,148.265306 285.102041,148.367347 285.204082,148.469388 C285.408163,148.877551 285.714286,149.285714 285.918367,149.591837 C286.020408,150.408163 286.122449,151.122449 286.122449,151.938776 C285.816327,151.122449 285.204082,150.510204 284.489796,150.102041 C284.183673,149.591837 283.979592,148.979592 283.877551,148.367347 C283.77551,147.959184 283.673469,147.55102 283.571429,147.244898 C283.979592,147.653061 284.489796,147.857143 284.897959,148.163265 L284.897959,148.163265 Z M286.22449,162.653061 C285.612245,163.163265 285.102041,163.673469 284.591837,164.183673 L285,161.428571 C285.204082,161.632653 285.306122,161.938776 285.510204,162.142857 C285.714286,162.346939 286.020408,162.55102 286.22449,162.653061 L286.22449,162.653061 Z M286.122449,165.918367 C285.918367,166.326531 284.387755,168.265306 283.673469,167.857143 C283.77551,167.959184 283.979592,167.142857 284.183673,166.22449 C284.591837,166.530612 285.102041,166.530612 285.408163,166.122449 C285.714286,165.816327 286.020408,165.510204 286.326531,165.204082 C286.326531,165.510204 286.326531,165.714286 286.122449,165.918367 L286.122449,165.918367 Z M286.326531,159.591837 C286.734694,158.979592 287.142857,158.367347 287.346939,157.653061 C287.653061,157.959184 287.857143,158.265306 287.959184,158.571429 C288.061224,159.183673 287.755102,160.102041 287.346939,161.020408 L287.142857,160.918367 C286.836735,160.612245 286.428571,160.102041 286.326531,159.591837 L286.326531,159.591837 Z M289.387755,168.571429 C289.285714,168.77551 289.285714,168.979592 289.183673,169.183673 C288.163265,168.877551 287.346939,168.77551 286.938776,168.673469 C287.44898,168.265306 287.857143,167.857143 288.163265,167.346939 C288.77551,166.326531 289.183673,165.204082 289.489796,164.081633 C289.897959,165.510204 289.795918,167.040816 289.387755,168.571429 L289.387755,168.571429 Z" id="Shape" fill="#ED1C24" fill-rule="nonzero"></path>
            <path d="M230.102041,171.428571 C229.693878,171.530612 229.285714,171.734694 228.877551,171.836735 L229.081633,172.040816 L230.102041,171.428571 Z" id="Path" fill="#AE272D" fill-rule="nonzero"></path>
            <path d="M132.959184,328.163265 C133.877551,328.163265 134.795918,328.265306 135.612245,328.469388 C135.612245,328.469388 136.22449,325.204082 134.693878,323.979592 C134.183673,323.571429 133.571429,323.367347 132.857143,323.163265 C132.959184,325 132.959184,326.632653 132.959184,328.163265 Z" id="Path" fill="#E6E6E6" fill-rule="nonzero"></path>
            <path d="M135.306122,306.428571 C135.102041,305.918367 134.795918,305.408163 134.591837,304.897959 C134.693878,305.816327 134.693878,306.326531 134.693878,306.326531 C134.693878,306.326531 135,306.428571 135.306122,306.428571 Z" id="Path" fill="#310C23" fill-rule="nonzero"></path>
            <path d="M132.959184,316.326531 C133.571429,317.244898 134.183673,318.163265 134.183673,318.571429 C134.183673,319.489796 136.020408,321.020408 136.020408,321.020408 C136.020408,321.020408 138.469388,321.326531 138.163265,318.061224 C137.857143,315.204082 136.530612,313.163265 136.326531,311.122449 C135.306122,311.734694 134.183673,312.040816 133.061224,312.040816 C132.959184,313.469388 132.959184,314.897959 132.959184,316.326531 Z" id="Path" fill="#E6E6E6" fill-rule="nonzero"></path>
            <path d="M252.653061,316.734694 C251.428571,313.469388 249.591837,311.326531 249.081633,308.061224 C246.734694,297.040816 245.408163,285.918367 245.204082,274.693878 C244.897959,257.244898 237.959184,240.714286 237.040816,237.959184 C236.428571,236.22449 237.040816,229.183673 237.44898,224.387755 C239.795918,222.755102 241.326531,221.836735 241.836735,221.122449 C242.755102,219.897959 242.142857,218.979592 241.22449,216.632653 C240.306122,214.285714 231.632653,183.877551 229.489796,181.428571 C228.061224,179.795918 226.428571,178.469388 224.693878,177.244898 C223.877551,177.244898 222.959184,177.142857 222.142857,177.040816 C219.081633,176.632653 216.122449,175.816327 213.265306,174.489796 C207.653061,171.836735 203.265306,169.183673 200.510204,166.836735 L201.836735,166.326531 C201.836735,166.326531 203.061224,163.877551 203.061224,163.061224 C203.061224,162.244898 203.673469,152.857143 203.673469,151.632653 C203.673469,150.408163 205.204082,142.959184 206.122449,140.816327 C206.836735,139.183673 205.510204,137.755102 204.387755,137.040816 C204.795918,133.877551 204.591837,130.714286 203.77551,127.55102 C202.244898,122.44898 195.918367,116.428571 193.265306,115.204082 C190.612245,113.979592 185.408163,113.673469 185.408163,113.673469 C185.408163,113.673469 179.693878,113.061224 176.632653,114.285714 C173.571429,115.510204 167.346939,124.795918 166.734694,127.857143 C166.122449,130.918367 164.897959,135.408163 165.204082,138.673469 C165.204082,138.77551 165.306122,138.979592 165.306122,139.081633 C164.693878,142.653061 163.979592,147.142857 163.979592,148.571429 C163.979592,151.020408 162.755102,153.061224 162.755102,154.285714 C162.755102,155.510204 161.22449,158.77551 161.530612,162.142857 C161.632653,164.285714 161.632653,166.326531 161.428571,168.469388 C160.918367,168.979592 160.612245,169.387755 160.612245,169.387755 C160.612245,169.387755 150.204082,171.428571 144.081633,173.469388 C142.040816,174.183673 140.408163,174.795918 139.897959,175.408163 C137.755102,177.857143 137.244898,179.285714 137.244898,179.285714 C137.244898,179.285714 130,193.673469 128.469388,199.387755 C126.938776,205.102041 124.285714,217.44898 123.979592,218.979592 C123.673469,220.510204 125.816327,224.387755 125.816327,224.387755 C125.816327,224.387755 127.040816,224.795918 128.673469,225.306122 L128.77551,230.102041 C128.77551,230.102041 124.285714,245.408163 123.367347,252.346939 C122.44898,259.285714 118.877551,286.020408 118.571429,288.163265 C118.265306,290.306122 116.734694,295.408163 116.734694,296.632653 C116.734694,297.857143 116.428571,301.122449 116.428571,302.346939 C116.428571,303.571429 114.897959,313.77551 115.816327,315.612245 C116.734694,317.44898 121.22449,324.897959 122.755102,325.510204 C124.285714,326.122449 130.918367,328.265306 132.653061,328.265306 L132.959184,328.265306 C132.959184,326.734694 132.959184,325.102041 132.959184,323.265306 C131.428571,322.857143 129.693878,322.653061 129.081633,321.632653 C128.163265,320.102041 126.632653,317.44898 126.938776,316.22449 C127.244898,315 128.77551,312.653061 128.77551,312.653061 L131.530612,314.489796 C131.530612,314.489796 132.346939,315.408163 133.061224,316.530612 C133.061224,315.102041 133.061224,313.673469 133.061224,312.142857 C134.183673,312.142857 135.306122,311.836735 136.326531,311.22449 C136.326531,310.918367 136.326531,310.612245 136.326531,310.306122 C136.428571,309.285714 136.020408,307.959184 135.408163,306.632653 C135,306.530612 134.795918,306.530612 134.795918,306.530612 C134.795918,306.530612 134.795918,306.020408 134.693878,305.102041 C133.979592,303.877551 133.469388,302.653061 133.061224,301.326531 C132.44898,298.877551 129.489796,295 132.44898,285.408163 C135.408163,275.816327 142.346939,253.877551 143.265306,248.979592 C144.183673,244.081633 143.571429,240.816327 145.102041,237.55102 C145.306122,237.142857 145.510204,236.632653 145.714286,236.020408 C146.326531,234.387755 147.040816,232.040816 147.755102,229.795918 C148.877551,229.795918 149.591837,229.693878 149.591837,229.693878 L150,229.693878 C149.591837,235.102041 149.081633,241.632653 148.77551,243.571429 C148.163265,246.836735 147.857143,260.102041 147.857143,263.673469 C147.857143,267.244898 147.244898,273.877551 146.632653,276.020408 C146.020408,278.163265 144.183673,296.428571 144.183673,297.959184 C144.183673,299.489796 146.326531,302.44898 145.408163,304.897959 C144.489796,307.346939 144.795918,309.387755 144.795918,310.306122 C144.795918,311.22449 145.102041,313.877551 145.102041,313.877551 L147.142857,314.081633 C146.122449,326.122449 144.693878,343.77551 145.102041,346.938776 C145.714286,351.734694 145.102041,354.489796 144.795918,358.367347 C144.489796,362.244898 143.571429,364.387755 143.877551,366.530612 C144.183673,368.673469 145.714286,371.938776 145.714286,371.938776 C145.714286,371.938776 146.632653,377.040816 146.020408,378.265306 C145.408163,379.489796 143.061224,381.530612 143.877551,383.061224 C144.693878,384.591837 146.836735,394.183673 147.44898,398.979592 C148.061224,403.77551 147.44898,406.530612 147.755102,411.020408 C148.061224,415.510204 152.857143,430 152.55102,432.040816 C152.244898,434.081633 154.387755,436.22449 153.163265,438.367347 C151.938776,440.510204 152.244898,448.571429 152.857143,450.714286 C153.367347,452.346939 154.285714,451.938776 157.040816,454.285714 L157.040816,457.244898 C157.040816,457.244898 155.816327,459.693878 155.204082,467.142857 C154.591837,474.591837 153.367347,477.959184 154.285714,483.061224 C155.204082,488.163265 162.44898,491.734694 163.265306,492.346939 C164.081633,492.959184 169.897959,493.265306 170.510204,492.040816 C171.122449,490.816327 173.77551,491.734694 175.306122,480.918367 C176.836735,470.102041 173.469388,465.612245 173.77551,462.55102 C173.979592,460.816327 174.285714,456.734694 174.591837,453.77551 C174.897959,453.673469 175.204082,453.469388 175.510204,453.265306 C176.326531,452.755102 177.142857,447.346939 177.959184,439.183673 C178.061224,442.959184 178.163265,446.530612 177.857143,447.857143 C177.244898,451.122449 177.857143,458.367347 179.693878,460.816327 C180,461.22449 180.408163,461.836735 180.918367,462.653061 L180.306122,465.918367 C180.306122,465.918367 178.77551,471.632653 178.77551,474.897959 L178.77551,480.306122 L180.918367,481.530612 C180.918367,481.530612 181.530612,485.714286 181.22449,488.469388 C180.918367,491.22449 182.44898,493.571429 185.408163,495.408163 C189.795918,498.061224 190.612245,499.795918 196.836735,499.591837 C205.816327,499.285714 208.571429,496.326531 208.571429,492.653061 C208.571429,488.979592 203.469388,485.408163 203.163265,480.918367 C203.061224,478.77551 202.755102,476.020408 202.55102,473.571429 C203.673469,473.265306 204.387755,473.061224 204.387755,473.061224 C204.387755,473.061224 205.612245,469.795918 205.306122,466.734694 C205,463.673469 206.22449,457.44898 206.22449,454.795918 C206.22449,452.142857 210.408163,425 211.020408,418.061224 C211.632653,411.122449 212.55102,395.816327 212.55102,395.816327 C212.244898,394.183673 211.836735,392.55102 211.326531,391.020408 C210.714286,389.489796 212.244898,376.326531 213.163265,372.653061 C214.081633,368.979592 215.918367,361.530612 216.428571,357.040816 C216.938776,352.55102 218.571429,330.306122 219.693878,326.020408 C220.408163,323.673469 219.795918,317.653061 219.183673,312.653061 C222.653061,310.102041 225.102041,307.959184 225.102041,307.959184 C225.102041,307.959184 219.693878,269.795918 220,265.510204 C220,264.081633 220,262.755102 219.693878,261.428571 C219.081633,257.142857 217.857143,251.836735 218.469388,248.979592 C218.979592,246.836735 220.204082,243.469388 221.22449,240.612245 C221.326531,240.816327 221.428571,241.020408 221.428571,241.22449 C221.938776,242.346939 222.346939,243.469388 222.55102,244.693878 L222.55102,244.693878 C223.367347,249.285714 222.653061,254.897959 222.653061,258.673469 C222.653061,259.897959 223.571429,263.265306 224.795918,267.755102 C228.673469,280.714286 236.122449,302.857143 236.122449,307.142857 C236.122449,309.183673 235.918367,311.22449 235.408163,313.265306 C234.897959,315.204082 234.387755,316.530612 234.387755,317.755102 C234.387755,319.897959 234.081633,326.122449 233.77551,328.571429 C233.469388,331.020408 235,335.816327 235,335.816327 C235,335.816327 237.44898,333.979592 237.755102,333.163265 C238.061224,332.346939 237.755102,327.755102 237.755102,327.755102 L239.489796,326.020408 L240.408163,325.102041 C240.408163,325.102041 242.55102,331.428571 241.938776,333.265306 C241.938776,333.367347 241.836735,333.469388 241.836735,333.469388 C241.122449,335.102041 240,336.632653 238.673469,337.755102 C237.44898,338.673469 237.755102,340.204082 237.755102,341.326531 C237.755102,342.44898 243.163265,341.326531 243.163265,341.326531 C243.469388,341.22449 243.77551,341.22449 244.081633,341.122449 C244.693878,340.918367 245.306122,340.612245 245.816327,340.204082 C246.734694,339.285714 252.44898,332.653061 252.755102,331.734694 C253.061224,330.816327 253.877551,320 252.653061,316.734694 Z M169.795918,158.979592 C168.979592,159.489796 168.061224,159.795918 167.040816,160 C167.040816,157.959184 167.244898,155.612245 167.653061,154.183673 C168.163265,152.653061 169.285714,149.081633 170.204082,146.122449 C171.020408,147.55102 171.530612,148.77551 171.530612,149.591837 C171.632653,152.040816 171.938776,154.489796 172.44898,156.938776 C171.428571,157.857143 170.408163,158.571429 169.795918,158.979592 Z M198.877551,158.469388 C198.877551,159.489796 198.469388,160.510204 197.857143,161.326531 C197.755102,161.22449 197.755102,161.22449 197.755102,161.22449 C197.44898,161.020408 197.142857,160.816327 196.836735,160.612245 C196.938776,159.081633 197.44898,157.55102 198.061224,156.122449 C198.367347,155.510204 198.77551,154.693878 199.285714,153.673469 C198.979592,155.612245 198.877551,157.55102 198.877551,158.469388 Z" id="Shape" fill="#E6E6E6" fill-rule="nonzero"></path>
            <path d="M194.183673,99.4897959 C194.387755,100.102041 199.285714,99.7959184 199.897959,99.4897959 C200.510204,99.1836735 200.102041,97.9591837 201.326531,97.4489796 C202.55102,96.9387755 205.102041,96.3265306 205.612245,96.4285714 C206.122449,96.5306122 207.653061,97.5510204 209.285714,96.7346939 C210.918367,95.9183673 211.530612,95.3061224 214.081633,95.2040816 C214.591837,95.2040816 215.204082,95.1020408 215.714286,94.8979592 L191.530612,96.7346939 C192.653061,97.3469388 193.571429,98.3673469 194.183673,99.4897959 Z" id="Path"></path>
            <path d="M176.326531,99.0816327 C178.061224,98.7755102 182.755102,97.9591837 183.77551,97.4489796 L184.183673,97.244898 L177.142857,97.755102 C176.938776,98.1632653 176.632653,98.6734694 176.326531,99.0816327 Z" id="Path"></path>
            <path d="M237.44898,96.6326531 C239.897959,96.122449 242.755102,93.7755102 245.204082,92.755102 L226.938776,94.0816327 L227.755102,103.265306 C229.183673,102.653061 230.612245,102.040816 232.040816,101.326531 C232.44898,101.22449 232.857143,101.020408 233.061224,100.714286 C233.367347,100.204082 233.265306,99.1836735 233.163265,98.0612245 C233.163265,97.8571429 233.061224,97.6530612 233.061224,97.5510204 C233.061224,97.4489796 233.163265,97.3469388 233.265306,97.3469388 C233.979592,96.2244898 235.816327,96.9387755 237.44898,96.6326531 Z" id="Path" fill="#730E03" fill-rule="nonzero"></path>
            <path d="M136.22449,93.3673469 C135.102041,92.244898 133.469388,92.3469388 131.734694,91.6326531 C129.591837,90.8163265 127.346939,89.4897959 122.857143,85.4081633 C118.367347,81.3265306 108.061224,76.6326531 107.346939,76.3265306 C106.632653,76.0204082 100.816327,71.9387755 100.816327,71.9387755 C100.816327,71.9387755 101.428571,69.3877551 100.408163,67.4489796 C99.3877551,65.5102041 97.3469388,63.6734694 97.244898,62.8571429 C97.0408163,62.1428571 96.8367347,61.4285714 96.4285714,60.8163265 L95.3061224,61.4285714 C95.3061224,61.4285714 90.7142857,57.755102 90.2040816,57.1428571 C89.6938776,56.5306122 88.7755102,57.3469388 88.7755102,57.3469388 L88.7755102,58.4693878 C88.7755102,58.4693878 86.2244898,57.1428571 86.122449,57.755102 C86.0204082,58.4693878 86.7346939,60 86.7346939,60 C86.3265306,60.2040816 86.0204082,60.7142857 86.0204082,61.2244898 C86.122449,62.0408163 89.2857143,65.3061224 89.6938776,65.6122449 C90.1020408,65.9183673 91.122449,68.1632653 91.122449,68.1632653 C91.122449,68.1632653 87.3469388,64.8979592 86.7346939,64.7959184 C86.122449,64.6938776 85.9183673,65.4081633 85.9183673,65.9183673 C85.9183673,66.4285714 88.7755102,68.877551 89.4897959,69.4897959 C90.2040816,70.1020408 91.122449,71.9387755 91.5306122,72.8571429 C91.9387755,73.7755102 94.5918367,76.2244898 95.3061224,77.0408163 C96.0204082,77.5510204 96.8367347,77.9591837 97.6530612,78.1632653 L98.7755102,81.2244898 C98.7755102,81.2244898 101.734694,82.0408163 102.55102,83.1632653 C103.367347,84.2857143 122.44898,100.612245 125,101.632653 C126.22449,102.040816 127.44898,102.44898 128.77551,102.755102 C130.816327,99.5918367 133.061224,96.6326531 135.510204,93.877551 L136.22449,93.3673469 Z" id="Path" fill="#730E03" fill-rule="nonzero"></path>
            <path d="M215.816327,94.8979592 C215.306122,95.1020408 214.795918,95.2040816 214.183673,95.2040816 C211.632653,95.3061224 211.020408,96.0204082 209.387755,96.7346939 C207.755102,97.4489796 206.122449,96.5306122 205.714286,96.4285714 C205.306122,96.3265306 202.653061,97.0408163 201.428571,97.4489796 C200.204082,97.8571429 200.612245,99.1836735 200,99.4897959 C199.387755,99.7959184 194.489796,100.102041 194.285714,99.4897959 C193.673469,98.3673469 192.755102,97.4489796 191.734694,96.7346939 L184.387755,97.244898 L183.979592,97.4489796 C182.857143,97.9591837 178.265306,98.7755102 176.530612,99.0816327 C176.836735,98.5714286 177.040816,98.1632653 177.44898,97.755102 L177.244898,97.755102 L174.489796,70.5102041 C171.530612,69.4897959 169.489796,69.4897959 168.77551,69.7959184 C167.857143,70.2040816 159.591837,75.5102041 159.183673,78.1632653 C158.77551,80.8163265 161.020408,86.9387755 161.326531,89.0816327 C161.632653,91.2244898 161.530612,91.5306122 162.142857,92.0408163 C162.653061,92.3469388 162.959184,92.9591837 163.163265,93.4693878 C163.163265,93.7755102 163.979592,95.6122449 162.040816,95.7142857 C160.102041,95.8163265 158.469388,94.1836735 158.469388,94.1836735 C158.469388,94.1836735 156.938776,92.4489796 155.918367,92.0408163 C154.897959,91.6326531 151.938776,91.6326531 151.122449,90.9183673 C150.918367,90.8163265 150.816327,90.7142857 150.612245,90.6122449 C147.44898,97.755102 142.244898,108.469388 140,112.44898 C140.816327,115.714286 143.877551,122.857143 142.653061,125.102041 C141.326531,127.55102 142.959184,127.346939 140.816327,128.061224 C138.673469,128.77551 135.612245,132.44898 134.693878,136.020408 C133.77551,139.591837 130,148.367347 133.367347,150.306122 C136.734694,152.244898 140.408163,152.244898 140.714286,153.673469 C141.020408,155.102041 142.244898,158.061224 142.959184,157.755102 C143.77551,157.44898 144.693878,157.346939 145.612245,157.244898 L145.408163,157.55102 C145.408163,157.55102 147.346939,166.734694 146.836735,172.755102 C152.857143,171.020408 160.612245,169.591837 160.612245,169.591837 C160.612245,169.591837 161.020408,169.183673 161.428571,168.673469 C161.632653,166.530612 161.632653,164.489796 161.530612,162.346939 C161.22449,159.081633 162.755102,155.714286 162.755102,154.489796 C162.755102,153.265306 163.979592,151.22449 163.979592,148.77551 C163.979592,147.346939 164.693878,142.857143 165.306122,139.285714 C165.306122,139.183673 165.204082,138.979592 165.204082,138.877551 C164.897959,135.612245 166.122449,131.020408 166.734694,128.061224 C167.346939,125.102041 173.673469,115.714286 176.632653,114.489796 C179.591837,113.265306 185.306122,113.877551 185.306122,113.877551 C185.306122,113.877551 190.408163,114.183673 193.163265,115.408163 C193.469388,115.612245 193.877551,115.714286 194.183673,116.020408 C194.183673,115.306122 194.183673,114.489796 194.081633,113.77551 C197.040816,113.265306 200,112.55102 202.755102,111.632653 C206.530612,110.306122 215.510204,106.632653 219.795918,104.693878 L220.714286,104.693878 L219.693878,94.7959184 L215.816327,94.8979592 Z" id="Path" fill="#730E03" fill-rule="nonzero"></path>
            <path d="M184.285714,97.244898 L191.632653,96.7346939 C191.326531,96.5306122 190.918367,96.3265306 190.612245,96.122449 C188.77551,95.2040816 185.816327,96.5306122 184.285714,97.244898 Z" id="Path" fill="#730E03" fill-rule="nonzero"></path>
            <path d="M147.346939,89.8979592 C146.938776,90.3061224 141.632653,91.2244898 141.020408,94.4897959 C140.204082,94.4897959 139.693878,94.4897959 139.489796,94.5918367 C138.77551,94.6938776 137.959184,96.3265306 136.836735,94.2857143 C136.632653,93.9795918 136.428571,93.6734694 136.22449,93.3673469 L135.714286,93.877551 C133.265306,96.6326531 131.020408,99.5918367 128.979592,102.755102 C130.816327,103.265306 132.55102,103.673469 133.469388,104.387755 C134.693878,105.306122 137.44898,107.653061 139.285714,108.469388 C139.489796,109.591837 139.693878,110.714286 139.795918,111.632653 C139.795918,111.836735 139.897959,112.040816 139.897959,112.346939 C142.040816,108.469388 147.244898,97.755102 150.510204,90.5102041 C149.489796,89.8979592 147.755102,89.4897959 147.346939,89.8979592 Z" id="Path" fill="#C1272D" fill-rule="nonzero"></path>
            <path d="M177.244898,97.755102 C177.346939,97.6530612 177.346939,97.6530612 177.44898,97.5510204 C178.367347,96.7346939 178.877551,97.755102 179.387755,96.0204082 C179.897959,94.2857143 180.204082,92.244898 180.204082,92.244898 C180.918367,91.7346939 181.428571,91.0204082 181.632653,90.2040816 C181.938776,89.1836735 182.142857,88.0612245 182.040816,86.9387755 L181.326531,85.9183673 C181.326531,85.9183673 182.040816,81.7346939 182.142857,80.1020408 C182.244898,78.4693878 182.55102,74.3877551 177.857143,72.0408163 C176.734694,71.5306122 175.612245,71.0204082 174.489796,70.6122449 L177.040816,97.8571429 L177.244898,97.755102 Z" id="Path" fill="#C1272D" fill-rule="nonzero"></path>
            <path d="M245.204082,92.755102 L245.204082,92.755102 C247.653061,91.7346939 248.265306,90.8163265 248.163265,90 C248.061224,89.5918367 246.22449,90.4081633 245.102041,90.7142857 C243.979592,91.0204082 244.387755,90.3061224 244.387755,90.3061224 L244.897959,89.7959184 C244.897959,89.7959184 248.367347,87.4489796 248.469388,86.6326531 C248.571429,85.8163265 247.55102,85.9183673 246.938776,86.3265306 C246.326531,86.7346939 244.795918,87.4489796 244.591837,87.6530612 C244.183673,87.8571429 243.77551,88.0612245 243.367347,88.2653061 C243.367347,88.2653061 247.346939,84.5918367 247.755102,83.7755102 C248.163265,82.9591837 247.142857,82.755102 246.428571,83.1632653 C245.918367,83.4693878 243.367347,85.3061224 242.44898,86.0204082 C243.265306,84.7959184 244.081633,83.6734694 245.102041,82.5510204 C246.22449,81.3265306 245.204082,80.5102041 245.204082,80.5102041 C243.877551,81.2244898 242.653061,82.1428571 241.734694,83.3673469 C240.306122,85.2040816 238.469388,87.0408163 238.469388,87.0408163 C238.469388,87.0408163 239.387755,84.0816327 239.183673,83.5714286 C238.979592,83.0612245 238.979592,82.4489796 238.061224,83.4693878 C237.142857,84.4897959 235.714286,89.7959184 233.571429,91.4285714 C233.061224,91.8367347 231.836735,92.244898 230.408163,92.4489796 C229.591837,91.0204082 229.285714,91.9387755 229.285714,91.9387755 C228.877551,92.1428571 228.469388,92.3469388 228.061224,92.4489796 C227.55102,92.5510204 224.693878,92.8571429 222.44898,93.1632653 C221.020408,93.2653061 220,93.2653061 219.795918,93.2653061 C219.183673,93.3673469 217.755102,94.4897959 216.020408,95 L219.897959,94.6938776 L220.918367,104.591837 C222.142857,104.591837 223.469388,104.489796 224.693878,104.285714 C225.816327,104.081633 226.836735,103.77551 227.959184,103.265306 L227.142857,94.1836735 L245.204082,92.755102 Z" id="Path" fill="#C1272D" fill-rule="nonzero"></path>
            <path d="M183.367347,24.0816327 C183.367347,24.0816327 183.367347,23.5714286 183.367347,23.5714286 C186.428571,26.2244898 187.55102,31.8367347 185.714286,35.5102041 C179.591837,36.3265306 180.204082,26.4285714 183.367347,24.0816327 Z" id="Path" fill="#8D0000" fill-rule="nonzero"></path>
            <path d="M234.285714,19.3877551 C235.612245,21.3265306 233.367347,22.9591837 231.734694,24.0816327 C231.632653,22.3469388 231.428571,20.7142857 231.122449,18.9795918 C232.142857,18.6734694 233.571429,18.4693878 234.285714,19.3877551 Z" id="Path" fill="#8D0000" fill-rule="nonzero"></path>
            <path d="M208.571429,46.7346939 C205.918367,54.3877551 202.959184,43.3673469 205.918367,40.6122449 C209.285714,37.3469388 209.387755,44.5918367 208.571429,46.7346939 Z" id="Path" fill="#8D0000" fill-rule="nonzero"></path>
            <path d="M226.428571,36.9387755 C232.040816,35.4081633 232.346939,42.4489796 226.530612,42.4489796 C226.632653,40.6122449 226.530612,38.7755102 226.428571,36.9387755 Z" id="Path" fill="#8D0000" fill-rule="nonzero"></path>
            <path d="M233.469388,54.7959184 C234.285714,54.6938776 235,55.1020408 235.510204,55.7142857 C235.204082,57.4489796 233.571429,57.5510204 232.142857,57.8571429 C232.244898,56.2244898 230.306122,54.7959184 233.469388,54.7959184 Z" id="Path" fill="#8D0000" fill-rule="nonzero"></path>
            <path d="M169.693878,158.979592 C168.877551,159.489796 167.959184,159.795918 166.938776,160 C166.938776,157.959184 167.142857,155.612245 167.55102,154.183673 C168.061224,152.653061 169.183673,149.081633 170.102041,146.122449 C170.918367,147.55102 171.428571,148.77551 171.428571,149.591837 C171.530612,152.040816 171.836735,154.489796 172.346939,156.938776 C171.326531,157.857143 170.306122,158.571429 169.693878,158.979592 Z" id="Path" fill="#730E03" fill-rule="nonzero"></path>
        </g>
    </g>
</svg>