<?xml version="1.0" encoding="UTF-8"?>
<svg width="223px" height="500px" viewBox="0 0 223 500" version="1.1" xmlns="http://www.w3.org/2000/svg" xmlns:xlink="http://www.w3.org/1999/xlink">
    <!-- Generator: Sketch 58 (84663) - https://sketch.com -->
    <title>Untitled</title>
    <desc>Created with Sketch.</desc>
    <defs>
        <linearGradient x1="49.9796198%" y1="-0.00539360831%" x2="49.9796198%" y2="100.002443%" id="linearGradient-1">
            <stop stop-color="#DA1C24" offset="0%"></stop>
            <stop stop-color="#D41D25" offset="6%"></stop>
            <stop stop-color="#C42128" offset="13%"></stop>
            <stop stop-color="#AE272D" offset="20%"></stop>
            <stop stop-color="#9D272D" offset="100%"></stop>
        </linearGradient>
    </defs>
    <g id="Page-1" stroke="none" stroke-width="1" fill="none" fill-rule="evenodd">
        <g id="intro-ani-rect-1-2" fill="url(#linearGradient-1)" fill-rule="nonzero">
            <g id="intro-ani-rect-1">
                <path d="M158.924969,40.3635333 L158.924969,39.862426 C161.389431,37.4636825 163.566373,35.3360299 165.176488,32.70727 L155.918324,26.3900312 C156.427647,17.6576193 155.096837,10.7817691 151.810887,5.85284415 C143.719235,1.30180349 134.493931,-0.768344968 123.362775,0.283159011 C118.29134,6.36796651 113.928575,13.0099522 110.358629,20.0810074 L98.1595394,25.354957 C100.311837,29.3145267 103.564927,31.9268569 108.436348,33.824493 L108.436348,34.3091706 C108.339411,39.6853835 108.531368,45.0629223 109.011389,50.4185401 C109.625624,56.2884286 111.257377,62.0065132 113.833521,67.3165377 C114.170331,67.3165377 114.416777,67.6040583 114.655008,68.1380252 C115.668713,69.4079425 116.148889,71.0222765 115.994033,72.6397766 L115.994033,73.140884 C115.476496,73.4037599 115.172545,73.9623714 114.655008,74.2334623 C112.461637,76.3529 110.835091,78.4148336 110.030034,81.3146844 C105.856701,83.1455099 101.779555,85.1881955 97.8145147,87.4347662 C94.2511051,89.5933089 90.5491026,91.5142887 86.7326485,93.1851786 C82.896302,95.0170956 79.1174596,99.0013099 75.8479394,105.606069 L75.8479394,105.844301 C74.1153436,111.711997 72.870661,117.712851 72.1266011,123.785587 C71.609064,130.661438 70.228965,137.019751 67.5427009,142.523717 C65.63685,147.288344 63.4845527,152.833385 61.3240407,158.912392 C59.0635039,164.596342 58.2970546,170.764704 59.0978096,176.829034 C58.6965735,177.146529 58.3401053,177.516814 58.0380907,177.929827 C57.7998594,178.447365 57.2166032,178.989546 56.9537273,179.474224 C56.6990661,181.889397 56.1322398,185.035694 55.3682564,189.537446 C54.5467689,195.583593 53.7252814,202.221212 52.903794,209.852831 C52.0950712,216.941772 51.8067789,224.080436 52.0412321,231.211506 C52.0412321,237.783405 52.0412321,244.174578 51.8358602,250.27823 L51.8358602,251.009354 L51.8358602,251.009354 C52.2102885,251.323844 52.6781466,251.505789 53.16667,251.526891 C51.2319062,256.278696 48.9530767,260.88303 46.3483238,265.303236 C45.8046639,266.043064 45.3574614,266.849133 45.0175141,267.70198 C42.3148203,270.60183 42.8980764,273.493466 46.3647536,276.639763 C46.3647536,276.639763 46.6769188,276.639763 46.6769188,276.902639 C46.7307881,277.46882 46.6225213,278.038645 46.3647536,278.545614 L46.3647536,280.098226 L38.199168,276.88621 L18.3931048,277.871995 L0,355.913306 L55.45862,373.37813 L73.769576,373.567072 L88.1620368,300.454686 L63.7227841,288.017365 L65.63685,277.453036 C66.1790317,276.902639 66.1790317,276.409747 66.4583374,275.85935 L66.6637093,275.85935 C64.8153625,274.553185 63.4516933,272.466607 62.6302058,269.533897 L61.5458423,270.067864 C61.8326866,269.67381 62.0137013,269.212788 62.0715943,268.728839 C64.5360567,264.785699 65.3575442,260.292163 64.8153625,255.026428 C66.829665,255.039739 68.8363037,254.777162 70.7793616,254.246015 L71.0586674,254.246015 C72.0944275,248.162298 73.8311154,242.218966 76.2340385,236.534744 C78.4625355,230.621995 80.2017186,224.536228 81.4340543,218.338797 C82.0040391,214.86039 82.7970405,211.422221 83.8081531,208.045559 C84.6296406,205.408584 85.4511281,202.771609 86.2726156,200.389295 L86.5601362,200.126419 C86.2726156,202.771609 86.2726156,205.408584 85.9850949,208.045559 L84.9418058,208.045559 C84.3996241,212.522665 83.8410126,216.769756 83.2988309,220.45002 C83.2815806,220.911556 83.3745084,221.370563 83.5699217,221.789044 C83.5306763,222.153648 83.6145374,222.520902 83.8081531,222.832333 C83.8461167,223.202082 83.7624789,223.574126 83.5699217,223.892052 C82.9784507,229.971059 82.4691285,235.778976 81.6312113,241.586893 C80.720026,248.138977 80.3627833,254.756211 80.5632775,261.368311 C80.5632775,263.750625 80.8261535,266.132939 80.8261535,267.981285 C80.8261535,268.244161 80.8261535,268.753484 81.0972444,268.753484 C85.2047992,272.19603 89.8955772,274.875282 94.9475234,276.664408 L95.1939696,276.664408 C95.2288058,277.835482 95.0449351,279.002782 94.6517879,280.106441 L94.6517879,281.157945 C94.6245009,282.500508 95.2337518,283.776888 96.2947629,284.599977 C96.6655997,285.233008 96.7577875,285.991327 96.549424,286.69477 C96.46551,287.494991 96.5638059,288.303826 96.8369446,289.060654 C97.0581372,289.25614 97.1687689,289.548085 97.1326801,289.841067 C97.1326801,289.841067 99.2274732,297.423397 99.4574897,300.824355 C99.6875062,304.225313 104.443919,313.598485 104.443919,313.598485 C104.690365,315.964369 105.520067,318.625989 106.086894,321.550484 C107.474627,326.74114 109.364761,331.78425 111.730513,336.60835 C114.357381,341.569698 117.350411,346.328341 120.684726,350.844728 C123.133105,354.503661 125.042098,358.495947 126.35299,362.698792 L126.35299,363.52028 C126.147618,369.566428 124.775734,375.160757 122.05661,379.646079 C121.140956,380.957571 120.661013,382.523851 120.684726,384.123186 C120.684726,384.944673 120.684726,385.946888 121.251553,386.464425 C120.896392,388.482866 120.706818,390.526962 120.684726,392.576292 C120.397206,399.427498 120.183619,406.295133 119.863239,413.401 C119.592148,420.268635 119.321057,427.366287 119.321057,434.250352 C119.321057,440.822252 119.321057,446.966978 118.778875,452.76668 C120.392265,454.087458 122.357002,454.90705 124.430709,455.124349 C122.052435,458.571055 120.634731,462.588828 120.323272,466.764827 L120.323272,467.586314 C119.852496,467.9017 119.490915,468.35511 119.288198,468.884264 C116.588397,472.912763 114.557761,477.351312 113.274909,482.028064 C113.069599,482.464796 112.901954,482.918261 112.773802,483.383518 C109.767158,487.318444 108.666364,491.294443 110.038248,495.007566 C114.145686,499.484673 120.109685,500.757979 127.922031,498.712475 C135.315418,497.0695 139.578938,493.15922 140.712591,486.57089 C142.035186,480.212577 143.932822,474.388231 147.226987,469.919339 C150.167912,465.195786 149.691449,460.882976 146.101549,457.235572 C145.871533,456.964481 145.280062,456.69339 145.280062,456.414084 L148.253846,456.414084 C149.075334,449.842185 150.455433,443.270285 151.769813,436.870897 C152.065548,434.751459 152.5913,432.640237 153.182771,430.003262 C158.834605,430.290782 162.638092,427.604518 165.086125,422.092337 C166.7291,417.607016 167.246637,412.349496 166.7291,405.966538 C166.454578,404.678692 166.754478,403.33514 167.550587,402.286274 C171.447098,397.409949 174.223577,391.736397 175.683313,385.667582 C176.266569,381.970889 174.911115,379.61322 171.63338,378.274195 C171.711646,377.797968 171.897035,377.345732 172.175562,376.9516 C170.905276,376.481637 169.788497,375.671759 168.947116,374.610361 C166.531943,371.160113 164.018191,367.701651 161.619448,363.758511 L161.619448,363.50385 C162.147307,358.176078 163.061565,352.893699 164.355001,347.698431 C165.482863,343.360746 166.306354,338.949576 166.819463,334.497127 C167.227105,332.39437 167.50148,330.267958 167.640951,328.130599 C168.236252,321.483052 169.245907,314.879144 170.664025,308.357395 C172.019479,301.719776 173.128487,295.377893 173.884256,289.068869 C174.274958,285.570019 174.3821,282.045305 174.204636,278.529185 C176.379901,278.00808 178.478474,277.207309 180.447941,276.146871 C180.479615,271.272272 180.916508,266.408745 181.754106,261.606542 C184.318694,260.802637 186.962921,260.279301 189.640386,260.045716 C187.857594,254.001387 186.582597,247.818754 185.828684,241.562248 C185.286502,235.466811 184.810039,229.683539 183.955692,224.113854 L186.658386,224.113854 C186.676058,218.883321 186.125165,213.666361 185.015411,208.554881 L185.015411,208.045559 L184.193924,208.045559 C183.053226,202.209373 182.972528,196.215498 183.955692,190.350718 C184.316734,188.784318 184.590981,187.199171 184.77718,185.60252 C185.955467,187.873285 187.989055,189.581735 190.429014,190.350718 C189.891711,192.332651 189.615546,194.376268 189.607526,196.429726 C189.413627,202.511612 190.246798,208.582649 192.071989,214.387442 C193.927951,220.326165 195.282674,226.410056 196.121922,232.575175 C197.172375,238.862517 197.800848,245.213115 198.003128,251.584395 L199.103921,251.584395 C198.802707,251.976667 198.61005,252.441312 198.54531,252.931635 C198.273366,253.525871 198.090667,254.15701 198.003128,254.804626 C197.603264,255.417876 197.413023,256.144247 197.460946,256.874775 C197.174873,257.68133 196.585425,258.344459 195.817972,258.723121 C195.56331,258.723121 195.341509,258.723121 195.341509,258.994212 C195.341509,259.536394 194.741823,259.8157 194.478947,260.078576 C194.066895,260.486864 193.869359,261.064278 193.94498,261.639402 C193.72648,262.238107 193.642343,262.877545 193.698534,263.512393 C193.402798,264.276377 193.402798,265.106079 193.164567,265.631831 C193.164567,265.902922 192.868831,266.141153 193.164567,266.642261 C193.137101,266.936376 193.22224,267.22996 193.402798,267.463748 C193.402798,267.463748 193.698534,267.718409 193.94498,267.97307 C193.698534,267.97307 193.402798,267.97307 193.402798,268.235946 C192.84982,269.482146 192.569729,270.832188 192.581311,272.195516 C192.910026,272.752594 193.11197,273.375253 193.172782,274.019218 C193.542298,274.857143 193.981991,275.66233 194.487162,276.426177 C195.227489,277.496565 196.47419,278.101215 197.773112,278.019862 C198.070287,278.046377 198.363655,277.938002 198.572222,277.724658 C198.78079,277.511314 198.882496,277.215568 198.84926,276.919069 C199.144996,276.656193 199.366797,276.656193 199.366797,276.426177 L199.366797,276.163301 C199.908979,277.469466 200.188285,278.545614 200.738682,279.572474 C200.738682,279.810705 200.738682,279.810705 201.042632,279.810705 C201.568384,280.098226 202.118781,280.377531 202.118781,281.182589 L202.644533,281.182589 C204.041061,281.182589 204.829689,280.361102 205.322582,279.063152 L205.684036,278.775631 C207.269507,279.317813 208.879623,279.063152 209.709325,278.019862 C209.972201,278.019862 210.218647,277.469466 210.218647,277.469466 C210.514383,277.20659 210.514383,277.20659 210.793688,277.20659 C210.632121,276.895463 210.633546,276.524852 210.797501,276.214977 C210.961457,275.905102 211.267058,275.695431 211.615176,275.653978 L211.615176,275.374673 L211.615176,275.374673 C212.707754,274.848921 213.792118,274.553185 214.901126,274.019218 C214.901126,273.797417 215.180432,273.509896 215.180432,273.509896 C215.443308,273.304524 215.739043,273.304524 215.739043,272.975929 C215.985489,272.704838 216.281225,272.704838 216.281225,272.195516 C216.544101,272.195516 216.544101,271.91621 216.544101,271.653334 C217.883125,269.550326 219.230365,267.97307 220.068282,266.379385 C220.322943,266.124724 220.322943,266.124724 220.322943,265.886492 L220.322943,264.802129 C220.322943,263.74241 220.068282,262.723765 220.068282,261.622972 L220.068282,261.360096 C219.873798,260.9559 219.780749,260.510396 219.797191,260.062146 C219.566647,258.916312 219.111559,257.82745 218.458167,256.858345 C217.883125,256.620113 217.883125,256.349023 217.636679,256.036857 C217.589444,255.402189 217.404421,254.785447 217.094497,254.229585 C216.815192,254.229585 216.552316,253.695618 216.552316,253.408097 C216.458167,252.72194 216.173573,252.075911 215.730828,251.543321 C215.733876,251.267468 215.627543,251.001636 215.435093,250.803982 L215.435093,250.500032 C217.373803,250.29466 219.22215,249.966065 221.694827,249.744263 C221.694827,243.172363 221.694827,236.772976 220.87334,230.735043 C220.298299,227.046564 220.051852,223.070565 219.772547,219.078135 C218.951059,212.506236 217.858481,206.156137 216.486597,200.09356 C215.644794,196.260633 215.095554,192.369265 214.843622,188.453082 L214.843622,184.263496 C214.843622,180.279282 214.843622,176.336142 215.122927,172.409431 L215.122927,171.587944 C213.606591,166.460456 211.216575,161.633178 208.058135,157.318706 L208.058135,156.291847 C208.058135,149.465286 207.811689,142.811237 207.548813,136.239338 C207.13035,129.857029 205.952797,123.547329 204.041061,117.443704 C202.382243,112.915088 200.377371,108.520848 198.044203,104.299904 C198.041629,103.876158 197.84103,103.478 197.502021,103.223756 L197.502021,101.383624 C197.037797,98.7563581 196.316911,96.1809796 195.349724,93.6945008 L194.750038,93.6945008 C191.841017,92.5157556 188.851385,91.5466643 185.804039,90.79465 C179.802813,89.0815346 173.919476,86.9795586 168.191347,84.5020559 C167.616306,84.2145352 167.36986,83.9187997 166.827678,83.639494 C161.885296,81.3035788 157.236295,78.3917487 152.977399,74.9645862 C152.435217,72.6069171 151.334424,71.0214462 149.198557,70.2246034 C149.757168,65.1971 150.241846,59.9149355 150.545796,54.6163412 L150.545796,54.3534652 C155.951184,53.5319777 158.678522,49.6052675 158.924969,42.4501116 L158.924969,40.3635333 M59.3935451,285.405035 L52.5916287,282.726986 L52.9202237,282.472325 L53.7417112,279.794275 C55.064306,280.615763 56.4361901,281.166159 57.2576776,280.615763 C58.2139939,281.58168 59.4444153,282.229874 60.7818589,282.472325 L59.3935451,285.405035 Z" id="Shape"></path>
            </g>
        </g>
    </g>
</svg>