<svg xmlns="http://www.w3.org/2000/svg" xmlns:xlink="http://www.w3.org/1999/xlink" viewBox="0 0 498 498.39"><defs><style>.cls-1{isolation:isolate;}.cls-2{fill:url(#linear-gradient);}.cls-3,.cls-4,.cls-5,.cls-6{fill-rule:evenodd;}.cls-3{fill:url(#linear-gradient-2);}.cls-4,.cls-5{mix-blend-mode:darken;}.cls-4{fill:url(#linear-gradient-3);}.cls-5{fill:url(#linear-gradient-4);}.cls-6{fill:url(#linear-gradient-5);}.cls-7{fill:#fff;}.cls-8{fill:red;}</style><linearGradient id="linear-gradient" x1="248.79" y1="497.58" x2="248.79" gradientUnits="userSpaceOnUse"><stop offset="0.02"/><stop offset="0.3" stop-color="#686868"/><stop offset="0.55" stop-color="#909090"/><stop offset="0.85" stop-color="#bbb"/><stop offset="1" stop-color="#ccc"/></linearGradient><linearGradient id="linear-gradient-2" x1="4.81" y1="292.44" x2="79.07" y2="496.46" gradientUnits="userSpaceOnUse"><stop offset="0.1" stop-color="#666"/><stop offset="0.87"/></linearGradient><linearGradient id="linear-gradient-3" x1="165.84" y1="151.99" x2="396.21" y2="426.54" gradientUnits="userSpaceOnUse"><stop offset="0.1" stop-color="#848484"/><stop offset="0.87"/></linearGradient><linearGradient id="linear-gradient-4" x1="141.83" y1="267.36" x2="141.83" y2="498.39" gradientUnits="userSpaceOnUse"><stop offset="0" stop-color="#333"/><stop offset="0.7"/></linearGradient><linearGradient id="linear-gradient-5" x1="404.3" y1="30.33" x2="404.3" y2="498.39" xlink:href="#linear-gradient-4"/></defs><g class="cls-1"><g id="Layer_1" data-name="Layer 1"><rect class="cls-2" width="497.58" height="497.58"/><polygon class="cls-3" points="1.66 339.46 1.66 498.39 73.78 498.39 73.78 267.34 1.66 339.46"/><polygon class="cls-4" points="209.85 131.27 209.85 498.39 310.58 498.39 310.58 30.54 209.85 131.27"/><polygon class="cls-5" points="73.78 267.36 73.78 498.39 209.87 498.39 209.87 284.94 73.78 267.36"/><polygon class="cls-6" points="310.6 30.33 310.6 498.39 498 498.39 498 68.1 310.6 30.33"/><path class="cls-7" d="M44.05,133.06H61.61L212.23,349.68V133.06h17.9V378.82h-17.9L62,161.85v217H44.05Z" transform="translate(-2 -0.61)"/><path class="cls-8" d="M399.71,128.49c29.49,0,56.52,8.78,74.43,21.07l-19.31,61.09a79.62,79.62,0,0,0-51.61-18.26c-37.22,0-62.14,27.39-62.14,63.2,0,36.51,24.92,63.9,62.14,63.9a79.62,79.62,0,0,0,51.61-18.26l19.31,61.09c-17.91,12.29-44.94,21.07-74.43,21.07-79.7,0-131.66-56.53-131.66-127.8C268.05,185,320,128.49,399.71,128.49Z" transform="translate(-2 -0.61)"/></g></g></svg>