<svg xmlns="http://www.w3.org/2000/svg" viewBox="0 0 69.48 128.92"><defs><style>.cls-1{isolation:isolate;}.cls-2{fill:#da1c24;opacity:0.5;mix-blend-mode:multiply;}.cls-3{fill:#fff;}</style></defs><g class="cls-1"><g id="Layer_1" data-name="Layer 1"><path class="cls-2" d="M79.61,79.16c.25-.41,2.15-1.81,2.32-2.23a18.07,18.07,0,0,0,.41-2,27,27,0,0,0,2.15-2.72c.66-1.08.16-2.23.16-3.3s-1.16-7-1.16-7.77A3.65,3.65,0,0,0,83,59.6l-.08-.34-.83-.57s-.74-3.14-.74-3.72.41-1.57.41-2V51.26c0-.25-1.16-1-1.49-1.24a5.85,5.85,0,0,0-1.81-.83,2,2,0,0,0-1.16.58,8.35,8.35,0,0,0-.41,1.4,1.46,1.46,0,0,0-.91.33c-.33.33-.41,1.24-.49,1.49S78,56,78,56l1.24,2.89-.58.91s.09,1.49.17,4.13a17.22,17.22,0,0,1-.25,4L78,69l-3.14,2.81-5.53,1.65L68,72.39l-.74-.66-.15-1.66c0-.08,0-.17.07-.24.16-.9.24-1.32.24-1.32s1.08-.74,1.24-1.48a5.91,5.91,0,0,0,0-1.82l-.41-.33s.25-2.73-.41-3.72a6.48,6.48,0,0,0-2.23-1.73s-.42-.74-2.23-.83a17.43,17.43,0,0,0-3,.14l-.55.11c-.25.08.82.25.82.25a4.48,4.48,0,0,0-2.89,1.57c-.3.4-.55.75-.76,1.06A10.11,10.11,0,0,0,56.25,63l1.32-1.07a5.67,5.67,0,0,0-.41,1.73c.08.41.57-.58.57-.58v1.65l.33.91a5.62,5.62,0,0,0,0,2.73c.42,1.07,1.57,3.71,1.57,3.71s.29.24.69.52l-.44.31s-.41.82-.5,1.07a4,4,0,0,1-.74,1,18.57,18.57,0,0,1-2.81,1.61,3.52,3.52,0,0,0-1.15.29,33,33,0,0,0-3.22,3A24,24,0,0,0,49.89,82a2.26,2.26,0,0,0-.74.91c-.42.74-1.33,2-1.33,2H42.54l-1.4-.58s-.4-.24-.66-.12l-.58-.79A17.19,17.19,0,0,1,40,81.56c.08-.41.08-.91-1.07-1.16a1.9,1.9,0,0,0-1.1,0L36.66,67.61l14.58-1.08L48.93,33.39,15.35,36.26,18.43,69,34,67.8l1.3,12.38A8.68,8.68,0,0,0,34,81.48c-.09.24.24.66.24.66L34,83s.42.5.42.75a6.45,6.45,0,0,0,.08.74l.33.74,1.15.84,1,9.49.55.55,1.65-1-.55-6.07c1,.79,2.4,2,2.56,2.06s3,1.15,3.22,1.4a38.67,38.67,0,0,0,5,.58s2-.64,3.93-1.37c0,.52,0,1,0,1.37a40.88,40.88,0,0,1-.42,5.7c-.16,1-1.15,6-1.23,6.27a2.85,2.85,0,0,0-.25,1.16,6.52,6.52,0,0,0,1.4,1.73,27,27,0,0,0,2.07,1.82l.1-.07c-.55,5.09-1.81,19.56-2.09,20.46-.33,1.07.75,1.82.66,2.48s-.82,9.49-.82,10.24.66,5.2.66,5.2a4.26,4.26,0,0,1-.58,1.15c-.41.58,0,1.57,0,2.07s-.74,2.31-.82,2.89A3.6,3.6,0,0,0,53,156a6.09,6.09,0,0,1-.66.62c-.5.33-2,.91-2.32,1.49s-.49,3,.83,3.8a3.33,3.33,0,0,0,3.63-.33,25.27,25.27,0,0,1,2.81-2.23c1-.5,2.56-1.24,2.56-1.24a15.86,15.86,0,0,0,.16-2c0-.16,0-.35,0-.55.28-.26.45-.44.45-.44s-.08-.83-.17-1.49a21.17,21.17,0,0,1,1-5c.42-1,.83-15.27.91-16.1a36.29,36.29,0,0,1,1.32-4.62c.58-1.82,3.22-12.88,3.22-12.88l3.8,12.14a6.82,6.82,0,0,0,1,3.22,20.65,20.65,0,0,1,2.15,6.77c0,1.07.58,3.38.49,4.46s-.24,3-.41,4.7a3.43,3.43,0,0,0,.91,2.73l-.33,2.23s1.49,1.57,2,2.06a11.18,11.18,0,0,0,3.47,1.82c1.15.33,3.55.33,4.29-.5s-1.35-2.51-1.73-3c-1.49-1.82-.17-1.73-.17-1.73l.58-.58a7.42,7.42,0,0,1-.08-1.49A19.25,19.25,0,0,0,82,145a7.15,7.15,0,0,1,.08-1.07,28.41,28.41,0,0,0,.25-4.54c-.08-1.74-1.82-9-1.82-9a14.22,14.22,0,0,1,.83-1.74c.33-.49-.08-1.81.08-2.47s-.74-5.12-.91-7.11c-.11-1.38-1.64-7.36-2.55-10.84a7,7,0,0,0,2.39-1.46c1-1-2.07-6.6-2.4-7.76s-3-11-3-11a7.93,7.93,0,0,1-.33-1.57c0-.5,1.4-1.65,1.81-2.39S79.37,79.58,79.61,79.16Z" transform="translate(-15.35 -33.39)"/><path class="cls-3" d="M27.72,51.11h.09a1,1,0,0,0,.2-.22,1.48,1.48,0,0,1-.29.12Z" transform="translate(-15.35 -33.39)"/><path class="cls-3" d="M37.21,47.57l.15-.09h-.27a.76.76,0,0,0,0,.15Z" transform="translate(-15.35 -33.39)"/><path class="cls-3" d="M23.06,42.47c-.24-.32-.63.23-.81.24l.14.08c-2.15.91-2.41,5.48.4,5.16C25.11,47.63,26,42,23.06,42.47Zm-.47.62s0-.17,0-.17a3.91,3.91,0,0,1,.84,4.36C21.19,47.56,21.42,44,22.59,43.09Z" transform="translate(-15.35 -33.39)"/><path class="cls-3" d="M27.23,46.51c-1,.09-.66-3.91.12-3.59-.24,1.36,2.18.34,1.2-.28-2.56-2.41-4.23,4.09-1.78,4.83a1.76,1.76,0,0,0,2-2,2.68,2.68,0,0,0-1.06.4C27.88,46.05,27.51,46.7,27.23,46.51Z" transform="translate(-15.35 -33.39)"/><path class="cls-3" d="M31.46,46.91a2.13,2.13,0,0,0,1.37-2.47c-.07,0-.6.15-.63.25-1.08,4.2-2.86-1.27-1.23-2.39.24,1.23,3,.36,1.36-.54a.19.19,0,0,1,.13,0C28.26,40.08,28.37,48.21,31.46,46.91Z" transform="translate(-15.35 -33.39)"/><path class="cls-3" d="M39.19,43.5a.76.76,0,0,0,0,.15m.08-2.83c.06-.26-.57.06-.61.12a23.53,23.53,0,0,1,.57,4.32l-.17,0c-.18,1.21.77.82,1.68.77-.06-.27.1-1-.41-.77,0-.4-.1-.71-.12-1.26C43.45,43.21,43,39.48,39.28,40.82Zm1.93.55c.5.71-.34,1.31-.93,1.72-.05-.64-.13-1.23-.22-1.86C40.43,41.13,41,41,41.21,41.37Z" transform="translate(-15.35 -33.39)"/><path class="cls-3" d="M43,42.09c.08.36.38,1.14.87,1.25A6.11,6.11,0,0,0,44,44.75h-.24c-.16,1.22.68.85,1.57.69.07,0-.12-.86-.07-.87l-.08,0A9.81,9.81,0,0,1,45,43.17c.88-.33.84-1.45,1-2.24l.42.06c-.12-.24.18-1.05-.38-.91V40c-.33.11-.77-.09-1.12-.15.1.2-.12.87.18.9a6.72,6.72,0,0,1-.6,2.07A5.87,5.87,0,0,1,43.71,41c.35.08,0-.81.08-.91-.44.12-1.77.28-1.32.25-.08.17-.14,1.11.34.84A4.65,4.65,0,0,0,43,42.09Z" transform="translate(-15.35 -33.39)"/><path class="cls-3" d="M31.84,53.09c1.94-1.61,1.25-6.05-1.35-4.43C29.08,49.72,28.59,53.9,31.84,53.09Zm0-1.71c-1,2.8-2.07-1.25-1-2.26C32.07,48,32.13,50.61,31.83,51.38Z" transform="translate(-15.35 -33.39)"/><path class="cls-3" d="M36.39,51.32a8.44,8.44,0,0,0,0-2.88c.33.11,0-.83.09-.92a10,10,0,0,1-1.42.23,5.63,5.63,0,0,1,.13.73c1.35,2.75-.7,6.2-1,.46l.26,0c0-1.14-.24-.87-1.21-.86.09.18-.1.94.19.91,0,1.17-.26,3.26.82,3.79C34.82,53.37,36.6,51.74,36.39,51.32Z" transform="translate(-15.35 -33.39)"/><path class="cls-3" d="M39.78,49.89c2.63-1.63-.28-3.36-2-2.52h0c-1.22.34,0,2.9-.28,4.09-.47-.18-.16.73-.19.9.34,0,.92-.08,1.26-.09-.08-.15.13-1.1-.31-.88,0-.38.08-.76.1-1.15a2,2,0,0,0,.64-.1,8.19,8.19,0,0,1,.82,1.15c-.28-.11.06.82,0,.87.38,0,.73-.26,1.1-.18s-.07-.62,0-.8c-.08.06-.26,0-.35,0C40.34,50.63,40.28,50.24,39.78,49.89ZM38.34,47.8c2.07-.56,2.15,2,.06,2A18.84,18.84,0,0,0,38.34,47.8Z" transform="translate(-15.35 -33.39)"/><path class="cls-3" d="M28.25,59.57c-1.33-.2-.71-2.3-.95-3.37.37.18.09-.78.12-.89-.43,0-.87,0-1.3,0,.08.15-.13,1.09.31.87.24,1.38-.38,2.88.91,3.83,2.78.7,2.71-2.38,2.35-4.26.5.13.18-.72.21-.93-.46.06-1.19.2-1.66.26.07.37-.13,1.08.5.86C28.42,57.17,29.16,58.65,28.25,59.57Z" transform="translate(-15.35 -33.39)"/><path class="cls-3" d="M26.58,51.08a.79.79,0,0,0,.45.29,10.59,10.59,0,0,0,.15,1.5H27c-.14,1.18.59.6,1.37.63a1.85,1.85,0,0,1-.14-.59c-.41-.32-.13-1.13-.29-1.68,0,0,.23,0,.14,0a2,2,0,0,0,.84-1.79c.28-.07,0-.62.06-.84a3,3,0,0,1-1.06.23c.07.08-.1.95.22.76A2.53,2.53,0,0,1,27.5,51c-.44-.26-.37-.88-.61-1.25.51.13.21-.59.24-.81a5.89,5.89,0,0,1-1.51.05c.13.15-.18.94.29.79A3.93,3.93,0,0,0,26.58,51.08Z" transform="translate(-15.35 -33.39)"/><path class="cls-3" d="M33.63,42.52a1,1,0,0,0,.37.08c-.9,6.1,5.39,5.09,3.7-.4l.18,0c.11-1.38-.44-1-1.52-.79,0,0,.11,1.07.09,1.07l.43-.1c1.11,4.44-2.3,4.64-1.81.11l.41-.08c-.09-.23.16-1.38-.44-1-.23,0-1.21.32-1.5.07.08.18,0,.68.07.85Z" transform="translate(-15.35 -33.39)"/><path class="cls-3" d="M42.54,55c-.1-1.68-1.06-1.54-2.15-1.39a10.15,10.15,0,0,0-1.56,0c.06.29-.11,1,.43.8.14,1.12.32,2.2.41,3.31a2.42,2.42,0,0,1-.38,0c-.18,1.29.82.76,1.71.71-.07-.18.12-1-.34-.79,0-.43-.07-.87-.11-1.3a3.79,3.79,0,0,0,.45-.07c0,.47.77,1.41.63,2,1,0,1.83.26,1.5-1-.19.07-.38,0-.68.08a9.28,9.28,0,0,0-.76-1.29A1.32,1.32,0,0,0,42.54,55Zm-1.63-.68a.84.84,0,0,1,.76.35c-.12.62-.73.65-1.25.78C40.47,54.85,39.75,54.34,40.91,54.34Z" transform="translate(-15.35 -33.39)"/><path class="cls-3" d="M38.2,54.84c.12-1.27-.52-.7-1.4-.75-.13.19-.16,1.16.36.85,1.35,4.37-1.76,5-1.21.21.23.12,0-.85,0-.9-.92.15-1.79,0-1.44,1.18l.38-.09c-1,6.19,4.91,5,3.1-.48Z" transform="translate(-15.35 -33.39)"/><path class="cls-3" d="M30.56,55.05c-.12,1.13.45.89,1.34.81a11.67,11.67,0,0,0,.21,2.83c-.61-.18-.31.61-.32.91.58-.06,1.15,0,1.73-.09-.08-.26.12-1.11-.43-.86a13.64,13.64,0,0,0-.36-2.85,5.6,5.6,0,0,0,1.45-.19c0-.33.14-1.43-.57-1.09,0,0-.36,0-.36.06a15.43,15.43,0,0,1-2.72.2Z" transform="translate(-15.35 -33.39)"/><path class="cls-3" d="M23.85,60.75c.34.17.06-.8.1-.89l-.37,0a9,9,0,0,0,0-1.56h0c.17.3,1-.13,1.37-.1,0,0-.07-.88-.07-.88a8.72,8.72,0,0,1-1.44.1c-.05-.28-.09-.56-.14-.83.52-.08,1-.11,1.51-.24-.08.53.61.14.81.07a5.05,5.05,0,0,1-.14-1.29c0,.05-.9.11-.8.34A11,11,0,0,1,22,55.6c.07.13-.11,1.08.28.88.1,1.15.15,2.3.17,3.45-.47-.19-.16.73-.19.9.51,0,1,0,1.54-.08" transform="translate(-15.35 -33.39)"/><path class="cls-3" d="M44.12,57.81s0-.81-.06-.81l.38,0A21.92,21.92,0,0,0,44,54c-.51.25-.32-.55-.38-.78a12.48,12.48,0,0,0,2.85-.47c-.22-.4.48-.3.64-.35-.07.68.76,1.62-.35,1.49a1.22,1.22,0,0,1-.1-.24c-.58.13-1.12.2-1.62.27,0,.21.09.76.13,1a5,5,0,0,1,1.39-.09c-.15-.3.33-.37.48-.41-.06.56.51,1.48-.33,1.5a2.23,2.23,0,0,1,0-.23,4.59,4.59,0,0,0-1.33.3c0,.35.07.69.08,1,.62,0,1.25,0,1.87-.08-.12-.31.38-.33.5-.39-.13.58.58,1.49-.33,1.53,0-.1,0-.2,0-.3a11.4,11.4,0,0,1-2.47.21v0l-.8,0Z" transform="translate(-15.35 -33.39)"/></g></g></svg>