<svg xmlns="http://www.w3.org/2000/svg" viewBox="0 0 38.47 132.59"><defs><style>.cls-1{isolation:isolate;}.cls-2{fill:#ae272d;mix-blend-mode:multiply;}</style></defs><g class="cls-1"><g id="Layer_1" data-name="Layer 1"><path class="cls-2" d="M69.28,63.59s-1.83-5-2.63-5.94a5.82,5.82,0,0,0-2.29-1.37l-2.17-.46-2.06-1.48-2.74-3.09-.91-.46-.62-.28c.2-.45.38-.9.54-1.31.13.2.25.4.36.56.35.52.43-.85.17-1.94,0,0,1.6-3.54,1.15-6.4a21,21,0,0,0-1.75-5,3.63,3.63,0,0,1,.86.59c.52.51.77.17.77-.09s-.34-.51-.68-1a10.49,10.49,0,0,0-2.29-2c-.34-.45-3.89-2.4-5-2a6.6,6.6,0,0,1-1.6.34,4,4,0,0,0-2.74.68c-1.15.92-3.89,3.66-4.12,4.92a3.8,3.8,0,0,0,0,.52c-.08.16-.15.33-.22.51-.6,1.71-.85,2.66-.85,2.66s-.17.94.43.25a5.94,5.94,0,0,0,.82-1.52l0,.18A17.76,17.76,0,0,0,41,43.85c.08.77.68,1,.77.25a4.13,4.13,0,0,1,.4-1.23l0,.15a1.34,1.34,0,0,0,.15.35l-.07.65a17.11,17.11,0,0,1-.17,2.57A7.62,7.62,0,0,1,41.59,48s.43.77,1-.25a9.69,9.69,0,0,0,.7-3l.18.2c.13,1.22.34,3.17.4,3.69.09.77.17,1.63,1,1.37.55-.16-.26-2-.08-2.82a3,3,0,0,1,.25-.75c.3.35.62.75.89,1.12a3.68,3.68,0,0,1,0,1.17c-.26.94-.7,1.49-.09,1.8.4.19.79-.21,1.1-1.25a2.11,2.11,0,0,1,.25.79v1.38a2.49,2.49,0,0,0-1,.22,23,23,0,0,0-1.72,1.83,6,6,0,0,0-1.6.23,4.57,4.57,0,0,0-1.14.57s-1.71.23-2.4.23a3.86,3.86,0,0,0-1.6.57S33.16,61,33,61.42s0,.92.57,1.95l.52.91a31.71,31.71,0,0,0-.63,5c-.11,3.77-.34,6.86-1,8.12S30.87,81,31.1,87.37s1.14,9.95,1,11.09A37.79,37.79,0,0,1,31,102.69a18.89,18.89,0,0,0,.45,4.34A6.19,6.19,0,0,0,33.39,109a2.56,2.56,0,0,0,.78.07,29.84,29.84,0,0,0-.1,4.51c.34,3.77.92,8.57.57,9.26a5.43,5.43,0,0,0-.11,2.28,11.72,11.72,0,0,0-.46,3.66,14.29,14.29,0,0,0,.69,3.43s-.46.34-.46,2.17-1,6.75-.8,7.77,1.6,5.15,1.6,6.29-.34,3-.34,4.69a7.94,7.94,0,0,0,.68,3.43,2.43,2.43,0,0,0,.41.33,4.31,4.31,0,0,1-.63,1.15,17.52,17.52,0,0,1-2.52,2.52c-.57.34-.46,1.48-.69,1.83s.46,1.14.46,1.14a6.38,6.38,0,0,0,4.12.8A7.68,7.68,0,0,0,41,162.36,13.1,13.1,0,0,1,42.76,161s.23-1.49.34-3.43a7.38,7.38,0,0,0-.21-2c1.13-2.07,1-3.38,1.24-4.53a6.2,6.2,0,0,0,.34-3.2,29,29,0,0,1-.11-6.29,49.7,49.7,0,0,0-.11-6.06,12.49,12.49,0,0,0-.23-2.05s1-1.15,1-1.83a12.78,12.78,0,0,0-.46-2.29A20,20,0,0,0,45.73,126c.23-1.26,1.49-11.89,1.72-13.15s.57-3.66.57-3.66l1-1.37a25.51,25.51,0,0,1,1.14,5c.11,1.94.91,7.43,1,9,0,0,.57,3.2.91,6.63a63.76,63.76,0,0,0,1.37,7.32c.12.68.58,4.23.58,4.23s.34,5.26.22,6.74a69,69,0,0,0,.12,7.09,1.76,1.76,0,0,0,.13.43,7.93,7.93,0,0,0-.28,2.31c.11,2,.34,3.43.34,3.43a13.57,13.57,0,0,1,1.71,1.37,7.75,7.75,0,0,0,4.46,1.95,6.38,6.38,0,0,0,4.12-.8s.68-.8.45-1.15-.11-1.48-.68-1.83a17.4,17.4,0,0,1-2.52-2.51,4.66,4.66,0,0,1-.67-1.24,13,13,0,0,0,1.17-1.28c1-1.25.34-2.62.69-3.08s1.14.11,1.37-1.6-1.37-17.83-1.37-18.18.68-12.57.22-13.26c-.23-.35-.19-4.48-.17-8.69,1.76-.14,1.66-1,1.66-1.48s-1-.57-1-.57a8.74,8.74,0,0,0-.23-1.72,37.74,37.74,0,0,1,.35-6.28c.11-1,3.42-9.15,3.77-13.26s-.23-7.66.23-12.58a56.09,56.09,0,0,0,.2-7.81c.5-.39.85-.68.94-.76C69.62,65,69.28,63.59,69.28,63.59ZM38.42,83.83c-.12.57-.35,2.63-.35,2.63s-.86,3.87-1.59,7.19a51.25,51.25,0,0,1,.22-7c.46-3,.8-6.74.92-8a48.44,48.44,0,0,1,1.62-5.43,20,20,0,0,1,.66,4.18C39.9,78,38.53,83.26,38.42,83.83Zm23.15,1.32a9.94,9.94,0,0,1,.16-1.89,23.76,23.76,0,0,0,.52-2.71c.19.58.35,1,.44,1.25A12.4,12.4,0,0,0,61.57,85.15Z" transform="translate(-30.96 -31.78)"/></g></g></svg>