<svg id="Layer_1" data-name="Layer 1" xmlns="http://www.w3.org/2000/svg" viewBox="0 0 72.81 149.51"><defs><style>.cls-1{fill:#ae272d;}</style></defs><path class="cls-1" d="M86.64,73.59c-.17-4-1.41-9-1.5-10.15a31.33,31.33,0,0,1-.35-4.5,11.43,11.43,0,0,0-1.85-5.47,21.36,21.36,0,0,0-.8-3.09,2.16,2.16,0,0,0-.71-1,5.93,5.93,0,0,0,.71-1.06c.89-1.68.09-1,.44-2.74s-.44-2.82-.44-5.82-1-4.24-2.29-6.44a8.32,8.32,0,0,0-.56-.82l0-.06c.13-.31,0-.58-.18-.89s-.61-.26-.61-.26A1,1,0,0,0,78,30.7a.35.35,0,0,0-.45.2c-.4-.24-.74-.39-1-.55a9.13,9.13,0,0,1-1.77-2.47c-.79-1.59-1.59-3.53-5.2-4.33a11.62,11.62,0,0,0-8.3,1.68,5.91,5.91,0,0,0-2,2.91,8.91,8.91,0,0,0-1.15,2.65c-.26,1.32.53,2.29.18,3.26s-1.59,2.3-1.85,3,1,1,1,1a.67.67,0,0,1,.26.62,6,6,0,0,0-.17,1.15c0,.26.79.79.79.79s-.88.53-.79,1.15.88.8.88.8a2.81,2.81,0,0,0,.26,1.94c.53.79,3.62.26,3.62.26l1.06,1.15V46a17.51,17.51,0,0,0-3.36.24,4.16,4.16,0,0,0-.62.44s-2.3-.17-3,.88S55,48.79,53.47,50.91s-3.36,6-5.48,8.2-2.82,3-2.82,3-4.68-.52-6.88-.52a23,23,0,0,1-5.38-1l-4.68-2S27,57.17,25.93,56s-3.88-1.59-3.88-1.59H22l-.61-1.33A3.18,3.18,0,0,0,22,51.85a5.12,5.12,0,0,0,.65-1c.25-.61-.3-1.27-.58-2s-.4-1.08-.85-1.11a2.24,2.24,0,0,0-.76.14l-2.24-4.82a1.81,1.81,0,0,0-2.13-.73l-1,.49a2.16,2.16,0,0,0-1.15,2.24l3.78,8.15a2.28,2.28,0,0,0,1.81.77l.31.66c-.51.4-1.15,1.26-1.47,1.5l-.36.27a1.3,1.3,0,0,0,1,.88l.8.18a.67.67,0,0,0-.27.79,1.73,1.73,0,0,0,.53.79,3.93,3.93,0,0,0,.09.71,1,1,0,0,0,.35.62s.09.35.27.88,1.23,1,1.23,1a4.78,4.78,0,0,0,3.53,1.85c2.3.09,4.15-.26,5.74,1a74.23,74.23,0,0,0,12.09,6.27,6.68,6.68,0,0,0,3.53.35,46,46,0,0,0,6.76-3.89,17.22,17.22,0,0,0-.67,4.6A9.62,9.62,0,0,0,53.2,74L48.5,88.66c-.88.55-4.43,2.35-5.18,3.1a3.21,3.21,0,0,0-1,4.06c.88,2.3,5.64,9.62,6,11.56s2,6.27,2.91,7.15c.21.21.9.13,1.82-.12l0,.38c.36,3.8,2.47,9.09,2.47,10.06s0,5.47.09,6.27.35,1.94.35,1.94a43.19,43.19,0,0,0-.17,7.77c.26,4.67,1.32,14.29,1.32,15.79a22.4,22.4,0,0,1-.26,3.44c-.09.35-.18,1-.18,1h.19a5.86,5.86,0,0,1-.72.81,45.83,45.83,0,0,1-7.5,4.23c-1.06.27-2.38,1.15-2.29,1.94s0,1.42,1.05,1.86a7.66,7.66,0,0,0,5.65.35c3.09-.79,3.8-1.06,5.83-1.5s3.61-.35,4.06-.62,1-3.79.7-5a35,35,0,0,1-.59-3.47,5.62,5.62,0,0,0,.77-2.88c.26-2.91,1.14-9.44,1.23-9.71a23.81,23.81,0,0,0,1.41-7.41c0-3.62-.79-6.09-.52-8s.7-8.65.7-10.32a13.63,13.63,0,0,1,.45-2.44c.27,1,.66,2.54,1,4.2.71,3,1.06,4.32,1.94,7.15S72.79,137,72.79,137l.88,6.27s1.68,7.76,2,10.14a12.48,12.48,0,0,1-.09,4.24,3.55,3.55,0,0,0,.27,1.85,5.1,5.1,0,0,0-.27,1.68,2.9,2.9,0,0,0,.62,1.23,5.21,5.21,0,0,1-.35,1.42c-.27.53-1.24,1.76-1.68,2.55s-2.38,2-3,3.09-.79,2.74.35,3.09,5,.44,6.45-.35,5-2.82,5.73-3.62.09-1.41-.17-2.38a26.07,26.07,0,0,0-.89-3.18c-.44-1.06-.44-1-.7-.79s.88-1,1.06-1.77-.53-4.23-.36-5.56a75.82,75.82,0,0,0,1.06-8.47,32.29,32.29,0,0,0-1.32-11.12,41.2,41.2,0,0,1-1.5-5.55,1.4,1.4,0,0,0-.09-.8,3.47,3.47,0,0,1-.18-1.15,30.92,30.92,0,0,1-.44-4.58c0-2.12.62-5.21.09-6.8s.44-6.62,1.32-11.56A44.05,44.05,0,0,0,82,94.5s.35-1.5.61-3.35.09-6.36-.35-6.36.71-.7,1.59-1.41a14,14,0,0,0,2.12-2.91A22.61,22.61,0,0,0,86.64,73.59ZM54.26,82.41c-.1.45-.27,1.31-.46,2.45l-2.06,1.52,2.62-8.47a4,4,0,0,1,.25,1.23A11.63,11.63,0,0,1,54.26,82.41ZM76.67,43.5a8.55,8.55,0,0,0-.16,3.3l-.81-.66v-.07c.28-.8.68-2,1-2.75h0A1.8,1.8,0,0,1,76.67,43.5ZM77,41.42A29.4,29.4,0,0,0,75.43,45a3.18,3.18,0,0,0-1.32-1.74c-.32-.18-.64-.34-.93-.48a4.86,4.86,0,0,1,.23-2.17c.62-.79,1-.08,1.67-1.94s-.17-4,.53-4.76l.69-.75.28.35c0,.21,0,.4,0,.53,0,.43.44.73.89.77a7.34,7.34,0,0,1,.39.86,4.83,4.83,0,0,1,.28,1.47A12.19,12.19,0,0,1,77,41.42Z" transform="translate(-13.86 -23.34)"/></svg>