<svg xmlns="http://www.w3.org/2000/svg" viewBox="0 0 38.22 135.14"><defs><style>.cls-1{isolation:isolate;}.cls-2{opacity:0.28;mix-blend-mode:multiply;}.cls-3{fill:#da1c24;}</style></defs><g class="cls-1"><g id="Layer_1" data-name="Layer 1"><g class="cls-2"><path class="cls-3" d="M65.06,165.56c1.24,0,4.36-1.56,2-3.92-.65-.65-1.25-1.35-1.79-2,.19-.41-.18-.35,0-.76.33-.88-.62-1.08-1-1.3s.22-.88.22-.88a7,7,0,0,0-1.32-1.32c-.55-.34.55-1.44.66-1.77a13.72,13.72,0,0,0,.11-4c-.22-1.54-2-15.41-2.09-17.28s-.11-2-.55-5.62-.77-9.8-.77-9.8a17.12,17.12,0,0,0,.44-3.85c-.11-1.43.66-5,.55-5.83s1.32-12,1.43-12.78a15.65,15.65,0,0,0-.11-2.64l.11-3.3,1-.66s.77-1,.66-1.32a16.59,16.59,0,0,1,.22-5.07,51,51,0,0,0,.66-7.07,4.15,4.15,0,0,0,.33-1c0-.24.24-1.15.48-2.19a19.59,19.59,0,0,1,2-2.17c1.21-1.1,1.21-4,1.43-6.93a7.47,7.47,0,0,0-.89-4c0-.64-.07-1.09-.07-1.09s-.91-1.4-1.15-1.73-2-.75-2.81-1.16-1.65-.91-1.65-.91l-1-.52a2.35,2.35,0,0,0-.63-.68A12.22,12.22,0,0,0,60,51.48l-.58-.32L59,49.57l-.75-.07c.06-1.1.14-2.58.19-2.84s.26-.82.57-1.76l.37-.06a4.47,4.47,0,0,0,1.74-2.06,2.8,2.8,0,0,0-.33-2.23.5.5,0,0,0-.4-.11,8.3,8.3,0,0,0,.36-1.95,16.25,16.25,0,0,0-.74-4.3,12.78,12.78,0,0,0-1.16-1.32l.5-.24S57,30.73,55.3,30.48s-4.46.33-5.45,1.24a13.31,13.31,0,0,0-2.23,4,3.09,3.09,0,0,0,.25,1.16,23.93,23.93,0,0,0-.41,3.38,1.49,1.49,0,0,0,0,.17,1.38,1.38,0,0,0-.48.32c-.33.42-.17.66.24,1.74a9.13,9.13,0,0,0,.83,1.47c.18,1.07.36,2.06.46,2.49a8.88,8.88,0,0,0,1.57,2.65l.78.16-.25,2.56s.25.33-1.16,1a.84.84,0,0,1-.19.07A36.47,36.47,0,0,1,46,50c-.25-.41-.83-1.32-1.33-1.23s-3.13.49-3.46.57a8,8,0,0,0-1.32.83l0,.08H33.55a1,1,0,0,0-1,1v4a1,1,0,0,0,1,1h3.89l-.19.33s1.65.53,2.6.78c0,0,0,0,0,0-.22.77-2,3.63-2.1,4s-3.52,7.14-4,7.91a44.36,44.36,0,0,0-1.54,4.51S30.69,76.5,32,78.27s1.54,1.54,1.54,1.54l.33,1.1,2,3.54s.15.69,2.86,2.86c.37.29.71.59,1.05.88l-1.05,3.86s-.33,5.28-.33,6.16a1.12,1.12,0,0,0,.12.46l-.12,1.08a57.15,57.15,0,0,0,0,7.44c.16,3-.13,8.3.06,8.89a1,1,0,0,1,0,.13c.34,3.33,1.48,14.52,1.67,15.36a1.57,1.57,0,0,0,1,1.21,2,2,0,0,0-.33,1.43c.11.88.66,2.42,1.1,4.3S43.38,147,43.38,147l0,6.88s-.31,1.89,0,2.22.11,1.87-.55,2.09c-.33.11-.66.63-.91,1.12-1.3.67-3.8,1.25-4.06,1.89-1.36,3.33,4.67,2.75,4.67,2.75a40,40,0,0,1,4.38-.66c4.05-.09,5-1.5,5-1.5s-.12-1.64-.24-3.74a.54.54,0,0,0,.22-.19c.22-.55-.22-2.31-.11-3.31a22,22,0,0,0,.33-3.52c0-.14-.25-.78-.59-1.7.37-1.63-1-8.25-1-9.62s-.2-14.73-.2-14.73,3.56,18.47,4.15,22.61c.27,1.89.64,3.91,1,5.62a20.87,20.87,0,0,1-.25,2.89c-.13.63.44,1.08,1,1.35a27.41,27.41,0,0,0-.28,4.27s.9.25,2.39.75S59.78,164,61,164.65A14.54,14.54,0,0,0,65.06,165.56ZM42,75.31s-.16,1.33-.4,3.17a11.5,11.5,0,0,0-1.58-3c-.54-.59-.11-.77.44-1s.77-1,1.1-1.54a9.62,9.62,0,0,1,.91-1Z" transform="translate(-31.47 -30.42)"/></g></g></g></svg>