<svg xmlns="http://www.w3.org/2000/svg" viewBox="0 0 59.28 80.28"><defs><style>.cls-1{isolation:isolate;}.cls-2{opacity:0.3;mix-blend-mode:multiply;}.cls-3{fill:#da1c24;fill-rule:evenodd;}</style></defs><g class="cls-1"><g id="Layer_1" data-name="Layer 1"><g class="cls-2"><path class="cls-3" d="M79.89,69.1l-.2-.27a2.38,2.38,0,0,0-1.37.62l-.35,0c.42-.77,1.33-.74,1.74-1.5.1-.06,0,0,0-.12l0-.22a2.27,2.27,0,0,0-1.51.71l-.23,0c.22-.78.71-.78,1-1.37l-.19-.27v-.11c-.79.15-1.69,1.41-2.16,2l-.23,0a1.19,1.19,0,0,1,.46-.75c.1-.56.18-.75-.21-1-.11-.11,0,0-.22-.15-.62,1.22-.91,2.73-1.81,3.6-.33.3-3.62.51-4.55.75-.67.16-1.54.57-2.22.73-.41.09-.6,0-1,.09a12,12,0,0,1-1.49.61l-.8-.12L62.94,73c-.12.08-.14.37-.3.43-.8.3-1.23.2-1.85.67-.79-.29-.53-.84-1-1.32-.26-.27-.61-.41-.83-.7-2.12-.22-3.27.88-4.82.94.19-.52.5-.47.71-.84L55.15,71a5.28,5.28,0,0,1,.41-.41,2.74,2.74,0,0,0,.13-1.73l.48-2.51a4.9,4.9,0,0,0-2.84-3.81C50.88,61.43,48.7,64,48,65.28s.06,4.52.41,5.21c.19.14.39.15.66.33-.08.44-.12.58-.35.77s-.28.12-.38.18c-1-.19-1.09-.68-1.72-1.07-.94-.58-2.25-.44-3-1.13-1,0-1.65,1.25-2.15,1.91a18.42,18.42,0,0,1-2-.06c-.19-.1-.39-.56-.61-.67-.75-.4-1.6-.29-2.36-.69-1.25-.66-2.25-2-3.46-2.73-2.49-1.42-5-2.38-7-4.07.28-1.95-.6-2-1.17-3.21-.14-.27-.08-.51-.25-.74s-.43.1-.8-.11c-.05,0-1.71-1.34-1.78-1.43-.3.11-.31.19-.43.52L21,58.08l-.13.09c0,.5.22.55-.1.69,0,.85,1.36,1.92,1.86,2.5l-.05.34c-.72-.37-.92-.93-1.95-1.1,0,1,1.18,1.2,1.74,1.77.32.34.39,1,.62,1.38a5.83,5.83,0,0,0,1.4,1.61l.57.08.54,1.13c.31.3.75.35,1.08.63,1.8,1.51,3.55,3.39,5.51,4.78a26.78,26.78,0,0,0,2.78,1.81c.9.46,1.6.37,2.57.84A13.29,13.29,0,0,1,39,75.8l1,.49c.32.31.31,1,.49,1.48.7,1.61,1.4,3,.17,5.29-.37.66-2.1,1.82-1.8,2.66-.29,2-.59,4-.88,6.08a11.72,11.72,0,0,0,3.27,1.65l.33,1a1.23,1.23,0,0,0,.72-.13,2.58,2.58,0,0,1,.79.23,14.4,14.4,0,0,0,0,4.57l-.36,2.52a26.05,26.05,0,0,0-.44,5.44l-.44,3,.3.4c.14.77-.51,1.94-.48,2.5,0,.11.26.45.27.51,0,.24-1.1,4.34-1.28,4.85-.15,1-.29,2-.44,3a19.87,19.87,0,0,0-.57,6.35,3.47,3.47,0,0,1-.43,1.34c-.25.84,0,2.15-.47,3.21-.32.83-.81,1.61-1.15,2.29a4,4,0,0,0-.32,3l.18.38c.19.1.11,0,.22.15,2.25.35,3.24-1.11,3.92-2.83.24-.62,0-1.77.43-2.16.14-.13.48-.11.62-.26a6.86,6.86,0,0,0,1-1.37c.32-.67-.27-1-.13-1.54.35-1.21,1.36-4,1.18-5.69,0-.49-.45-1.24-.19-1.9.13-.31.49-.82.64-1.19l.57-3.9c1.3-3.28,1.53-7.12,2.94-10.57,0-.32,0-.63,0-.94a36.63,36.63,0,0,1,2.18-3.78c2.32,1,5,4.33,6,6.37.23.5.09,1.08.35,1.58.17.31,1.58,1,1.92,1.33.63.68.44,2.07.73,3,.13.46.79,1,.94,1.54.21.69-.65.71-.56,1.44.13,1,.94,1.94,1.11,2.86.22,1.19-.44,1.88-.21,3,.2,1,1,1.61,1.41,2.43a3.27,3.27,0,0,0,1.67-.23c.68-1.84.29-3,.19-4.53-.08-1.22,1.15-1.9.93-3.15-.08-.43-.56-.83-.64-1.26-.13-.72.19-1.27,0-1.87A61.63,61.63,0,0,0,60,102.14c-.55-1.08-1.15-2.22-1.75-3.3-.41-.74-1.4-1.42-1.53-2.33-.11-.53.54-.46.72-1,0-.08.12-1.88.09-2.21-.08-.77-.22-2-.31-2.73L57.45,89a16.12,16.12,0,0,1-.29-3.67,6.88,6.88,0,0,0,2.5-3.5c.32-.8.12-1.9.59-2.49l.14-.91c.29-.46,3.27-1.1,4-1.42,2.63-1.24,5.41-2.12,8.18-3.14.34-.13.89-.34,1.25-.52l.8-.71c.59-.19,1.1,0,1.66-.11,1.14-.32,1.86-1.45,3.16-1.64.07-.33.11-.16,0-.35l0-.23c-.6-.06-.71,0-1,.33-.26-.07-.32-.07-.44-.18l-.11,0C78.4,69.79,79.38,69.8,79.89,69.1Z" transform="translate(-20.6 -57.77)"/></g></g></g></svg>