<svg id="Layer_1" data-name="Layer 1" xmlns="http://www.w3.org/2000/svg" viewBox="0 0 59.04 116.11"><defs><style>.cls-1{fill:#da1c24;}</style></defs><path class="cls-1" d="M79.39,46.32l.11-1-.77-.6a.79.79,0,0,0-.38-1c-.55-.28-1.65.16-1.65.16l-.5-.55-1.76.77s-.33,5.29-.55,6.06-.44,2.75-3.63,6.38-3.42,5.29-3.86,5.62a72.46,72.46,0,0,1-7,3.08c-1,.4-1.89.78-2.59,1.11-.41-.44-.77-.63-1.05-.45a5.79,5.79,0,0,1-1.65.66l-1.1.22a8.06,8.06,0,0,1-1,.09,7.77,7.77,0,0,0,.89-2.15,9,9,0,0,0,.12-2.55,12.07,12.07,0,0,0,.81-5.19,6.37,6.37,0,0,0-1.4-3.31c-.48-1.53-2.52-1.7-3.77-2.74a2.44,2.44,0,0,0-2.86,0,5.76,5.76,0,0,0-2.1-.11C43.06,51,39.87,52.1,39.1,55a10.6,10.6,0,0,0-.42,3.35,1.69,1.69,0,0,0-.24.94c0,1.1.22,3.42,1.1,3.53h.21a9.67,9.67,0,0,0,.72,2,7.8,7.8,0,0,0-1.15-.36c-.33,0-1.21.44-1.32,0s-.22-.66-.66-.66h-.77s-.66-1-1-.77l-.44.31a31.32,31.32,0,0,0-2.26-2.68,8.59,8.59,0,0,1-2.15-3c-.33-.55-2.8-6.22-3.24-7s-1.82-3.74-1.55-4.35a5.44,5.44,0,0,0,.33-2.86c-.22-.77-.77-1.6-.77-1.82s-.77-.55-.77-.77S24,40.1,24,40.1l-.33.27s-.44-.6-.88-.55a1.2,1.2,0,0,0-.72.44.61.61,0,0,0-.44.39,4.51,4.51,0,0,0-.16.66s-.5.16-.61.44a2.66,2.66,0,0,0-.11.77.74.74,0,0,0-.06.44c.06.22,1,2.37,1.16,2.7s.55,1.1,1.05,2.14,2.75,9.25,4,11.78a74.33,74.33,0,0,0,4,6.5l1.53,2.11c-.31,1.45-.49,2.62-.49,2.62S34.48,71.91,35,73s1.1,7.92.88,9.9-.66,4.52-.66,5a13,13,0,0,1-.44,3.74,14.24,14.24,0,0,0-.66,2.2,3.12,3.12,0,0,0,1,1.18c0,.54-.07,1.17-.11,1.53-.08.75-.08,1.33-.08,1.33A16.05,16.05,0,0,0,33.5,103c-.16,2.55.75,8.42.75,8.75A63.35,63.35,0,0,0,35.48,119a3.52,3.52,0,0,1,.09,1.82,8.59,8.59,0,0,1-.09,2,7.83,7.83,0,0,0-.16,1.65,5.84,5.84,0,0,0-1,4.13c.41,2.23-.58,6.19-.75,7a14,14,0,0,0-.55,3.29s0,0,0,0l-.22.2a4.27,4.27,0,0,0-.91,2.07,9.71,9.71,0,0,0,.32,2.49l-.06,1.07h.39a9.18,9.18,0,0,0,.13,3.2,4.69,4.69,0,0,0,2.91,2.9c.91.24,2.07-.65,2.4-2.25s-.59-4-.46-4.68.54-3.25.71-4.31c1.4-3.3,2.16-9.87,2.44-10.69.33-1,1.07-1.32,1.48-2.64a36.14,36.14,0,0,0,1-6.94c0-1,.92-6.49,1.79-11.16l2.57,7.71s1.57,7.93,1.57,9.08-.58,4.71-.49,6.77-.19,12.7.25,14.58a23.57,23.57,0,0,0-1.11,4,25.41,25.41,0,0,0,1.1,4.79l1.32,0,.28-1.65.44.66a2.89,2.89,0,0,0,1.49,1.54,20.34,20.34,0,0,0,4.45.27,1.35,1.35,0,0,0,.45-1.48,6.21,6.21,0,0,0-1.93-2.37,7.48,7.48,0,0,1-1.71-3.63c0-.29-.12-.69-.19-1.05h0s1-.38.91-1,.46-4.38.57-5.59c0-.26.39-2.15.83-4.48a71.06,71.06,0,0,0,.41-8.1c-.08-.74-.08-1.32-.08-1.32a5.09,5.09,0,0,1,.25-1.07,8.53,8.53,0,0,0-.17-2.81c-.16-.74-.25-13.62-.33-16.76-.06-2.26-.76-8.45-1.15-11.74a2,2,0,0,0,.46-.73c.11-.44.88-.55.22-1.32a6.75,6.75,0,0,1-1.21-3.3,38.64,38.64,0,0,1,1-9.58,16.86,16.86,0,0,1,4.3-7.16,1.62,1.62,0,0,0-.08-.51c.84-.39,1.69-.8,2.28-1.14C63.21,69.93,69,65.64,70,65.2s.77-.33,1.54-1.54a105,105,0,0,0,5.06-10.79,4.77,4.77,0,0,1,1.49-2.15l.38-1.15.77-1.22s.33-.88.44-1.21S79.39,46.32,79.39,46.32ZM52.5,56.47a3.92,3.92,0,0,1,.47.8,4.09,4.09,0,0,1-.27,3.19c-.06-.31-.11-.58-.17-.77A13.23,13.23,0,0,1,52.5,56.47Z" transform="translate(-20.7 -39.82)"/></svg>