<svg id="Layer_1" data-name="Layer 1" xmlns="http://www.w3.org/2000/svg" xmlns:xlink="http://www.w3.org/1999/xlink" viewBox="0 0 194.38 36.21"><defs><style>.cls-1{fill:red;}.cls-2{fill:#e6e6e6;}.cls-3{fill:url(#linear-gradient);}.cls-4{fill:url(#linear-gradient-2);}.cls-5{fill:url(#linear-gradient-3);}.cls-6{fill:url(#linear-gradient-4);}.cls-7{fill:url(#linear-gradient-5);}.cls-8{fill:url(#linear-gradient-6);}.cls-9{fill:url(#linear-gradient-7);}.cls-10{fill:url(#linear-gradient-8);}.cls-11{fill:url(#linear-gradient-9);}.cls-12{fill:url(#linear-gradient-10);}.cls-13{fill:url(#linear-gradient-11);}</style><linearGradient id="linear-gradient" x1="9.84" y1="65.66" x2="9.84" y2="45.87" gradientUnits="userSpaceOnUse"><stop offset="0" stop-color="#ed1c24"/><stop offset="0.99" stop-color="#c1272d"/></linearGradient><linearGradient id="linear-gradient-2" x1="29.31" y1="65.66" x2="29.31" y2="45.87" xlink:href="#linear-gradient"/><linearGradient id="linear-gradient-3" x1="49.51" y1="65.3" x2="49.51" y2="46.23" xlink:href="#linear-gradient"/><linearGradient id="linear-gradient-4" x1="66.42" y1="65.3" x2="66.42" y2="46.23" xlink:href="#linear-gradient"/><linearGradient id="linear-gradient-5" x1="84.83" y1="65.66" x2="84.83" y2="45.87" xlink:href="#linear-gradient"/><linearGradient id="linear-gradient-6" x1="105.39" y1="65.3" x2="105.39" y2="46.23" xlink:href="#linear-gradient"/><linearGradient id="linear-gradient-7" x1="123.38" y1="65.3" x2="123.38" y2="46.23" xlink:href="#linear-gradient"/><linearGradient id="linear-gradient-8" x1="137.23" y1="35.85" x2="137.23" y2="16.78" xlink:href="#linear-gradient"/><linearGradient id="linear-gradient-9" x1="149.14" y1="35.85" x2="149.14" y2="16.78" xlink:href="#linear-gradient"/><linearGradient id="linear-gradient-10" x1="166.82" y1="65.66" x2="166.82" y2="45.87" xlink:href="#linear-gradient"/><linearGradient id="linear-gradient-11" x1="185.88" y1="35.85" x2="185.88" y2="16.78" xlink:href="#linear-gradient"/></defs><path class="cls-1" d="M6,30.38H2v-.93h8.93v.93H7V43.25H6Z" transform="translate(-1.85 -29.45)"/><path class="cls-1" d="M13.71,29.45h1v6.27h8.14V29.45h1v13.8h-1V36.66H14.71v6.59h-1Z" transform="translate(-1.85 -29.45)"/><path class="cls-1" d="M27.6,29.45h6.28v.93H28.6v5.36h4.63v.92H28.6v5.66h5.5v.93H27.6Z" transform="translate(-1.85 -29.45)"/><path class="cls-2" d="M42.85,29.45h1l8.45,12.16V29.45h1v13.8h-1L43.86,31.07V43.25h-1Z" transform="translate(-1.85 -29.45)"/><path class="cls-2" d="M57,29.45h6.29v.93H58v5.36h4.63v.92H58v5.66h5.5v.93H57Z" transform="translate(-1.85 -29.45)"/><path class="cls-2" d="M74.16,30.87,70.44,43.25h-1.1l-4-13.8h1.06l3.55,12.44,3.7-12.44h1.11l3.7,12.44L82,29.45H83l-4,13.8h-1.1Z" transform="translate(-1.85 -29.45)"/><path class="cls-3" d="M12.34,50.83a6.14,6.14,0,0,1,4,1.42l1.5-4.74a10.44,10.44,0,0,0-5.77-1.64c-6.19,0-10.22,4.39-10.22,9.87s4,9.92,10.22,9.92A10.44,10.44,0,0,0,17.84,64l-1.5-4.74a6.14,6.14,0,0,1-4,1.42,4.94,4.94,0,0,1,0-9.87Z" transform="translate(-1.85 -29.45)"/><path class="cls-4" d="M29.31,45.87C23,45.87,19,50.23,19,55.74s4,9.92,10.3,9.92,10.3-4.34,10.3-9.92S35.61,45.87,29.31,45.87Zm0,14.83c-2.78,0-4.63-2.1-4.63-5a4.64,4.64,0,1,1,9.26,0C33.94,58.6,32.09,60.7,29.31,60.7Z" transform="translate(-1.85 -29.45)"/><path class="cls-5" d="M55.45,52.25c0-3.73-2.26-6-7-6H41.71V65.3h5.43V58.57h1l3.21,6.73h6l-4.36-8A5.87,5.87,0,0,0,55.45,52.25ZM48,54.16h-.9V50.78H48c1.22,0,1.88.6,1.88,1.66A1.68,1.68,0,0,1,48,54.16Z" transform="translate(-1.85 -29.45)"/><path class="cls-6" d="M66.92,46.23H59.48V65.3h5.43V59H67a6,6,0,0,0,6.35-6.4C73.35,48.73,71,46.23,66.92,46.23Zm-.87,8.2H64.91V50.78H66.1a1.63,1.63,0,0,1,1.69,1.77A1.68,1.68,0,0,1,66.05,54.43Z" transform="translate(-1.85 -29.45)"/><path class="cls-7" d="M84.83,45.87c-6.3,0-10.31,4.36-10.31,9.87s4,9.92,10.31,9.92,10.3-4.34,10.3-9.92S91.12,45.87,84.83,45.87Zm0,14.83c-2.78,0-4.64-2.1-4.64-5a4.64,4.64,0,1,1,9.27,0C89.46,58.6,87.61,60.7,84.83,60.7Z" transform="translate(-1.85 -29.45)"/><path class="cls-8" d="M111.34,52.25c0-3.73-2.27-6-7-6H97.6V65.3H103V58.57h1l3.22,6.73h6l-4.36-8A5.89,5.89,0,0,0,111.34,52.25Zm-7.42,1.91H103V50.78h.9c1.23,0,1.88.6,1.88,1.66A1.68,1.68,0,0,1,103.92,54.16Z" transform="translate(-1.85 -29.45)"/><path class="cls-9" d="M120.49,46.23,113.9,65.3h5.45l1.14-3.65h5.73l1.14,3.65h5.51l-6.59-19.07Zm1.28,11.09,1.58-5.48,1.58,5.48Z" transform="translate(-1.85 -29.45)"/><polygon class="cls-10" points="130.6 21.52 134.5 21.52 134.5 35.85 139.92 35.85 139.92 21.52 143.87 21.52 143.87 16.78 130.6 16.78 130.6 21.52"/><rect class="cls-11" x="146.4" y="16.78" width="5.49" height="19.08"/><path class="cls-12" d="M166.82,45.87c-6.3,0-10.31,4.36-10.31,9.87s4,9.92,10.31,9.92,10.3-4.34,10.3-9.92S173.11,45.87,166.82,45.87Zm0,14.83c-2.78,0-4.64-2.1-4.64-5a4.64,4.64,0,1,1,9.27,0C171.45,58.6,169.6,60.7,166.82,60.7Z" transform="translate(-1.85 -29.45)"/><polygon class="cls-13" points="189.04 16.78 189.04 27.59 182.91 16.78 177.37 16.78 177.37 35.85 182.69 35.85 182.69 25.2 188.98 35.85 194.38 35.85 194.38 16.78 189.04 16.78"/></svg>