<?xml version="1.0" encoding="UTF-8"?>
<svg width="47px" height="53px" viewBox="0 0 47 53" version="1.1" xmlns="http://www.w3.org/2000/svg" xmlns:xlink="http://www.w3.org/1999/xlink">
    <!-- Generator: Sketch 51.3 (57544) - http://www.bohemiancoding.com/sketch -->
    <title>Devi_About</title>
    <desc>Created with Sketch.</desc>
    <defs></defs>
    <g id="The-Corporation-App-(Mobile)" stroke="none" stroke-width="1" fill="none" fill-rule="evenodd">
        <g id="Landing_NU_Menu" transform="translate(-43.000000, -115.000000)">
            <g id="Devi_About" transform="translate(43.000000, 115.000000)">
                <g id="Group-4" transform="translate(28.000000, 49.000000)">
                    <path d="M1.2969,2.5036 C1.6019,2.5866 1.7629,2.7446 2.0859,2.7986 C1.7559,2.8846 0.8429,3.0006 0.5499,3.1376 C0.3769,3.2816 0.4629,3.4646 0.4219,3.6236 C1.5329,3.3396 2.7529,3.2816 4.0569,3.4136 C4.2939,3.2286 4.2879,2.9576 4.2009,2.7376 C3.1309,2.4296 2.3609,1.3366 1.9849,0.8496 L1.8689,1.5916 C1.9189,1.8766 2.4199,2.2286 2.5199,2.4426 L2.4749,2.4806" id="Fill-1" fill="#FFFFFF"></path>
                    <path d="M1.2969,2.5036 C1.6019,2.5866 1.7629,2.7446 2.0859,2.7986 C1.7559,2.8846 0.8429,3.0006 0.5499,3.1376 C0.3769,3.2816 0.4629,3.4646 0.4219,3.6236 C1.5329,3.3396 2.7529,3.2816 4.0569,3.4136 C4.2939,3.2286 4.2879,2.9576 4.2009,2.7376 C3.1309,2.4296 2.3609,1.3366 1.9849,0.8496 L1.8689,1.5916 C1.9189,1.8766 2.4199,2.2286 2.5199,2.4426 L2.4749,2.4806" id="Stroke-3" stroke="#FFFFFF" stroke-width="0.752" stroke-linecap="round" stroke-linejoin="round"></path>
                </g>
                <polygon id="Fill-5" fill="#FEFEFE" points="41 40 38.4944001 42 31.6028109 41.199676 28 38.400162 29.5663568 38 34.7355245 39.3341434"></polygon>
                <path d="M0,33.3950795 C0,33.3950795 0.209556578,34.6181518 0.629626613,34.8218422 C1.04969665,35.0264626 1.4688098,34.6181518 1.4688098,34.6181518 C1.4688098,34.6181518 1.67932326,35.8421542 2.30894988,35.8421542 C2.93761961,35.8421542 4.40642941,34.8218422 4.40642941,34.8218422 L4.61694287,36.4541554 L7.13449245,38.9012301 C7.13449245,38.9012301 8.81190195,39.1049205 9.23197199,39.1049205 C9.65204202,39.1049205 10.7007818,38.9012301 10.7007818,38.9012301 C10.7007818,38.9012301 8.81190195,39.3086109 9.44152856,40.7372337 C10.0711552,42.1639964 10.4912252,43.3879988 12.5896616,42.7759976 C14.1819089,42.3118812 15.6516756,42.0830783 16.2688627,41.9993699 C16.1549941,42.0747075 16.0334704,42.2365437 15.9463944,42.5723072 C15.7358809,43.3879988 15.7358809,44 15.7358809,44 C15.7358809,44 17.2056476,43.3879988 19.5136406,42.9806181 C21.8216336,42.5723072 27.6968728,42.7759976 28.9551692,42.5723072 C30.2144224,42.3686169 35.2495216,41.5529253 37.1384014,40.9409241 C39.0263244,40.3289229 40.7056476,37.6772277 40.7056476,37.6772277 L41.1257177,37.269847 C41.1257177,37.269847 41.7543874,38.0855386 42.3830571,38.4938494 C43.0136406,38.9012301 43.8528238,38.9012301 43.8528238,38.9012301 L43.6423104,37.6772277 L44.271937,37.0661566 C44.271937,37.0661566 45.5311902,37.8818482 45.9503034,37.8818482 C46.3694165,37.8818482 47,36.8615362 47,36.8615362 L46.3694165,36.4541554 L45.7407468,37.0661566 L45.1111202,36.6578458 C45.1111202,36.6578458 45.3206767,35.230153 45.3206767,34.8218422 L45.3206767,33.8024602 C45.3206767,33.8024602 44.692007,33.8024602 44.4814935,34.2107711 C44.271937,34.6181518 44.0623804,35.6384638 44.0623804,35.6384638 L43.4327538,35.230153 L43.4327538,34.2107711 C43.4327538,34.2107711 45.5311902,34.0070807 45.7407468,33.8024602 C45.9503034,33.5987699 45.7407468,32.9867687 45.7407468,32.9867687 C45.7407468,32.9867687 44.271937,32.3747675 44.0623804,32.3747675 C43.8528238,32.3747675 43.4327538,32.7830783 42.3830571,32.7830783 C41.3343174,32.7830783 40.9152042,32.5793879 40.9152042,32.5793879 L40.7056476,31.560006 C40.7056476,31.560006 39.8664644,30.9470747 39.0263244,30.5387639 C38.1871412,30.1313831 35.8791482,28.5 35.8791482,28.5 L35.2495216,27.6843084 C35.2495216,27.6843084 34.4103384,25.8492349 34.4103384,25.0326133 L34.4103384,23.809541 L34.6208518,22.790159 L33.9912252,22.1772277 C33.9912252,22.1772277 33.9912252,20.5467747 33.7816686,18.9144614 C33.5711552,17.2830783 32.731972,16.2636964 32.731972,16.2636964 C32.731972,16.2636964 30.423979,15.4480048 30.2144224,15.2433843 C30.003909,15.0406241 26.8567328,14.2240024 26.8567328,14.2240024 L26.228063,13 L21.612077,13.4083108 L20.5623804,14.4276928 C20.5623804,14.4276928 18.463944,14.6323132 17.2056476,15.2433843 C15.9463944,15.8553855 14.688098,15.8553855 14.688098,15.8553855 L13.4288448,20.749535 L13.2183314,21.3615362 L13.2183314,22.3818482 L12.3801051,25.6446145 C12.3801051,25.6446145 11.3304084,25.8492349 11.1208518,26.2566157 C10.9112952,26.6649265 10.7007818,27.2769277 10.7007818,27.2769277 L5.45612606,30.3350735 L4.82649945,30.5387639 C4.82649945,30.5387639 3.14717619,29.9276928 2.51754957,30.1313831 C1.88887984,30.3350735 1.25925323,30.7433843 1.25925323,30.7433843 L0.629626613,30.7433843 L0.629626613,31.3553855 C0.629626613,31.560006 1.25925323,31.7636964 1.25925323,31.7636964 L0.629626613,32.3747675 L0,33.3950795" id="Fill-7" fill="#FFFFFF"></path>
                <path d="M17.5858491,31.3447625 C17.1726415,31.9657125 17.5858491,32.5866625 17.5858491,32.5866625 L17.1726415,32.7933312 L12,33 C12,33 13.2415094,32.1723813 13.654717,31.9657125 C14.0688679,31.7581 15.9301887,30.1038062 15.9301887,30.1038062 L17.3792453,27 L17.5858491,28.6542938 L18,29.8961938 C18,29.8961938 18,30.7238125 17.5858491,31.3447625" id="Fill-9" fill="#422035"></path>
                <path d="M31.0694229,33.7031558 L30.0872267,33.4871795 C30.0872267,33.4871795 29.8909667,32.8392505 30.0872267,32.4053254 C30.2834867,31.9733728 30.0872267,31.3244576 30.0872267,31.3244576 L30.0872267,27.8648915 L30.0872267,27 C30.0872267,27 30.6769029,30.4595661 30.8731629,30.8915187 C31.0694229,31.3244576 34.6065838,34.1351085 34.6065838,34.1351085 L35,35 L31.0694229,33.7031558 Z" id="Fill-11" fill="#422035"></path>
                <path d="M29,17 C28.3289859,16.6776133 27.6201682,16.1819439 26.9850676,15.6500059 C26.9075702,15.2842985 26.7497401,15.0364638 26.43408,14.9135539 C26.5163028,14.1327737 26.5871846,13.3106877 26.6316038,12.4926315 L26.6316038,12.4513258 C27.4198091,12.324386 27.8176921,11.7138663 27.8526604,10.6036472 L27.8526604,10.2732009 L27.8526604,10.1966341 C28.2108496,9.82488196 28.5284,9.49141326 28.7646725,9.08339265 L27.4198091,8.1011208 C27.492581,6.74608938 27.2988375,5.68221341 26.8234571,4.90647052 C25.6430394,4.20024225 24.2972309,3.87785559 22.675456,4.04207129 C22.005387,4.90647052 21.335318,5.93004815 20.78055,7.11884895 L19,7.93791255 C19.3156601,8.55246212 19.7891504,8.96350511 20.4989131,9.2536531 L20.4989131,9.33021993 C20.4989131,10.1583507 20.4989131,11.0156977 20.5830262,11.8337538 C20.696437,12.7767348 20.8967961,13.6431489 21.2861733,14.4581827 C21.335318,14.4581827 21.3702864,14.5025109 21.4099802,14.584115 C21.5309517,14.7503456 21.649088,15.0364638 21.6065589,15.2842985 L21.6065589,15.3628803 C21.5309517,15.4031786 21.4884226,15.4878051 21.4099802,15.5311258 C21.0905396,15.8595572 20.8542671,16.1819439 20.7361308,16.6322777" id="Fill-13" fill="#FFFFFF"></path>
                <path d="M38.7979628,41.7401321 C39.9297518,41.9700323 41.0203674,42.5605226 41.919479,43.2712098 C42.7573092,43.9332459 44.0662395,45.3202782 43.4706618,46.5203378 C42.8942346,47.6822397 40.9715339,47.2978009 40.0073109,47.0488219 C38.831476,46.7464222 37.7236251,46.2341551 36.5525777,45.9231698 C33.9682305,45.2353773 31.2488729,44.5695255 28.5563258,44.6324857 C26.6709683,44.676367 24.4054753,45.5082049 24.0262973,47.6211874 C23.8242605,48.7497014 24.8267843,49.6788413 25.6492942,50.280779 C26.7006515,51.0487027 27.9262774,51.6296537 29.1758414,51.9988294 C29.2955315,52.0341253 29.603853,51.259524 29.603853,51.259524 C28.5094073,50.9361375 27.4475173,50.4458111 26.4909545,49.8247945 C25.6349314,49.2676921 24.4926097,48.407236 24.4332434,47.2853997 C24.3633444,45.9527421 26.4574413,45.4977115 27.4676252,45.407087 C28.9278437,45.2773508 30.4167877,45.4614617 31.8549832,45.7066249 C34.3100652,46.1254056 36.5822609,46.881882 38.9482935,47.6087862 C40.0082685,47.9350345 41.3612446,48.3204273 42.4260072,47.810068 C43.1115917,47.4809579 43.5807767,46.6815541 43.8421797,45.9928076 C44.7901248,43.4963402 41.2415546,41.410068 39.2259744,41.0008267 C39.0833039,40.9712545 38.8219008,41.7449018 38.7979628,41.7401321" id="Fill-15" fill="#FFFFFF"></path>
                <path d="M23.6420523,0.88121923 C25.2229503,0.48812251 27.0953811,0.629671437 28.5263743,1.20268878 C26.9767448,1.46446903 25.1291449,1.32206739 23.6420523,0.88121923 M28.5732771,0.562307791 C26.9500746,-0.0917164693 24.6619568,-0.243497849 23.0038072,0.47447924 C23.0001286,0.812150175 22.9504669,1.23850237 23.3523589,1.4397406 C24.9323373,2.00252549 26.8387955,2.13640008 28.6220191,1.86353468 C28.9521776,1.7902021 28.9963214,1.46532173 29,1.19586715 C28.9797674,0.934086901 28.8252643,0.704709423 28.5732771,0.562307791" id="Fill-17" fill="#FFFFFF"></path>
            </g>
        </g>
    </g>
</svg>