<?xml version="1.0" encoding="UTF-8"?>
<svg width="61px" height="64px" viewBox="0 0 61 64" version="1.1" xmlns="http://www.w3.org/2000/svg" xmlns:xlink="http://www.w3.org/1999/xlink">
    <!-- Generator: Sketch 51.3 (57544) - http://www.bohemiancoding.com/sketch -->
    <title>Devi_Join Us</title>
    <desc>Created with Sketch.</desc>
    <defs>
        <polygon id="path-1" points="0.584375 0.1099875 21.9248333 0.1099875 21.9248333 13.8676125 0.584375 13.8676125"></polygon>
        <polygon id="path-3" points="0.566793747 0.086 6.4782375 0.086 6.4782375 2.54358302 0.566793747 2.54358302"></polygon>
    </defs>
    <g id="The-Corporation-App-(Mobile)" stroke="none" stroke-width="1" fill="none" fill-rule="evenodd">
        <g id="Landing_NU_Menu" transform="translate(-44.000000, -185.000000)">
            <g id="Devi_Join-Us" transform="translate(45.000000, 185.000000)">
                <path d="M1.76320995,36.7193716 C2.01940284,36.6138735 2.24074597,36.746472 2.38108694,36.9187531 C2.16445324,37.9359861 2.72581709,39.0771067 2.96034661,39.6104039 L2.29914288,39.3577895 C2.0881605,39.1816368 2.01846096,38.6096247 1.88565508,38.426697 L1.83573514,38.4460544 C1.44108505,40.0294923 2.11924272,41.1619021 3.40868419,41.8510266 C4.51445794,42.3872275 5.84816803,42.5004685 7.01422247,41.6729383 C9.48290478,39.7507453 10.7007629,36.7851868 12.7625506,34.394544 C14.6142978,32.0919775 17.3316379,30.4311099 20,31.1831461 L19.456532,31.8964675 C19.0006593,31.7987125 18.5353678,31.7406402 18.0408778,31.7425759 C12.0617877,31.7909695 10.6941697,39.7797815 6.04878968,42.5953199 C4.89215409,43.2360509 3.71950645,43.0628019 2.6655364,42.4472355 L2.65611755,42.4540106 C2.59772064,42.4162636 2.53838184,42.3775488 2.4818687,42.3359303 C2.40369219,42.2846331 2.32551568,42.232368 2.25016483,42.1781672 L2.25393237,42.164617 C1.40906094,41.4958178 1.09447113,40.5172996 1.30262786,39.3945686 C1.3657342,39.1071107 1.30922106,38.9009541 1.4052934,38.6144641 C1.18960158,38.8419139 0.694169728,39.5300706 0.452105114,39.7042875 C0.259018555,39.7778457 0.145992277,39.6220184 0,39.5823357 C0.718658755,38.810942 1.30074409,37.8440383 1.76320995,36.7193716" id="Fill-1" fill="#FFFFFF"></path>
                <path d="M1.76320995,36.7193716 C2.01940284,36.6138735 2.24074597,36.746472 2.38108694,36.9187531 C2.16445324,37.9359861 2.72581709,39.0771067 2.96034661,39.6104039 L2.29914288,39.3577895 C2.0881605,39.1816368 2.01846096,38.6096247 1.88565508,38.426697 L1.83573514,38.4460544 C1.44108505,40.0294923 2.11924272,41.1619021 3.40868419,41.8510266 C4.51445794,42.3872275 5.84816803,42.5004685 7.01422247,41.6729383 C9.48290478,39.7507453 10.7007629,36.7851868 12.7625506,34.394544 C14.6142978,32.0919775 17.3316379,30.4311099 20,31.1831461 L19.456532,31.8964675 C19.0006593,31.7987125 18.5353678,31.7406402 18.0408778,31.7425759 C12.0617877,31.7909695 10.6941697,39.7797815 6.04878968,42.5953199 C4.89215409,43.2360509 3.71950645,43.0628019 2.6655364,42.4472355 L2.65611755,42.4540106 C2.59772064,42.4162636 2.53838184,42.3775488 2.4818687,42.3359303 C2.40369219,42.2846331 2.32551568,42.232368 2.25016483,42.1781672 L2.25393237,42.164617 C1.40906094,41.4958178 1.09447113,40.5172996 1.30262786,39.3945686 C1.3657342,39.1071107 1.30922106,38.9009541 1.4052934,38.6144641 C1.18960158,38.8419139 0.694169728,39.5300706 0.452105114,39.7042875 C0.259018555,39.7778457 0.145992277,39.6220184 0,39.5823357 C0.718658755,38.810942 1.30074409,37.8440383 1.76320995,36.7193716 Z" id="Stroke-3" stroke="#FFFFFF" stroke-width="0.3" stroke-linecap="round" stroke-linejoin="round"></path>
                <path d="M32.4606348,18.1414339 C32.3154814,18.1965278 32.282915,18.1965278 32.1814937,18.0980813 C32.2745408,18.1125322 32.3666573,18.126983 32.4606348,18.1414339 M48.7038549,22.54443 C49.0332414,21.5391921 49.7859918,20.5935641 50,19.4447208 C49.891135,18.8161084 49.7822699,18.187496 49.6743354,17.5579805 C49.3821677,17.5417233 49.09,17.5272724 48.7969019,17.5128215 C48.5801023,17.6934573 48.3642332,17.8722867 48.1465032,18.0529224 L48.1465032,18.859461 C48.0757874,19.0581603 47.8310737,19.4636875 47.6859204,19.6687091 C47.2886095,20.2277767 45.8742947,20.537567 45.5104808,21.2420464 C45.2573929,21.3648787 44.9224236,21.1625666 44.4450923,21.1065695 C43.560215,21.7487296 42.9702969,21.4813887 41.6211149,21.6909262 C40.3389269,21.8905287 38.2872398,22.231027 36.8561765,21.8706587 C35.2725161,21.4723569 33.7065345,20.9042575 31.9507371,20.6567866 C30.025594,20.3876393 29.3854305,22.417985 27.4146944,21.7803409 C27.192312,21.3594596 27.3579357,21.0749583 27.5096023,20.7480076 C27.5226289,20.5980799 27.5384469,20.4481523 27.5561259,20.2991278 C27.9152874,19.5512958 30.3177617,19.6253565 31.1188966,19.3101471 C31.1496022,19.1448654 31.1803077,18.9804869 31.2091523,18.8161084 C31.9339886,18.652633 32.7602463,18.1549816 33.3845918,17.8722867 L34.7272605,17.8722867 C34.8975365,17.7819688 35.0659517,17.6934573 35.2362277,17.6031394 L36.5788964,17.6031394 C36.76406,17.4676626 36.9492235,17.3339922 37.1334567,17.1994185 C37.4274853,17.1687105 37.7205834,17.1380024 38.0127511,17.1081975 C39.6494484,16.3404956 41.4005935,15.7687835 43.1964012,15.0877868 C43.8756445,14.8484444 44.5539573,14.6081989 45.2322702,14.3688565 C45.1857467,14.1584159 45.1401536,13.9497816 45.0936301,13.7402441 L44.5381393,11.8083449 C44.3222702,11.5680994 44.1073316,11.328757 43.8896015,11.0894147 C43.8756445,11.0596098 43.8579655,11.0298049 43.843078,11 C42.9637836,11.3757223 42.0686711,12.0964589 41.1149391,12.3917984 C39.409387,12.9183515 37.6926693,13.4349698 35.8838351,13.9199767 C35.2278535,14.0960966 32.9742544,14.1990589 32.785369,14.5485891 C32.3480479,14.8168331 28.4596125,14.0789362 27.3225778,14.0093914 C26.5614531,12.8488068 24.1152467,13.3816822 23.4825269,12.16781 L18.9008911,11.6737713 C17.260472,13.3383296 13.843785,13.5036113 12.6993065,15.6269844 C12.8221286,15.7615581 12.9449507,15.8961317 13.0696337,16.0316085 C12.514143,18.5758629 11.9586522,21.1219236 11.4022309,23.6679843 C11.2794089,23.7872039 11.1565868,23.9073267 11.0328342,24.0274494 C10.8374355,24.5422613 11.5734375,26.5482212 11.681372,27.1253523 C11.7586011,28.05382 11.8358301,28.9822877 11.9130591,29.9116586 C12.3327013,31.4244829 12.9402984,33.285031 13.7265458,35.5718795 C13.7572513,35.5863303 15.691699,35.1762872 16.1225068,35.0317786 C16.4183963,34.8674001 16.7087031,34.7021184 17.0027317,34.5377399 C16.7877931,33.4593445 16.5719239,32.3809491 16.3551244,31.303457 C16.1038974,30.2666078 15.6256356,28.9795782 15.8005641,27.7991236 C15.9084986,27.7702219 16.0164332,27.7386107 16.1225068,27.709709 C17.2734986,28.3229673 17.3172307,33.2218085 17.9750732,34.6732167 L17.9750732,34.7635345 C18.4384474,34.6136069 18.9008911,34.462776 19.3642653,34.3128484 C19.8881201,34.6732167 20.4129054,35.0317786 20.9376906,35.3921469 C21.7537131,37.9815602 22.5715964,40.5718767 23.3894798,43.1630964 C23.5430074,43.2227061 23.6993265,43.2814128 23.8528541,43.3428289 C23.8993776,43.6128793 23.9449706,43.8811234 23.9905637,44.1502707 C23.6360545,44.4212243 23.2834062,44.6894683 22.9261056,44.9577124 C22.2626803,46.9356737 21.6001855,48.9127319 20.9376906,50.8888869 C20.0118727,52.2219786 19.0860547,53.5541672 18.1602367,54.8872589 C17.8466683,55.2096937 17.4130691,55.0462184 17.1413718,55.6061892 C16.4779464,56.0622944 16.8817706,56.0966152 17.1869648,56.5933635 C16.8538564,56.9826335 16.289061,57.2120409 16.0313207,57.6717588 C14.6532942,60.1229858 17.6466171,59.9829931 18.4384474,61.0848711 C19.0348788,61.9176019 18.8069136,62.929162 19.8723021,63.3310765 C20.7636927,63.667059 24.0361567,64.5738504 24.6409624,63.4665533 L24.6409624,63.242565 C24.4111362,62.86323 23.9728847,62.8352314 23.5746434,62.6139526 C22.3408398,61.9239241 20.879071,60.826562 21.1684472,58.9750457 C21.5229564,58.9244677 21.864439,59.0482032 22.2319748,59.1087161 C22.2319748,58.2199883 22.632077,58.2190851 22.9261056,57.6717588 C23.1112692,57.222879 23.2973633,56.773096 23.4825269,56.3242162 C23.9449706,55.665799 24.4092753,55.0055753 24.8698581,54.3480613 C25.5602671,53.2290229 25.8245206,51.7207144 26.5828539,50.6188364 C27.7198886,48.9660194 29.2188763,46.9447055 29.7297045,44.7797862 C30.0069846,43.5975253 29.68132,41.8291014 29.4980174,40.8274763 C28.976954,37.9761411 28.7815552,35.3677611 28.0176391,32.92105 C27.6761565,31.8263974 26.8238457,30.5483996 26.814541,29.2812399 C27.3597966,28.6165004 28.2939888,28.5614065 29.1276902,28.1603951 C30.0302464,27.7232566 30.9625776,26.3982935 31.8111665,26.138178 C32.3527003,25.97109 34.9087022,26.6611185 35.4679148,26.7676936 C36.4244383,26.7514364 37.3800313,26.7360823 38.3365548,26.7216315 C38.6780374,26.6611185 39.0157981,26.6024119 39.3544893,26.5418989 C41.2777714,26.9203308 42.9461046,27.6112625 45.2769327,27.396306 C45.3867282,27.0955474 45.4955933,26.7965953 45.6025974,26.49674 L45.6025974,26.4073253 C46.1757671,26.5500275 46.8215134,26.6006055 47.5928733,26.5870578 C47.964131,25.6441393 48.3325972,24.7003176 48.7038549,23.757399 C48.7689878,23.383483 48.559632,22.9815685 48.7038549,22.54443" id="Fill-5" fill="#FFFFFF"></path>
                <g id="Group-9" transform="translate(38.000000, 1.000000)">
                    <mask id="mask-2" fill="white">
                        <use xlink:href="#path-1"></use>
                    </mask>
                    <g id="Clip-8"></g>
                    <path d="M9.55120833,8.1512375 L9.78404167,9.0647375 L9.72995833,9.0498625 L9.37520833,9.1644875 C9.36054167,8.9641125 9.31654167,8.7794875 9.19095833,8.7331125 C9.22395833,8.5423625 9.197375,8.3892375 9.12404167,8.2256125 L9.55120833,8.1512375 Z M8.190875,8.0838625 C8.089125,8.0672375 8.03320833,8.1048625 7.94795833,8.1118625 L7.932375,8.0899875 C7.932375,8.3813625 7.80954167,8.6797375 7.54829167,8.9824875 L7.693125,9.0577375 C7.610625,9.0673625 7.558375,9.0656125 7.50429167,9.1014875 C6.88095833,9.1356125 6.320875,9.3832375 5.78279167,9.8286125 C5.61779167,9.6063625 5.43720833,9.4182375 5.231875,9.2589875 L5.21170833,9.2292375 C4.459125,9.5722375 3.691875,9.8286125 2.86320833,10.0036125 C2.40579167,10.1217375 1.021625,11.1349875 0.584375,11.2811125 L0.712708333,13.8676125 C1.55695833,13.4231125 3.44345833,13.4449875 4.15295833,12.9357375 C4.879875,12.4448625 5.58020833,11.9749875 6.27045833,11.5453625 C6.29154167,11.5287375 6.32454167,11.5068625 6.35020833,11.4911125 C6.34379167,11.4176125 6.35020833,11.3738625 6.304375,11.3126125 C6.947875,11.1787375 7.640875,11.0536125 8.34854167,11.0098625 C8.47779167,11.0054875 8.60520833,11.0072375 8.716125,10.9739875 C9.24504167,11.0439875 9.51820833,10.7674875 9.59795833,10.1716125 C9.59795833,10.1716125 9.57229167,10.1374875 9.601625,10.1182375 C9.66120833,10.0788625 9.722625,10.0368625 9.805125,10.0316125 C9.86195833,9.9931125 9.91879167,9.9554875 9.97745833,9.9161125 L10.2579583,11.0116125 L11.906125,13.0188625 L21.9252917,9.1758625 L19.5474583,2.0507375 L18.145875,0.1099875 L8.97279167,4.0151125 L9.50354167,7.5028625 L8.190875,8.0838625 Z" id="Fill-7" fill="#FFFFFF" mask="url(#mask-2)"></path>
                </g>
                <path d="M13.22127,35.6863595 C13.1386833,35.2391255 13.0615504,34.8042007 13,34.3750201 L15.7791196,34 C15.8149591,34.4480546 15.8656019,34.8961093 15.931827,35.3564731 C15.8694975,35.3687823 15.8694975,35.3687823 15.807947,35.3819121 C15.853136,35.4401757 15.8889755,35.4713589 15.9006623,35.5312637 C15.9481885,35.6198899 15.990261,35.6773328 16.0019478,35.74052 C16.0806389,35.8225813 16.0970004,35.9144899 16.1086872,35.9752153 C16.153097,36.0654827 16.231009,36.1155401 16.3385275,36.1573913 C16.3673549,36.1516471 16.3915076,36.1459028 16.3977406,36.1787273 C16.4094273,36.2435557 16.4834437,36.2624298 16.5192832,36.2886894 C16.5917413,36.3371056 16.6018699,36.3970103 16.6135567,36.4610181 C16.6532918,36.5192816 16.6657577,36.5865719 16.6821192,36.6784805 C16.732762,36.7630037 16.7499026,36.8614772 16.7896377,36.9189201 C16.7958707,36.9517446 16.8348266,36.9739012 16.8098948,37.0387296 C16.8169069,37.0715541 16.823919,37.1051993 16.8021036,37.1454093 C16.8021036,37.1454093 16.7748344,37.1823369 16.75224,37.2192644 C16.77873,37.2126995 16.8130113,37.2061346 16.817686,37.2373179 C16.9072848,37.3809252 16.9664979,37.5015553 17,37.6902963 C16.9766264,37.7567659 16.9626023,37.8593425 16.9727308,37.9208885 C16.9633814,38.0259269 16.9142968,38.0997821 16.87612,38.2376451 C16.8013245,38.3820729 16.7249708,38.4665961 16.5418777,38.5035237 C16.4491624,38.5215771 16.4078691,38.462493 16.3946241,38.396844 C16.3564472,38.3730462 16.3307363,38.3779699 16.3245033,38.350069 L16.3206077,38.3188857 C16.2878847,38.4871114 16.2754188,38.6225125 16.2388002,38.757093 C16.2450331,38.7858145 16.2450331,38.7858145 16.2107519,38.7923794 C16.1577717,38.8399749 16.1001169,38.884288 16.1188157,38.9811204 L16.0588235,38.9926089 C15.9006623,39.0254335 15.7931437,38.9466546 15.709778,38.8014061 L15.6614725,38.7767878 C15.4955201,38.8769025 15.3069731,38.8834674 15.1893261,38.778429 C15.1589404,38.7833527 15.1207635,38.7234479 15.1207635,38.7234479 C15.0833658,38.6996501 15.0833658,38.6996501 15.0498637,38.706215 C15.0638878,38.6069209 15.0210362,38.5478367 14.9259836,38.5404512 L14.9197507,38.5068061 C14.784963,38.4690579 14.65485,38.4608518 14.5223997,38.4198211 C14.5169459,38.3935615 14.4795481,38.3656607 14.4795481,38.3656607 C14.4452668,38.3467866 14.4109856,38.3541721 14.4047526,38.3147827 C14.3712505,38.2885231 14.3361901,38.295088 14.3252824,38.2351832 C14.296455,38.2409275 14.2894429,38.2064618 14.2839891,38.1769197 C14.0868718,37.9553542 13.899104,37.7986172 13.7697702,37.6295709 C13.7354889,37.6057731 13.7354889,37.6057731 13.7300351,37.5770517 C13.7245812,37.5442272 13.7245812,37.5442272 13.7191274,37.5122233 L13.7066615,37.4465742 C13.684067,37.3185586 13.6887417,37.1921842 13.664589,37.0617068 L13.6591352,37.0297029 C13.6793923,36.961592 13.6684846,36.8984048 13.6614725,36.8688627 C13.6614725,36.7022783 13.7004285,36.5635947 13.7432801,36.4569151 C13.8032723,36.4150638 13.7970393,36.3838805 13.8204129,36.3436705 C13.8095053,36.2845863 13.8211921,36.1852922 13.8430074,36.1147195 C13.8733931,36.1089752 13.8913128,36.0392231 13.885859,36.0039367 C13.8741722,35.9423908 13.8920919,35.8775623 13.9349435,35.7626765 C13.9349435,35.7626765 13.924815,35.7027718 13.9520841,35.668306 L13.9466303,35.6330197 C13.7238021,35.6518938 13.5056486,35.6551762 13.22127,35.6863595" id="Fill-10" fill="#FFFFFF"></path>
                <path d="M17.2283221,8.2583477 L17.2283221,8.31889925 C17.2283221,8.99055569 17.2283221,9.68643276 17.2972495,10.3487736 C17.3900365,11.1135863 17.5535182,11.8150527 17.8734121,12.476462 C17.9122943,12.476462 17.9441069,12.5118613 17.9741522,12.5780023 C18.0501491,12.6804741 18.123495,12.8407028 18.1385176,13 L22.1159837,12.5938388 C22.1725395,12.0367645 22.2229095,11.461059 22.2538385,10.8834904 L22.2538385,10.8508857 C22.9006959,10.7465507 23.2250083,10.2518911 23.2541699,9.35107032 L23.2541699,9.08557505 L23.2541699,9.02316038 C23.5475533,8.72040262 23.8082404,8.45211266 24,8.12047647 L22.9006959,7.32492223 C22.9590191,6.22567867 22.8008395,5.36305195 22.4120181,4.73517893 C21.4443831,4.16319965 20.3406606,3.90143064 19.0115984,4.03371249 C18.4619463,4.73517893 17.9122943,5.56426941 17.4580802,6.52843643 L16,7.19077725 C16.258036,7.69009467 16.6468574,8.02359399 17.2283221,8.2583477" id="Fill-12" fill="#FFFFFF"></path>
                <g id="Group-16" transform="translate(19.000000, 0.000000)">
                    <mask id="mask-4" fill="white">
                        <use xlink:href="#path-3"></use>
                    </mask>
                    <g id="Clip-15"></g>
                    <path d="M1.1976125,1.1247 C2.7647375,0.6737 4.6074875,0.8817 6.0101125,1.6027 C4.4771125,1.8927 2.6579875,1.6867 1.1976125,1.1247 M6.0678625,0.8247 C4.4771125,-0.0003 2.2231125,-0.2243 0.5746125,0.6187 C0.5658625,1.0307 0.5089875,1.5447 0.9027375,1.7997 C2.4532375,2.5117 4.3301125,2.7077 6.0923625,2.4087 C6.4222375,2.3237 6.4694875,1.9307 6.4782375,1.6027 C6.4616125,1.2827 6.3137375,1.0017 6.0678625,0.8247" id="Fill-14" fill="#FFFFFF" mask="url(#mask-4)"></path>
                </g>
            </g>
        </g>
    </g>
</svg>