<?xml version="1.0" encoding="UTF-8"?>
<svg width="32px" height="58px" viewBox="0 0 32 58" version="1.1" xmlns="http://www.w3.org/2000/svg" xmlns:xlink="http://www.w3.org/1999/xlink">
    <!-- Generator: Sketch 51.3 (57544) - http://www.bohemiancoding.com/sketch -->
    <title>Devi_Home</title>
    <desc>Created with Sketch.</desc>
    <defs></defs>
    <g id="The-Corporation-App-(Mobile)" stroke="none" stroke-width="1" fill="none" fill-rule="evenodd">
        <g id="Landing_NU_Menu" transform="translate(-53.000000, -41.000000)">
            <g id="Devi_Home" transform="translate(53.000000, 41.000000)">
                <path d="M6.16419451,34.4152983 L5.45870567,34.1206782 L5.49213756,34.0924752 L5.57486249,33.7980565 C5.71238912,33.8885074 5.85437968,33.9489423 5.9404288,33.8885074 C6.05174179,34.0039381 6.16419451,34.0620563 6.30552023,34.0924752 L6.16419451,34.4152983 Z M16.4943633,7.44360614 L16.4943633,7.38921473 C16.7490915,7.12531568 16.9759915,6.89042537 17.1434359,6.60104294 L16.1861631,5.90573943 C16.2384004,4.94492528 16.100019,4.1913021 15.761806,3.64225105 C14.9214499,3.14225299 13.9635123,2.91380907 12.8088775,3.0295419 C12.3321881,3.64225105 11.8541691,4.36716765 11.4591599,5.20922723 L10.1925472,5.7892008 C10.4167878,6.22483569 10.7535761,6.51593045 11.2592334,6.72140911 L11.2592334,6.77499472 C11.2592334,7.36181758 11.2592334,7.96938975 11.3194488,8.54815463 C11.3999893,9.2165646 11.5425497,9.82927375 11.8197874,10.407535 C11.8541691,10.407535 11.8801928,10.4391626 11.907926,10.496475 C11.9936902,10.6140209 12.0777448,10.8172836 12.0476371,10.9920412 L12.0476371,11.0474398 C11.9936902,11.0760457 11.9638675,11.1371857 11.907926,11.1675038 C11.6806462,11.4005811 11.5119671,11.6276149 11.4282924,11.947114 C10.9494186,12.1532978 10.5292405,12.4164917 10.160445,12.6205602 C9.82346674,12.847594 9.42646306,13.0535763 9.00989412,13.2565368 C8.61184569,13.4579865 8.22016072,13.8964417 7.88033316,14.6235742 L7.88033316,14.649259 C7.71269883,15.2342689 7.57479229,15.9012687 7.48636874,16.6264875 C7.43242183,17.3827295 7.28919658,18.0832707 7.0100593,18.6891305 C6.8126022,19.2134033 6.58864654,19.8235943 6.36459589,20.4928101 C6.13361193,21.1027997 6.05174179,21.7704038 6.13361193,22.4656066 C6.08317917,22.4977378 6.05174179,22.5565611 6.02315373,22.5864764 C5.99912456,22.6434867 5.9404288,22.7035187 5.91108092,22.7566006 C5.8843924,23.0228164 5.82731124,23.3684033 5.74667581,23.8646745 C5.66005682,24.5296598 5.57486249,25.2608214 5.49213756,26.1000607 C5.4033341,26.9143202 5.38129945,27.6992688 5.4033341,28.452892 C5.4033341,29.1805281 5.4033341,29.8806664 5.38129945,30.5520982 L5.38129945,30.6324766 C5.43182719,30.6651114 5.45870567,30.6890839 5.5195859,30.6890839 C5.32165392,31.1853552 5.09646355,31.709225 4.81210254,32.2053955 C4.75796568,32.2919181 4.70088452,32.3771314 4.67267637,32.4674815 C4.39163955,32.7856713 4.45232983,33.1041632 4.81210254,33.4511602 C4.81210254,33.4511602 4.84448968,33.4511602 4.84448968,33.4800682 C4.84448968,33.5397981 4.84448968,33.6006359 4.81210254,33.6588548 L4.81210254,33.8298856 L3.96452817,33.4780537 L1.9092268,33.5898583 L0,42.1743334 L5.75636346,44.0972712 L7.65647247,44.1175168 L9.15036504,36.0664804 L6.61372045,34.703472 L6.8126022,33.5397981 C6.86854363,33.4800682 6.86854363,33.4253747 6.90074082,33.3647383 L6.92258552,33.3647383 C6.73082704,33.2214069 6.58864654,32.991855 6.50335723,32.6683268 L6.39128442,32.7273516 C6.41996746,32.6683268 6.44532631,32.6344833 6.44532631,32.5798904 C6.70062437,32.1461693 6.78448902,31.6510061 6.73082704,31.0718383 C6.94898911,31.0718383 7.15290464,31.0434339 7.34950695,30.9855171 L7.37818999,30.9855171 C7.48636874,30.3138839 7.65647247,29.6766987 7.90920616,29.0363909 C8.13762574,28.3679809 8.33261344,27.6992688 8.44820039,27.0334777 C8.49948795,26.6243334 8.61184569,26.2462124 8.69798979,25.8980066 C8.78137956,25.6079191 8.86828348,25.3175294 8.95053352,25.0554434 L8.98083117,25.0260318 C8.95053352,25.3175294 8.95053352,25.6079191 8.92099569,25.8980066 L8.81243703,25.8980066 C8.75630564,26.3905511 8.69798979,26.8583172 8.64556251,27.2629288 C8.64556251,27.2917361 8.64556251,27.3514659 8.67348574,27.4105914 C8.67348574,27.4403052 8.67348574,27.49933 8.69798979,27.525317 C8.69798979,27.5556352 8.69798979,27.6137534 8.67348574,27.6425607 C8.61184569,28.3111721 8.55922846,28.951077 8.47213459,29.5898739 C8.38883979,30.2878969 8.33261344,31.0073744 8.36158141,31.7672425 C8.36158141,32.0294292 8.38883979,32.2919181 8.38883979,32.4950801 C8.38883979,32.5235853 8.38883979,32.5798904 8.416858,32.5798904 C8.89782131,32.991855 9.36985679,33.2779135 9.85395434,33.4511602 L9.87978808,33.4511602 C9.87978808,33.6283352 9.85395434,33.7437659 9.82346674,33.8298856 L9.82346674,33.9489423 L10.6454923,36.9413763 C10.6976347,36.9413763 10.7247981,36.9413763 10.7247981,37.0302156 C10.8627996,37.1448405 10.9209255,37.3203031 10.8376307,37.5200405 C10.8627996,37.7803134 10.9494186,38.0729191 11.0100139,38.3947349 C11.1461159,38.9737012 11.3737756,39.5547828 11.5967815,40.052867 C11.8541691,40.5730101 12.163604,41.095369 12.5256562,41.6192389 C12.781999,42.0265701 12.9772716,42.4604927 13.1140384,42.9244312 L13.1140384,43.01458 C13.0923837,43.6798675 12.9505831,44.2953969 12.6685015,44.78915 C12.5547191,44.9601808 12.5256562,45.1377587 12.5256562,45.2828024 C12.5256562,45.3702316 12.5256562,45.4826405 12.5847318,45.5405572 C12.5547191,45.7488562 12.5256562,45.9481906 12.5256562,46.2124926 C12.4962133,46.9668208 12.4737038,47.7227607 12.4445458,48.5051912 C12.4167176,49.2609296 12.3886994,50.0451731 12.3886994,50.7994006 C12.3886994,51.5280441 12.3886994,52.1992743 12.3321881,52.8381719 C12.4962133,52.9852302 12.6948101,53.0666158 12.9189557,53.0976391 C12.6685015,53.5036609 12.5256562,53.9131073 12.4962133,54.3781539 L12.4962133,54.4654823 C12.4445458,54.4936852 12.4167176,54.5502926 12.3886994,54.6085115 C12.1047183,55.0744646 11.8801928,55.5658003 11.7640359,56.0584455 C11.7440908,56.1188804 11.7125584,56.181229 11.7125584,56.2078204 C11.3999893,56.6409372 11.2878215,57.0782844 11.4282924,57.4875294 C11.8541691,57.9800738 12.4737038,58.12129 13.2844271,57.895062 C14.0478519,57.71829 14.4944335,57.2840652 14.6117301,56.5585443 C14.7495416,55.8590103 14.945954,55.2175946 15.2885359,54.725856 C15.5935069,54.2054108 15.5431691,53.735328 15.1715243,53.3298098 C15.1475901,53.2998945 15.0879445,53.2699793 15.0879445,53.2432872 L15.3958598,53.2432872 C15.4845683,52.5177662 15.6248493,51.7921446 15.761806,51.0918048 C15.7920087,50.8585261 15.8502296,50.6262547 15.9079756,50.3359657 C16.4943633,50.3678955 16.8896574,50.0721674 17.1434359,49.4648974 C17.31183,48.9709428 17.3677714,48.3926815 17.31183,47.6908309 C17.2878958,47.521311 17.31183,47.4046717 17.3933202,47.2856149 C17.8171074,46.7024182 18.1008036,46.0938387 18.2372855,45.4562506 C18.2978808,45.0489194 18.1570299,44.78915 17.8171074,44.6399765 C17.8171074,44.6113707 17.847595,44.5273662 17.8731438,44.4951342 C17.7320081,44.4405414 17.6247791,44.3492847 17.5376852,44.2366743 C17.2878958,43.8577475 17.0309831,43.4767055 16.7774896,43.0428836 L16.7774896,43.01458 C16.833526,42.4346064 16.9196701,41.8508053 17.0583365,41.272544 C17.1724038,40.8062888 17.2587379,40.3108233 17.31183,39.8186818 C17.3394683,39.5847988 17.3933202,39.3534338 17.3933202,39.1189464 C17.4527758,38.3652225 17.5679829,37.6391979 17.7072191,36.9413763 C17.847595,36.2116249 17.9618523,35.5136018 18.0417279,34.8183991 C18.0739251,34.4152983 18.1008036,34.0386882 18.0739251,33.6588548 C18.2978808,33.6006359 18.5262054,33.5114944 18.7227127,33.3966681 C18.7227127,32.8421779 18.7782742,32.2919181 18.85758,31.7960498 C19.1110735,31.709225 19.3971441,31.6510061 19.6765663,31.6246161 C19.4774946,30.950767 19.3671314,30.2571759 19.2807023,29.5898739 C19.2247609,28.9186436 19.1746131,28.2818612 19.0869493,27.6698571 L19.3671314,27.6698571 C19.3671314,27.0636951 19.3092904,26.4791889 19.1993071,25.9568299 L19.1993071,25.8980066 L19.1746131,25.8980066 L19.1110735,25.8980066 C19.0030847,25.2301003 18.9735469,24.5886846 19.0869493,23.9498877 C19.1404214,23.7754323 19.1404214,23.6021856 19.1746131,23.4277302 C19.2807023,23.6610089 19.4774946,23.8391911 19.7616656,23.9498877 C19.7055343,24.184778 19.6765663,24.3874364 19.6765663,24.6193049 C19.6460787,25.3175294 19.7616656,25.9854358 19.933384,26.5963319 C20.1267571,27.2629288 20.2718819,27.9346627 20.3532771,28.5979357 C20.4688641,29.2981747 20.5220512,29.9690021 20.5504493,30.6890839 L20.6645166,30.6890839 C20.6338391,30.7493174 20.6069606,30.7836645 20.6069606,30.8379552 C20.5775177,30.9268952 20.5504493,30.9855171 20.5504493,31.0434339 C20.4946028,31.1306616 20.4946028,31.2155726 20.4946028,31.2719785 C20.4688641,31.3602135 20.4096934,31.4188353 20.3212699,31.4752412 C20.2941065,31.4752412 20.2718819,31.4752412 20.2718819,31.5051565 C20.2718819,31.5643827 20.209672,31.5938951 20.1820337,31.6246161 C20.1267571,31.6813242 20.1267571,31.7359171 20.1267571,31.7960498 C20.1014932,31.8551753 20.1014932,31.9170203 20.1014932,32.0018306 C20.0709106,32.0864395 20.0709106,32.1770918 20.0457417,32.2357137 C20.0457417,32.265629 20.0151591,32.2919181 20.0457417,32.3470146 C20.0457417,32.3771314 20.0457417,32.4067445 20.0709106,32.4389764 C20.0709106,32.4389764 20.1014932,32.4674815 20.1267571,32.4950801 C20.1014932,32.4950801 20.0709106,32.4950801 20.0709106,32.5235853 C20.0151591,32.6683268 19.9845766,32.7856713 19.9845766,32.959623 C20.0151591,33.0157268 20.0457417,33.1041632 20.0457417,33.1603676 C20.0709106,33.2517251 20.1267571,33.309944 20.1820337,33.4253747 C20.2718819,33.5397981 20.3532771,33.6006359 20.5220512,33.6006359 C20.6069606,33.6006359 20.6338391,33.5397981 20.6338391,33.4800682 C20.6645166,33.4511602 20.687786,33.4511602 20.687786,33.4253747 L20.687786,33.3966681 C20.7439173,33.5397981 20.7754497,33.6588548 20.8305363,33.7717674 C20.8305363,33.7980565 20.8305363,33.7980565 20.8615938,33.7980565 C20.9163955,33.8298856 20.9729068,33.8606067 20.9729068,33.9489423 L21.0280884,33.9489423 C21.1728333,33.9489423 21.2547984,33.8606067 21.305801,33.7155629 L21.3434119,33.6843382 C21.508007,33.7437659 21.6753564,33.7155629 21.7612155,33.6006359 C21.7888538,33.6006359 21.8144026,33.5397981 21.8144026,33.5397981 C21.8444154,33.5114944 21.8444154,33.5114944 21.8735733,33.5114944 C21.8444154,33.4253747 21.8735733,33.3647383 21.9563932,33.3402622 L21.9563932,33.309944 C22.0698907,33.2517251 22.1826283,33.2214069 22.2944162,33.1603676 C22.2944162,33.1360929 22.3229093,33.1041632 22.3229093,33.1041632 C22.3504526,33.0820037 22.3812251,33.0820037 22.3812251,33.0456421 C22.4068689,33.0157268 22.4372615,33.0157268 22.4372615,32.959623 C22.4648048,32.959623 22.4648048,32.928902 22.4648048,32.9005983 C22.6036612,32.6683268 22.7436572,32.4950801 22.8304661,32.3201211 C22.8564898,32.2919181 22.8564898,32.2919181 22.8564898,32.265629 L22.8564898,32.2053955 L22.8564898,32.1461693 C22.8564898,32.0294292 22.8304661,31.9170203 22.8304661,31.7960498 L22.8304661,31.7672425 C22.8017831,31.709225 22.8017831,31.6510061 22.8017831,31.6246161 C22.7748096,31.4752412 22.7182034,31.3602135 22.6634966,31.2719785 C22.6036612,31.2452864 22.6036612,31.2155726 22.5772576,31.1853552 C22.5772576,31.1306616 22.5511389,31.0434339 22.5211262,30.9855171 C22.4919683,30.9855171 22.4648048,30.9268952 22.4648048,30.8943611 C22.4648048,30.8379552 22.4372615,30.7836645 22.3812251,30.6890839 C22.3812251,30.6890839 22.3812251,30.6324766 22.3504526,30.6080004 L22.3504526,30.5743583 C22.5511389,30.5520982 22.7436572,30.515535 23,30.4912604 C23,29.7632213 23,29.0632844 22.9164203,28.3989035 C22.8564898,27.9932846 22.8304661,27.5556352 22.8017831,27.1157698 C22.7182034,26.3905511 22.6036612,25.6939381 22.4648048,25.0260318 C22.3812251,24.6193049 22.3229093,24.2110672 22.2944162,23.7450134 L22.2944162,23.3684033 L22.2944162,23.2836937 C22.2944162,22.8454399 22.2944162,22.4115174 22.3229093,21.9794078 L22.3229093,21.8885541 C22.1534704,21.3056595 21.9026362,20.7536874 21.5898771,20.317851 L21.5898771,20.2019168 C21.5898771,19.4498045 21.5640434,18.7173335 21.5371649,17.9939278 C21.4782792,17.2399017 21.367536,16.5452025 21.1728333,15.9254426 C20.9729068,15.3805213 20.7754497,14.8871711 20.5504493,14.4791348 C20.5504493,14.4154767 20.5220512,14.3907991 20.4946028,14.360481 L20.4946028,14.1574197 C20.4387564,13.8128401 20.3532771,13.5487396 20.2718819,13.31395 L20.209672,13.31395 C19.933384,13.1950947 19.6210998,13.0841966 19.2807023,12.9949544 C18.6069358,12.7923968 18.0145645,12.5578087 17.4527758,12.3023705 C17.3933202,12.2705415 17.3677714,12.2377052 17.31183,12.2074877 C16.833526,11.9802525 16.3281536,11.6276149 15.8772031,11.2513069 C15.8212616,10.9920412 15.7092838,10.8172836 15.4845683,10.7297537 C15.5431691,10.1769759 15.5935069,9.59478634 15.6248493,9.01561857 L15.6248493,8.98660982 C16.1861631,8.89615892 16.4692894,8.46394867 16.4943633,7.6766834 L16.4943633,7.44360614 Z" id="Fill-1" fill="#FFFFFF"></path>
                <path d="M13.5334656,1.26790331 C14.8581126,0.718947107 16.4186673,0.970511405 17.6045401,1.85112574 C16.3075973,2.20576733 14.7679897,1.95420303 13.5334656,1.26790331 M17.6531068,0.901839645 C16.3075973,-0.104696133 14.4004029,-0.379104587 13.006411,0.650275347 C12.999485,1.15354324 12.9509182,1.78259327 13.2837904,2.09140725 C14.5945853,2.96059951 16.1827596,3.20088103 17.6739694,2.83495666 C17.9514333,2.73201866 17.9929895,2.25159493 18,1.85112574 C17.9860635,1.46235722 17.8612258,1.11913771 17.6531068,0.901839645" id="Fill-3" fill="#FFFFFF"></path>
                <path d="M30.9558639,49.0455709 C30.7874239,48.8410383 30.5279736,48.8358829 30.315069,48.8997311 C29.9744653,49.781115 28.8958139,50.3829147 28.415245,50.6782625 L29.1191228,50.8026874 C29.3935771,50.7714572 29.7520324,50.3666552 29.961323,50.2913063 L29.9953834,50.3309636 C29.5156907,51.7328497 28.3377057,52.2709994 26.8621579,52.1744339 C25.6232803,52.0516945 24.4068542,51.4920306 23.8235567,50.2955695 C22.6799606,47.6335722 23.164034,44.7769568 22.6163301,41.952662 C22.2037725,39.2971091 20.7084018,36.7148231 18,36 L18.1032763,36.8078195 C18.5489086,36.9529653 18.9838081,37.1337035 19.4118078,37.3741259 C24.576718,40.3013314 21.6124801,47.0696452 24.1832167,51.468038 C24.8539102,52.5155859 25.9626793,52.9512215 27.1968475,52.9903831 L27.2018854,53 C27.2724156,52.9988103 27.3433838,52.9966291 27.4146806,52.9931591 C27.5085383,52.9927625 27.6034911,52.9900857 27.6987725,52.9853268 L27.7020581,52.9725373 C28.7822428,52.8693291 29.5633314,52.2723874 29.9667989,51.3142667 C30.0599995,51.0627402 30.2174876,50.9343496 30.2827609,50.6672576 C30.3507721,50.9458503 30.4228355,51.7115339 30.5414445,51.9609784 C30.6714434,52.1106847 30.8506163,52.0459442 31,52.0866921 C30.7758149,51.1485983 30.7740626,50.128513 30.9558639,49.0455709" id="Fill-5" fill="#FFFFFF"></path>
                <path d="M30.9558639,49.0484605 C30.7874239,48.8438826 30.5279736,48.838726 30.315069,48.9025884 C29.9744653,49.7841674 28.8958139,50.3861005 28.415245,50.6815138 L29.1191228,50.8059661 C29.3935771,50.7747291 29.7520324,50.3698374 29.961323,50.2944718 L29.9953834,50.3341379 C29.5156907,51.7363345 28.3377057,52.2746034 26.8621579,52.1780165 C25.6232803,52.0552499 24.4068542,51.4954621 23.8235567,50.2987359 C22.6799606,47.6361491 23.164034,44.7789008 22.6163301,41.9539805 C22.2037725,39.2978394 20.7084018,36.7149814 18,36 L18.1032763,36.8079984 C18.5489086,36.9531763 18.9838081,37.1339546 19.4118078,37.3744303 C24.576718,40.3022842 21.6124801,47.0720972 24.1832167,51.4714641 C24.8539102,52.5192441 25.9626793,52.9549762 27.1968475,52.9941464 C27.2724156,53.0025755 27.3433838,53.0003939 27.4146806,52.9969231 C27.5085383,52.9965264 27.6034911,52.9938489 27.6987725,52.989089 C28.7822428,52.8730657 29.5633314,52.2759917 29.9667989,51.3176588 C30.0599995,51.0660766 30.2174876,50.9376576 30.2827609,50.6705064 C30.3507721,50.9491608 30.4228355,51.7150139 30.5414445,51.9645137 C30.6714434,52.1142532 30.8506163,52.0494983 31,52.0902552 C30.7758149,51.1519537 30.7740626,50.1316425 30.9558639,49.0484605 Z" id="Stroke-7" stroke="#FFFFFF" stroke-width="1.277" stroke-linecap="round" stroke-linejoin="round"></path>
            </g>
        </g>
    </g>
</svg>