<?xml version="1.0" encoding="UTF-8"?>
<svg width="60px" height="58px" viewBox="0 0 60 58" version="1.1" xmlns="http://www.w3.org/2000/svg" xmlns:xlink="http://www.w3.org/1999/xlink">
    <!-- Generator: Sketch 51.3 (57544) - http://www.bohemiancoding.com/sketch -->
    <title>Devi_Account Settings</title>
    <desc>Created with Sketch.</desc>
    <defs>
        <polygon id="path-1" points="0.419154106 0.111735294 49.3514808 0.111735294 49.3514808 57.9999563 0.419154106 57.9999563"></polygon>
        <polygon id="path-3" points="0.000250650665 0.000108202384 3.416 0.000108202384 3.416 6.0806652 0.000250650665 6.0806652"></polygon>
    </defs>
    <g id="The-Corporation-App-(Mobile)" stroke="none" stroke-width="1" fill="none" fill-rule="evenodd">
        <g id="Returning-User-(After-Sign-In)_Menu" transform="translate(-46.000000, -247.000000)">
            <g id="Devi_Account-Settings" transform="translate(46.000000, 247.000000)">
                <path d="M45.1417083,49.8890549 C44.9487068,49.7477027 44.9513149,49.5356743 45.0165181,49.3639148 C45.8650293,49.1058648 46.4648989,48.2421367 46.7587481,47.8550616 L46.8604651,48.4336197 C46.8248207,48.6579753 46.4292545,48.9390362 46.3536188,49.109152 L46.391002,49.1379156 C47.7376657,48.779604 48.2784177,47.8328726 48.2210389,46.6256257 C48.1323625,45.6098618 47.6263856,44.6031378 46.499674,44.099365 C43.9880461,43.1025028 41.2521191,43.4271199 38.5709628,42.9134852 C36.0471637,42.5099739 33.6198652,41.2279417 33,39 L33.769398,39.1027269 C33.8963269,39.4700784 34.0597696,39.8300336 34.2788524,40.1858797 C36.9495762,44.4700037 43.4733754,42.2165857 47.6098674,44.4206948 C48.5931319,44.9951438 48.9826125,45.9081808 48.9913062,46.918192 L49,46.9231229 C48.9973919,46.9790064 48.9947837,47.0365334 48.9886981,47.096526 C48.9852206,47.1729548 48.9817431,47.2502055 48.9739187,47.3274561 L48.9634862,47.3307434 C48.8391654,48.2100859 48.2514671,48.8313784 47.3281895,49.1379156 C47.0856336,49.2085917 46.959574,49.3335077 46.7048468,49.3803511 C46.9673984,49.4428091 47.6959357,49.5200598 47.9315366,49.6227867 C48.0723756,49.7337318 48.0054336,49.8775495 48.0393393,50 C47.1525755,49.7945461 46.1780048,49.7690699 45.1417083,49.8890549" id="Fill-1" fill="#FFFFFF"></path>
                <path d="M45.1417083,49.8890549 C44.9487068,49.7477027 44.9513149,49.5356743 45.0165181,49.3639148 C45.8650293,49.1058648 46.4648989,48.2421367 46.7587481,47.8550616 L46.8604651,48.4336197 C46.8248207,48.6579753 46.4292545,48.9390362 46.3536188,49.109152 L46.391002,49.1379156 C47.7376657,48.779604 48.2784177,47.8328726 48.2210389,46.6256257 C48.1323625,45.6098618 47.6263856,44.6031378 46.499674,44.099365 C43.9880461,43.1025028 41.2521191,43.4271199 38.5709628,42.9134852 C36.0471637,42.5099739 33.6198652,41.2279417 33,39 L33.769398,39.1027269 C33.8963269,39.4700784 34.0597696,39.8300336 34.2788524,40.1858797 C36.9495762,44.4700037 43.4733754,42.2165857 47.6098674,44.4206948 C48.5931319,44.9951438 48.9826125,45.9081808 48.9913062,46.918192 C48.9973919,46.9790064 48.9947837,47.0365334 48.9886981,47.096526 C48.9852206,47.1729548 48.9817431,47.2502055 48.9739187,47.3274561 C48.8391654,48.2100859 48.2514671,48.8313784 47.3281895,49.1379156 C47.0856336,49.2085917 46.959574,49.3335077 46.7048468,49.3803511 C46.9673984,49.4428091 47.6959357,49.5200598 47.9315366,49.6227867 C48.0723756,49.7337318 48.0054336,49.8775495 48.0393393,50 C47.1525755,49.7945461 46.1780048,49.7690699 45.1417083,49.8890549 Z" id="Stroke-3" stroke="#FFFFFF" stroke-width="0.3" stroke-linecap="round" stroke-linejoin="round"></path>
                <g id="Group-7" transform="translate(10.000000, 0.000000)">
                    <mask id="mask-2" fill="white">
                        <use xlink:href="#path-1"></use>
                    </mask>
                    <g id="Clip-6"></g>
                    <path d="M2.67025424,29.4764529 C2.6770339,28.7454824 2.93805085,28.7497471 3.13042373,28.3207176 C3.84737288,26.7163353 4.42279661,26.1175706 6.23042373,26.9346882 C6.51855932,27.0293647 6.80584746,27.1274529 7.09228814,27.2221294 C7.50669492,27.5658647 7.82364407,28.2968353 8.41347458,28.4350118 C9.15669492,28.6098647 9.99737288,27.8908353 10.9405932,28.2055706 C11.1380508,28.2703941 12.7668644,29.8048353 13.5261864,28.8998647 C14.2761864,27.0012176 13.1558475,25.7900412 12.6634746,24.2752176 C12.2211017,22.9130706 11.9990678,21.1798941 11.7448305,19.8808647 C11.6677119,19.4893647 11.8134746,19.0808059 11.8592373,18.8411294 L11.8592373,16.4128059 C12.0405932,15.4796882 12.3126271,14.3614824 12.5482203,13.5221882 C13.1482203,11.3915412 13.1227966,8.76789412 13.6973729,6.70207059 C13.775339,5.93101176 13.8507627,5.1591 13.9278814,4.38804118 C13.8033051,3.48477647 12.9609322,1.73624706 13.4117797,0.574541176 C13.5448305,0.418452941 13.6787288,0.266629412 13.8126271,0.111394118 C16.2016102,0.130158824 15.6236441,2.45698235 16.5685593,3.9266 C17.0041525,4.60127647 17.9888983,5.01239412 18.1778814,5.89262941 C18.3109322,6.51357059 18.0024576,6.98183529 17.9473729,7.39465882 C17.9855085,7.74180588 18.0244915,8.0881 18.0634746,8.4361 C17.795678,9.16707059 17.5270339,9.9006 17.2592373,10.6315706 C17.1821186,11.2866294 17.105,11.9425412 17.0287288,12.5976 C16.7660169,14.0117765 17.2058475,15.7244824 17.4880508,16.7608059 C18.0278814,18.7379235 17.8287288,20.5674824 18.4651695,22.3083353 C18.8482203,23.0026294 19.2304237,23.6977765 19.614322,24.3903647 C20.3804237,25.9913353 20.7931356,28.1356294 21.9109322,29.4201588 C23.5439831,31.2957765 27.6558475,33.0784235 30.2388983,33.9876588 C30.8905932,34.0243353 31.5405932,34.0627176 32.1922881,34.1011 C33.4499153,34.3825706 35.8448305,34.4772471 37.1321186,34.9105412 C39.3634746,35.6602765 42.1609322,34.4755412 44.2524576,34.8525412 C44.4465254,35.3753941 44.6016102,36.7699529 45.0583898,37.0497176 C46.0227966,37.4412176 46.1702542,37.9956294 46.8948305,38.4937471 C47.8795763,39.1735412 50.2880508,40.0861882 48.9626271,41.9055118 C48.9244915,41.9259824 48.8863559,41.9421882 48.8473729,41.9626588 C47.5058475,41.9191588 46.1744915,41.2223059 45.2872034,40.6329235 C45.0583898,40.4231 44.8261864,40.2098647 44.5973729,39.9966294 L41.1516102,39.9966294 C39.2397458,39.6230412 37.0592373,39.6938353 35.064322,39.3031882 L32.5372034,39.3031882 C31.6287288,39.0473059 30.3804237,38.7956882 29.4355085,38.6106 L27.3668644,38.6106 C25.3117797,38.0288941 23.3405932,37.4625412 20.8194068,37.4548647 C20.8558475,38.0928647 21.1321186,38.2421294 21.2795763,38.6106 L21.2795763,40.5766294 C20.0787288,40.4077471 18.2219492,40.5297176 16.9151695,40.4597765 C16.055,40.4145706 14.2431356,40.0102765 13.2388983,40.3446294 C12.9321186,40.6329235 12.6261864,40.9229235 12.3202542,41.2112176 C10.6236441,42.4889235 9.82110169,43.0117765 9.21771186,45.4307176 C8.90076271,46.7033059 9.24483051,48.6377765 9.44737288,49.7090706 C9.74822034,51.2963941 9.20330508,52.8538647 8.98805085,53.8722765 C8.69483051,55.2608647 9.14059322,56.9667471 8.06940678,57.5117765 C7.46347458,57.8213941 6.66432203,57.5237176 5.88805085,57.6866294 C5.405,57.7864235 5.13466102,58.0849529 4.50754237,57.9766294 C4.35838983,57.6081588 4.31347458,57.5382176 3.76177966,57.5714824 C3.35584746,57.7130706 2.57788136,57.7267176 2.09567797,57.6303353 C2.05754237,57.4571882 2.01940678,57.2823353 1.98211864,57.1074824 C3.30245763,56.9189824 5.35330508,56.4490118 6.11601695,55.6046 C6.03805085,53.8688647 5.73127119,52.6406294 5.31177966,51.0968059 C5.14567797,50.4818353 5.29059322,49.5086294 5.19737288,49.0156294 C4.89652542,47.4035706 5.88211864,45.1526588 5.08381356,43.9295412 C3.06262712,43.1201 3.46601695,39.4021294 1.23550847,38.7837471 C1.06347458,38.9586 0.888898305,39.1317471 0.717711864,39.3031882 C0.621949153,39.2656588 0.526186441,39.2289824 0.430423729,39.1888941 C0.331271186,37.9922176 0.929576271,36.2419824 0.544830508,35.2568353 L2.67025424,29.4764529 Z" id="Fill-5" fill="#FFFFFF" mask="url(#mask-2)"></path>
                </g>
                <path d="M33.2037628,18.4435856 C33.1141271,18.2878403 33.0044756,18.1744924 32.8321661,18.0853715 C32.8661058,17.9616405 32.7425304,17.8162783 32.5858854,17.68476 L32.8852513,17.4805607 L32.9035266,17.4295108 L33.5118313,18.1580526 L33.2037628,18.4435856 Z M34.0122249,18.5820258 L36.5376901,21.0886594 L45,16.3583295 L44.2324396,14.1138671 L39.8141809,8 L30.9150056,13.4173396 L31.5964113,15.8954199 L32.3230699,16.7701892 C32.2578012,16.7926857 32.1951432,16.810856 32.1324852,16.8350831 C32.0785297,16.8921897 32.0115205,16.9155515 31.943641,16.938048 C31.9114417,16.9475658 31.8975177,16.9094947 31.8975177,16.9094947 C31.3675355,16.6118482 30.9846256,16.655976 30.7374746,17.1050415 C30.6469686,17.1725311 30.5738676,17.2711698 30.4972856,17.3672127 C30.0517177,17.8854984 29.5521943,18.3458122 29.0709461,18.7628634 C29.0474493,18.6919128 29.0100286,18.668551 28.9534624,18.6209622 C28.9264846,18.6296147 28.8873234,18.6417282 28.8638266,18.6495155 C28.1171522,18.9238002 27.3304463,19.1807799 26.5115412,19.4472773 C25.6882848,19.6886825 24.8476234,19.993251 24,20.3748269 L27.0554473,23 C27.4253036,22.7516728 27.7908085,22.4843101 28.151092,22.2022381 C28.7707099,21.6666474 29.4207865,21.2322912 30.1335212,20.856772 L30.1222079,20.8230272 C30.1100244,20.567778 30.0621607,20.3159898 29.9768762,20.0572796 C30.6478389,19.9084564 31.1717293,19.6281149 31.5589905,19.1652054 C31.6207783,19.1453046 31.6486262,19.1029072 31.703452,19.0466659 L31.6816957,19.2024112 C32.0785297,19.1833756 32.3926899,19.2681703 32.6285276,19.4420858 L32.6198251,19.4169935 C32.6746509,19.3564259 32.7373089,19.3356599 32.7816916,19.2482695 L34.0122249,18.5820258 Z" id="Fill-8" fill="#FFFFFF"></path>
                <path d="M25.9580219,19 L24.5692927,20.0600288 L20.4013801,22.3324867 L19.1661875,23.0894082 L15,26.4235882 L15.307073,27.9382779 L18.7047154,29 L21.0353652,27.6504106 C21.0353652,27.6504106 20.8645773,27.0298027 21.3277746,26.5751418 C21.7909718,26.1204809 25.0324899,24.6057912 25.0324899,24.6057912 L27,22.3765134 L25.9580219,19 Z" id="Fill-10" fill="#FFFFFF"></path>
                <path d="M7.50486787,33.148605 C7.53258494,33.1582891 7.53258494,33.1582891 7.5629843,33.1647452 C8.19958275,33.3269541 8.86032188,33.4956191 9.50764951,33.5932672 C10.2595867,33.6941434 10.9721836,33.7159327 11.6892509,33.5868112 C11.7008742,33.5504957 11.7428969,33.5335485 11.8144248,33.5206364 C11.9342341,33.4762509 12.1059011,33.4496196 12.2614743,33.4746368 L13,29.7833756 C12.4858931,29.5993774 11.9547983,29.4145723 11.4147626,29.2459073 L11.3834691,29.2378372 C11.4675144,28.6293521 11.0910987,28.2169703 10.2434929,27.9740604 C10.1835883,27.9579202 10.0914961,27.9329029 9.99046294,27.9078856 C9.96185178,27.8998155 9.93234651,27.8933595 9.93234651,27.8933595 C9.72759785,27.5544155 9.54698987,27.253401 9.28591297,27 L8.22104113,27.8021674 C7.19372144,27.4825917 6.33181005,27.4172239 5.62368369,27.6173622 C4.80737135,28.3541619 4.24945361,29.2854508 4,30.5177542 C4.5087423,31.18273 5.14087026,31.8799862 5.92767733,32.5231727 L6.14494337,34 C6.69123783,33.8878257 7.11682893,33.6182845 7.50486787,33.148605" id="Fill-12" fill="#FFFFFF"></path>
                <g id="Group-3" transform="translate(0.000000, 25.000000)">
                    <mask id="mask-4" fill="white">
                        <use xlink:href="#path-3"></use>
                    </mask>
                    <g id="Clip-2"></g>
                    <path d="M0.6988,5.40049 C0.7828,3.64249 1.5528,1.77549 2.6538,0.51149 C2.4348,2.19149 1.6728,4.03349 0.6988,5.40049 M2.8018,0.02549 C2.5068,-0.04451 2.2028,0.03149 1.9618,0.23849 C0.7078,1.66849 -0.2092,3.95949 0.0418,5.91049 C0.4128,6.03149 0.8658,6.23249 1.2198,5.89249 C2.3598,4.47449 3.1318,2.57049 3.4148,0.64849 C3.4418,0.28349 3.0978,0.12549 2.8018,0.02549" id="Fill-1" fill="#FFFFFF" mask="url(#mask-4)"></path>
                </g>
            </g>
        </g>
    </g>
</svg>