<svg id="Layer_1" data-name="Layer 1" xmlns="http://www.w3.org/2000/svg" viewBox="0 0 625.51 259.86"><defs><style>.cls-1{fill:#e6e6e6;}</style></defs><path class="cls-1" d="M299.22,122.37c-4,3.52-17.42,15-38.35,15-30.85,0-55.3-24.94-55.3-58s25.41-58,55.3-58c18.7,0,30.36,8.47,35.48,12.94l-1.76,3.84a50.68,50.68,0,0,0-33.72-12.63c-27.17,0-51,22.54-51,53.86s23.34,53.86,51,53.86c18.86,0,32.28-10.87,36.28-14.54Z" transform="translate(-205.57 -21.37)"/><path class="cls-1" d="M316.16,79.38c0-33.24,25.09-58,55.94-58S428,46.14,428,79.38c0,33.56-25.25,58-55.93,58S316.16,112.94,316.16,79.38Zm4.31,0c0,31.33,22.54,53.86,51.63,53.86s51.62-22.53,51.62-53.86c0-30.84-22.54-53.86-51.62-53.86S320.47,48.54,320.47,79.38Z" transform="translate(-205.57 -21.37)"/><path class="cls-1" d="M502.82,124.29l-46-94.45V135.32h-4V23.44h4.95l47.79,96.86,47.79-96.86h4.95V135.32h-4V29.84l-46,94.45Z" transform="translate(-205.57 -21.37)"/><path class="cls-1" d="M590.24,23.44h4.15V135.32h-4.15Z" transform="translate(-205.57 -21.37)"/><path class="cls-1" d="M626.36,23.44h3.83l74.64,104.69V23.44h4V135.32h-4L630.35,30.16V135.32h-4Z" transform="translate(-205.57 -21.37)"/><path class="cls-1" d="M827.25,35.59l-2.72,3.2c-6.23-5.92-17.42-13.27-35.48-13.27-29.25,0-51.14,22.86-51.14,53.86s22.05,53.86,51.14,53.86c21.1,0,34.2-11.19,38-15.5V86.89H798.48v-4h32.6v36.6c-11.19,12.14-24.61,17.9-42,17.9-32.44,0-55.46-25.42-55.46-58,0-33.4,24.13-58,55.46-58C809.51,21.37,821.49,30.32,827.25,35.59Z" transform="translate(-205.57 -21.37)"/><path class="cls-1" d="M305.69,256.94c3,9.43,10.55,20.13,28.93,20.13,14.86,0,26.37-9.75,26.37-24.61,0-35-55.94-26.21-55.94-61.21,0-13.58,10.23-26.05,28.93-26.05,17.9,0,25.73,11.67,28.93,18.54l-3.84,1.6c-2.87-6.24-9.91-16-25.09-16-15.82,0-24.77,9.59-24.77,21.9,0,31.17,56.1,22.85,56.1,61.05,0,15.82-12,28.93-30.69,28.93-20.14,0-29.09-11-33.08-23.18Z" transform="translate(-205.57 -21.37)"/><path class="cls-1" d="M383.52,223.21c0-33.24,25.09-58,55.94-58s55.93,24.77,55.93,58c0,33.57-25.25,58-55.93,58S383.52,256.78,383.52,223.21Zm4.32,0c0,31.33,22.53,53.86,51.62,53.86s51.62-22.53,51.62-53.86c0-30.84-22.54-53.86-51.62-53.86S387.84,192.37,387.84,223.21Z" transform="translate(-205.57 -21.37)"/><path class="cls-1" d="M513,223.21c0-33.24,25.09-58,55.94-58s55.93,24.77,55.93,58c0,33.57-25.25,58-55.93,58S513,256.78,513,223.21Zm4.31,0c0,31.33,22.54,53.86,51.63,53.86s51.62-22.53,51.62-53.86c0-30.84-22.54-53.86-51.62-53.86S517.28,192.37,517.28,223.21Z" transform="translate(-205.57 -21.37)"/><path class="cls-1" d="M649.61,167.28h3.84L728.08,272V167.28h4V279.15h-4L653.6,174V279.15h-4Z" transform="translate(-205.57 -21.37)"/></svg>