<?xml version="1.0" encoding="utf-8"?>
<!-- Generator: Adobe Illustrator 24.1.2, SVG Export Plug-In . SVG Version: 6.00 Build 0)  -->
<svg version="1.1" id="Layer_1" xmlns="http://www.w3.org/2000/svg" xmlns:xlink="http://www.w3.org/1999/xlink" x="0px" y="0px"
	 viewBox="0 0 701.9 977.8" style="enable-background:new 0 0 701.9 977.8;" xml:space="preserve">
<style type="text/css">
	.st0{fill:none;}
	.st1{fill:#8D0000;}
	.st2{fill:#DD1C24;}
	.st3{fill:#AE272D;}
	.st4{fill:#ED1C24;}
	.st5{fill:#88272D;}
	.st6{fill:#007DB9;}
	.st7{fill:#E6E6E6;}
	.st8{fill:#310C23;}
	.st9{fill:#730E03;}
	.st10{fill:#C1272D;}
</style>
<path class="st0" d="M450.4,334.8c3.6-1.2,7.7-1.6,10.4-2.3l2.3-0.6c0-0.1-0.1-0.2-0.2-0.3c-0.5-1.2-0.8-2.6-1-3.9
	c-2-2.1-3.5-4.7-4.3-7.6c-0.9-4.2-1.2-8.5-0.7-12.8c0-0.2,0-0.5,0.1-0.7c-0.9-1.1-1.7-2.3-2.3-3.6l2.5,27.6L450.4,334.8z"/>
<path class="st0" d="M386.9,315c1.3-1.6,2-3.6,2.1-5.6c0-2,0.2-5.7,0.5-9.6c-0.9,2.1-1.7,3.8-2.3,4.9c-1.3,2.8-2.1,5.8-2.4,8.9
	c0.7,0.3,1.3,0.7,1.8,1.2C386.7,314.9,386.7,314.9,386.9,315z"/>
<path class="st0" d="M226.7,220.4c-1.4-1.3-2.9-2.3-4.6-3.1c0.7,1.6,1.5,3.2,2.2,4.9l2.9-1.2C227.1,220.8,226.9,220.6,226.7,220.4z"
	/>
<path class="st1" d="M592.2,434.6c-0.2,0-0.4-0.1-0.6-0.2c0,0,1.2,5.3-1.8,9.4s2.3,19.5,3.5,26.5c0.5,2,1.2,3.9,2.1,5.8
	c1.6-6.4,3.2-12.9,4.6-18.8c-2.4-8.6-5-17-5-17L592.2,434.6z"/>
<path class="st1" d="M464.5,271.7l-3.1-4.2c0-3.2,0.1-6.5,0.4-9.7c0.4-2.2,0.4-4.9-5.8-6.2c-1.9-0.6-4-0.5-5.9,0.1l-4.5-50.8
	c-2.1,0.8-4.2,1.4-6.3,1.9c-2.5,0.4-5,0.6-7.5,0.6l-2-19.3l-7.5,0.6c3.5-1,6.2-3.2,7.4-3.4c0.4-0.1,2.5-0.1,5.2-0.2
	c4.4-0.5,9.9-1.2,11-1.4c0.9-0.1,1.7-0.4,2.5-0.9c0,0,0.7-1.9,2.2,1c2.8-0.5,5.1-1.1,6.2-2c4.2-3.3,7-13.6,8.8-15.6s1.8-0.9,2.2,0.2
	s-1.3,6.8-1.3,6.8s3.5-3.7,6.4-7.3c1.9-2.3,4.2-4.1,6.8-5.5c0,0,2,1.5-0.2,4c-1.8,2.2-3.5,4.5-5.1,6.8c1.9-1.3,6.9-4.9,7.9-5.6
	c1.3-0.9,3.4-0.4,2.5,1.2s-8.6,8.8-8.6,8.8c0.9-0.3,1.7-0.7,2.5-1.1c0.4-0.4,3.4-1.9,4.6-2.7s3-0.9,2.9,0.6s-7,6.2-7,6.2l-1,1
	c0,0-0.9,1.5,1.3,0.8s6-2.3,6.1-1.4c0.2,1.6-1,3.4-5.6,5.4l-0.1,0.1l-35.8,2.6v0.1l78-5.8L509.7-0.1L329.9,15.2l16.5,175.1l83.4-6.1
	l7,66.3c-2.1,1.9-6.5,5.9-6.8,6.9c-0.4,1.3,1.3,3.5,1.3,3.5l-1.8,4.9c0,0,2.2,2.6,2.2,4c0.1,1.3,0.2,2.7,0.4,4l1.8,4l6.2,4.5
	l5.3,50.8l2.6,2.6c0.8-0.3,1.5-0.6,2.3-0.9l6.8-4.1l-2.5-27.7c-0.9-1.7-1.2-3.7-1-5.6c1.4-9.1,8.2-16,14.9-21.7
	c0.2-0.1,0.3-0.2,0.5-0.3c0.2-0.8,0.5-1.5,1-2.1l-2.1-0.9C468,272.3,465.8,271,464.5,271.7z M424.8,110.9c-0.5,0.1-1.5,0.4-2,0.5
	c-1.9-6.3,2.8-5.5,7.7-6.3c-0.2,0.3,1,5.4-0.2,4.8c-2.9,25.4,13.7,22.3,6.5-1.1c-2.8,1.6-2.6-3.5-1.9-4.6c4.7,0.2,8.2-2.8,7.5,4
	c-0.3,0-0.6,0.1-0.9,0.1C451.1,137.7,419.3,144.1,424.8,110.9z M437.6,95c0.2-0.9-1.5-5.8,1-4.8c1.8-6.3-5-20.1,1.5-21.9h-0.3
	c9.4-4.5,25,4.8,10.9,13.5c2.7,1.9,3,4,4.3,7c0.5-0.1,1.4,0.2,1.9-0.1c-0.5,1,1.5,4-0.1,4.3c-2-0.5-3.9,0.8-5.9,0.9
	c0.5-0.2-1.3-5.2,0.2-4.6c-1.3-2.2-2.8-4.2-4.4-6.1c-1.1,0.3-2.3,0.5-3.5,0.5c-0.1,2.1-0.3,4.1-0.5,6.2c2.3-1.2,1.2,3.9,1.7,4.7
	C442.6,94.6,439.5,94.8,437.6,95z M460.6,126.7c0.8-3-3.4-8-3.4-10.6c-0.8,0.2-1.6,0.3-2.4,0.4c0.3,2.3,0.5,4.6,0.6,7
	c2.4-1.4,1.4,3.2,1.8,4.2c-4.8,0.3-10.1,3.1-9.2-3.8c0.7,0,1.3,0,2-0.1c-0.5-5.9-1.5-11.7-2.2-17.7c-2.9,1.2-2-2.7-2.3-4.3
	c2.8-0.2,5.6-0.2,8.4,0c5.8-0.8,10.9-1.6,11.5,7.4c-0.4,2.6-2.1,4.8-4.6,5.7c1.5,2.2,2.9,4.5,4.1,6.9c1.6-0.4,2.6-0.1,3.6-0.4
	C470.5,128.1,465.8,126.8,460.6,126.7L460.6,126.7z M488.2,103c-0.2-0.4-0.4-0.9-0.5-1.3c-3.1,0.7-6,1.1-8.7,1.5
	c0.2,1.1,0.5,4,0.7,5.1c2.5-0.5,5-0.7,7.5-0.5c-0.8-1.6,1.8-2,2.6-2.2c-0.3,3,2.7,7.9-1.8,8c-0.1-0.4-0.1-0.8-0.2-1.3
	c-2.4,0.2-4.8,0.8-7.1,1.6c0.2,1.8,0.4,3.7,0.4,5.6c3.4-0.1,6.7-0.2,10.1-0.4c-0.7-1.6,2-1.7,2.7-2.1c-0.7,3.1,3.1,8-1.8,8.2
	c0-0.5-0.1-1.1-0.2-1.6c-4.4,1.4-8.8,0.6-13.2,1.1v0.1l-4.3,0.2l-0.3-0.9c-0.1,0-0.3-4.3-0.3-4.3l2-0.1c-0.3-5.4-1.1-10.8-2.2-16.2
	c-2.8,1.3-1.7-3-2.1-4.2c5.2-0.2,10.3-1.1,15.3-2.5c-1.2-2.2,2.5-1.7,3.4-1.9C489.8,98.7,494.3,103.7,488.2,103L488.2,103z
	 M472.2,29.3c-0.4,0.5,1.4,5.3-0.4,4.8c1.3,3.4,2,6.7,4.6,9.8c2-3.4,2.4-7.4,3.2-11.1c-1.6-0.2-0.5-3.7-1-4.8c1.9,0.3,4.2,1.4,6,0.8
	c0,0.1,0,0.3,0,0.4c3-0.7,1.4,3.6,2,4.9c-0.8-0.1-1.5-0.2-2.2-0.3c-1,4.3-0.8,10.2-5.5,12c0,2.6,0.2,5.1,0.5,7.7l0.4-0.1
	c-0.3,0.1,0.7,4.5,0.4,4.7c-4.8,0.8-9.2,2.8-8.4-3.7l1.2-0.1c-0.5-2.5-0.7-5-0.6-7.5c-2.7-0.6-4.3-4.8-4.7-6.7
	c-0.4-1.6-0.7-3.3-0.8-4.9c-2.5,1.4-2.2-3.6-1.8-4.5C462.8,30.8,469.9,29.9,472.2,29.3L472.2,29.3z M448.1,33.2
	c20.1-7.2,22.3,12.8,5,16.9c0.1,3,0.6,4.6,0.7,6.7c2.7-1.2,1.9,2.7,2.2,4.1c-4.8,0.3-9.9,2.4-9-4.1c0.3,0.1,0.6,0.1,0.9,0.1
	c0.6,0.1-2.2-23.7-3.1-23.2C445,33.5,448.4,31.8,448.1,33.2z M425.4,36.2c3.2-2,1.9,4.1,2.3,5.4c-0.6,0.1-1.4,0.2-2.2,0.4
	c-2.6,24.3,15.6,23.2,9.7-0.6c-0.8,0.2-1.5,0.4-2.3,0.5c0.1,0-0.7-5.7-0.5-5.7c5.8-1.4,8.7-3.2,8.1,4.2c-0.3,0-0.7,0-1,0.1
	c9,29.4-24.7,34.8-19.8,2.1c-0.7,0-1.4-0.1-2-0.4l0-1.2c-0.5-0.9,0.1-3.6-0.3-4.5C418.9,37.9,424.1,36.1,425.4,36.2L425.4,36.2z
	 M411.6,38c-0.3,0-0.5,0-0.7,0.2c8.7,4.8-6,9.5-7.3,2.9c-8.7,6,0.8,35.3,6.6,12.8c0.2-0.5,3-1.2,3.4-1.3c0.7,6.1-1.5,11-7.4,13.2
	C389.7,72.8,389.1,29.3,411.6,38L411.6,38z M408.2,98.9c-17.4,4.3-14.8-18-7.2-23.7C415,66.5,418.6,90.3,408.2,98.9L408.2,98.9z
	 M390.7,42.9c5.2,3.3-7.7,8.8-6.5,1.5c-4.2-1.7-5.8,19.7-0.6,19.2c1.5,1,3.5-2.5,2.8-3.4c1.7-1.1,3.7-1.8,5.7-2.2
	c1.5,6.1-4.8,11.6-11,10.7C368,64.9,376.9,30.1,390.7,42.9L390.7,42.9z M357.7,43.7c-0.2-0.1-0.5-0.3-0.8-0.4c0.9-0.1,3-3,4.3-1.3
	c15.5-2.7,11,27.6-1.5,29.3c-15,1.8-13.6-22.7-2.1-27.5L357.7,43.7z M356.4,155.3c-0.2,3.3-1.5,11.4-1.5,11.4l1.3,2
	c0.1,2.2-0.2,4.3-0.9,6.4c-0.5,1.6-1.5,3-2.9,4c0,0-0.7,4-1.5,7.5s-2,1.5-3.7,3.1c-0.1,0.1-0.3,0.3-0.4,0.4h-0.4l-5-53.4
	c2.3,0.8,4.5,1.7,6.6,2.8C357.3,144.2,356.6,152.1,356.4,155.3L356.4,155.3z M370.5,116.3c-2.7,0.6-5.4,1-8.1,1.3
	c0.2,1.5,0.5,3,0.7,4.4c2.6,0,5.2-0.1,7.7-0.5c0,0,0.5,4.7,0.4,4.7c-2.1-0.2-6.4,2.1-7.3,0.5h-0.2c0.3,2.8,0.4,5.6,0.3,8.4
	c0.7,0,1.3-0.1,2-0.1c-0.2,0.5,1.3,5.7-0.5,4.8l0,0c-2.8,0.2-5.5,0.1-8.3,0.4c0.2-0.9-1.5-5.8,1-4.8c-0.1-6.2-0.3-12.3-0.9-18.4
	c-2.1,1-1.1-4-1.5-4.7c4.7,0,9.5,0.6,14.1-0.6c-0.5-1.2,4-1.6,4.3-1.8c0.2,2.5,0,4.5,0.8,6.9c-1.1,0.5-4.8,2.6-4.4-0.3L370.5,116.3z
	 M374.9,76.8c2.7,0.3,5.4,0.2,8.1-0.3c-0.2,1.2,1.5,5-1.3,4.3c1.3,2,1,5.3,3.3,6.7c1.9-2.1,3.1-4.7,3.5-7.5c-1.7,1-0.8-3.6-1.2-4
	c1.9-0.1,3.9-0.5,5.7-1.2c-0.3,1.2,1.2,4.1-0.3,4.5c-0.2,3.8-0.3,5.6-4.5,9.5c0.1,0,0.1,0,0,0l0,0c-0.2,0-0.8,0-0.8,0
	c0.9,2.9-0.6,7.3,1.6,9c0.1,1.1,0.3,2.2,0.8,3.2c-4.2-0.2-8.1,2.9-7.4-3.4h0.9c-0.4-2.6-0.7-5.3-0.8-8c-0.9-0.3-1.8-0.8-2.4-1.6
	c-1.6-2.1-2.8-4.5-3.6-7c-2.5,0.9-0.9-3.3-1.5-4.1L374.9,76.8z M396.8,113.4c1.9,10.1,2.3,26.5-12.6,22.8
	c-6.9-5.1-3.6-13.1-4.9-20.5c-2.4,1.1-1.2-3.9-1.7-4.7c2.3-0.1,4.7,0,7-0.2c-0.2,0.6,1.3,5.7-0.7,4.8c1.3,5.7-2,16.9,5.1,18
	c4.9-4.9,1-12.9,2.7-19.3c-3.4,1.2-2.3-2.6-2.7-4.6c2.5-0.3,6.4-1.1,8.9-1.4C397.8,109.5,399.4,114.1,396.8,113.4z M420.8,112.4
	c-1.9,0.8-5.1,0.7-7.8,1c1.2,5,1.9,10.1,2,15.3c2.9-1.4,1.9,3.2,2.3,4.6c-3.1,0.3-6.2,0.1-9.2,0.5c0.1-1.6-1.5-5.9,1.7-4.9
	c-0.5-5-1.8-10.1-1.2-15.2c-4.7,0.4-7.8,1.7-7.1-4.3l-0.2-1.4c5.5-0.3,9.2,0.1,14.6-1.1c0-0.4,1.9-0.3,1.9-0.3
	C421.5,104.7,420.7,110.7,420.8,112.4L420.8,112.4z M417,76.8c-1.5,0.2-0.5-3.9-1-4.9c5.2-0.1,6.8-1.5,6.5,4.6l-1.4,0.1
	c1.4,30.8,12.4,12.3,5.2-2.4c-0.1-1.3-0.4-2.6-0.7-3.9c2.6-0.2,5.1-0.6,7.6-1.2c-0.3,0.5,1.3,5.5-0.5,4.9c0.2,5,1.3,10.5-0.1,15.4
	c1.1,2.2-8.4,10.9-11.2,7.7C415.6,94.3,417,83.2,417,76.8z"/>
<path class="st1" d="M673.9,245.1c1.3-2.2,11.5-9.7,12.4-11.9s2.2-10.6,2.2-10.6s8-8.8,11.5-14.6s0.9-11.9,0.9-17.7
	s-6.2-37.6-6.2-41.6s-2.7-8.4-2.7-8.4l-0.4-1.8l-4.4-3.1c0,0-4-16.8-4-19.9s2.2-8.4,2.2-10.6v-9.3c0-1.3-6.2-5.3-8-6.6
	s-8-4.4-9.7-4.4s-5.3,1.8-6.2,3.1s-2.2,7.5-2.2,7.5s-3.1,0-4.9,1.8s-2.2,6.6-2.7,8s13.3,15.9,13.3,15.9l6.7,15.4l-3.1,4.9
	c0,0,0.4,7.9,0.9,22.1s-1.3,21.7-1.3,21.7l-3.1,5.8l-16.8,15l-29.6,8.9l-7.1-5.8l-4-3.5l-0.8-8.9c0.1-0.4,0.3-0.8,0.3-1.2
	c0.9-4.9,1.3-7.1,1.3-7.1s5.8-4,6.6-8s0-9.7,0-9.7l-2.2-1.8c0,0,1.3-14.6-2.2-19.9s-11.9-9.3-11.9-9.3s-2.2-4-11.9-4.4
	c-5.4-0.3-10.7,0-16.1,0.7c-1,0.1-2,0.3-2.9,0.6c-1.3,0.4,4.4,1.3,4.4,1.3s-9.7,0.9-15.5,8.4c-1.6,2.1-3,4.1-4.1,5.7
	c-1.4,2.1-2.7,4.4-3.9,6.7l7.1-5.8c0,0-2.7,7.1-2.2,9.3s3.1-3.1,3.1-3.1v8.8l1.8,4.9c0,0-2.2,8.8,0,14.6s8.4,19.9,8.4,19.9
	s1.5,1.3,3.7,2.8l-2.4,1.7c0,0-2.2,4.4-2.7,5.7s-1.8,2.6-4,5.3c-1.7,2-10.8,6.2-15,8.6c-2.8,0.4-5.2,0.9-6.2,1.6
	c-0.5,0.3-1.2,0.9-2.2,1.7c4.7,2.3,7,5.3,7.3,7.3c0.4,3.1,2.5,20.7,3.5,29.6c1.4,0.4,2.8,1.1,4,2c0.3,0,0.6,0,0.9,0.2
	c1.9,1.1,2.6,2.9,3.7,4.6c1.3,2,2.5,4,3.6,6.2c0.2,0.1,0.4,0.2,0.6,0.3c1,0.1,2.1,0,3.1-0.1c2.6,0,2.6,4,0,4h-1.3
	c1.1,0.9,2,2,2.7,3.3c1.3,2.2,2.1,4.7,2.3,7.2c0.8,1.3,1.4,2.6,2,4c1.4,3.4,0.9,7.3-1.2,10.3c0.5,3.5,1.9,6.8,1.9,10.3
	c-0.1,2.6-0.6,5.1-1.5,7.5c1.8,0.5,3.7,1.1,5.8,1.9c8.2,2.9,18.9,5.3,23.6,14.7s31.8,61.9,30.1,66c-0.9,2-3.3,4.9-7.2,8l7.2,16.8
	c0,0,17.7,29.5,25.3,50.7s12.4,37.1,15.9,41.3s8.2,16.5,10,20.6s3,7.1,1.8,11.8s-3.5,18.9-4.1,21.2s-5.3,7.1-7.1,7.1
	s-1.8-5.9-1.8-5.9c2.1-3.5,2.8-7.8,1.8-11.8c-1.8-6.5-7.7-10-7.7-10s0.6,8.8-0.6,12.4s-6.5,2.4-6.5,2.4s1.8-7.1-2.4-12.4
	s-5.9-13-5.3-17.7s1.2-10-5.9-23.6c-3.1-5.9-10.4-14.9-17.9-24l0.4,1.3c0,0,0.4,10.6,5.3,17.2s11.5,30.5,11.5,36.2
	s3.1,18.1,2.7,23.9s-1.3,15.9-2.2,25.2c-0.6,5.3,1.2,10.7,4.9,14.6l-1.8,11.9c0,0,8,8.4,10.6,11s12.4,8,18.6,9.7s19,1.8,23-2.7
	s-7.2-13.4-9.3-15.9c-8-9.7-0.9-9.3-0.9-9.3l3.1-3.1c0,0-0.9-6.2-0.5-8s-3.6-15.4-3.6-15.4c0-1.9,0.1-3.8,0.4-5.7
	c1.1-8.1,1.6-16.2,1.3-24.3c-0.5-9.3-9.7-48.2-9.7-48.2s2.7-6.6,4.4-9.3c1.8-2.7-0.4-9.7,0.4-13.3s-4-27.4-4.9-38
	c-0.6-7.4-8.8-39.4-13.7-58c4.7-1.7,9.1-4.4,12.8-7.8c5.2-5.2-11.1-35.4-12.8-41.6s-16.3-58.9-16.3-58.9s-1.8-5.7-1.8-8.4
	s7.5-8.9,9.7-12.8S672.6,247.3,673.9,245.1z"/>
<path class="st1" d="M88.9,595.5c-1.2-3.1-3.1-20.8-2.4-23.2s5.5-16.5,6.1-22.7s-4.3-25.1-5.5-59.4s3.7-46.5,7.3-53.3
	s4.9-23.2,5.5-43.5c0.4-9,1.5-18,3.4-26.9c-1.3-2.3-2.3-4.1-2.8-4.9c-3.1-5.5-3.7-8-3.1-10.4s25.1-34.3,25.1-34.3s4.9-3.1,8.6-3.1
	s12.9-1.2,12.9-1.2c1.9-1.3,3.9-2.3,6.1-3.1c2.8-0.8,5.7-1.2,8.6-1.2c0,0,7.4-8.6,9.2-9.8c1.4-1,4.3-1.2,5.5-1.2V290
	c-0.1-1.5-0.6-2.9-1.3-4.2c-1.7,5.5-3.8,7.7-5.9,6.7c-3.3-1.7-0.9-4.6,0.5-9.6c0.4-2.1,0.4-4.2,0.2-6.2c-1.5-2-3.2-4.1-4.8-6
	c-0.6,1.3-1.1,2.6-1.4,4c-0.9,4.6,3.4,14.3,0.5,15.1c-4.6,1.4-5-3.2-5.5-7.3c-0.3-2.8-1.4-13.2-2.2-19.8l-1-1.1
	c-0.5,4.9-1.6,12.6-3.7,16.3c-3.2,5.5-5.5,1.4-5.5,1.4c1.1-2.4,2.1-4.8,2.8-7.4c0.9-3.7,0.9-13.8,0.9-13.8l0.4-3.5
	c-0.3-0.6-0.6-1.2-0.8-1.9c0-0.2-0.1-0.5-0.2-0.8c-1,2.1-1.8,4.3-2.1,6.6c-0.5,4.1-3.7,2.8-4.1-1.4c-0.3-2.8,2-12.5,3.6-18.6l-0.1-1
	c-1.1,2.8-2.7,6.2-4.4,8.1c-3.2,3.7-2.3-1.4-2.3-1.4s1.4-5,4.6-14.2c0.3-0.9,0.7-1.8,1.2-2.7c0-0.9,0.1-1.9,0.2-2.8
	c1.2-6.7,15.9-21.4,22-26.3c1.5-1.2,3.3-2.1,5.1-2.7c-0.1-3.6,0.2-8.3,0.4-13c1,1.3,1.8,2.8,2.5,4.3c1,2.5,1.4,5.1,1.2,7.8
	c1-0.1,2-0.2,3-0.2c0.3-3.1,0.3-6.3,0-9.4c-0.8-6.5-3.4-12.7-7.5-17.7c-2.6-8.2-13.5-9.1-20.2-14.7c-7.1-5.9-15.3,0-15.3,0
	s-8.2-1.8-11.2-0.6c-3,1.2-20,7.1-24.2,22.4c-1.7,5.8-2.5,11.9-2.3,18c-0.9,1.5-1.3,3.2-1.3,5c0,5.9,1.2,18.3,5.9,18.9
	c0.4,0,0.8,0,1.1,0c0.9,3.7,2.2,7.3,3.8,10.8c-2-0.8-4.1-1.5-6.2-2c-1.8,0-6.5,2.4-7.1,0c-0.6-2.4-1.2-3.5-3.5-3.5h-4.1
	c0,0-3.5-5.3-5.3-4.1c-0.4,0.3-1.3,0.9-2.4,1.7c-3.8-5-7.8-9.8-12.1-14.4c-10-10.3-9.7-13-11.5-15.9s-15-33.3-17.4-37.7
	c-2.4-4.4-9.7-20-8.2-23.3c1.5-3.3,2.9-11.2,1.8-15.3s-4.1-8.5-4.1-9.7s-4.1-2.9-4.1-4.1s-3.9-3.8-3.9-3.8L16,96.4
	c0,0-2.4-3.2-4.7-3c-1.5,0.3-2.9,1.1-3.8,2.4c-1.1,0.2-2,1-2.4,2.1c-0.4,1.2-0.7,2.3-0.9,3.5c0,0-2.7,0.9-3.2,2.4
	c-0.4,1.3-0.6,2.7-0.6,4.1c-0.3,0.7-0.5,1.6-0.3,2.4c0.3,1.2,5.3,12.7,6.2,14.4s2.9,5.9,5.6,11.5s14.7,49.5,21.5,63.1
	c6.8,13.5,21.2,34.8,21.2,34.8l8.2,11.3c-1.7,7.7-2.6,14-2.6,14s13.6,5.9,16.6,11.8s5.9,42.4,4.7,53s-3.5,24.2-3.5,26.5
	s0,14.1-2.4,20c-1.5,3.8-2.7,7.8-3.5,11.8c0,0,0.9,2.7,5.1,6.3c-0.2,2.9-0.4,6.2-0.6,8.2c-0.4,4-0.4,7.1-0.4,7.1s-6.6,13.7-7.5,27.4
	s4,45.1,4,46.9s4.9,35.8,6.6,38.9s0.4,9.7,0.4,9.7s0.4,8-0.4,10.6s-0.9,8.8-0.9,8.8s-7.5,10.2-5.3,22.1s-3.1,33.2-4,37.6
	s-3.5,12.8-3,17.6c0,0,0,0.1,0,0.1l-1.1,1.1c0,0-4.5,5.4-4.9,11.1s1.7,13.3,1.7,13.3l-0.4,5.7h2.1c0,0-1.4,9.2,0.7,17.1
	s10.8,14.3,15.6,15.5s11.1-3.5,12.8-12s-3.1-21.3-2.4-25.1c0.6-3,2.9-17.4,3.8-23c2.5-5.8,4.6-13.6,6.4-21.5c-0.3,0-0.7-0.1-1-0.2
	C97.5,605.2,90.1,598.5,88.9,595.5z"/>
<path class="st1" d="M314.2,128.2l0.6-5.6l-4.1-3.2c0,0,1.3-3.6-2.1-5.3c-3-1.5-8.8,0.9-8.8,0.9l-2.7-2.9l-9.4,4.1
	c0,0-1.8,28.3-2.9,32.4c-1.2,4.1-2.3,14.3-18.5,33.1c0.5,0.5,0.9,1.1,1.2,1.7c2.1,4,3.9,0.9,5.2,0.7c0.3,0,1.4-0.1,3-0.1
	c1.3-6.4,11.7-8.2,12.4-8.9c0.7-0.7,4.2,0.1,6.3,1.1c-6.3,14.1-16.5,35.1-20.7,42.8c-0.1-0.5-0.2-1-0.3-1.4c-0.3-1.8-0.7-4.1-1-6.3
	c-3.7-1.6-9.2-6.2-11.5-8c-1.7-1.3-5.1-2.2-8.7-3.1c-4.9,7.7-5.9,11.7-7.4,12.8c-1.2,0.9-6.7,3.5-13.9,6.6c0.1,0.2,0.1,0.4,0.1,0.6
	c0,1.3-1.2,3-3.6,1l-2.9,1.2c3.1,7.2,6.1,15.3,7.1,22c0.4,2.3,0.5,4.6,0.4,6.9c12.3-8.5,28.5-20.1,32.2-21.8
	c5.3-2.4,4.1-1.8,8.2-8.3s25.9-51.9,27.1-57.8c1.2-5.9,8-11.5,8-11.5l2.1-6.2l4.1-6.5c0,0,1.8-4.7,2.4-6.5
	C316.7,130.9,314.2,128.2,314.2,128.2z"/>
<path class="st1" d="M177.6,607.1c0,0-1.8,12.8-3.1,19.6s-8,63.6-9.2,70.4c-0.7,3.4-1.7,6.7-3,9.9c1.5,2.9,4.1,5.3,7.1,6.5
	c5.6,2.1,23.9,1.5,23.9,1.5s4.1-3.2,2.4-8s-5-8-10.3-12.7s-8.5-15.6-9.1-19.5c-0.2-1.6-0.6-3.7-1-5.6h0.1c0,0,5.3-2.1,4.9-5.2
	s2.5-23.4,3.1-29.9c0.1-1.3,1.7-9.6,3.7-20.3c-1.8-7.5-4-14.1-4-14.1L177.6,607.1z"/>
<path class="st1" d="M121.9,443.7c-0.6,6.7-2.4,26.9-4.9,42.8c-1.3,8.6-1.4,24.5-1.2,37.3c3.9-17.8,8.5-38.5,8.5-38.5
	s1.2-11,1.8-14.1s8-31.2,8-34.3c0-2.8-1.5-16.9-3.6-22.4C126.4,427.1,122.2,440.3,121.9,443.7z"/>
<path class="st2" d="M171.9,226.5c-1,4.1-2.6,8-4.8,11.5c1.9,0,3.8-0.2,5.6-0.5l5.9-1.2c3.1-0.7,6.1-1.9,8.8-3.5
	c1.5-1,3.4,0,5.6,2.4c3.8-1.8,8.4-3.8,13.9-5.9c5.8-2.3,11.8-4.8,17.4-7.1c-0.7-1.7-1.5-3.3-2.2-4.9c1.7,0.8,3.2,1.9,4.6,3.1
	c0.2,0.2,0.4,0.4,0.5,0.5c1.2-0.5,2.4-1,3.5-1.5c-0.4-1.2-2-2.6-3.6-4.9c-1.8-2.8-8.3-8.3-12.2-10.7c-1.8-2.4-20.8-12.9-26.9-11
	c-6.1,1.9-8.6,1.8-8.6,1.8c-0.8-0.1-1.7-0.1-2.5-0.1c-0.7,6.3-2.1,12.5-4.4,18.4C173,217.4,172.8,222,171.9,226.5z"/>
<path class="st3" d="M266.4,606.5c-0.1,0.6-0.1,1.2,0,1.8c2.7-1.8,2.5-4.5,2.5-6.2s-2.6-2.5-4.3-2.9
	C265.7,602,266.6,604.6,266.4,606.5z"/>
<path class="st3" d="M251.6,611.2c0,0-2.9,4.7-3.5,7.1s2.4,7.7,4.1,10.6c1.2,2,4.6,2.4,7.6,3.2c0-4.2,0-8.8,0.1-13.4
	c-1.4-2-3-3.9-3-3.9L251.6,611.2z"/>
<path class="st3" d="M279.9,486.3c-1.8,9.4-15.3,52.5-21.2,71.3c-5.9,18.9,0,26.5,1.2,31.2c0.9,2.6,1.9,5.1,3.2,7.5
	c-0.2-2.1-0.6-4.3-1-6.4c-1.2-5.5,1.2-28.2,1.8-33.7s18.4-49,20.2-71c0.6-8.1,0.8-16.3,0.5-24.4c-0.4,1.2-0.8,2.2-1.2,3
	C280.5,470.4,281.7,476.9,279.9,486.3z"/>
<path class="st2" d="M159.2,701.7l-1.5,8.8l-7.1,0.3c0,0-6.2-19.5-5.9-25.6c0.2-4.9,4.2-16.6,6-21.7c-2.4-10.1-1-67.7-1.4-78.1
	c-0.4-11,2.7-30.1,2.7-36.2s-8.4-48.6-8.4-48.6l-13.8-41.3c-4.6,25-9.6,54.2-9.6,59.8c0,8.8-3.1,30.1-5.3,37.1s-6.2,8.8-8,14.1
	c-1,2.9-3.1,19.7-6.7,35.7c1,0.1,2.1,0.2,3.1,0.2c-0.7,9.6-1,18.3-0.5,24.1c1.8,20.2,4.9,45.9,3.1,49.6s-0.6,12.2-0.6,12.2
	c-1.9,6.4-2.7,13-2.5,19.6c0.5,6.2,1.7,12.4,3.7,18.4c0,0-2.4,1.8-2.4,11.6s-5.5,36.1-4.3,41.6s8.6,27.5,8.6,33.7
	s-1.8,15.9-1.8,25.1s2.5,16.5,3.7,18.4c0.6,0.7,1.4,1.3,2.2,1.8c-0.8,2.2-2,4.3-3.4,6.2c-3.7,4.3-10.4,11.6-13.5,13.5
	s-2.4,8-3.7,9.8s2.4,6.1,2.4,6.1c6.6,3.9,14.4,5.4,22,4.3c12.9-1.8,20.2-6.7,23.9-10.4c2.9-2.7,5.9-5.2,9.2-7.3c0,0,1.2-8,1.8-18.4
	c0.1-3.6-0.3-7.2-1.1-10.7c6-11,5.1-18.1,6.6-24.2c1.8-7.3,3.1-9.8,1.8-17.1s-1.8-24.5-0.6-33.7s-0.6-27.5-0.6-32.4
	c-0.1-3.7-0.5-7.4-1.2-11c0,0,5.5-6.1,5.5-9.8s-2.4-12.2-2.4-12.2s1.6-3.5,3.1-7.8c-0.3-0.6-0.6-1.1-0.8-1.7L159.2,701.7z"/>
<path class="st2" d="M239.8,636.6c-2.9-1.2-11.8-15.9-13.5-19.5s1.2-23.6,1.2-25.9s0.6-8.8,0.6-11.2s2.9-12.4,3.5-16.5
	s7.7-56.6,9.4-70.1s10.6-43.6,10.6-43.6l-0.2-9.5l-5.7-1.7c0,0-4.1-7.7-3.5-10.6s5.9-27.1,8.8-38.3s17.1-39.5,17.1-39.5
	s1.2-3,5.3-7.7c1-1.2,4.1-2.5,8.2-3.9c-1.1-2.7-2.5-5.2-4.2-7.5c-4.3-4.9-12.2-7.3-12.2-7.3l-11.6-2.5l-11-8l-14.7-16.5l-4.9-2.5
	l-3.3-1.5c1.1-2.5,2.1-4.9,2.9-7c0.7,1,1.3,2.1,1.9,3c1.8,2.8,2.3-4.6,0.9-10.4c0,0,6.2-13.8,6.5-27.4c-5.4,3.7-10,6.9-12.6,8.3
	c-3.1,1.8-7.7,4-12.2,6.1c0.3,0.9,0.5,1.8,0.4,2.8c0,0-17.1,15.9-23,38.3s-5.3,47.2-5.3,51.3s2.9,13.6,6.5,17.7s-0.6,4.7-1.2,7.1
	c-0.5,1.5-1.4,2.8-2.5,3.9c2.1,17.6,5.8,50.8,6.1,62.9c0.4,16.8,0.9,85.8,1.8,89.7s1.8,12.8,0.9,15c-0.6,1.9-1.1,3.8-1.3,5.8
	c0,0,0,3.1,0.4,7.1s-0.8,35.9-2.2,43.3c-0.2,1.3-0.5,2.5-0.7,3.7c1.1,4.2,1.8,8.5,2.1,12.8c0.6,10.4,4.9,39.8,5.5,48.3
	c0,0,3.1,17.1,4.9,35.5s6.7,35.5,7.3,39.2s3.1,22.6,3.1,22.6s1.8,28.2,1.2,36.1s0,33.7,0.6,38c0.1,0.8,0.4,1.6,0.7,2.3
	c-1.1,4-1.6,8.2-1.5,12.4c0.6,10.4,1.8,18.4,1.8,18.4c3.3,2.2,6.3,4.6,9.2,7.3c3.7,3.7,11,8.6,23.9,10.4c7.6,1.1,15.4-0.4,22-4.3
	c0,0,3.7-4.3,2.5-6.1s-0.6-8-3.7-9.8c-3.1-1.8-9.8-9.2-13.5-13.5c-1.5-2-2.7-4.2-3.6-6.6c2.2-2.2,4.3-4.5,6.2-6.8
	c5.5-6.7,1.8-14.1,3.7-16.5c1.8-2.4,6.1,0.6,7.3-8.6c1.2-9.2-7.3-95.5-7.3-97.3s3.7-67.3,1.2-71c-0.6-0.9-0.9-6.6-1-14.8h-0.6
	C255.7,641.9,242.8,637.8,239.8,636.6z"/>
<path class="st3" d="M170.4,199.8c0.4,1.4,0.7,2.7,0.9,4.1c1.4-2.9,2.3-6.1,2.6-9.3c-1.4,0.2-2.7,0.5-4.1,0.9
	C169.9,197,170.1,198.4,170.4,199.8z"/>
<path class="st4" d="M190,566.9c-0.4-4-0.4-7.1-0.4-7.1c0.2-2,0.7-3.9,1.3-5.8c0.9-2.2,0-11-0.9-15s-1.3-72.9-1.8-89.7
	c-0.3-12.1-4.1-45.2-6.1-62.9c1.1-1.1,1.9-2.4,2.5-3.9c0.6-2.4,4.7-3,1.2-7.1s-6.5-13.5-6.5-17.7s-0.6-28.9,5.3-51.3
	s23-38.3,23-38.3c0-0.9-0.1-1.9-0.4-2.8c4.5-2.1,9.1-4.3,12.2-6.1c2.5-1.4,7.2-4.6,12.6-8.3c0.1-2.3-0.1-4.6-0.4-6.9
	c-1.1-6.7-4-14.8-7.1-22c-5.5,2.3-11.6,4.8-17.4,7.1c-5.5,2.2-10.1,4.2-13.9,5.9c-2.2-2.4-4.1-3.4-5.6-2.4c-2.7,1.6-5.7,2.8-8.8,3.5
	l-5.9,1.2c-1.9,0.3-3.8,0.4-5.6,0.5c2.2-3.6,3.8-7.5,4.8-11.5c0.9-4.5,1.1-9.1,0.7-13.6c2.2-5.9,3.7-12.1,4.4-18.4c-1,0-2,0.1-3,0.2
	c-0.3,3.2-1.2,6.4-2.6,9.3c-0.2-1.4-0.5-2.8-0.9-4.1c-0.4-1.4-0.6-2.8-0.6-4.3c-1.8,0.6-3.6,1.5-5.1,2.7c-6.1,4.9-20.8,19.6-22,26.3
	c-0.1,0.9-0.2,1.8-0.2,2.8c-0.4,0.9-0.8,1.8-1.2,2.7c-3.2,9.2-4.6,14.2-4.6,14.2s-0.9,5,2.3,1.4c1.7-2,3.3-5.4,4.4-8.1l0.1,1
	c-1.6,6.1-4,15.9-3.6,18.6c0.5,4.1,3.7,5.5,4.1,1.4c0.4-2.3,1.1-4.5,2.1-6.6c0.1,0.3,0.1,0.6,0.2,0.8c0.2,0.7,0.5,1.3,0.8,1.9
	l-0.4,3.5c0,0,0,10.1-0.9,13.8c-0.7,2.5-1.6,5-2.8,7.4c0,0,2.3,4.1,5.5-1.4c2.1-3.6,3.2-11.4,3.7-16.3l1,1.1
	c0.7,6.5,1.9,17,2.2,19.8c0.5,4.1,0.9,8.7,5.5,7.3c3-0.9-1.4-10.5-0.5-15.1c0.3-1.4,0.7-2.7,1.4-4c1.6,1.9,3.3,4,4.8,6
	c0.3,2.1,0.2,4.2-0.2,6.2c-1.4,5-3.8,8-0.5,9.6c2.1,1,4.2-1.1,5.9-6.7c0.7,1.3,1.2,2.7,1.3,4.2v7.4c-1.2,0-4.1,0.3-5.5,1.2
	c-1.8,1.2-9.2,9.8-9.2,9.8c-2.9,0-5.8,0.4-8.6,1.2c-2.2,0.7-4.2,1.7-6.1,3.1c0,0-9.2,1.2-12.9,1.2s-8.6,3.1-8.6,3.1
	s-24.5,31.8-25.1,34.3s0,4.9,3.1,10.4c0.5,0.9,1.5,2.6,2.8,4.9c-1.8,8.9-2.9,17.9-3.4,26.9c-0.6,20.2-1.8,36.7-5.5,43.5
	s-8.6,19-7.3,53.2s6.1,53.2,5.5,59.4s-5.5,20.2-6.1,22.7s1.2,20.2,2.4,23.2s8.6,9.8,10.4,10.4c0.3,0.1,0.7,0.2,1,0.2
	c3.6-16,5.7-32.8,6.7-35.7c1.8-5.3,5.8-7.1,8-14.1s5.3-28.3,5.3-37.1c0-5.6,4.9-34.8,9.6-59.8l13.8,41.3c0,0,8.4,42.4,8.4,48.6
	s-3.1,25.2-2.7,36.2c0.4,10.4-1,68,1.4,78.1c-1.8,5.1-5.7,16.8-6,21.7c-0.3,6.2,5.9,25.6,5.9,25.6l7.1-0.3l1.5-8.8l2.4,3.5
	c0.2,0.6,0.5,1.2,0.8,1.7c1.3-3.2,2.3-6.5,3-9.9c1.2-6.7,8-63.7,9.2-70.4s3.1-19.6,3.1-19.6l5.5-7.3c0,0,2.2,6.6,4,14.1
	c0.2-1.2,0.5-2.4,0.7-3.7C189.2,602.8,190.5,570.9,190,566.9z M126.2,471.3c-0.6,3.1-1.8,14.1-1.8,14.1s-4.6,20.8-8.5,38.5
	c-0.2-12.8-0.1-28.7,1.2-37.3c2.5-15.9,4.3-36.1,4.9-42.8c0.3-3.3,4.5-16.6,8.7-29.1c2.1,5.5,3.6,19.6,3.6,22.4
	C134.2,440,126.8,468.1,126.2,471.3L126.2,471.3z"/>
<path class="st3" d="M230.9,220c0-0.2,0-0.4-0.1-0.6c-1.1,0.5-2.3,1-3.5,1.5C229.7,222.9,230.9,221.3,230.9,220z"/>
<polygon class="st0" points="467.6,308.9 467.6,308.9 467.6,308.9 "/>
<path class="st5" d="M468.8,308.8c3.2-1.3,0.9-3.1,0-4.2c-0.2-0.3-0.4-0.6-0.6-0.8c-0.6,1.2-1.1,2.5-1.4,3.9c0.2,0.3,0.5,0.6,0.7,1
	c0.1,0.1,0.1,0.2,0.1,0.3l0,0C468,309,468.4,309,468.8,308.8z"/>
<path class="st0" d="M462,305.9c0-0.5,0-0.9,0.1-1.4l-0.6-0.5c0,0.4-0.1,0.8-0.2,1.2C461.5,305.4,461.7,305.7,462,305.9z"/>
<path class="st5" d="M463.4,302.2c1.2-1.3,1.4-1.4,1.4-3.3c0-0.5,0-1,0-1.5c0.1-0.6,0.3-1.1,0.5-1.6c0-1.9,0.5-3.8,1.4-5.4
	c1.3-2,2.9-3.7,4.8-5.1l0,0c0-0.2-0.3-0.5-0.7-0.8c-5.1,3.2-9.8,6.9-9.8,13.6c0,1.5,0.4,2.9,0.4,4.4c0,0.5,0,1-0.1,1.5l0.6,0.5
	C462.3,303.6,462.7,302.8,463.4,302.2z"/>
<path class="st5" d="M550.1,275.9c-0.2-0.1-0.3-0.1-0.5-0.2c0,0.4,0.1,0.7,0.1,0.7l-0.4,0.1c0.4,0.7,0.8,1.5,1.1,2.3
	c0.5,0.3,0.9,0.6,1.4,0.8c-0.7-1-1.1-2.2-1.2-3.4C550.5,276.1,550.3,276,550.1,275.9z"/>
<path class="st0" d="M460.7,310.2c-0.1,2.3,0,4.7,0.4,7c-0.1-2.2-0.1-4.4,0.2-6.6L460.7,310.2z"/>
<path class="st6" d="M470.3,279.7L470.3,279.7L470.3,279.7z"/>
<path class="st5" d="M556.9,293.2c1.5,0.8,2.6,2,3.3,3.5c0-1.6-0.2-3.1-0.4-4.6c-0.5-0.8-0.9-1.5-1.4-2.3c-0.2-0.2-0.5-0.5-0.7-0.7
	c-0.9-0.5-1.8-1-2.7-1.5c0.2,0.8,0.3,1.5,0.5,2.3C555.9,291,556.4,292.1,556.9,293.2z"/>
<path class="st5" d="M558.8,324.4c-0.6,0.7-1.7,0.8-2.5,0.2c-0.3,1.7-0.7,3.3-1,3.2c1.3,0.7,4.4-3.1,4.8-3.9
	c0.2-0.4,0.4-0.9,0.5-1.4C560,323.2,559.4,323.8,558.8,324.4z"/>
<path class="st5" d="M564.1,326.4c-0.6,1-1.4,1.9-2.4,2.6c0.8,0.2,2.4,0.5,4.4,1c0.2-0.4,0.3-0.7,0.4-1.1c0.8-2.9,0.9-6,0.2-8.9
	C566.2,322.3,565.3,324.5,564.1,326.4z"/>
<path class="st5" d="M557.7,315.1l-0.8,5.4c1.1-1,2.2-2.1,3.3-3c-0.5-0.3-1-0.6-1.5-1C558.4,316.1,558.1,315.6,557.7,315.1z"/>
<path class="st5" d="M565,304.6c0-1.3,0.1-2.6,0.1-3.9c-0.3,0.9-0.7,1.8-1.1,2.7C564.3,303.8,564.6,304.2,565,304.6L565,304.6z"/>
<path class="st5" d="M562.7,314.3c0.7-1.7,1.4-3.5,1.2-4.8c-0.3-0.7-0.7-1.3-1.2-1.9c-0.5,1.4-1.2,2.6-2.1,3.8
	c0.2,1.1,0.9,2,1.8,2.6L562.7,314.3z"/>
<path class="st3" d="M440.4,523.5c0,5.9,0.3,14.7,0.3,23.5c0,13.6,12.4,40.7,12.4,40.7s3.6,11,8.1,24.9c1-3.9,1.5-7.9,1.5-11.9
	C462.6,592.3,447.9,548.9,440.4,523.5z"/>
<path class="st3" d="M600.1,457.3c1.6,5.7,3.2,11.5,3.9,14.8c1,4.7,11.1,16.6,21,28.5l-20-63.7C605,436.9,602.8,445.8,600.1,457.3z"
	/>
<path class="st3" d="M470.9,635.4l-1.8,1.8c1.7,5.2,3.2,10.2,4.6,14.6c0-0.2,0.1-0.3,0.2-0.5C475,647.8,470.9,635.4,470.9,635.4z"/>
<path class="st2" d="M580.6,530.5c-0.4,4.4-2.7,80.9-4.9,86.2s-5.8,23.4-5.3,27s0.9,8,0.9,8s-0.9,1-2.4,2.4c0.1,1.1,0.2,2.1,0.2,2.9
	c-0.1,3.6-0.4,7.1-0.9,10.6c0,0-8.4,4-13.7,6.6s-10.6,8.8-15,11.9s-12.4,6.2-19.5,1.8s-6.2-17.2-4.4-20.3s9.7-6.2,12.4-8
	c1.3-1,2.5-2.1,3.5-3.3c-3.4-4-5.5-8-5.3-9.5c0.5-3.1,4.4-12.8,4.4-15.5s-2.2-8,0-11c1.3-1.9,2.4-4,3.1-6.2c0,0-3.5-23.9-3.5-27.8
	s4-51.3,4.4-54.8s-5.3-7.5-3.5-13.3c1.5-4.8,8.2-82.3,11.2-109.6l-0.5,0.4c-3.8-3.1-7.5-6.3-11-9.7c-4.9-4.9-7.1-8-7.5-9.3
	s0.9-4.9,1.3-6.2s5.7-28.3,6.6-33.6c1.4-10.1,2.2-20.3,2.2-30.5c0-2-0.1-4.6-0.2-7.3c-10.1,3.9-21,7.3-21,7.3s-25.6-1.8-27-3.1
	s-15.9-6.6-17.2-7.5l-0.3-0.2l0,0c-0.8-0.6-3-2.4-5.6-4.5c-0.1,0.5-0.1,0.9-0.1,1.4c-0.2-0.2-0.5-0.4-0.7-0.7
	c0.1-0.4,0.1-0.8,0.2-1.2c-2.4-1.9-5-4-7.2-5.8l0.4,4.9c0.6,1.3,1.4,2.5,2.3,3.6c0,0.2-0.1,0.5-0.1,0.7c-0.5,4.3-0.3,8.6,0.7,12.8
	c0.8,2.8,2.2,5.4,4.3,7.6c0.2,1.3,0.5,2.6,1,3.9c0,0.1,0.1,0.2,0.2,0.3l-2.3,0.6c-2.7,0.7-6.7,1.1-10.4,2.3l-2,1.2l-0.3-0.3
	c-1.7,0.7-3.2,1.8-4.4,3.3c-2.6,3.4-6.7,4.4-9,6.7c1.7,0.2,3.3,0.3,5,0.4c3.5,2.4,6.6,5.1,9.4,8.2c4.1,4.7,21.2,64.2,23,69
	s3,6.5,1.2,8.8c-1.1,1.4-4.1,3.3-8.6,6.5c-0.9,9.3-2,23.1-0.8,26.5c1.8,5.3,15.3,37.7,15.9,71.9c0.5,22,3,43.9,7.7,65.4
	c1.2,6.5,4.7,10.6,7.1,17.1s1.2,27.1,0.6,28.9s-11.8,14.7-13.6,16.5c-1,0.9-2.2,1.5-3.4,1.9c0.2,0.5,0.3,1.1,0.3,1.7
	c0,3.5-0.6,11.8-0.6,11.8s0,25.3,1.8,27.1s12.4,8.3,15.9,8.3c0.5,0,1.8-0.2,3.9-0.5c7.2,28.5,24.1,95.7,25,101.7
	c1.1,7.6-1.7,27.3-4,32.8s-3,9.1-9,13.6c-6,4.6-7.9,22.4-7.9,22.4s3,5.1,10.9,5.1c7.9,0,18,1.1,26.1-3.6c4.9-2.8,8.6-8.2,11.7-14.3
	c3.3-0.9,6.5-2.4,9.2-4.4c7.4-5.7,10.9-17.8,13.6-28.6s5.4-13.1,5.4-13.1s-1.6-13.5-14.3-28.4c-9.4-11.1-5.9-24.1-5.6-36.2
	c0.1-10.4,5-31.3-3.8-57.3c3-0.6,0.6-0.6,0.6-0.6l11.8-4.7c0,0,8.2,1.2,10.6-0.6s-2.4-25.9-2.4-32.4s7.1-31.8,7.1-31.8
	s20.6-78.4,21.2-111.4c0.5-25.7-6.5-39.2-10.3-47.3c-3.3,13.3-6.4,25.7-7.7,29.7C584.6,515.5,581,526.1,580.6,530.5z"/>
<path class="st3" d="M433.3,470.4c-2,5.7-4.4,12.2-5.4,16.5c-1.3,5.6,1.2,15.9,2.4,24.3c2.2-7.4,3.7-13.3,3.5-16.1
	c-0.2-3,0.8-9.6,2.1-16.8c-0.4-2.3-1.1-4.6-2.1-6.8C433.6,471.2,433.5,470.8,433.3,470.4z"/>
<path class="st2" d="M503.8,275.6c0,0,4.9-6.6,7.1-10.6c2.2-4,4-4.9,4-4.9c2.6-4,5.4-7.8,8.4-11.5c4.8-5,9.8-9.8,15.1-14.2
	c-4.9-2.5-12.4-4.2-22.8-3.3c-20,1.8-27.1,3.5-29.5,8.8s-2.3,12.4-2.3,12.4s-1.2,7.7-1.8,10.7c-0.1,0.5-0.2,1.2-0.4,1.9
	c-2.5,1.4-4.9,2.9-7.2,4.7c-1.6,1.1-3,2.4-4.3,3.9l5.4,2.2L503.8,275.6z"/>
<path class="st4" d="M648.7,548.2c-0.6,4.7,1.2,12.4,5.3,17.7s2.4,12.4,2.4,12.4s5.3,1.2,6.5-2.4s0.6-12.4,0.6-12.4s5.9,3.5,7.7,10
	c1,4,0.4,8.3-1.8,11.8c0,0,0,5.9,1.8,5.9s6.5-4.7,7.1-7.1s3-16.5,4.1-21.2s0-7.7-1.8-11.8s-6.5-16.5-10-20.6s-8.2-20-15.9-41.3
	s-25.3-50.7-25.3-50.7l-7.2-16.8c3.8-3,6.3-6,7.2-8c1.8-4.1-25.3-56.6-30.1-66s-15.3-11.8-23.6-14.7c-2.1-0.7-4-1.4-5.8-1.9
	c0.9-2.4,1.5-5,1.5-7.5c0-3.5-1.4-6.8-1.9-10.3c2.2-3,2.6-6.9,1.2-10.3c-0.6-1.4-1.2-2.7-2-4c-0.2-2.6-1-5-2.3-7.2
	c-0.7-1.3-1.6-2.4-2.7-3.3h1.3c2.6,0,2.6-4.1,0-4c-1,0.1-2.1,0.1-3.1,0.1c-0.2-0.1-0.4-0.1-0.6-0.3c-1.1-2.1-2.3-4.1-3.6-6.2
	c-1.1-1.8-1.8-3.6-3.7-4.6c-0.3-0.1-0.6-0.2-0.9-0.2c-1.2-0.9-2.6-1.6-4-2c-1-8.9-3.1-26.5-3.5-29.6c-0.3-2-2.7-5-7.3-7.3
	c-5.3,4.5-10.3,9.2-15.1,14.2c-3,3.7-5.8,7.5-8.4,11.5c0,0-1.8,0.9-4,4.9s-7.1,10.6-7.1,10.6h-28.3l-5.4-2.2c-0.5,0.6-0.8,1.3-1,2.1
	c-0.2,0.1-0.3,0.2-0.5,0.3c-6.7,5.7-13.5,12.6-14.9,21.7c-0.2,1.9,0.1,3.9,1,5.6l-0.4-4.9c2.2,1.8,4.8,3.9,7.2,5.8
	c0.1-0.5,0.1-1,0.1-1.5c0-1.5-0.4-2.9-0.4-4.4c0-6.7,4.7-10.4,9.8-13.6c0.3,0.3,0.6,0.5,0.7,0.8l0,0c-1.9,1.4-3.5,3.2-4.8,5.1
	c-1,1.6-1.5,3.5-1.4,5.4c-0.3,0.5-0.4,1-0.5,1.6c0,0.5,0,1,0,1.5c-0.1,1.9-0.3,2-1.4,3.3c-0.6,0.6-1.1,1.4-1.3,2.3
	c2.5,2.1,4.7,3.8,5.6,4.5c0-0.1-0.1-0.2-0.1-0.3c-0.2-0.3-0.5-0.7-0.7-1c0.3-1.3,0.8-2.7,1.4-3.9c0.2,0.3,0.4,0.6,0.6,0.8
	c0.9,1.1,3.3,2.9,0,4.2c-0.4,0.1-0.8,0.1-1.2,0.1l0.3,0.2c1.3,0.9,15.9,6.2,17.2,7.5s27,3.1,27,3.1s10.9-3.4,21-7.3
	c0.1,2.7,0.2,5.3,0.2,7.3c0,10.2-0.8,20.4-2.2,30.5c-0.9,5.3-6.2,32.3-6.6,33.6s-1.8,4.9-1.3,6.2s2.7,4.4,7.5,9.3
	c3.5,3.4,7.2,6.7,11,9.7l0.5-0.4c-2.9,27.3-9.7,104.8-11.2,109.6c-1.8,5.8,4,9.7,3.5,13.3s-4.4,50.8-4.4,54.8s3.5,27.8,3.5,27.8
	c-0.7,2.2-1.7,4.3-3.1,6.2c-2.2,3.1,0,8.4,0,11s-4,12.4-4.4,15.5c-0.2,1.4,1.9,5.5,5.3,9.5c-1.1,1.2-2.3,2.3-3.5,3.3
	c-2.7,1.8-10.6,4.9-12.4,8S513,683.5,520,688s15,1.3,19.5-1.8s9.7-9.3,15-11.9s13.7-6.6,13.7-6.6c0.5-3.5,0.8-7.1,0.9-10.6
	c0-0.9-0.1-1.9-0.2-2.9c1.5-1.4,2.4-2.4,2.4-2.4s-0.5-4.4-0.9-8s3.1-21.7,5.3-27s4.4-81.8,4.9-86.2s4-15,7.1-24.8
	c1.3-4,4.5-16.5,7.7-29.8c-0.9-1.8-1.7-3.8-2.1-5.8c-1.2-7.1-6.5-22.4-3.5-26.5s1.8-9.4,1.8-9.4c0.2,0.1,0.4,0.2,0.6,0.2l3,5.7
	c0,0,2.5,8.5,5,17c2.8-11.5,4.9-20.4,4.9-20.4l19.9,63.7c7.5,9.1,14.9,18.1,17.9,24C649.9,538.1,649.3,543.5,648.7,548.2z
	 M470.3,279.7L470.3,279.7L470.3,279.7C470.3,279.7,470.3,279.8,470.3,279.7z M550.4,278.8c-0.3-0.8-0.7-1.5-1.1-2.3l0.4-0.1
	c0,0,0-0.3-0.1-0.7c0.2,0.1,0.3,0.1,0.5,0.2s0.3,0.2,0.5,0.3c0.1,1.2,0.5,2.4,1.2,3.4C551.3,279.4,550.9,279.1,550.4,278.8
	L550.4,278.8z M565,300.7c0,1.3,0,2.6-0.1,3.9l0,0c-0.4-0.4-0.7-0.8-1-1.1C564.4,302.5,564.7,301.6,565,300.7L565,300.7z
	 M557.7,289.1c0.2,0.2,0.5,0.5,0.7,0.7c0.5,0.8,0.9,1.5,1.4,2.3c0.3,1.5,0.4,3.1,0.4,4.6c-0.7-1.5-1.8-2.7-3.3-3.5
	c-0.5-1.1-1-2.2-1.3-3.4c-0.2-0.8-0.4-1.5-0.5-2.3C555.9,288,556.8,288.5,557.7,289.1L557.7,289.1z M560.3,317.5c-1.1,1-2.2,2-3.3,3
	l0.8-5.4c0.3,0.5,0.7,1,1.1,1.4C559.3,316.9,559.8,317.2,560.3,317.5L560.3,317.5z M560.2,323.9c-0.4,0.8-3.5,4.5-4.8,3.9
	c0.2,0.1,0.6-1.5,1-3.2c0.7,0.6,1.8,0.5,2.5-0.2c0.6-0.6,1.2-1.2,1.9-1.9C560.6,323,560.4,323.5,560.2,323.9L560.2,323.9z
	 M560.5,311.5c0.9-1.2,1.6-2.4,2.1-3.8c0.5,0.5,0.9,1.2,1.2,1.9c0.3,1.2-0.5,3.1-1.2,4.8l-0.4-0.2
	C561.4,313.5,560.8,312.5,560.5,311.5L560.5,311.5z M566.5,329c-0.1,0.4-0.3,0.7-0.4,1.1c-2-0.5-3.5-0.9-4.4-1
	c1-0.7,1.8-1.6,2.4-2.6c1.2-2,2.1-4.1,2.6-6.4C567.4,323,567.4,326.1,566.5,329L566.5,329z"/>
<path class="st3" d="M450.3,334.7c-0.8,0.3-1.6,0.6-2.3,0.9l0.3,0.3L450.3,334.7z"/>
<path class="st7" d="M259.9,641.9c1.8,0,3.6,0.2,5.3,0.6c0,0,1.2-6.5-1.8-8.8c-1.1-0.8-2.3-1.3-3.6-1.5
	C259.8,635.6,259.8,638.9,259.9,641.9z"/>
<path class="st8" d="M264.5,599.3c-0.5-1-0.9-2-1.4-3c0.2,1.8,0.2,2.8,0.2,2.8S263.8,599.2,264.5,599.3z"/>
<path class="st7" d="M259.9,618.7c1.2,1.7,2.3,3.5,2.3,4.3c0,1.8,3.5,4.7,3.5,4.7s4.7,0.6,4.1-5.9c-0.5-5.7-3.3-9.5-3.6-13.5
	c-1.9,1.1-4.1,1.7-6.4,1.8C259.9,613,259.9,615.8,259.9,618.7z"/>
<path class="st7" d="M494.5,619.4c-2.4-6.5-5.9-10.6-7.1-17.1c-4.7-21.5-7.2-43.4-7.7-65.4c-0.6-34.2-14.1-66.6-15.9-71.9
	c-1.2-3.4-0.1-17.2,0.8-26.5c4.5-3.2,7.5-5,8.6-6.5c1.8-2.4,0.6-4.1-1.2-8.8s-18.9-64.2-23-69c-2.8-3.1-6-5.9-9.4-8.3
	c-1.7,0-3.3-0.2-5-0.4c-6-0.7-11.9-2.4-17.4-4.9c-10.9-5.2-19.6-10.3-24.9-15l2.5-1c0,0,2.3-4.7,2.3-6.5s1.2-20,1.2-22.4
	s3-17.1,4.7-21.2c1.4-3.2-1.1-6-3.4-7.4c0.7-6.2,0.3-12.5-1.3-18.5c-3-10-15.3-21.8-20.6-24.2c-5.3-2.4-15.3-2.9-15.3-2.9
	s-11.2-1.2-17.1,1.2c-5.9,2.4-18.3,20.6-19.5,26.5c-1.2,5.9-3.5,14.7-3,21.2c0,0.2,0.1,0.6,0.2,0.8c-1.2,7-2.6,15.9-2.6,18.6
	c0,4.7-2.4,8.8-2.4,11.2s-3,8.8-2.4,15.3c0.2,4.1,0.2,8.2-0.1,12.4c-0.9,1.1-1.6,1.8-1.6,1.8s-20.5,4-32.5,7.9
	c-4,1.3-7.1,2.7-8.2,3.9c-4.1,4.7-5.3,7.7-5.3,7.7s-14.2,28.3-17.1,39.5s-8.2,35.4-8.8,38.3s3.5,10.7,3.5,10.7s2.3,0.7,5.7,1.7
	l0.2,9.5c0,0-8.8,30.1-10.6,43.6s-8.8,66-9.4,70.1s-3.5,14.2-3.5,16.5s-0.6,8.8-0.6,11.2s-3,22.4-1.2,25.9s10.6,18.3,13.6,19.5
	s15.9,5.3,19.4,5.3h0.6c0-3,0-6.3,0-9.8c-3-0.8-6.4-1.1-7.6-3.2c-1.8-3-4.7-8.2-4.1-10.6s3.5-7.1,3.5-7.1l5.3,3.5c0,0,1.5,1.9,3,3.9
	c0-2.8,0-5.7,0.1-8.6c2.2,0,4.4-0.6,6.4-1.8c-0.1-0.6-0.1-1.2,0-1.8c0.2-2-0.6-4.5-1.8-7.2c-0.7-0.2-1.2-0.2-1.2-0.2s0-1-0.2-2.8
	c-1.3-2.4-2.4-4.9-3.2-7.5c-1.2-4.7-7.1-12.4-1.2-31.2c5.9-18.9,19.5-61.9,21.2-71.3c1.8-9.4,0.6-15.9,3.5-22.4
	c0.4-0.8,0.8-1.8,1.2-3c1.2-3.2,2.7-7.8,4-12.1c2.2-0.1,3.6-0.2,3.6-0.2l0.7,0c-0.8,10.5-1.8,23.5-2.5,27.2
	c-1.2,6.5-1.8,32.4-1.8,39.5s-1.2,20-2.4,24.2s-4.7,40.1-4.7,43s4.1,8.8,2.4,13.5s-1.2,8.8-1.2,10.6s0.6,7.1,0.6,7.1l4,0.4
	c-2,23.6-4.7,58.3-4,64.4c1.2,9.4,0,14.7-0.6,22.4c-0.6,7.7-2.4,11.8-1.8,15.9c0.6,4.1,3.5,10.6,3.5,10.6s1.8,10,0.6,12.4
	s-5.9,6.5-4.1,9.4s5.9,21.8,7.1,31.2s0,14.7,0.6,23.6c0.6,8.8,10,37.1,9.4,41.3s3.5,8.2,1.2,12.4c-2.4,4.1-1.8,20-0.6,24.2
	c0.9,3.3,2.8,2.4,8.2,7.1v5.9c0,0-2.4,4.7-3.5,19.5c-1.2,14.7-3.5,21.2-1.8,31.2c1.8,10,15.9,17.1,17.7,18.3
	c1.8,1.2,13,1.8,14.1-0.6s6.5-0.6,9.4-21.8s-3.5-30.1-3-36c0.3-3.5,1.1-11.3,1.7-17.3c0.7-0.3,1.3-0.6,1.9-1
	c1.5-1,3.2-11.6,4.8-27.6c0.3,7.5,0.4,14.4-0.1,17c-1.2,6.5,0,20.6,3.5,25.3c0.6,0.8,1.5,2.1,2.4,3.6l-1.2,6.4c0,0-3,11.2-3,17.7
	v10.6l4.1,2.4c0,0,1.2,8.2,0.6,13.5c-0.6,5.3,2.4,10,8.3,13.6c8.7,5.2,10.2,8.7,22.4,8.2c17.7-0.6,23-6.5,23-13.5s-10-14.2-10.6-23
	c-0.3-4.1-0.8-9.6-1.3-14.4c2.2-0.5,3.7-1,3.7-1s2.4-6.5,1.8-12.4s1.8-18.1,1.8-23.4s8.2-58.3,9.4-71.9s2.9-43.6,2.9-43.6
	c-0.6-3.2-1.4-6.4-2.4-9.5c-1.2-3,1.8-28.9,3.5-36s5.3-21.8,6.5-30.7s4.1-52.5,6.5-60.7c1.3-4.6,0.2-16.5-1-26.2
	c6.8-4.9,11.6-9.2,11.6-9.2s-10.6-74.9-10-83.1c0.1-2.7-0.1-5.4-0.5-8.1c-1.2-8.4-3.7-18.7-2.4-24.3c1-4.3,3.4-10.8,5.4-16.5
	c0.2,0.4,0.3,0.8,0.5,1.1c1,2.1,1.7,4.4,2.1,6.8l0,0c1.7,9,0.2,20,0.2,27.4c0,2.4,1.7,9,4.3,17.7c7.5,25.5,22.2,68.8,22.2,77.2
	c0,4-0.5,8-1.5,11.9c-1,3.8-2,6.5-2,8.7c0,4.1-0.6,16.5-1.2,21.2s2.4,14.1,2.4,14.1s4.7-3.5,5.3-5.3s0-10.6,0-10.6l3.5-3.5l1.8-1.8
	c0,0,4.1,12.4,3,15.9c0,0.2-0.1,0.3-0.2,0.5c-1.3,3.3-3.5,6.2-6.3,8.4c-2.4,1.8-1.8,4.7-1.8,7.1s10.6,0,10.6,0
	c0.6-0.1,1.3-0.3,1.9-0.5c1.3-0.4,2.4-1,3.4-1.9c1.8-1.8,13-14.7,13.6-16.5S496.9,625.8,494.5,619.4z M332.1,310.3
	c-1.7,1-3.5,1.7-5.4,2c0-4,0.3-8.6,1.2-11.4c1-2.9,3.2-10,5-15.7c1.5,2.7,2.6,5.2,2.6,6.9c0.3,4.9,0.9,9.7,1.8,14.5
	C335.3,308,333.3,309.4,332.1,310.3z M389,309.3c-0.1,2-0.8,4-2.1,5.6c-0.1-0.1-0.2-0.2-0.3-0.3c-0.6-0.5-1.2-0.8-1.8-1.2
	c0.3-3.1,1.1-6.1,2.4-8.9c0.6-1.1,1.4-2.8,2.3-4.9C389.2,303.6,389,307.4,389,309.3z"/>
<path class="st0" d="M379.9,193.6c0.4,1.1,9.9,0.7,11.2,0s0.4-3.1,2.9-4c2.4-0.9,7.5-2.2,8.4-2c0.9,0.2,4,2.2,7.3,0.7
	c3.3-1.5,4.4-2.9,9.5-3.1c1.1-0.1,2.1-0.2,3.1-0.6l-47.4,3.5C377,189.5,378.7,191.4,379.9,193.6z"/>
<path class="st0" d="M345,192.9c3.5-0.6,12.6-2.2,14.7-3.3l0.8-0.4l-13.7,1C346.1,191.1,345.5,192,345,192.9z"/>
<path class="st9" d="M464.7,188.1c4.7-0.9,10.5-5.6,15.1-7.6l-35.8,2.6l1.6,17.9c2.9-1.1,5.7-2.4,8.4-3.8c0.8-0.1,1.6-0.6,2.1-1.2
	c0.6-1,0.4-2.9,0.2-5.2c0-0.4-0.1-0.7-0.3-1.1c0.1-0.2,0.2-0.3,0.3-0.5C457.9,187.2,461.5,188.7,464.7,188.1z"/>
<path class="st9" d="M266.3,181.6c-2.2-2.2-5.3-2.1-8.8-3.4c-4.2-1.5-8.6-4.2-17.4-12.1c-8.8-7.9-29.1-17.2-30.4-17.8
	c-1.3-0.7-12.8-8.6-12.8-8.6s1.1-5.1-0.9-8.8c-2-3.7-6-7.5-6.2-9c-0.3-1.4-0.8-2.7-1.5-4l-2.2,1.1c0,0-9-7.3-9.9-8.4
	s-2.9,0.4-2.9,0.4v2.2c0,0-5.1-2.7-5.3-1.3c-0.2,1.3,1.1,4.4,1.1,4.4c-0.9,0.5-1.4,1.4-1.3,2.4c0.2,1.5,6.4,7.9,7.3,8.6
	s2.9,5.1,2.9,5.1s-7.5-6.4-8.6-6.6s-1.5,1.1-1.5,2.2c0,1.1,5.5,5.7,7,7s3.3,4.9,4,6.6c0.7,1.8,6,6.6,7.5,8.1
	c1.3,1.1,2.9,1.8,4.6,2.2l2.2,5.9c0,0,5.7,1.5,7.5,3.8c1.8,2.2,39,34.1,44,36.1c2.4,0.9,4.9,1.6,7.4,2.2c4-6.1,8.4-11.9,13.2-17.3
	L266.3,181.6z"/>
<path class="st9" d="M422.2,184.7c-1,0.3-2.1,0.5-3.1,0.6c-5.1,0.2-6.2,1.5-9.5,3.1s-6.4-0.4-7.3-0.7s-6,1.1-8.4,2s-1.5,3.3-2.9,4
	c-1.3,0.7-10.8,1.1-11.2,0c-1.2-2.2-3-4-5.1-5.4l-14.4,1.1l-0.8,0.4c-2.1,1.1-11.2,2.7-14.7,3.3c0.5-0.9,1.1-1.8,1.8-2.7h-0.3
	l-5-53.4c-5.8-2-9.9-2-11.2-1.4c-1.8,0.9-18.1,11.2-18.7,16.3c-0.7,5.1,3.5,17.2,4.2,21.4c0.7,4.2,0.4,4.8,1.5,5.7
	c1,0.7,1.7,1.7,2,2.9c0,0.7,1.5,4.2-2.2,4.4c-3.7,0.2-7-3.1-7-3.1s-3.1-3.3-5.1-4.2c-2-0.9-7.7-0.9-9.5-2.2c-0.3-0.2-0.6-0.4-1-0.6
	c-6.3,14.1-16.5,35.1-20.7,42.8c1.6,6.4,7.6,20.3,5.2,24.8c-2.6,4.9,0.7,4.4-3.5,5.7s-10.3,8.6-12,15.6c-1.8,7-9.2,24.2-2.6,28
	c6.6,3.8,13.9,3.7,14.3,6.6s3.1,8.6,4.4,7.9c1.7-0.5,3.4-0.9,5.2-1l-0.3,0.6c0,0,3.8,18,2.8,29.7c11.9-3.3,27-6.3,27-6.3
	s0.7-0.7,1.7-1.8c0.3-4.1,0.4-8.2,0.1-12.4c-0.6-6.5,2.4-13,2.4-15.3s2.4-6.5,2.4-11.2c0-2.7,1.4-11.6,2.6-18.6
	c-0.1-0.3-0.2-0.6-0.2-0.8c-0.6-6.5,1.8-15.3,3-21.2c1.2-5.9,13.6-24.2,19.5-26.5c5.9-2.4,17.1-1.2,17.1-1.2s10,0.6,15.3,3
	c0.7,0.3,1.4,0.7,2,1.1c0-1.5-0.1-3-0.2-4.4c5.8-1,11.5-2.4,17.1-4.3c7.3-2.6,25.1-9.8,33.4-13.5h1.7l-2-19.3L422.2,184.7z"/>
<path class="st9" d="M360.5,189.3l14.4-1.1c-0.6-0.4-1.3-0.8-2-1.2C369.3,185.2,363.5,187.8,360.5,189.3z"/>
<path class="st10" d="M288.1,174.8c-0.7,0.7-11.2,2.5-12.4,8.9c-1.6,0-2.7,0.1-3,0.1c-1.3,0.2-3.1,3.3-5.2-0.7
	c-0.3-0.6-0.7-1.2-1.2-1.7l-0.9,1.1c-4.9,5.4-9.3,11.3-13.2,17.4c3.6,0.9,7.1,1.8,8.7,3.1c2.3,1.8,7.8,6.4,11.5,8
	c0.4,2.2,0.8,4.5,1.1,6.3c0.1,0.4,0.2,0.9,0.3,1.4c4.2-7.6,14.4-28.7,20.7-42.7C292.2,174.9,288.8,174.1,288.1,174.8z"/>
<path class="st10" d="M346.6,190.2c0.1-0.1,0.2-0.3,0.4-0.4c1.8-1.5,2.9,0.5,3.7-3.1s1.5-7.5,1.5-7.5c1.3-1,2.3-2.4,2.9-4
	c0.7-2.1,1-4.2,0.9-6.4l-1.3-1.9c0,0,1.3-8.1,1.5-11.4c0.2-3.3,0.9-11.2-8.4-15.9c-2.2-1.1-4.4-2-6.6-2.8l5,53.4L346.6,190.2z"/>
<path class="st10" d="M479.9,180.4L479.9,180.4c4.7-2,6-3.8,5.7-5.4c-0.1-0.9-3.9,0.8-6.1,1.5c-2.2,0.7-1.3-0.8-1.3-0.8l1-1
	c0,0,6.9-4.7,7-6.2c0.1-1.6-1.8-1.4-2.9-0.6c-1.1,0.8-4.2,2.3-4.6,2.7c-0.8,0.5-1.6,0.9-2.5,1.1c0,0,7.8-7.2,8.6-8.8
	c0.9-1.6-1.2-2.1-2.5-1.2c-1,0.7-6,4.3-7.9,5.6c1.6-2.4,3.3-4.7,5.1-6.8c2.2-2.4,0.2-4,0.2-4c-2.6,1.4-4.9,3.3-6.8,5.5
	c-2.9,3.5-6.4,7.3-6.4,7.3s1.8-5.7,1.3-6.8c-0.4-1.1-0.4-2.2-2.2-0.2c-1.8,2-4.6,12.3-8.8,15.6c-1.1,0.9-3.4,1.5-6.2,2
	c-1.6-2.9-2.2-1-2.2-1c-0.8,0.5-1.6,0.8-2.5,0.9c-1.1,0.2-6.6,0.9-11,1.4c-2.8,0.1-4.8,0.1-5.2,0.2c-1.2,0.2-3.9,2.4-7.4,3.4
	l7.5-0.5l2,19.3c2.5,0,5-0.2,7.5-0.6c2.2-0.5,4.3-1.1,6.3-1.9l-1.6-17.9L479.9,180.4z"/>
<path class="st1" d="M358.7,45.9c0.1,0-0.1-0.9,0-1c6,5.3,8.2,16.2,4.5,23.4C351.2,69.8,352.5,50.5,358.7,45.9z"/>
<path class="st1" d="M458.4,36.6c2.7,3.8-1.8,7-5,9.2c-0.2-3.4-0.7-6.6-1.1-9.9C454.3,35.3,457.1,34.8,458.4,36.6z"/>
<path class="st1" d="M408.2,90.2c-5.1,15-11-6.7-5.3-12.1C409.5,71.9,409.7,86.1,408.2,90.2z"/>
<path class="st1" d="M443,71c11.1-3,11.5,10.8,0.3,10.7C443.4,78.2,443.3,74.6,443,71z"/>
<path class="st1" d="M456.8,106.1c1.6-0.1,3.1,0.6,4,1.8c-0.6,3.4-3.9,3.5-6.7,4.2C454.4,108.8,450.6,106.1,456.8,106.1z"/>
<path class="st9" d="M331.9,310.3c-1.7,1-3.5,1.7-5.4,2c0.1-4,0.3-8.6,1.3-11.4c1-2.9,3.2-10,5-15.7c1.5,2.7,2.6,5.2,2.6,6.9
	c0.3,4.9,0.9,9.7,1.8,14.5C335.1,308,333.1,309.4,331.9,310.3z"/>
</svg>
