<svg id="Layer_1" data-name="Layer 1" xmlns="http://www.w3.org/2000/svg" viewBox="0 0 726.14 982.89"><defs><style>.cls-1{fill:none;}.cls-2{fill:#a80000;}.cls-3{fill:#9e005d;}.cls-4{fill:#ed1c24;}.cls-5{fill:#8d0000;}.cls-6{fill:#d51c24;}.cls-7{fill:#730e03;}.cls-8{fill:#c1272d;}.cls-9{fill:#006837;}.cls-10{fill:#e6e6e6;}.cls-11{fill:red;}</style></defs><path class="cls-1" d="M395.2,223.08l-.2,0v0a19.82,19.82,0,0,1-2.37-1c-13.71-7.36-16.29-30.48-5.75-51.65,6.62-13.29,16.83-22.65,26.91-26a6,6,0,0,1,.5-3.33c.26-.63.55-1.28.87-1.93-.7-1.32-1.17-2.31-1.17-2.31S410.37,128,403.7,125s-6.36,0-11.52-.91-7.27-2.12-9.09-4.85c-.66-1-1.24-1.8-1.76-2.5-.14,0-.27.08-.41.08H335.41a10.79,10.79,0,0,1,.71,1.82,91.12,91.12,0,0,1-9.09,2.72c-2.12.31-3.94-.91-6.67-.91s-6.36,2.13-6.36,2.13a27.13,27.13,0,0,1-5.15,2.72c-3,1.22-9.4,4.25-10.31,7a8,8,0,0,1-.83,1.65c.65.51,1.09,1,1.14,1.38.3,2.43-1.21,7.58-2.43,10.61s2.12,25.76,2.43,37-.91,42.43-.91,57a32.79,32.79,0,0,0,.78,7.84c2.46-2.8,5.6-6.51,9.22-11.17,8.48-10.91,12.12-18.79,24.85-18.79s17.57,10.91,17.57,10.91,29.1-1.82,35.16,6.06,13.94,9.7,15.75,23.64-7.27,31.51-7.87,33.33c-.23.67.55,3.6,1.61,7,3.09-4.29,6.77-9.32,8.39-11.26,3-3.64,5.75-6.37,5.75-6.37s2.12-29.69,4.25-40a69,69,0,0,1,4.22-13.64L401,224.19A19.17,19.17,0,0,1,395.2,223.08Z" transform="translate(-119.53 -9.86)"/><path class="cls-1" d="M280.05,837.47c-.07,10.15-.27,19.43-.75,22.8-1.26,8.79-.63,29.5-.63,29.5l8.16,16.94,2.85,7.48c3.22-12.07,2.22-26.56,2.8-29.44.31-1.55,2-20.35,3.92-39.76-5-2.3-12.85-5-14.52-6.07A20.33,20.33,0,0,1,280.05,837.47Z" transform="translate(-119.53 -9.86)"/><path class="cls-1" d="M295,744.79c-5,11.93-6.28,24.48-7.53,28.87s-3.14,12.55-3.14,17-4.39,11.92-4.39,11.92.08,7,.13,16.08a6.63,6.63,0,0,1,3-1.51c7.46-1.6,14-4.14,17.1-6.38a60.12,60.12,0,0,1,1.7-9.44c.14-.36.3-.77.48-1.21-.12-5.36-.55-11.07.11-12.06,1.22-1.82,3-5.46,3-5.46s-4.07-32.27-6.72-53.57l-.14-.29C297.51,735.82,296.27,741.74,295,744.79Z" transform="translate(-119.53 -9.86)"/><path class="cls-1" d="M386.43,111.27a5.42,5.42,0,0,1-.27,1.33c1.35.83,1.42,2.44,3,3,1.82.6,7-2.73,7-2.73v-8.49c0-2.12-3.94-7.88-4.85-9.09-.69-.93-3.36-2.75-5.93-4a5.39,5.39,0,0,1,1.09,3.1Z" transform="translate(-119.53 -9.86)"/><path class="cls-1" d="M634.58,249.2a68.72,68.72,0,0,0-7.09.09A83.78,83.78,0,0,1,633.1,261C633.7,256.22,634.22,252.13,634.58,249.2Z" transform="translate(-119.53 -9.86)"/><path class="cls-1" d="M638.32,659.86c-.3,4-1.05,12.21-2.65,21.61,1.09-1.83,2.35-3.4,3.61-3.82,3.45-1.15,4.6-9.21,2.88-10.93s-.09-11.58-.09-11.58l.06-12.14c-.57.52-1,.84-1,.84A98,98,0,0,0,638.32,659.86Z" transform="translate(-119.53 -9.86)"/><path class="cls-1" d="M507.76,353.18a16.33,16.33,0,0,1-3.44,6.52l3.22,6.94.37,0s1,.16,2.68.52c-.62-5-1.61-10.31-2.48-14.47Z" transform="translate(-119.53 -9.86)"/><path class="cls-1" d="M317.64,109.51s.91,1.21,3.94,2.12a48.3,48.3,0,0,0,5.2,1.42,5.59,5.59,0,0,1-.36-1.78V94.4c0-.86-1-1.14-.6-1.87A4.7,4.7,0,0,1,324,90.41h-4.55L314.3,95s3.34,5.76,3.34,7.88Z" transform="translate(-119.53 -9.86)"/><path class="cls-1" d="M466.9,250s0-5.93,1.14-9.49a27.71,27.71,0,0,1,1.35-3.21l-8.9-1.71c.53,8.85,1.15,19,1.71,28A46.11,46.11,0,0,0,466.9,250Z" transform="translate(-119.53 -9.86)"/><path class="cls-1" d="M635.25,243.83l2.38-16.63a53.7,53.7,0,0,0-4.76,5.14c-.82,1.37-1.52,3-2.32,4.45a21.42,21.42,0,0,0,1.48,2.54C633,240.73,634.14,242.32,635.25,243.83Z" transform="translate(-119.53 -9.86)"/><path class="cls-1" d="M137.46,495l-5-1.88s-1.88,0-1.86-.09c.19-.65,1.33-4.57,2.48-7.44.79-2,.1-10.77-.52-17.12a97.14,97.14,0,0,0-3.24,11.47c-2.58,12,7.48,34,14.09,46.73-1.22-5.14-2.71-10.63-4-16C136.83,500.65,137.46,495,137.46,495Z" transform="translate(-119.53 -9.86)"/><path class="cls-1" d="M788.19,323l0,.36s1.8,1.51,4.22,3.41a44.15,44.15,0,0,1,.85-17.24l.26-1,0,.07C791.73,312.75,789.6,318.79,788.19,323Z" transform="translate(-119.53 -9.86)"/><path class="cls-1" d="M797.24,264c-2.32-.19-4.63-1.78-4.63-4a25.1,25.1,0,0,1,.22-2.75c-.49-.65-1-1.27-1.49-1.88-.9,1-2,2.21-3.57,3.93-3.69,4.15.92,15.22-2.77,24.9s-5.53,6-8.76,10.14c-1.06,1.37-1.32,5.9-1.19,11.34,1.53.72,3.18,1.54,4.88,2.5,3.66,2.06,5.73,5.82,6.89,9.09a154.68,154.68,0,0,1,8.09-18.55c3.78-7.12,5.26-16.35,5.84-22.52a25,25,0,0,0-1.46-7.68A33.11,33.11,0,0,0,797.24,264Z" transform="translate(-119.53 -9.86)"/><path class="cls-2" d="M302.48,788c-.66,1-.23,6.7-.11,12.06,2.93-7.41,10.19-26.41,10.19-26.41s-5-5.65-5-10.67.63-9.41.63-13.81-2.51-11.92-2.51-11.92-.45,5.44-6.87-8.28c2.65,21.3,6.72,53.57,6.72,53.57S303.7,786.19,302.48,788Z" transform="translate(-119.53 -9.86)"/><path class="cls-2" d="M428.61,327.12s4.57-16,7.43-21.95,16.57-29.66,22.86-36.77a27.53,27.53,0,0,0,3.3-4.76c-.56-9-1.18-19.19-1.71-28l-42.87-8.22A69,69,0,0,0,413.4,241c-2.13,10.31-4.25,40-4.25,40s-2.72,2.73-5.75,6.37c-1.62,1.94-5.3,7-8.39,11.26-1.06-3.42-1.84-6.35-1.61-7,.6-1.82,9.69-19.39,7.87-33.33s-9.69-15.76-15.75-23.64-35.16-6.06-35.16-6.06-4.84-10.91-17.57-10.91-16.37,7.88-24.85,18.79c-3.62,4.66-6.76,8.37-9.22,11.17a32.79,32.79,0,0,1-.78-7.84c0-14.54,1.21-45.76.91-57s-3.64-33.94-2.43-37,2.73-8.18,2.43-10.61c-.05-.4-.49-.87-1.14-1.38a8,8,0,0,0,.83-1.65c.91-2.72,7.28-5.75,10.31-7a27.13,27.13,0,0,0,5.15-2.72s3.64-2.13,6.36-2.13,4.55,1.22,6.67.91a91.12,91.12,0,0,0,9.09-2.72,10.79,10.79,0,0,0-.71-1.82h45.51c.14,0,.27-.07.41-.08.52.7,1.1,1.51,1.76,2.5,1.82,2.73,3.94,3.94,9.09,4.85s4.85-2.12,11.52.91S414,136.78,414,136.78s.47,1,1.17,2.31c-.32.65-.61,1.3-.87,1.93a6,6,0,0,0-.5,3.33c6-1.95,11.9-1.79,17,1a20.3,20.3,0,0,1,7.24,6.77l2.48,2.33a18.65,18.65,0,0,0-.46-1.86c-.6-1.82,1.22-6.37,1.22-7.88a32.72,32.72,0,0,0-.61-4.55,8.32,8.32,0,0,0,.3-4.54c-.6-2.1-3.26-6.83-5.66-6.95-.67-3.81-2.91-16.05-4.94-22.15-2.43-7.27-9.1-13.33-10.91-14.24s-6.37.61-6.37.61-2.72-2.12-3.94-1.82-4.24,1.51-4.24,1.51l-3.94-.6-2.42.3s-6.37-5.15-10-5.76a22.55,22.55,0,0,0-7.58.31,3.12,3.12,0,0,0,.17,2.16c-.08,0-.14,0-.22,0h-49a4,4,0,0,0-.5.1c-1.62-1.75-5.5-5.79-6.22-5.56-.91.31-8.18.61-9.39,1.52a75.49,75.49,0,0,1-12.12,5.45c-2.43.61-7.88,2.12-9.7,3.34s-8.18,7.27-12.43,15.76-2.72,14.84-3.63,17.57a19,19,0,0,0-.56,2.3,4.15,4.15,0,0,0-2.78,1.94c-1.21,2.73-1.51,9.1-3.63,14.25S254.3,198,253.09,203.75c-.94,4.47-3.16,27.56-4.11,38.38,5.55,3.1,11.22,9.49,11.22,9.49s5.7,0,11.4,5.7S283,263,288.7,274.43s5.7,11.4,5.7,22.8v1.17h12.15a6.84,6.84,0,0,1,4.65,1.88h6.58a1.06,1.06,0,0,1,0,2.12h-5a6.88,6.88,0,0,1,.58,2.35h34.17c.47-.63,1-1.05,1.47-1.05.87,0,1.67,1,2.38,2.7h11.42c.69-1.6,1.48-2.59,2.32-2.59,2.67,0,4.83,9,4.83,20.13s-2.16,20.12-4.83,20.12c-.93,0-1.79-1.15-2.53-3.06H351.44c-.72,1.83-1.57,2.94-2.48,2.94-.51,0-1-.43-1.47-1.06h-9.94a8.19,8.19,0,0,1,.87,1.88c.91,3.2,0,3.66,0,3.66a2.28,2.28,0,0,1,1.37,2.28c0,1.83-.46,5-3.2,6.86s-4.57,9.14-4.11,15.54,3.89,26,13.94,47.07,9.14,52.55,6.4,59.41-1.83,5.48-11,5.48c-7.26,0-21.41-4-26.93-5.69-.14,1.71-.29,3.24-.48,4.33-1.88,11.3,6.91,16.95,13.18,25.73s5.65,14.44,5.65,14.44,8.16,16.32,11.3,25.73,27,114.86,27,114.86.74,3.74-2.94,9.81c.18.57.33,1.09.43,1.48.17.68.38,2.07.63,4a52,52,0,0,0,11,3A120.54,120.54,0,0,0,384.3,708c4.85,18.19,12.73,29.09,18.19,50.91s4.24,22.88,4.24,22.88-2.43,9.25-1.82,11.67,0,7.27,0,7.27l.61,5.46s0,8.48-1.22,12.73-3.63,16.36-4.24,19.39,3,9.7,17,11.51,24.25-1.81,33.34-.6a58.71,58.71,0,0,0,18.78-.61c4.17-.91,7.88-7.27,4.25-15.15s-13.94-10.91-17-12.12-14.55-6.67-14.55-12.12-1.82-13.34-1.82-13.34.61-2.19,1.22-5.22-2.43-7.5-2.43-7.5.61-40.61.61-63c0-13.79-3-29.83-5.27-40.17a43.91,43.91,0,0,0,7.69-2.26c1.82-1.21.61-4.85.61-9.7s-1.82-12.12-2.43-16.36-2.42-46.06-2.42-46.06l3.64-1.82a25.37,25.37,0,0,0,1.21-6.67A82.94,82.94,0,0,0,441.28,585c-.61-3,1.81-21.82,1.81-21.82S457,554.67,453.4,548s-1.22-20.61-3-27.88-.61-4.85-3-16.36S437,454.66,437,454.66s1.82-9.09,1.22-10.91S437,431.63,437,431.63a121.23,121.23,0,0,0,1.22-23c-.17-3.31,0-11.86.29-22.5,1.36-1.65,2.13-2.65,2.13-2.65s5.85-25.72,9.76-43.79a26.09,26.09,0,0,1-7-2.46C433.18,331.27,428.61,327.12,428.61,327.12ZM391.27,95.26c.91,1.21,4.85,7,4.85,9.09v8.49s-5.15,3.33-7,2.73c-1.57-.53-1.64-2.14-3-3a5.42,5.42,0,0,0,.27-1.33V94.4a5.39,5.39,0,0,0-1.09-3.1C387.91,92.51,390.58,94.33,391.27,95.26Zm-71.82-4.85H324a4.7,4.7,0,0,0,1.82,2.12c-.36.73.6,1,.6,1.87v16.87a5.59,5.59,0,0,0,.36,1.78,48.3,48.3,0,0,1-5.2-1.42c-3-.91-3.94-2.12-3.94-2.12v-6.67c0-2.12-3.34-7.88-3.34-7.88Z" transform="translate(-119.53 -9.86)"/><path class="cls-2" d="M280.06,818.61c0,5.81,0,12.51,0,18.86a20.33,20.33,0,0,0,1.83,1.45c1.67,1.11,9.5,3.77,14.52,6.07,1.26-12.72,2.63-25.7,3.79-34.27-3.12,2.24-9.64,4.78-17.1,6.38A6.63,6.63,0,0,0,280.06,818.61Z" transform="translate(-119.53 -9.86)"/><path class="cls-2" d="M295,362.59a106.55,106.55,0,0,1,1.58-12.18h-7.9v3.83c0,11.4-20.5,8.59-20.5,10.47,0,4.75,18.37,16.08,15.73,17.53a30.36,30.36,0,0,1,2.9,2.93c1.25,1.88,5.65,10.67,5.65,10.67l6.9,4.39,2.51,4.39,6.28,1.89a18.42,18.42,0,0,1,2.47,1.83A43.72,43.72,0,0,0,309,395C306.21,385.89,295,366.7,295,362.59Z" transform="translate(-119.53 -9.86)"/><path class="cls-3" d="M541.9,191.41a5.19,5.19,0,0,0-1.82,1.57,2.44,2.44,0,0,0-.16.52,16.27,16.27,0,0,1,2-1.58Z" transform="translate(-119.53 -9.86)"/><path class="cls-4" d="M471.42,306.26l5.44-2.52c4.18-1.93,9.86,1,11.15,3.78l11.69,25.23a11.49,11.49,0,0,1,4-.78c2.37.18,3,2.16,4.47,5.81s4.33,7.14,3,10.3a24.27,24.27,0,0,1-3,4.65c.87,4.16,1.86,9.44,2.48,14.47,4.52,1,13.54,3.38,17.6,7.78,5.54,6,12,13.37,12,13.37L564.62,399S581.21,404,592.74,404c6,0,15.46.75,23.18,1.47a267.94,267.94,0,0,1,.26-33.37c.11-1.41.33-3.36.62-5.65a6.24,6.24,0,0,1-.62-2.4c0-4.6,1.73-32.21,1.73-32.21l5.46-20.15c-1.79-1.54-3.57-3.07-5.46-4.59-14.2-11.36-15-14.95-15-14.95L592.6,273.66l-1.73-5.76s-1.15,1.16-8-8,1.15-23,1.15-23,5.75-19.56,8-23.58c1.78-3.11,12.81-25,18-35.62-11-2.13-39.39-5.33-43.14-5.33-4.57,0-21.71,7.12-23.43,10.08-.78,1.36-1.2,4.3-1.43,7.1a6.86,6.86,0,0,0-2.91,3.15,7.71,7.71,0,0,0-.55,2.51,8.31,8.31,0,0,0-.51.85c-1.55,3.49-6.12,1.8-6.12,1.8s2.8,2,5,.63a8,8,0,0,0,1.66-1.46,20.76,20.76,0,0,0,1,4.73c-1.68,4.41-4,10.07-5.28,12.13-2.28,3.56,0,8.9,0,8.9s-.48,4.35-1.2,8.84c-1.5,2.66-4.31,4.58-3.94,6.52.57,3,.33,3.26,3.19,5a4.66,4.66,0,0,0,1.18.56c0,10.12,5.15,15.68,6.72,21.09-5,1.69-14.95,4.64-21.95,4.21-9.71-.59-12.57,3.56-13.71,5.34s-9.71,6.52-13.14,10.08-12,3-12,3,1.71-9.49,6.28-16,6.86-15.42,12-17.2a16,16,0,0,0,9.14-9.49.79.79,0,0,0,0-.17l1.51.29c3.26,1.75,7.93-.91,10.43-5.94,2.29-4.6,1.95-9.56-.62-11.71L440.52,154.4c.47,2.27,1,5.41,1.66,6.32.91,1.21,2.13,6.36,2.13,6.36s16.06,35.15,15.75,39.09a63.79,63.79,0,0,1-.91,7l1.34,22.46,8.9,1.71a27.71,27.71,0,0,0-1.35,3.21c-1.14,3.56-1.14,9.49-1.14,9.49a46.11,46.11,0,0,1-4.7,13.63c.46,7.46.89,14.13,1.2,18.6,1.21,17.57-8.18,32.42-9.7,41.51-.43,2.61-1.69,8.64-3.27,15.91,7.82,1.81,18.55,2.29,26.13,2.37l-11.14-24C464.13,315.21,466.82,308.4,471.42,306.26Zm68.3-110.68c.62-.83,1.13-1.54,1.56-1.69.14,0,.33-.06.51-.09,0,1.26,0,2.13,0,2.13s-.5,1.4-1.26,3.44A18.35,18.35,0,0,1,539.72,195.58Z" transform="translate(-119.53 -9.86)"/><path class="cls-5" d="M634.58,249.2l.59-4.78.08-.59c-1.11-1.51-2.26-3.1-3.22-4.5a21.42,21.42,0,0,1-1.48-2.54,7.52,7.52,0,0,1-3.44,3.61c-2.87,1.15-5.11,2.08-2.3,5.18a24.23,24.23,0,0,1,2.68,3.71A68.72,68.72,0,0,1,634.58,249.2Z" transform="translate(-119.53 -9.86)"/><path class="cls-4" d="M419.15,214.66a33.59,33.59,0,0,1,.31-4.24s-4.25-49.7-3.64-53.94a22.24,22.24,0,0,0,0-7.88c-.21-1.65-1.67-2.46-2-4.25-10.08,3.31-20.29,12.67-26.91,26-10.54,21.17-8,44.29,5.75,51.65a19.82,19.82,0,0,0,2.37,1v0l.2,0a19.17,19.17,0,0,0,5.78,1.11l16.64,3.19a12,12,0,0,0,.93-2.42C418.55,224.05,419.15,216.78,419.15,214.66Z" transform="translate(-119.53 -9.86)"/><path class="cls-4" d="M613.32,693.4c1.37-3.36,14.42-6.39,21.23-9.88.34-.69.72-1.39,1.12-2,1.6-9.4,2.35-17.64,2.65-21.61a98,98,0,0,1,2.85-16s.39-.32,1-.84l0-7.89c-7.25-15.24-24.47-42.43-28.22-52.2-4.61-12,.92-17.06,5.07-21.21,1.63-1.62,5.74-4.17,10.32-6.81-.23-1-.4-1.92-.5-2.72a10.5,10.5,0,0,1,1.72-7.48,8.21,8.21,0,0,1-5.17-6.33c-1-4.4-6.95-62.86-8.71-80.25-.07-.28-.14-.54-.19-.69a14.75,14.75,0,0,1-.32-3.19c-15.06-5.64-52.56-25.74-60.31-31.76-8.3-6.46-18-4.61-30-5.07s-18.44-9.69-18.44-9.69-.68-.28-1.59-.76c-1.15,6.54-2.2,13.76-2.81,21.59-1.71,21.94.3,44.45.62,48.64.8,10.27,2.15,25.38,6.1,33.69-.26,6.08-.75,20.58.14,29.77,1.14,11.86,5.56,102,5.56,102S513.18,657.48,512,667s-.57,36.78,0,44.49,1.71,62.87,0,65.24-17.72,7.71-20,7.12-12.57,10.08-9.14,21.94S500,819.41,505.18,820s24.57,9.49,26.28,8.9,9.72-5.93,10.86-8.9-4.57-24.32-1.71-38,8-27.88,14.85-45.67S565.18,687.73,564,683s6.29-22.54,6.29-24.91S576,656.3,576,656.3l5.15-14.24s1.14,33.22,2.85,45.67,7.43,53.38,8.57,59.91-2.28,23.13-4.57,28.47-.57,27.28-1.14,31.43,6.86,6.53,10.86,6.53,25.14-3,36-4.75,7.43.6,12-7.71-2.85-7.71-6.28-10.67-13.71-5.93-18.29-8.31-5.14-12.45-4-20.76,4.58-36.18,11.43-53.38c.09-.21.17-.43.25-.64C620.12,707.31,608.75,704.57,613.32,693.4Z" transform="translate(-119.53 -9.86)"/><path class="cls-4" d="M463.4,282.24c-.31-4.47-.74-11.14-1.2-18.6a27.53,27.53,0,0,1-3.3,4.76c-6.29,7.11-20,30.84-22.86,36.77s-7.43,21.95-7.43,21.95,4.57,4.15,14.86,10.08a26.09,26.09,0,0,0,7,2.46c1.58-7.27,2.84-13.3,3.27-15.91C455.22,314.66,464.61,299.81,463.4,282.24Z" transform="translate(-119.53 -9.86)"/><path class="cls-6" d="M430.8,145.3c-5.1-2.74-11-2.9-17-1,.35,1.79,1.81,2.6,2,4.25a22.24,22.24,0,0,1,0,7.88c-.61,4.24,3.64,53.94,3.64,53.94a33.59,33.59,0,0,0-.31,4.24c0,2.12-.6,9.39-.6,10.3a12,12,0,0,1-.93,2.42l42.87,8.22-1.34-22.46a63.79,63.79,0,0,0,.91-7c.31-3.94-15.75-39.09-15.75-39.09s-1.22-5.15-2.13-6.36c-.68-.91-1.19-4.05-1.66-6.32L438,152.07A20.3,20.3,0,0,0,430.8,145.3Z" transform="translate(-119.53 -9.86)"/><path class="cls-7" d="M629.75,210.27c0,5.34-2.46,18-2.46,18a51.59,51.59,0,0,0,3.26,8.56c.8-1.45,1.5-3.08,2.32-4.45a53.7,53.7,0,0,1,4.76-5.14l-2.38,16.63c2.19,3,4.21,5.59,4.21,5.59s-2.18-.14-4.88-.22c-.36,2.93-.88,7-1.48,11.77a83.78,83.78,0,0,0-5.61-11.68c-.42,0-.82.07-1.17.13a9.44,9.44,0,0,1-5.76-1.54,11.55,11.55,0,0,1-2.37,4,32.81,32.81,0,0,1-8.77,6.45c-1,1.57-2,2.8-2.35,3.28,6.74,4.65,16.67,11.32,19.25,12.08,4,1.19,15.42,3.56,16.57,5.94s7.43,6.52,7.43,6.52,13.71,3.56,16,10.08c1.27,3.6,7.92,23.29,14.31,41.5a47,47,0,0,0,6.18-7c3.68-5.54,15.67-4.61,15.67-4.61a17.73,17.73,0,0,1,3.23-2.31c1.32-.79,10.2-1.13,17.55-1.27l0-.57-5.53-6s-16.14,2.77-18.91-1.38-1.38-10.14-1.38-10.14-4.15-.93-4.61-4.15,4.15-6,4.15-6-4.15-2.76-4.15-4.15a31.75,31.75,0,0,1,.92-6c.46-1.84-1.38-3.23-1.38-3.23s-6.46-1.38-5.07-5.07,7.84-10.6,9.68-15.67S694.63,250,696,243.12s6-13.84,6-13.84,3.23-10.6,10.61-15.21,24.43-12.91,43.33-8.76c7.09,1.55,12.1,3.95,15.82,6.78.13-.12.26-.26.39-.37,6.33-5.76,6.33-20.71,7.48-36.24A38.84,38.84,0,0,0,775,154.37c-.18-3.33-.35-5.69-.35-5.69s-4.74-7.33-6-9.06-10.35-3.88-14.66-6-8.63-4.74-8.63-4.74l-4.93-2.7a12.78,12.78,0,0,0-3.31-3.58,68.64,68.64,0,0,0-8.08-2.67l-3.07-1.68-2.08-8.31-3.91-.36c.29-5.73.72-13.48,1-14.82.14-.66,1.37-4.31,3-9.23.91-.11,1.61-.21,1.93-.28,2.16-.43,7.77-6.9,9.06-10.78s0-9.92-1.72-11.65a2.59,2.59,0,0,0-2.08-.56c1.21-4.57,2-8.36,1.89-10.21-.43-6.9-2.15-19.84-3.88-22.43a63.84,63.84,0,0,0-6-6.9l2.59-1.3s-12.08-9.92-21.14-11.22-23.3,1.73-28.47,6.48-11.22,19-11.65,20.7,1.29,6,1.29,6-2.59,14.67-2.15,17.69c0,.2.07.51.13.89a7.1,7.1,0,0,0-2.54,1.68c-1.73,2.16-.86,3.45,1.29,9.06a45.67,45.67,0,0,0,4.3,7.69c1,5.59,1.9,10.78,2.42,13,1.3,5.61,8.2,13.8,8.2,13.8l4.08.84-1.31,13.38s1.3,1.73-6,5.18c-.29.14-.67.26-1,.39-6.2-5-16.2-13.15-17.09-14.63-1.29-2.15-4.31-6.9-6.9-6.47s-16.39,2.59-18.12,3-6.9,4.32-6.9,4.32l-.09.43H590.86a5.24,5.24,0,0,0-5.23,5.22V140a5.24,5.24,0,0,0,5.23,5.22h20.35l-1,1.73s8.62,2.78,13.58,4.09c0,.08-.12.16-.14.24-1.15,4-10.35,19-10.93,20.71-.13.39-1.16,2.55-2.7,5.69,2.4.46,4,.88,4.29,1.2C616,180.61,629.75,204.93,629.75,210.27Z" transform="translate(-119.53 -9.86)"/><path class="cls-7" d="M655.46,449.45c2.92,9.1,7.32,24.14,9.31,37.84L670.65,469a54.11,54.11,0,0,1-1.37-8.25c-.44-6,1.44-15.59,3.52-24-4.06,2.7-7.8,5.08-11.2,7.18l-2.71,2.46Z" transform="translate(-119.53 -9.86)"/><path class="cls-8" d="M663,533.59c3.21-2.34,7.07-5.22,10.73-8,1-5.93,1.9-10.44,2.42-12.78,2.77-12.45,1.39-12.91,1.85-17.06.13-1.16-.45-3.47-1.34-6.43Z" transform="translate(-119.53 -9.86)"/><path class="cls-7" d="M670,680.05c-4.8,1.28-8.41,1.72-9.52.61-4.61-4.61-13.37-27.21-15.22-37.35a18.7,18.7,0,0,0-.78-2.71,33.81,33.81,0,0,1-2.39,2.4l-.06,12.14s-1.64,9.85.09,11.58.57,9.78-2.88,10.93c-1.26.42-2.52,2-3.61,3.82a140.31,140.31,0,0,1-6.82,26.38,64.05,64.05,0,0,0,8.9-.08s16.35-3.3,22.87-3.45a66.88,66.88,0,0,0,13.59-1.57,133.79,133.79,0,0,1-4-20.71C670.14,681.41,670.09,680.72,670,680.05Z" transform="translate(-119.53 -9.86)"/><path class="cls-7" d="M741.36,713.66c1.73.42,3.51.78,5.21,1.09-1.13-4.56-2.17-8.59-3-11.76A100.63,100.63,0,0,0,741.36,713.66Z" transform="translate(-119.53 -9.86)"/><path class="cls-7" d="M617.83,249.45a9.68,9.68,0,0,1-2.64,3.13,12.3,12.3,0,0,1-3.48,1.65,28.58,28.58,0,0,1-1.34,2.58,15.11,15.11,0,0,0,4.28-2.67A15.27,15.27,0,0,0,617.83,249.45Z" transform="translate(-119.53 -9.86)"/><path class="cls-7" d="M650.41,382.61c-1.54-1.5-2.76-3.09-2.95-4.49a27.74,27.74,0,0,0-5.72-12.31v18.84a29.6,29.6,0,0,0,1.47,6.72l.25-.26A79.49,79.49,0,0,0,650.41,382.61Z" transform="translate(-119.53 -9.86)"/><path class="cls-8" d="M634.58,249.2c2.7.08,4.88.22,4.88.22s-2-2.62-4.21-5.59l-.08.59Z" transform="translate(-119.53 -9.86)"/><path class="cls-6" d="M634.55,683.52c-6.81,3.49-19.86,6.52-21.23,9.88-4.57,11.17,6.8,13.91,15.53,14.45a140.31,140.31,0,0,0,6.82-26.38C635.27,682.13,634.89,682.83,634.55,683.52Z" transform="translate(-119.53 -9.86)"/><path class="cls-6" d="M619,455.2c-.82-.24-1.78-.57-2.85-1a14.75,14.75,0,0,0,.32,3.19c0,.15.12.41.19.69,1.76,17.39,7.73,75.85,8.71,80.25a8.21,8.21,0,0,0,5.17,6.33,10.5,10.5,0,0,0-1.72,7.48c.1.8.27,1.72.5,2.72,6.54-3.76,14.06-7.69,16.73-9.38l18.7-58.22c-2-13.7-6.39-28.74-9.31-37.84l3.43-3.12,2.71-2.46c-15.59,9.6-24.14,13.18-24.14,13.18S631.47,458.89,619,455.2Z" transform="translate(-119.53 -9.86)"/><path class="cls-9" d="M642.13,643a33.81,33.81,0,0,0,2.39-2.4c-.56-1.56-1.36-3.41-2.35-5.49Z" transform="translate(-119.53 -9.86)"/><path class="cls-6" d="M584,236.84s-8.05,13.81-1.15,23,8,8,8,8l1.73,5.76L603,292.17s.76,3.59,15,14.95c1.89,1.52,3.67,3.05,5.46,4.59l-5.46,20.15s-1.73,27.61-1.73,32.21a6.24,6.24,0,0,0,.62,2.4c-.29,2.29-.51,4.24-.62,5.65a267.94,267.94,0,0,0-.26,33.37c7.14.66,12.78,1.3,12.78,1.3s3.64-4.09,14.51-15.42a29.6,29.6,0,0,1-1.47-6.72V365.81a27.74,27.74,0,0,1,5.72,12.31c.19,1.4,1.41,3,2.95,4.49,8.19-11.35,15.48-25.69,21.63-34.37a84,84,0,0,1,8.58-10.47c-6.39-18.21-13-37.9-14.31-41.5-2.28-6.52-16-10.08-16-10.08s-6.29-4.15-7.43-6.52-12.57-4.75-16.57-5.94c-2.58-.76-12.51-7.43-19.25-12.08.38-.48,1.32-1.71,2.35-3.28a32.81,32.81,0,0,0,8.77-6.45,11.55,11.55,0,0,0,2.37-4,9.44,9.44,0,0,0,5.76,1.54c.35-.06.75-.1,1.17-.13a24.23,24.23,0,0,0-2.68-3.71c-2.81-3.1-.57-4,2.3-5.18a7.52,7.52,0,0,0,3.44-3.61,51.59,51.59,0,0,1-3.26-8.56s2.46-12.62,2.46-18S616,180.61,614.32,178.84c-.31-.32-1.89-.74-4.29-1.2-5.2,10.62-16.23,32.51-18,35.62C589.72,217.28,584,236.84,584,236.84Zm27.74,17.39a12.3,12.3,0,0,0,3.48-1.65,9.68,9.68,0,0,0,2.64-3.13,15.27,15.27,0,0,1-3.18,4.69,15.11,15.11,0,0,1-4.28,2.67A28.58,28.58,0,0,0,611.71,254.23Z" transform="translate(-119.53 -9.86)"/><path class="cls-10" d="M845.55,466.72c-.93-20.75-7.38-47-7.84-53s-1.85-9.22-1.85-23.51-9.68-28.58-9.68-28.58A109.32,109.32,0,0,0,822,345.46a11.53,11.53,0,0,0-3.7-5.07,33.58,33.58,0,0,0,3.7-5.54c4.61-8.76.46-5.07,2.31-14.29S822,305.81,822,290.13,817,268,810,256.48a44.28,44.28,0,0,0-2.91-4.29c0-.1.12-.25.15-.33.69-1.61-.23-3-.92-4.61s-3.23-1.38-3.23-1.38a5,5,0,0,0-3-3.23,1.87,1.87,0,0,0-2.38,1c-2.07-1.23-3.87-2-5.23-2.87a47.5,47.5,0,0,1-9.22-12.91c-4.15-8.3-8.3-18.44-27.2-22.59s-36,4.15-43.34,8.76-10.6,15.21-10.6,15.21-4.61,6.92-6,13.83,2.77,12,.93,17.06-8.3,12-9.69,15.68,5.08,5.07,5.08,5.07,1.84,1.38,1.38,3.23a31.75,31.75,0,0,0-.92,6c0,1.39,4.15,4.15,4.15,4.15s-4.61,2.77-4.15,6,4.61,4.14,4.61,4.14-1.39,6,1.38,10.15,18.9,1.38,18.9,1.38l5.54,6,0,.57c-7.35.15-16.23.49-17.55,1.28a18.11,18.11,0,0,0-3.23,2.3s-12-.92-15.68,4.61-6.91,6.46-14.75,17.52-17.52,31.36-28.59,42.88-14.75,15.68-14.75,15.68-24.44-2.77-36-2.77-28.13-5.07-28.13-5.07l-24.43-10.6s-6.46-7.38-12-13.37-20.29-8.3-20.29-8.3l-.37,0-3.21-6.94a16.45,16.45,0,0,0,3.44-6.52,27.14,27.14,0,0,0,3.37-5.1c1.33-3.16-1.56-6.65-3-10.3s-2.1-5.64-4.47-5.81a11.49,11.49,0,0,0-4,.78l-11.69-25.23c-1.29-2.78-7-5.72-11.16-3.78l-5.43,2.52c-4.61,2.14-7.29,8.95-6,11.73l19.73,42.58c1.07,2.29,6.16,4.14,9.49,4L496.4,368c-2.68,2.11-6,6.56-7.71,7.85l-1.84,1.38a6.74,6.74,0,0,0,5.07,4.61l4.15.92a3.51,3.51,0,0,0-1.39,4.15,9.11,9.11,0,0,0,2.77,4.15,20.89,20.89,0,0,0,.46,3.69,5.13,5.13,0,0,0,1.85,3.23s.46,1.84,1.38,4.61,6.45,5.07,6.45,5.07,6.46,9.22,18.45,9.68,21.66-1.38,30,5.07,50.72,29.05,63.17,32.74S637.61,457,637.61,457s12.68-5.29,35.34-20.35c-2.08,8.45-4,18.09-3.53,24a55.37,55.37,0,0,0,1.37,8.25l-24.57,76.52c-4.55,2.88-23.1,12.25-27.05,16.2-4.15,4.15-9.68,9.22-5.07,21.21s29.5,50.26,31.35,60.4,10.6,32.73,15.21,37.34c1.12,1.12,4.73.68,9.53-.6,0,.66.1,1.36.16,2,1.84,19.82,12.9,47.49,12.9,52.56s0,28.58.47,32.73,1.84,10.15,1.84,10.15-2.31,16.13-.92,40.57,6.91,74.69,6.91,82.53a111.19,111.19,0,0,1-1.38,18c-.46,1.84-.92,5.07-.92,5.07l1,0a29.16,29.16,0,0,1-3.75,4.2c-5.53,4.61-33.66,20.75-39.19,22.13s-12.45,6-12,10.14,0,7.38,5.53,9.69,13.37,6,29.51,1.84,19.82-5.53,30.42-7.84,18.91-1.84,21.21-3.23,5.54-19.82,3.69-26.28c-.95-3.31-2.13-11.23-3.07-18.16,1.95-2.6,3.25-6.86,4-15,1.39-15.22,6-49.33,6.46-50.72s7.38-19.82,7.38-38.73-4.15-31.81-2.77-42,3.69-45.19,3.69-54c0-2.38,1-7.12,2.36-12.71,1.42,5.39,3.43,13.26,5.48,21.94,3.68,15.67,5.53,22.59,10.14,37.34s13.83,36,13.83,36L777.77,831s8.76,40.57,10.6,53,0,15.68-.46,22.13,1.39,9.68,1.39,9.68-1.85,5.53-1.39,8.76,3.23,6.46,3.23,6.46a26.3,26.3,0,0,1-1.84,7.37c-1.39,2.77-6.46,9.22-8.76,13.37s-12.45,10.15-15.68,16.14-4.15,14.29,1.85,16.14,25.81,2.3,33.65-1.85,26.28-14.75,30-18.9.46-7.38-.92-12.45-2.31-11.06-4.61-16.6-2.31-5.07-3.69-4.15,4.61-5.07,5.53-9.22-2.76-22.13-1.84-29,4.61-24.9,5.53-44.26-1.38-42-6.92-58.1a217.18,217.18,0,0,1-7.83-29,7.35,7.35,0,0,0-.46-4.15c-.93-1.85-.93-6-.93-6a161.7,161.7,0,0,1-2.3-24c0-11.07,3.23-27.2.46-35.5s2.31-34.58,6.92-60.4,1.84-54.4,1.84-54.4,1.84-7.84,3.23-17.52.46-33.2-1.85-33.2,3.69-3.69,8.3-7.38,11.07-15.21,11.07-15.21A118.38,118.38,0,0,0,845.55,466.72Zm-169.21,46.1c-.52,2.34-1.38,6.85-2.42,12.78-3.66,2.76-7.52,5.64-10.73,8l13.66-44.24c.89,3,1.46,5.27,1.33,6.43C677.72,499.91,679.11,500.37,676.34,512.82ZM793.45,309.5a44.16,44.16,0,0,0-.86,17.24c-2.41-1.9-4.22-3.41-4.22-3.41s0-.19,0-.37c1.42-4.18,3.54-10.22,5.35-14.39l0-.06C793.62,308.85,793.53,309.14,793.45,309.5Zm1.61-10.84a154.91,154.91,0,0,0-8.1,18.55c-1.15-3.27-3.22-7-6.88-9.1-1.71-.95-3.35-1.78-4.88-2.49-.13-5.44.13-10,1.19-11.34,3.23-4.15,5.07-.46,8.76-10.14s-.92-20.75,2.76-24.9c1.54-1.73,2.68-3,3.57-3.93.5.61,1,1.23,1.5,1.88a25.13,25.13,0,0,0-.22,2.74c0,2.24,2.31,3.83,4.63,4a33.11,33.11,0,0,1,2.05,4.51,25.28,25.28,0,0,1,1.46,7.67C800.31,282.31,798.83,291.53,795.06,298.66Z" transform="translate(-119.53 -9.86)"/><path class="cls-11" d="M394,962.46c-3.76-2.51-19.45.63-26.36-1.88S352,948.65,352,948.65l-11.24-6.9s1.83-6.28,3.08-8.16-.63-10.67-.63-10.67V889c0-8.16,16.95-60.88,17.58-63.39s6.9-10.67,9.41-19.45,3.14-24.48,3.14-24.48.63-23.22.63-40.17-3.77-60.88-5-65.9c-.1-.39-.25-.91-.43-1.49,3.68-6.06,2.94-9.81,2.94-9.81s-23.85-105.43-27-114.85-11.3-25.73-11.3-25.73.63-5.65-5.65-14.44-15.06-14.43-13.18-25.73c.19-1.09.34-2.62.48-4.33,5.52,1.66,19.67,5.69,26.93,5.69,9.14,0,8.23,1.37,11-5.48s3.66-38.39-6.4-59.41S332.79,379.38,332.34,373s1.37-13.71,4.11-15.54,3.2-5,3.2-6.86a2.27,2.27,0,0,0-1.37-2.28s.91-.46,0-3.66a8.19,8.19,0,0,0-.87-1.88h9.94c.47.63,1,1.06,1.47,1.06.91,0,1.76-1.11,2.48-2.94h11.11c.74,1.91,1.6,3.06,2.53,3.06,2.67,0,4.83-9,4.83-20.13s-2.16-20.12-4.83-20.12c-.84,0-1.63,1-2.32,2.59H351.2c-.71-1.67-1.51-2.71-2.38-2.71-.51,0-1,.43-1.47,1.06H313.18a6.82,6.82,0,0,0-.58-2.35h5a1.06,1.06,0,0,0,0-2.12h-6.58a6.84,6.84,0,0,0-4.65-1.88H294.26v-1.17c0-11.4,0-11.4-5.7-22.8s-11.4-11.41-17.1-17.11-11.4-5.7-11.4-5.7-7.89-8.92-14.17-10.8-12.55.62-12.55.62a168.32,168.32,0,0,0-19.45,2.51c-9.42,1.89-18.83,1.26-22.6,13.81S188.15,284,187.53,289s-7.53,28.87-6.91,35.15,6.28,7.53,3.77,15.06-.63,6.9-.63,16.95c0,1.48.05,2.94.17,4.39h-2.68s-.63-5-5-3.77a22.27,22.27,0,0,0-8.16,5s-1.88-.62-7.53,6.28S153,384.43,153,384.43s-11.93,29.5-18.2,38.91S126,439.66,127.9,449.7c.17.88.33,1.62.5,2.38a62.24,62.24,0,0,0-8.66,22.73c-2.51,16.94,17.58,65.27,17.58,65.27s5,3.76,8.16,1.88a5.79,5.79,0,0,0,.61-.47c3.21,10.59,18.44,38,20.72,43.15,2.52,5.65,12.56,19.45,15.07,17.57s-5-13.81-5-13.81L175,581.5s5.65,7.53,10.67,8.16a46.1,46.1,0,0,0,10.05,0s1.88,11.3,0,18.83-8.16,22-8.16,22,.62,3.77,3.13,3.77,6.91-1.88,6.91-1.88l4.39-6.28,1.65-3.17c-.22,8.76-.39,16.51-.39,18.86,0,6.28,5,10.67,5,10.67s3.14,6.28,3.76,8.79c.18.72,1.45,1.7,3.09,2.73a74.15,74.15,0,0,0-.58,8.56c0,17.58,14.44,63.39,14.44,63.39a49.33,49.33,0,0,0-1.26,10.67c0,5.65-3.13,23.22-3.13,23.22s-13.18,46.45-9.42,68.41,20.09,78.46,20.09,78.46v9.41c0,6.28,5,18.2,5,20.71s4.39,1.88,4.39,1.88l-1.88,17.58s1.88,15.06,18.2,14.43c11.28-.43,20.15-10.16,24.56-16.13.33,8.64,1.71,21.15,4.94,24.92,3.76,4.39,30.75,3.14,30.75,3.14s1.88-4.4,11.3-4.4,27,0,37.65-.62S399,980,400.92,974.39,397.78,965,394,962.46ZM129.16,479.83a97.14,97.14,0,0,1,3.24-11.47c.62,6.34,1.31,15.16.52,17.11-1.14,2.88-2.29,6.8-2.48,7.45,0,.05,1.86.09,1.86.09l5,1.88s-.63,5.65,1.88,15.69c1.34,5.35,2.83,10.84,4.05,16C136.64,513.86,126.58,491.85,129.16,479.83ZM296.46,350.3a106.71,106.71,0,0,0-1.58,12.17c0,4.12,11.19,23.31,13.93,32.45a43.72,43.72,0,0,1,1.69,13.31A18.42,18.42,0,0,0,308,406.4l-6.28-1.89-2.51-4.39-6.9-4.39s-4.4-8.79-5.65-10.67a30.36,30.36,0,0,0-2.9-2.93c2.64-1.45-15.73-12.78-15.73-17.53,0-1.88,20.5.93,20.5-10.47V350.3Zm5.29,450.86c-2.51,6.28-8.78,80.34-9.41,83.48-.58,2.88.42,17.37-2.8,29.44l-2.85-7.48-8.16-16.94s-.63-20.71.63-29.5.63-57.74.63-57.74,4.39-7.53,4.39-11.92,1.88-12.56,3.14-17,2.51-16.95,7.53-28.87c1.28-3,2.52-9,3.66-16.1,6.56,14.1,7,8.57,7,8.57s2.51,7.53,2.51,11.92-.63,8.79-.63,13.81,5,10.67,5,10.67S304.26,794.89,301.75,801.16Z" transform="translate(-119.53 -9.86)"/></svg>