<svg id="Layer_1" data-name="Layer 1" xmlns="http://www.w3.org/2000/svg" xmlns:xlink="http://www.w3.org/1999/xlink" viewBox="0 0 536.1 977"><defs><style>.cls-1{fill:url(#linear-gradient);}.cls-2{fill:#f2f2f2;}</style><linearGradient id="linear-gradient" x1="467.83" y1="57.53" x2="467.83" y2="989" gradientUnits="userSpaceOnUse"><stop offset="0" stop-color="#da1c24"/><stop offset="0.06" stop-color="#d41d25"/><stop offset="0.13" stop-color="#c42128"/><stop offset="0.2" stop-color="#ae272d"/><stop offset="1" stop-color="#9d272d"/></linearGradient></defs><path class="cls-1" d="M557.53,132.79v-.92c4.58-4.48,8.65-8.45,11.66-13.35L552,106.74c.94-16.27-1.55-29-7.63-38.33-15.09-8.47-32.29-12.34-53-10.38A193.83,193.83,0,0,0,467.1,94.94l-22.75,9.83c4,7.37,10.08,12.3,19.15,15.78v.91c0,9.94,0,20.23,1.09,30,1.44,11.32,4,21.7,9,31.49.62,0,1.09.54,1.59,1.51,1.54,2,3,5.43,2.5,8.39v.94c-1,.48-1.5,1.52-2.5,2-4.09,4-7.11,7.79-8.62,13.21-8.6,3.49-16.15,7.95-22.77,11.4a175.07,175.07,0,0,1-20.66,10.77c-7.15,3.41-14.19,10.84-20.29,23.15v.44a207.62,207.62,0,0,0-7.08,33.48c-1,12.81-3.54,24.68-8.55,34.94-3.55,8.88-7.57,19.21-11.59,30.55a66.69,66.69,0,0,0-4.15,33.41,10.49,10.49,0,0,0-2,2.05c-.43,1-1.48,2-2,2.87-.48,4.51-1.51,10.37-3,18.77-1.55,11.26-3.08,23.65-4.57,37.86a272.51,272.51,0,0,0-1.59,39.85c0,12.32,0,24.17-.4,35.55v1.36h0a4.19,4.19,0,0,0,2.49,1,197.83,197.83,0,0,1-12.71,25.68,20,20,0,0,0-2.51,4.43c-5,5.4-3.95,10.79,2.51,16.66,0,0,.58,0,.58.5a5.59,5.59,0,0,1-.58,3v2.9l-15.22-6-36.92,1.89L261.28,721l103.39,32.57,34.13.34,26.83-136.35-45.56-23.09,3.57-19.7c1-1,1-1.94,1.58-3h.4c-3.45-2.42-6-6.31-7.53-11.79l-2,1a5.28,5.28,0,0,0,1-2.5c4.59-7.34,6.1-15.73,5.13-25.54a41.06,41.06,0,0,0,11.11-1.46h.52a149.13,149.13,0,0,1,9.54-33A215.06,215.06,0,0,0,413,464.56c.92-6.93,2.94-13.34,4.48-19.23,1.5-4.91,3.06-9.84,4.54-14.27l.54-.5c-.54,4.93-.54,9.86-1.07,14.77h-1.95c-1,8.34-2.06,16.26-3,23.12a5.35,5.35,0,0,0,.51,2.49,3.15,3.15,0,0,0,.43,1.95,3.3,3.3,0,0,1-.43,2c-1.11,11.33-2.06,22.16-3.63,33a220.6,220.6,0,0,0-2,36.87c0,4.45.49,8.89.49,12.33,0,.49,0,1.44.5,1.44,8.64,7,17.12,11.82,25.82,14.75h.46a17.61,17.61,0,0,1-1,6.42v2a7.92,7.92,0,0,0,3,6.42,5,5,0,0,1,.47,3.9c0,2,0,3.44.53,4.4a1.71,1.71,0,0,1,.54,1.47s3.92,14.12,4.34,20.46,9.3,23.83,9.3,23.83c.45,4.41,2,9.36,3.1,14.81a154.26,154.26,0,0,0,10.54,28.08,210.05,210.05,0,0,0,16.68,26.53,85.66,85.66,0,0,1,10.57,22.11v1.52c-.39,11.27-2.94,21.69-8,30.06a14.14,14.14,0,0,0-2.57,8.35c0,1.48,0,3.39,1.06,4.37a69.46,69.46,0,0,0-1.06,11.38c-.53,12.78-.93,25.58-1.45,38.83-.51,12.79-1,26.08-1,38.85,0,12.34,0,23.71-1,34.53a19.93,19.93,0,0,0,10.53,4.4,44,44,0,0,0-7.59,21.68v1.47a5.18,5.18,0,0,0-1.93,2.43c-5.1,7.89-9.13,16.22-11.22,24.56a16.67,16.67,0,0,0-.92,2.53C466,966,464,973.39,466.54,980.32c7.65,8.34,18.78,10.74,33.34,6.9,13.71-3,21.73-10.35,23.84-22.63,2.47-11.85,6-22.71,12.15-31,5.48-8.81,4.58-16.78-2.1-23.65-.42-.5-1.5-1-1.5-1.46h5.54c1.59-12.29,4.1-24.58,6.56-36.43.55-4,1.59-7.89,2.63-12.81,10.53.54,17.63-4.46,22.19-14.75,3-8.36,4-18.15,3-30.05a8.42,8.42,0,0,1,1.47-6.86c7.61-9.87,12.71-20.18,15.16-31,1.08-6.9-1.44-11.29-7.55-13.82a5.9,5.9,0,0,1,1-2.46,13.74,13.74,0,0,1-6-4.37c-4.49-6.42-9.1-12.87-13.65-20.22v-.48a202.85,202.85,0,0,1,5-29.5,180.23,180.23,0,0,0,4.55-24.63c.5-4,1.47-7.87,1.47-11.85a298,298,0,0,1,5.63-36.87c2.53-12.36,4.58-24.19,6-36a121.83,121.83,0,0,0,.59-19.64,48.06,48.06,0,0,0,11.64-4.44A164.53,164.53,0,0,1,600,545.21a68.83,68.83,0,0,1,14.71-2.9c-3.58-11.41-5.56-23.16-7.11-34.46-1-11.37-1.9-22.15-3.48-32.52h5a134.32,134.32,0,0,0-3-29v-1h-1.58c-1.94-11.32-2.47-22.18-.43-33,1-2.95,1-5.88,1.58-8.84,1.9,3.95,5.43,7,10.54,8.84a44.14,44.14,0,0,0-1.53,11.34c-.55,11.82,1.53,23.14,4.61,33.49a206.5,206.5,0,0,1,7.54,33.89,264.93,264.93,0,0,1,3.54,35.42h2a5.3,5.3,0,0,0-1,2.52,12,12,0,0,0-1,3.48,6.39,6.39,0,0,0-1,3.87,6.18,6.18,0,0,1-3.11,3.44c-.49,0-.89,0-.89.51,0,1-1.12,1.5-1.61,2a3.43,3.43,0,0,0-1,2.9,8.25,8.25,0,0,0-.45,3.49c-.55,1.43-.55,3-1,4,0,.51-.55,1,0,1.89a2.13,2.13,0,0,0,.45,1.55s.55.48,1,.95c-.45,0-1,0-1,.49a17.75,17.75,0,0,0-1.55,7.38,8.22,8.22,0,0,1,1.1,3.4c.45,1.55,1.45,2.53,2.45,4.49a6.92,6.92,0,0,0,6.1,3,1.85,1.85,0,0,0,2-2c.55-.5,1-.5,1-.93v-.49c1,2.43,1.57,4.44,2.56,6.35,0,.45,0,.45.56.45,1,.54,2,1.06,2,2.56h1c2.6,0,4.07-1.5,5-4l.68-.52c3,1,6,.52,7.51-1.42.49,0,1-1,1-1,.54-.48.54-.48,1.07-.48a2,2,0,0,1,1.48-2.9v-.52h0c2-1,4.07-1.49,6.07-2.53,0-.41.52-1,.52-1,.49-.38,1-.38,1-1,.46-.51,1-.51,1-1.46.49,0,.49-.52.49-1,2.5-3.93,5-6.87,6.57-9.83.47-.48.47-.48.47-.92v-2c0-2-.47-3.89-.47-5.94v-.49a5.09,5.09,0,0,1-.51-2.41,16.39,16.39,0,0,0-2.48-6c-1.08-.45-1.08-1-1.56-1.47a8.3,8.3,0,0,0-1-3.38c-.53,0-1-1-1-1.55,0-1-.49-1.87-1.5-3.47a2,2,0,0,0-.55-1.38v-.57c3.61-.37,7.06-1,11.67-1.4,0-12.33,0-24.19-1.5-35.44-1.08-6.87-1.55-14.28-2.06-21.73-1.5-12.28-3.56-24.08-6.06-35.39a144.12,144.12,0,0,1-3.06-21.7v-7.81c0-7.42,0-14.77.52-22.09v-1.54a86.75,86.75,0,0,0-13.17-26.6v-2c0-12.74-.46-25.14-.95-37.4-1.05-12.76-3-24.53-6.54-35-3.59-9.23-7.14-17.58-11.18-24.49a2.53,2.53,0,0,0-1-2v-3.44a77.35,77.35,0,0,0-4-14.29h-1.12a123.42,123.42,0,0,0-16.68-5.4,265.84,265.84,0,0,1-32.83-11.73c-1.07-.53-1.53-1.09-2.54-1.6-8.59-3.85-17.66-9.83-25.76-16.2-1-4.39-3-7.35-7.05-8.83,1.05-9.36,2-19.22,2.51-29v-.49c10.09-1.53,15.17-8.85,15.62-22.19v-3.94M372,589.57l-12.68-5,.6-.48,1.49-5c2.47,1.53,5,2.56,6.57,1.53a12.31,12.31,0,0,0,6.55,3.46Z" transform="translate(-261.28 -12)"/><path class="cls-2" d="M557,23C529.84,10.72,491.32,7.36,463.17,20c-.15,6.17-1.13,13.87,5.6,17.65,26.47,10.65,58.55,13.59,88.66,9.11,5.61-1.26,6.44-7.15,6.59-12A14.67,14.67,0,0,0,557,23Zm-83.2,4.49c26.75-6.72,58.27-3.64,82.22,7.14C529.84,39,498.75,35.93,473.81,27.53Z" transform="translate(-261.28 -12)"/><path class="cls-2" d="M736.86,889.9a1.4,1.4,0,0,1-.69-.19c-21.42-.9-37.84-10.17-47.5-26.84C672.31,832,670.18,794.1,668.13,757.5c-3.09-55-6-107-53.32-136.66a104.94,104.94,0,0,0-20.13-9.62,1.38,1.38,0,0,1-.89-1.12l-1.61-13.9a1.36,1.36,0,0,1,.48-1.2,1.4,1.4,0,0,1,1.26-.27c38.07,11.1,65.31,49.81,72.87,103.54,3.3,18.84,4.21,38,5.09,56.54,1.43,30.25,2.79,58.83,13.63,86.71C696.16,865.66,719,871.6,731.72,873c16.37,1.18,37.56-2.88,46.61-28.49-.8.61-1.66,1.35-2.51,2.08-2.81,2.41-6,5.15-8.93,5.51a1.24,1.24,0,0,1-.43,0l-11-2.14a1.37,1.37,0,0,1-1.07-1.07,1.35,1.35,0,0,1,.57-1.4l1.72-1.15c7.89-5.28,22.57-15.1,27.35-28.77a1.36,1.36,0,0,1,.86-.84c4.72-1.56,8.92-.48,11.49,3a1.35,1.35,0,0,1,.26,1c-2.89,19-2.66,36.44.68,51.84a1.36,1.36,0,0,1-.41,1.28,1.34,1.34,0,0,1-1.31.31,8.8,8.8,0,0,0-2.08-.24c-1.78-.08-4-.16-5.75-2.38a1.92,1.92,0,0,1-.18-.31c-1.25-2.91-2.14-9.32-2.92-15-.13-.89-.25-1.77-.37-2.61-.3.58-.62,1.15-.93,1.7a26.3,26.3,0,0,0-2.19,4.65c-6.48,17-19.16,27.4-35.77,29.38a1.35,1.35,0,0,1-.77.29c-1.51.09-3,.14-4.49.14-1.07.06-2.19.1-3.3.12Z" transform="translate(-261.28 -12)"/></svg>