<svg id="Layer_1" data-name="Layer 1" xmlns="http://www.w3.org/2000/svg" viewBox="0 0 50.46 141.31"><defs><style>.cls-1{fill:#310c23;}</style></defs><path class="cls-1" d="M75.24,101.82a19.57,19.57,0,0,1-1.32-3.19,64.29,64.29,0,0,1-1.43-12.22C72.38,80,69.84,74,69.51,73a23.13,23.13,0,0,1,.16-5,10.31,10.31,0,0,0,1.6-1.21c.33-.44.11-.77-.22-1.65s-3.52-12-4.29-12.88A10.16,10.16,0,0,0,65,50.74a10.9,10.9,0,0,1-4.18-1A21.61,21.61,0,0,1,56.16,47l.47-.18a4.76,4.76,0,0,0,.44-1.21c0-.33.22-3.74.22-4.18a21.82,21.82,0,0,1,.88-4A1.16,1.16,0,0,0,57.53,36a9,9,0,0,0-.24-3.46,9.43,9.43,0,0,0-3.85-4.51,10.74,10.74,0,0,0-2.86-.55,8.86,8.86,0,0,0-3.2.22c-1.1.44-3.41,3.85-3.63,4.95a15.64,15.64,0,0,0-.55,4s0,.11,0,.16c-.22,1.3-.48,3-.48,3.48a16.41,16.41,0,0,1-.44,2.09,12,12,0,0,0-.44,2.86,17.92,17.92,0,0,1,0,2.31l-.31.33S34.72,49.2,34,50.08a5.75,5.75,0,0,0-1,1.43,63.49,63.49,0,0,0-3.19,7.37C29.22,61,28.23,65.49,28.12,66a5.11,5.11,0,0,0,.66,2l1.06.32,0,1.77a80.47,80.47,0,0,0-2,8.15c-.33,2.53-1.65,12.33-1.76,13.1s-.66,2.64-.66,3.08-.11,1.65-.11,2.09-.55,4.19-.22,4.85,2,3.41,2.53,3.63a19.61,19.61,0,0,0,3.63,1,5,5,0,0,1,1.1.11s.22-1.21-.33-1.65-1.76-.33-2.09-.88-.88-1.54-.77-2a7,7,0,0,1,.66-1.32l1,.66s1,1.21,1,1.54.66.88.66.88.88.11.77-1.1-.77-2-.66-2.86-1-2.43-1.21-3.31a7.44,7.44,0,0,1-.22-5.83c1.1-3.52,3.63-11.56,4-13.32s.11-3,.66-4.19c.25-.54.63-1.7,1-2.82.4,0,.68,0,.68,0h.13c-.14,2-.34,4.39-.46,5.08-.22,1.21-.33,6.05-.33,7.37a25.11,25.11,0,0,1-.44,4.52c-.22.77-.89,7.48-.89,8s.78,1.65.44,2.54a4.77,4.77,0,0,0-.22,2c0,.33.11,1.32.11,1.32l.74.07c-.37,4.41-.88,10.89-.74,12a17.22,17.22,0,0,1-.11,4.18,19.85,19.85,0,0,0-.33,3,9.85,9.85,0,0,0,.66,2,7.26,7.26,0,0,1,.12,2.31c-.23.44-1.11,1.21-.78,1.76a31.08,31.08,0,0,1,1.33,5.83c.22,1.77,0,2.76.11,4.41s1.87,6.93,1.76,7.7.66,1.55.22,2.32-.33,3.74-.11,4.51c.17.61.53.45,1.54,1.32v1.1a11.44,11.44,0,0,0-.66,3.63c-.22,2.76-.66,4-.33,5.84s3,3.19,3.3,3.41,2.42.33,2.64-.11,1.21-.11,1.76-4.07-.66-5.62-.55-6.72c.07-.64.21-2.12.31-3.23a1.64,1.64,0,0,0,.35-.18c.29-.19.59-2.16.9-5.16a22.07,22.07,0,0,1,0,3.18c-.22,1.21,0,3.85.67,4.73l.45.68-.23,1.19a17.62,17.62,0,0,0-.55,3.31v2l.77.44a12.83,12.83,0,0,1,.11,2.53,2.64,2.64,0,0,0,1.54,2.53c1.62,1,1.91,1.62,4.18,1.54,3.3-.11,4.29-1.21,4.29-2.53s-1.87-2.64-2-4.29c0-.77-.15-1.8-.24-2.69.41-.09.68-.17.68-.17a6.13,6.13,0,0,0,.33-2.32c-.11-1.1.33-3.41.33-4.4s1.54-10.9,1.76-13.43.56-8.15.56-8.15a12,12,0,0,0-.45-1.76c-.22-.55.34-5.39.67-6.71s1-4.08,1.21-5.73.77-9.8,1.21-11.34a18.38,18.38,0,0,0-.18-4.88c1.26-.92,2.16-1.72,2.16-1.72s-2-14-1.87-15.53-.88-4.62-.55-6c.18-.8.64-2,1-3.08,0,.07.06.16.09.22.88,1.76.44,4.62.44,6.38s5,15.63,5,17.73-.66,3.08-.66,3.85-.11,3.08-.22,4a9,9,0,0,0,.44,2.64s.88-.66,1-1a11.72,11.72,0,0,0,0-2l1-1s.77,2.31.55,3a3.9,3.9,0,0,1-1.21,1.66c-.44.33-.33.88-.33,1.32s2,0,2,0a2.18,2.18,0,0,0,1-.44,31.24,31.24,0,0,0,2.53-3.09A18,18,0,0,0,75.24,101.82ZM55.2,43a8.45,8.45,0,0,0,.43-.92c-.05.74-.1,1.43-.1,1.8A1.82,1.82,0,0,1,55.14,45l0-.06a1.82,1.82,0,0,0-.34-.22A4.72,4.72,0,0,1,55.2,43Zm-9.91-1.87a23.61,23.61,0,0,0,.33,2.7c-.39.29-.76.56-1,.71a3,3,0,0,1-1,.37,8.26,8.26,0,0,1,.23-2.13c.18-.55.6-1.87.94-2.94A3.23,3.23,0,0,1,45.29,41.16Z" transform="translate(-25.04 -27.45)"/></svg>