<svg xmlns="http://www.w3.org/2000/svg" viewBox="0 0 55.66 123.28"><defs><style>.cls-1{isolation:isolate;}.cls-2{fill:#ae272d;mix-blend-mode:multiply;}</style></defs><g class="cls-1"><g id="Layer_1" data-name="Layer 1"><path class="cls-2" d="M77.64,96.3a20.61,20.61,0,0,0-1.87-3.85c-.66-.78-1.54-3.75-3-7.71a70.45,70.45,0,0,0-4.74-9.47l-1.33-3.13a4.57,4.57,0,0,0,1.33-1.49c.33-.77-4.73-10.57-5.61-12.33S59.58,56.11,58,55.56L57,55.21a4.54,4.54,0,0,0,.29-1.4,14.21,14.21,0,0,0-.35-1.93A2,2,0,0,0,57.13,50a4.65,4.65,0,0,0-.37-.74,3.06,3.06,0,0,0-.43-1.35,2.23,2.23,0,0,0-.5-.62h.23a.38.38,0,0,0,0-.75,2.82,2.82,0,0,1-.58,0,.45.45,0,0,1-.12-.06,13.35,13.35,0,0,0-.68-1.15,2.09,2.09,0,0,0-.68-.87.3.3,0,0,0-.16,0,2.94,2.94,0,0,0-.75-.38c-.2-1.66-.58-5-.66-5.52-.11-.77-1.87-2.31-5.62-2s-5.06.66-5.5,1.65a6.68,6.68,0,0,0-.44,2.31s-.22,1.43-.33,2l-.08.36a9,9,0,0,0-1.34.87c-.38.3-.87.62-1,1.12l-.09.06a7.08,7.08,0,0,0-2.78,4.05,2.29,2.29,0,0,0,.61,1.72s0,.09,0,.13A7,7,0,0,0,36,53.15a3.37,3.37,0,0,0,.79,1.42,3.31,3.31,0,0,0,.19.72l0,.05-.43.11c-.89.22-2.54.33-3.2,1.22s-1.87.88-2,1.87-3.41,8.91-3.85,10-.88,3.74-1.1,4.4a20.24,20.24,0,0,1-1,2.09l1.11.59-.67,5.63a71.9,71.9,0,0,0-2,10.86c-.27,4.39-.28,7.62-.72,8.59a21.42,21.42,0,0,0-.74,4.4,3.14,3.14,0,0,0,.31,2.3c.48.82,1.69,3.34,1.93,3.74s1.3,1.42,1.63,1.32a1.31,1.31,0,0,0,1-.22c.33-.33-.88-2.2-.88-3.19,0-.4,0-1.18,0-2a6.2,6.2,0,0,0,.64,1.69c.41.6,1.34.09,1.34.09a7.07,7.07,0,0,1-.24-2.44c.15-1.3.4-2.75,0-3.6s-.85-1.74-.27-4.66,3.67-10.69,3.55-12.33a42.35,42.35,0,0,1,1.2-6.93,66.77,66.77,0,0,1,1.08,8,11.33,11.33,0,0,1-1,3c-.11.55,0,3.09,0,5.62s2.31,7.59,2.31,7.59,4.74,14.43,4.74,15.09-.11,2.2-.11,2.2,0,4.73.33,5.06a8.46,8.46,0,0,0,3,1.54,6.76,6.76,0,0,0,.72-.09c1.35,5.33,4.51,17.87,4.67,19a19.18,19.18,0,0,1-.75,6.12A4.72,4.72,0,0,1,46,154.58c-1.12.85-1.47,4.19-1.47,4.19a2.35,2.35,0,0,0,2,1c1.48,0,3.36.2,4.87-.68a6.21,6.21,0,0,0,2.19-2.67,5.17,5.17,0,0,0,1.72-.83c1.39-1.06,2-3.33,2.54-5.33a5.23,5.23,0,0,1,1-2.45,11.16,11.16,0,0,0-2.66-5.31c-1.76-2.08-1.1-4.49-1-6.75,0-1.92,1-5.83-.69-10.68.55-.1.11-.11.11-.11l2.2-.88s1.54.22,2-.11-.44-4.84-.44-6.05a46.3,46.3,0,0,1,1.32-5.95s3.86-14.64,4-20.81-2.09-8.58-2.31-9.9-1.21-4.19-.66-5A2.43,2.43,0,0,0,61,74.5a.26.26,0,0,0,.11,0l.55,1.06s1.32,4.4,1.65,6,5.94,7.26,7.26,9.79,1.21,3.53,1.1,4.41a5,5,0,0,0,1,3.3,3,3,0,0,1,.44,2.31s1,.22,1.21-.44a9.06,9.06,0,0,0,.11-2.31,3.49,3.49,0,0,1,1.43,1.87,2.9,2.9,0,0,1-.33,2.2s0,1.1.33,1.1,1.21-.88,1.32-1.32.55-3.08.77-4A3,3,0,0,0,77.64,96.3ZM38.36,45.61h0Zm-.17.16s0,0,0,0l-.07,0ZM36.65,52.6a6.27,6.27,0,0,1-.07-1.3l.1.06A10.27,10.27,0,0,0,36.65,52.6Zm1.45-1.55a.36.36,0,0,1-.23,0s0,0,0-.05l-.13-.18A2.9,2.9,0,0,1,38,50.1l.12.16C38.26,50.47,38.7,50.8,38.1,51.05Zm.51-4.4a3.7,3.7,0,0,0-.89,1,1.88,1.88,0,0,0-.27,1,1.76,1.76,0,0,0-.1.3c0,.1,0,.19,0,.28a.69.69,0,0,1-.26.61.83.83,0,0,0-.27.69l-.13-.12a3,3,0,0,0,0-.52c0-.27-.08-.53-.08-.81,0-1.25.88-1.94,1.84-2.54.06,0,.12.1.13.14Zm.51-.53h0l.08.07Zm14.06-1.26.1,0,.09.06a1.48,1.48,0,0,0,.22.64,2.26,2.26,0,0,1-.26-.16,3.29,3.29,0,0,0-.21-.42l.08,0Zm2.88,4.67c0,.24,0,.48,0,.72h0c-.07-.07-.12-.15-.19-.22A4.4,4.4,0,0,0,56.06,49.53Zm-.45,1.3a.81.81,0,0,1,.22.35,1.79,1.79,0,0,1-.21.89l-.07,0a.8.8,0,0,1-.33-.49A2.87,2.87,0,0,0,55.61,50.83Zm-.93-3.47a.74.74,0,0,1,.13.12l.26.43a6.4,6.4,0,0,1,.08.87,1.32,1.32,0,0,0-.61-.65,4.86,4.86,0,0,1-.25-.63c0-.15-.07-.29-.1-.43C54.36,47.16,54.52,47.26,54.68,47.36Zm.5,5.31c-.21.18-.42.37-.62.57,0-.34.1-.68.14-1a1.4,1.4,0,0,0,.21.26A1.31,1.31,0,0,0,55.18,52.67Zm0,1.2c-.08.14-.66.84-.9.72,0,0,.12-.28.18-.6a.34.34,0,0,0,.47,0c.1-.12.23-.23.35-.35A2,2,0,0,1,55.15,53.87Zm1.19.94a1.8,1.8,0,0,1-.08.21l-.82-.2a1.56,1.56,0,0,0,.44-.48,4,4,0,0,0,.49-1.2A3.27,3.27,0,0,1,56.34,54.81Z" transform="translate(-22.39 -36.47)"/></g></g></svg>