<svg id="Layer_1" data-name="Layer 1" xmlns="http://www.w3.org/2000/svg" viewBox="0 0 45.95 147.61"><defs><style>.cls-1{fill:#da1c24;}</style></defs><path class="cls-1" d="M73,167.6c-.69-1.5-2.67-2.08-3.25-2.32S67,164,67,163a14.24,14.24,0,0,0-.35-2.55s.12-.42.23-1a2.47,2.47,0,0,0-.46-1.43s.12-7.78.12-12.07a38.37,38.37,0,0,0-1-7.69,8.48,8.48,0,0,0,1.47-.43c.35-.23.12-.93.12-1.85a24.91,24.91,0,0,0-.47-3.14c-.11-.81-.46-8.81-.46-8.81l.69-.35a4.63,4.63,0,0,0,.24-1.27,15.21,15.21,0,0,0-.24-2.32,36.76,36.76,0,0,1,.35-4.18s2.67-1.62,2-2.9-.23-3.94-.58-5.34-.11-.92-.58-3.13l-2-9.39A9.25,9.25,0,0,0,66.25,93c-.11-.35-.23-2.32-.23-2.32a22.91,22.91,0,0,0,.23-4.41c0-.63,0-2.27.06-4.31l.41-.5s2.2-9.69,2.49-11.43,2.09-4.58,1.86-7.94-.81-13.23-.81-13.23.11-.58.17-1.33-3-7.48-3-7.48a6,6,0,0,0-.4-1.22,9.93,9.93,0,0,1-.41-1.57c-.11-.35.23-1.22.23-1.51a6.63,6.63,0,0,0-.11-.87,1.65,1.65,0,0,0,.06-.87c-.12-.4-.63-1.3-1.09-1.33a39.27,39.27,0,0,0-.94-4.23,5.86,5.86,0,0,0-2.09-2.73c-.35-.17-1.22.12-1.22.12s-.52-.41-.75-.35-.82.29-.82.29l-.75-.12-.46.06a6.19,6.19,0,0,0-1.92-1.1,4.17,4.17,0,0,0-1.45.06.56.56,0,0,0,0,.41H45.91l-.1,0c-.31-.33-1.05-1.11-1.19-1.06a10.33,10.33,0,0,0-1.8.29,14.07,14.07,0,0,1-2.32,1,9.15,9.15,0,0,0-1.85.64,9.15,9.15,0,0,0-2.38,3,9.4,9.4,0,0,0-.7,3.36,3.24,3.24,0,0,0-.1.44.74.74,0,0,0-.53.37c-.24.52-.29,1.74-.7,2.73s-3.19,10-3.42,11.13S30,55.2,30,55.49a16,16,0,0,0-.43,1.71l0,0S28,63.32,27.4,66.92s2.2,17.4,4.17,21S33,102.3,33,102.3s.12,1.39.12,2.78-.12,3.25-.12,4.06-.11,3.13,0,4.18a19.19,19.19,0,0,0,1.16,3.36c.12.35,1.28,13.92,1.28,13.92a13.73,13.73,0,0,1-.46,1.86c-.24.58.81,3.59.58,4.06-.16.31.95.88,2.75,1.47,0,.45-.06.86-.09,1.19-.11,1.63.7,2.79,1,5.69s1.62,13,1.62,13-.35.7-.58,1,.23,3.72-.23,4.18a8.52,8.52,0,0,1-3.48,1.39c-1.62.35-1.28,3.25-1.28,3.25a10.43,10.43,0,0,0,1,.93c.35.23,2.09.81,3,1.27a15.76,15.76,0,0,0,6.73,1.74c2.67-.11,3.48-1.27,3.48-1.27a12.15,12.15,0,0,0,.23-3.95c-.23-2.2-1-4.4-1-4.87s-.23-.58-.23-.93a9.2,9.2,0,0,0-.12-1.62c-.12-.7-.58-.81-.7-1.28s.7-4.06,1.51-9.51A31.88,31.88,0,0,0,48.66,138c.55-.18.89-.32.89-.32s.7-.7.58-1.28a15.44,15.44,0,0,1-.58-1.86,20,20,0,0,1,1.51-3.13l.46,1.63c.47,1.62,1.51,5.1,1.51,5.1a8.89,8.89,0,0,0,2.2.62,23.5,23.5,0,0,0,.7,4.83c.93,3.48,2.44,5.57,3.48,9.75s.81,4.37.81,4.37a9.28,9.28,0,0,0-.35,2.24,5.06,5.06,0,0,1,0,1.39l.12,1a12.28,12.28,0,0,1-.23,2.44c-.23.81-.7,3.13-.81,3.71s.58,1.86,3.24,2.21,4.64-.35,6.38-.12a11.25,11.25,0,0,0,3.6-.12C73,170.33,73.68,169.11,73,167.6ZM57.26,26.32a5.37,5.37,0,0,1,.93,1.74v1.62s-1,.64-1.33.53-.32-.41-.58-.57a.76.76,0,0,0,.06-.26V26.16a1,1,0,0,0-.21-.6A3.78,3.78,0,0,1,57.26,26.32Zm-13.74-.93h.87a.94.94,0,0,0,.35.41c-.07.14.11.19.11.36v3.22a.94.94,0,0,0,.07.34,7.17,7.17,0,0,1-1-.27,1.54,1.54,0,0,1-.75-.4V27.77a5.47,5.47,0,0,0-.64-1.51ZM62.6,49.17c0,.41-.12,1.8-.12,2a17.72,17.72,0,0,0-1,3.08c-.41,2-.81,7.65-.81,7.65s-.53.53-1.11,1.22c-.3.37-1,1.34-1.6,2.16a5,5,0,0,1-.31-1.35c.12-.34,1.86-3.71,1.51-6.38s-1.86-3-3-4.52-6.73-1.16-6.73-1.16a3.75,3.75,0,0,0-3.36-2.09c-2.43,0-3.13,1.51-4.75,3.6-.7.89-1.3,1.6-1.77,2.14A6.24,6.24,0,0,1,39.4,54c0-2.79.23-8.76.18-10.91s-.7-6.49-.47-7.07a5.91,5.91,0,0,0,.47-2c0-.08-.1-.17-.22-.27a1.53,1.53,0,0,0,.16-.31c.17-.53,1.39-1.11,2-1.34a5.23,5.23,0,0,0,1-.52,3,3,0,0,1,1.21-.41c.53,0,.87.24,1.28.18s1.74-.52,1.74-.52a2.39,2.39,0,0,0-.14-.35h8.71l.08,0,.34.48a2.2,2.2,0,0,0,1.74.93c1,.17.93-.41,2.2.17a4.75,4.75,0,0,1,2,2.27s.09.19.23.44c-.06.12-.12.25-.17.37-.35.87.23,1,.29,1.45A4.12,4.12,0,0,1,62,38c-.11.81.7,10.32.7,10.32A6.44,6.44,0,0,0,62.6,49.17Z" transform="translate(-27.32 -24.06)"/></svg>