<svg id="Layer_1" data-name="Layer 1" xmlns="http://www.w3.org/2000/svg" viewBox="0 0 53.93 144.07"><defs><style>.cls-1{fill:#82000b;}</style></defs><path class="cls-1" d="M75.89,164.14c-.72-.48-3.72.12-5-.36a10.74,10.74,0,0,1-3-2.28l-2.15-1.32a9.22,9.22,0,0,1,.59-1.56c.24-.36-.12-2.05-.12-2.05v-6.48c0-1.56,3.25-11.65,3.37-12.13a27.56,27.56,0,0,0,1.8-3.73,26.2,26.2,0,0,0,.6-4.68s.12-4.45.12-7.69-.72-11.65-1-12.61L71,109a2.91,2.91,0,0,0,.56-1.87S67,86.91,66.4,85.1a51.44,51.44,0,0,0-2.16-4.92,4.47,4.47,0,0,0-1.08-2.76c-1.2-1.69-2.88-2.77-2.52-4.93,0-.21.06-.5.09-.83a24.26,24.26,0,0,0,5.15,1.09c1.75,0,1.58.26,2.1-1s.7-7.35-1.22-11.37a28.53,28.53,0,0,1-2.67-9c-.09-1.22.26-2.62.79-3A1.55,1.55,0,0,0,65.49,47a.44.44,0,0,0-.26-.44s.17-.09,0-.7a1.49,1.49,0,0,0-.17-.36H67c.09.12.18.2.28.2s.34-.21.48-.56h2.12c.15.36.31.58.49.58.51,0,.92-1.72.92-3.85s-.41-3.85-.92-3.85c-.16,0-.31.19-.45.5H67.7c-.14-.32-.29-.52-.46-.52s-.19.08-.28.2H60.42a1.15,1.15,0,0,0-.11-.45h1a.2.2,0,0,0,0-.4H60a1.32,1.32,0,0,0-.89-.36H56.8V36.8c0-2.18,0-2.18-1.09-4.36s-2.18-2.18-3.27-3.28a3.39,3.39,0,0,0-2.19-1.09A8.18,8.18,0,0,0,47.54,26a4,4,0,0,0-2.4.12,32.08,32.08,0,0,0-3.72.48c-1.8.36-3.61.24-4.33,2.64a27.79,27.79,0,0,0-.72,6c-.12,1-1.44,5.53-1.32,6.73s1.2,1.44.72,2.88-.12,1.33-.12,3.25a7.87,7.87,0,0,0,0,.84h-.52s-.12-1-1-.72a4.24,4.24,0,0,0-1.56,1s-.36-.12-1.44,1.2a8.12,8.12,0,0,0-1.44,3.12A67.24,67.24,0,0,1,26.28,61c-1.2,1.8-1.68,3.12-1.32,5a4.57,4.57,0,0,0,.1.46,11.84,11.84,0,0,0-1.66,4.35c-.48,3.24,3.36,12.49,3.36,12.49s1,.72,1.57.36a.87.87,0,0,0,.11-.09c.62,2,3.53,7.28,4,8.26s2.4,3.72,2.88,3.36-1-2.64-1-2.64L34,91.23s1.08,1.44,2,1.56a8.83,8.83,0,0,0,1.92,0,11,11,0,0,1,0,3.6,38,38,0,0,1-1.56,4.21s.12.72.6.72a4.65,4.65,0,0,0,1.32-.36l.85-1.2.31-.61c0,1.68-.07,3.16-.07,3.61a3,3,0,0,0,1,2,13.58,13.58,0,0,1,.72,1.68c0,.14.27.33.59.53a13.55,13.55,0,0,0-.11,1.64c0,3.36,2.76,12.13,2.76,12.13a9.47,9.47,0,0,0-.24,2c0,1.08-.6,4.45-.6,4.45s-2.52,8.88-1.8,13.09,3.84,15,3.84,15v1.8c0,1.21,1,3.49,1,4s.84.36.84.36l-.36,3.36a3.23,3.23,0,0,0,3.49,2.76c2.16-.08,3.85-1.94,4.7-3.08.06,1.65.32,4.05.94,4.77s5.89.6,5.89.6.36-.84,2.16-.84,5.17,0,7.21-.12,5.52-1.45,5.88-2.53S76.61,164.62,75.89,164.14ZM25.2,71.77a18.53,18.53,0,0,1,.62-2.19,14.11,14.11,0,0,1,.1,3.27,14.51,14.51,0,0,0-.47,1.43s.35,0,.35,0l1,.36a9.51,9.51,0,0,0,.36,3c.26,1,.55,2.07.78,3C26.63,78.28,24.71,74.07,25.2,71.77ZM57.22,47a21.19,21.19,0,0,0-.3,2.33c0,.79,2.14,4.46,2.67,6.21a8.5,8.5,0,0,1,.32,2.55,3.16,3.16,0,0,0-.47-.35l-1.21-.36-.48-.84-1.32-.85s-.84-1.68-1.08-2a7.75,7.75,0,0,0-.55-.56c.5-.28-3-2.44-3-3.35,0-.36,3.92.18,3.92-2V47Zm1,86.29c-.48,1.2-1.68,15.38-1.8,16a30.27,30.27,0,0,1-.53,5.63l-.55-1.43-1.56-3.24a49.55,49.55,0,0,1,.12-5.65c.24-1.68.12-11.05.12-11.05a6.44,6.44,0,0,0,.84-2.28,15.38,15.38,0,0,1,.6-3.24,31.06,31.06,0,0,1,1.44-5.53,15.24,15.24,0,0,0,.7-3.08C58.87,122.08,59,121,59,121a9.76,9.76,0,0,1,.48,2.28c0,.84-.12,1.68-.12,2.64a3.94,3.94,0,0,0,1,2S58.72,132.07,58.23,133.27Z" transform="translate(-23.36 -25.87)"/></svg>