<svg xmlns="http://www.w3.org/2000/svg" viewBox="0 0 61.28 131.27"><defs><style>.cls-1{isolation:isolate;}.cls-2{opacity:0.53;mix-blend-mode:multiply;}.cls-3{fill:#da1c24;}</style></defs><g class="cls-1"><g id="Layer_1" data-name="Layer 1"><g class="cls-2"><path class="cls-3" d="M74.73,76.1C74,74.62,70.14,63.27,69.7,62s-3.06-1.93-3.06-1.93a5.8,5.8,0,0,1-1.42-1.25c-.22-.45-2.41-.9-3.17-1.13a29.76,29.76,0,0,1-3.69-2.32,5.41,5.41,0,0,0,.45-.62,6.1,6.1,0,0,0,1.68-1.24,2.14,2.14,0,0,0,.46-.77,1.77,1.77,0,0,0,1.1.29,18.13,18.13,0,0,1,2.51,0s-.87-1.13-1.42-1.93A8.34,8.34,0,0,1,62.23,49a27.74,27.74,0,0,0,.47-3.44c0-1-2.62-5.67-3-6s-8.2-1.25-9.08-1.25-4.15,1.36-4.48,1.93a3.89,3.89,0,0,0-.27,1.35,1.33,1.33,0,0,0-.56.61,1.53,1.53,0,0,0-.11.48.83.83,0,0,0-.09.16c-.3.67-1.18.34-1.18.34s.54.39,1,.13a1.67,1.67,0,0,0,.31-.28,4.52,4.52,0,0,0,.2.9,17.58,17.58,0,0,1-1,2.32,2.12,2.12,0,0,0,0,1.71s-.09.83-.23,1.69c-.29.51-.83.88-.75,1.25.11.56.06.62.61,1a.63.63,0,0,0,.22.11c0,1.93,1,3,1.29,4a12.91,12.91,0,0,1-4.2.81c-1.86-.11-2.41.68-2.63,1s-1.86,1.25-2.51,1.93-2.3.57-2.3.57a9,9,0,0,1,1.21-3.07C36,56,36.46,54.3,37.44,54a3,3,0,0,0,1.75-1.81v0l.29.06c.63.33,1.52-.18,2-1.14a1.91,1.91,0,0,0-.12-2.24L26,34.42a3.87,3.87,0,0,0-1.38-1.29c-2.63-1.41-6.39.73-8.41,4.78s-1.52,8.48,1.11,9.89a3.07,3.07,0,0,0,.45.2h0a3.84,3.84,0,0,0,1.11.22L32,50.74c-.09.2-.19.41-.26.61a7.89,7.89,0,0,0-.21,1.82A8,8,0,0,1,30,56.69a52.1,52.1,0,0,0-4.38,7,40.16,40.16,0,0,0-1.42,4.2,17.25,17.25,0,0,0,2.84,1.93c2,1.14,8.1.91,8.1.91a21.78,21.78,0,0,1,3.06-.22c.33.11.87.79.87.79s1.13,4.43.91,6.47-1.21,5.34-1.53,9.54a62.1,62.1,0,0,0,.11,9.3c.16,2,.42,4.86,1.17,6.45a49.67,49.67,0,0,0,0,5.7c.22,2.27,1.06,19.53,1.06,19.53s-.44,2.83-.65,4.65a73.14,73.14,0,0,0,0,8.51c.1,1.48.32,12,0,12.49a9.7,9.7,0,0,1-3.83,1.36c-.44-.11-2.41,1.93-1.75,4.2s3.28,2.61,4.26,2.73,4.71,1.81,5,1.7a5.82,5.82,0,0,0,2.08-1.7c.22-.57-.87-4.66-.33-7.27a57.9,57.9,0,0,1,2.85-8.74A31,31,0,0,0,50.13,136c-.22-.9,1.2-4.31,1.2-4.76s1.09-.34,1.09-.34l1-2.73s.22,6.36.54,8.74,1.43,10.22,1.65,11.47a15.1,15.1,0,0,1-.88,5.45c-.44,1-.11,5.22-.22,6s1.31,1.25,2.08,1.25,4.81-.57,6.89-.91,1.42.12,2.3-1.47-.55-1.48-1.21-2.05a25.23,25.23,0,0,0-3.5-1.58c-.87-.46-1-2.39-.76-4s.87-6.92,2.18-10.21a35.51,35.51,0,0,0,1.86-9.31,18.59,18.59,0,0,1,.55-3.07,5.78,5.78,0,0,0,.88-.91,66.23,66.23,0,0,0,1.31-6.58,18,18,0,0,0,.44-4.31,27.42,27.42,0,0,1,.87-5.91,2.28,2.28,0,0,1,.22-.9,5.93,5.93,0,0,0,.22-1.37,45.54,45.54,0,0,0,.76-7c.16-3.08-1.18-7.75-2-10.19l.66-.6c.88-.79,6-5.45,6.56-6.24a13,13,0,0,0,1.42-4.43A11.54,11.54,0,0,0,74.73,76.1ZM59.25,54a2.26,2.26,0,0,0,.67-.31,1.81,1.81,0,0,0,.5-.6,2.75,2.75,0,0,1-.61.9,2.89,2.89,0,0,1-.81.51C59.09,54.31,59.17,54.14,59.25,54ZM45.89,42v.1a3.57,3.57,0,0,0-.38.3l0-.1A1,1,0,0,1,45.89,42Zm-.42.8a1,1,0,0,1,.3-.32l.1,0c0,.24,0,.41,0,.41s-.09.27-.24.66A4.52,4.52,0,0,1,45.47,42.75ZM66.53,80.3a10.13,10.13,0,0,0-.86,1.42c-.21-1.08-.67-2.21-.67-2.78V75.33a5.31,5.31,0,0,1,1.09,2.36c.11.79,2,1.93,2,1.93A11.9,11.9,0,0,0,66.53,80.3Z" transform="translate(-14.98 -32.69)"/></g></g></g></svg>