<svg id="Layer_1" data-name="Layer 1" xmlns="http://www.w3.org/2000/svg" viewBox="0 0 990.82 37.15"><defs><style>.cls-1{fill:#c1272d;}</style></defs><path class="cls-1" d="M15.22,8.56H4.93V6.16H28.12v2.4H17.83V42H15.22Z" transform="translate(-4.93 -5.49)"/><path class="cls-1" d="M35.34,6.16H38V22.43H59.08V6.16h2.61V42H59.08V24.89H38V42H35.34Z" transform="translate(-4.93 -5.49)"/><path class="cls-1" d="M71.42,6.16H87.74v2.4H74V22.48h12v2.41H74V39.58H88.31V42H71.42Z" transform="translate(-4.93 -5.49)"/><path class="cls-1" d="M110.78,29.39V6.16h2.61V29.34c0,6.66,3.48,10.85,10.28,10.85S134,36,134,29.34V6.16h2.61V29.39c0,8-4.66,13.26-12.9,13.26S110.78,37.43,110.78,29.39Z" transform="translate(-4.93 -5.49)"/><path class="cls-1" d="M146,6.16h2.56l22,31.58V6.16h2.61V42h-2.61l-21.9-31.63V42H146Z" transform="translate(-4.93 -5.49)"/><path class="cls-1" d="M182.89,6.16h16.33v2.4H185.5V22.74h12v2.4h-12V42h-2.61Z" transform="translate(-4.93 -5.49)"/><path class="cls-1" d="M222.66,5.49c10.13,0,18.11,8.09,18.11,18.58s-8,18.58-18.16,18.58-18.07-7.88-18.07-18.58S212.57,5.49,222.66,5.49Zm0,34.7c8.65,0,15.4-6.8,15.4-16.12S231.31,8,222.66,8s-15.41,6.91-15.41,16.12S214,40.19,222.66,40.19Z" transform="translate(-4.93 -5.49)"/><path class="cls-1" d="M248.3,6.16h8.24c7,0,10.7,4.5,10.7,9.72a9.5,9.5,0,0,1-6.66,9.21L269.69,42h-2.91L258.13,25.6h-7.22V42H248.3Zm8.34,17.09c4.81,0,7.83-2.82,7.83-7.37,0-4.25-2.86-7.32-8-7.32h-5.58V23.25Z" transform="translate(-4.93 -5.49)"/><path class="cls-1" d="M282.39,8.56H272.1V6.16h23.19v2.4H285V42h-2.61Z" transform="translate(-4.93 -5.49)"/><path class="cls-1" d="M302.25,29.39V6.16h2.6V29.34c0,6.66,3.48,10.85,10.29,10.85S325.43,36,325.43,29.34V6.16H328V29.39c0,8-4.66,13.26-12.9,13.26S302.25,37.43,302.25,29.39Z" transform="translate(-4.93 -5.49)"/><path class="cls-1" d="M337.51,6.16h2.56L362,37.74V6.16h2.61V42H362l-21.9-31.63V42h-2.61Z" transform="translate(-4.93 -5.49)"/><path class="cls-1" d="M378.3,29.13,373.44,42h-2.66L384.5,6.16h2.55L400.77,42h-2.66l-4.86-12.85Zm7.47-20-6.55,17.6h13.1Z" transform="translate(-4.93 -5.49)"/><path class="cls-1" d="M410.91,8.56H400.62V6.16H423.8v2.4H413.51V42h-2.6Z" transform="translate(-4.93 -5.49)"/><path class="cls-1" d="M431,6.16h16.32v2.4H433.63V22.48h12v2.41h-12V39.58h14.28V42H431Z" transform="translate(-4.93 -5.49)"/><path class="cls-1" d="M456.15,6.16h2.61V39.58H473V42H456.15Z" transform="translate(-4.93 -5.49)"/><path class="cls-1" d="M483.22,24.94,472.12,6.16h3l9.41,16.22,9.52-16.22H497L485.83,24.94V42h-2.61Z" transform="translate(-4.93 -5.49)"/><path class="cls-1" d="M517.36,6.16h2.56l22,31.58V6.16h2.61V42h-2.61L520,10.35V42h-2.61Z" transform="translate(-4.93 -5.49)"/><path class="cls-1" d="M556.26,6.16h16.33v2.4H558.87V22.48h12v2.41h-12V39.58h14.28V42H556.26Z" transform="translate(-4.93 -5.49)"/><path class="cls-1" d="M611.13,38.2a17.56,17.56,0,0,1-11.88,4.45c-10.18,0-18-8-18-18.58s8-18.58,17.81-18.58a17.73,17.73,0,0,1,11.31,3.94l-.92,2.36A16.28,16.28,0,0,0,599.1,8C590.75,8,584,14.81,584,24.07s6.4,16.12,15.25,16.12a16.24,16.24,0,0,0,11-4.3Z" transform="translate(-4.93 -5.49)"/><path class="cls-1" d="M620.54,6.16h16.33v2.4H623.15V22.48h12v2.41h-12V39.58h14.28V42H620.54Z" transform="translate(-4.93 -5.49)"/><path class="cls-1" d="M647.67,34.15c1,3,3.22,6.09,8.7,6.09,4.3,0,7.57-2.66,7.57-7.06,0-10.39-17.39-7.48-17.39-19,0-4.71,3.58-8.65,9.67-8.65a10,10,0,0,1,9.67,6.35l-2.2.82a8,8,0,0,0-7.47-4.81c-4.66,0-7.07,2.86-7.07,6.34,0,9.26,17.45,7.22,17.45,18.84,0,5.32-3.94,9.62-10.28,9.62-6.6,0-9.67-4-10.9-7.68Z" transform="translate(-4.93 -5.49)"/><path class="cls-1" d="M676.28,34.15c1,3,3.22,6.09,8.7,6.09,4.3,0,7.58-2.66,7.58-7.06,0-10.39-17.4-7.48-17.4-19,0-4.71,3.58-8.65,9.67-8.65a10,10,0,0,1,9.67,6.35l-2.2.82a8,8,0,0,0-7.47-4.81c-4.66,0-7.07,2.86-7.07,6.34,0,9.26,17.46,7.22,17.46,18.84,0,5.32-3.94,9.62-10.29,9.62-6.6,0-9.67-4-10.9-7.68Z" transform="translate(-4.93 -5.49)"/><path class="cls-1" d="M708.88,29.13,704,42h-2.66L715.07,6.16h2.56L731.35,42h-2.66l-4.87-12.85Zm7.47-20-6.55,17.6h13.1Z" transform="translate(-4.93 -5.49)"/><path class="cls-1" d="M739.54,6.16h8.24c7,0,10.7,4.5,10.7,9.72a9.5,9.5,0,0,1-6.66,9.21L760.93,42H758L749.37,25.6h-7.22V42h-2.61Zm8.34,17.09c4.81,0,7.83-2.82,7.83-7.37,0-4.25-2.86-7.32-8-7.32h-5.58V23.25Z" transform="translate(-4.93 -5.49)"/><path class="cls-1" d="M777,24.94,765.85,6.16h3l9.43,16.22L787.8,6.16h2.92L779.56,24.94V42H777Z" transform="translate(-4.93 -5.49)"/><path class="cls-1" d="M815.13,34.15c1,3,3.22,6.09,8.71,6.09,4.29,0,7.57-2.66,7.57-7.06,0-10.39-17.4-7.48-17.4-19,0-4.71,3.58-8.65,9.67-8.65a10,10,0,0,1,9.67,6.35l-2.2.82a8,8,0,0,0-7.47-4.81c-4.66,0-7.07,2.86-7.07,6.34,0,9.26,17.46,7.22,17.46,18.84,0,5.32-3.94,9.62-10.29,9.62-6.6,0-9.67-4-10.9-7.68Z" transform="translate(-4.93 -5.49)"/><path class="cls-1" d="M843.8,6.16h16.32v2.4H846.41V22.48h12v2.41h-12V39.58h14.27V42H843.8Z" transform="translate(-4.93 -5.49)"/><path class="cls-1" d="M886.89,5.49C897,5.49,905,13.58,905,24.07A18.73,18.73,0,0,1,900,37L904,40.91l-1.79,1.74-4-3.94a17.94,17.94,0,0,1-11.36,3.94c-10.08,0-18.06-7.88-18.06-18.58S876.81,5.49,886.89,5.49Zm0,34.7a15.06,15.06,0,0,0,9.52-3.27l-4.09-4.15L894.06,31l4.14,4.25a16.51,16.51,0,0,0,4.09-11.16c0-9.21-6.75-16.12-15.4-16.12s-15.4,6.91-15.4,16.12S878.19,40.19,886.89,40.19Z" transform="translate(-4.93 -5.49)"/><path class="cls-1" d="M914.38,29.39V6.16H917V29.34c0,6.66,3.48,10.85,10.28,10.85S937.56,36,937.56,29.34V6.16h2.61V29.39c0,8-4.66,13.26-12.9,13.26S914.38,37.43,914.38,29.39Z" transform="translate(-4.93 -5.49)"/><path class="cls-1" d="M951.68,6.16H968v2.4H954.3V22.48h12v2.41h-12V39.58h14.27V42H951.68Z" transform="translate(-4.93 -5.49)"/><path class="cls-1" d="M978.86,6.16h2.61V39.58h14.28V42H978.86Z" transform="translate(-4.93 -5.49)"/></svg>