<svg id="Layer_1" data-name="Layer 1" xmlns="http://www.w3.org/2000/svg" xmlns:xlink="http://www.w3.org/1999/xlink" viewBox="0 0 52.2 95.13"><defs><style>.cls-1{fill:url(#linear-gradient);}.cls-2{fill:#231f20;}</style><linearGradient id="linear-gradient" x1="44.72" y1="5.87" x2="44.72" y2="96.56" gradientUnits="userSpaceOnUse"><stop offset="0" stop-color="#da1c24"/><stop offset="0.06" stop-color="#d41d25"/><stop offset="0.13" stop-color="#c42128"/><stop offset="0.2" stop-color="#ae272d"/><stop offset="1" stop-color="#9d272d"/></linearGradient></defs><path class="cls-1" d="M53.45,13.2v-.09a6.81,6.81,0,0,0,1.14-1.3l-1.67-1.15a6,6,0,0,0-.75-3.73,8.52,8.52,0,0,0-5.16-1,18.92,18.92,0,0,0-2.36,3.59l-2.22,1A3.38,3.38,0,0,0,44.3,12v.08A26,26,0,0,0,44.41,15a9.36,9.36,0,0,0,.87,3.07c.06,0,.11.05.15.14a1.17,1.17,0,0,1,.25.82v.09c-.1.05-.15.15-.25.2a2.77,2.77,0,0,0-.83,1.28c-.84.34-1.58.78-2.22,1.11a15.71,15.71,0,0,1-2,1.05,4.67,4.67,0,0,0-2,2.26v0a20.91,20.91,0,0,0-.69,3.26,9.19,9.19,0,0,1-.83,3.4c-.35.87-.74,1.87-1.13,3a6.44,6.44,0,0,0-.4,3.25.94.94,0,0,0-.2.2c0,.09-.14.19-.19.28-.05.44-.15,1-.29,1.83-.15,1.09-.3,2.3-.45,3.68a27,27,0,0,0-.15,3.88c0,1.2,0,2.36,0,3.46v.14h0a.44.44,0,0,0,.24.09A19.24,19.24,0,0,1,33,54a1.72,1.72,0,0,0-.25.43c-.49.53-.38,1,.25,1.62a0,0,0,0,1,0,.05.63.63,0,0,1,0,.3v.28l-1.49-.58L28,56.31,24.61,70.47l10.07,3.17,3.32,0L40.61,60.4l-4.43-2.25.34-1.92c.1-.1.1-.19.16-.29h0A2,2,0,0,1,36,54.79l-.19.1a.51.51,0,0,0,.09-.24,3.84,3.84,0,0,0,.5-2.49A4.2,4.2,0,0,0,37.46,52h0a14.79,14.79,0,0,1,.93-3.22,20.44,20.44,0,0,0,.94-3.3,15.13,15.13,0,0,1,.44-1.87c.15-.48.3-1,.44-1.39l.06-.05c-.06.48-.06,1-.11,1.44H40c-.1.81-.2,1.58-.29,2.25a.51.51,0,0,0,.05.24c0,.05,0,.15,0,.19s0,.15,0,.19c-.11,1.11-.2,2.16-.35,3.22a21,21,0,0,0-.2,3.59c0,.43.05.86.05,1.2,0,0,0,.14,0,.14a8,8,0,0,0,2.51,1.43h0a1.78,1.78,0,0,1-.1.63v.19a.79.79,0,0,0,.29.63.47.47,0,0,1,.05.38,1,1,0,0,0,0,.43.16.16,0,0,1,0,.14,14.65,14.65,0,0,1,.43,2,10.73,10.73,0,0,0,.9,2.32c0,.43.2.91.3,1.44a15.09,15.09,0,0,0,1,2.74,20.31,20.31,0,0,0,1.62,2.58,8.34,8.34,0,0,1,1,2.15v.15a5.91,5.91,0,0,1-.78,2.93,1.43,1.43,0,0,0-.25.81.57.57,0,0,0,.11.43,6.94,6.94,0,0,0-.11,1.11c0,1.24-.09,2.49-.14,3.78s-.09,2.54-.09,3.78,0,2.31-.1,3.36a1.92,1.92,0,0,0,1,.43,4.23,4.23,0,0,0-.74,2.11v.14a.44.44,0,0,0-.18.24,8.28,8.28,0,0,0-1.1,2.39,2,2,0,0,0-.09.25,2.18,2.18,0,0,0-.49,2.11,3,3,0,0,0,3.24.67,2.64,2.64,0,0,0,2.32-2.2,7.76,7.76,0,0,1,1.19-3,1.72,1.72,0,0,0-.21-2.3s-.14-.1-.14-.14h.53c.16-1.2.4-2.39.64-3.55.06-.38.16-.77.26-1.24a2.1,2.1,0,0,0,2.16-1.44,6.89,6.89,0,0,0,.29-2.93A.78.78,0,0,1,55,78.9a7.84,7.84,0,0,0,1.47-3,1.12,1.12,0,0,0-.73-1.35.59.59,0,0,1,.1-.24,1.35,1.35,0,0,1-.59-.42c-.44-.63-.89-1.26-1.33-2v-.05A20.5,20.5,0,0,1,54.44,69a17.22,17.22,0,0,0,.44-2.4A8.82,8.82,0,0,0,55,65.43a27.18,27.18,0,0,1,.55-3.59c.24-1.21.44-2.36.58-3.5a12.39,12.39,0,0,0,.06-1.91A4.82,4.82,0,0,0,57.35,56a15.89,15.89,0,0,1,.24-2.64A6.59,6.59,0,0,1,59,53.07a20.15,20.15,0,0,1-.69-3.35c-.1-1.11-.19-2.16-.34-3.17h.49a13.2,13.2,0,0,0-.29-2.82v-.1H58a8.89,8.89,0,0,1,0-3.21,8.79,8.79,0,0,0,.15-.87,1.78,1.78,0,0,0,1,.87,4.16,4.16,0,0,0-.15,1.1,9.93,9.93,0,0,0,.45,3.26,19.75,19.75,0,0,1,.73,3.3,24.59,24.59,0,0,1,.35,3.45h.2a.44.44,0,0,0-.1.24,1.32,1.32,0,0,0-.1.34.63.63,0,0,0-.1.38.57.57,0,0,1-.3.33s-.09,0-.09,0-.11.15-.16.2a.34.34,0,0,0-.09.28.72.72,0,0,0-.05.34c0,.14,0,.29-.09.39s-.06.09,0,.18a.21.21,0,0,0,0,.15l.1.1c-.05,0-.1,0-.1,0a1.72,1.72,0,0,0-.15.72.92.92,0,0,1,.11.33,3.17,3.17,0,0,0,.23.44.68.68,0,0,0,.6.29.18.18,0,0,0,.19-.2c.06-.05.1-.05.1-.09v0a6.62,6.62,0,0,0,.25.62s0,0,.05,0,.2.1.2.24h.09a.49.49,0,0,0,.49-.38l.06-.05a.66.66,0,0,0,.74-.14s.09-.1.09-.1.05,0,.1,0A.19.19,0,0,1,63,55.9v0h0c.2-.1.39-.15.59-.25,0,0,0-.09,0-.09s.1,0,.1-.1.1,0,.1-.14,0-.05,0-.1c.24-.38.48-.66.64-1,0,0,0,0,0-.09v-.2c0-.19,0-.38,0-.58v0a.53.53,0,0,1-.05-.24,1.56,1.56,0,0,0-.25-.58c-.1,0-.1-.09-.15-.14A.7.7,0,0,0,64,52c-.05,0-.09-.1-.09-.15a.64.64,0,0,0-.15-.34.23.23,0,0,0,0-.14v0c.35,0,.68-.1,1.13-.14a27.62,27.62,0,0,0-.14-3.45c-.11-.67-.15-1.39-.2-2.11-.15-1.2-.35-2.35-.59-3.45a13.4,13.4,0,0,1-.3-2.11v-.76c0-.73,0-1.44,0-2.15V37a8.71,8.71,0,0,0-1.28-2.59v-.19c0-1.24,0-2.45-.1-3.65a14.65,14.65,0,0,0-.63-3.41,17.82,17.82,0,0,0-1.09-2.38.24.24,0,0,0-.1-.2v-.33a7.69,7.69,0,0,0-.39-1.39H60a11.85,11.85,0,0,0-1.62-.53,25.32,25.32,0,0,1-3.2-1.14c-.1-.05-.15-.11-.25-.16a12.23,12.23,0,0,1-2.5-1.57,1.07,1.07,0,0,0-.69-.86c.1-.92.19-1.88.24-2.83v0c1-.15,1.48-.86,1.52-2.16V13.2M35.39,57.67l-1.23-.48.05,0,.15-.48c.24.14.49.24.64.14a1.18,1.18,0,0,0,.64.34Z" transform="translate(-24.61 -1.44)"/><path d="M53.4,2.51a11.94,11.94,0,0,0-9.13-.3c0,.6-.11,1.35.54,1.72a17.05,17.05,0,0,0,8.64.89c.54-.13.62-.7.64-1.18A1.44,1.44,0,0,0,53.4,2.51ZM45.3,3a12.79,12.79,0,0,1,8,.69A17.39,17.39,0,0,1,45.3,3Z" transform="translate(-24.61 -1.44)"/><path class="cls-2" d="M70.92,86.91h-.07a5.3,5.3,0,0,1-4.63-2.62c-1.59-3-1.8-6.69-2-10.26-.3-5.36-.58-10.42-5.19-13.3a10.16,10.16,0,0,0-2-.94.12.12,0,0,1-.08-.11l-.16-1.35a.11.11,0,0,1,.05-.12.1.1,0,0,1,.12,0c3.7,1.08,6.36,4.84,7.09,10.08a45,45,0,0,1,.5,5.5,25.89,25.89,0,0,0,1.33,8.44,5.36,5.36,0,0,0,4.49,3.07A4.09,4.09,0,0,0,75,82.49l-.24.21a1.94,1.94,0,0,1-.87.53h0L72.73,83a.13.13,0,0,1-.1-.1.15.15,0,0,1,.05-.14l.17-.11a6.41,6.41,0,0,0,2.66-2.8.14.14,0,0,1,.09-.08.92.92,0,0,1,1.11.29.12.12,0,0,1,0,.1,13.86,13.86,0,0,0,.07,5,.15.15,0,0,1,0,.13.16.16,0,0,1-.13,0,1.2,1.2,0,0,0-.2,0,.62.62,0,0,1-.56-.23l0,0a7.79,7.79,0,0,1-.29-1.45l0-.26-.09.17a2.69,2.69,0,0,0-.22.45,4.16,4.16,0,0,1-3.48,2.86.11.11,0,0,1-.07,0h-.76Z" transform="translate(-24.61 -1.44)"/></svg>